<?xml version="1.0" encoding="utf-8" standalone="no"?>
<!DOCTYPE svg PUBLIC "-//W3C//DTD SVG 1.1//EN"
  "http://www.w3.org/Graphics/SVG/1.1/DTD/svg11.dtd">
<!-- Created with matplotlib (http://matplotlib.org/) -->
<svg height="345.6pt" version="1.1" viewBox="0 0 460.8 345.6" width="460.8pt" xmlns="http://www.w3.org/2000/svg" xmlns:xlink="http://www.w3.org/1999/xlink">
 <defs>
  <style type="text/css">
*{stroke-linecap:butt;stroke-linejoin:round;}
  </style>
 </defs>
 <g id="figure_1">
  <g id="patch_1">
   <path d="M 0 345.6 
L 460.8 345.6 
L 460.8 0 
L 0 0 
z
" style="fill:#ffffff;"/>
  </g>
  <g id="axes_1">
   <g id="patch_2">
    <path d="M 58.17 295.98 
L 446.76 295.98 
L 446.76 14.04 
L 58.17 14.04 
z
" style="fill:#eeeeee;"/>
   </g>
   <g id="matplotlib.axis_1">
    <g id="xtick_1">
     <g id="line2d_1">
      <path clip-path="url(#p651ba848b7)" d="M 75.833182 295.98 
L 75.833182 14.04 
" style="fill:none;stroke:#b2b2b2;stroke-dasharray:1.85,0.8;stroke-dashoffset:0;stroke-width:0.5;"/>
     </g>
     <g id="line2d_2">
      <defs>
       <path d="M 0 0 
L 0 -3.5 
" id="m7a0237d36f" style="stroke:#000000;stroke-width:0.8;"/>
      </defs>
      <g>
       <use style="stroke:#000000;stroke-width:0.8;" x="75.833182" xlink:href="#m7a0237d36f" y="295.98"/>
      </g>
     </g>
     <g id="text_1">
      <!-- 0 -->
      <defs>
       <path d="M 31.78125 66.40625 
Q 24.171875 66.40625 20.328125 58.90625 
Q 16.5 51.421875 16.5 36.375 
Q 16.5 21.390625 20.328125 13.890625 
Q 24.171875 6.390625 31.78125 6.390625 
Q 39.453125 6.390625 43.28125 13.890625 
Q 47.125 21.390625 47.125 36.375 
Q 47.125 51.421875 43.28125 58.90625 
Q 39.453125 66.40625 31.78125 66.40625 
z
M 31.78125 74.21875 
Q 44.046875 74.21875 50.515625 64.515625 
Q 56.984375 54.828125 56.984375 36.375 
Q 56.984375 17.96875 50.515625 8.265625 
Q 44.046875 -1.421875 31.78125 -1.421875 
Q 19.53125 -1.421875 13.0625 8.265625 
Q 6.59375 17.96875 6.59375 36.375 
Q 6.59375 54.828125 13.0625 64.515625 
Q 19.53125 74.21875 31.78125 74.21875 
z
" id="DejaVuSans-30"/>
      </defs>
      <g transform="translate(71.379432 310.117812)scale(0.14 -0.14)">
       <use xlink:href="#DejaVuSans-30"/>
      </g>
     </g>
    </g>
    <g id="xtick_2">
     <g id="line2d_3">
      <path clip-path="url(#p651ba848b7)" d="M 132.436873 295.98 
L 132.436873 14.04 
" style="fill:none;stroke:#b2b2b2;stroke-dasharray:1.85,0.8;stroke-dashoffset:0;stroke-width:0.5;"/>
     </g>
     <g id="line2d_4">
      <g>
       <use style="stroke:#000000;stroke-width:0.8;" x="132.436873" xlink:href="#m7a0237d36f" y="295.98"/>
      </g>
     </g>
     <g id="text_2">
      <!-- 1000 -->
      <defs>
       <path d="M 12.40625 8.296875 
L 28.515625 8.296875 
L 28.515625 63.921875 
L 10.984375 60.40625 
L 10.984375 69.390625 
L 28.421875 72.90625 
L 38.28125 72.90625 
L 38.28125 8.296875 
L 54.390625 8.296875 
L 54.390625 0 
L 12.40625 0 
z
" id="DejaVuSans-31"/>
      </defs>
      <g transform="translate(114.621873 310.117812)scale(0.14 -0.14)">
       <use xlink:href="#DejaVuSans-31"/>
       <use x="63.623047" xlink:href="#DejaVuSans-30"/>
       <use x="127.246094" xlink:href="#DejaVuSans-30"/>
       <use x="190.869141" xlink:href="#DejaVuSans-30"/>
      </g>
     </g>
    </g>
    <g id="xtick_3">
     <g id="line2d_5">
      <path clip-path="url(#p651ba848b7)" d="M 189.040564 295.98 
L 189.040564 14.04 
" style="fill:none;stroke:#b2b2b2;stroke-dasharray:1.85,0.8;stroke-dashoffset:0;stroke-width:0.5;"/>
     </g>
     <g id="line2d_6">
      <g>
       <use style="stroke:#000000;stroke-width:0.8;" x="189.040564" xlink:href="#m7a0237d36f" y="295.98"/>
      </g>
     </g>
     <g id="text_3">
      <!-- 2000 -->
      <defs>
       <path d="M 19.1875 8.296875 
L 53.609375 8.296875 
L 53.609375 0 
L 7.328125 0 
L 7.328125 8.296875 
Q 12.9375 14.109375 22.625 23.890625 
Q 32.328125 33.6875 34.8125 36.53125 
Q 39.546875 41.84375 41.421875 45.53125 
Q 43.3125 49.21875 43.3125 52.78125 
Q 43.3125 58.59375 39.234375 62.25 
Q 35.15625 65.921875 28.609375 65.921875 
Q 23.96875 65.921875 18.8125 64.3125 
Q 13.671875 62.703125 7.8125 59.421875 
L 7.8125 69.390625 
Q 13.765625 71.78125 18.9375 73 
Q 24.125 74.21875 28.421875 74.21875 
Q 39.75 74.21875 46.484375 68.546875 
Q 53.21875 62.890625 53.21875 53.421875 
Q 53.21875 48.921875 51.53125 44.890625 
Q 49.859375 40.875 45.40625 35.40625 
Q 44.1875 33.984375 37.640625 27.21875 
Q 31.109375 20.453125 19.1875 8.296875 
z
" id="DejaVuSans-32"/>
      </defs>
      <g transform="translate(171.225564 310.117812)scale(0.14 -0.14)">
       <use xlink:href="#DejaVuSans-32"/>
       <use x="63.623047" xlink:href="#DejaVuSans-30"/>
       <use x="127.246094" xlink:href="#DejaVuSans-30"/>
       <use x="190.869141" xlink:href="#DejaVuSans-30"/>
      </g>
     </g>
    </g>
    <g id="xtick_4">
     <g id="line2d_7">
      <path clip-path="url(#p651ba848b7)" d="M 245.644255 295.98 
L 245.644255 14.04 
" style="fill:none;stroke:#b2b2b2;stroke-dasharray:1.85,0.8;stroke-dashoffset:0;stroke-width:0.5;"/>
     </g>
     <g id="line2d_8">
      <g>
       <use style="stroke:#000000;stroke-width:0.8;" x="245.644255" xlink:href="#m7a0237d36f" y="295.98"/>
      </g>
     </g>
     <g id="text_4">
      <!-- 3000 -->
      <defs>
       <path d="M 40.578125 39.3125 
Q 47.65625 37.796875 51.625 33 
Q 55.609375 28.21875 55.609375 21.1875 
Q 55.609375 10.40625 48.1875 4.484375 
Q 40.765625 -1.421875 27.09375 -1.421875 
Q 22.515625 -1.421875 17.65625 -0.515625 
Q 12.796875 0.390625 7.625 2.203125 
L 7.625 11.71875 
Q 11.71875 9.328125 16.59375 8.109375 
Q 21.484375 6.890625 26.8125 6.890625 
Q 36.078125 6.890625 40.9375 10.546875 
Q 45.796875 14.203125 45.796875 21.1875 
Q 45.796875 27.640625 41.28125 31.265625 
Q 36.765625 34.90625 28.71875 34.90625 
L 20.21875 34.90625 
L 20.21875 43.015625 
L 29.109375 43.015625 
Q 36.375 43.015625 40.234375 45.921875 
Q 44.09375 48.828125 44.09375 54.296875 
Q 44.09375 59.90625 40.109375 62.90625 
Q 36.140625 65.921875 28.71875 65.921875 
Q 24.65625 65.921875 20.015625 65.03125 
Q 15.375 64.15625 9.8125 62.3125 
L 9.8125 71.09375 
Q 15.4375 72.65625 20.34375 73.4375 
Q 25.25 74.21875 29.59375 74.21875 
Q 40.828125 74.21875 47.359375 69.109375 
Q 53.90625 64.015625 53.90625 55.328125 
Q 53.90625 49.265625 50.4375 45.09375 
Q 46.96875 40.921875 40.578125 39.3125 
z
" id="DejaVuSans-33"/>
      </defs>
      <g transform="translate(227.829255 310.117812)scale(0.14 -0.14)">
       <use xlink:href="#DejaVuSans-33"/>
       <use x="63.623047" xlink:href="#DejaVuSans-30"/>
       <use x="127.246094" xlink:href="#DejaVuSans-30"/>
       <use x="190.869141" xlink:href="#DejaVuSans-30"/>
      </g>
     </g>
    </g>
    <g id="xtick_5">
     <g id="line2d_9">
      <path clip-path="url(#p651ba848b7)" d="M 302.247946 295.98 
L 302.247946 14.04 
" style="fill:none;stroke:#b2b2b2;stroke-dasharray:1.85,0.8;stroke-dashoffset:0;stroke-width:0.5;"/>
     </g>
     <g id="line2d_10">
      <g>
       <use style="stroke:#000000;stroke-width:0.8;" x="302.247946" xlink:href="#m7a0237d36f" y="295.98"/>
      </g>
     </g>
     <g id="text_5">
      <!-- 4000 -->
      <defs>
       <path d="M 37.796875 64.3125 
L 12.890625 25.390625 
L 37.796875 25.390625 
z
M 35.203125 72.90625 
L 47.609375 72.90625 
L 47.609375 25.390625 
L 58.015625 25.390625 
L 58.015625 17.1875 
L 47.609375 17.1875 
L 47.609375 0 
L 37.796875 0 
L 37.796875 17.1875 
L 4.890625 17.1875 
L 4.890625 26.703125 
z
" id="DejaVuSans-34"/>
      </defs>
      <g transform="translate(284.432946 310.117812)scale(0.14 -0.14)">
       <use xlink:href="#DejaVuSans-34"/>
       <use x="63.623047" xlink:href="#DejaVuSans-30"/>
       <use x="127.246094" xlink:href="#DejaVuSans-30"/>
       <use x="190.869141" xlink:href="#DejaVuSans-30"/>
      </g>
     </g>
    </g>
    <g id="xtick_6">
     <g id="line2d_11">
      <path clip-path="url(#p651ba848b7)" d="M 358.851637 295.98 
L 358.851637 14.04 
" style="fill:none;stroke:#b2b2b2;stroke-dasharray:1.85,0.8;stroke-dashoffset:0;stroke-width:0.5;"/>
     </g>
     <g id="line2d_12">
      <g>
       <use style="stroke:#000000;stroke-width:0.8;" x="358.851637" xlink:href="#m7a0237d36f" y="295.98"/>
      </g>
     </g>
     <g id="text_6">
      <!-- 5000 -->
      <defs>
       <path d="M 10.796875 72.90625 
L 49.515625 72.90625 
L 49.515625 64.59375 
L 19.828125 64.59375 
L 19.828125 46.734375 
Q 21.96875 47.46875 24.109375 47.828125 
Q 26.265625 48.1875 28.421875 48.1875 
Q 40.625 48.1875 47.75 41.5 
Q 54.890625 34.8125 54.890625 23.390625 
Q 54.890625 11.625 47.5625 5.09375 
Q 40.234375 -1.421875 26.90625 -1.421875 
Q 22.3125 -1.421875 17.546875 -0.640625 
Q 12.796875 0.140625 7.71875 1.703125 
L 7.71875 11.625 
Q 12.109375 9.234375 16.796875 8.0625 
Q 21.484375 6.890625 26.703125 6.890625 
Q 35.15625 6.890625 40.078125 11.328125 
Q 45.015625 15.765625 45.015625 23.390625 
Q 45.015625 31 40.078125 35.4375 
Q 35.15625 39.890625 26.703125 39.890625 
Q 22.75 39.890625 18.8125 39.015625 
Q 14.890625 38.140625 10.796875 36.28125 
z
" id="DejaVuSans-35"/>
      </defs>
      <g transform="translate(341.036637 310.117812)scale(0.14 -0.14)">
       <use xlink:href="#DejaVuSans-35"/>
       <use x="63.623047" xlink:href="#DejaVuSans-30"/>
       <use x="127.246094" xlink:href="#DejaVuSans-30"/>
       <use x="190.869141" xlink:href="#DejaVuSans-30"/>
      </g>
     </g>
    </g>
    <g id="xtick_7">
     <g id="line2d_13">
      <path clip-path="url(#p651ba848b7)" d="M 415.455329 295.98 
L 415.455329 14.04 
" style="fill:none;stroke:#b2b2b2;stroke-dasharray:1.85,0.8;stroke-dashoffset:0;stroke-width:0.5;"/>
     </g>
     <g id="line2d_14">
      <g>
       <use style="stroke:#000000;stroke-width:0.8;" x="415.455329" xlink:href="#m7a0237d36f" y="295.98"/>
      </g>
     </g>
     <g id="text_7">
      <!-- 6000 -->
      <defs>
       <path d="M 33.015625 40.375 
Q 26.375 40.375 22.484375 35.828125 
Q 18.609375 31.296875 18.609375 23.390625 
Q 18.609375 15.53125 22.484375 10.953125 
Q 26.375 6.390625 33.015625 6.390625 
Q 39.65625 6.390625 43.53125 10.953125 
Q 47.40625 15.53125 47.40625 23.390625 
Q 47.40625 31.296875 43.53125 35.828125 
Q 39.65625 40.375 33.015625 40.375 
z
M 52.59375 71.296875 
L 52.59375 62.3125 
Q 48.875 64.0625 45.09375 64.984375 
Q 41.3125 65.921875 37.59375 65.921875 
Q 27.828125 65.921875 22.671875 59.328125 
Q 17.53125 52.734375 16.796875 39.40625 
Q 19.671875 43.65625 24.015625 45.921875 
Q 28.375 48.1875 33.59375 48.1875 
Q 44.578125 48.1875 50.953125 41.515625 
Q 57.328125 34.859375 57.328125 23.390625 
Q 57.328125 12.15625 50.6875 5.359375 
Q 44.046875 -1.421875 33.015625 -1.421875 
Q 20.359375 -1.421875 13.671875 8.265625 
Q 6.984375 17.96875 6.984375 36.375 
Q 6.984375 53.65625 15.1875 63.9375 
Q 23.390625 74.21875 37.203125 74.21875 
Q 40.921875 74.21875 44.703125 73.484375 
Q 48.484375 72.75 52.59375 71.296875 
z
" id="DejaVuSans-36"/>
      </defs>
      <g transform="translate(397.640329 310.117812)scale(0.14 -0.14)">
       <use xlink:href="#DejaVuSans-36"/>
       <use x="63.623047" xlink:href="#DejaVuSans-30"/>
       <use x="127.246094" xlink:href="#DejaVuSans-30"/>
       <use x="190.869141" xlink:href="#DejaVuSans-30"/>
      </g>
     </g>
    </g>
    <g id="text_8">
     <!-- Iterations -->
     <defs>
      <path d="M 9.8125 72.90625 
L 19.671875 72.90625 
L 19.671875 0 
L 9.8125 0 
z
" id="DejaVuSans-49"/>
      <path d="M 18.3125 70.21875 
L 18.3125 54.6875 
L 36.8125 54.6875 
L 36.8125 47.703125 
L 18.3125 47.703125 
L 18.3125 18.015625 
Q 18.3125 11.328125 20.140625 9.421875 
Q 21.96875 7.515625 27.59375 7.515625 
L 36.8125 7.515625 
L 36.8125 0 
L 27.59375 0 
Q 17.1875 0 13.234375 3.875 
Q 9.28125 7.765625 9.28125 18.015625 
L 9.28125 47.703125 
L 2.6875 47.703125 
L 2.6875 54.6875 
L 9.28125 54.6875 
L 9.28125 70.21875 
z
" id="DejaVuSans-74"/>
      <path d="M 56.203125 29.59375 
L 56.203125 25.203125 
L 14.890625 25.203125 
Q 15.484375 15.921875 20.484375 11.0625 
Q 25.484375 6.203125 34.421875 6.203125 
Q 39.59375 6.203125 44.453125 7.46875 
Q 49.3125 8.734375 54.109375 11.28125 
L 54.109375 2.78125 
Q 49.265625 0.734375 44.1875 -0.34375 
Q 39.109375 -1.421875 33.890625 -1.421875 
Q 20.796875 -1.421875 13.15625 6.1875 
Q 5.515625 13.8125 5.515625 26.8125 
Q 5.515625 40.234375 12.765625 48.109375 
Q 20.015625 56 32.328125 56 
Q 43.359375 56 49.78125 48.890625 
Q 56.203125 41.796875 56.203125 29.59375 
z
M 47.21875 32.234375 
Q 47.125 39.59375 43.09375 43.984375 
Q 39.0625 48.390625 32.421875 48.390625 
Q 24.90625 48.390625 20.390625 44.140625 
Q 15.875 39.890625 15.1875 32.171875 
z
" id="DejaVuSans-65"/>
      <path d="M 41.109375 46.296875 
Q 39.59375 47.171875 37.8125 47.578125 
Q 36.03125 48 33.890625 48 
Q 26.265625 48 22.1875 43.046875 
Q 18.109375 38.09375 18.109375 28.8125 
L 18.109375 0 
L 9.078125 0 
L 9.078125 54.6875 
L 18.109375 54.6875 
L 18.109375 46.1875 
Q 20.953125 51.171875 25.484375 53.578125 
Q 30.03125 56 36.53125 56 
Q 37.453125 56 38.578125 55.875 
Q 39.703125 55.765625 41.0625 55.515625 
z
" id="DejaVuSans-72"/>
      <path d="M 34.28125 27.484375 
Q 23.390625 27.484375 19.1875 25 
Q 14.984375 22.515625 14.984375 16.5 
Q 14.984375 11.71875 18.140625 8.90625 
Q 21.296875 6.109375 26.703125 6.109375 
Q 34.1875 6.109375 38.703125 11.40625 
Q 43.21875 16.703125 43.21875 25.484375 
L 43.21875 27.484375 
z
M 52.203125 31.203125 
L 52.203125 0 
L 43.21875 0 
L 43.21875 8.296875 
Q 40.140625 3.328125 35.546875 0.953125 
Q 30.953125 -1.421875 24.3125 -1.421875 
Q 15.921875 -1.421875 10.953125 3.296875 
Q 6 8.015625 6 15.921875 
Q 6 25.140625 12.171875 29.828125 
Q 18.359375 34.515625 30.609375 34.515625 
L 43.21875 34.515625 
L 43.21875 35.40625 
Q 43.21875 41.609375 39.140625 45 
Q 35.0625 48.390625 27.6875 48.390625 
Q 23 48.390625 18.546875 47.265625 
Q 14.109375 46.140625 10.015625 43.890625 
L 10.015625 52.203125 
Q 14.9375 54.109375 19.578125 55.046875 
Q 24.21875 56 28.609375 56 
Q 40.484375 56 46.34375 49.84375 
Q 52.203125 43.703125 52.203125 31.203125 
z
" id="DejaVuSans-61"/>
      <path d="M 9.421875 54.6875 
L 18.40625 54.6875 
L 18.40625 0 
L 9.421875 0 
z
M 9.421875 75.984375 
L 18.40625 75.984375 
L 18.40625 64.59375 
L 9.421875 64.59375 
z
" id="DejaVuSans-69"/>
      <path d="M 30.609375 48.390625 
Q 23.390625 48.390625 19.1875 42.75 
Q 14.984375 37.109375 14.984375 27.296875 
Q 14.984375 17.484375 19.15625 11.84375 
Q 23.34375 6.203125 30.609375 6.203125 
Q 37.796875 6.203125 41.984375 11.859375 
Q 46.1875 17.53125 46.1875 27.296875 
Q 46.1875 37.015625 41.984375 42.703125 
Q 37.796875 48.390625 30.609375 48.390625 
z
M 30.609375 56 
Q 42.328125 56 49.015625 48.375 
Q 55.71875 40.765625 55.71875 27.296875 
Q 55.71875 13.875 49.015625 6.21875 
Q 42.328125 -1.421875 30.609375 -1.421875 
Q 18.84375 -1.421875 12.171875 6.21875 
Q 5.515625 13.875 5.515625 27.296875 
Q 5.515625 40.765625 12.171875 48.375 
Q 18.84375 56 30.609375 56 
z
" id="DejaVuSans-6f"/>
      <path d="M 54.890625 33.015625 
L 54.890625 0 
L 45.90625 0 
L 45.90625 32.71875 
Q 45.90625 40.484375 42.875 44.328125 
Q 39.84375 48.1875 33.796875 48.1875 
Q 26.515625 48.1875 22.3125 43.546875 
Q 18.109375 38.921875 18.109375 30.90625 
L 18.109375 0 
L 9.078125 0 
L 9.078125 54.6875 
L 18.109375 54.6875 
L 18.109375 46.1875 
Q 21.34375 51.125 25.703125 53.5625 
Q 30.078125 56 35.796875 56 
Q 45.21875 56 50.046875 50.171875 
Q 54.890625 44.34375 54.890625 33.015625 
z
" id="DejaVuSans-6e"/>
      <path d="M 44.28125 53.078125 
L 44.28125 44.578125 
Q 40.484375 46.53125 36.375 47.5 
Q 32.28125 48.484375 27.875 48.484375 
Q 21.1875 48.484375 17.84375 46.4375 
Q 14.5 44.390625 14.5 40.28125 
Q 14.5 37.15625 16.890625 35.375 
Q 19.28125 33.59375 26.515625 31.984375 
L 29.59375 31.296875 
Q 39.15625 29.25 43.1875 25.515625 
Q 47.21875 21.78125 47.21875 15.09375 
Q 47.21875 7.46875 41.1875 3.015625 
Q 35.15625 -1.421875 24.609375 -1.421875 
Q 20.21875 -1.421875 15.453125 -0.5625 
Q 10.6875 0.296875 5.421875 2 
L 5.421875 11.28125 
Q 10.40625 8.6875 15.234375 7.390625 
Q 20.0625 6.109375 24.8125 6.109375 
Q 31.15625 6.109375 34.5625 8.28125 
Q 37.984375 10.453125 37.984375 14.40625 
Q 37.984375 18.0625 35.515625 20.015625 
Q 33.0625 21.96875 24.703125 23.78125 
L 21.578125 24.515625 
Q 13.234375 26.265625 9.515625 29.90625 
Q 5.8125 33.546875 5.8125 39.890625 
Q 5.8125 47.609375 11.28125 51.796875 
Q 16.75 56 26.8125 56 
Q 31.78125 56 36.171875 55.265625 
Q 40.578125 54.546875 44.28125 53.078125 
z
" id="DejaVuSans-73"/>
     </defs>
     <g transform="translate(215.316281 328.882937)scale(0.156 -0.156)">
      <use xlink:href="#DejaVuSans-49"/>
      <use x="29.492188" xlink:href="#DejaVuSans-74"/>
      <use x="68.701172" xlink:href="#DejaVuSans-65"/>
      <use x="130.224609" xlink:href="#DejaVuSans-72"/>
      <use x="171.337891" xlink:href="#DejaVuSans-61"/>
      <use x="232.617188" xlink:href="#DejaVuSans-74"/>
      <use x="271.826172" xlink:href="#DejaVuSans-69"/>
      <use x="299.609375" xlink:href="#DejaVuSans-6f"/>
      <use x="360.791016" xlink:href="#DejaVuSans-6e"/>
      <use x="424.169922" xlink:href="#DejaVuSans-73"/>
     </g>
    </g>
   </g>
   <g id="matplotlib.axis_2">
    <g id="ytick_1">
     <g id="line2d_15">
      <path clip-path="url(#p651ba848b7)" d="M 58.17 284.138763 
L 446.76 284.138763 
" style="fill:none;stroke:#b2b2b2;stroke-dasharray:1.85,0.8;stroke-dashoffset:0;stroke-width:0.5;"/>
     </g>
     <g id="line2d_16">
      <defs>
       <path d="M 0 0 
L 3.5 0 
" id="mb2f99262ad" style="stroke:#000000;stroke-width:0.8;"/>
      </defs>
      <g>
       <use style="stroke:#000000;stroke-width:0.8;" x="58.17" xlink:href="#mb2f99262ad" y="284.138763"/>
      </g>
     </g>
     <g id="text_9">
      <!-- 1.0 -->
      <defs>
       <path d="M 10.6875 12.40625 
L 21 12.40625 
L 21 0 
L 10.6875 0 
z
" id="DejaVuSans-2e"/>
      </defs>
      <g transform="translate(32.405625 289.45767)scale(0.14 -0.14)">
       <use xlink:href="#DejaVuSans-31"/>
       <use x="63.623047" xlink:href="#DejaVuSans-2e"/>
       <use x="95.410156" xlink:href="#DejaVuSans-30"/>
      </g>
     </g>
    </g>
    <g id="ytick_2">
     <g id="line2d_17">
      <path clip-path="url(#p651ba848b7)" d="M 58.17 244.190383 
L 446.76 244.190383 
" style="fill:none;stroke:#b2b2b2;stroke-dasharray:1.85,0.8;stroke-dashoffset:0;stroke-width:0.5;"/>
     </g>
     <g id="line2d_18">
      <g>
       <use style="stroke:#000000;stroke-width:0.8;" x="58.17" xlink:href="#mb2f99262ad" y="244.190383"/>
      </g>
     </g>
     <g id="text_10">
      <!-- 1.1 -->
      <g transform="translate(32.405625 249.509289)scale(0.14 -0.14)">
       <use xlink:href="#DejaVuSans-31"/>
       <use x="63.623047" xlink:href="#DejaVuSans-2e"/>
       <use x="95.410156" xlink:href="#DejaVuSans-31"/>
      </g>
     </g>
    </g>
    <g id="ytick_3">
     <g id="line2d_19">
      <path clip-path="url(#p651ba848b7)" d="M 58.17 204.242002 
L 446.76 204.242002 
" style="fill:none;stroke:#b2b2b2;stroke-dasharray:1.85,0.8;stroke-dashoffset:0;stroke-width:0.5;"/>
     </g>
     <g id="line2d_20">
      <g>
       <use style="stroke:#000000;stroke-width:0.8;" x="58.17" xlink:href="#mb2f99262ad" y="204.242002"/>
      </g>
     </g>
     <g id="text_11">
      <!-- 1.2 -->
      <g transform="translate(32.405625 209.560909)scale(0.14 -0.14)">
       <use xlink:href="#DejaVuSans-31"/>
       <use x="63.623047" xlink:href="#DejaVuSans-2e"/>
       <use x="95.410156" xlink:href="#DejaVuSans-32"/>
      </g>
     </g>
    </g>
    <g id="ytick_4">
     <g id="line2d_21">
      <path clip-path="url(#p651ba848b7)" d="M 58.17 164.293622 
L 446.76 164.293622 
" style="fill:none;stroke:#b2b2b2;stroke-dasharray:1.85,0.8;stroke-dashoffset:0;stroke-width:0.5;"/>
     </g>
     <g id="line2d_22">
      <g>
       <use style="stroke:#000000;stroke-width:0.8;" x="58.17" xlink:href="#mb2f99262ad" y="164.293622"/>
      </g>
     </g>
     <g id="text_12">
      <!-- 1.3 -->
      <g transform="translate(32.405625 169.612528)scale(0.14 -0.14)">
       <use xlink:href="#DejaVuSans-31"/>
       <use x="63.623047" xlink:href="#DejaVuSans-2e"/>
       <use x="95.410156" xlink:href="#DejaVuSans-33"/>
      </g>
     </g>
    </g>
    <g id="ytick_5">
     <g id="line2d_23">
      <path clip-path="url(#p651ba848b7)" d="M 58.17 124.345241 
L 446.76 124.345241 
" style="fill:none;stroke:#b2b2b2;stroke-dasharray:1.85,0.8;stroke-dashoffset:0;stroke-width:0.5;"/>
     </g>
     <g id="line2d_24">
      <g>
       <use style="stroke:#000000;stroke-width:0.8;" x="58.17" xlink:href="#mb2f99262ad" y="124.345241"/>
      </g>
     </g>
     <g id="text_13">
      <!-- 1.4 -->
      <g transform="translate(32.405625 129.664148)scale(0.14 -0.14)">
       <use xlink:href="#DejaVuSans-31"/>
       <use x="63.623047" xlink:href="#DejaVuSans-2e"/>
       <use x="95.410156" xlink:href="#DejaVuSans-34"/>
      </g>
     </g>
    </g>
    <g id="ytick_6">
     <g id="line2d_25">
      <path clip-path="url(#p651ba848b7)" d="M 58.17 84.396861 
L 446.76 84.396861 
" style="fill:none;stroke:#b2b2b2;stroke-dasharray:1.85,0.8;stroke-dashoffset:0;stroke-width:0.5;"/>
     </g>
     <g id="line2d_26">
      <g>
       <use style="stroke:#000000;stroke-width:0.8;" x="58.17" xlink:href="#mb2f99262ad" y="84.396861"/>
      </g>
     </g>
     <g id="text_14">
      <!-- 1.5 -->
      <g transform="translate(32.405625 89.715767)scale(0.14 -0.14)">
       <use xlink:href="#DejaVuSans-31"/>
       <use x="63.623047" xlink:href="#DejaVuSans-2e"/>
       <use x="95.410156" xlink:href="#DejaVuSans-35"/>
      </g>
     </g>
    </g>
    <g id="ytick_7">
     <g id="line2d_27">
      <path clip-path="url(#p651ba848b7)" d="M 58.17 44.44848 
L 446.76 44.44848 
" style="fill:none;stroke:#b2b2b2;stroke-dasharray:1.85,0.8;stroke-dashoffset:0;stroke-width:0.5;"/>
     </g>
     <g id="line2d_28">
      <g>
       <use style="stroke:#000000;stroke-width:0.8;" x="58.17" xlink:href="#mb2f99262ad" y="44.44848"/>
      </g>
     </g>
     <g id="text_15">
      <!-- 1.6 -->
      <g transform="translate(32.405625 49.767387)scale(0.14 -0.14)">
       <use xlink:href="#DejaVuSans-31"/>
       <use x="63.623047" xlink:href="#DejaVuSans-2e"/>
       <use x="95.410156" xlink:href="#DejaVuSans-36"/>
      </g>
     </g>
    </g>
    <g id="text_16">
     <!-- PSRF -->
     <defs>
      <path d="M 19.671875 64.796875 
L 19.671875 37.40625 
L 32.078125 37.40625 
Q 38.96875 37.40625 42.71875 40.96875 
Q 46.484375 44.53125 46.484375 51.125 
Q 46.484375 57.671875 42.71875 61.234375 
Q 38.96875 64.796875 32.078125 64.796875 
z
M 9.8125 72.90625 
L 32.078125 72.90625 
Q 44.34375 72.90625 50.609375 67.359375 
Q 56.890625 61.8125 56.890625 51.125 
Q 56.890625 40.328125 50.609375 34.8125 
Q 44.34375 29.296875 32.078125 29.296875 
L 19.671875 29.296875 
L 19.671875 0 
L 9.8125 0 
z
" id="DejaVuSans-50"/>
      <path d="M 53.515625 70.515625 
L 53.515625 60.890625 
Q 47.90625 63.578125 42.921875 64.890625 
Q 37.9375 66.21875 33.296875 66.21875 
Q 25.25 66.21875 20.875 63.09375 
Q 16.5 59.96875 16.5 54.203125 
Q 16.5 49.359375 19.40625 46.890625 
Q 22.3125 44.4375 30.421875 42.921875 
L 36.375 41.703125 
Q 47.40625 39.59375 52.65625 34.296875 
Q 57.90625 29 57.90625 20.125 
Q 57.90625 9.515625 50.796875 4.046875 
Q 43.703125 -1.421875 29.984375 -1.421875 
Q 24.8125 -1.421875 18.96875 -0.25 
Q 13.140625 0.921875 6.890625 3.21875 
L 6.890625 13.375 
Q 12.890625 10.015625 18.65625 8.296875 
Q 24.421875 6.59375 29.984375 6.59375 
Q 38.421875 6.59375 43.015625 9.90625 
Q 47.609375 13.234375 47.609375 19.390625 
Q 47.609375 24.75 44.3125 27.78125 
Q 41.015625 30.8125 33.5 32.328125 
L 27.484375 33.5 
Q 16.453125 35.6875 11.515625 40.375 
Q 6.59375 45.0625 6.59375 53.421875 
Q 6.59375 63.09375 13.40625 68.65625 
Q 20.21875 74.21875 32.171875 74.21875 
Q 37.3125 74.21875 42.625 73.28125 
Q 47.953125 72.359375 53.515625 70.515625 
z
" id="DejaVuSans-53"/>
      <path d="M 44.390625 34.1875 
Q 47.5625 33.109375 50.5625 29.59375 
Q 53.5625 26.078125 56.59375 19.921875 
L 66.609375 0 
L 56 0 
L 46.6875 18.703125 
Q 43.0625 26.03125 39.671875 28.421875 
Q 36.28125 30.8125 30.421875 30.8125 
L 19.671875 30.8125 
L 19.671875 0 
L 9.8125 0 
L 9.8125 72.90625 
L 32.078125 72.90625 
Q 44.578125 72.90625 50.734375 67.671875 
Q 56.890625 62.453125 56.890625 51.90625 
Q 56.890625 45.015625 53.6875 40.46875 
Q 50.484375 35.9375 44.390625 34.1875 
z
M 19.671875 64.796875 
L 19.671875 38.921875 
L 32.078125 38.921875 
Q 39.203125 38.921875 42.84375 42.21875 
Q 46.484375 45.515625 46.484375 51.90625 
Q 46.484375 58.296875 42.84375 61.546875 
Q 39.203125 64.796875 32.078125 64.796875 
z
" id="DejaVuSans-52"/>
      <path d="M 9.8125 72.90625 
L 51.703125 72.90625 
L 51.703125 64.59375 
L 19.671875 64.59375 
L 19.671875 43.109375 
L 48.578125 43.109375 
L 48.578125 34.8125 
L 19.671875 34.8125 
L 19.671875 0 
L 9.8125 0 
z
" id="DejaVuSans-46"/>
     </defs>
     <g transform="translate(25.161313 174.570937)rotate(-90)scale(0.156 -0.156)">
      <use xlink:href="#DejaVuSans-50"/>
      <use x="60.302734" xlink:href="#DejaVuSans-53"/>
      <use x="123.779297" xlink:href="#DejaVuSans-52"/>
      <use x="193.261719" xlink:href="#DejaVuSans-46"/>
     </g>
    </g>
   </g>
   <g id="line2d_29">
    <path clip-path="url(#p651ba848b7)" d="M 75.833182 87.681235 
L 77.078463 112.433719 
L 77.418085 120.479141 
L 77.701104 124.509816 
L 78.267141 130.171228 
L 78.436952 131.234183 
L 79.116196 137.048509 
L 80.418081 147.412433 
L 80.531288 148.002216 
L 80.984118 153.081773 
L 81.493551 151.952136 
L 81.663362 151.812453 
L 81.776569 152.102161 
L 81.833173 152.051496 
L 81.94638 151.886837 
L 82.002984 151.947467 
L 82.85204 155.437913 
L 83.021851 154.8719 
L 83.47468 153.104997 
L 83.757699 151.756357 
L 83.870906 151.804713 
L 83.92751 151.822955 
L 84.097321 152.521679 
L 84.380339 154.127436 
L 84.436943 154.113839 
L 84.663358 153.851137 
L 84.889772 153.503355 
L 84.946376 153.600286 
L 85.229395 153.82011 
L 85.342602 154.179178 
L 85.512413 154.776236 
L 85.795431 155.582614 
L 85.965243 155.347465 
L 86.021846 155.470669 
L 86.304865 155.999 
L 86.587883 157.306343 
L 87.380335 163.950028 
L 88.172786 167.474014 
L 88.625616 166.340516 
L 88.68222 166.429979 
L 88.795427 166.463106 
L 88.908634 166.375699 
L 89.248257 166.895674 
L 89.30486 166.818075 
L 89.870897 165.089819 
L 89.984105 165.133751 
L 90.210519 165.652961 
L 90.323727 165.513284 
L 90.38033 165.57549 
L 90.550142 165.774188 
L 90.719953 166.532638 
L 91.342593 171.431113 
L 91.90863 175.653772 
L 92.36146 177.264089 
L 92.870893 181.520028 
L 93.493533 184.663544 
L 93.663345 185.404412 
L 94.965229 191.936353 
L 95.078437 192.099218 
L 95.757681 194.772078 
L 96.606736 197.377104 
L 97.059566 198.879876 
L 97.285981 200.253579 
L 97.625603 202.909236 
L 97.908621 203.483301 
L 98.418055 204.438928 
L 98.927488 207.180555 
L 99.26711 207.872292 
L 99.436921 208.781715 
L 99.833147 210.902236 
L 99.946354 211.071761 
L 100.852013 214.112758 
L 101.135032 214.433342 
L 101.248239 214.49086 
L 101.701069 215.316984 
L 101.87088 215.436194 
L 102.436917 216.945438 
L 102.606728 217.228773 
L 103.56899 219.5335 
L 103.682198 219.640066 
L 104.02182 220.213326 
L 104.814272 221.419294 
L 105.210498 222.392889 
L 105.606723 223.340683 
L 105.719931 223.515179 
L 106.059553 224.211708 
L 106.229364 224.310071 
L 107.361438 226.446571 
L 107.531249 226.36501 
L 107.644456 226.479121 
L 108.040682 227.237215 
L 108.436908 227.812595 
L 108.77653 227.622584 
L 108.946341 227.541287 
L 109.172756 228.084216 
L 109.455774 228.684036 
L 109.852 228.757454 
L 110.021811 228.93678 
L 110.248226 228.928686 
L 110.418037 229.042698 
L 110.644452 228.909583 
L 110.814263 228.891851 
L 111.097281 228.803243 
L 111.267092 228.870293 
L 111.493507 229.090854 
L 111.776526 229.258413 
L 112.512374 230.947351 
L 113.474636 235.824838 
L 114.323692 239.965834 
L 115.342558 244.864158 
L 116.13501 247.273663 
L 116.927462 248.905235 
L 117.380291 249.860826 
L 117.889724 250.965571 
L 118.229346 251.686588 
L 118.455761 252.022757 
L 118.908591 252.961433 
L 119.81425 255.259164 
L 120.097268 255.393569 
L 120.43689 255.432735 
L 120.663305 255.432512 
L 120.88972 255.43023 
L 121.455757 255.064014 
L 121.96519 254.479188 
L 122.304812 254.640207 
L 123.380282 255.74098 
L 123.550093 255.92549 
L 124.455753 257.268472 
L 124.851978 257.545208 
L 125.1916 258.378946 
L 127.002919 263.629907 
L 127.568956 264.949597 
L 127.851974 265.195061 
L 128.134992 265.320664 
L 128.531218 265.622462 
L 128.757633 265.765071 
L 129.550085 266.508382 
L 130.39914 267.0136 
L 131.021781 267.547802 
L 132.040647 267.926918 
L 132.323666 268.163415 
L 132.606684 268.327869 
L 134.021776 268.990555 
L 134.757624 269.617783 
L 135.60668 269.958391 
L 136.172717 269.909395 
L 136.68215 269.941336 
L 137.134979 269.804116 
L 137.870827 269.382767 
L 138.097242 269.278571 
L 138.946297 268.718624 
L 140.078371 268.579538 
L 140.474597 268.815132 
L 140.98403 268.738219 
L 141.380256 268.559984 
L 142.51233 268.626715 
L 143.134971 268.332386 
L 144.493459 268.53519 
L 144.719874 268.602039 
L 145.512326 269.386252 
L 145.965155 269.682559 
L 146.304777 269.691816 
L 147.380247 269.503287 
L 147.71987 269.369794 
L 148.285906 269.126923 
L 149.248169 268.764365 
L 151.738732 269.28918 
L 154.682124 266.31569 
L 155.021746 266.331067 
L 156.097216 267.241965 
L 156.436838 267.427343 
L 157.116082 267.874597 
L 157.455704 267.962568 
L 158.30476 268.57173 
L 158.984004 268.536251 
L 160.90853 269.807686 
L 162.097207 269.915634 
L 162.436829 269.966473 
L 162.889659 269.931781 
L 163.229281 269.970654 
L 164.021733 270.022536 
L 164.417958 269.940087 
L 164.927392 269.865196 
L 165.833051 269.99845 
L 166.28588 270.247266 
L 167.078332 270.944644 
L 168.153802 271.231241 
L 168.493424 271.312672 
L 168.88965 271.620411 
L 169.285876 271.761431 
L 170.021724 271.730344 
L 170.644364 271.640145 
L 171.550024 271.860214 
L 171.946249 271.955397 
L 172.399079 272.006699 
L 172.795305 272.290029 
L 173.361342 272.663986 
L 173.700964 272.697248 
L 174.323604 272.561394 
L 174.663227 272.517297 
L 175.851904 272.167266 
L 176.87077 272.167562 
L 177.153789 272.22209 
L 177.663222 272.318526 
L 178.059448 272.20809 
L 181.455669 270.926571 
L 181.965103 270.830842 
L 184.795287 271.820552 
L 185.814154 273.173897 
L 186.776416 274.037706 
L 187.399057 274.390139 
L 188.248112 274.940984 
L 188.927357 275.330312 
L 189.606601 275.514575 
L 190.568864 275.749535 
L 191.361315 276.212989 
L 193.625463 277.331162 
L 194.870744 277.139803 
L 195.776403 277.009773 
L 196.512251 277.201797 
L 197.983947 277.206919 
L 198.606588 277.062127 
L 199.39904 277.056075 
L 200.191491 277.014043 
L 200.927339 276.904375 
L 201.776395 276.880086 
L 202.285828 276.943417 
L 202.908468 276.852696 
L 203.531109 276.829479 
L 204.719787 276.749531 
L 205.116012 276.866281 
L 207.210349 277.574626 
L 207.83299 277.667374 
L 209.644308 277.570236 
L 210.60657 277.408457 
L 211.568833 277.132059 
L 213.436755 277.71594 
L 214.172603 277.871849 
L 215.021658 277.983935 
L 216.719769 278.018592 
L 217.34241 278.090386 
L 218.304672 278.176539 
L 220.229198 277.866489 
L 221.417875 277.617726 
L 222.266931 277.710441 
L 224.24806 277.855873 
L 226.85183 277.807957 
L 227.644281 277.934734 
L 228.436733 278.028464 
L 232.342388 277.61305 
L 233.191443 277.562025 
L 234.266913 277.39769 
L 237.776342 276.65373 
L 240.153697 276.96826 
L 240.889545 277.117726 
L 243.889541 277.569218 
L 246.097085 278.039738 
L 248.134818 278.179176 
L 249.380099 278.20991 
L 252.266887 278.69727 
L 253.398961 278.705593 
L 254.644242 278.621352 
L 255.946127 278.426672 
L 256.738579 278.263243 
L 259.172537 277.937246 
L 260.58763 278.03148 
L 262.455551 278.139462 
L 264.663095 278.264999 
L 265.96498 278.247201 
L 267.323469 278.156841 
L 269.361202 278.352915 
L 271.795161 278.563368 
L 272.531009 278.472062 
L 273.436668 278.281595 
L 275.4744 278.010043 
L 279.380055 276.809469 
L 280.964958 276.603545 
L 281.75741 276.474738 
L 284.078161 276.402474 
L 286.059291 276.679591 
L 286.851742 276.654333 
L 287.870609 276.463858 
L 289.964945 276.728509 
L 290.700793 276.706346 
L 291.606452 276.681457 
L 293.078148 276.840786 
L 295.568711 276.698709 
L 296.134748 276.953037 
L 296.813992 277.127073 
L 297.606444 277.130094 
L 298.455499 277.06959 
L 299.870591 277.199744 
L 301.115873 277.144318 
L 302.134739 276.997828 
L 303.436624 276.583507 
L 304.45549 276.579271 
L 306.946053 277.132827 
L 307.795108 277.125943 
L 308.983786 277.062699 
L 309.776237 277.032275 
L 311.19133 277.062626 
L 312.946044 277.235644 
L 314.474344 277.219949 
L 316.512077 277.235986 
L 321.832823 277.514386 
L 323.474331 277.190973 
L 326.644137 277.255545 
L 327.719607 277.347612 
L 329.530925 277.582559 
L 331.059225 277.693284 
L 332.134695 277.72629 
L 333.210165 277.969442 
L 334.51205 278.197073 
L 337.851668 278.394467 
L 339.436571 278.187801 
L 340.681853 277.957567 
L 343.285622 277.965975 
L 344.02147 277.985924 
L 345.436563 277.836246 
L 346.62524 277.806808 
L 347.757314 277.854926 
L 351.210139 277.770682 
L 352.229006 277.781233 
L 354.040324 278.036056 
L 356.870508 278.311382 
L 362.304463 279.183676 
L 365.474269 279.068672 
L 366.832758 279.044516 
L 368.530869 279.196374 
L 371.700675 279.468999 
L 377.247837 279.484284 
L 379.28557 279.545179 
L 381.493114 279.548705 
L 384.266695 279.701032 
L 385.56858 279.828236 
L 387.832727 279.962425 
L 391.172345 279.806886 
L 392.813852 279.98512 
L 393.662908 280.03715 
L 405.549683 279.878563 
L 408.096849 279.940418 
L 409.625148 280.015556 
L 412.964766 280.151582 
L 417.266647 279.973331 
L 418.342117 279.942147 
L 422.247772 280.104083 
L 423.719468 280.291768 
L 429.096818 280.558674 
L 429.096818 280.558674 
" style="fill:none;stroke:#348abd;stroke-linecap:square;stroke-width:2;"/>
   </g>
   <g id="line2d_30">
    <path clip-path="url(#p651ba848b7)" d="M 75.833182 26.855455 
L 76.512426 45.640958 
L 77.927518 89.171162 
L 78.380348 99.245479 
L 80.078459 119.377048 
L 80.87091 130.642648 
L 81.493551 138.204865 
L 82.172795 140.574837 
L 82.342606 141.352269 
L 82.569021 141.316632 
L 82.682228 141.609789 
L 82.738832 141.496398 
L 83.078454 140.226939 
L 83.361473 139.401162 
L 83.47468 139.936482 
L 83.814302 141.837661 
L 84.323735 143.090193 
L 84.436943 143.010949 
L 84.946376 142.505162 
L 85.229395 143.12025 
L 85.399206 143.262622 
L 85.738828 143.387758 
L 86.021846 142.724097 
L 86.07845 142.755833 
L 86.191657 142.754092 
L 86.248261 142.682407 
L 86.304865 142.78258 
L 86.418072 142.883882 
L 86.644487 142.345659 
L 86.757694 142.442763 
L 87.097316 142.480114 
L 87.15392 142.409594 
L 88.059579 138.778751 
L 88.285994 138.217256 
L 88.795427 140.396201 
L 89.191653 143.224194 
L 89.701086 147.462141 
L 89.927501 148.2509 
L 90.550142 149.833972 
L 90.606745 149.938784 
L 90.663349 149.890092 
L 90.776556 150.013624 
L 91.172782 151.774562 
L 91.569008 153.870724 
L 92.078441 154.735878 
L 92.531271 155.363587 
L 92.701082 155.962762 
L 93.040704 157.995921 
L 95.191644 172.060378 
L 95.531266 173.856197 
L 96.0407 177.456134 
L 96.719944 182.2276 
L 97.11617 184.304147 
L 98.248244 192.501187 
L 100.116165 199.990854 
L 100.852013 202.410568 
L 101.191635 202.5663 
L 101.304843 202.598168 
L 101.757672 203.89459 
L 102.436917 206.439584 
L 102.663331 206.564758 
L 102.94635 206.388649 
L 103.285972 205.91424 
L 103.738802 205.599777 
L 103.908613 205.716579 
L 104.135027 206.02511 
L 104.304838 206.067257 
L 104.418046 206.135992 
L 104.587857 206.131274 
L 104.814272 206.119998 
L 104.984083 206.118979 
L 105.323705 206.717916 
L 106.116157 209.58113 
L 106.399175 209.892116 
L 106.682193 210.175697 
L 107.135023 211.31345 
L 107.361438 212.333676 
L 107.814267 213.792146 
L 108.040682 214.697606 
L 108.493512 216.346867 
L 109.342567 217.857836 
L 110.531244 222.993667 
L 111.210489 225.221508 
L 111.493507 225.866938 
L 111.719922 225.905728 
L 111.946337 225.849073 
L 112.229355 225.853256 
L 112.568977 225.814924 
L 113.135014 226.256269 
L 113.587844 227.155735 
L 113.927466 227.753838 
L 114.436899 228.120241 
L 114.776521 227.931379 
L 115.002936 227.91226 
L 115.229351 228.110304 
L 116.361425 229.296329 
L 116.757651 228.925037 
L 117.323687 228.20226 
L 117.946328 227.409391 
L 118.28595 227.728343 
L 118.682176 228.383547 
L 119.078402 229.011777 
L 119.701042 230.720838 
L 120.493494 232.557596 
L 120.776513 233.098111 
L 122.757642 238.28688 
L 123.49349 238.952206 
L 124.11613 239.233712 
L 124.399149 239.386448 
L 124.795375 239.491544 
L 124.965186 239.736908 
L 125.418015 241.000493 
L 126.040656 243.385701 
L 126.436882 244.349662 
L 126.946315 245.208476 
L 127.455748 245.853138 
L 128.927444 247.69103 
L 129.210463 248.034151 
L 129.606688 248.592178 
L 130.002914 248.930578 
L 130.285933 248.974033 
L 130.908573 248.664981 
L 131.078384 248.508409 
L 131.361403 248.313079 
L 132.097251 248.134312 
L 132.663288 247.815453 
L 132.946306 247.993563 
L 133.399136 248.314444 
L 133.851965 248.235338 
L 134.361398 248.177501 
L 135.210454 248.371308 
L 135.663283 248.039844 
L 136.851961 247.040877 
L 137.361394 246.859876 
L 138.323657 246.786037 
L 139.399127 245.863476 
L 139.795353 245.95333 
L 140.757616 246.721829 
L 140.98403 246.8192 
L 142.116104 248.442684 
L 143.870819 250.752941 
L 144.097233 250.698908 
L 144.436855 250.676758 
L 144.606667 250.589753 
L 145.342515 249.9448 
L 145.851948 250.008532 
L 146.304777 249.784883 
L 146.701003 249.663873 
L 147.550058 249.682444 
L 148.002888 249.895411 
L 148.512321 249.950324 
L 149.41798 250.543873 
L 150.436847 251.970144 
L 150.94628 252.06722 
L 151.738732 252.8393 
L 152.587787 253.94174 
L 152.870805 254.058871 
L 154.512312 254.340685 
L 156.550045 252.981413 
L 157.172686 252.661794 
L 158.531175 251.74968 
L 159.719852 250.45758 
L 160.399096 249.914571 
L 161.700981 248.89961 
L 162.040603 248.906116 
L 162.323622 249.119405 
L 163.002866 250.028147 
L 164.474562 250.327477 
L 167.870784 253.114116 
L 168.606632 252.619362 
L 169.512291 252.063638 
L 169.96512 252.16348 
L 170.644364 252.593675 
L 171.04059 252.645554 
L 171.323609 252.551631 
L 171.606627 252.284824 
L 172.342475 251.623381 
L 172.738701 251.266767 
L 173.248134 250.613201 
L 173.64436 250.186606 
L 174.040586 250.033846 
L 174.833038 250.067746 
L 175.116056 250.223963 
L 175.851904 250.67772 
L 176.587752 250.785033 
L 177.946241 250.903953 
L 178.39907 251.069795 
L 178.738692 251.162131 
L 179.361333 251.415362 
L 179.814162 251.652952 
L 180.436803 251.996618 
L 181.455669 252.268194 
L 182.07831 252.649446 
L 183.097177 253.664452 
L 183.719817 253.983545 
L 184.625476 254.349418 
L 185.134909 254.724397 
L 185.814154 255.70573 
L 186.436794 256.63765 
L 187.172642 257.439351 
L 187.90849 257.80138 
L 188.531131 257.937452 
L 189.549997 258.247826 
L 190.625467 258.160126 
L 190.908486 258.196568 
L 191.814145 258.249612 
L 193.11603 258.897966 
L 195.380177 259.863207 
L 197.41791 261.383012 
L 199.002814 262.646241 
L 199.625454 262.781739 
L 200.02168 262.936804 
L 200.531113 263.204179 
L 201.323565 263.388208 
L 201.719791 263.446666 
L 203.870731 263.817751 
L 205.172616 263.606146 
L 205.85186 263.525363 
L 206.474501 263.673792 
L 208.625441 264.536652 
L 211.568833 263.699778 
L 214.795244 265.51566 
L 215.304677 265.839298 
L 216.436751 266.121748 
L 217.34241 266.136519 
L 218.078258 265.967081 
L 219.776368 265.108528 
L 220.795235 265.093862 
L 221.361272 265.077767 
L 222.946175 265.569917 
L 223.682023 265.667458 
L 225.040512 266.052434 
L 225.77636 266.465477 
L 227.531074 266.999961 
L 229.795222 268.062042 
L 231.15371 268.471534 
L 232.68201 268.831235 
L 233.814084 269.351149 
L 235.28578 269.473537 
L 235.90842 269.404621 
L 236.531061 269.405646 
L 237.040494 269.173647 
L 239.078227 267.921797 
L 240.436716 267.71797 
L 241.625393 267.823066 
L 244.398974 267.60874 
L 246.210292 267.968609 
L 248.644251 268.914379 
L 249.436703 269.236118 
L 250.002739 269.412746 
L 251.134813 269.819621 
L 251.757454 269.780839 
L 252.663113 269.712643 
L 256.229145 270.125107 
L 257.927256 271.067794 
L 259.285745 272.11588 
L 260.304611 272.716712 
L 262.455551 273.429333 
L 263.531022 273.764923 
L 264.097059 274.037787 
L 264.946114 274.479846 
L 266.191395 275.377613 
L 267.436676 276.196198 
L 268.56875 276.760006 
L 269.134787 276.86881 
L 272.361197 277.255934 
L 274.172516 277.542545 
L 276.889493 277.857538 
L 278.191378 277.618646 
L 280.398922 276.913031 
L 281.191373 276.85691 
L 282.266843 276.93611 
L 283.342314 277.073055 
L 284.36118 277.037153 
L 287.927212 276.282776 
L 289.851738 275.864568 
L 290.700793 276.035064 
L 292.79513 276.690299 
L 293.474374 276.707156 
L 295.172485 276.622049 
L 296.078144 276.461918 
L 297.606444 276.358829 
L 299.757384 276.671563 
L 301.455495 276.854258 
L 302.644172 277.025563 
L 306.266808 278.042535 
L 307.342279 278.262789 
L 311.757366 279.347795 
L 315.096984 279.527526 
L 319.115846 279.277007 
L 323.870556 279.014993 
L 329.191303 277.767522 
L 331.738469 277.785147 
L 333.43658 277.946271 
L 335.078087 278.00069 
L 337.398839 278.137592 
L 339.606382 278.52793 
L 341.191286 278.565589 
L 347.304484 278.495063 
L 349.512028 278.907518 
L 352.964854 278.765487 
L 356.13466 278.962661 
L 362.134652 278.973928 
L 364.398799 279.068816 
L 366.323325 278.961066 
L 369.606339 279.134385 
L 371.700675 279.369082 
L 374.021427 279.397639 
L 379.115759 279.127155 
L 382.172358 279.174785 
L 384.436506 279.162589 
L 386.134617 279.196554 
L 387.832727 279.32957 
L 392.813852 279.970119 
L 395.927055 280.561948 
L 397.625166 280.623687 
L 400.625162 280.826103 
L 406.398738 281.479037 
L 409.285526 281.788898 
L 412.681748 281.961262 
L 416.757214 282.063644 
L 421.681735 281.963829 
L 426.153426 282.062112 
L 429.096818 282.011682 
L 429.096818 282.011682 
" style="fill:none;stroke:#a60628;stroke-linecap:square;stroke-width:2;"/>
   </g>
   <g id="line2d_31">
    <path clip-path="url(#p651ba848b7)" d="M 75.833182 166.090361 
L 76.1162 166.020844 
L 76.229408 166.292436 
L 76.399219 165.554326 
L 76.455822 165.647364 
L 76.56903 165.59491 
L 76.852048 165.152982 
L 76.908652 165.248281 
L 77.078463 167.113898 
L 77.361481 175.13511 
L 77.984122 191.736369 
L 78.71997 204.037029 
L 79.229403 209.016058 
L 79.625629 211.530382 
L 79.738837 211.861469 
L 79.79544 211.838945 
L 80.078459 211.338145 
L 80.24827 212.497214 
L 81.153929 219.384652 
L 81.493551 221.172536 
L 81.663362 221.631881 
L 81.719966 221.601934 
L 82.059588 220.708992 
L 82.342606 220.832247 
L 83.078454 224.419232 
L 83.757699 228.277664 
L 84.210528 230.036856 
L 84.719961 231.704115 
L 84.889772 232.070647 
L 85.116187 232.318437 
L 85.512413 233.991269 
L 85.795431 235.26908 
L 86.135054 236.642473 
L 86.191657 236.61339 
L 86.418072 236.214703 
L 86.644487 236.091686 
L 87.267127 234.574556 
L 87.323731 234.725144 
L 87.550146 234.832998 
L 87.60675 234.826204 
L 88.059579 233.825373 
L 88.172786 233.842938 
L 88.285994 234.041601 
L 88.68222 235.568281 
L 89.021842 235.138127 
L 89.701086 236.044185 
L 89.870897 235.903286 
L 90.38033 235.983109 
L 90.550142 236.157495 
L 90.606745 236.156266 
L 90.889764 235.796214 
L 91.059575 235.603468 
L 91.116178 235.679555 
L 91.229386 235.771633 
L 91.569008 236.206379 
L 91.90863 236.332991 
L 92.191649 236.256904 
L 92.701082 234.920424 
L 93.43693 232.10418 
L 93.550137 232.059074 
L 93.719948 231.772675 
L 93.776552 231.817345 
L 93.946363 232.014672 
L 94.399193 231.480998 
L 94.625607 231.109417 
L 94.795418 231.081077 
L 95.078437 231.547064 
L 95.191644 231.715685 
L 95.757681 233.236169 
L 95.984096 233.59992 
L 96.267114 233.644386 
L 96.66334 233.069682 
L 96.776548 233.144115 
L 96.889755 233.275425 
L 98.078432 235.534659 
L 98.927488 238.546328 
L 99.097299 239.043412 
L 99.26711 239.024183 
L 99.380317 238.889044 
L 99.606732 238.602285 
L 99.776543 238.307269 
L 100.002958 237.994782 
L 100.285976 238.052937 
L 100.568995 238.750288 
L 100.625599 238.693633 
L 100.852013 238.545308 
L 101.078428 239.386708 
L 101.87088 241.883944 
L 101.927483 241.85924 
L 102.097295 241.869057 
L 102.436917 242.342683 
L 102.49352 242.273049 
L 103.059557 241.374162 
L 103.455783 240.526256 
L 103.625594 240.599517 
L 104.191631 241.351644 
L 105.719931 247.413881 
L 106.059553 248.734535 
L 106.682193 250.354173 
L 106.738797 250.321832 
L 107.078419 250.140859 
L 107.24823 250.328308 
L 107.531249 251.05028 
L 107.814267 252.009214 
L 108.833134 252.879531 
L 109.059549 253.377807 
L 110.870867 258.872323 
L 111.436904 258.641863 
L 112.229355 257.517979 
L 112.285959 257.568209 
L 112.682185 258.230765 
L 112.9086 258.411819 
L 113.078411 258.49427 
L 113.248222 258.551493 
L 113.361429 258.498235 
L 113.644447 258.36688 
L 114.436899 258.409425 
L 114.550107 258.296987 
L 114.833125 257.909723 
L 115.116143 257.863521 
L 116.361425 259.944764 
L 116.644443 260.212327 
L 117.097273 260.782146 
L 117.436895 260.802518 
L 117.606706 260.896923 
L 118.116139 261.544266 
L 119.36142 264.024624 
L 119.927457 264.41296 
L 120.833116 263.965146 
L 121.568964 264.327466 
L 121.851983 264.774654 
L 122.361416 265.38148 
L 122.757642 265.598575 
L 124.11613 265.268861 
L 124.738771 264.692692 
L 125.134997 264.147595 
L 125.304808 264.182505 
L 125.984052 265.012945 
L 126.210467 265.07773 
L 126.380278 265.126462 
L 126.7199 265.212189 
L 127.116126 265.25364 
L 127.342541 265.087744 
L 127.682163 264.911445 
L 129.663292 266.210189 
L 130.172725 266.425539 
L 132.097251 268.122635 
L 132.323666 268.416509 
L 132.663288 268.796983 
L 133.059514 269.110363 
L 133.795362 269.573556 
L 134.07838 269.550176 
L 134.361398 269.540575 
L 135.097246 269.509295 
L 135.380265 269.43115 
L 136.172717 268.639727 
L 136.908565 267.931703 
L 137.927431 267.286829 
L 138.776486 267.023756 
L 139.002901 267.068186 
L 139.455731 267.223023 
L 139.90856 267.378295 
L 141.040634 267.306379 
L 141.43686 267.600481 
L 142.229312 267.8876 
L 143.5878 268.884939 
L 143.870819 269.240365 
L 144.323648 269.907517 
L 144.719874 270.21543 
L 146.19157 270.786301 
L 146.701003 270.672301 
L 148.285906 271.660908 
L 149.134962 271.636945 
L 150.776469 271.484846 
L 151.116091 271.380265 
L 151.625524 271.301126 
L 151.965146 271.519171 
L 152.644391 272.09928 
L 153.153824 272.57329 
L 154.568916 273.920801 
L 155.078349 274.038382 
L 155.814197 273.89571 
L 156.210423 273.891846 
L 157.285893 273.838465 
L 157.625516 273.907243 
L 158.021741 273.894411 
L 158.361363 273.978608 
L 159.550041 274.367956 
L 160.002871 274.431566 
L 160.342493 274.444514 
L 162.776451 274.507679 
L 163.172677 274.545154 
L 163.908525 274.403607 
L 164.58777 274.391054 
L 164.927392 274.448212 
L 168.040595 275.204409 
L 168.776443 275.509854 
L 170.644364 275.189382 
L 171.097194 275.257957 
L 172.625494 274.965224 
L 173.531153 274.923952 
L 173.927379 274.993799 
L 175.002849 275.444319 
L 176.021715 275.633863 
L 177.097185 276.120412 
L 177.889637 276.129519 
L 178.512278 276.126404 
L 180.153785 276.408852 
L 181.342462 276.414848 
L 181.908499 276.699764 
L 183.210384 277.53002 
L 184.568872 277.947518 
L 185.021702 278.032085 
L 185.983965 278.267551 
L 187.399057 278.431505 
L 188.134905 278.643571 
L 189.153771 278.712379 
L 189.663205 278.733389 
L 190.399053 278.794912 
L 192.04056 278.521198 
L 192.6632 278.597434 
L 193.795274 278.755115 
L 194.1915 278.899679 
L 195.833007 279.775011 
L 196.851873 279.948563 
L 197.531118 280.252815 
L 199.625454 280.798048 
L 200.700924 280.755591 
L 201.436772 280.773065 
L 202.62545 280.523211 
L 204.040542 280.505496 
L 205.342427 280.448673 
L 209.021667 280.327961 
L 210.097137 280.257452 
L 211.229211 280.277375 
L 212.191474 280.58143 
L 212.983925 280.765618 
L 214.455621 280.863541 
L 215.078262 280.961771 
L 215.757506 281.140426 
L 216.606562 281.383983 
L 218.474483 281.518327 
L 221.474479 281.256109 
L 223.568816 281.384399 
L 226.172585 281.311917 
L 226.795226 281.149777 
L 227.757489 281.118696 
L 229.00277 281.142345 
L 233.927291 281.490887 
L 237.323513 281.373465 
L 239.078227 281.124429 
L 240.776338 281.153142 
L 241.512186 281.154511 
L 242.361241 281.142881 
L 246.889536 281.189293 
L 248.191421 281.3135 
L 251.474435 281.17329 
L 252.889528 281.074307 
L 254.700846 281.014747 
L 255.719712 281.019046 
L 257.248012 280.980748 
L 259.342348 280.74445 
L 261.040459 280.660658 
L 262.398948 280.6735 
L 263.361211 280.626005 
L 264.097059 280.62889 
L 265.738566 281.059266 
L 266.474414 281.287069 
L 269.078183 281.626849 
L 272.983838 281.726425 
L 273.832893 281.810148 
L 276.832889 282.158971 
L 280.795147 282.72899 
L 281.983825 282.845284 
L 283.625332 282.90299 
L 285.663065 282.893323 
L 288.606457 282.958282 
L 290.757397 283.013237 
L 295.512107 282.840683 
L 303.38002 282.625421 
L 304.681905 282.756882 
L 307.05926 282.841939 
L 308.700767 282.905209 
L 310.908311 283.069051 
L 312.776233 283.11392 
L 317.02151 283.073886 
L 320.021505 283.117084 
L 329.700737 282.584324 
L 331.908281 282.17413 
L 334.342239 281.838986 
L 336.719594 281.918367 
L 338.19129 281.968527 
L 339.323364 282.052634 
L 341.87053 282.218275 
L 344.078074 282.202214 
L 346.964862 282.303677 
L 355.681831 282.152632 
L 365.134647 281.194162 
L 365.927099 281.174082 
L 367.512002 281.115498 
L 370.002565 281.190429 
L 370.964827 281.244303 
L 373.115768 281.164205 
L 375.210104 281.223446 
L 376.172367 281.327211 
L 377.813874 281.320531 
L 378.662929 281.432237 
L 380.530851 281.543479 
L 385.285561 281.541213 
L 388.851594 281.55013 
L 390.606308 281.585814 
L 391.851589 281.551222 
L 394.851585 281.325066 
L 396.776111 281.163022 
L 399.719502 281.18521 
L 401.191198 281.216601 
L 404.417609 281.246287 
L 406.511945 281.129325 
L 407.983641 281.043604 
L 411.49307 281.049764 
L 413.587407 281.03962 
L 415.738347 281.060066 
L 418.794946 281.066991 
L 423.776071 281.421101 
L 425.7572 281.391692 
L 429.096818 281.339258 
L 429.096818 281.339258 
" style="fill:none;stroke:#7a68a6;stroke-linecap:square;stroke-width:2;"/>
   </g>
   <g id="patch_3">
    <path d="M 58.17 295.98 
L 58.17 14.04 
" style="fill:none;stroke:#bcbcbc;stroke-linecap:square;stroke-linejoin:miter;stroke-width:0.8;"/>
   </g>
   <g id="patch_4">
    <path d="M 446.76 295.98 
L 446.76 14.04 
" style="fill:none;stroke:#bcbcbc;stroke-linecap:square;stroke-linejoin:miter;stroke-width:0.8;"/>
   </g>
   <g id="patch_5">
    <path d="M 58.17 295.98 
L 446.76 295.98 
" style="fill:none;stroke:#bcbcbc;stroke-linecap:square;stroke-linejoin:miter;stroke-width:0.8;"/>
   </g>
   <g id="patch_6">
    <path d="M 58.17 14.04 
L 446.76 14.04 
" style="fill:none;stroke:#bcbcbc;stroke-linecap:square;stroke-linejoin:miter;stroke-width:0.8;"/>
   </g>
   <g id="legend_1">
    <g id="patch_7">
     <path d="M 337.69 81.684688 
L 437.66 81.684688 
Q 440.26 81.684688 440.26 79.084688 
L 440.26 23.14 
Q 440.26 20.54 437.66 20.54 
L 337.69 20.54 
Q 335.09 20.54 335.09 23.14 
L 335.09 79.084688 
Q 335.09 81.684688 337.69 81.684688 
z
" style="fill:#eeeeee;opacity:0.8;stroke:#cccccc;stroke-linejoin:miter;stroke-width:0.5;"/>
    </g>
    <g id="line2d_32">
     <path d="M 340.29 31.067969 
L 366.29 31.067969 
" style="fill:none;stroke:#348abd;stroke-linecap:square;stroke-width:2;"/>
    </g>
    <g id="line2d_33"/>
    <g id="text_17">
     <!-- PSRF ($\theta_1$) -->
     <defs>
      <path id="DejaVuSans-20"/>
      <path d="M 31 75.875 
Q 24.46875 64.65625 21.28125 53.65625 
Q 18.109375 42.671875 18.109375 31.390625 
Q 18.109375 20.125 21.3125 9.0625 
Q 24.515625 -2 31 -13.1875 
L 23.1875 -13.1875 
Q 15.875 -1.703125 12.234375 9.375 
Q 8.59375 20.453125 8.59375 31.390625 
Q 8.59375 42.28125 12.203125 53.3125 
Q 15.828125 64.359375 23.1875 75.875 
z
" id="DejaVuSans-28"/>
      <path d="M 16.109375 -1.125 
Q 11.578125 -1.125 8.84375 2.1875 
Q 6.109375 5.515625 5.046875 10.203125 
Q 4 14.890625 4 19.484375 
L 4 19.578125 
Q 4 24.5625 4.953125 29.921875 
Q 5.90625 35.296875 7.703125 40.640625 
Q 9.515625 46 11.625 50.203125 
Q 13.09375 53.125 15.40625 56.734375 
Q 17.71875 60.359375 20.578125 63.5 
Q 23.4375 66.65625 26.734375 68.578125 
Q 30.03125 70.515625 33.40625 70.515625 
L 33.5 70.515625 
Q 37.109375 70.515625 39.515625 68.5 
Q 41.9375 66.5 43.28125 63.375 
Q 44.625 60.25 45.15625 56.6875 
Q 45.703125 53.125 45.703125 49.90625 
Q 45.703125 42.328125 43.65625 34.4375 
Q 41.609375 26.5625 37.984375 19.1875 
Q 36.625 16.40625 34.203125 12.640625 
Q 31.78125 8.890625 29.078125 5.90625 
Q 26.375 2.9375 23 0.90625 
Q 19.625 -1.125 16.21875 -1.125 
z
M 16.3125 1.515625 
Q 19.625 1.515625 22.671875 5.046875 
Q 25.734375 8.59375 28.03125 13.640625 
Q 30.328125 18.703125 32.0625 24 
Q 33.796875 29.296875 34.625 33.015625 
L 14.203125 33.015625 
Q 12.640625 26.703125 11.765625 22.140625 
Q 10.890625 17.578125 10.890625 13.1875 
Q 10.890625 1.515625 16.3125 1.515625 
z
M 14.984375 36.53125 
L 35.5 36.53125 
Q 36.578125 40.921875 37.203125 43.875 
Q 37.84375 46.828125 38.28125 50.09375 
Q 38.71875 53.375 38.71875 56.203125 
Q 38.71875 67.921875 33.40625 67.921875 
Q 27.046875 67.921875 22.4375 57.6875 
Q 17.828125 47.46875 14.984375 36.53125 
z
" id="Cmmi10-b5"/>
      <path d="M 9.28125 0 
L 9.28125 3.515625 
Q 21.78125 3.515625 21.78125 6.6875 
L 21.78125 59.1875 
Q 16.609375 56.6875 8.6875 56.6875 
L 8.6875 60.203125 
Q 20.953125 60.203125 27.203125 66.609375 
L 28.609375 66.609375 
Q 28.953125 66.609375 29.265625 66.328125 
Q 29.59375 66.0625 29.59375 65.71875 
L 29.59375 6.6875 
Q 29.59375 3.515625 42.09375 3.515625 
L 42.09375 0 
z
" id="Cmr10-31"/>
      <path d="M 8.015625 75.875 
L 15.828125 75.875 
Q 23.140625 64.359375 26.78125 53.3125 
Q 30.421875 42.28125 30.421875 31.390625 
Q 30.421875 20.453125 26.78125 9.375 
Q 23.140625 -1.703125 15.828125 -13.1875 
L 8.015625 -13.1875 
Q 14.5 -2 17.703125 9.0625 
Q 20.90625 20.125 20.90625 31.390625 
Q 20.90625 42.671875 17.703125 53.65625 
Q 14.5 64.65625 8.015625 75.875 
z
" id="DejaVuSans-29"/>
     </defs>
     <g transform="translate(376.69 35.617969)scale(0.13 -0.13)">
      <use transform="translate(0 0.125)" xlink:href="#DejaVuSans-50"/>
      <use transform="translate(60.302734 0.125)" xlink:href="#DejaVuSans-53"/>
      <use transform="translate(123.779297 0.125)" xlink:href="#DejaVuSans-52"/>
      <use transform="translate(193.261719 0.125)" xlink:href="#DejaVuSans-46"/>
      <use transform="translate(250.78125 0.125)" xlink:href="#DejaVuSans-20"/>
      <use transform="translate(282.568359 0.125)" xlink:href="#DejaVuSans-28"/>
      <use transform="translate(321.582031 0.125)" xlink:href="#Cmmi10-b5"/>
      <use transform="translate(368.505859 -16.88125)scale(0.7)" xlink:href="#Cmr10-31"/>
      <use transform="translate(409.883203 0.125)" xlink:href="#DejaVuSans-29"/>
     </g>
    </g>
    <g id="line2d_34">
     <path d="M 340.29 50.149531 
L 366.29 50.149531 
" style="fill:none;stroke:#a60628;stroke-linecap:square;stroke-width:2;"/>
    </g>
    <g id="line2d_35"/>
    <g id="text_18">
     <!-- PSRF ($\theta_2$) -->
     <defs>
      <path d="M 4.984375 0 
L 4.984375 2.6875 
Q 4.984375 2.9375 5.171875 3.21875 
L 20.703125 20.40625 
Q 24.21875 24.21875 26.40625 26.796875 
Q 28.609375 29.390625 30.75 32.765625 
Q 32.90625 36.140625 34.15625 39.625 
Q 35.40625 43.109375 35.40625 47.015625 
Q 35.40625 51.125 33.890625 54.859375 
Q 32.375 58.59375 29.375 60.84375 
Q 26.375 63.09375 22.125 63.09375 
Q 17.78125 63.09375 14.3125 60.46875 
Q 10.84375 57.859375 9.421875 53.71875 
Q 9.8125 53.8125 10.5 53.8125 
Q 12.75 53.8125 14.328125 52.296875 
Q 15.921875 50.78125 15.921875 48.390625 
Q 15.921875 46.09375 14.328125 44.5 
Q 12.75 42.921875 10.5 42.921875 
Q 8.15625 42.921875 6.5625 44.546875 
Q 4.984375 46.1875 4.984375 48.390625 
Q 4.984375 52.15625 6.390625 55.4375 
Q 7.8125 58.734375 10.46875 61.296875 
Q 13.140625 63.875 16.484375 65.234375 
Q 19.828125 66.609375 23.578125 66.609375 
Q 29.296875 66.609375 34.21875 64.1875 
Q 39.15625 61.765625 42.03125 57.34375 
Q 44.921875 52.9375 44.921875 47.015625 
Q 44.921875 42.671875 43.015625 38.765625 
Q 41.109375 34.859375 38.125 31.65625 
Q 35.15625 28.46875 30.515625 24.40625 
Q 25.875 20.359375 24.421875 19 
L 13.09375 8.109375 
L 22.703125 8.109375 
Q 29.78125 8.109375 34.546875 8.21875 
Q 39.3125 8.34375 39.59375 8.59375 
Q 40.765625 9.859375 42 17.828125 
L 44.921875 17.828125 
L 42.09375 0 
z
" id="Cmr10-32"/>
     </defs>
     <g transform="translate(376.69 54.699531)scale(0.13 -0.13)">
      <use transform="translate(0 0.125)" xlink:href="#DejaVuSans-50"/>
      <use transform="translate(60.302734 0.125)" xlink:href="#DejaVuSans-53"/>
      <use transform="translate(123.779297 0.125)" xlink:href="#DejaVuSans-52"/>
      <use transform="translate(193.261719 0.125)" xlink:href="#DejaVuSans-46"/>
      <use transform="translate(250.78125 0.125)" xlink:href="#DejaVuSans-20"/>
      <use transform="translate(282.568359 0.125)" xlink:href="#DejaVuSans-28"/>
      <use transform="translate(321.582031 0.125)" xlink:href="#Cmmi10-b5"/>
      <use transform="translate(368.505859 -16.88125)scale(0.7)" xlink:href="#Cmr10-32"/>
      <use transform="translate(409.883203 0.125)" xlink:href="#DejaVuSans-29"/>
     </g>
    </g>
    <g id="line2d_36">
     <path d="M 340.29 69.231094 
L 366.29 69.231094 
" style="fill:none;stroke:#7a68a6;stroke-linecap:square;stroke-width:2;"/>
    </g>
    <g id="line2d_37"/>
    <g id="text_19">
     <!-- PSRF ($\theta_3$) -->
     <defs>
      <path d="M 9.515625 7.71875 
Q 11.859375 4.296875 15.8125 2.640625 
Q 19.78125 0.984375 24.3125 0.984375 
Q 30.125 0.984375 32.5625 5.9375 
Q 35.015625 10.890625 35.015625 17.1875 
Q 35.015625 20.015625 34.5 22.84375 
Q 33.984375 25.6875 32.765625 28.125 
Q 31.546875 30.5625 29.421875 32.03125 
Q 27.296875 33.5 24.21875 33.5 
L 17.578125 33.5 
Q 16.703125 33.5 16.703125 34.421875 
L 16.703125 35.296875 
Q 16.703125 36.078125 17.578125 36.078125 
L 23.09375 36.53125 
Q 26.609375 36.53125 28.921875 39.15625 
Q 31.25 41.796875 32.328125 45.578125 
Q 33.40625 49.359375 33.40625 52.78125 
Q 33.40625 57.5625 31.15625 60.640625 
Q 28.90625 63.71875 24.3125 63.71875 
Q 20.515625 63.71875 17.046875 62.28125 
Q 13.578125 60.84375 11.53125 57.90625 
Q 11.71875 57.953125 11.859375 57.984375 
Q 12.015625 58.015625 12.203125 58.015625 
Q 14.453125 58.015625 15.96875 56.453125 
Q 17.484375 54.890625 17.484375 52.6875 
Q 17.484375 50.53125 15.96875 48.96875 
Q 14.453125 47.40625 12.203125 47.40625 
Q 10.015625 47.40625 8.453125 48.96875 
Q 6.890625 50.53125 6.890625 52.6875 
Q 6.890625 56.984375 9.46875 60.15625 
Q 12.0625 63.328125 16.140625 64.96875 
Q 20.21875 66.609375 24.3125 66.609375 
Q 27.34375 66.609375 30.703125 65.703125 
Q 34.078125 64.796875 36.8125 63.109375 
Q 39.546875 61.421875 41.28125 58.78125 
Q 43.015625 56.15625 43.015625 52.78125 
Q 43.015625 48.578125 41.140625 45.015625 
Q 39.265625 41.453125 35.984375 38.859375 
Q 32.71875 36.28125 28.8125 35.015625 
Q 33.15625 34.1875 37.0625 31.734375 
Q 40.96875 29.296875 43.328125 25.484375 
Q 45.703125 21.6875 45.703125 17.28125 
Q 45.703125 11.765625 42.671875 7.296875 
Q 39.65625 2.828125 34.71875 0.3125 
Q 29.78125 -2.203125 24.3125 -2.203125 
Q 19.625 -2.203125 14.90625 -0.40625 
Q 10.203125 1.375 7.203125 4.9375 
Q 4.203125 8.5 4.203125 13.484375 
Q 4.203125 15.96875 5.859375 17.625 
Q 7.515625 19.28125 10.015625 19.28125 
Q 11.625 19.28125 12.96875 18.53125 
Q 14.3125 17.78125 15.0625 16.40625 
Q 15.828125 15.046875 15.828125 13.484375 
Q 15.828125 11.03125 14.109375 9.375 
Q 12.40625 7.71875 10.015625 7.71875 
z
" id="Cmr10-33"/>
     </defs>
     <g transform="translate(376.69 73.781094)scale(0.13 -0.13)">
      <use transform="translate(0 0.125)" xlink:href="#DejaVuSans-50"/>
      <use transform="translate(60.302734 0.125)" xlink:href="#DejaVuSans-53"/>
      <use transform="translate(123.779297 0.125)" xlink:href="#DejaVuSans-52"/>
      <use transform="translate(193.261719 0.125)" xlink:href="#DejaVuSans-46"/>
      <use transform="translate(250.78125 0.125)" xlink:href="#DejaVuSans-20"/>
      <use transform="translate(282.568359 0.125)" xlink:href="#DejaVuSans-28"/>
      <use transform="translate(321.582031 0.125)" xlink:href="#Cmmi10-b5"/>
      <use transform="translate(368.505859 -16.88125)scale(0.7)" xlink:href="#Cmr10-33"/>
      <use transform="translate(409.883203 0.125)" xlink:href="#DejaVuSans-29"/>
     </g>
    </g>
   </g>
  </g>
 </g>
 <defs>
  <clipPath id="p651ba848b7">
   <rect height="281.94" width="388.59" x="58.17" y="14.04"/>
  </clipPath>
 </defs>
</svg>
