<?xml version="1.0" encoding="utf-8" standalone="no"?>
<!DOCTYPE svg PUBLIC "-//W3C//DTD SVG 1.1//EN"
  "http://www.w3.org/Graphics/SVG/1.1/DTD/svg11.dtd">
<!-- Created with matplotlib (http://matplotlib.org/) -->
<svg height="345.6pt" version="1.1" viewBox="0 0 460.8 345.6" width="460.8pt" xmlns="http://www.w3.org/2000/svg" xmlns:xlink="http://www.w3.org/1999/xlink">
 <defs>
  <style type="text/css">
*{stroke-linecap:butt;stroke-linejoin:round;}
  </style>
 </defs>
 <g id="figure_1">
  <g id="patch_1">
   <path d="M 0 345.6 
L 460.8 345.6 
L 460.8 0 
L 0 0 
z
" style="fill:#ffffff;"/>
  </g>
  <g id="axes_1">
   <g id="patch_2">
    <path d="M 62.58 295.98 
L 446.76 295.98 
L 446.76 14.04 
L 62.58 14.04 
z
" style="fill:#eeeeee;"/>
   </g>
   <g id="matplotlib.axis_1">
    <g id="xtick_1">
     <g id="line2d_1">
      <path clip-path="url(#p3714304453)" d="M 80.042727 295.98 
L 80.042727 14.04 
" style="fill:none;stroke:#b2b2b2;stroke-dasharray:1.85,0.8;stroke-dashoffset:0;stroke-width:0.5;"/>
     </g>
     <g id="line2d_2">
      <defs>
       <path d="M 0 0 
L 0 -3.5 
" id="m11b5349a83" style="stroke:#000000;stroke-width:0.8;"/>
      </defs>
      <g>
       <use style="stroke:#000000;stroke-width:0.8;" x="80.042727" xlink:href="#m11b5349a83" y="295.98"/>
      </g>
     </g>
     <g id="text_1">
      <!-- 0 -->
      <defs>
       <path d="M 31.78125 66.40625 
Q 24.171875 66.40625 20.328125 58.90625 
Q 16.5 51.421875 16.5 36.375 
Q 16.5 21.390625 20.328125 13.890625 
Q 24.171875 6.390625 31.78125 6.390625 
Q 39.453125 6.390625 43.28125 13.890625 
Q 47.125 21.390625 47.125 36.375 
Q 47.125 51.421875 43.28125 58.90625 
Q 39.453125 66.40625 31.78125 66.40625 
z
M 31.78125 74.21875 
Q 44.046875 74.21875 50.515625 64.515625 
Q 56.984375 54.828125 56.984375 36.375 
Q 56.984375 17.96875 50.515625 8.265625 
Q 44.046875 -1.421875 31.78125 -1.421875 
Q 19.53125 -1.421875 13.0625 8.265625 
Q 6.59375 17.96875 6.59375 36.375 
Q 6.59375 54.828125 13.0625 64.515625 
Q 19.53125 74.21875 31.78125 74.21875 
z
" id="DejaVuSans-30"/>
      </defs>
      <g transform="translate(75.588977 310.117812)scale(0.14 -0.14)">
       <use xlink:href="#DejaVuSans-30"/>
      </g>
     </g>
    </g>
    <g id="xtick_2">
     <g id="line2d_3">
      <path clip-path="url(#p3714304453)" d="M 136.004039 295.98 
L 136.004039 14.04 
" style="fill:none;stroke:#b2b2b2;stroke-dasharray:1.85,0.8;stroke-dashoffset:0;stroke-width:0.5;"/>
     </g>
     <g id="line2d_4">
      <g>
       <use style="stroke:#000000;stroke-width:0.8;" x="136.004039" xlink:href="#m11b5349a83" y="295.98"/>
      </g>
     </g>
     <g id="text_2">
      <!-- 1000 -->
      <defs>
       <path d="M 12.40625 8.296875 
L 28.515625 8.296875 
L 28.515625 63.921875 
L 10.984375 60.40625 
L 10.984375 69.390625 
L 28.421875 72.90625 
L 38.28125 72.90625 
L 38.28125 8.296875 
L 54.390625 8.296875 
L 54.390625 0 
L 12.40625 0 
z
" id="DejaVuSans-31"/>
      </defs>
      <g transform="translate(118.189039 310.117812)scale(0.14 -0.14)">
       <use xlink:href="#DejaVuSans-31"/>
       <use x="63.623047" xlink:href="#DejaVuSans-30"/>
       <use x="127.246094" xlink:href="#DejaVuSans-30"/>
       <use x="190.869141" xlink:href="#DejaVuSans-30"/>
      </g>
     </g>
    </g>
    <g id="xtick_3">
     <g id="line2d_5">
      <path clip-path="url(#p3714304453)" d="M 191.96535 295.98 
L 191.96535 14.04 
" style="fill:none;stroke:#b2b2b2;stroke-dasharray:1.85,0.8;stroke-dashoffset:0;stroke-width:0.5;"/>
     </g>
     <g id="line2d_6">
      <g>
       <use style="stroke:#000000;stroke-width:0.8;" x="191.96535" xlink:href="#m11b5349a83" y="295.98"/>
      </g>
     </g>
     <g id="text_3">
      <!-- 2000 -->
      <defs>
       <path d="M 19.1875 8.296875 
L 53.609375 8.296875 
L 53.609375 0 
L 7.328125 0 
L 7.328125 8.296875 
Q 12.9375 14.109375 22.625 23.890625 
Q 32.328125 33.6875 34.8125 36.53125 
Q 39.546875 41.84375 41.421875 45.53125 
Q 43.3125 49.21875 43.3125 52.78125 
Q 43.3125 58.59375 39.234375 62.25 
Q 35.15625 65.921875 28.609375 65.921875 
Q 23.96875 65.921875 18.8125 64.3125 
Q 13.671875 62.703125 7.8125 59.421875 
L 7.8125 69.390625 
Q 13.765625 71.78125 18.9375 73 
Q 24.125 74.21875 28.421875 74.21875 
Q 39.75 74.21875 46.484375 68.546875 
Q 53.21875 62.890625 53.21875 53.421875 
Q 53.21875 48.921875 51.53125 44.890625 
Q 49.859375 40.875 45.40625 35.40625 
Q 44.1875 33.984375 37.640625 27.21875 
Q 31.109375 20.453125 19.1875 8.296875 
z
" id="DejaVuSans-32"/>
      </defs>
      <g transform="translate(174.15035 310.117812)scale(0.14 -0.14)">
       <use xlink:href="#DejaVuSans-32"/>
       <use x="63.623047" xlink:href="#DejaVuSans-30"/>
       <use x="127.246094" xlink:href="#DejaVuSans-30"/>
       <use x="190.869141" xlink:href="#DejaVuSans-30"/>
      </g>
     </g>
    </g>
    <g id="xtick_4">
     <g id="line2d_7">
      <path clip-path="url(#p3714304453)" d="M 247.926662 295.98 
L 247.926662 14.04 
" style="fill:none;stroke:#b2b2b2;stroke-dasharray:1.85,0.8;stroke-dashoffset:0;stroke-width:0.5;"/>
     </g>
     <g id="line2d_8">
      <g>
       <use style="stroke:#000000;stroke-width:0.8;" x="247.926662" xlink:href="#m11b5349a83" y="295.98"/>
      </g>
     </g>
     <g id="text_4">
      <!-- 3000 -->
      <defs>
       <path d="M 40.578125 39.3125 
Q 47.65625 37.796875 51.625 33 
Q 55.609375 28.21875 55.609375 21.1875 
Q 55.609375 10.40625 48.1875 4.484375 
Q 40.765625 -1.421875 27.09375 -1.421875 
Q 22.515625 -1.421875 17.65625 -0.515625 
Q 12.796875 0.390625 7.625 2.203125 
L 7.625 11.71875 
Q 11.71875 9.328125 16.59375 8.109375 
Q 21.484375 6.890625 26.8125 6.890625 
Q 36.078125 6.890625 40.9375 10.546875 
Q 45.796875 14.203125 45.796875 21.1875 
Q 45.796875 27.640625 41.28125 31.265625 
Q 36.765625 34.90625 28.71875 34.90625 
L 20.21875 34.90625 
L 20.21875 43.015625 
L 29.109375 43.015625 
Q 36.375 43.015625 40.234375 45.921875 
Q 44.09375 48.828125 44.09375 54.296875 
Q 44.09375 59.90625 40.109375 62.90625 
Q 36.140625 65.921875 28.71875 65.921875 
Q 24.65625 65.921875 20.015625 65.03125 
Q 15.375 64.15625 9.8125 62.3125 
L 9.8125 71.09375 
Q 15.4375 72.65625 20.34375 73.4375 
Q 25.25 74.21875 29.59375 74.21875 
Q 40.828125 74.21875 47.359375 69.109375 
Q 53.90625 64.015625 53.90625 55.328125 
Q 53.90625 49.265625 50.4375 45.09375 
Q 46.96875 40.921875 40.578125 39.3125 
z
" id="DejaVuSans-33"/>
      </defs>
      <g transform="translate(230.111662 310.117812)scale(0.14 -0.14)">
       <use xlink:href="#DejaVuSans-33"/>
       <use x="63.623047" xlink:href="#DejaVuSans-30"/>
       <use x="127.246094" xlink:href="#DejaVuSans-30"/>
       <use x="190.869141" xlink:href="#DejaVuSans-30"/>
      </g>
     </g>
    </g>
    <g id="xtick_5">
     <g id="line2d_9">
      <path clip-path="url(#p3714304453)" d="M 303.887974 295.98 
L 303.887974 14.04 
" style="fill:none;stroke:#b2b2b2;stroke-dasharray:1.85,0.8;stroke-dashoffset:0;stroke-width:0.5;"/>
     </g>
     <g id="line2d_10">
      <g>
       <use style="stroke:#000000;stroke-width:0.8;" x="303.887974" xlink:href="#m11b5349a83" y="295.98"/>
      </g>
     </g>
     <g id="text_5">
      <!-- 4000 -->
      <defs>
       <path d="M 37.796875 64.3125 
L 12.890625 25.390625 
L 37.796875 25.390625 
z
M 35.203125 72.90625 
L 47.609375 72.90625 
L 47.609375 25.390625 
L 58.015625 25.390625 
L 58.015625 17.1875 
L 47.609375 17.1875 
L 47.609375 0 
L 37.796875 0 
L 37.796875 17.1875 
L 4.890625 17.1875 
L 4.890625 26.703125 
z
" id="DejaVuSans-34"/>
      </defs>
      <g transform="translate(286.072974 310.117812)scale(0.14 -0.14)">
       <use xlink:href="#DejaVuSans-34"/>
       <use x="63.623047" xlink:href="#DejaVuSans-30"/>
       <use x="127.246094" xlink:href="#DejaVuSans-30"/>
       <use x="190.869141" xlink:href="#DejaVuSans-30"/>
      </g>
     </g>
    </g>
    <g id="xtick_6">
     <g id="line2d_11">
      <path clip-path="url(#p3714304453)" d="M 359.849285 295.98 
L 359.849285 14.04 
" style="fill:none;stroke:#b2b2b2;stroke-dasharray:1.85,0.8;stroke-dashoffset:0;stroke-width:0.5;"/>
     </g>
     <g id="line2d_12">
      <g>
       <use style="stroke:#000000;stroke-width:0.8;" x="359.849285" xlink:href="#m11b5349a83" y="295.98"/>
      </g>
     </g>
     <g id="text_6">
      <!-- 5000 -->
      <defs>
       <path d="M 10.796875 72.90625 
L 49.515625 72.90625 
L 49.515625 64.59375 
L 19.828125 64.59375 
L 19.828125 46.734375 
Q 21.96875 47.46875 24.109375 47.828125 
Q 26.265625 48.1875 28.421875 48.1875 
Q 40.625 48.1875 47.75 41.5 
Q 54.890625 34.8125 54.890625 23.390625 
Q 54.890625 11.625 47.5625 5.09375 
Q 40.234375 -1.421875 26.90625 -1.421875 
Q 22.3125 -1.421875 17.546875 -0.640625 
Q 12.796875 0.140625 7.71875 1.703125 
L 7.71875 11.625 
Q 12.109375 9.234375 16.796875 8.0625 
Q 21.484375 6.890625 26.703125 6.890625 
Q 35.15625 6.890625 40.078125 11.328125 
Q 45.015625 15.765625 45.015625 23.390625 
Q 45.015625 31 40.078125 35.4375 
Q 35.15625 39.890625 26.703125 39.890625 
Q 22.75 39.890625 18.8125 39.015625 
Q 14.890625 38.140625 10.796875 36.28125 
z
" id="DejaVuSans-35"/>
      </defs>
      <g transform="translate(342.034285 310.117812)scale(0.14 -0.14)">
       <use xlink:href="#DejaVuSans-35"/>
       <use x="63.623047" xlink:href="#DejaVuSans-30"/>
       <use x="127.246094" xlink:href="#DejaVuSans-30"/>
       <use x="190.869141" xlink:href="#DejaVuSans-30"/>
      </g>
     </g>
    </g>
    <g id="xtick_7">
     <g id="line2d_13">
      <path clip-path="url(#p3714304453)" d="M 415.810597 295.98 
L 415.810597 14.04 
" style="fill:none;stroke:#b2b2b2;stroke-dasharray:1.85,0.8;stroke-dashoffset:0;stroke-width:0.5;"/>
     </g>
     <g id="line2d_14">
      <g>
       <use style="stroke:#000000;stroke-width:0.8;" x="415.810597" xlink:href="#m11b5349a83" y="295.98"/>
      </g>
     </g>
     <g id="text_7">
      <!-- 6000 -->
      <defs>
       <path d="M 33.015625 40.375 
Q 26.375 40.375 22.484375 35.828125 
Q 18.609375 31.296875 18.609375 23.390625 
Q 18.609375 15.53125 22.484375 10.953125 
Q 26.375 6.390625 33.015625 6.390625 
Q 39.65625 6.390625 43.53125 10.953125 
Q 47.40625 15.53125 47.40625 23.390625 
Q 47.40625 31.296875 43.53125 35.828125 
Q 39.65625 40.375 33.015625 40.375 
z
M 52.59375 71.296875 
L 52.59375 62.3125 
Q 48.875 64.0625 45.09375 64.984375 
Q 41.3125 65.921875 37.59375 65.921875 
Q 27.828125 65.921875 22.671875 59.328125 
Q 17.53125 52.734375 16.796875 39.40625 
Q 19.671875 43.65625 24.015625 45.921875 
Q 28.375 48.1875 33.59375 48.1875 
Q 44.578125 48.1875 50.953125 41.515625 
Q 57.328125 34.859375 57.328125 23.390625 
Q 57.328125 12.15625 50.6875 5.359375 
Q 44.046875 -1.421875 33.015625 -1.421875 
Q 20.359375 -1.421875 13.671875 8.265625 
Q 6.984375 17.96875 6.984375 36.375 
Q 6.984375 53.65625 15.1875 63.9375 
Q 23.390625 74.21875 37.203125 74.21875 
Q 40.921875 74.21875 44.703125 73.484375 
Q 48.484375 72.75 52.59375 71.296875 
z
" id="DejaVuSans-36"/>
      </defs>
      <g transform="translate(397.995597 310.117812)scale(0.14 -0.14)">
       <use xlink:href="#DejaVuSans-36"/>
       <use x="63.623047" xlink:href="#DejaVuSans-30"/>
       <use x="127.246094" xlink:href="#DejaVuSans-30"/>
       <use x="190.869141" xlink:href="#DejaVuSans-30"/>
      </g>
     </g>
    </g>
    <g id="text_8">
     <!-- Iterations -->
     <defs>
      <path d="M 9.8125 72.90625 
L 19.671875 72.90625 
L 19.671875 0 
L 9.8125 0 
z
" id="DejaVuSans-49"/>
      <path d="M 18.3125 70.21875 
L 18.3125 54.6875 
L 36.8125 54.6875 
L 36.8125 47.703125 
L 18.3125 47.703125 
L 18.3125 18.015625 
Q 18.3125 11.328125 20.140625 9.421875 
Q 21.96875 7.515625 27.59375 7.515625 
L 36.8125 7.515625 
L 36.8125 0 
L 27.59375 0 
Q 17.1875 0 13.234375 3.875 
Q 9.28125 7.765625 9.28125 18.015625 
L 9.28125 47.703125 
L 2.6875 47.703125 
L 2.6875 54.6875 
L 9.28125 54.6875 
L 9.28125 70.21875 
z
" id="DejaVuSans-74"/>
      <path d="M 56.203125 29.59375 
L 56.203125 25.203125 
L 14.890625 25.203125 
Q 15.484375 15.921875 20.484375 11.0625 
Q 25.484375 6.203125 34.421875 6.203125 
Q 39.59375 6.203125 44.453125 7.46875 
Q 49.3125 8.734375 54.109375 11.28125 
L 54.109375 2.78125 
Q 49.265625 0.734375 44.1875 -0.34375 
Q 39.109375 -1.421875 33.890625 -1.421875 
Q 20.796875 -1.421875 13.15625 6.1875 
Q 5.515625 13.8125 5.515625 26.8125 
Q 5.515625 40.234375 12.765625 48.109375 
Q 20.015625 56 32.328125 56 
Q 43.359375 56 49.78125 48.890625 
Q 56.203125 41.796875 56.203125 29.59375 
z
M 47.21875 32.234375 
Q 47.125 39.59375 43.09375 43.984375 
Q 39.0625 48.390625 32.421875 48.390625 
Q 24.90625 48.390625 20.390625 44.140625 
Q 15.875 39.890625 15.1875 32.171875 
z
" id="DejaVuSans-65"/>
      <path d="M 41.109375 46.296875 
Q 39.59375 47.171875 37.8125 47.578125 
Q 36.03125 48 33.890625 48 
Q 26.265625 48 22.1875 43.046875 
Q 18.109375 38.09375 18.109375 28.8125 
L 18.109375 0 
L 9.078125 0 
L 9.078125 54.6875 
L 18.109375 54.6875 
L 18.109375 46.1875 
Q 20.953125 51.171875 25.484375 53.578125 
Q 30.03125 56 36.53125 56 
Q 37.453125 56 38.578125 55.875 
Q 39.703125 55.765625 41.0625 55.515625 
z
" id="DejaVuSans-72"/>
      <path d="M 34.28125 27.484375 
Q 23.390625 27.484375 19.1875 25 
Q 14.984375 22.515625 14.984375 16.5 
Q 14.984375 11.71875 18.140625 8.90625 
Q 21.296875 6.109375 26.703125 6.109375 
Q 34.1875 6.109375 38.703125 11.40625 
Q 43.21875 16.703125 43.21875 25.484375 
L 43.21875 27.484375 
z
M 52.203125 31.203125 
L 52.203125 0 
L 43.21875 0 
L 43.21875 8.296875 
Q 40.140625 3.328125 35.546875 0.953125 
Q 30.953125 -1.421875 24.3125 -1.421875 
Q 15.921875 -1.421875 10.953125 3.296875 
Q 6 8.015625 6 15.921875 
Q 6 25.140625 12.171875 29.828125 
Q 18.359375 34.515625 30.609375 34.515625 
L 43.21875 34.515625 
L 43.21875 35.40625 
Q 43.21875 41.609375 39.140625 45 
Q 35.0625 48.390625 27.6875 48.390625 
Q 23 48.390625 18.546875 47.265625 
Q 14.109375 46.140625 10.015625 43.890625 
L 10.015625 52.203125 
Q 14.9375 54.109375 19.578125 55.046875 
Q 24.21875 56 28.609375 56 
Q 40.484375 56 46.34375 49.84375 
Q 52.203125 43.703125 52.203125 31.203125 
z
" id="DejaVuSans-61"/>
      <path d="M 9.421875 54.6875 
L 18.40625 54.6875 
L 18.40625 0 
L 9.421875 0 
z
M 9.421875 75.984375 
L 18.40625 75.984375 
L 18.40625 64.59375 
L 9.421875 64.59375 
z
" id="DejaVuSans-69"/>
      <path d="M 30.609375 48.390625 
Q 23.390625 48.390625 19.1875 42.75 
Q 14.984375 37.109375 14.984375 27.296875 
Q 14.984375 17.484375 19.15625 11.84375 
Q 23.34375 6.203125 30.609375 6.203125 
Q 37.796875 6.203125 41.984375 11.859375 
Q 46.1875 17.53125 46.1875 27.296875 
Q 46.1875 37.015625 41.984375 42.703125 
Q 37.796875 48.390625 30.609375 48.390625 
z
M 30.609375 56 
Q 42.328125 56 49.015625 48.375 
Q 55.71875 40.765625 55.71875 27.296875 
Q 55.71875 13.875 49.015625 6.21875 
Q 42.328125 -1.421875 30.609375 -1.421875 
Q 18.84375 -1.421875 12.171875 6.21875 
Q 5.515625 13.875 5.515625 27.296875 
Q 5.515625 40.765625 12.171875 48.375 
Q 18.84375 56 30.609375 56 
z
" id="DejaVuSans-6f"/>
      <path d="M 54.890625 33.015625 
L 54.890625 0 
L 45.90625 0 
L 45.90625 32.71875 
Q 45.90625 40.484375 42.875 44.328125 
Q 39.84375 48.1875 33.796875 48.1875 
Q 26.515625 48.1875 22.3125 43.546875 
Q 18.109375 38.921875 18.109375 30.90625 
L 18.109375 0 
L 9.078125 0 
L 9.078125 54.6875 
L 18.109375 54.6875 
L 18.109375 46.1875 
Q 21.34375 51.125 25.703125 53.5625 
Q 30.078125 56 35.796875 56 
Q 45.21875 56 50.046875 50.171875 
Q 54.890625 44.34375 54.890625 33.015625 
z
" id="DejaVuSans-6e"/>
      <path d="M 44.28125 53.078125 
L 44.28125 44.578125 
Q 40.484375 46.53125 36.375 47.5 
Q 32.28125 48.484375 27.875 48.484375 
Q 21.1875 48.484375 17.84375 46.4375 
Q 14.5 44.390625 14.5 40.28125 
Q 14.5 37.15625 16.890625 35.375 
Q 19.28125 33.59375 26.515625 31.984375 
L 29.59375 31.296875 
Q 39.15625 29.25 43.1875 25.515625 
Q 47.21875 21.78125 47.21875 15.09375 
Q 47.21875 7.46875 41.1875 3.015625 
Q 35.15625 -1.421875 24.609375 -1.421875 
Q 20.21875 -1.421875 15.453125 -0.5625 
Q 10.6875 0.296875 5.421875 2 
L 5.421875 11.28125 
Q 10.40625 8.6875 15.234375 7.390625 
Q 20.0625 6.109375 24.8125 6.109375 
Q 31.15625 6.109375 34.5625 8.28125 
Q 37.984375 10.453125 37.984375 14.40625 
Q 37.984375 18.0625 35.515625 20.015625 
Q 33.0625 21.96875 24.703125 23.78125 
L 21.578125 24.515625 
Q 13.234375 26.265625 9.515625 29.90625 
Q 5.8125 33.546875 5.8125 39.890625 
Q 5.8125 47.609375 11.28125 51.796875 
Q 16.75 56 26.8125 56 
Q 31.78125 56 36.171875 55.265625 
Q 40.578125 54.546875 44.28125 53.078125 
z
" id="DejaVuSans-73"/>
     </defs>
     <g transform="translate(217.521281 328.882937)scale(0.156 -0.156)">
      <use xlink:href="#DejaVuSans-49"/>
      <use x="29.492188" xlink:href="#DejaVuSans-74"/>
      <use x="68.701172" xlink:href="#DejaVuSans-65"/>
      <use x="130.224609" xlink:href="#DejaVuSans-72"/>
      <use x="171.337891" xlink:href="#DejaVuSans-61"/>
      <use x="232.617188" xlink:href="#DejaVuSans-74"/>
      <use x="271.826172" xlink:href="#DejaVuSans-69"/>
      <use x="299.609375" xlink:href="#DejaVuSans-6f"/>
      <use x="360.791016" xlink:href="#DejaVuSans-6e"/>
      <use x="424.169922" xlink:href="#DejaVuSans-73"/>
     </g>
    </g>
   </g>
   <g id="matplotlib.axis_2">
    <g id="ytick_1">
     <g id="line2d_15">
      <path clip-path="url(#p3714304453)" d="M 62.58 276.281199 
L 446.76 276.281199 
" style="fill:none;stroke:#b2b2b2;stroke-dasharray:1.85,0.8;stroke-dashoffset:0;stroke-width:0.5;"/>
     </g>
     <g id="line2d_16">
      <defs>
       <path d="M 0 0 
L 3.5 0 
" id="m7131fca35f" style="stroke:#000000;stroke-width:0.8;"/>
      </defs>
      <g>
       <use style="stroke:#000000;stroke-width:0.8;" x="62.58" xlink:href="#m7131fca35f" y="276.281199"/>
      </g>
     </g>
     <g id="text_9">
      <!-- 200 -->
      <g transform="translate(32.3575 281.600105)scale(0.14 -0.14)">
       <use xlink:href="#DejaVuSans-32"/>
       <use x="63.623047" xlink:href="#DejaVuSans-30"/>
       <use x="127.246094" xlink:href="#DejaVuSans-30"/>
      </g>
     </g>
    </g>
    <g id="ytick_2">
     <g id="line2d_17">
      <path clip-path="url(#p3714304453)" d="M 62.58 233.784306 
L 446.76 233.784306 
" style="fill:none;stroke:#b2b2b2;stroke-dasharray:1.85,0.8;stroke-dashoffset:0;stroke-width:0.5;"/>
     </g>
     <g id="line2d_18">
      <g>
       <use style="stroke:#000000;stroke-width:0.8;" x="62.58" xlink:href="#m7131fca35f" y="233.784306"/>
      </g>
     </g>
     <g id="text_10">
      <!-- 300 -->
      <g transform="translate(32.3575 239.103212)scale(0.14 -0.14)">
       <use xlink:href="#DejaVuSans-33"/>
       <use x="63.623047" xlink:href="#DejaVuSans-30"/>
       <use x="127.246094" xlink:href="#DejaVuSans-30"/>
      </g>
     </g>
    </g>
    <g id="ytick_3">
     <g id="line2d_19">
      <path clip-path="url(#p3714304453)" d="M 62.58 191.287413 
L 446.76 191.287413 
" style="fill:none;stroke:#b2b2b2;stroke-dasharray:1.85,0.8;stroke-dashoffset:0;stroke-width:0.5;"/>
     </g>
     <g id="line2d_20">
      <g>
       <use style="stroke:#000000;stroke-width:0.8;" x="62.58" xlink:href="#m7131fca35f" y="191.287413"/>
      </g>
     </g>
     <g id="text_11">
      <!-- 400 -->
      <g transform="translate(32.3575 196.606319)scale(0.14 -0.14)">
       <use xlink:href="#DejaVuSans-34"/>
       <use x="63.623047" xlink:href="#DejaVuSans-30"/>
       <use x="127.246094" xlink:href="#DejaVuSans-30"/>
      </g>
     </g>
    </g>
    <g id="ytick_4">
     <g id="line2d_21">
      <path clip-path="url(#p3714304453)" d="M 62.58 148.79052 
L 446.76 148.79052 
" style="fill:none;stroke:#b2b2b2;stroke-dasharray:1.85,0.8;stroke-dashoffset:0;stroke-width:0.5;"/>
     </g>
     <g id="line2d_22">
      <g>
       <use style="stroke:#000000;stroke-width:0.8;" x="62.58" xlink:href="#m7131fca35f" y="148.79052"/>
      </g>
     </g>
     <g id="text_12">
      <!-- 500 -->
      <g transform="translate(32.3575 154.109426)scale(0.14 -0.14)">
       <use xlink:href="#DejaVuSans-35"/>
       <use x="63.623047" xlink:href="#DejaVuSans-30"/>
       <use x="127.246094" xlink:href="#DejaVuSans-30"/>
      </g>
     </g>
    </g>
    <g id="ytick_5">
     <g id="line2d_23">
      <path clip-path="url(#p3714304453)" d="M 62.58 106.293626 
L 446.76 106.293626 
" style="fill:none;stroke:#b2b2b2;stroke-dasharray:1.85,0.8;stroke-dashoffset:0;stroke-width:0.5;"/>
     </g>
     <g id="line2d_24">
      <g>
       <use style="stroke:#000000;stroke-width:0.8;" x="62.58" xlink:href="#m7131fca35f" y="106.293626"/>
      </g>
     </g>
     <g id="text_13">
      <!-- 600 -->
      <g transform="translate(32.3575 111.612533)scale(0.14 -0.14)">
       <use xlink:href="#DejaVuSans-36"/>
       <use x="63.623047" xlink:href="#DejaVuSans-30"/>
       <use x="127.246094" xlink:href="#DejaVuSans-30"/>
      </g>
     </g>
    </g>
    <g id="ytick_6">
     <g id="line2d_25">
      <path clip-path="url(#p3714304453)" d="M 62.58 63.796733 
L 446.76 63.796733 
" style="fill:none;stroke:#b2b2b2;stroke-dasharray:1.85,0.8;stroke-dashoffset:0;stroke-width:0.5;"/>
     </g>
     <g id="line2d_26">
      <g>
       <use style="stroke:#000000;stroke-width:0.8;" x="62.58" xlink:href="#m7131fca35f" y="63.796733"/>
      </g>
     </g>
     <g id="text_14">
      <!-- 700 -->
      <defs>
       <path d="M 8.203125 72.90625 
L 55.078125 72.90625 
L 55.078125 68.703125 
L 28.609375 0 
L 18.3125 0 
L 43.21875 64.59375 
L 8.203125 64.59375 
z
" id="DejaVuSans-37"/>
      </defs>
      <g transform="translate(32.3575 69.115639)scale(0.14 -0.14)">
       <use xlink:href="#DejaVuSans-37"/>
       <use x="63.623047" xlink:href="#DejaVuSans-30"/>
       <use x="127.246094" xlink:href="#DejaVuSans-30"/>
      </g>
     </g>
    </g>
    <g id="ytick_7">
     <g id="line2d_27">
      <path clip-path="url(#p3714304453)" d="M 62.58 21.29984 
L 446.76 21.29984 
" style="fill:none;stroke:#b2b2b2;stroke-dasharray:1.85,0.8;stroke-dashoffset:0;stroke-width:0.5;"/>
     </g>
     <g id="line2d_28">
      <g>
       <use style="stroke:#000000;stroke-width:0.8;" x="62.58" xlink:href="#m7131fca35f" y="21.29984"/>
      </g>
     </g>
     <g id="text_15">
      <!-- 800 -->
      <defs>
       <path d="M 31.78125 34.625 
Q 24.75 34.625 20.71875 30.859375 
Q 16.703125 27.09375 16.703125 20.515625 
Q 16.703125 13.921875 20.71875 10.15625 
Q 24.75 6.390625 31.78125 6.390625 
Q 38.8125 6.390625 42.859375 10.171875 
Q 46.921875 13.96875 46.921875 20.515625 
Q 46.921875 27.09375 42.890625 30.859375 
Q 38.875 34.625 31.78125 34.625 
z
M 21.921875 38.8125 
Q 15.578125 40.375 12.03125 44.71875 
Q 8.5 49.078125 8.5 55.328125 
Q 8.5 64.0625 14.71875 69.140625 
Q 20.953125 74.21875 31.78125 74.21875 
Q 42.671875 74.21875 48.875 69.140625 
Q 55.078125 64.0625 55.078125 55.328125 
Q 55.078125 49.078125 51.53125 44.71875 
Q 48 40.375 41.703125 38.8125 
Q 48.828125 37.15625 52.796875 32.3125 
Q 56.78125 27.484375 56.78125 20.515625 
Q 56.78125 9.90625 50.3125 4.234375 
Q 43.84375 -1.421875 31.78125 -1.421875 
Q 19.734375 -1.421875 13.25 4.234375 
Q 6.78125 9.90625 6.78125 20.515625 
Q 6.78125 27.484375 10.78125 32.3125 
Q 14.796875 37.15625 21.921875 38.8125 
z
M 18.3125 54.390625 
Q 18.3125 48.734375 21.84375 45.5625 
Q 25.390625 42.390625 31.78125 42.390625 
Q 38.140625 42.390625 41.71875 45.5625 
Q 45.3125 48.734375 45.3125 54.390625 
Q 45.3125 60.0625 41.71875 63.234375 
Q 38.140625 66.40625 31.78125 66.40625 
Q 25.390625 66.40625 21.84375 63.234375 
Q 18.3125 60.0625 18.3125 54.390625 
z
" id="DejaVuSans-38"/>
      </defs>
      <g transform="translate(32.3575 26.618746)scale(0.14 -0.14)">
       <use xlink:href="#DejaVuSans-38"/>
       <use x="63.623047" xlink:href="#DejaVuSans-30"/>
       <use x="127.246094" xlink:href="#DejaVuSans-30"/>
      </g>
     </g>
    </g>
    <g id="text_16">
     <!-- V -->
     <defs>
      <path d="M 28.609375 0 
L 0.78125 72.90625 
L 11.078125 72.90625 
L 34.1875 11.53125 
L 57.328125 72.90625 
L 67.578125 72.90625 
L 39.796875 0 
z
" id="DejaVuSans-56"/>
     </defs>
     <g transform="translate(25.113187 160.345687)rotate(-90)scale(0.156 -0.156)">
      <use xlink:href="#DejaVuSans-56"/>
     </g>
    </g>
   </g>
   <g id="line2d_29">
    <path clip-path="url(#p3714304453)" d="M 80.042727 183.457354 
L 80.490418 186.254618 
L 80.546379 186.218114 
L 80.882147 187.659318 
L 81.105992 188.492375 
L 81.161954 188.474614 
L 81.329837 189.073527 
L 82.113296 191.782358 
L 82.225218 191.824816 
L 82.449064 191.704499 
L 82.616948 191.963623 
L 83.960019 197.254103 
L 84.8554 198.980263 
L 85.191168 199.163991 
L 86.310394 203.141588 
L 86.646162 204.507008 
L 87.093853 205.635431 
L 87.261736 205.719545 
L 87.485582 205.355968 
L 87.597504 205.421999 
L 87.877311 206.056804 
L 88.157117 206.872713 
L 88.380963 207.032516 
L 88.604808 206.910706 
L 88.716731 206.892317 
L 88.940576 206.585511 
L 89.10846 206.471152 
L 89.332305 206.106191 
L 89.500189 206.273079 
L 89.891918 206.777242 
L 90.059802 206.688341 
L 90.283647 206.452883 
L 90.339609 206.513835 
L 91.68268 208.135597 
L 92.130371 208.5852 
L 93.921133 212.006774 
L 94.144978 212.723172 
L 94.592668 214.214681 
L 95.208243 216.096219 
L 95.879778 217.185621 
L 96.159585 217.135375 
L 96.439392 216.769001 
L 96.831121 216.67359 
L 96.999005 216.912258 
L 98.118231 219.078531 
L 98.50996 219.713094 
L 98.901689 220.47973 
L 99.237457 221.098136 
L 99.908993 222.444691 
L 100.300722 222.513457 
L 100.468606 222.510047 
L 100.748413 222.433631 
L 100.860335 222.486473 
L 101.252064 222.807346 
L 101.419948 222.929851 
L 101.643794 223.068936 
L 101.979561 223.53832 
L 102.371291 224.224169 
L 103.602439 226.547711 
L 104.441859 227.738203 
L 105.449163 229.479516 
L 106.008776 229.233267 
L 106.400505 228.765851 
L 106.736273 228.078914 
L 107.016079 227.472233 
L 107.183963 227.467706 
L 108.135306 228.402942 
L 108.75088 228.915822 
L 109.030687 229.225762 
L 109.254532 229.631938 
L 110.093952 231.087472 
L 110.541642 231.355167 
L 110.709526 231.480864 
L 111.101255 232.140879 
L 111.548946 232.827807 
L 111.884714 233.279009 
L 112.220481 233.768473 
L 112.892017 234.773275 
L 113.227785 235.180483 
L 113.45163 235.288874 
L 114.347011 234.536302 
L 114.73874 233.931774 
L 115.13047 233.32774 
L 117.872574 227.146255 
L 118.15238 226.683731 
L 118.488148 225.873215 
L 118.9918 225.157746 
L 119.271607 224.851162 
L 120.111026 223.76026 
L 120.502756 222.861225 
L 120.894485 222.411958 
L 121.062369 222.495455 
L 121.621982 222.969828 
L 121.95775 222.906133 
L 122.237556 222.859527 
L 122.853131 223.176297 
L 123.188898 223.313382 
L 123.468705 223.591883 
L 124.53197 224.844255 
L 125.147544 225.206204 
L 125.539274 224.742573 
L 125.763119 224.60706 
L 126.210809 224.756859 
L 126.434655 224.783985 
L 126.770422 225.105866 
L 127.274074 225.534712 
L 128.673107 226.060597 
L 129.120798 226.061085 
L 129.904256 226.276328 
L 130.407908 226.135161 
L 131.079443 225.949342 
L 131.527134 226.284671 
L 131.80694 226.486478 
L 132.590399 226.852052 
L 132.814244 226.859053 
L 133.373857 226.494434 
L 133.821548 225.940202 
L 134.157316 225.591807 
L 134.549045 225.456869 
L 134.77289 225.315258 
L 135.276542 224.61863 
L 135.724232 224.735311 
L 136.004039 224.764774 
L 137.067304 225.155878 
L 139.47364 225.554618 
L 139.977292 225.970663 
L 141.040557 225.829957 
L 141.208441 225.909334 
L 142.271706 226.975662 
L 142.551512 227.215599 
L 143.670739 228.346218 
L 144.230352 228.822547 
L 144.789965 229.383367 
L 147.084379 231.434699 
L 147.532069 231.661224 
L 147.923798 231.827578 
L 149.658599 232.994426 
L 150.386096 233.576115 
L 150.609941 233.522593 
L 151.449361 232.849918 
L 152.064935 232.610316 
L 152.400703 232.759557 
L 152.736471 232.971043 
L 152.960316 232.925078 
L 153.519929 232.749899 
L 154.247426 232.691196 
L 154.974923 232.458847 
L 155.422614 232.112512 
L 155.646459 232.156994 
L 156.09415 232.365056 
L 156.317995 232.281042 
L 156.765685 231.760058 
L 157.325299 231.350053 
L 157.605105 230.93554 
L 157.884912 230.65722 
L 158.22068 230.599464 
L 158.612409 230.599239 
L 158.892215 230.668861 
L 159.50779 230.748168 
L 159.787596 230.764585 
L 160.291248 230.764511 
L 160.738939 230.881701 
L 161.018745 230.86329 
L 162.249894 230.991098 
L 162.585662 230.609175 
L 163.089314 229.955868 
L 163.481043 230.054959 
L 164.040656 230.399978 
L 164.544308 230.692573 
L 165.607573 231.04545 
L 169.021213 232.82967 
L 169.636787 232.894301 
L 170.028516 232.6191 
L 170.308323 232.60147 
L 171.091781 232.859878 
L 171.48351 232.954711 
L 172.266969 233.110842 
L 173.050427 233.08898 
L 175.009073 234.24786 
L 175.73657 234.659208 
L 175.960415 234.593287 
L 176.57599 234.35132 
L 176.967719 234.477261 
L 177.583293 234.757544 
L 178.366752 234.730311 
L 179.541939 235.639886 
L 180.325398 236.134096 
L 181.332701 236.578596 
L 182.228082 236.735292 
L 183.40327 236.752947 
L 184.186728 237.098654 
L 184.802303 237.492135 
L 185.697684 238.031746 
L 186.81691 238.372351 
L 187.376523 238.349109 
L 187.880175 238.119359 
L 188.55171 237.514936 
L 188.94344 237.266401 
L 189.950743 237.337888 
L 190.566318 237.533508 
L 191.069969 237.688246 
L 191.853428 237.908962 
L 192.860731 237.80338 
L 193.140538 237.721569 
L 193.532267 237.60117 
L 194.035919 237.498626 
L 194.315725 237.473215 
L 194.707455 237.598728 
L 194.987261 237.596278 
L 195.434952 237.286498 
L 197.001868 236.618029 
L 197.953211 237.118975 
L 200.583392 238.150142 
L 201.814541 238.70796 
L 202.653961 238.758245 
L 203.437419 238.457618 
L 203.941071 238.608492 
L 205.060297 239.017515 
L 205.675872 239.010884 
L 206.403369 238.605862 
L 207.130866 238.913512 
L 208.306053 239.497393 
L 212.055461 239.957096 
L 213.510455 240.580115 
L 214.014107 240.607973 
L 215.41314 241.121738 
L 216.980057 240.859941 
L 217.98736 241.050206 
L 219.27447 240.871715 
L 220.337735 241.195578 
L 220.841387 241.032921 
L 222.128497 241.044759 
L 222.632149 241.280096 
L 223.247724 241.489941 
L 223.695414 241.672797 
L 224.534834 242.02249 
L 226.045789 242.233686 
L 227.053093 242.574773 
L 227.78059 242.890032 
L 228.508087 243.153027 
L 229.011739 243.302877 
L 229.963081 243.461569 
L 231.138268 243.246276 
L 231.64192 243.33354 
L 232.705185 243.253347 
L 233.32076 243.286887 
L 234.272102 243.461341 
L 236.510554 243.860181 
L 237.405935 243.818258 
L 237.909587 243.817404 
L 238.749007 243.347777 
L 241.547072 240.973045 
L 242.050724 240.306882 
L 242.72226 240.108676 
L 243.505718 239.75473 
L 243.897448 239.599167 
L 245.688209 240.128659 
L 246.1359 240.108286 
L 246.695513 240.200949 
L 248.766082 240.296313 
L 249.269733 240.415187 
L 249.941269 240.339611 
L 250.612805 240.436825 
L 252.459528 240.926555 
L 254.194329 240.522753 
L 254.530097 240.517477 
L 255.705284 240.584412 
L 256.488743 240.549841 
L 256.880472 240.545961 
L 257.328162 240.453925 
L 257.943737 240.441755 
L 258.391427 240.507149 
L 259.007002 240.571253 
L 259.622576 240.604281 
L 260.350073 240.654075 
L 261.413338 240.554094 
L 261.805067 240.479383 
L 262.532564 240.383661 
L 264.603133 240.424305 
L 265.33063 240.596803 
L 266.058127 240.659142 
L 266.561779 240.726719 
L 267.513121 240.834631 
L 268.128695 240.863232 
L 270.255225 241.338862 
L 270.8708 241.137434 
L 271.990026 240.813329 
L 272.829446 240.781502 
L 274.844053 241.081155 
L 277.138467 241.082093 
L 280.216339 240.468736 
L 280.943836 240.551899 
L 282.902482 240.823639 
L 283.853824 240.76883 
L 284.637282 240.537755 
L 285.140934 240.639137 
L 285.868431 240.768547 
L 286.484006 240.687583 
L 287.715154 240.237685 
L 288.218806 240.18682 
L 289.058226 239.796863 
L 289.953607 239.720195 
L 290.625143 239.540507 
L 291.408601 239.619441 
L 292.751673 239.87678 
L 293.199363 239.864222 
L 293.591092 239.649375 
L 294.430512 239.053608 
L 295.493777 238.740438 
L 296.277235 238.69858 
L 298.571649 238.698351 
L 302.04125 239.759676 
L 303.272399 239.629083 
L 303.664128 239.662787 
L 305.846619 238.948507 
L 306.350271 238.766828 
L 308.476801 238.296259 
L 309.316221 237.870575 
L 309.987756 237.710638 
L 311.498712 237.748377 
L 312.561977 237.403846 
L 313.065629 237.248739 
L 314.240816 237.12563 
L 315.024275 236.97307 
L 316.087539 236.417608 
L 316.53523 236.330791 
L 316.926959 236.3363 
L 317.430611 236.313113 
L 317.990224 236.220422 
L 318.381953 236.123815 
L 319.389257 235.801078 
L 320.620406 235.769766 
L 321.851555 235.303822 
L 322.914819 235.507325 
L 323.530394 235.292957 
L 324.20193 234.9586 
L 325.321156 234.788371 
L 325.824808 234.822214 
L 326.999995 234.998365 
L 327.783454 235.027806 
L 328.399028 235.075702 
L 329.518254 234.973775 
L 330.133829 234.759512 
L 330.861326 234.559287 
L 333.099778 234.665941 
L 333.827275 234.816442 
L 334.666695 234.884433 
L 335.618037 234.839445 
L 336.569379 234.774557 
L 337.688606 234.956207 
L 339.367445 235.233172 
L 339.815136 235.181917 
L 340.822439 234.990141 
L 342.333395 235.110005 
L 342.781085 235.112006 
L 343.396659 235.039185 
L 344.29204 235.046133 
L 345.187421 234.606945 
L 345.747035 234.418956 
L 346.754338 233.900999 
L 347.537797 233.902581 
L 350.335862 234.525659 
L 351.95874 234.625613 
L 352.462392 234.69155 
L 354.700844 235.173039 
L 356.491606 235.204827 
L 358.058523 235.546069 
L 359.793324 235.686992 
L 360.91255 235.313926 
L 363.03908 233.502677 
L 364.494074 232.113484 
L 365.333494 231.746636 
L 365.837145 231.526542 
L 367.236178 231.389124 
L 367.795791 231.345092 
L 368.467327 231.38507 
L 369.474631 231.565338 
L 369.86636 231.46746 
L 370.481934 231.217552 
L 371.601161 230.975865 
L 372.496541 231.090617 
L 372.888271 231.081313 
L 373.391922 231.087118 
L 376.357872 231.536725 
L 376.749601 231.448276 
L 379.323822 231.335552 
L 379.827473 231.316307 
L 380.331125 231.384653 
L 383.688804 232.006294 
L 385.031875 232.065983 
L 386.151102 231.922447 
L 388.389554 231.809891 
L 389.173012 231.778694 
L 391.803194 231.815028 
L 393.426072 232.047874 
L 396.671828 232.201262 
L 398.126822 232.064843 
L 399.917584 232.19807 
L 400.533159 232.203866 
L 404.898141 232.916153 
L 406.12929 233.100684 
L 406.744864 233.189184 
L 412.95657 234.201105 
L 413.460222 234.210452 
L 414.299641 234.330149 
L 416.650016 234.714099 
L 420.455386 234.987301 
L 421.462689 235.042851 
L 422.078264 235.049807 
L 423.813064 234.709097 
L 425.268058 234.848529 
L 426.219401 234.736885 
L 427.89824 234.790174 
L 429.297273 234.821155 
L 429.297273 234.821155 
" style="fill:none;stroke:#348abd;stroke-linecap:square;stroke-width:2;"/>
   </g>
   <g id="line2d_30">
    <path clip-path="url(#p3714304453)" d="M 80.042727 29.354379 
L 80.098689 29.266001 
L 80.60234 27.048417 
L 80.826186 26.876781 
L 80.938108 27.233558 
L 81.161954 28.947161 
L 81.497721 31.113526 
L 81.833489 32.43624 
L 82.225218 34.329206 
L 83.400406 45.221738 
L 84.351748 54.57653 
L 86.14251 67.586266 
L 86.254433 67.73177 
L 86.422317 68.064804 
L 87.597504 72.158091 
L 87.877311 72.274341 
L 88.045195 71.922033 
L 88.325001 71.657279 
L 88.380963 71.76532 
L 88.548847 72.123181 
L 88.940576 73.040731 
L 89.220382 73.294355 
L 89.55615 72.880624 
L 89.891918 71.438432 
L 90.171725 69.094842 
L 90.619415 65.479703 
L 91.011144 63.397033 
L 91.290951 62.524931 
L 91.514796 61.546989 
L 91.906525 59.697567 
L 92.018448 59.536303 
L 92.242293 59.699006 
L 92.634022 58.460834 
L 92.745945 58.399212 
L 93.305558 58.131646 
L 93.473442 58.593092 
L 94.536707 63.478307 
L 94.704591 63.442205 
L 95.09632 62.392781 
L 95.208243 62.399415 
L 95.93574 64.277072 
L 96.159585 64.133914 
L 96.327469 63.839631 
L 96.439392 64.116756 
L 97.390734 67.984824 
L 98.50996 72.990435 
L 99.237457 75.816564 
L 99.964954 80.20399 
L 100.412645 82.331565 
L 100.804374 83.449993 
L 100.916296 83.730302 
L 101.363987 84.939342 
L 102.091484 86.519493 
L 104.721666 97.240525 
L 104.88955 97.428571 
L 105.001472 97.303053 
L 105.33724 95.930624 
L 106.064737 91.823078 
L 107.239925 85.66816 
L 107.46377 85.116221 
L 107.687615 84.930015 
L 108.135306 85.004855 
L 108.30319 84.997077 
L 108.582996 84.82301 
L 108.806841 84.524313 
L 109.086648 84.050204 
L 109.254532 84.062068 
L 109.870106 84.606595 
L 110.205874 84.471411 
L 110.597603 85.497281 
L 110.989333 86.963759 
L 111.381062 88.020586 
L 111.828752 89.044146 
L 112.500288 91.084683 
L 113.059901 92.704865 
L 113.731437 94.889084 
L 115.466237 100.450063 
L 115.690083 100.947452 
L 116.305657 102.154517 
L 117.312961 103.834552 
L 117.648729 104.152836 
L 117.872574 104.629985 
L 118.320264 105.685457 
L 119.383529 106.780087 
L 119.607375 106.738012 
L 119.775258 106.660494 
L 119.999104 106.773531 
L 121.677943 109.794586 
L 122.013711 110.394678 
L 122.573324 111.564769 
L 122.853131 111.888615 
L 123.132937 111.84613 
L 123.356782 111.763817 
L 123.524666 111.978981 
L 124.196202 113.61912 
L 124.699854 114.799543 
L 125.539274 116.032391 
L 125.763119 116.302585 
L 125.986964 116.869414 
L 127.050229 119.586989 
L 127.889649 120.982558 
L 128.281378 121.44653 
L 128.617146 121.699005 
L 128.78503 121.585191 
L 129.176759 120.952395 
L 130.128101 118.351571 
L 130.351946 118.262533 
L 130.967521 118.345118 
L 131.303289 118.466805 
L 131.471173 118.449313 
L 131.750979 118.801383 
L 133.205973 121.004967 
L 133.821548 121.185427 
L 133.989432 120.946557 
L 134.493083 120.28055 
L 134.828851 120.00567 
L 135.108658 120.233041 
L 135.500387 120.579623 
L 135.780194 120.38425 
L 136.227884 120.213381 
L 137.123265 120.360887 
L 137.459033 120.133822 
L 138.242491 120.687309 
L 138.746143 121.439837 
L 139.193834 121.65529 
L 139.753447 122.136686 
L 140.984596 124.496281 
L 141.432286 125.182905 
L 145.629384 129.921026 
L 146.077075 130.771251 
L 146.412843 131.018226 
L 146.636688 131.078307 
L 147.364185 130.599416 
L 147.532069 130.62271 
L 148.203605 131.298074 
L 148.483411 131.465172 
L 148.819179 132.005739 
L 149.602638 133.265743 
L 149.994367 133.840674 
L 150.609941 134.710812 
L 151.00167 135.123075 
L 151.225516 135.186989 
L 151.897051 135.255281 
L 152.624548 136.176706 
L 153.296084 136.944505 
L 153.743775 137.536033 
L 154.079542 137.973646 
L 155.25473 139.864192 
L 155.814343 140.528229 
L 156.373956 141.058485 
L 157.38126 141.831897 
L 158.276641 142.263722 
L 158.66837 142.25961 
L 159.116061 142.720633 
L 159.95548 143.708965 
L 160.459132 144.225209 
L 161.186629 145.028081 
L 161.63432 145.092497 
L 162.529701 144.777731 
L 162.865468 144.890946 
L 163.089314 144.888836 
L 163.481043 144.821291 
L 164.432385 145.223663 
L 165.327766 145.63672 
L 165.831418 145.519151 
L 166.111224 145.457852 
L 166.279108 145.478203 
L 167.510257 146.414967 
L 169.972555 149.213733 
L 170.644091 149.496163 
L 170.867936 149.359889 
L 171.147742 149.047786 
L 171.763317 148.214679 
L 172.266969 148.046355 
L 172.546775 147.951501 
L 173.16235 147.511031 
L 173.61004 147.66838 
L 173.889847 147.625524 
L 174.281576 147.489585 
L 174.729266 147.574549 
L 175.28888 147.631226 
L 176.184261 147.215543 
L 176.57599 146.963761 
L 176.967719 147.066259 
L 177.471371 147.163396 
L 177.975023 147.261426 
L 178.534636 147.628825 
L 180.549243 150.135915 
L 182.56385 151.841041 
L 183.347308 152.887664 
L 184.578457 154.172892 
L 185.082109 154.392737 
L 185.473838 154.326678 
L 185.641722 154.228381 
L 186.033451 153.843865 
L 186.313258 153.599476 
L 187.208639 152.308696 
L 188.775556 147.732435 
L 190.174588 141.751067 
L 190.622279 140.706059 
L 191.461699 139.764426 
L 192.077273 139.183192 
L 192.413041 138.584599 
L 193.084577 136.735515 
L 193.923996 133.862799 
L 194.203803 133.055992 
L 195.211106 130.023064 
L 195.77072 129.288906 
L 197.169752 128.682179 
L 199.18436 130.148088 
L 200.135702 130.521513 
L 201.031083 130.908472 
L 201.814541 130.564977 
L 202.262232 130.860658 
L 202.542038 130.891464 
L 202.877806 130.552792 
L 205.284143 126.962002 
L 206.347407 126.586798 
L 206.739137 126.649779 
L 207.29875 126.687485 
L 208.473937 127.47738 
L 210.208738 128.886125 
L 211.216042 129.216244 
L 211.719693 129.187525 
L 212.223345 129.349928 
L 212.615074 129.411897 
L 213.006804 129.63789 
L 213.566417 130.028956 
L 214.965449 130.513521 
L 215.301217 130.587951 
L 216.70025 131.275508 
L 217.315825 131.458423 
L 219.330432 130.922118 
L 219.610238 130.850806 
L 219.890045 130.813689 
L 220.337735 130.797292 
L 220.617542 130.563829 
L 221.456962 129.431912 
L 221.904652 129.275108 
L 222.464265 129.333061 
L 223.583491 129.806024 
L 224.255027 130.188633 
L 224.646756 130.376014 
L 225.150408 130.890465 
L 225.598099 131.297846 
L 226.269634 131.54062 
L 226.661364 131.775184 
L 227.276938 132.25378 
L 228.22828 132.659093 
L 228.843855 132.637438 
L 229.683274 132.181945 
L 230.690578 131.3051 
L 231.809804 131.480343 
L 232.145572 131.484309 
L 232.705185 131.347317 
L 233.096914 131.440227 
L 233.376721 131.477809 
L 234.160179 131.356305 
L 234.887676 131.145715 
L 236.958245 131.976326 
L 237.741703 131.366001 
L 238.189394 131.531215 
L 238.749007 131.771876 
L 239.476504 131.562957 
L 240.259962 131.059025 
L 241.155343 129.638332 
L 241.658995 129.448333 
L 242.386492 129.478874 
L 243.897448 130.137697 
L 245.128596 131.100941 
L 246.415707 131.857828 
L 246.807436 132.003799 
L 248.318391 132.537399 
L 248.654159 132.629437 
L 249.493579 132.999476 
L 249.885308 133.077024 
L 251.396263 134.125274 
L 252.907219 134.784687 
L 253.298948 134.980164 
L 253.522793 135.008703 
L 254.082406 134.968826 
L 254.474135 135.068229 
L 255.033749 135.116734 
L 255.425478 134.930185 
L 255.817207 134.867144 
L 256.152975 135.059733 
L 256.656627 135.273659 
L 257.048356 135.256431 
L 257.440085 135.27084 
L 258.279505 135.645145 
L 259.007002 135.761434 
L 259.622576 135.4798 
L 259.902383 135.198376 
L 260.461996 134.738473 
L 260.853725 134.592483 
L 261.133531 134.477078 
L 261.413338 134.371376 
L 262.140835 133.899447 
L 263.2041 134.290727 
L 264.099481 134.651198 
L 265.666398 134.500442 
L 266.17005 134.328048 
L 266.729663 134.311958 
L 267.177353 134.076284 
L 267.513121 133.641815 
L 267.960811 133.137185 
L 268.800231 132.22194 
L 269.19196 132.069002 
L 269.527728 131.829807 
L 269.975419 131.489672 
L 270.199264 131.459694 
L 271.374452 131.815073 
L 271.990026 131.87006 
L 272.717523 132.161301 
L 274.955975 133.238446 
L 276.075202 133.523392 
L 276.746737 133.670249 
L 277.082505 133.759258 
L 277.586157 133.797769 
L 278.089809 133.533601 
L 279.600764 132.369252 
L 280.160377 132.1666 
L 281.223642 131.724652 
L 281.55941 131.646384 
L 282.007101 131.500618 
L 284.021708 131.252956 
L 284.357476 131.300132 
L 285.308818 131.749905 
L 285.644586 131.656902 
L 286.539967 131.275603 
L 287.09958 130.531355 
L 288.38669 128.879876 
L 290.569181 127.604738 
L 291.184756 127.636617 
L 291.632446 127.883178 
L 292.471866 128.270332 
L 292.919556 128.300668 
L 293.367247 128.223942 
L 294.710318 127.914832 
L 294.934164 127.663241 
L 295.325893 127.165508 
L 295.605699 127.106498 
L 296.109351 127.145548 
L 296.780887 127.025928 
L 297.116655 126.983866 
L 297.956074 126.829785 
L 299.355107 126.609955 
L 300.082604 126.654269 
L 300.75414 126.655857 
L 301.145869 126.721607 
L 302.321057 127.245865 
L 302.992593 127.626481 
L 303.664128 127.966227 
L 304.16778 128.08446 
L 304.559509 127.992767 
L 304.951238 127.896567 
L 306.406233 128.13614 
L 307.693343 128.670361 
L 308.141033 128.8197 
L 308.812569 128.96656 
L 309.428143 129.161667 
L 311.051021 129.220317 
L 311.778518 129.255977 
L 313.065629 129.882475 
L 314.576584 130.527561 
L 316.926959 130.654518 
L 318.270031 130.247036 
L 319.053489 130.507172 
L 321.291941 131.867622 
L 322.914819 132.498606 
L 323.306549 132.569431 
L 323.642316 132.570874 
L 324.481736 132.389448 
L 324.985388 132.008201 
L 325.377117 131.431366 
L 326.944034 129.070949 
L 327.22384 128.74448 
L 327.61557 128.325473 
L 328.119221 128.166989 
L 328.846718 127.999838 
L 329.35037 128.019399 
L 329.686138 127.819686 
L 330.581519 127.519475 
L 331.309016 127.670833 
L 335.506115 129.255204 
L 336.17765 129.327263 
L 339.59129 130.299866 
L 340.374749 130.328398 
L 342.725124 130.148248 
L 343.396659 130.336358 
L 344.124157 130.4286 
L 344.851654 130.1997 
L 345.243383 130.074438 
L 346.41857 129.767315 
L 347.202029 128.961762 
L 350.000094 127.324686 
L 350.447785 126.940945 
L 351.063359 126.701269 
L 352.294508 126.296745 
L 353.861425 126.694675 
L 355.092574 126.653126 
L 355.764109 126.79944 
L 356.547568 126.733706 
L 357.163142 126.912114 
L 358.618136 127.567943 
L 359.569479 127.712571 
L 360.241014 127.855307 
L 361.975815 128.243666 
L 363.990422 128.528124 
L 365.053687 128.603664 
L 365.445416 128.419586 
L 365.893107 127.941863 
L 366.564642 127.135734 
L 367.348101 126.907795 
L 368.075598 127.104931 
L 369.250785 127.782187 
L 369.698476 127.966889 
L 370.649818 128.079612 
L 373.671729 129.027753 
L 374.56711 129.346958 
L 376.022104 129.496231 
L 376.525756 129.573124 
L 377.700943 129.587988 
L 378.932092 129.998822 
L 379.379783 130.080753 
L 379.883435 129.920389 
L 380.275164 129.739889 
L 380.9467 129.734946 
L 381.842081 129.946907 
L 384.024572 130.910081 
L 384.80803 131.168403 
L 386.878599 130.907796 
L 387.214366 130.794256 
L 388.781283 130.404191 
L 389.173012 130.225255 
L 389.900509 130.11701 
L 390.851852 129.992474 
L 391.523387 130.113381 
L 392.92242 130.475405 
L 393.705879 130.441359 
L 394.937027 130.180289 
L 395.440679 129.903939 
L 396.000292 129.645603 
L 398.798358 129.332227 
L 400.309313 129.960994 
L 401.03681 130.170124 
L 401.820269 130.389308 
L 403.051418 130.893678 
L 403.890837 130.990427 
L 404.338528 130.795094 
L 405.28987 130.312507 
L 406.688903 129.65032 
L 407.136593 129.498047 
L 407.696206 129.496122 
L 408.311781 129.503018 
L 409.654852 129.207635 
L 411.221769 129.574171 
L 412.11715 129.659885 
L 413.068492 129.695324 
L 413.795989 129.774734 
L 415.53079 130.328121 
L 416.202326 130.558081 
L 416.761939 130.54833 
L 417.601359 130.576897 
L 419.839811 130.093685 
L 421.350766 130.416346 
L 421.854418 130.350083 
L 422.917683 129.911881 
L 423.365374 129.785982 
L 425.268058 130.453943 
L 429.297273 131.97218 
L 429.297273 131.97218 
" style="fill:none;stroke:#a60628;stroke-linecap:square;stroke-width:2;"/>
   </g>
   <g id="line2d_31">
    <path clip-path="url(#p3714304453)" d="M 80.042727 274.981878 
L 80.15465 274.922094 
L 80.322534 274.692765 
L 80.546379 274.17639 
L 80.826186 273.277925 
L 80.938108 273.302588 
L 81.105992 273.407071 
L 81.385799 272.903284 
L 81.721567 272.28593 
L 82.057334 272.518216 
L 82.28118 272.322902 
L 82.337141 272.394107 
L 82.72887 272.76014 
L 83.288483 273.699235 
L 83.456367 273.497274 
L 83.736174 273.005265 
L 83.792135 273.054628 
L 84.239826 273.279095 
L 84.463671 273.398513 
L 84.631555 273.168879 
L 84.799439 273.097612 
L 85.303091 273.111123 
L 85.470974 273.058599 
L 85.582897 273.065847 
L 85.69482 272.925149 
L 85.750781 272.977503 
L 86.086549 273.457941 
L 86.422317 273.79105 
L 87.541543 275.423818 
L 87.709427 275.540151 
L 88.325001 276.45012 
L 88.716731 276.572964 
L 89.10846 276.937516 
L 89.500189 276.931814 
L 89.668073 276.886992 
L 90.115763 276.019948 
L 90.563454 275.221961 
L 90.84326 275.287326 
L 90.955183 275.301448 
L 91.123067 275.297981 
L 91.570757 275.197347 
L 91.850564 274.987619 
L 92.018448 274.8932 
L 92.186332 274.685052 
L 92.410177 273.970706 
L 93.081713 271.317903 
L 93.305558 270.668566 
L 93.529403 270.197237 
L 93.921133 270.437597 
L 95.040359 271.849852 
L 95.544011 272.338302 
L 96.103624 272.999512 
L 96.271508 272.89484 
L 96.495353 272.658793 
L 96.775159 272.110721 
L 97.334773 271.843531 
L 97.67054 272.250837 
L 98.174192 272.897994 
L 98.453999 273.003555 
L 98.789767 273.383734 
L 99.125535 273.793963 
L 99.79707 274.085543 
L 99.964954 274.067007 
L 100.244761 274.165834 
L 100.468606 274.073989 
L 100.692451 274.186701 
L 101.811677 275.085858 
L 102.707058 275.019507 
L 102.986865 275.111988 
L 103.546478 275.42121 
L 104.106091 275.541858 
L 104.665704 275.916112 
L 104.945511 276.26643 
L 105.561085 276.952559 
L 106.456466 276.931511 
L 107.016079 276.289596 
L 107.351847 276.494297 
L 108.247228 276.926533 
L 108.471074 276.711557 
L 108.806841 276.767209 
L 109.086648 276.744091 
L 109.702222 276.738274 
L 109.870106 276.876438 
L 110.205874 277.121772 
L 110.87741 277.442844 
L 111.269139 277.801997 
L 111.381062 277.797068 
L 111.604907 277.62041 
L 111.772791 277.500296 
L 112.108559 277.099467 
L 112.332404 277.18533 
L 112.724133 277.497552 
L 113.171824 277.885035 
L 114.179127 278.186378 
L 114.514895 277.887908 
L 115.298354 276.562166 
L 115.634121 276.009241 
L 115.969889 275.55528 
L 116.473541 275.016015 
L 116.809309 274.965417 
L 117.70469 275.387833 
L 118.320264 275.929143 
L 118.54411 276.0501 
L 118.9918 276.285894 
L 119.327568 276.025094 
L 119.551413 275.907212 
L 120.055065 275.985318 
L 120.334872 276.270808 
L 121.006407 276.778279 
L 121.230253 276.743804 
L 121.56602 276.642946 
L 121.95775 276.939682 
L 122.293518 277.163955 
L 123.132937 277.394458 
L 123.860434 277.890491 
L 124.252163 278.039707 
L 124.476009 278.079857 
L 125.035622 278.460097 
L 125.315428 278.320071 
L 125.707158 278.087076 
L 126.378693 278.005899 
L 128.281378 279.335392 
L 128.617146 279.246012 
L 129.008875 279.103579 
L 130.128101 279.382038 
L 131.247327 279.335036 
L 131.639057 279.343888 
L 131.80694 279.3736 
L 132.142708 279.453841 
L 133.205973 279.665365 
L 133.821548 280.052898 
L 134.325199 280.223401 
L 135.052697 280.5925 
L 135.388464 280.686449 
L 135.780194 280.867736 
L 136.395768 281.152086 
L 136.89942 281.44405 
L 137.235188 281.350433 
L 137.906723 280.825368 
L 138.354414 280.823149 
L 138.578259 280.739282 
L 138.802104 280.530403 
L 139.081911 280.213485 
L 139.529601 280.12213 
L 139.921331 280.096868 
L 140.145176 280.076287 
L 140.536905 280.136385 
L 141.096518 279.840307 
L 141.432286 279.763555 
L 141.824015 279.672157 
L 142.663435 279.823191 
L 142.943241 279.823251 
L 143.334971 279.883336 
L 143.782661 280.086046 
L 144.342274 280.324464 
L 145.069771 280.346366 
L 145.965152 279.829394 
L 146.356881 279.317655 
L 146.636688 279.286028 
L 146.972456 279.29304 
L 147.811876 279.193539 
L 148.203605 279.345031 
L 148.483411 279.477672 
L 149.322831 279.749736 
L 149.938405 280.034099 
L 150.721864 280.229577 
L 151.057632 280.081882 
L 151.337438 280.064592 
L 152.064935 280.125547 
L 152.848394 280.028727 
L 153.1282 279.853581 
L 154.918962 279.812719 
L 155.478575 279.661525 
L 156.485879 279.088518 
L 158.164718 279.437494 
L 160.067403 280.11859 
L 162.92143 280.726741 
L 164.040656 281.20521 
L 164.712192 281.423058 
L 166.502954 282.083184 
L 168.293716 282.528773 
L 169.356981 283.014184 
L 170.700052 283.102674 
L 171.203704 283.150633 
L 171.48351 283.032766 
L 171.763317 282.936971 
L 172.211007 282.914162 
L 173.777924 283.067113 
L 174.225615 282.994572 
L 174.505421 282.822078 
L 174.89715 282.920521 
L 175.176957 282.942264 
L 176.184261 282.647802 
L 177.135603 281.792168 
L 177.583293 281.623915 
L 178.086945 281.296071 
L 178.31079 281.119556 
L 179.485978 279.710165 
L 180.101552 279.685863 
L 182.451927 280.355694 
L 183.291347 280.632543 
L 183.794999 280.718174 
L 184.186728 280.824665 
L 185.026148 280.667506 
L 185.417877 280.425787 
L 185.809606 280.206357 
L 187.040755 280.073895 
L 187.432484 280.094372 
L 187.824213 279.75547 
L 188.271904 279.494751 
L 189.111324 279.310779 
L 189.726898 279.221961 
L 190.174588 278.887038 
L 190.454395 278.654674 
L 191.014008 278.201741 
L 192.636886 277.751139 
L 193.532267 277.215598 
L 194.315725 276.445257 
L 194.9313 276.241393 
L 195.323029 276.211343 
L 196.330333 276.025458 
L 197.225714 275.736155 
L 197.673404 275.59642 
L 198.121095 275.506926 
L 199.63205 275.574199 
L 200.415508 275.52185 
L 201.422812 275.527118 
L 203.549342 275.635743 
L 203.941071 275.389252 
L 205.284143 274.332063 
L 206.403369 274.300557 
L 207.242788 274.612121 
L 208.082208 274.925651 
L 210.656428 275.726185 
L 211.439887 275.563403 
L 214.853527 275.779876 
L 215.469101 275.682623 
L 216.420444 275.72204 
L 218.323128 276.019701 
L 219.722161 275.968945 
L 220.281774 276.093676 
L 221.345039 276.056641 
L 222.128497 276.026195 
L 222.911956 276.07585 
L 223.359646 276.193116 
L 224.143105 276.46455 
L 225.933867 276.883591 
L 226.661364 276.861446 
L 227.948474 277.246113 
L 228.340203 277.316042 
L 228.955777 277.220067 
L 232.873069 277.446088 
L 233.76845 277.291999 
L 237.349974 278.046037 
L 237.965548 277.963691 
L 238.4692 277.737945 
L 239.476504 276.961196 
L 239.868233 276.830235 
L 240.259962 276.794947 
L 241.267266 276.699167 
L 241.88284 276.600671 
L 242.330531 276.690444 
L 243.16995 276.862351 
L 243.673602 276.899671 
L 247.478971 276.717309 
L 248.094546 276.632053 
L 248.933966 276.652204 
L 249.493579 276.644387 
L 250.053192 276.701628 
L 252.179722 277.178575 
L 253.019141 276.765444 
L 253.298948 276.600521 
L 253.746638 276.559015 
L 255.145671 276.560739 
L 256.656627 276.507919 
L 258.055659 276.050111 
L 259.286808 275.525439 
L 262.36468 275.72096 
L 265.890243 276.042936 
L 266.449856 275.661427 
L 266.841585 275.107885 
L 267.625044 273.611809 
L 268.128695 272.523712 
L 268.576386 272.18865 
L 269.135999 272.023182 
L 269.695612 271.85077 
L 270.535032 271.726346 
L 271.31849 271.680502 
L 271.710219 271.692908 
L 272.829446 271.922989 
L 274.004633 272.167822 
L 274.452324 271.904425 
L 275.235782 271.593723 
L 276.690776 271.433497 
L 277.194428 271.518857 
L 277.977886 271.567275 
L 279.82461 271.621628 
L 280.887874 270.981907 
L 282.454791 270.383107 
L 283.294211 270.415515 
L 284.693244 269.864904 
L 285.308818 269.538207 
L 286.539967 268.99064 
L 287.09958 268.952338 
L 288.274768 268.694916 
L 289.393994 268.534215 
L 290.233413 268.583289 
L 290.51322 268.500303 
L 291.80033 267.768032 
L 292.751673 267.357726 
L 293.255324 267.166202 
L 293.703015 267.032546 
L 294.094744 266.884951 
L 295.549738 266.921421 
L 297.172616 267.148382 
L 297.676268 267.094458 
L 298.235881 266.989988 
L 299.355107 267.10904 
L 300.474334 267.2835 
L 301.257792 267.238512 
L 302.712786 267.086524 
L 304.335664 267.18536 
L 307.693343 265.905998 
L 309.596027 266.150639 
L 310.15564 266.20255 
L 311.666596 265.648619 
L 312.002364 265.533704 
L 312.394093 265.406694 
L 313.009667 265.109814 
L 313.905048 265.19054 
L 315.080236 265.343593 
L 316.759075 265.24434 
L 317.150804 265.136876 
L 318.829644 265.277518 
L 320.39656 265.349781 
L 321.739632 265.597294 
L 322.411168 265.681991 
L 322.858858 265.705237 
L 324.20193 265.800201 
L 324.705581 265.844232 
L 325.041349 265.815976 
L 325.992692 265.728367 
L 329.518254 265.684718 
L 330.973248 265.836961 
L 331.980552 265.643502 
L 332.931894 265.090232 
L 334.554772 264.628907 
L 335.002463 264.384981 
L 335.506115 264.402583 
L 336.905147 264.682713 
L 338.024374 264.898795 
L 339.535329 265.113518 
L 341.773781 265.102632 
L 342.445317 265.196833 
L 343.900311 265.454101 
L 348.377216 265.482389 
L 350.783553 264.833906 
L 351.734895 264.86529 
L 352.406431 264.787218 
L 353.973347 264.89756 
L 355.876032 265.183376 
L 356.323722 265.162546 
L 356.827374 265.119355 
L 357.610833 265.017814 
L 358.33833 264.922365 
L 361.192357 265.182386 
L 362.815235 264.926495 
L 363.542732 264.780884 
L 364.32619 264.807578 
L 364.77388 264.804284 
L 365.669261 264.666051 
L 367.068294 264.713062 
L 368.243482 264.823435 
L 368.970979 264.980172 
L 369.978282 265.137842 
L 373.839613 265.427712 
L 375.350568 265.425635 
L 376.245949 265.3812 
L 377.924789 264.984695 
L 379.715551 264.857342 
L 383.576881 265.301738 
L 384.752069 265.455849 
L 387.158405 265.641826 
L 387.885902 265.698596 
L 388.613399 265.77538 
L 389.50878 265.603556 
L 389.956471 265.477783 
L 391.747233 265.54988 
L 392.418768 265.575805 
L 394.265492 265.497492 
L 395.328757 265.206061 
L 398.350667 264.032714 
L 404.226605 263.977171 
L 405.793522 263.930707 
L 408.087936 263.925517 
L 409.319084 264.016205 
L 410.438311 263.952125 
L 411.389653 264.035976 
L 412.732725 264.13357 
L 416.258287 264.447251 
L 417.041745 264.397269 
L 419.727888 264.681291 
L 425.491904 264.780818 
L 426.667091 264.616627 
L 427.450549 264.592505 
L 429.297273 264.79744 
L 429.297273 264.79744 
" style="fill:none;stroke:#7a68a6;stroke-linecap:square;stroke-width:2;"/>
   </g>
   <g id="patch_3">
    <path d="M 62.58 295.98 
L 62.58 14.04 
" style="fill:none;stroke:#bcbcbc;stroke-linecap:square;stroke-linejoin:miter;stroke-width:0.8;"/>
   </g>
   <g id="patch_4">
    <path d="M 446.76 295.98 
L 446.76 14.04 
" style="fill:none;stroke:#bcbcbc;stroke-linecap:square;stroke-linejoin:miter;stroke-width:0.8;"/>
   </g>
   <g id="patch_5">
    <path d="M 62.58 295.98 
L 446.76 295.98 
" style="fill:none;stroke:#bcbcbc;stroke-linecap:square;stroke-linejoin:miter;stroke-width:0.8;"/>
   </g>
   <g id="patch_6">
    <path d="M 62.58 14.04 
L 446.76 14.04 
" style="fill:none;stroke:#bcbcbc;stroke-linecap:square;stroke-linejoin:miter;stroke-width:0.8;"/>
   </g>
   <g id="legend_1">
    <g id="patch_7">
     <path d="M 361.35 81.684688 
L 437.66 81.684688 
Q 440.26 81.684688 440.26 79.084688 
L 440.26 23.14 
Q 440.26 20.54 437.66 20.54 
L 361.35 20.54 
Q 358.75 20.54 358.75 23.14 
L 358.75 79.084688 
Q 358.75 81.684688 361.35 81.684688 
z
" style="fill:#eeeeee;opacity:0.8;stroke:#cccccc;stroke-linejoin:miter;stroke-width:0.5;"/>
    </g>
    <g id="line2d_32">
     <path d="M 363.95 31.067969 
L 389.95 31.067969 
" style="fill:none;stroke:#348abd;stroke-linecap:square;stroke-width:2;"/>
    </g>
    <g id="line2d_33"/>
    <g id="text_17">
     <!-- V ($\theta_1$) -->
     <defs>
      <path id="DejaVuSans-20"/>
      <path d="M 31 75.875 
Q 24.46875 64.65625 21.28125 53.65625 
Q 18.109375 42.671875 18.109375 31.390625 
Q 18.109375 20.125 21.3125 9.0625 
Q 24.515625 -2 31 -13.1875 
L 23.1875 -13.1875 
Q 15.875 -1.703125 12.234375 9.375 
Q 8.59375 20.453125 8.59375 31.390625 
Q 8.59375 42.28125 12.203125 53.3125 
Q 15.828125 64.359375 23.1875 75.875 
z
" id="DejaVuSans-28"/>
      <path d="M 16.109375 -1.125 
Q 11.578125 -1.125 8.84375 2.1875 
Q 6.109375 5.515625 5.046875 10.203125 
Q 4 14.890625 4 19.484375 
L 4 19.578125 
Q 4 24.5625 4.953125 29.921875 
Q 5.90625 35.296875 7.703125 40.640625 
Q 9.515625 46 11.625 50.203125 
Q 13.09375 53.125 15.40625 56.734375 
Q 17.71875 60.359375 20.578125 63.5 
Q 23.4375 66.65625 26.734375 68.578125 
Q 30.03125 70.515625 33.40625 70.515625 
L 33.5 70.515625 
Q 37.109375 70.515625 39.515625 68.5 
Q 41.9375 66.5 43.28125 63.375 
Q 44.625 60.25 45.15625 56.6875 
Q 45.703125 53.125 45.703125 49.90625 
Q 45.703125 42.328125 43.65625 34.4375 
Q 41.609375 26.5625 37.984375 19.1875 
Q 36.625 16.40625 34.203125 12.640625 
Q 31.78125 8.890625 29.078125 5.90625 
Q 26.375 2.9375 23 0.90625 
Q 19.625 -1.125 16.21875 -1.125 
z
M 16.3125 1.515625 
Q 19.625 1.515625 22.671875 5.046875 
Q 25.734375 8.59375 28.03125 13.640625 
Q 30.328125 18.703125 32.0625 24 
Q 33.796875 29.296875 34.625 33.015625 
L 14.203125 33.015625 
Q 12.640625 26.703125 11.765625 22.140625 
Q 10.890625 17.578125 10.890625 13.1875 
Q 10.890625 1.515625 16.3125 1.515625 
z
M 14.984375 36.53125 
L 35.5 36.53125 
Q 36.578125 40.921875 37.203125 43.875 
Q 37.84375 46.828125 38.28125 50.09375 
Q 38.71875 53.375 38.71875 56.203125 
Q 38.71875 67.921875 33.40625 67.921875 
Q 27.046875 67.921875 22.4375 57.6875 
Q 17.828125 47.46875 14.984375 36.53125 
z
" id="Cmmi10-b5"/>
      <path d="M 9.28125 0 
L 9.28125 3.515625 
Q 21.78125 3.515625 21.78125 6.6875 
L 21.78125 59.1875 
Q 16.609375 56.6875 8.6875 56.6875 
L 8.6875 60.203125 
Q 20.953125 60.203125 27.203125 66.609375 
L 28.609375 66.609375 
Q 28.953125 66.609375 29.265625 66.328125 
Q 29.59375 66.0625 29.59375 65.71875 
L 29.59375 6.6875 
Q 29.59375 3.515625 42.09375 3.515625 
L 42.09375 0 
z
" id="Cmr10-31"/>
      <path d="M 8.015625 75.875 
L 15.828125 75.875 
Q 23.140625 64.359375 26.78125 53.3125 
Q 30.421875 42.28125 30.421875 31.390625 
Q 30.421875 20.453125 26.78125 9.375 
Q 23.140625 -1.703125 15.828125 -13.1875 
L 8.015625 -13.1875 
Q 14.5 -2 17.703125 9.0625 
Q 20.90625 20.125 20.90625 31.390625 
Q 20.90625 42.671875 17.703125 53.65625 
Q 14.5 64.65625 8.015625 75.875 
z
" id="DejaVuSans-29"/>
     </defs>
     <g transform="translate(400.35 35.617969)scale(0.13 -0.13)">
      <use transform="translate(0 0.125)" xlink:href="#DejaVuSans-56"/>
      <use transform="translate(68.408203 0.125)" xlink:href="#DejaVuSans-20"/>
      <use transform="translate(100.195312 0.125)" xlink:href="#DejaVuSans-28"/>
      <use transform="translate(139.208984 0.125)" xlink:href="#Cmmi10-b5"/>
      <use transform="translate(186.132812 -16.88125)scale(0.7)" xlink:href="#Cmr10-31"/>
      <use transform="translate(227.510156 0.125)" xlink:href="#DejaVuSans-29"/>
     </g>
    </g>
    <g id="line2d_34">
     <path d="M 363.95 50.149531 
L 389.95 50.149531 
" style="fill:none;stroke:#a60628;stroke-linecap:square;stroke-width:2;"/>
    </g>
    <g id="line2d_35"/>
    <g id="text_18">
     <!-- V ($\theta_2$) -->
     <defs>
      <path d="M 4.984375 0 
L 4.984375 2.6875 
Q 4.984375 2.9375 5.171875 3.21875 
L 20.703125 20.40625 
Q 24.21875 24.21875 26.40625 26.796875 
Q 28.609375 29.390625 30.75 32.765625 
Q 32.90625 36.140625 34.15625 39.625 
Q 35.40625 43.109375 35.40625 47.015625 
Q 35.40625 51.125 33.890625 54.859375 
Q 32.375 58.59375 29.375 60.84375 
Q 26.375 63.09375 22.125 63.09375 
Q 17.78125 63.09375 14.3125 60.46875 
Q 10.84375 57.859375 9.421875 53.71875 
Q 9.8125 53.8125 10.5 53.8125 
Q 12.75 53.8125 14.328125 52.296875 
Q 15.921875 50.78125 15.921875 48.390625 
Q 15.921875 46.09375 14.328125 44.5 
Q 12.75 42.921875 10.5 42.921875 
Q 8.15625 42.921875 6.5625 44.546875 
Q 4.984375 46.1875 4.984375 48.390625 
Q 4.984375 52.15625 6.390625 55.4375 
Q 7.8125 58.734375 10.46875 61.296875 
Q 13.140625 63.875 16.484375 65.234375 
Q 19.828125 66.609375 23.578125 66.609375 
Q 29.296875 66.609375 34.21875 64.1875 
Q 39.15625 61.765625 42.03125 57.34375 
Q 44.921875 52.9375 44.921875 47.015625 
Q 44.921875 42.671875 43.015625 38.765625 
Q 41.109375 34.859375 38.125 31.65625 
Q 35.15625 28.46875 30.515625 24.40625 
Q 25.875 20.359375 24.421875 19 
L 13.09375 8.109375 
L 22.703125 8.109375 
Q 29.78125 8.109375 34.546875 8.21875 
Q 39.3125 8.34375 39.59375 8.59375 
Q 40.765625 9.859375 42 17.828125 
L 44.921875 17.828125 
L 42.09375 0 
z
" id="Cmr10-32"/>
     </defs>
     <g transform="translate(400.35 54.699531)scale(0.13 -0.13)">
      <use transform="translate(0 0.125)" xlink:href="#DejaVuSans-56"/>
      <use transform="translate(68.408203 0.125)" xlink:href="#DejaVuSans-20"/>
      <use transform="translate(100.195312 0.125)" xlink:href="#DejaVuSans-28"/>
      <use transform="translate(139.208984 0.125)" xlink:href="#Cmmi10-b5"/>
      <use transform="translate(186.132812 -16.88125)scale(0.7)" xlink:href="#Cmr10-32"/>
      <use transform="translate(227.510156 0.125)" xlink:href="#DejaVuSans-29"/>
     </g>
    </g>
    <g id="line2d_36">
     <path d="M 363.95 69.231094 
L 389.95 69.231094 
" style="fill:none;stroke:#7a68a6;stroke-linecap:square;stroke-width:2;"/>
    </g>
    <g id="line2d_37"/>
    <g id="text_19">
     <!-- V ($\theta_3$) -->
     <defs>
      <path d="M 9.515625 7.71875 
Q 11.859375 4.296875 15.8125 2.640625 
Q 19.78125 0.984375 24.3125 0.984375 
Q 30.125 0.984375 32.5625 5.9375 
Q 35.015625 10.890625 35.015625 17.1875 
Q 35.015625 20.015625 34.5 22.84375 
Q 33.984375 25.6875 32.765625 28.125 
Q 31.546875 30.5625 29.421875 32.03125 
Q 27.296875 33.5 24.21875 33.5 
L 17.578125 33.5 
Q 16.703125 33.5 16.703125 34.421875 
L 16.703125 35.296875 
Q 16.703125 36.078125 17.578125 36.078125 
L 23.09375 36.53125 
Q 26.609375 36.53125 28.921875 39.15625 
Q 31.25 41.796875 32.328125 45.578125 
Q 33.40625 49.359375 33.40625 52.78125 
Q 33.40625 57.5625 31.15625 60.640625 
Q 28.90625 63.71875 24.3125 63.71875 
Q 20.515625 63.71875 17.046875 62.28125 
Q 13.578125 60.84375 11.53125 57.90625 
Q 11.71875 57.953125 11.859375 57.984375 
Q 12.015625 58.015625 12.203125 58.015625 
Q 14.453125 58.015625 15.96875 56.453125 
Q 17.484375 54.890625 17.484375 52.6875 
Q 17.484375 50.53125 15.96875 48.96875 
Q 14.453125 47.40625 12.203125 47.40625 
Q 10.015625 47.40625 8.453125 48.96875 
Q 6.890625 50.53125 6.890625 52.6875 
Q 6.890625 56.984375 9.46875 60.15625 
Q 12.0625 63.328125 16.140625 64.96875 
Q 20.21875 66.609375 24.3125 66.609375 
Q 27.34375 66.609375 30.703125 65.703125 
Q 34.078125 64.796875 36.8125 63.109375 
Q 39.546875 61.421875 41.28125 58.78125 
Q 43.015625 56.15625 43.015625 52.78125 
Q 43.015625 48.578125 41.140625 45.015625 
Q 39.265625 41.453125 35.984375 38.859375 
Q 32.71875 36.28125 28.8125 35.015625 
Q 33.15625 34.1875 37.0625 31.734375 
Q 40.96875 29.296875 43.328125 25.484375 
Q 45.703125 21.6875 45.703125 17.28125 
Q 45.703125 11.765625 42.671875 7.296875 
Q 39.65625 2.828125 34.71875 0.3125 
Q 29.78125 -2.203125 24.3125 -2.203125 
Q 19.625 -2.203125 14.90625 -0.40625 
Q 10.203125 1.375 7.203125 4.9375 
Q 4.203125 8.5 4.203125 13.484375 
Q 4.203125 15.96875 5.859375 17.625 
Q 7.515625 19.28125 10.015625 19.28125 
Q 11.625 19.28125 12.96875 18.53125 
Q 14.3125 17.78125 15.0625 16.40625 
Q 15.828125 15.046875 15.828125 13.484375 
Q 15.828125 11.03125 14.109375 9.375 
Q 12.40625 7.71875 10.015625 7.71875 
z
" id="Cmr10-33"/>
     </defs>
     <g transform="translate(400.35 73.781094)scale(0.13 -0.13)">
      <use transform="translate(0 0.125)" xlink:href="#DejaVuSans-56"/>
      <use transform="translate(68.408203 0.125)" xlink:href="#DejaVuSans-20"/>
      <use transform="translate(100.195312 0.125)" xlink:href="#DejaVuSans-28"/>
      <use transform="translate(139.208984 0.125)" xlink:href="#Cmmi10-b5"/>
      <use transform="translate(186.132812 -16.88125)scale(0.7)" xlink:href="#Cmr10-33"/>
      <use transform="translate(227.510156 0.125)" xlink:href="#DejaVuSans-29"/>
     </g>
    </g>
   </g>
  </g>
 </g>
 <defs>
  <clipPath id="p3714304453">
   <rect height="281.94" width="384.18" x="62.58" y="14.04"/>
  </clipPath>
 </defs>
</svg>
