<?xml version="1.0" encoding="utf-8" standalone="no"?>
<!DOCTYPE svg PUBLIC "-//W3C//DTD SVG 1.1//EN"
  "http://www.w3.org/Graphics/SVG/1.1/DTD/svg11.dtd">
<!-- Created with matplotlib (http://matplotlib.org/) -->
<svg height="345.6pt" version="1.1" viewBox="0 0 460.8 345.6" width="460.8pt" xmlns="http://www.w3.org/2000/svg" xmlns:xlink="http://www.w3.org/1999/xlink">
 <defs>
  <style type="text/css">
*{stroke-linecap:butt;stroke-linejoin:round;}
  </style>
 </defs>
 <g id="figure_1">
  <g id="patch_1">
   <path d="M 0 345.6 
L 460.8 345.6 
L 460.8 0 
L 0 0 
z
" style="fill:#ffffff;"/>
  </g>
  <g id="axes_1">
   <g id="patch_2">
    <path d="M 58.26 295.98 
L 444.702117 295.98 
L 444.702117 14.04 
L 58.26 14.04 
z
" style="fill:#eeeeee;"/>
   </g>
   <g id="matplotlib.axis_1">
    <g id="xtick_1">
     <g id="line2d_1">
      <path clip-path="url(#p0f812b1843)" d="M 75.825551 295.98 
L 75.825551 14.04 
" style="fill:none;stroke:#b2b2b2;stroke-dasharray:1.85,0.8;stroke-dashoffset:0;stroke-width:0.5;"/>
     </g>
     <g id="line2d_2">
      <defs>
       <path d="M 0 0 
L 0 -3.5 
" id="m0c4c5bbfda" style="stroke:#000000;stroke-width:0.8;"/>
      </defs>
      <g>
       <use style="stroke:#000000;stroke-width:0.8;" x="75.825551" xlink:href="#m0c4c5bbfda" y="295.98"/>
      </g>
     </g>
     <g id="text_1">
      <!-- 0 -->
      <defs>
       <path d="M 31.78125 66.40625 
Q 24.171875 66.40625 20.328125 58.90625 
Q 16.5 51.421875 16.5 36.375 
Q 16.5 21.390625 20.328125 13.890625 
Q 24.171875 6.390625 31.78125 6.390625 
Q 39.453125 6.390625 43.28125 13.890625 
Q 47.125 21.390625 47.125 36.375 
Q 47.125 51.421875 43.28125 58.90625 
Q 39.453125 66.40625 31.78125 66.40625 
z
M 31.78125 74.21875 
Q 44.046875 74.21875 50.515625 64.515625 
Q 56.984375 54.828125 56.984375 36.375 
Q 56.984375 17.96875 50.515625 8.265625 
Q 44.046875 -1.421875 31.78125 -1.421875 
Q 19.53125 -1.421875 13.0625 8.265625 
Q 6.59375 17.96875 6.59375 36.375 
Q 6.59375 54.828125 13.0625 64.515625 
Q 19.53125 74.21875 31.78125 74.21875 
z
" id="DejaVuSans-30"/>
      </defs>
      <g transform="translate(71.371801 310.117812)scale(0.14 -0.14)">
       <use xlink:href="#DejaVuSans-30"/>
      </g>
     </g>
    </g>
    <g id="xtick_2">
     <g id="line2d_3">
      <path clip-path="url(#p0f812b1843)" d="M 146.22856 295.98 
L 146.22856 14.04 
" style="fill:none;stroke:#b2b2b2;stroke-dasharray:1.85,0.8;stroke-dashoffset:0;stroke-width:0.5;"/>
     </g>
     <g id="line2d_4">
      <g>
       <use style="stroke:#000000;stroke-width:0.8;" x="146.22856" xlink:href="#m0c4c5bbfda" y="295.98"/>
      </g>
     </g>
     <g id="text_2">
      <!-- 200 -->
      <defs>
       <path d="M 19.1875 8.296875 
L 53.609375 8.296875 
L 53.609375 0 
L 7.328125 0 
L 7.328125 8.296875 
Q 12.9375 14.109375 22.625 23.890625 
Q 32.328125 33.6875 34.8125 36.53125 
Q 39.546875 41.84375 41.421875 45.53125 
Q 43.3125 49.21875 43.3125 52.78125 
Q 43.3125 58.59375 39.234375 62.25 
Q 35.15625 65.921875 28.609375 65.921875 
Q 23.96875 65.921875 18.8125 64.3125 
Q 13.671875 62.703125 7.8125 59.421875 
L 7.8125 69.390625 
Q 13.765625 71.78125 18.9375 73 
Q 24.125 74.21875 28.421875 74.21875 
Q 39.75 74.21875 46.484375 68.546875 
Q 53.21875 62.890625 53.21875 53.421875 
Q 53.21875 48.921875 51.53125 44.890625 
Q 49.859375 40.875 45.40625 35.40625 
Q 44.1875 33.984375 37.640625 27.21875 
Q 31.109375 20.453125 19.1875 8.296875 
z
" id="DejaVuSans-32"/>
      </defs>
      <g transform="translate(132.86731 310.117812)scale(0.14 -0.14)">
       <use xlink:href="#DejaVuSans-32"/>
       <use x="63.623047" xlink:href="#DejaVuSans-30"/>
       <use x="127.246094" xlink:href="#DejaVuSans-30"/>
      </g>
     </g>
    </g>
    <g id="xtick_3">
     <g id="line2d_5">
      <path clip-path="url(#p0f812b1843)" d="M 216.631569 295.98 
L 216.631569 14.04 
" style="fill:none;stroke:#b2b2b2;stroke-dasharray:1.85,0.8;stroke-dashoffset:0;stroke-width:0.5;"/>
     </g>
     <g id="line2d_6">
      <g>
       <use style="stroke:#000000;stroke-width:0.8;" x="216.631569" xlink:href="#m0c4c5bbfda" y="295.98"/>
      </g>
     </g>
     <g id="text_3">
      <!-- 400 -->
      <defs>
       <path d="M 37.796875 64.3125 
L 12.890625 25.390625 
L 37.796875 25.390625 
z
M 35.203125 72.90625 
L 47.609375 72.90625 
L 47.609375 25.390625 
L 58.015625 25.390625 
L 58.015625 17.1875 
L 47.609375 17.1875 
L 47.609375 0 
L 37.796875 0 
L 37.796875 17.1875 
L 4.890625 17.1875 
L 4.890625 26.703125 
z
" id="DejaVuSans-34"/>
      </defs>
      <g transform="translate(203.270319 310.117812)scale(0.14 -0.14)">
       <use xlink:href="#DejaVuSans-34"/>
       <use x="63.623047" xlink:href="#DejaVuSans-30"/>
       <use x="127.246094" xlink:href="#DejaVuSans-30"/>
      </g>
     </g>
    </g>
    <g id="xtick_4">
     <g id="line2d_7">
      <path clip-path="url(#p0f812b1843)" d="M 287.034578 295.98 
L 287.034578 14.04 
" style="fill:none;stroke:#b2b2b2;stroke-dasharray:1.85,0.8;stroke-dashoffset:0;stroke-width:0.5;"/>
     </g>
     <g id="line2d_8">
      <g>
       <use style="stroke:#000000;stroke-width:0.8;" x="287.034578" xlink:href="#m0c4c5bbfda" y="295.98"/>
      </g>
     </g>
     <g id="text_4">
      <!-- 600 -->
      <defs>
       <path d="M 33.015625 40.375 
Q 26.375 40.375 22.484375 35.828125 
Q 18.609375 31.296875 18.609375 23.390625 
Q 18.609375 15.53125 22.484375 10.953125 
Q 26.375 6.390625 33.015625 6.390625 
Q 39.65625 6.390625 43.53125 10.953125 
Q 47.40625 15.53125 47.40625 23.390625 
Q 47.40625 31.296875 43.53125 35.828125 
Q 39.65625 40.375 33.015625 40.375 
z
M 52.59375 71.296875 
L 52.59375 62.3125 
Q 48.875 64.0625 45.09375 64.984375 
Q 41.3125 65.921875 37.59375 65.921875 
Q 27.828125 65.921875 22.671875 59.328125 
Q 17.53125 52.734375 16.796875 39.40625 
Q 19.671875 43.65625 24.015625 45.921875 
Q 28.375 48.1875 33.59375 48.1875 
Q 44.578125 48.1875 50.953125 41.515625 
Q 57.328125 34.859375 57.328125 23.390625 
Q 57.328125 12.15625 50.6875 5.359375 
Q 44.046875 -1.421875 33.015625 -1.421875 
Q 20.359375 -1.421875 13.671875 8.265625 
Q 6.984375 17.96875 6.984375 36.375 
Q 6.984375 53.65625 15.1875 63.9375 
Q 23.390625 74.21875 37.203125 74.21875 
Q 40.921875 74.21875 44.703125 73.484375 
Q 48.484375 72.75 52.59375 71.296875 
z
" id="DejaVuSans-36"/>
      </defs>
      <g transform="translate(273.673328 310.117812)scale(0.14 -0.14)">
       <use xlink:href="#DejaVuSans-36"/>
       <use x="63.623047" xlink:href="#DejaVuSans-30"/>
       <use x="127.246094" xlink:href="#DejaVuSans-30"/>
      </g>
     </g>
    </g>
    <g id="xtick_5">
     <g id="line2d_9">
      <path clip-path="url(#p0f812b1843)" d="M 357.437587 295.98 
L 357.437587 14.04 
" style="fill:none;stroke:#b2b2b2;stroke-dasharray:1.85,0.8;stroke-dashoffset:0;stroke-width:0.5;"/>
     </g>
     <g id="line2d_10">
      <g>
       <use style="stroke:#000000;stroke-width:0.8;" x="357.437587" xlink:href="#m0c4c5bbfda" y="295.98"/>
      </g>
     </g>
     <g id="text_5">
      <!-- 800 -->
      <defs>
       <path d="M 31.78125 34.625 
Q 24.75 34.625 20.71875 30.859375 
Q 16.703125 27.09375 16.703125 20.515625 
Q 16.703125 13.921875 20.71875 10.15625 
Q 24.75 6.390625 31.78125 6.390625 
Q 38.8125 6.390625 42.859375 10.171875 
Q 46.921875 13.96875 46.921875 20.515625 
Q 46.921875 27.09375 42.890625 30.859375 
Q 38.875 34.625 31.78125 34.625 
z
M 21.921875 38.8125 
Q 15.578125 40.375 12.03125 44.71875 
Q 8.5 49.078125 8.5 55.328125 
Q 8.5 64.0625 14.71875 69.140625 
Q 20.953125 74.21875 31.78125 74.21875 
Q 42.671875 74.21875 48.875 69.140625 
Q 55.078125 64.0625 55.078125 55.328125 
Q 55.078125 49.078125 51.53125 44.71875 
Q 48 40.375 41.703125 38.8125 
Q 48.828125 37.15625 52.796875 32.3125 
Q 56.78125 27.484375 56.78125 20.515625 
Q 56.78125 9.90625 50.3125 4.234375 
Q 43.84375 -1.421875 31.78125 -1.421875 
Q 19.734375 -1.421875 13.25 4.234375 
Q 6.78125 9.90625 6.78125 20.515625 
Q 6.78125 27.484375 10.78125 32.3125 
Q 14.796875 37.15625 21.921875 38.8125 
z
M 18.3125 54.390625 
Q 18.3125 48.734375 21.84375 45.5625 
Q 25.390625 42.390625 31.78125 42.390625 
Q 38.140625 42.390625 41.71875 45.5625 
Q 45.3125 48.734375 45.3125 54.390625 
Q 45.3125 60.0625 41.71875 63.234375 
Q 38.140625 66.40625 31.78125 66.40625 
Q 25.390625 66.40625 21.84375 63.234375 
Q 18.3125 60.0625 18.3125 54.390625 
z
" id="DejaVuSans-38"/>
      </defs>
      <g transform="translate(344.076337 310.117812)scale(0.14 -0.14)">
       <use xlink:href="#DejaVuSans-38"/>
       <use x="63.623047" xlink:href="#DejaVuSans-30"/>
       <use x="127.246094" xlink:href="#DejaVuSans-30"/>
      </g>
     </g>
    </g>
    <g id="xtick_6">
     <g id="line2d_11">
      <path clip-path="url(#p0f812b1843)" d="M 427.840596 295.98 
L 427.840596 14.04 
" style="fill:none;stroke:#b2b2b2;stroke-dasharray:1.85,0.8;stroke-dashoffset:0;stroke-width:0.5;"/>
     </g>
     <g id="line2d_12">
      <g>
       <use style="stroke:#000000;stroke-width:0.8;" x="427.840596" xlink:href="#m0c4c5bbfda" y="295.98"/>
      </g>
     </g>
     <g id="text_6">
      <!-- 1000 -->
      <defs>
       <path d="M 12.40625 8.296875 
L 28.515625 8.296875 
L 28.515625 63.921875 
L 10.984375 60.40625 
L 10.984375 69.390625 
L 28.421875 72.90625 
L 38.28125 72.90625 
L 38.28125 8.296875 
L 54.390625 8.296875 
L 54.390625 0 
L 12.40625 0 
z
" id="DejaVuSans-31"/>
      </defs>
      <g transform="translate(410.025596 310.117812)scale(0.14 -0.14)">
       <use xlink:href="#DejaVuSans-31"/>
       <use x="63.623047" xlink:href="#DejaVuSans-30"/>
       <use x="127.246094" xlink:href="#DejaVuSans-30"/>
       <use x="190.869141" xlink:href="#DejaVuSans-30"/>
      </g>
     </g>
    </g>
    <g id="text_7">
     <!-- Lag -->
     <defs>
      <path d="M 9.8125 72.90625 
L 19.671875 72.90625 
L 19.671875 8.296875 
L 55.171875 8.296875 
L 55.171875 0 
L 9.8125 0 
z
" id="DejaVuSans-4c"/>
      <path d="M 34.28125 27.484375 
Q 23.390625 27.484375 19.1875 25 
Q 14.984375 22.515625 14.984375 16.5 
Q 14.984375 11.71875 18.140625 8.90625 
Q 21.296875 6.109375 26.703125 6.109375 
Q 34.1875 6.109375 38.703125 11.40625 
Q 43.21875 16.703125 43.21875 25.484375 
L 43.21875 27.484375 
z
M 52.203125 31.203125 
L 52.203125 0 
L 43.21875 0 
L 43.21875 8.296875 
Q 40.140625 3.328125 35.546875 0.953125 
Q 30.953125 -1.421875 24.3125 -1.421875 
Q 15.921875 -1.421875 10.953125 3.296875 
Q 6 8.015625 6 15.921875 
Q 6 25.140625 12.171875 29.828125 
Q 18.359375 34.515625 30.609375 34.515625 
L 43.21875 34.515625 
L 43.21875 35.40625 
Q 43.21875 41.609375 39.140625 45 
Q 35.0625 48.390625 27.6875 48.390625 
Q 23 48.390625 18.546875 47.265625 
Q 14.109375 46.140625 10.015625 43.890625 
L 10.015625 52.203125 
Q 14.9375 54.109375 19.578125 55.046875 
Q 24.21875 56 28.609375 56 
Q 40.484375 56 46.34375 49.84375 
Q 52.203125 43.703125 52.203125 31.203125 
z
" id="DejaVuSans-61"/>
      <path d="M 45.40625 27.984375 
Q 45.40625 37.75 41.375 43.109375 
Q 37.359375 48.484375 30.078125 48.484375 
Q 22.859375 48.484375 18.828125 43.109375 
Q 14.796875 37.75 14.796875 27.984375 
Q 14.796875 18.265625 18.828125 12.890625 
Q 22.859375 7.515625 30.078125 7.515625 
Q 37.359375 7.515625 41.375 12.890625 
Q 45.40625 18.265625 45.40625 27.984375 
z
M 54.390625 6.78125 
Q 54.390625 -7.171875 48.1875 -13.984375 
Q 42 -20.796875 29.203125 -20.796875 
Q 24.46875 -20.796875 20.265625 -20.09375 
Q 16.0625 -19.390625 12.109375 -17.921875 
L 12.109375 -9.1875 
Q 16.0625 -11.328125 19.921875 -12.34375 
Q 23.78125 -13.375 27.78125 -13.375 
Q 36.625 -13.375 41.015625 -8.765625 
Q 45.40625 -4.15625 45.40625 5.171875 
L 45.40625 9.625 
Q 42.625 4.78125 38.28125 2.390625 
Q 33.9375 0 27.875 0 
Q 17.828125 0 11.671875 7.65625 
Q 5.515625 15.328125 5.515625 27.984375 
Q 5.515625 40.671875 11.671875 48.328125 
Q 17.828125 56 27.875 56 
Q 33.9375 56 38.28125 53.609375 
Q 42.625 51.21875 45.40625 46.390625 
L 45.40625 54.6875 
L 54.390625 54.6875 
z
" id="DejaVuSans-67"/>
     </defs>
     <g transform="translate(237.403277 328.882937)scale(0.156 -0.156)">
      <use xlink:href="#DejaVuSans-4c"/>
      <use x="55.712891" xlink:href="#DejaVuSans-61"/>
      <use x="116.992188" xlink:href="#DejaVuSans-67"/>
     </g>
    </g>
   </g>
   <g id="matplotlib.axis_2">
    <g id="ytick_1">
     <g id="line2d_13">
      <path clip-path="url(#p0f812b1843)" d="M 58.26 270.349991 
L 444.702117 270.349991 
" style="fill:none;stroke:#b2b2b2;stroke-dasharray:1.85,0.8;stroke-dashoffset:0;stroke-width:0.5;"/>
     </g>
     <g id="line2d_14">
      <defs>
       <path d="M 0 0 
L 3.5 0 
" id="m76e8f23302" style="stroke:#000000;stroke-width:0.8;"/>
      </defs>
      <g>
       <use style="stroke:#000000;stroke-width:0.8;" x="58.26" xlink:href="#m76e8f23302" y="270.349991"/>
      </g>
     </g>
     <g id="text_8">
      <!-- 0.0 -->
      <defs>
       <path d="M 10.6875 12.40625 
L 21 12.40625 
L 21 0 
L 10.6875 0 
z
" id="DejaVuSans-2e"/>
      </defs>
      <g transform="translate(32.495625 275.668897)scale(0.14 -0.14)">
       <use xlink:href="#DejaVuSans-30"/>
       <use x="63.623047" xlink:href="#DejaVuSans-2e"/>
       <use x="95.410156" xlink:href="#DejaVuSans-30"/>
      </g>
     </g>
    </g>
    <g id="ytick_2">
     <g id="line2d_15">
      <path clip-path="url(#p0f812b1843)" d="M 58.26 221.293892 
L 444.702117 221.293892 
" style="fill:none;stroke:#b2b2b2;stroke-dasharray:1.85,0.8;stroke-dashoffset:0;stroke-width:0.5;"/>
     </g>
     <g id="line2d_16">
      <g>
       <use style="stroke:#000000;stroke-width:0.8;" x="58.26" xlink:href="#m76e8f23302" y="221.293892"/>
      </g>
     </g>
     <g id="text_9">
      <!-- 0.2 -->
      <g transform="translate(32.495625 226.612799)scale(0.14 -0.14)">
       <use xlink:href="#DejaVuSans-30"/>
       <use x="63.623047" xlink:href="#DejaVuSans-2e"/>
       <use x="95.410156" xlink:href="#DejaVuSans-32"/>
      </g>
     </g>
    </g>
    <g id="ytick_3">
     <g id="line2d_17">
      <path clip-path="url(#p0f812b1843)" d="M 58.26 172.237794 
L 444.702117 172.237794 
" style="fill:none;stroke:#b2b2b2;stroke-dasharray:1.85,0.8;stroke-dashoffset:0;stroke-width:0.5;"/>
     </g>
     <g id="line2d_18">
      <g>
       <use style="stroke:#000000;stroke-width:0.8;" x="58.26" xlink:href="#m76e8f23302" y="172.237794"/>
      </g>
     </g>
     <g id="text_10">
      <!-- 0.4 -->
      <g transform="translate(32.495625 177.5567)scale(0.14 -0.14)">
       <use xlink:href="#DejaVuSans-30"/>
       <use x="63.623047" xlink:href="#DejaVuSans-2e"/>
       <use x="95.410156" xlink:href="#DejaVuSans-34"/>
      </g>
     </g>
    </g>
    <g id="ytick_4">
     <g id="line2d_19">
      <path clip-path="url(#p0f812b1843)" d="M 58.26 123.181695 
L 444.702117 123.181695 
" style="fill:none;stroke:#b2b2b2;stroke-dasharray:1.85,0.8;stroke-dashoffset:0;stroke-width:0.5;"/>
     </g>
     <g id="line2d_20">
      <g>
       <use style="stroke:#000000;stroke-width:0.8;" x="58.26" xlink:href="#m76e8f23302" y="123.181695"/>
      </g>
     </g>
     <g id="text_11">
      <!-- 0.6 -->
      <g transform="translate(32.495625 128.500601)scale(0.14 -0.14)">
       <use xlink:href="#DejaVuSans-30"/>
       <use x="63.623047" xlink:href="#DejaVuSans-2e"/>
       <use x="95.410156" xlink:href="#DejaVuSans-36"/>
      </g>
     </g>
    </g>
    <g id="ytick_5">
     <g id="line2d_21">
      <path clip-path="url(#p0f812b1843)" d="M 58.26 74.125597 
L 444.702117 74.125597 
" style="fill:none;stroke:#b2b2b2;stroke-dasharray:1.85,0.8;stroke-dashoffset:0;stroke-width:0.5;"/>
     </g>
     <g id="line2d_22">
      <g>
       <use style="stroke:#000000;stroke-width:0.8;" x="58.26" xlink:href="#m76e8f23302" y="74.125597"/>
      </g>
     </g>
     <g id="text_12">
      <!-- 0.8 -->
      <g transform="translate(32.495625 79.444503)scale(0.14 -0.14)">
       <use xlink:href="#DejaVuSans-30"/>
       <use x="63.623047" xlink:href="#DejaVuSans-2e"/>
       <use x="95.410156" xlink:href="#DejaVuSans-38"/>
      </g>
     </g>
    </g>
    <g id="ytick_6">
     <g id="line2d_23">
      <path clip-path="url(#p0f812b1843)" d="M 58.26 25.069498 
L 444.702117 25.069498 
" style="fill:none;stroke:#b2b2b2;stroke-dasharray:1.85,0.8;stroke-dashoffset:0;stroke-width:0.5;"/>
     </g>
     <g id="line2d_24">
      <g>
       <use style="stroke:#000000;stroke-width:0.8;" x="58.26" xlink:href="#m76e8f23302" y="25.069498"/>
      </g>
     </g>
     <g id="text_13">
      <!-- 1.0 -->
      <g transform="translate(32.495625 30.388404)scale(0.14 -0.14)">
       <use xlink:href="#DejaVuSans-31"/>
       <use x="63.623047" xlink:href="#DejaVuSans-2e"/>
       <use x="95.410156" xlink:href="#DejaVuSans-30"/>
      </g>
     </g>
    </g>
    <g id="text_14">
     <!-- Autocorrelation -->
     <defs>
      <path d="M 34.1875 63.1875 
L 20.796875 26.90625 
L 47.609375 26.90625 
z
M 28.609375 72.90625 
L 39.796875 72.90625 
L 67.578125 0 
L 57.328125 0 
L 50.6875 18.703125 
L 17.828125 18.703125 
L 11.1875 0 
L 0.78125 0 
z
" id="DejaVuSans-41"/>
      <path d="M 8.5 21.578125 
L 8.5 54.6875 
L 17.484375 54.6875 
L 17.484375 21.921875 
Q 17.484375 14.15625 20.5 10.265625 
Q 23.53125 6.390625 29.59375 6.390625 
Q 36.859375 6.390625 41.078125 11.03125 
Q 45.3125 15.671875 45.3125 23.6875 
L 45.3125 54.6875 
L 54.296875 54.6875 
L 54.296875 0 
L 45.3125 0 
L 45.3125 8.40625 
Q 42.046875 3.421875 37.71875 1 
Q 33.40625 -1.421875 27.6875 -1.421875 
Q 18.265625 -1.421875 13.375 4.4375 
Q 8.5 10.296875 8.5 21.578125 
z
M 31.109375 56 
z
" id="DejaVuSans-75"/>
      <path d="M 18.3125 70.21875 
L 18.3125 54.6875 
L 36.8125 54.6875 
L 36.8125 47.703125 
L 18.3125 47.703125 
L 18.3125 18.015625 
Q 18.3125 11.328125 20.140625 9.421875 
Q 21.96875 7.515625 27.59375 7.515625 
L 36.8125 7.515625 
L 36.8125 0 
L 27.59375 0 
Q 17.1875 0 13.234375 3.875 
Q 9.28125 7.765625 9.28125 18.015625 
L 9.28125 47.703125 
L 2.6875 47.703125 
L 2.6875 54.6875 
L 9.28125 54.6875 
L 9.28125 70.21875 
z
" id="DejaVuSans-74"/>
      <path d="M 30.609375 48.390625 
Q 23.390625 48.390625 19.1875 42.75 
Q 14.984375 37.109375 14.984375 27.296875 
Q 14.984375 17.484375 19.15625 11.84375 
Q 23.34375 6.203125 30.609375 6.203125 
Q 37.796875 6.203125 41.984375 11.859375 
Q 46.1875 17.53125 46.1875 27.296875 
Q 46.1875 37.015625 41.984375 42.703125 
Q 37.796875 48.390625 30.609375 48.390625 
z
M 30.609375 56 
Q 42.328125 56 49.015625 48.375 
Q 55.71875 40.765625 55.71875 27.296875 
Q 55.71875 13.875 49.015625 6.21875 
Q 42.328125 -1.421875 30.609375 -1.421875 
Q 18.84375 -1.421875 12.171875 6.21875 
Q 5.515625 13.875 5.515625 27.296875 
Q 5.515625 40.765625 12.171875 48.375 
Q 18.84375 56 30.609375 56 
z
" id="DejaVuSans-6f"/>
      <path d="M 48.78125 52.59375 
L 48.78125 44.1875 
Q 44.96875 46.296875 41.140625 47.34375 
Q 37.3125 48.390625 33.40625 48.390625 
Q 24.65625 48.390625 19.8125 42.84375 
Q 14.984375 37.3125 14.984375 27.296875 
Q 14.984375 17.28125 19.8125 11.734375 
Q 24.65625 6.203125 33.40625 6.203125 
Q 37.3125 6.203125 41.140625 7.25 
Q 44.96875 8.296875 48.78125 10.40625 
L 48.78125 2.09375 
Q 45.015625 0.34375 40.984375 -0.53125 
Q 36.96875 -1.421875 32.421875 -1.421875 
Q 20.0625 -1.421875 12.78125 6.34375 
Q 5.515625 14.109375 5.515625 27.296875 
Q 5.515625 40.671875 12.859375 48.328125 
Q 20.21875 56 33.015625 56 
Q 37.15625 56 41.109375 55.140625 
Q 45.0625 54.296875 48.78125 52.59375 
z
" id="DejaVuSans-63"/>
      <path d="M 41.109375 46.296875 
Q 39.59375 47.171875 37.8125 47.578125 
Q 36.03125 48 33.890625 48 
Q 26.265625 48 22.1875 43.046875 
Q 18.109375 38.09375 18.109375 28.8125 
L 18.109375 0 
L 9.078125 0 
L 9.078125 54.6875 
L 18.109375 54.6875 
L 18.109375 46.1875 
Q 20.953125 51.171875 25.484375 53.578125 
Q 30.03125 56 36.53125 56 
Q 37.453125 56 38.578125 55.875 
Q 39.703125 55.765625 41.0625 55.515625 
z
" id="DejaVuSans-72"/>
      <path d="M 56.203125 29.59375 
L 56.203125 25.203125 
L 14.890625 25.203125 
Q 15.484375 15.921875 20.484375 11.0625 
Q 25.484375 6.203125 34.421875 6.203125 
Q 39.59375 6.203125 44.453125 7.46875 
Q 49.3125 8.734375 54.109375 11.28125 
L 54.109375 2.78125 
Q 49.265625 0.734375 44.1875 -0.34375 
Q 39.109375 -1.421875 33.890625 -1.421875 
Q 20.796875 -1.421875 13.15625 6.1875 
Q 5.515625 13.8125 5.515625 26.8125 
Q 5.515625 40.234375 12.765625 48.109375 
Q 20.015625 56 32.328125 56 
Q 43.359375 56 49.78125 48.890625 
Q 56.203125 41.796875 56.203125 29.59375 
z
M 47.21875 32.234375 
Q 47.125 39.59375 43.09375 43.984375 
Q 39.0625 48.390625 32.421875 48.390625 
Q 24.90625 48.390625 20.390625 44.140625 
Q 15.875 39.890625 15.1875 32.171875 
z
" id="DejaVuSans-65"/>
      <path d="M 9.421875 75.984375 
L 18.40625 75.984375 
L 18.40625 0 
L 9.421875 0 
z
" id="DejaVuSans-6c"/>
      <path d="M 9.421875 54.6875 
L 18.40625 54.6875 
L 18.40625 0 
L 9.421875 0 
z
M 9.421875 75.984375 
L 18.40625 75.984375 
L 18.40625 64.59375 
L 9.421875 64.59375 
z
" id="DejaVuSans-69"/>
      <path d="M 54.890625 33.015625 
L 54.890625 0 
L 45.90625 0 
L 45.90625 32.71875 
Q 45.90625 40.484375 42.875 44.328125 
Q 39.84375 48.1875 33.796875 48.1875 
Q 26.515625 48.1875 22.3125 43.546875 
Q 18.109375 38.921875 18.109375 30.90625 
L 18.109375 0 
L 9.078125 0 
L 9.078125 54.6875 
L 18.109375 54.6875 
L 18.109375 46.1875 
Q 21.34375 51.125 25.703125 53.5625 
Q 30.078125 56 35.796875 56 
Q 45.21875 56 50.046875 50.171875 
Q 54.890625 44.34375 54.890625 33.015625 
z
" id="DejaVuSans-6e"/>
     </defs>
     <g transform="translate(25.251312 215.277187)rotate(-90)scale(0.156 -0.156)">
      <use xlink:href="#DejaVuSans-41"/>
      <use x="68.408203" xlink:href="#DejaVuSans-75"/>
      <use x="131.787109" xlink:href="#DejaVuSans-74"/>
      <use x="170.996094" xlink:href="#DejaVuSans-6f"/>
      <use x="232.177734" xlink:href="#DejaVuSans-63"/>
      <use x="287.158203" xlink:href="#DejaVuSans-6f"/>
      <use x="348.339844" xlink:href="#DejaVuSans-72"/>
      <use x="389.4375" xlink:href="#DejaVuSans-72"/>
      <use x="430.519531" xlink:href="#DejaVuSans-65"/>
      <use x="492.042969" xlink:href="#DejaVuSans-6c"/>
      <use x="519.826172" xlink:href="#DejaVuSans-61"/>
      <use x="581.105469" xlink:href="#DejaVuSans-74"/>
      <use x="620.314453" xlink:href="#DejaVuSans-69"/>
      <use x="648.097656" xlink:href="#DejaVuSans-6f"/>
      <use x="709.279297" xlink:href="#DejaVuSans-6e"/>
     </g>
    </g>
   </g>
   <g id="line2d_25">
    <path clip-path="url(#p0f812b1843)" d="M 75.825551 27.501316 
L 77.233611 36.299641 
L 78.993686 45.794999 
L 80.753761 54.070984 
L 83.217867 64.267883 
L 85.681972 73.277179 
L 87.794062 80.372246 
L 89.554138 85.703262 
L 96.594438 105.890651 
L 101.874664 120.442007 
L 115.955266 156.832528 
L 118.419371 162.437307 
L 124.403627 175.634693 
L 126.867732 180.752744 
L 129.683853 186.47376 
L 136.020124 199.425352 
L 141.300349 209.19015 
L 144.8205 215.133895 
L 147.63662 219.503982 
L 149.74871 222.825124 
L 152.564831 226.911196 
L 155.028936 230.160988 
L 157.845056 233.791177 
L 159.253117 235.457979 
L 161.365207 237.874391 
L 165.237372 242.335364 
L 166.997448 244.357108 
L 169.461553 247.303416 
L 172.629688 250.839726 
L 174.741779 252.60384 
L 178.613944 255.862924 
L 180.022004 257.008414 
L 187.062305 261.825213 
L 190.230441 263.188861 
L 192.694546 263.996058 
L 195.510666 265.09835 
L 198.678802 266.554768 
L 200.086862 267.212817 
L 201.846937 267.817669 
L 203.254997 268.209698 
L 207.127163 269.564283 
L 208.887238 270.15675 
L 212.759403 271.250815 
L 214.167464 271.634144 
L 216.631569 272.258655 
L 218.039629 272.553914 
L 219.095674 272.757596 
L 220.503734 272.796679 
L 223.67187 272.693789 
L 225.07993 272.616971 
L 227.544035 272.972336 
L 228.952096 273.329314 
L 230.008141 273.582816 
L 233.176276 274.124958 
L 236.696427 274.503925 
L 240.216577 274.81382 
L 241.976652 275.038234 
L 246.552848 275.695846 
L 247.608893 275.829934 
L 250.777028 275.960362 
L 251.833074 275.939747 
L 261.689495 274.698347 
L 263.097555 274.436756 
L 264.85763 274.531743 
L 268.025766 274.936992 
L 269.785841 274.691079 
L 273.658006 273.625942 
L 274.362036 273.489654 
L 275.770097 273.267253 
L 276.826142 273.136323 
L 278.234202 273.203987 
L 282.106367 273.137721 
L 283.514428 272.856734 
L 285.626518 272.188282 
L 287.738608 271.675057 
L 289.850698 271.488588 
L 294.426894 271.123408 
L 298.29906 270.742199 
L 299.355105 270.805162 
L 300.763165 270.863828 
L 304.283315 270.609346 
L 305.691375 270.553932 
L 310.619586 270.801262 
L 312.027646 270.764913 
L 313.083691 270.877686 
L 314.139737 271.020243 
L 316.603842 270.929086 
L 318.363917 270.826304 
L 320.828022 271.052727 
L 322.588098 271.116055 
L 324.700188 271.330464 
L 326.812278 271.505014 
L 328.220338 271.655841 
L 333.148549 271.426366 
L 335.260639 271.458999 
L 337.020715 271.270648 
L 338.428775 271.10052 
L 341.948925 270.611386 
L 343.356985 270.664653 
L 347.229151 270.891289 
L 348.637211 271.074845 
L 352.861392 271.264527 
L 355.325497 271.23614 
L 356.381542 271.360022 
L 361.661768 272.109083 
L 365.181918 272.531346 
L 369.758114 274.191105 
L 374.334309 274.855286 
L 382.78267 274.605407 
L 383.838716 274.602805 
L 385.598791 274.415054 
L 389.118941 273.796396 
L 392.287077 273.561279 
L 394.399167 273.298154 
L 399.679393 273.071505 
L 404.255588 273.014951 
L 407.775739 272.629236 
L 409.535814 272.522462 
L 410.943874 272.264844 
L 414.11201 271.654294 
L 417.984175 271.154421 
L 420.44828 270.374432 
L 422.208356 269.662632 
L 425.376491 268.408772 
L 427.136566 268.030586 
L 427.136566 268.030586 
" style="fill:none;stroke:#348abd;stroke-linecap:square;stroke-width:2;"/>
   </g>
   <g id="line2d_26">
    <path clip-path="url(#p0f812b1843)" d="M 75.825551 27.653497 
L 77.233611 37.040372 
L 78.993686 47.16832 
L 81.105776 57.677813 
L 82.865852 65.35994 
L 84.977942 73.501716 
L 87.442047 82.191057 
L 90.962198 93.134334 
L 94.130333 101.86151 
L 96.946454 108.837166 
L 100.818619 117.779579 
L 109.618995 137.719434 
L 114.899221 147.952551 
L 116.659296 151.366302 
L 120.179447 158.539004 
L 121.939522 161.647561 
L 124.051612 165.016477 
L 126.163702 168.333476 
L 130.387883 174.861817 
L 134.260048 180.4628 
L 136.724154 184.348462 
L 140.948334 191.037003 
L 143.764455 194.985065 
L 154.324906 209.721852 
L 157.141026 213.329088 
L 161.717222 218.482527 
L 163.477297 220.743106 
L 169.461553 227.958736 
L 171.925658 230.808103 
L 175.093794 233.897195 
L 177.909914 236.320138 
L 179.317974 237.618923 
L 181.430064 239.330422 
L 182.838125 240.416404 
L 184.246185 241.469386 
L 189.174395 245.211627 
L 191.638501 246.774391 
L 194.454621 248.392011 
L 197.974772 250.986172 
L 199.382832 252.070598 
L 204.311042 255.538658 
L 206.775148 257.010859 
L 209.943283 259.398301 
L 211.351343 259.998733 
L 212.407388 260.221417 
L 215.575524 260.692904 
L 216.983584 260.922232 
L 219.447689 261.358093 
L 224.3759 261.34708 
L 226.840005 261.174254 
L 232.472246 261.886394 
L 236.344412 262.0259 
L 237.400457 262.221857 
L 241.272622 263.152898 
L 244.088743 263.683225 
L 245.848818 263.958207 
L 247.960908 264.487195 
L 250.072998 264.607131 
L 258.873374 266.003915 
L 267.673751 265.973058 
L 269.081811 266.129301 
L 270.137856 266.207202 
L 271.545916 266.159402 
L 276.474127 265.451725 
L 281.402337 265.498695 
L 283.162413 265.59025 
L 286.682563 265.223093 
L 289.850698 265.279062 
L 290.906744 265.322902 
L 292.314804 265.410364 
L 295.482939 265.073974 
L 300.763165 265.606906 
L 302.52324 265.652736 
L 303.9313 265.648952 
L 306.747421 265.387554 
L 308.507496 265.311214 
L 309.915556 265.041166 
L 311.323616 264.597962 
L 313.435706 263.676672 
L 314.491752 263.409154 
L 317.659887 263.039176 
L 319.771977 262.617614 
L 321.180037 262.346041 
L 323.996158 262.15265 
L 325.756233 262.168226 
L 328.220338 262.586581 
L 333.148549 264.233368 
L 334.204594 264.333174 
L 335.612654 264.337303 
L 337.37273 264.344529 
L 338.78079 264.396928 
L 340.89288 264.727489 
L 343.356985 265.280825 
L 344.765046 265.6717 
L 348.285196 266.184332 
L 352.157361 266.575925 
L 355.325497 267.243045 
L 356.733557 267.970324 
L 357.789602 268.499583 
L 359.197662 269.144416 
L 360.605723 269.949549 
L 366.941993 272.554463 
L 368.702069 272.631005 
L 370.462144 272.723539 
L 372.926249 273.391621 
L 374.334309 273.954116 
L 377.15043 275.139607 
L 379.614535 275.714216 
L 381.37461 275.782908 
L 382.430655 275.733991 
L 384.894761 276.127075 
L 387.358866 276.129838 
L 390.174986 276.023057 
L 391.583047 276.147008 
L 395.103197 277.20822 
L 396.863272 277.394502 
L 401.791483 278.124875 
L 406.015663 279.290308 
L 409.183799 280.193625 
L 417.984175 282.755711 
L 419.392235 282.932183 
L 420.44828 282.983555 
L 423.264401 283.083789 
L 425.376491 283.147695 
L 427.136566 283.050167 
L 427.136566 283.050167 
" style="fill:none;stroke:#a60628;stroke-linecap:square;stroke-width:2;"/>
   </g>
   <g id="line2d_27">
    <path clip-path="url(#p0f812b1843)" d="M 75.825551 27.7714 
L 77.233611 37.57266 
L 78.993686 48.314264 
L 80.401746 55.912426 
L 82.161822 64.097656 
L 83.921897 71.069942 
L 85.681972 77.327932 
L 88.498092 86.464988 
L 92.722273 99.501553 
L 97.298469 113.542291 
L 99.058544 118.17315 
L 103.986754 130.138211 
L 105.394815 133.518947 
L 115.251236 158.638734 
L 117.011311 162.463947 
L 120.531462 169.402335 
L 122.643552 173.178199 
L 124.051612 176.034974 
L 132.851988 194.88022 
L 138.836244 206.442128 
L 143.060424 213.7597 
L 146.580575 219.122557 
L 148.692665 222.245839 
L 150.100725 224.327774 
L 152.916846 228.550375 
L 156.084981 232.819134 
L 159.605132 237.031922 
L 163.125282 241.177296 
L 165.589387 244.232515 
L 171.925658 252.621716 
L 178.261929 260.547047 
L 180.022004 262.063248 
L 182.48611 264.173099 
L 185.654245 267.655469 
L 186.71029 268.523507 
L 189.878426 270.478459 
L 191.990516 271.224574 
L 195.158651 271.811023 
L 196.566711 272.16538 
L 197.622757 272.473064 
L 200.086862 273.432965 
L 202.198952 274.051653 
L 202.902982 274.061845 
L 204.663057 273.97112 
L 206.775148 273.680855 
L 210.295298 273.148771 
L 213.111419 272.977508 
L 214.167464 272.818319 
L 215.575524 272.792721 
L 218.391644 273.0117 
L 219.799704 272.938433 
L 226.840005 272.563543 
L 229.656126 272.956142 
L 230.712171 273.041132 
L 232.120231 272.98386 
L 233.880306 272.81688 
L 235.640381 272.666311 
L 237.752472 272.605546 
L 240.920607 272.018539 
L 242.328667 271.786418 
L 243.384712 271.577631 
L 244.792773 271.489493 
L 247.256878 271.565686 
L 248.664938 271.462016 
L 250.777028 271.105472 
L 252.185089 270.844216 
L 258.169344 270.483873 
L 260.63345 270.487848 
L 262.04151 270.388974 
L 265.913675 270.506929 
L 268.729796 270.92441 
L 271.193901 271.570983 
L 273.658006 271.858909 
L 275.066067 271.858141 
L 278.586217 271.979584 
L 283.866443 272.000816 
L 285.626518 271.933606 
L 287.738608 271.804177 
L 289.146668 271.965557 
L 291.610774 272.39641 
L 293.018834 272.547053 
L 294.426894 272.766703 
L 296.186969 273.025867 
L 297.947044 273.001029 
L 299.355105 272.792824 
L 301.467195 272.436398 
L 303.9313 272.497264 
L 306.395406 272.493088 
L 309.915556 272.748323 
L 313.083691 272.173134 
L 314.843767 271.802737 
L 320.123992 271.502324 
L 321.180037 271.677776 
L 322.588098 271.990455 
L 324.348173 272.074959 
L 325.756233 271.756491 
L 327.516308 271.247115 
L 331.036459 270.304989 
L 331.740489 270.093829 
L 332.796534 270.057934 
L 335.260639 270.565176 
L 337.37273 270.965191 
L 338.78079 270.941619 
L 340.18885 270.749801 
L 340.89288 270.497529 
L 341.948925 270.074919 
L 343.709 269.575334 
L 346.877136 269.106528 
L 350.045271 269.106038 
L 352.861392 269.646738 
L 353.565422 269.80808 
L 354.973482 270.326617 
L 356.029527 270.672072 
L 359.549677 271.615514 
L 361.661768 272.452218 
L 364.125873 273.893325 
L 366.237963 274.837329 
L 367.998039 275.218591 
L 369.054084 275.328993 
L 372.574234 275.213045 
L 376.094385 274.523505 
L 377.85446 274.184566 
L 380.67058 273.966688 
L 382.07864 273.95078 
L 383.838716 273.682424 
L 385.246776 273.481337 
L 389.470956 273.273135 
L 391.231032 273.337751 
L 392.991107 273.728265 
L 394.047152 274.079868 
L 396.159242 274.543862 
L 400.383423 274.671172 
L 403.903573 274.409492 
L 405.663648 274.613587 
L 407.423724 274.638421 
L 410.239844 274.5548 
L 412.703949 274.450627 
L 413.759994 274.268457 
L 415.168055 273.859191 
L 420.800295 272.140683 
L 422.912386 272.002161 
L 427.136566 271.7082 
L 427.136566 271.7082 
" style="fill:none;stroke:#7a68a6;stroke-linecap:square;stroke-width:2;"/>
   </g>
   <g id="line2d_28">
    <path clip-path="url(#p0f812b1843)" d="M 75.825551 26.855455 
L 77.585626 35.089041 
L 79.345701 42.058245 
L 81.105776 48.216952 
L 83.569882 56.002457 
L 86.033987 63.006767 
L 89.554138 72.20722 
L 94.834363 84.578422 
L 98.002499 91.611637 
L 101.170634 98.473385 
L 107.15489 110.066149 
L 110.67504 116.304395 
L 118.419371 129.319613 
L 122.291537 135.192107 
L 127.219747 142.771079 
L 128.627808 144.938498 
L 133.908033 153.745714 
L 139.188259 161.576298 
L 142.004379 165.825083 
L 144.11647 168.590995 
L 145.876545 170.707565 
L 147.63662 172.862267 
L 149.74871 175.299113 
L 153.268861 179.236724 
L 159.605132 187.599717 
L 161.717222 190.361149 
L 172.277673 202.319205 
L 175.797824 206.472214 
L 184.950215 216.320292 
L 187.062305 218.236296 
L 189.52641 220.747886 
L 190.934471 222.373989 
L 196.918726 229.811935 
L 202.550967 235.760442 
L 219.799704 251.859051 
L 223.67187 254.586513 
L 229.304111 258.145776 
L 234.936351 261.154488 
L 239.160532 262.932928 
L 241.624637 263.920774 
L 245.144788 265.627954 
L 246.552848 266.134419 
L 247.960908 266.487529 
L 255.001209 268.167833 
L 256.409269 268.529984 
L 258.521359 268.630229 
L 261.33748 268.884134 
L 265.913675 269.30391 
L 275.066067 269.16345 
L 281.402337 268.527446 
L 284.570473 268.154155 
L 293.018834 267.899988 
L 295.130924 267.64989 
L 297.595029 267.521519 
L 302.52324 267.221095 
L 305.33936 267.098437 
L 307.803466 267.343761 
L 309.211526 267.524962 
L 312.027646 267.62023 
L 315.547797 267.522191 
L 319.067947 267.037473 
L 322.236083 266.885907 
L 325.052203 266.808812 
L 329.980414 265.896244 
L 331.388474 265.736546 
L 332.444519 265.700323 
L 333.852579 265.686934 
L 335.964669 265.646472 
L 340.18885 265.766114 
L 341.244895 265.743321 
L 348.989226 266.236685 
L 350.749301 266.209352 
L 352.861392 266.132976 
L 357.437587 266.22501 
L 364.829903 266.787749 
L 372.222219 268.478859 
L 374.334309 268.92762 
L 376.4464 269.303001 
L 378.206475 269.528867 
L 379.614535 269.735082 
L 381.022595 269.757676 
L 384.542746 269.421361 
L 386.654836 269.454696 
L 387.710881 269.471727 
L 389.118941 269.450246 
L 394.751182 269.612126 
L 400.735438 269.484462 
L 402.143498 269.483977 
L 404.959618 269.368041 
L 407.071709 269.195771 
L 409.535814 268.881292 
L 411.295889 269.020857 
L 416.92813 269.573126 
L 420.096265 270.039356 
L 422.912386 270.08117 
L 424.320446 270.135936 
L 426.432536 270.507333 
L 427.136566 270.592278 
L 427.136566 270.592278 
" style="fill:none;stroke:#467821;stroke-linecap:square;stroke-width:2;"/>
   </g>
   <g id="line2d_29">
    <path clip-path="url(#p0f812b1843)" d="M 75.825551 28.419761 
L 77.233611 40.425059 
L 78.641671 50.879256 
L 80.401746 62.141843 
L 82.513837 73.894904 
L 85.681972 90.138389 
L 89.202123 105.87912 
L 91.666228 115.506016 
L 93.426303 121.547871 
L 95.890408 129.12371 
L 100.818619 142.851994 
L 107.15489 157.446646 
L 109.618995 162.050707 
L 119.827431 181.082741 
L 121.939522 184.513017 
L 130.387883 197.83853 
L 131.443928 199.408161 
L 132.851988 201.702223 
L 137.780199 208.919473 
L 140.244304 212.439389 
L 142.004379 214.934426 
L 146.22856 221.291291 
L 150.100725 226.817707 
L 152.564831 229.817017 
L 154.676921 232.921767 
L 157.845056 237.76185 
L 159.253117 239.922214 
L 161.013192 242.763012 
L 162.421252 244.532854 
L 165.237372 247.569381 
L 166.645433 248.904642 
L 172.277673 254.881314 
L 174.741779 256.978914 
L 180.022004 260.284445 
L 183.19014 262.603422 
L 186.71029 263.853687 
L 187.766335 264.248586 
L 189.174395 264.835611 
L 190.230441 265.079891 
L 191.286486 265.161458 
L 192.342531 265.37291 
L 194.806636 265.572514 
L 195.862681 265.78992 
L 197.270741 266.185288 
L 198.678802 266.55944 
L 200.438877 267.04962 
L 205.367088 268.111144 
L 206.775148 268.348499 
L 208.535223 268.556222 
L 210.999328 268.861134 
L 214.167464 270.062045 
L 218.039629 272.467907 
L 219.447689 273.405211 
L 221.911795 274.432537 
L 224.023885 274.782639 
L 226.840005 274.889986 
L 227.544035 274.611152 
L 233.880306 271.318067 
L 234.936351 270.906835 
L 236.696427 270.37787 
L 237.400457 270.011786 
L 238.456502 269.335083 
L 240.216577 268.591057 
L 241.272622 268.346047 
L 245.848818 267.575697 
L 246.904863 267.385108 
L 248.312923 267.10623 
L 250.072998 266.377997 
L 250.777028 266.063467 
L 252.537104 265.734035 
L 253.593149 265.633273 
L 256.409269 265.616161 
L 257.817329 265.430665 
L 258.873374 265.625868 
L 260.281435 265.824141 
L 261.33748 265.802906 
L 265.913675 266.722809 
L 267.673751 266.686192 
L 268.729796 266.722621 
L 270.841886 266.962409 
L 272.249946 267.060979 
L 275.418082 267.578262 
L 277.882187 267.629091 
L 279.290247 267.722006 
L 280.698307 267.849329 
L 282.810398 267.720611 
L 285.626518 266.925768 
L 288.090623 265.950398 
L 289.146668 265.805485 
L 290.202713 265.718916 
L 291.610774 265.465334 
L 292.666819 265.130568 
L 294.074879 264.532437 
L 295.834954 264.285692 
L 298.651075 263.984547 
L 299.70712 263.770056 
L 302.171225 263.478998 
L 303.22727 263.447728 
L 304.987345 263.140664 
L 306.395406 262.784785 
L 307.099436 262.623158 
L 308.859511 262.549324 
L 310.619586 262.797401 
L 311.675631 262.915448 
L 314.491752 263.932642 
L 315.195782 264.151983 
L 317.659887 264.578513 
L 320.123992 264.748524 
L 321.532053 264.864567 
L 322.588098 264.920928 
L 324.700188 265.620016 
L 325.404218 265.928546 
L 329.980414 266.704406 
L 332.092504 267.018524 
L 333.148549 266.988516 
L 334.204594 266.908243 
L 335.612654 266.991717 
L 337.020715 267.242417 
L 342.30094 269.097832 
L 343.709 269.290266 
L 344.765046 269.555615 
L 347.229151 269.929012 
L 348.989226 270.454498 
L 350.397286 270.558445 
L 352.509377 270.613019 
L 353.917437 270.858834 
L 357.085572 271.546101 
L 357.789602 271.473356 
L 359.549677 271.143315 
L 363.773858 270.899075 
L 365.885948 271.266102 
L 368.350054 271.333592 
L 371.518189 270.646357 
L 372.574234 270.338896 
L 377.15043 269.397823 
L 379.26252 269.382909 
L 383.134686 269.945058 
L 384.542746 270.018766 
L 388.062896 270.356034 
L 389.470956 270.692596 
L 390.879017 270.781296 
L 391.583047 270.917997 
L 394.047152 271.982221 
L 395.455212 272.340084 
L 396.511257 272.531836 
L 402.495513 273.740237 
L 403.551558 273.828981 
L 404.959618 273.635376 
L 406.015663 273.410965 
L 408.479769 273.437329 
L 409.887829 273.59974 
L 412.351934 274.157609 
L 417.63216 273.726119 
L 420.096265 273.115637 
L 421.15231 272.86189 
L 426.080521 272.774144 
L 427.136566 273.148995 
L 427.136566 273.148995 
" style="fill:none;stroke:#d55e00;stroke-linecap:square;stroke-width:2;"/>
   </g>
   <g id="line2d_30">
    <path clip-path="url(#p0f812b1843)" d="M 75.825551 28.292433 
L 77.233611 40.019191 
L 78.993686 52.607015 
L 80.753761 63.781322 
L 83.217867 77.839114 
L 85.681972 90.617728 
L 87.794062 100.728555 
L 89.554138 108.337677 
L 92.018243 117.581715 
L 93.426303 122.322835 
L 98.354514 137.620235 
L 100.466604 143.567499 
L 102.226679 148.46361 
L 105.74683 158.939434 
L 110.323025 170.943219 
L 113.491161 178.365808 
L 116.659296 184.69125 
L 119.123401 189.203594 
L 121.587507 193.799484 
L 128.275793 206.708033 
L 132.499973 214.156931 
L 135.316093 218.919774 
L 137.076169 222.06568 
L 138.836244 224.706848 
L 140.596319 227.037806 
L 142.004379 228.789536 
L 144.11647 231.423667 
L 145.52453 232.904188 
L 146.580575 234.027972 
L 150.100725 237.928307 
L 151.860801 239.63974 
L 153.268861 241.116944 
L 157.493041 245.140944 
L 158.901102 246.422091 
L 160.309162 247.926481 
L 163.829312 251.782862 
L 165.941402 253.730928 
L 171.925658 258.430664 
L 173.333718 259.170474 
L 176.853869 261.268578 
L 179.317974 262.33054 
L 180.726034 262.901361 
L 187.766335 265.409115 
L 192.342531 266.419952 
L 194.102606 266.919929 
L 195.158651 267.243884 
L 197.622757 268.107243 
L 201.142907 268.633392 
L 202.902982 268.688352 
L 206.071118 268.349287 
L 209.591268 268.750283 
L 210.647313 268.925401 
L 213.111419 269.205591 
L 216.279554 269.952713 
L 219.799704 270.179446 
L 221.207765 270.274391 
L 224.023885 270.566577 
L 225.07993 270.458122 
L 226.135975 270.274097 
L 227.544035 270.160793 
L 228.600081 270.121145 
L 231.064186 269.965893 
L 233.528291 270.11987 
L 234.936351 269.916958 
L 235.992396 269.763531 
L 237.048442 269.717204 
L 239.160532 269.431715 
L 242.328667 269.139939 
L 247.256878 268.31136 
L 248.312923 268.213915 
L 249.368968 268.208578 
L 252.185089 268.032356 
L 253.593149 267.869128 
L 258.169344 267.283841 
L 259.225389 267.475942 
L 263.097555 268.523629 
L 263.801585 268.547052 
L 266.617705 267.869085 
L 270.489871 266.812164 
L 272.953976 266.65924 
L 276.122112 266.984945 
L 281.754352 268.657277 
L 282.810398 269.042858 
L 284.218458 269.292308 
L 286.330548 269.32828 
L 287.386593 269.227025 
L 289.146668 269.346136 
L 290.202713 269.420925 
L 295.130924 268.925959 
L 296.890999 268.542918 
L 300.059135 267.961186 
L 302.875255 267.661569 
L 303.579285 267.839002 
L 304.283315 268.058621 
L 304.987345 268.17582 
L 306.395406 268.578604 
L 307.803466 268.667497 
L 309.211526 268.52199 
L 313.787722 267.548217 
L 319.771977 265.512117 
L 321.532053 265.169487 
L 322.940113 265.290319 
L 323.996158 265.165758 
L 325.756233 264.665469 
L 327.516308 264.052673 
L 328.572353 263.844371 
L 329.276384 263.690454 
L 335.260639 262.117573 
L 336.668699 262.233051 
L 340.18885 262.603328 
L 341.59691 262.763959 
L 345.117061 263.682837 
L 348.285196 264.860571 
L 350.045271 265.384757 
L 356.381542 267.086297 
L 358.493632 267.445439 
L 360.253708 267.610777 
L 361.309753 267.584011 
L 362.717813 267.600268 
L 364.829903 268.011632 
L 366.237963 268.234491 
L 368.702069 268.310586 
L 370.814159 268.189534 
L 372.574234 268.565333 
L 378.910505 270.043528 
L 380.67058 270.683038 
L 382.07864 270.933963 
L 383.486701 271.299335 
L 385.598791 271.518202 
L 390.879017 271.223769 
L 391.935062 271.44564 
L 392.991107 271.711461 
L 395.455212 271.928039 
L 397.215287 271.765604 
L 398.975363 271.515342 
L 401.439468 271.598936 
L 404.607603 271.419823 
L 406.719694 271.158272 
L 408.831784 271.208993 
L 417.63216 269.856443 
L 418.688205 269.842681 
L 419.74425 270.017524 
L 421.856341 270.549818 
L 424.672461 270.526897 
L 425.728506 270.516954 
L 427.136566 270.55524 
L 427.136566 270.55524 
" style="fill:none;stroke:#cc79a7;stroke-linecap:square;stroke-width:2;"/>
   </g>
   <g id="line2d_31">
    <path clip-path="url(#p0f812b1843)" d="M 75.825551 27.250946 
L 77.233611 35.274545 
L 79.345701 45.898626 
L 81.105776 53.685541 
L 83.569882 63.418666 
L 86.738017 74.791965 
L 89.202123 82.660507 
L 93.426303 94.814872 
L 100.114589 113.036528 
L 102.930709 119.905089 
L 106.098845 127.620185 
L 109.618995 136.488072 
L 115.603251 150.059364 
L 118.419371 155.717567 
L 128.627808 175.86997 
L 130.739898 179.373231 
L 137.428184 190.420379 
L 139.540274 194.416473 
L 146.22856 207.313563 
L 152.212816 217.51055 
L 153.972891 220.069818 
L 161.013192 229.905266 
L 163.829312 233.208827 
L 172.629688 243.041283 
L 175.093794 245.490729 
L 177.909914 247.879011 
L 186.00626 254.178737 
L 187.766335 255.729961 
L 189.878426 257.188223 
L 196.918726 261.472221 
L 202.550967 264.315622 
L 206.071118 265.948415 
L 208.535223 266.750276 
L 219.799704 268.421431 
L 222.26381 268.469676 
L 223.319855 268.408057 
L 225.07993 268.450868 
L 226.48799 268.441356 
L 228.952096 268.497384 
L 242.328667 270.207117 
L 244.792773 270.314073 
L 246.200833 270.307077 
L 247.608893 270.366788 
L 249.016953 270.38461 
L 251.129043 270.320771 
L 253.593149 270.149888 
L 258.521359 270.199479 
L 259.92942 270.087141 
L 266.26569 270.434819 
L 269.081811 270.738477 
L 272.249946 271.464169 
L 274.714051 271.723838 
L 277.178157 271.795567 
L 283.162413 272.000618 
L 286.682563 272.756997 
L 288.794653 273.459114 
L 290.202713 273.907645 
L 293.370849 274.591042 
L 294.778909 274.951929 
L 297.595029 275.950564 
L 299.00309 276.563234 
L 302.52324 277.564629 
L 303.9313 277.858375 
L 309.563541 279.500859 
L 310.619586 279.510812 
L 312.379661 279.456616 
L 315.195782 279.475764 
L 316.603842 279.495611 
L 318.011902 279.333439 
L 322.236083 278.238052 
L 323.292128 278.170636 
L 324.348173 278.149697 
L 335.260639 276.678504 
L 339.48482 275.701741 
L 344.765046 273.939278 
L 346.173106 273.552455 
L 348.637211 272.711663 
L 350.749301 272.115417 
L 353.213407 271.509076 
L 357.437587 271.190243 
L 359.549677 270.839034 
L 361.661768 270.490924 
L 367.998039 270.347962 
L 370.462144 270.02983 
L 371.518189 269.89142 
L 373.278264 269.908178 
L 379.26252 270.233401 
L 381.022595 270.15899 
L 383.838716 269.742772 
L 388.062896 269.355012 
L 394.751182 269.592234 
L 397.567302 269.810976 
L 403.903573 268.952593 
L 406.015663 269.135818 
L 409.887829 269.15702 
L 414.464025 269.227363 
L 417.280145 268.884357 
L 419.04022 268.657582 
L 422.208356 268.423263 
L 425.376491 268.172074 
L 426.784551 268.165875 
L 427.136566 268.122048 
L 427.136566 268.122048 
" style="fill:none;stroke:#56b4e9;stroke-linecap:square;stroke-width:2;"/>
   </g>
   <g id="line2d_32">
    <path clip-path="url(#p0f812b1843)" d="M 75.825551 27.873254 
L 77.233611 37.967452 
L 78.641671 46.735202 
L 80.753761 58.323036 
L 82.865852 68.353495 
L 85.329957 78.954363 
L 88.146077 90.078698 
L 90.258168 97.367963 
L 92.370258 103.921698 
L 97.298469 117.652902 
L 100.114589 124.670401 
L 105.0428 135.674755 
L 112.0831 150.538389 
L 114.899221 155.62844 
L 117.011311 159.289753 
L 121.939522 168.471387 
L 124.051612 172.573821 
L 128.275793 180.050896 
L 130.035868 183.239765 
L 133.204003 188.322287 
L 134.612063 190.414868 
L 136.372139 192.532971 
L 139.892289 196.550357 
L 142.004379 198.677148 
L 143.41244 200.313259 
L 146.93259 204.563143 
L 149.04468 207.374339 
L 151.860801 210.75036 
L 155.028936 215.015458 
L 157.141026 217.251474 
L 167.349463 227.25224 
L 168.405508 228.391168 
L 174.037748 234.715176 
L 176.853869 238.021362 
L 179.669989 241.161843 
L 180.374019 241.982354 
L 181.782079 243.5846 
L 186.00626 247.827251 
L 188.470365 249.962269 
L 191.638501 252.761423 
L 193.046561 254.17219 
L 194.806636 255.724703 
L 196.214696 256.78503 
L 197.974772 258.156051 
L 201.846937 261.003126 
L 204.663057 262.466981 
L 209.239253 264.896795 
L 212.407388 266.863326 
L 213.815449 267.415506 
L 217.335599 268.342315 
L 219.447689 268.728617 
L 221.207765 268.766207 
L 226.135975 268.262462 
L 229.304111 267.667236 
L 232.472246 267.431745 
L 234.584336 267.619196 
L 235.640381 267.797588 
L 247.256878 268.814352 
L 248.664938 269.182172 
L 250.072998 269.491698 
L 253.593149 270.243898 
L 257.113299 270.199361 
L 258.169344 270.312256 
L 259.92942 270.28367 
L 262.74554 269.890987 
L 264.1536 269.332681 
L 265.56166 268.786769 
L 268.025766 268.170395 
L 269.785841 268.046055 
L 271.897931 267.708014 
L 275.066067 266.905368 
L 276.122112 266.783012 
L 278.586217 266.651427 
L 281.402337 266.872841 
L 282.810398 266.81866 
L 284.922488 266.859064 
L 290.202713 266.546714 
L 291.610774 266.688898 
L 294.074879 267.041872 
L 298.29906 266.82225 
L 300.41115 266.648438 
L 301.81921 266.485772 
L 303.579285 266.282951 
L 306.043391 265.919245 
L 312.027646 267.048984 
L 313.083691 267.329085 
L 315.195782 267.495673 
L 316.603842 267.470978 
L 319.419962 267.212274 
L 320.476007 267.302012 
L 321.532053 267.487333 
L 323.644143 267.754366 
L 324.700188 267.823166 
L 326.460263 268.102382 
L 328.220338 268.199295 
L 330.684444 268.49227 
L 333.852579 269.393623 
L 337.724745 270.207511 
L 338.78079 270.438236 
L 342.652955 270.657735 
L 344.061015 270.616716 
L 348.989226 270.76904 
L 351.805346 270.338102 
L 353.213407 269.993731 
L 354.973482 269.873865 
L 356.733557 269.653554 
L 357.437587 269.563461 
L 358.845647 269.680765 
L 359.901692 269.773791 
L 361.661768 269.815441 
L 363.421843 270.187783 
L 364.477888 270.356815 
L 366.589978 270.618492 
L 370.814159 271.029924 
L 371.870204 271.120561 
L 373.982294 271.460348 
L 376.4464 271.658016 
L 378.910505 271.876312 
L 381.37461 272.229625 
L 384.542746 272.808137 
L 387.710881 272.745855 
L 389.470956 272.892365 
L 390.879017 273.119686 
L 395.103197 273.315797 
L 397.567302 273.20921 
L 400.735438 273.26546 
L 406.015663 272.393776 
L 408.479769 272.437109 
L 411.647904 272.680358 
L 412.703949 273.058404 
L 414.11201 273.546178 
L 414.81604 273.65346 
L 419.392235 273.595041 
L 421.504325 273.346848 
L 423.968431 273.258837 
L 425.376491 273.070569 
L 426.784551 273.092153 
L 427.136566 273.110527 
L 427.136566 273.110527 
" style="fill:none;stroke:#009e73;stroke-linecap:square;stroke-width:2;"/>
   </g>
   <g id="line2d_33">
    <path clip-path="url(#p0f812b1843)" d="M 75.825551 27.234152 
L 77.585626 37.024989 
L 79.345701 45.519048 
L 81.457791 54.429261 
L 83.921897 63.580543 
L 86.033987 70.543846 
L 88.146077 76.751522 
L 91.314213 85.085775 
L 95.890408 96.459198 
L 100.818619 107.632941 
L 102.930709 111.764688 
L 105.0428 115.345173 
L 110.67504 123.087737 
L 117.363326 131.563912 
L 126.515717 144.031277 
L 128.979823 147.374786 
L 130.387883 149.302223 
L 132.851988 152.966334 
L 134.964078 155.878745 
L 139.188259 161.921386 
L 141.300349 165.067274 
L 148.692665 174.896321 
L 157.845056 188.236906 
L 160.309162 191.574225 
L 165.589387 198.323571 
L 169.461553 203.379969 
L 171.573643 205.982385 
L 173.333718 207.886051 
L 180.022004 214.81017 
L 181.430064 216.226207 
L 190.934471 227.109984 
L 193.398576 229.215696 
L 197.270741 231.972908 
L 199.382832 233.284799 
L 201.846937 234.7156 
L 203.959027 235.957981 
L 205.719103 236.800948 
L 206.775148 237.158321 
L 208.183208 237.573214 
L 211.351343 238.739533 
L 216.631569 241.263314 
L 220.85575 243.54673 
L 222.96784 244.322868 
L 224.727915 244.956053 
L 226.840005 245.94713 
L 230.712171 247.737087 
L 234.936351 250.230215 
L 236.344412 251.338409 
L 238.104487 253.019449 
L 239.864562 254.793356 
L 240.920607 255.629955 
L 242.680682 256.788534 
L 244.088743 257.436766 
L 245.848818 257.990856 
L 249.016953 258.562963 
L 250.425013 258.760358 
L 257.465314 260.158952 
L 260.281435 261.072508 
L 268.025766 262.04808 
L 275.418082 260.895084 
L 280.346292 260.966565 
L 282.106367 260.939835 
L 284.218458 261.016156 
L 285.978533 260.915602 
L 298.651075 260.925514 
L 301.81921 261.519666 
L 308.155481 262.257399 
L 310.619586 262.768285 
L 311.675631 263.046064 
L 317.307872 263.919056 
L 320.828022 264.213119 
L 322.236083 264.065956 
L 325.052203 263.682237 
L 326.460263 263.626655 
L 329.628399 262.975109 
L 330.684444 262.851485 
L 332.092504 262.929794 
L 335.612654 263.665376 
L 340.89288 265.41823 
L 342.30094 265.623037 
L 345.469076 265.891333 
L 348.285196 266.307447 
L 351.101316 266.582654 
L 358.141617 267.522445 
L 360.605723 268.056805 
L 364.477888 268.596815 
L 366.237963 268.918191 
L 367.294008 269.04595 
L 374.334309 269.586793 
L 375.390355 269.67574 
L 376.798415 269.873093 
L 379.26252 269.963779 
L 382.430655 269.755745 
L 383.486701 269.742985 
L 384.894761 269.70258 
L 389.118941 270.080771 
L 391.231032 270.030607 
L 392.287077 269.909881 
L 394.399167 269.487306 
L 404.607603 267.734364 
L 406.719694 267.255716 
L 408.127754 267.137262 
L 413.759994 267.049857 
L 416.576115 266.786866 
L 419.392235 266.659492 
L 421.856341 266.56267 
L 425.376491 266.175841 
L 427.136566 266.243223 
L 427.136566 266.243223 
" style="fill:none;stroke:#f0e442;stroke-linecap:square;stroke-width:2;"/>
   </g>
   <g id="line2d_34">
    <path clip-path="url(#p0f812b1843)" d="M 75.825551 27.260065 
L 77.585626 37.233936 
L 79.345701 45.988986 
L 81.457791 54.969312 
L 83.569882 62.968475 
L 86.738017 74.000173 
L 89.906153 83.809104 
L 92.018243 89.777294 
L 95.186378 97.906463 
L 98.002499 104.186429 
L 100.818619 110.222569 
L 104.338769 117.249993 
L 106.45086 121.142874 
L 112.787131 132.84084 
L 118.067356 142.766373 
L 120.883477 147.4509 
L 123.699597 151.944162 
L 126.867732 157.580301 
L 129.331838 161.863054 
L 131.795943 165.89418 
L 134.612063 170.084086 
L 138.836244 175.649652 
L 140.244304 177.313975 
L 143.41244 181.074734 
L 146.93259 185.209342 
L 151.156771 189.188848 
L 153.620876 191.259534 
L 157.141026 194.393495 
L 161.013192 197.74253 
L 163.125282 199.961756 
L 165.589387 202.412768 
L 169.109538 206.39915 
L 170.869613 208.284296 
L 181.078049 220.187974 
L 186.00626 225.302948 
L 193.750591 232.900653 
L 200.086862 238.36486 
L 201.494922 239.4777 
L 203.607012 240.994309 
L 205.367088 242.374967 
L 206.775148 243.562427 
L 208.887238 245.1388 
L 212.055373 247.342406 
L 219.447689 253.260026 
L 220.503734 254.154716 
L 222.26381 255.478408 
L 226.840005 259.098655 
L 228.248065 260.163156 
L 232.472246 263.440283 
L 234.584336 264.588655 
L 235.992396 265.238632 
L 239.864562 266.819634 
L 242.328667 267.862744 
L 243.032697 268.114544 
L 244.440758 268.806689 
L 245.848818 269.209302 
L 247.608893 269.571854 
L 249.720983 270.124865 
L 251.481058 270.424439 
L 253.593149 270.831988 
L 254.649194 270.828214 
L 256.409269 270.720518 
L 257.817329 270.686182 
L 259.577405 270.659246 
L 261.689495 270.588284 
L 265.913675 270.349785 
L 267.321736 270.266099 
L 269.081811 269.8665 
L 270.841886 269.400367 
L 274.362036 268.223827 
L 276.474127 267.70634 
L 277.882187 267.264572 
L 280.698307 266.623083 
L 288.090623 266.600299 
L 290.554729 266.870079 
L 293.018834 266.931988 
L 294.778909 266.947737 
L 296.890999 266.957899 
L 299.355105 267.184689 
L 300.763165 267.183525 
L 306.395406 267.643364 
L 308.859511 267.612532 
L 309.915556 267.682841 
L 314.139737 267.552858 
L 315.899812 267.627707 
L 319.771977 267.820439 
L 321.180037 267.838627 
L 325.404218 268.268741 
L 330.332429 268.13169 
L 332.444519 268.198738 
L 333.852579 268.395046 
L 335.260639 268.543695 
L 340.89288 268.616164 
L 342.652955 268.80157 
L 345.469076 268.787408 
L 347.581166 268.648674 
L 351.805346 268.221412 
L 352.861392 268.089833 
L 354.621467 267.677571 
L 358.141617 266.87803 
L 360.957738 266.016002 
L 362.365798 265.475404 
L 363.773858 264.926134 
L 365.181918 264.599731 
L 367.294008 264.250837 
L 371.870204 263.57587 
L 373.278264 263.711952 
L 377.502445 264.436248 
L 383.486701 266.072433 
L 384.894761 266.380717 
L 385.950806 266.50905 
L 390.174986 267.370553 
L 399.327378 268.184712 
L 401.439468 268.54335 
L 405.311633 268.888906 
L 407.423724 269.031229 
L 408.479769 268.997904 
L 410.591859 269.276962 
L 416.92813 270.196466 
L 418.33619 270.519414 
L 420.096265 270.56829 
L 427.136566 270.641115 
L 427.136566 270.641115 
" style="fill:none;stroke:#0072b2;stroke-linecap:square;stroke-width:2;"/>
   </g>
   <g id="patch_3">
    <path d="M 58.26 295.98 
L 58.26 14.04 
" style="fill:none;stroke:#bcbcbc;stroke-linecap:square;stroke-linejoin:miter;stroke-width:0.8;"/>
   </g>
   <g id="patch_4">
    <path d="M 444.702117 295.98 
L 444.702117 14.04 
" style="fill:none;stroke:#bcbcbc;stroke-linecap:square;stroke-linejoin:miter;stroke-width:0.8;"/>
   </g>
   <g id="patch_5">
    <path d="M 58.26 295.98 
L 444.702117 295.98 
" style="fill:none;stroke:#bcbcbc;stroke-linecap:square;stroke-linejoin:miter;stroke-width:0.8;"/>
   </g>
   <g id="patch_6">
    <path d="M 58.26 14.04 
L 444.702117 14.04 
" style="fill:none;stroke:#bcbcbc;stroke-linecap:square;stroke-linejoin:miter;stroke-width:0.8;"/>
   </g>
   <g id="legend_1">
    <g id="patch_7">
     <path d="M 307.306336 215.255625 
L 435.602117 215.255625 
Q 438.202117 215.255625 438.202117 212.655625 
L 438.202117 23.14 
Q 438.202117 20.54 435.602117 20.54 
L 307.306336 20.54 
Q 304.706336 20.54 304.706336 23.14 
L 304.706336 212.655625 
Q 304.706336 215.255625 307.306336 215.255625 
z
" style="fill:#eeeeee;opacity:0.8;stroke:#cccccc;stroke-linejoin:miter;stroke-width:0.5;"/>
    </g>
    <g id="line2d_35">
     <path d="M 309.906336 31.067969 
L 335.906336 31.067969 
" style="fill:none;stroke:#348abd;stroke-linecap:square;stroke-width:2;"/>
    </g>
    <g id="line2d_36"/>
    <g id="text_15">
     <!-- chain 1 (57) -->
     <defs>
      <path d="M 54.890625 33.015625 
L 54.890625 0 
L 45.90625 0 
L 45.90625 32.71875 
Q 45.90625 40.484375 42.875 44.328125 
Q 39.84375 48.1875 33.796875 48.1875 
Q 26.515625 48.1875 22.3125 43.546875 
Q 18.109375 38.921875 18.109375 30.90625 
L 18.109375 0 
L 9.078125 0 
L 9.078125 75.984375 
L 18.109375 75.984375 
L 18.109375 46.1875 
Q 21.34375 51.125 25.703125 53.5625 
Q 30.078125 56 35.796875 56 
Q 45.21875 56 50.046875 50.171875 
Q 54.890625 44.34375 54.890625 33.015625 
z
" id="DejaVuSans-68"/>
      <path id="DejaVuSans-20"/>
      <path d="M 31 75.875 
Q 24.46875 64.65625 21.28125 53.65625 
Q 18.109375 42.671875 18.109375 31.390625 
Q 18.109375 20.125 21.3125 9.0625 
Q 24.515625 -2 31 -13.1875 
L 23.1875 -13.1875 
Q 15.875 -1.703125 12.234375 9.375 
Q 8.59375 20.453125 8.59375 31.390625 
Q 8.59375 42.28125 12.203125 53.3125 
Q 15.828125 64.359375 23.1875 75.875 
z
" id="DejaVuSans-28"/>
      <path d="M 10.796875 72.90625 
L 49.515625 72.90625 
L 49.515625 64.59375 
L 19.828125 64.59375 
L 19.828125 46.734375 
Q 21.96875 47.46875 24.109375 47.828125 
Q 26.265625 48.1875 28.421875 48.1875 
Q 40.625 48.1875 47.75 41.5 
Q 54.890625 34.8125 54.890625 23.390625 
Q 54.890625 11.625 47.5625 5.09375 
Q 40.234375 -1.421875 26.90625 -1.421875 
Q 22.3125 -1.421875 17.546875 -0.640625 
Q 12.796875 0.140625 7.71875 1.703125 
L 7.71875 11.625 
Q 12.109375 9.234375 16.796875 8.0625 
Q 21.484375 6.890625 26.703125 6.890625 
Q 35.15625 6.890625 40.078125 11.328125 
Q 45.015625 15.765625 45.015625 23.390625 
Q 45.015625 31 40.078125 35.4375 
Q 35.15625 39.890625 26.703125 39.890625 
Q 22.75 39.890625 18.8125 39.015625 
Q 14.890625 38.140625 10.796875 36.28125 
z
" id="DejaVuSans-35"/>
      <path d="M 8.203125 72.90625 
L 55.078125 72.90625 
L 55.078125 68.703125 
L 28.609375 0 
L 18.3125 0 
L 43.21875 64.59375 
L 8.203125 64.59375 
z
" id="DejaVuSans-37"/>
      <path d="M 8.015625 75.875 
L 15.828125 75.875 
Q 23.140625 64.359375 26.78125 53.3125 
Q 30.421875 42.28125 30.421875 31.390625 
Q 30.421875 20.453125 26.78125 9.375 
Q 23.140625 -1.703125 15.828125 -13.1875 
L 8.015625 -13.1875 
Q 14.5 -2 17.703125 9.0625 
Q 20.90625 20.125 20.90625 31.390625 
Q 20.90625 42.671875 17.703125 53.65625 
Q 14.5 64.65625 8.015625 75.875 
z
" id="DejaVuSans-29"/>
     </defs>
     <g transform="translate(346.306336 35.617969)scale(0.13 -0.13)">
      <use xlink:href="#DejaVuSans-63"/>
      <use x="54.980469" xlink:href="#DejaVuSans-68"/>
      <use x="118.359375" xlink:href="#DejaVuSans-61"/>
      <use x="179.638672" xlink:href="#DejaVuSans-69"/>
      <use x="207.421875" xlink:href="#DejaVuSans-6e"/>
      <use x="270.800781" xlink:href="#DejaVuSans-20"/>
      <use x="302.587891" xlink:href="#DejaVuSans-31"/>
      <use x="366.210938" xlink:href="#DejaVuSans-20"/>
      <use x="397.998047" xlink:href="#DejaVuSans-28"/>
      <use x="437.011719" xlink:href="#DejaVuSans-35"/>
      <use x="500.634766" xlink:href="#DejaVuSans-37"/>
      <use x="564.257812" xlink:href="#DejaVuSans-29"/>
     </g>
    </g>
    <g id="line2d_37">
     <path d="M 309.906336 50.149531 
L 335.906336 50.149531 
" style="fill:none;stroke:#a60628;stroke-linecap:square;stroke-width:2;"/>
    </g>
    <g id="line2d_38"/>
    <g id="text_16">
     <!-- chain 2 (45) -->
     <g transform="translate(346.306336 54.699531)scale(0.13 -0.13)">
      <use xlink:href="#DejaVuSans-63"/>
      <use x="54.980469" xlink:href="#DejaVuSans-68"/>
      <use x="118.359375" xlink:href="#DejaVuSans-61"/>
      <use x="179.638672" xlink:href="#DejaVuSans-69"/>
      <use x="207.421875" xlink:href="#DejaVuSans-6e"/>
      <use x="270.800781" xlink:href="#DejaVuSans-20"/>
      <use x="302.587891" xlink:href="#DejaVuSans-32"/>
      <use x="366.210938" xlink:href="#DejaVuSans-20"/>
      <use x="397.998047" xlink:href="#DejaVuSans-28"/>
      <use x="437.011719" xlink:href="#DejaVuSans-34"/>
      <use x="500.634766" xlink:href="#DejaVuSans-35"/>
      <use x="564.257812" xlink:href="#DejaVuSans-29"/>
     </g>
    </g>
    <g id="line2d_39">
     <path d="M 309.906336 69.231094 
L 335.906336 69.231094 
" style="fill:none;stroke:#7a68a6;stroke-linecap:square;stroke-width:2;"/>
    </g>
    <g id="line2d_40"/>
    <g id="text_17">
     <!-- chain 3 (59) -->
     <defs>
      <path d="M 40.578125 39.3125 
Q 47.65625 37.796875 51.625 33 
Q 55.609375 28.21875 55.609375 21.1875 
Q 55.609375 10.40625 48.1875 4.484375 
Q 40.765625 -1.421875 27.09375 -1.421875 
Q 22.515625 -1.421875 17.65625 -0.515625 
Q 12.796875 0.390625 7.625 2.203125 
L 7.625 11.71875 
Q 11.71875 9.328125 16.59375 8.109375 
Q 21.484375 6.890625 26.8125 6.890625 
Q 36.078125 6.890625 40.9375 10.546875 
Q 45.796875 14.203125 45.796875 21.1875 
Q 45.796875 27.640625 41.28125 31.265625 
Q 36.765625 34.90625 28.71875 34.90625 
L 20.21875 34.90625 
L 20.21875 43.015625 
L 29.109375 43.015625 
Q 36.375 43.015625 40.234375 45.921875 
Q 44.09375 48.828125 44.09375 54.296875 
Q 44.09375 59.90625 40.109375 62.90625 
Q 36.140625 65.921875 28.71875 65.921875 
Q 24.65625 65.921875 20.015625 65.03125 
Q 15.375 64.15625 9.8125 62.3125 
L 9.8125 71.09375 
Q 15.4375 72.65625 20.34375 73.4375 
Q 25.25 74.21875 29.59375 74.21875 
Q 40.828125 74.21875 47.359375 69.109375 
Q 53.90625 64.015625 53.90625 55.328125 
Q 53.90625 49.265625 50.4375 45.09375 
Q 46.96875 40.921875 40.578125 39.3125 
z
" id="DejaVuSans-33"/>
      <path d="M 10.984375 1.515625 
L 10.984375 10.5 
Q 14.703125 8.734375 18.5 7.8125 
Q 22.3125 6.890625 25.984375 6.890625 
Q 35.75 6.890625 40.890625 13.453125 
Q 46.046875 20.015625 46.78125 33.40625 
Q 43.953125 29.203125 39.59375 26.953125 
Q 35.25 24.703125 29.984375 24.703125 
Q 19.046875 24.703125 12.671875 31.3125 
Q 6.296875 37.9375 6.296875 49.421875 
Q 6.296875 60.640625 12.9375 67.421875 
Q 19.578125 74.21875 30.609375 74.21875 
Q 43.265625 74.21875 49.921875 64.515625 
Q 56.59375 54.828125 56.59375 36.375 
Q 56.59375 19.140625 48.40625 8.859375 
Q 40.234375 -1.421875 26.421875 -1.421875 
Q 22.703125 -1.421875 18.890625 -0.6875 
Q 15.09375 0.046875 10.984375 1.515625 
z
M 30.609375 32.421875 
Q 37.25 32.421875 41.125 36.953125 
Q 45.015625 41.5 45.015625 49.421875 
Q 45.015625 57.28125 41.125 61.84375 
Q 37.25 66.40625 30.609375 66.40625 
Q 23.96875 66.40625 20.09375 61.84375 
Q 16.21875 57.28125 16.21875 49.421875 
Q 16.21875 41.5 20.09375 36.953125 
Q 23.96875 32.421875 30.609375 32.421875 
z
" id="DejaVuSans-39"/>
     </defs>
     <g transform="translate(346.306336 73.781094)scale(0.13 -0.13)">
      <use xlink:href="#DejaVuSans-63"/>
      <use x="54.980469" xlink:href="#DejaVuSans-68"/>
      <use x="118.359375" xlink:href="#DejaVuSans-61"/>
      <use x="179.638672" xlink:href="#DejaVuSans-69"/>
      <use x="207.421875" xlink:href="#DejaVuSans-6e"/>
      <use x="270.800781" xlink:href="#DejaVuSans-20"/>
      <use x="302.587891" xlink:href="#DejaVuSans-33"/>
      <use x="366.210938" xlink:href="#DejaVuSans-20"/>
      <use x="397.998047" xlink:href="#DejaVuSans-28"/>
      <use x="437.011719" xlink:href="#DejaVuSans-35"/>
      <use x="500.634766" xlink:href="#DejaVuSans-39"/>
      <use x="564.257812" xlink:href="#DejaVuSans-29"/>
     </g>
    </g>
    <g id="line2d_41">
     <path d="M 309.906336 88.312656 
L 335.906336 88.312656 
" style="fill:none;stroke:#467821;stroke-linecap:square;stroke-width:2;"/>
    </g>
    <g id="line2d_42"/>
    <g id="text_18">
     <!-- chain 4 (35) -->
     <g transform="translate(346.306336 92.862656)scale(0.13 -0.13)">
      <use xlink:href="#DejaVuSans-63"/>
      <use x="54.980469" xlink:href="#DejaVuSans-68"/>
      <use x="118.359375" xlink:href="#DejaVuSans-61"/>
      <use x="179.638672" xlink:href="#DejaVuSans-69"/>
      <use x="207.421875" xlink:href="#DejaVuSans-6e"/>
      <use x="270.800781" xlink:href="#DejaVuSans-20"/>
      <use x="302.587891" xlink:href="#DejaVuSans-34"/>
      <use x="366.210938" xlink:href="#DejaVuSans-20"/>
      <use x="397.998047" xlink:href="#DejaVuSans-28"/>
      <use x="437.011719" xlink:href="#DejaVuSans-33"/>
      <use x="500.634766" xlink:href="#DejaVuSans-35"/>
      <use x="564.257812" xlink:href="#DejaVuSans-29"/>
     </g>
    </g>
    <g id="line2d_43">
     <path d="M 309.906336 107.394219 
L 335.906336 107.394219 
" style="fill:none;stroke:#d55e00;stroke-linecap:square;stroke-width:2;"/>
    </g>
    <g id="line2d_44"/>
    <g id="text_19">
     <!-- chain 5 (59) -->
     <g transform="translate(346.306336 111.944219)scale(0.13 -0.13)">
      <use xlink:href="#DejaVuSans-63"/>
      <use x="54.980469" xlink:href="#DejaVuSans-68"/>
      <use x="118.359375" xlink:href="#DejaVuSans-61"/>
      <use x="179.638672" xlink:href="#DejaVuSans-69"/>
      <use x="207.421875" xlink:href="#DejaVuSans-6e"/>
      <use x="270.800781" xlink:href="#DejaVuSans-20"/>
      <use x="302.587891" xlink:href="#DejaVuSans-35"/>
      <use x="366.210938" xlink:href="#DejaVuSans-20"/>
      <use x="397.998047" xlink:href="#DejaVuSans-28"/>
      <use x="437.011719" xlink:href="#DejaVuSans-35"/>
      <use x="500.634766" xlink:href="#DejaVuSans-39"/>
      <use x="564.257812" xlink:href="#DejaVuSans-29"/>
     </g>
    </g>
    <g id="line2d_45">
     <path d="M 309.906336 126.475781 
L 335.906336 126.475781 
" style="fill:none;stroke:#cc79a7;stroke-linecap:square;stroke-width:2;"/>
    </g>
    <g id="line2d_46"/>
    <g id="text_20">
     <!-- chain 6 (62) -->
     <g transform="translate(346.306336 131.025781)scale(0.13 -0.13)">
      <use xlink:href="#DejaVuSans-63"/>
      <use x="54.980469" xlink:href="#DejaVuSans-68"/>
      <use x="118.359375" xlink:href="#DejaVuSans-61"/>
      <use x="179.638672" xlink:href="#DejaVuSans-69"/>
      <use x="207.421875" xlink:href="#DejaVuSans-6e"/>
      <use x="270.800781" xlink:href="#DejaVuSans-20"/>
      <use x="302.587891" xlink:href="#DejaVuSans-36"/>
      <use x="366.210938" xlink:href="#DejaVuSans-20"/>
      <use x="397.998047" xlink:href="#DejaVuSans-28"/>
      <use x="437.011719" xlink:href="#DejaVuSans-36"/>
      <use x="500.634766" xlink:href="#DejaVuSans-32"/>
      <use x="564.257812" xlink:href="#DejaVuSans-29"/>
     </g>
    </g>
    <g id="line2d_47">
     <path d="M 309.906336 145.557344 
L 335.906336 145.557344 
" style="fill:none;stroke:#56b4e9;stroke-linecap:square;stroke-width:2;"/>
    </g>
    <g id="line2d_48"/>
    <g id="text_21">
     <!-- chain 7 (51) -->
     <g transform="translate(346.306336 150.107344)scale(0.13 -0.13)">
      <use xlink:href="#DejaVuSans-63"/>
      <use x="54.980469" xlink:href="#DejaVuSans-68"/>
      <use x="118.359375" xlink:href="#DejaVuSans-61"/>
      <use x="179.638672" xlink:href="#DejaVuSans-69"/>
      <use x="207.421875" xlink:href="#DejaVuSans-6e"/>
      <use x="270.800781" xlink:href="#DejaVuSans-20"/>
      <use x="302.587891" xlink:href="#DejaVuSans-37"/>
      <use x="366.210938" xlink:href="#DejaVuSans-20"/>
      <use x="397.998047" xlink:href="#DejaVuSans-28"/>
      <use x="437.011719" xlink:href="#DejaVuSans-35"/>
      <use x="500.634766" xlink:href="#DejaVuSans-31"/>
      <use x="564.257812" xlink:href="#DejaVuSans-29"/>
     </g>
    </g>
    <g id="line2d_49">
     <path d="M 309.906336 164.638906 
L 335.906336 164.638906 
" style="fill:none;stroke:#009e73;stroke-linecap:square;stroke-width:2;"/>
    </g>
    <g id="line2d_50"/>
    <g id="text_22">
     <!-- chain 8 (49) -->
     <g transform="translate(346.306336 169.188906)scale(0.13 -0.13)">
      <use xlink:href="#DejaVuSans-63"/>
      <use x="54.980469" xlink:href="#DejaVuSans-68"/>
      <use x="118.359375" xlink:href="#DejaVuSans-61"/>
      <use x="179.638672" xlink:href="#DejaVuSans-69"/>
      <use x="207.421875" xlink:href="#DejaVuSans-6e"/>
      <use x="270.800781" xlink:href="#DejaVuSans-20"/>
      <use x="302.587891" xlink:href="#DejaVuSans-38"/>
      <use x="366.210938" xlink:href="#DejaVuSans-20"/>
      <use x="397.998047" xlink:href="#DejaVuSans-28"/>
      <use x="437.011719" xlink:href="#DejaVuSans-34"/>
      <use x="500.634766" xlink:href="#DejaVuSans-39"/>
      <use x="564.257812" xlink:href="#DejaVuSans-29"/>
     </g>
    </g>
    <g id="line2d_51">
     <path d="M 309.906336 183.720469 
L 335.906336 183.720469 
" style="fill:none;stroke:#f0e442;stroke-linecap:square;stroke-width:2;"/>
    </g>
    <g id="line2d_52"/>
    <g id="text_23">
     <!-- chain 9 (34) -->
     <g transform="translate(346.306336 188.270469)scale(0.13 -0.13)">
      <use xlink:href="#DejaVuSans-63"/>
      <use x="54.980469" xlink:href="#DejaVuSans-68"/>
      <use x="118.359375" xlink:href="#DejaVuSans-61"/>
      <use x="179.638672" xlink:href="#DejaVuSans-69"/>
      <use x="207.421875" xlink:href="#DejaVuSans-6e"/>
      <use x="270.800781" xlink:href="#DejaVuSans-20"/>
      <use x="302.587891" xlink:href="#DejaVuSans-39"/>
      <use x="366.210938" xlink:href="#DejaVuSans-20"/>
      <use x="397.998047" xlink:href="#DejaVuSans-28"/>
      <use x="437.011719" xlink:href="#DejaVuSans-33"/>
      <use x="500.634766" xlink:href="#DejaVuSans-34"/>
      <use x="564.257812" xlink:href="#DejaVuSans-29"/>
     </g>
    </g>
    <g id="line2d_53">
     <path d="M 309.906336 202.802031 
L 335.906336 202.802031 
" style="fill:none;stroke:#0072b2;stroke-linecap:square;stroke-width:2;"/>
    </g>
    <g id="line2d_54"/>
    <g id="text_24">
     <!-- chain 10 (38) -->
     <g transform="translate(346.306336 207.352031)scale(0.13 -0.13)">
      <use xlink:href="#DejaVuSans-63"/>
      <use x="54.980469" xlink:href="#DejaVuSans-68"/>
      <use x="118.359375" xlink:href="#DejaVuSans-61"/>
      <use x="179.638672" xlink:href="#DejaVuSans-69"/>
      <use x="207.421875" xlink:href="#DejaVuSans-6e"/>
      <use x="270.800781" xlink:href="#DejaVuSans-20"/>
      <use x="302.587891" xlink:href="#DejaVuSans-31"/>
      <use x="366.210938" xlink:href="#DejaVuSans-30"/>
      <use x="429.833984" xlink:href="#DejaVuSans-20"/>
      <use x="461.621094" xlink:href="#DejaVuSans-28"/>
      <use x="500.634766" xlink:href="#DejaVuSans-33"/>
      <use x="564.257812" xlink:href="#DejaVuSans-38"/>
      <use x="627.880859" xlink:href="#DejaVuSans-29"/>
     </g>
    </g>
   </g>
  </g>
 </g>
 <defs>
  <clipPath id="p0f812b1843">
   <rect height="281.94" width="386.442117" x="58.26" y="14.04"/>
  </clipPath>
 </defs>
</svg>
