<?xml version="1.0" encoding="utf-8" standalone="no"?>
<!DOCTYPE svg PUBLIC "-//W3C//DTD SVG 1.1//EN"
  "http://www.w3.org/Graphics/SVG/1.1/DTD/svg11.dtd">
<!-- Created with matplotlib (http://matplotlib.org/) -->
<svg height="345.6pt" version="1.1" viewBox="0 0 460.8 345.6" width="460.8pt" xmlns="http://www.w3.org/2000/svg" xmlns:xlink="http://www.w3.org/1999/xlink">
 <defs>
  <style type="text/css">
*{stroke-linecap:butt;stroke-linejoin:round;}
  </style>
 </defs>
 <g id="figure_1">
  <g id="patch_1">
   <path d="M 0 345.6 
L 460.8 345.6 
L 460.8 0 
L 0 0 
z
" style="fill:#ffffff;"/>
  </g>
  <g id="axes_1">
   <g id="patch_2">
    <path d="M 62.49 295.98 
L 446.76 295.98 
L 446.76 14.04 
L 62.49 14.04 
z
" style="fill:#eeeeee;"/>
   </g>
   <g id="matplotlib.axis_1">
    <g id="xtick_1">
     <g id="line2d_1">
      <path clip-path="url(#p3160d2f44e)" d="M 79.956818 295.98 
L 79.956818 14.04 
" style="fill:none;stroke:#b2b2b2;stroke-dasharray:1.85,0.8;stroke-dashoffset:0;stroke-width:0.5;"/>
     </g>
     <g id="line2d_2">
      <defs>
       <path d="M 0 0 
L 0 -3.5 
" id="maa660be25e" style="stroke:#000000;stroke-width:0.8;"/>
      </defs>
      <g>
       <use style="stroke:#000000;stroke-width:0.8;" x="79.956818" xlink:href="#maa660be25e" y="295.98"/>
      </g>
     </g>
     <g id="text_1">
      <!-- 0 -->
      <defs>
       <path d="M 31.78125 66.40625 
Q 24.171875 66.40625 20.328125 58.90625 
Q 16.5 51.421875 16.5 36.375 
Q 16.5 21.390625 20.328125 13.890625 
Q 24.171875 6.390625 31.78125 6.390625 
Q 39.453125 6.390625 43.28125 13.890625 
Q 47.125 21.390625 47.125 36.375 
Q 47.125 51.421875 43.28125 58.90625 
Q 39.453125 66.40625 31.78125 66.40625 
z
M 31.78125 74.21875 
Q 44.046875 74.21875 50.515625 64.515625 
Q 56.984375 54.828125 56.984375 36.375 
Q 56.984375 17.96875 50.515625 8.265625 
Q 44.046875 -1.421875 31.78125 -1.421875 
Q 19.53125 -1.421875 13.0625 8.265625 
Q 6.59375 17.96875 6.59375 36.375 
Q 6.59375 54.828125 13.0625 64.515625 
Q 19.53125 74.21875 31.78125 74.21875 
z
" id="DejaVuSans-30"/>
      </defs>
      <g transform="translate(75.503068 310.117812)scale(0.14 -0.14)">
       <use xlink:href="#DejaVuSans-30"/>
      </g>
     </g>
    </g>
    <g id="xtick_2">
     <g id="line2d_3">
      <path clip-path="url(#p3160d2f44e)" d="M 135.93124 295.98 
L 135.93124 14.04 
" style="fill:none;stroke:#b2b2b2;stroke-dasharray:1.85,0.8;stroke-dashoffset:0;stroke-width:0.5;"/>
     </g>
     <g id="line2d_4">
      <g>
       <use style="stroke:#000000;stroke-width:0.8;" x="135.93124" xlink:href="#maa660be25e" y="295.98"/>
      </g>
     </g>
     <g id="text_2">
      <!-- 1000 -->
      <defs>
       <path d="M 12.40625 8.296875 
L 28.515625 8.296875 
L 28.515625 63.921875 
L 10.984375 60.40625 
L 10.984375 69.390625 
L 28.421875 72.90625 
L 38.28125 72.90625 
L 38.28125 8.296875 
L 54.390625 8.296875 
L 54.390625 0 
L 12.40625 0 
z
" id="DejaVuSans-31"/>
      </defs>
      <g transform="translate(118.11624 310.117812)scale(0.14 -0.14)">
       <use xlink:href="#DejaVuSans-31"/>
       <use x="63.623047" xlink:href="#DejaVuSans-30"/>
       <use x="127.246094" xlink:href="#DejaVuSans-30"/>
       <use x="190.869141" xlink:href="#DejaVuSans-30"/>
      </g>
     </g>
    </g>
    <g id="xtick_3">
     <g id="line2d_5">
      <path clip-path="url(#p3160d2f44e)" d="M 191.905661 295.98 
L 191.905661 14.04 
" style="fill:none;stroke:#b2b2b2;stroke-dasharray:1.85,0.8;stroke-dashoffset:0;stroke-width:0.5;"/>
     </g>
     <g id="line2d_6">
      <g>
       <use style="stroke:#000000;stroke-width:0.8;" x="191.905661" xlink:href="#maa660be25e" y="295.98"/>
      </g>
     </g>
     <g id="text_3">
      <!-- 2000 -->
      <defs>
       <path d="M 19.1875 8.296875 
L 53.609375 8.296875 
L 53.609375 0 
L 7.328125 0 
L 7.328125 8.296875 
Q 12.9375 14.109375 22.625 23.890625 
Q 32.328125 33.6875 34.8125 36.53125 
Q 39.546875 41.84375 41.421875 45.53125 
Q 43.3125 49.21875 43.3125 52.78125 
Q 43.3125 58.59375 39.234375 62.25 
Q 35.15625 65.921875 28.609375 65.921875 
Q 23.96875 65.921875 18.8125 64.3125 
Q 13.671875 62.703125 7.8125 59.421875 
L 7.8125 69.390625 
Q 13.765625 71.78125 18.9375 73 
Q 24.125 74.21875 28.421875 74.21875 
Q 39.75 74.21875 46.484375 68.546875 
Q 53.21875 62.890625 53.21875 53.421875 
Q 53.21875 48.921875 51.53125 44.890625 
Q 49.859375 40.875 45.40625 35.40625 
Q 44.1875 33.984375 37.640625 27.21875 
Q 31.109375 20.453125 19.1875 8.296875 
z
" id="DejaVuSans-32"/>
      </defs>
      <g transform="translate(174.090661 310.117812)scale(0.14 -0.14)">
       <use xlink:href="#DejaVuSans-32"/>
       <use x="63.623047" xlink:href="#DejaVuSans-30"/>
       <use x="127.246094" xlink:href="#DejaVuSans-30"/>
       <use x="190.869141" xlink:href="#DejaVuSans-30"/>
      </g>
     </g>
    </g>
    <g id="xtick_4">
     <g id="line2d_7">
      <path clip-path="url(#p3160d2f44e)" d="M 247.880082 295.98 
L 247.880082 14.04 
" style="fill:none;stroke:#b2b2b2;stroke-dasharray:1.85,0.8;stroke-dashoffset:0;stroke-width:0.5;"/>
     </g>
     <g id="line2d_8">
      <g>
       <use style="stroke:#000000;stroke-width:0.8;" x="247.880082" xlink:href="#maa660be25e" y="295.98"/>
      </g>
     </g>
     <g id="text_4">
      <!-- 3000 -->
      <defs>
       <path d="M 40.578125 39.3125 
Q 47.65625 37.796875 51.625 33 
Q 55.609375 28.21875 55.609375 21.1875 
Q 55.609375 10.40625 48.1875 4.484375 
Q 40.765625 -1.421875 27.09375 -1.421875 
Q 22.515625 -1.421875 17.65625 -0.515625 
Q 12.796875 0.390625 7.625 2.203125 
L 7.625 11.71875 
Q 11.71875 9.328125 16.59375 8.109375 
Q 21.484375 6.890625 26.8125 6.890625 
Q 36.078125 6.890625 40.9375 10.546875 
Q 45.796875 14.203125 45.796875 21.1875 
Q 45.796875 27.640625 41.28125 31.265625 
Q 36.765625 34.90625 28.71875 34.90625 
L 20.21875 34.90625 
L 20.21875 43.015625 
L 29.109375 43.015625 
Q 36.375 43.015625 40.234375 45.921875 
Q 44.09375 48.828125 44.09375 54.296875 
Q 44.09375 59.90625 40.109375 62.90625 
Q 36.140625 65.921875 28.71875 65.921875 
Q 24.65625 65.921875 20.015625 65.03125 
Q 15.375 64.15625 9.8125 62.3125 
L 9.8125 71.09375 
Q 15.4375 72.65625 20.34375 73.4375 
Q 25.25 74.21875 29.59375 74.21875 
Q 40.828125 74.21875 47.359375 69.109375 
Q 53.90625 64.015625 53.90625 55.328125 
Q 53.90625 49.265625 50.4375 45.09375 
Q 46.96875 40.921875 40.578125 39.3125 
z
" id="DejaVuSans-33"/>
      </defs>
      <g transform="translate(230.065082 310.117812)scale(0.14 -0.14)">
       <use xlink:href="#DejaVuSans-33"/>
       <use x="63.623047" xlink:href="#DejaVuSans-30"/>
       <use x="127.246094" xlink:href="#DejaVuSans-30"/>
       <use x="190.869141" xlink:href="#DejaVuSans-30"/>
      </g>
     </g>
    </g>
    <g id="xtick_5">
     <g id="line2d_9">
      <path clip-path="url(#p3160d2f44e)" d="M 303.854504 295.98 
L 303.854504 14.04 
" style="fill:none;stroke:#b2b2b2;stroke-dasharray:1.85,0.8;stroke-dashoffset:0;stroke-width:0.5;"/>
     </g>
     <g id="line2d_10">
      <g>
       <use style="stroke:#000000;stroke-width:0.8;" x="303.854504" xlink:href="#maa660be25e" y="295.98"/>
      </g>
     </g>
     <g id="text_5">
      <!-- 4000 -->
      <defs>
       <path d="M 37.796875 64.3125 
L 12.890625 25.390625 
L 37.796875 25.390625 
z
M 35.203125 72.90625 
L 47.609375 72.90625 
L 47.609375 25.390625 
L 58.015625 25.390625 
L 58.015625 17.1875 
L 47.609375 17.1875 
L 47.609375 0 
L 37.796875 0 
L 37.796875 17.1875 
L 4.890625 17.1875 
L 4.890625 26.703125 
z
" id="DejaVuSans-34"/>
      </defs>
      <g transform="translate(286.039504 310.117812)scale(0.14 -0.14)">
       <use xlink:href="#DejaVuSans-34"/>
       <use x="63.623047" xlink:href="#DejaVuSans-30"/>
       <use x="127.246094" xlink:href="#DejaVuSans-30"/>
       <use x="190.869141" xlink:href="#DejaVuSans-30"/>
      </g>
     </g>
    </g>
    <g id="xtick_6">
     <g id="line2d_11">
      <path clip-path="url(#p3160d2f44e)" d="M 359.828925 295.98 
L 359.828925 14.04 
" style="fill:none;stroke:#b2b2b2;stroke-dasharray:1.85,0.8;stroke-dashoffset:0;stroke-width:0.5;"/>
     </g>
     <g id="line2d_12">
      <g>
       <use style="stroke:#000000;stroke-width:0.8;" x="359.828925" xlink:href="#maa660be25e" y="295.98"/>
      </g>
     </g>
     <g id="text_6">
      <!-- 5000 -->
      <defs>
       <path d="M 10.796875 72.90625 
L 49.515625 72.90625 
L 49.515625 64.59375 
L 19.828125 64.59375 
L 19.828125 46.734375 
Q 21.96875 47.46875 24.109375 47.828125 
Q 26.265625 48.1875 28.421875 48.1875 
Q 40.625 48.1875 47.75 41.5 
Q 54.890625 34.8125 54.890625 23.390625 
Q 54.890625 11.625 47.5625 5.09375 
Q 40.234375 -1.421875 26.90625 -1.421875 
Q 22.3125 -1.421875 17.546875 -0.640625 
Q 12.796875 0.140625 7.71875 1.703125 
L 7.71875 11.625 
Q 12.109375 9.234375 16.796875 8.0625 
Q 21.484375 6.890625 26.703125 6.890625 
Q 35.15625 6.890625 40.078125 11.328125 
Q 45.015625 15.765625 45.015625 23.390625 
Q 45.015625 31 40.078125 35.4375 
Q 35.15625 39.890625 26.703125 39.890625 
Q 22.75 39.890625 18.8125 39.015625 
Q 14.890625 38.140625 10.796875 36.28125 
z
" id="DejaVuSans-35"/>
      </defs>
      <g transform="translate(342.013925 310.117812)scale(0.14 -0.14)">
       <use xlink:href="#DejaVuSans-35"/>
       <use x="63.623047" xlink:href="#DejaVuSans-30"/>
       <use x="127.246094" xlink:href="#DejaVuSans-30"/>
       <use x="190.869141" xlink:href="#DejaVuSans-30"/>
      </g>
     </g>
    </g>
    <g id="xtick_7">
     <g id="line2d_13">
      <path clip-path="url(#p3160d2f44e)" d="M 415.803346 295.98 
L 415.803346 14.04 
" style="fill:none;stroke:#b2b2b2;stroke-dasharray:1.85,0.8;stroke-dashoffset:0;stroke-width:0.5;"/>
     </g>
     <g id="line2d_14">
      <g>
       <use style="stroke:#000000;stroke-width:0.8;" x="415.803346" xlink:href="#maa660be25e" y="295.98"/>
      </g>
     </g>
     <g id="text_7">
      <!-- 6000 -->
      <defs>
       <path d="M 33.015625 40.375 
Q 26.375 40.375 22.484375 35.828125 
Q 18.609375 31.296875 18.609375 23.390625 
Q 18.609375 15.53125 22.484375 10.953125 
Q 26.375 6.390625 33.015625 6.390625 
Q 39.65625 6.390625 43.53125 10.953125 
Q 47.40625 15.53125 47.40625 23.390625 
Q 47.40625 31.296875 43.53125 35.828125 
Q 39.65625 40.375 33.015625 40.375 
z
M 52.59375 71.296875 
L 52.59375 62.3125 
Q 48.875 64.0625 45.09375 64.984375 
Q 41.3125 65.921875 37.59375 65.921875 
Q 27.828125 65.921875 22.671875 59.328125 
Q 17.53125 52.734375 16.796875 39.40625 
Q 19.671875 43.65625 24.015625 45.921875 
Q 28.375 48.1875 33.59375 48.1875 
Q 44.578125 48.1875 50.953125 41.515625 
Q 57.328125 34.859375 57.328125 23.390625 
Q 57.328125 12.15625 50.6875 5.359375 
Q 44.046875 -1.421875 33.015625 -1.421875 
Q 20.359375 -1.421875 13.671875 8.265625 
Q 6.984375 17.96875 6.984375 36.375 
Q 6.984375 53.65625 15.1875 63.9375 
Q 23.390625 74.21875 37.203125 74.21875 
Q 40.921875 74.21875 44.703125 73.484375 
Q 48.484375 72.75 52.59375 71.296875 
z
" id="DejaVuSans-36"/>
      </defs>
      <g transform="translate(397.988346 310.117812)scale(0.14 -0.14)">
       <use xlink:href="#DejaVuSans-36"/>
       <use x="63.623047" xlink:href="#DejaVuSans-30"/>
       <use x="127.246094" xlink:href="#DejaVuSans-30"/>
       <use x="190.869141" xlink:href="#DejaVuSans-30"/>
      </g>
     </g>
    </g>
    <g id="text_8">
     <!-- Iterations -->
     <defs>
      <path d="M 9.8125 72.90625 
L 19.671875 72.90625 
L 19.671875 0 
L 9.8125 0 
z
" id="DejaVuSans-49"/>
      <path d="M 18.3125 70.21875 
L 18.3125 54.6875 
L 36.8125 54.6875 
L 36.8125 47.703125 
L 18.3125 47.703125 
L 18.3125 18.015625 
Q 18.3125 11.328125 20.140625 9.421875 
Q 21.96875 7.515625 27.59375 7.515625 
L 36.8125 7.515625 
L 36.8125 0 
L 27.59375 0 
Q 17.1875 0 13.234375 3.875 
Q 9.28125 7.765625 9.28125 18.015625 
L 9.28125 47.703125 
L 2.6875 47.703125 
L 2.6875 54.6875 
L 9.28125 54.6875 
L 9.28125 70.21875 
z
" id="DejaVuSans-74"/>
      <path d="M 56.203125 29.59375 
L 56.203125 25.203125 
L 14.890625 25.203125 
Q 15.484375 15.921875 20.484375 11.0625 
Q 25.484375 6.203125 34.421875 6.203125 
Q 39.59375 6.203125 44.453125 7.46875 
Q 49.3125 8.734375 54.109375 11.28125 
L 54.109375 2.78125 
Q 49.265625 0.734375 44.1875 -0.34375 
Q 39.109375 -1.421875 33.890625 -1.421875 
Q 20.796875 -1.421875 13.15625 6.1875 
Q 5.515625 13.8125 5.515625 26.8125 
Q 5.515625 40.234375 12.765625 48.109375 
Q 20.015625 56 32.328125 56 
Q 43.359375 56 49.78125 48.890625 
Q 56.203125 41.796875 56.203125 29.59375 
z
M 47.21875 32.234375 
Q 47.125 39.59375 43.09375 43.984375 
Q 39.0625 48.390625 32.421875 48.390625 
Q 24.90625 48.390625 20.390625 44.140625 
Q 15.875 39.890625 15.1875 32.171875 
z
" id="DejaVuSans-65"/>
      <path d="M 41.109375 46.296875 
Q 39.59375 47.171875 37.8125 47.578125 
Q 36.03125 48 33.890625 48 
Q 26.265625 48 22.1875 43.046875 
Q 18.109375 38.09375 18.109375 28.8125 
L 18.109375 0 
L 9.078125 0 
L 9.078125 54.6875 
L 18.109375 54.6875 
L 18.109375 46.1875 
Q 20.953125 51.171875 25.484375 53.578125 
Q 30.03125 56 36.53125 56 
Q 37.453125 56 38.578125 55.875 
Q 39.703125 55.765625 41.0625 55.515625 
z
" id="DejaVuSans-72"/>
      <path d="M 34.28125 27.484375 
Q 23.390625 27.484375 19.1875 25 
Q 14.984375 22.515625 14.984375 16.5 
Q 14.984375 11.71875 18.140625 8.90625 
Q 21.296875 6.109375 26.703125 6.109375 
Q 34.1875 6.109375 38.703125 11.40625 
Q 43.21875 16.703125 43.21875 25.484375 
L 43.21875 27.484375 
z
M 52.203125 31.203125 
L 52.203125 0 
L 43.21875 0 
L 43.21875 8.296875 
Q 40.140625 3.328125 35.546875 0.953125 
Q 30.953125 -1.421875 24.3125 -1.421875 
Q 15.921875 -1.421875 10.953125 3.296875 
Q 6 8.015625 6 15.921875 
Q 6 25.140625 12.171875 29.828125 
Q 18.359375 34.515625 30.609375 34.515625 
L 43.21875 34.515625 
L 43.21875 35.40625 
Q 43.21875 41.609375 39.140625 45 
Q 35.0625 48.390625 27.6875 48.390625 
Q 23 48.390625 18.546875 47.265625 
Q 14.109375 46.140625 10.015625 43.890625 
L 10.015625 52.203125 
Q 14.9375 54.109375 19.578125 55.046875 
Q 24.21875 56 28.609375 56 
Q 40.484375 56 46.34375 49.84375 
Q 52.203125 43.703125 52.203125 31.203125 
z
" id="DejaVuSans-61"/>
      <path d="M 9.421875 54.6875 
L 18.40625 54.6875 
L 18.40625 0 
L 9.421875 0 
z
M 9.421875 75.984375 
L 18.40625 75.984375 
L 18.40625 64.59375 
L 9.421875 64.59375 
z
" id="DejaVuSans-69"/>
      <path d="M 30.609375 48.390625 
Q 23.390625 48.390625 19.1875 42.75 
Q 14.984375 37.109375 14.984375 27.296875 
Q 14.984375 17.484375 19.15625 11.84375 
Q 23.34375 6.203125 30.609375 6.203125 
Q 37.796875 6.203125 41.984375 11.859375 
Q 46.1875 17.53125 46.1875 27.296875 
Q 46.1875 37.015625 41.984375 42.703125 
Q 37.796875 48.390625 30.609375 48.390625 
z
M 30.609375 56 
Q 42.328125 56 49.015625 48.375 
Q 55.71875 40.765625 55.71875 27.296875 
Q 55.71875 13.875 49.015625 6.21875 
Q 42.328125 -1.421875 30.609375 -1.421875 
Q 18.84375 -1.421875 12.171875 6.21875 
Q 5.515625 13.875 5.515625 27.296875 
Q 5.515625 40.765625 12.171875 48.375 
Q 18.84375 56 30.609375 56 
z
" id="DejaVuSans-6f"/>
      <path d="M 54.890625 33.015625 
L 54.890625 0 
L 45.90625 0 
L 45.90625 32.71875 
Q 45.90625 40.484375 42.875 44.328125 
Q 39.84375 48.1875 33.796875 48.1875 
Q 26.515625 48.1875 22.3125 43.546875 
Q 18.109375 38.921875 18.109375 30.90625 
L 18.109375 0 
L 9.078125 0 
L 9.078125 54.6875 
L 18.109375 54.6875 
L 18.109375 46.1875 
Q 21.34375 51.125 25.703125 53.5625 
Q 30.078125 56 35.796875 56 
Q 45.21875 56 50.046875 50.171875 
Q 54.890625 44.34375 54.890625 33.015625 
z
" id="DejaVuSans-6e"/>
      <path d="M 44.28125 53.078125 
L 44.28125 44.578125 
Q 40.484375 46.53125 36.375 47.5 
Q 32.28125 48.484375 27.875 48.484375 
Q 21.1875 48.484375 17.84375 46.4375 
Q 14.5 44.390625 14.5 40.28125 
Q 14.5 37.15625 16.890625 35.375 
Q 19.28125 33.59375 26.515625 31.984375 
L 29.59375 31.296875 
Q 39.15625 29.25 43.1875 25.515625 
Q 47.21875 21.78125 47.21875 15.09375 
Q 47.21875 7.46875 41.1875 3.015625 
Q 35.15625 -1.421875 24.609375 -1.421875 
Q 20.21875 -1.421875 15.453125 -0.5625 
Q 10.6875 0.296875 5.421875 2 
L 5.421875 11.28125 
Q 10.40625 8.6875 15.234375 7.390625 
Q 20.0625 6.109375 24.8125 6.109375 
Q 31.15625 6.109375 34.5625 8.28125 
Q 37.984375 10.453125 37.984375 14.40625 
Q 37.984375 18.0625 35.515625 20.015625 
Q 33.0625 21.96875 24.703125 23.78125 
L 21.578125 24.515625 
Q 13.234375 26.265625 9.515625 29.90625 
Q 5.8125 33.546875 5.8125 39.890625 
Q 5.8125 47.609375 11.28125 51.796875 
Q 16.75 56 26.8125 56 
Q 31.78125 56 36.171875 55.265625 
Q 40.578125 54.546875 44.28125 53.078125 
z
" id="DejaVuSans-73"/>
     </defs>
     <g transform="translate(217.476281 328.882937)scale(0.156 -0.156)">
      <use xlink:href="#DejaVuSans-49"/>
      <use x="29.492188" xlink:href="#DejaVuSans-74"/>
      <use x="68.701172" xlink:href="#DejaVuSans-65"/>
      <use x="130.224609" xlink:href="#DejaVuSans-72"/>
      <use x="171.337891" xlink:href="#DejaVuSans-61"/>
      <use x="232.617188" xlink:href="#DejaVuSans-74"/>
      <use x="271.826172" xlink:href="#DejaVuSans-69"/>
      <use x="299.609375" xlink:href="#DejaVuSans-6f"/>
      <use x="360.791016" xlink:href="#DejaVuSans-6e"/>
      <use x="424.169922" xlink:href="#DejaVuSans-73"/>
     </g>
    </g>
   </g>
   <g id="matplotlib.axis_2">
    <g id="ytick_1">
     <g id="line2d_15">
      <path clip-path="url(#p3160d2f44e)" d="M 62.49 287.552627 
L 446.76 287.552627 
" style="fill:none;stroke:#b2b2b2;stroke-dasharray:1.85,0.8;stroke-dashoffset:0;stroke-width:0.5;"/>
     </g>
     <g id="line2d_16">
      <defs>
       <path d="M 0 0 
L 3.5 0 
" id="m78790bc54c" style="stroke:#000000;stroke-width:0.8;"/>
      </defs>
      <g>
       <use style="stroke:#000000;stroke-width:0.8;" x="62.49" xlink:href="#m78790bc54c" y="287.552627"/>
      </g>
     </g>
     <g id="text_9">
      <!-- 150 -->
      <g transform="translate(32.2675 292.871534)scale(0.14 -0.14)">
       <use xlink:href="#DejaVuSans-31"/>
       <use x="63.623047" xlink:href="#DejaVuSans-35"/>
       <use x="127.246094" xlink:href="#DejaVuSans-30"/>
      </g>
     </g>
    </g>
    <g id="ytick_2">
     <g id="line2d_17">
      <path clip-path="url(#p3160d2f44e)" d="M 62.49 254.900617 
L 446.76 254.900617 
" style="fill:none;stroke:#b2b2b2;stroke-dasharray:1.85,0.8;stroke-dashoffset:0;stroke-width:0.5;"/>
     </g>
     <g id="line2d_18">
      <g>
       <use style="stroke:#000000;stroke-width:0.8;" x="62.49" xlink:href="#m78790bc54c" y="254.900617"/>
      </g>
     </g>
     <g id="text_10">
      <!-- 200 -->
      <g transform="translate(32.2675 260.219523)scale(0.14 -0.14)">
       <use xlink:href="#DejaVuSans-32"/>
       <use x="63.623047" xlink:href="#DejaVuSans-30"/>
       <use x="127.246094" xlink:href="#DejaVuSans-30"/>
      </g>
     </g>
    </g>
    <g id="ytick_3">
     <g id="line2d_19">
      <path clip-path="url(#p3160d2f44e)" d="M 62.49 222.248607 
L 446.76 222.248607 
" style="fill:none;stroke:#b2b2b2;stroke-dasharray:1.85,0.8;stroke-dashoffset:0;stroke-width:0.5;"/>
     </g>
     <g id="line2d_20">
      <g>
       <use style="stroke:#000000;stroke-width:0.8;" x="62.49" xlink:href="#m78790bc54c" y="222.248607"/>
      </g>
     </g>
     <g id="text_11">
      <!-- 250 -->
      <g transform="translate(32.2675 227.567513)scale(0.14 -0.14)">
       <use xlink:href="#DejaVuSans-32"/>
       <use x="63.623047" xlink:href="#DejaVuSans-35"/>
       <use x="127.246094" xlink:href="#DejaVuSans-30"/>
      </g>
     </g>
    </g>
    <g id="ytick_4">
     <g id="line2d_21">
      <path clip-path="url(#p3160d2f44e)" d="M 62.49 189.596596 
L 446.76 189.596596 
" style="fill:none;stroke:#b2b2b2;stroke-dasharray:1.85,0.8;stroke-dashoffset:0;stroke-width:0.5;"/>
     </g>
     <g id="line2d_22">
      <g>
       <use style="stroke:#000000;stroke-width:0.8;" x="62.49" xlink:href="#m78790bc54c" y="189.596596"/>
      </g>
     </g>
     <g id="text_12">
      <!-- 300 -->
      <g transform="translate(32.2675 194.915502)scale(0.14 -0.14)">
       <use xlink:href="#DejaVuSans-33"/>
       <use x="63.623047" xlink:href="#DejaVuSans-30"/>
       <use x="127.246094" xlink:href="#DejaVuSans-30"/>
      </g>
     </g>
    </g>
    <g id="ytick_5">
     <g id="line2d_23">
      <path clip-path="url(#p3160d2f44e)" d="M 62.49 156.944586 
L 446.76 156.944586 
" style="fill:none;stroke:#b2b2b2;stroke-dasharray:1.85,0.8;stroke-dashoffset:0;stroke-width:0.5;"/>
     </g>
     <g id="line2d_24">
      <g>
       <use style="stroke:#000000;stroke-width:0.8;" x="62.49" xlink:href="#m78790bc54c" y="156.944586"/>
      </g>
     </g>
     <g id="text_13">
      <!-- 350 -->
      <g transform="translate(32.2675 162.263492)scale(0.14 -0.14)">
       <use xlink:href="#DejaVuSans-33"/>
       <use x="63.623047" xlink:href="#DejaVuSans-35"/>
       <use x="127.246094" xlink:href="#DejaVuSans-30"/>
      </g>
     </g>
    </g>
    <g id="ytick_6">
     <g id="line2d_25">
      <path clip-path="url(#p3160d2f44e)" d="M 62.49 124.292575 
L 446.76 124.292575 
" style="fill:none;stroke:#b2b2b2;stroke-dasharray:1.85,0.8;stroke-dashoffset:0;stroke-width:0.5;"/>
     </g>
     <g id="line2d_26">
      <g>
       <use style="stroke:#000000;stroke-width:0.8;" x="62.49" xlink:href="#m78790bc54c" y="124.292575"/>
      </g>
     </g>
     <g id="text_14">
      <!-- 400 -->
      <g transform="translate(32.2675 129.611482)scale(0.14 -0.14)">
       <use xlink:href="#DejaVuSans-34"/>
       <use x="63.623047" xlink:href="#DejaVuSans-30"/>
       <use x="127.246094" xlink:href="#DejaVuSans-30"/>
      </g>
     </g>
    </g>
    <g id="ytick_7">
     <g id="line2d_27">
      <path clip-path="url(#p3160d2f44e)" d="M 62.49 91.640565 
L 446.76 91.640565 
" style="fill:none;stroke:#b2b2b2;stroke-dasharray:1.85,0.8;stroke-dashoffset:0;stroke-width:0.5;"/>
     </g>
     <g id="line2d_28">
      <g>
       <use style="stroke:#000000;stroke-width:0.8;" x="62.49" xlink:href="#m78790bc54c" y="91.640565"/>
      </g>
     </g>
     <g id="text_15">
      <!-- 450 -->
      <g transform="translate(32.2675 96.959471)scale(0.14 -0.14)">
       <use xlink:href="#DejaVuSans-34"/>
       <use x="63.623047" xlink:href="#DejaVuSans-35"/>
       <use x="127.246094" xlink:href="#DejaVuSans-30"/>
      </g>
     </g>
    </g>
    <g id="ytick_8">
     <g id="line2d_29">
      <path clip-path="url(#p3160d2f44e)" d="M 62.49 58.988555 
L 446.76 58.988555 
" style="fill:none;stroke:#b2b2b2;stroke-dasharray:1.85,0.8;stroke-dashoffset:0;stroke-width:0.5;"/>
     </g>
     <g id="line2d_30">
      <g>
       <use style="stroke:#000000;stroke-width:0.8;" x="62.49" xlink:href="#m78790bc54c" y="58.988555"/>
      </g>
     </g>
     <g id="text_16">
      <!-- 500 -->
      <g transform="translate(32.2675 64.307461)scale(0.14 -0.14)">
       <use xlink:href="#DejaVuSans-35"/>
       <use x="63.623047" xlink:href="#DejaVuSans-30"/>
       <use x="127.246094" xlink:href="#DejaVuSans-30"/>
      </g>
     </g>
    </g>
    <g id="ytick_9">
     <g id="line2d_31">
      <path clip-path="url(#p3160d2f44e)" d="M 62.49 26.336544 
L 446.76 26.336544 
" style="fill:none;stroke:#b2b2b2;stroke-dasharray:1.85,0.8;stroke-dashoffset:0;stroke-width:0.5;"/>
     </g>
     <g id="line2d_32">
      <g>
       <use style="stroke:#000000;stroke-width:0.8;" x="62.49" xlink:href="#m78790bc54c" y="26.336544"/>
      </g>
     </g>
     <g id="text_17">
      <!-- 550 -->
      <g transform="translate(32.2675 31.65545)scale(0.14 -0.14)">
       <use xlink:href="#DejaVuSans-35"/>
       <use x="63.623047" xlink:href="#DejaVuSans-35"/>
       <use x="127.246094" xlink:href="#DejaVuSans-30"/>
      </g>
     </g>
    </g>
    <g id="text_18">
     <!-- W -->
     <defs>
      <path d="M 3.328125 72.90625 
L 13.28125 72.90625 
L 28.609375 11.28125 
L 43.890625 72.90625 
L 54.984375 72.90625 
L 70.3125 11.28125 
L 85.59375 72.90625 
L 95.609375 72.90625 
L 77.296875 0 
L 64.890625 0 
L 49.515625 63.28125 
L 33.984375 0 
L 21.578125 0 
z
" id="DejaVuSans-57"/>
     </defs>
     <g transform="translate(25.023187 162.72225)rotate(-90)scale(0.156 -0.156)">
      <use xlink:href="#DejaVuSans-57"/>
     </g>
    </g>
   </g>
   <g id="line2d_33">
    <path clip-path="url(#p3160d2f44e)" d="M 79.956818 202.339129 
L 80.068767 202.428196 
L 80.404614 201.933302 
L 80.572537 201.418426 
L 80.908383 201.181092 
L 81.300204 199.937712 
L 81.412153 199.43703 
L 81.636051 198.394886 
L 81.859949 198.570158 
L 81.915923 198.482049 
L 82.083846 198.370179 
L 82.251769 197.802273 
L 82.419693 197.405927 
L 82.587616 197.417674 
L 82.979437 198.153269 
L 83.483207 199.22044 
L 83.763079 199.005457 
L 83.931002 199.084572 
L 84.098925 198.870347 
L 84.490746 199.18728 
L 84.602695 199.339976 
L 85.050491 197.826007 
L 85.386337 199.092337 
L 86.002056 201.797763 
L 86.505825 203.59613 
L 86.617774 203.7903 
L 87.121544 205.035567 
L 87.177519 205.011956 
L 87.345442 204.719691 
L 87.569339 205.411588 
L 88.017135 207.03961 
L 88.073109 207.183918 
L 88.129084 207.097748 
L 88.520905 206.594393 
L 88.576879 206.649537 
L 89.024674 206.203418 
L 89.304547 205.711505 
L 89.528444 205.81356 
L 89.640393 205.948428 
L 89.696367 205.901356 
L 90.032214 205.750338 
L 90.256112 205.461556 
L 90.312086 205.534648 
L 90.591958 205.467436 
L 90.983779 205.033816 
L 91.543523 204.145162 
L 91.767421 203.89215 
L 91.823396 203.952338 
L 91.87937 203.894012 
L 91.935344 203.814704 
L 91.991319 203.859075 
L 92.38314 204.633962 
L 92.998858 206.384956 
L 93.054833 206.392969 
L 93.558603 207.877648 
L 94.846014 211.950933 
L 95.013938 212.152552 
L 95.629656 211.545345 
L 96.077452 211.152396 
L 96.861093 208.762486 
L 96.973042 208.827535 
L 97.644735 209.714211 
L 97.70071 209.666687 
L 98.036556 209.335523 
L 98.260454 209.468108 
L 99.156045 210.112046 
L 99.547866 210.693924 
L 99.827738 210.892181 
L 100.051635 210.666135 
L 100.331508 210.539273 
L 100.779303 209.959922 
L 100.947226 209.924789 
L 101.618919 208.976523 
L 102.122689 209.606388 
L 102.346587 209.948613 
L 102.794382 210.462214 
L 103.242177 210.943925 
L 103.578024 210.780501 
L 104.025819 210.972308 
L 104.361666 211.238607 
L 104.697512 211.885015 
L 105.145308 212.858689 
L 105.257257 212.895985 
L 105.649078 212.725747 
L 105.705052 212.73738 
L 106.264796 211.417035 
L 106.992464 208.676492 
L 107.216361 208.742604 
L 107.608182 209.260887 
L 108.279875 209.549784 
L 108.559747 209.622693 
L 108.727671 209.797187 
L 108.895594 209.913476 
L 109.007543 209.837507 
L 110.23898 211.613401 
L 110.406903 211.565588 
L 110.574827 211.44806 
L 111.134571 212.411526 
L 111.470417 212.966357 
L 111.582366 213.071639 
L 112.14211 213.830919 
L 112.366008 214.160669 
L 112.981727 215.282973 
L 113.14965 215.363939 
L 113.373548 215.508027 
L 113.597445 215.190869 
L 113.877318 214.992434 
L 114.15719 214.708831 
L 115.500576 211.35174 
L 116.508115 206.66108 
L 116.843962 204.756671 
L 117.123834 203.605213 
L 117.627604 200.965767 
L 118.131374 198.74113 
L 118.635143 196.293724 
L 119.082939 194.777379 
L 120.930095 189.137503 
L 121.153992 189.272815 
L 121.321916 189.254452 
L 121.489839 189.267995 
L 121.601788 189.209022 
L 122.105557 188.585931 
L 122.497378 188.540546 
L 122.665302 188.403884 
L 122.777251 188.422465 
L 123.169071 188.050898 
L 123.448944 188.304215 
L 124.176611 189.582678 
L 125.072202 190.600398 
L 125.296099 190.405694 
L 125.68792 190.003656 
L 125.967793 190.067686 
L 126.471562 189.989203 
L 127.087281 190.605422 
L 127.311179 190.600789 
L 127.535076 190.435829 
L 127.870923 190.390401 
L 128.374693 190.722913 
L 128.542616 190.609034 
L 129.550155 189.562485 
L 129.718079 189.40333 
L 130.61367 187.626805 
L 130.893542 187.192582 
L 131.117439 187.146139 
L 131.285363 187.229167 
L 131.845107 187.716612 
L 132.572774 187.919099 
L 132.852646 187.726178 
L 133.692263 186.308781 
L 134.196032 185.327195 
L 134.41993 185.155911 
L 134.643828 185.006188 
L 135.315521 183.822519 
L 135.987214 183.773123 
L 136.155137 183.831488 
L 136.546958 184.004335 
L 136.882805 184.206401 
L 137.162677 184.049752 
L 137.666447 184.158492 
L 137.83437 183.988667 
L 138.058268 183.878505 
L 138.618012 183.798948 
L 138.841909 183.831782 
L 139.23373 183.914013 
L 139.457628 184.224303 
L 139.793475 184.641886 
L 140.017372 184.669691 
L 140.801014 184.57793 
L 141.192835 184.991364 
L 142.032451 186.549382 
L 142.872068 187.931986 
L 143.375838 188.771364 
L 143.599735 188.861132 
L 143.823633 189.07275 
L 145.670789 191.837779 
L 146.342482 192.829669 
L 146.846252 193.455198 
L 147.126124 193.599841 
L 148.413535 194.389248 
L 149.141203 194.664227 
L 149.588998 195.259109 
L 150.260691 196.075533 
L 150.484589 196.129418 
L 150.764461 195.766139 
L 151.156282 195.388671 
L 151.88395 195.069225 
L 152.163822 195.174198 
L 152.77954 195.670364 
L 153.395259 195.269843 
L 153.675131 195.258175 
L 153.899029 195.187157 
L 154.29085 194.985755 
L 154.682671 194.9748 
L 155.298389 194.315434 
L 155.522287 194.424413 
L 156.138006 195.05164 
L 156.249954 194.993186 
L 156.641775 194.519985 
L 157.257494 194.144 
L 157.481392 193.793022 
L 157.761264 193.355487 
L 159.440496 193.052969 
L 159.60842 193.0247 
L 160.392062 192.909239 
L 160.671934 192.934101 
L 160.895831 192.811047 
L 161.623499 192.787556 
L 162.127269 192.86368 
L 162.295192 192.652468 
L 162.742987 191.534791 
L 163.022859 190.988624 
L 163.358706 191.024096 
L 163.806501 191.239214 
L 164.92599 191.91142 
L 165.093913 191.963956 
L 166.32535 192.841426 
L 166.997043 193.310445 
L 167.276915 193.550171 
L 167.780685 193.97501 
L 168.116532 194.293983 
L 168.73225 194.764512 
L 169.23602 194.944778 
L 169.403943 194.923099 
L 169.683816 194.571195 
L 170.019662 194.140991 
L 170.299534 194.122283 
L 171.027202 194.354155 
L 171.307074 194.430112 
L 171.698895 194.57887 
L 172.594486 194.416514 
L 172.930332 194.397928 
L 174.497616 195.76091 
L 175.729053 196.599678 
L 175.952951 196.350987 
L 176.288797 195.94726 
L 176.848542 196.066534 
L 177.520235 196.570771 
L 177.800107 196.635686 
L 178.4718 196.822548 
L 178.919595 197.346923 
L 179.983109 198.568891 
L 180.710777 199.079146 
L 182.054163 199.859368 
L 182.334035 199.937319 
L 182.613907 200.034464 
L 183.173651 199.973718 
L 183.677421 200.322903 
L 185.580551 202.054677 
L 185.916398 202.107519 
L 186.19627 202.22424 
L 187.091861 202.558732 
L 187.59563 202.215163 
L 188.043426 201.327002 
L 188.659144 200.215717 
L 188.939017 199.939499 
L 189.778633 199.651832 
L 192.129559 199.92592 
L 192.577354 199.679076 
L 193.025149 199.696012 
L 193.41697 199.376354 
L 194.536459 198.985395 
L 194.872305 199.014274 
L 196.103742 197.652435 
L 196.495563 197.279709 
L 196.775436 197.131649 
L 196.999333 197.242777 
L 198.622591 198.498668 
L 199.126361 198.727822 
L 199.406233 198.853992 
L 200.077926 199.193565 
L 201.197415 200.102659 
L 201.701185 200.45054 
L 202.540801 200.54865 
L 203.380417 200.108911 
L 203.716264 200.264952 
L 204.723803 200.890487 
L 205.619394 200.99348 
L 206.291087 200.379209 
L 206.906806 200.730788 
L 207.690448 201.381495 
L 208.082269 201.57207 
L 208.47409 201.691154 
L 209.089808 201.622631 
L 209.761501 201.623432 
L 210.097348 201.547224 
L 210.713066 201.607292 
L 210.936964 201.601648 
L 211.216836 201.668563 
L 212.056453 202.128198 
L 213.455813 203.146605 
L 213.903608 203.23856 
L 215.079071 204.006194 
L 215.918688 203.568918 
L 216.19856 203.35203 
L 216.590381 203.324356 
L 217.429997 203.44009 
L 217.821818 203.538488 
L 218.045716 203.512795 
L 218.885332 203.169691 
L 219.221178 203.277758 
L 220.172744 203.775399 
L 221.180283 203.380917 
L 221.740027 203.456398 
L 222.131848 203.596486 
L 224.538749 205.180127 
L 225.32239 205.2308 
L 226.273956 205.514926 
L 226.609802 205.624693 
L 228.289035 206.764191 
L 228.848779 207.010296 
L 229.632421 207.314844 
L 229.968267 207.228974 
L 230.472037 206.86655 
L 230.807884 206.817161 
L 231.255679 206.960352 
L 231.6475 207.027963 
L 231.871398 206.907315 
L 232.095295 206.836909 
L 233.718554 207.13928 
L 234.222323 207.329469 
L 236.293377 208.05227 
L 237.244942 208.071915 
L 237.916635 208.092575 
L 238.252482 207.841885 
L 240.043663 206.100361 
L 240.715356 205.217901 
L 241.610947 203.663271 
L 242.002768 202.924628 
L 242.338615 202.811326 
L 243.178231 202.253779 
L 243.905898 201.745421 
L 244.745515 202.148854 
L 245.920977 202.338107 
L 246.20085 202.373124 
L 246.704619 202.403636 
L 247.432287 202.248661 
L 247.824108 202.267077 
L 248.271903 202.133717 
L 249.335417 202.509052 
L 249.839187 202.412983 
L 250.175034 202.417081 
L 252.525959 203.177455 
L 253.197652 202.944536 
L 253.645448 202.730851 
L 254.205192 202.425547 
L 255.100783 202.507567 
L 255.604552 202.555486 
L 256.33222 202.492486 
L 256.83599 202.516343 
L 257.227811 202.379257 
L 257.843529 202.410813 
L 258.23535 202.512871 
L 258.73912 202.736369 
L 259.970557 202.908453 
L 260.866148 203.058379 
L 261.14602 203.014081 
L 261.705764 202.748581 
L 262.433432 202.552318 
L 264.616434 202.579204 
L 265.400076 202.835267 
L 268.758541 203.443697 
L 269.37426 203.691031 
L 270.3818 203.815364 
L 270.773621 203.602687 
L 271.165442 203.374219 
L 272.340904 202.894674 
L 272.620776 202.903905 
L 273.908188 203.192125 
L 276.203139 203.713186 
L 276.874832 203.645101 
L 277.490551 203.512072 
L 278.162244 203.379041 
L 279.00186 203.089993 
L 279.281733 203.035633 
L 279.561605 202.937134 
L 279.897451 202.966777 
L 281.352786 203.558778 
L 281.800582 203.688518 
L 282.192403 203.683865 
L 283.703712 203.907085 
L 284.431379 203.53104 
L 284.767226 203.549043 
L 286.222561 203.780223 
L 286.726331 203.460453 
L 287.453998 202.959179 
L 288.349589 202.699986 
L 289.133231 202.349968 
L 289.469077 202.356781 
L 290.084796 202.132278 
L 290.532591 201.948591 
L 291.540131 202.043308 
L 293.107415 202.377868 
L 293.443261 202.156981 
L 294.394826 201.070565 
L 295.178468 200.660823 
L 296.241982 200.594198 
L 297.529394 200.525326 
L 298.592908 200.419472 
L 300.104217 201.130145 
L 300.999808 201.618575 
L 301.671501 201.90459 
L 302.063322 201.954867 
L 302.846964 201.73419 
L 303.126836 201.757946 
L 303.574631 201.900303 
L 304.862043 201.666071 
L 305.365813 201.420032 
L 306.373353 200.699595 
L 307.380892 200.19373 
L 308.052585 199.985257 
L 308.276483 199.875698 
L 308.556355 199.686997 
L 309.228048 199.168646 
L 310.01169 198.937741 
L 310.347536 198.969567 
L 310.795332 198.965534 
L 311.299102 199.078644 
L 311.690923 198.909672 
L 312.138718 198.648279 
L 312.586513 198.432493 
L 312.92236 198.234422 
L 313.370155 198.078968 
L 313.706002 197.900558 
L 314.433669 197.957832 
L 314.881465 197.8059 
L 315.217311 197.528907 
L 315.609132 197.224214 
L 316.280825 196.819886 
L 317.624211 196.657752 
L 317.960058 196.604246 
L 318.23993 196.510363 
L 319.135521 195.921433 
L 319.583316 195.941952 
L 320.199035 195.928711 
L 320.758779 195.630459 
L 321.1506 195.320302 
L 321.710344 195.059818 
L 322.046191 195.163944 
L 322.661909 195.369837 
L 323.109705 195.301821 
L 323.5575 195.058475 
L 324.173219 194.688533 
L 325.292707 194.46533 
L 325.628553 194.526051 
L 326.076349 194.563831 
L 326.580119 194.663504 
L 327.587658 194.834757 
L 328.87507 194.853487 
L 329.266891 194.834705 
L 331.058072 193.872933 
L 331.78574 193.793395 
L 332.457433 193.895462 
L 333.1851 194.096149 
L 333.744845 194.238871 
L 334.136666 194.191791 
L 335.368103 194.145501 
L 336.375642 193.920454 
L 337.047335 194.057431 
L 337.439156 194.1105 
L 338.614619 194.441784 
L 339.454236 194.592321 
L 341.469315 194.415912 
L 342.588803 194.642024 
L 342.980624 194.507098 
L 343.372445 194.487999 
L 344.212061 194.527487 
L 344.491933 194.260048 
L 345.163627 193.813215 
L 345.667396 193.588159 
L 346.618961 192.884409 
L 346.954808 192.79652 
L 347.402603 192.790585 
L 349.081836 193.433164 
L 349.809504 193.699394 
L 351.936532 193.934246 
L 352.328352 194.011284 
L 354.95915 194.660901 
L 355.96669 194.546378 
L 356.302536 194.569134 
L 358.765411 195.200617 
L 359.437104 195.190935 
L 359.828925 195.116848 
L 360.500618 194.857506 
L 360.724516 194.682554 
L 362.067902 193.093414 
L 362.68362 192.177969 
L 364.306879 189.591808 
L 364.642725 189.397074 
L 365.202469 189.057853 
L 365.538316 188.740832 
L 366.042086 188.600372 
L 366.657804 188.538834 
L 367.721318 188.375668 
L 368.057165 188.365943 
L 369.064704 188.579362 
L 369.5125 188.612856 
L 369.848346 188.441729 
L 370.352116 188.093981 
L 371.359656 187.627802 
L 372.311221 187.693361 
L 372.759016 187.804545 
L 373.262786 187.781184 
L 376.22943 188.570095 
L 376.621251 188.349363 
L 377.013072 188.390219 
L 377.516842 188.290828 
L 377.964637 188.158723 
L 379.308024 188.091143 
L 379.64387 188.053777 
L 380.427512 188.218196 
L 381.323103 188.603415 
L 382.274668 188.95047 
L 383.226233 188.990774 
L 383.897926 189.089716 
L 384.905466 189.168781 
L 387.312366 188.703957 
L 387.87211 188.802221 
L 388.207957 188.699687 
L 388.543803 188.608864 
L 389.495368 188.542009 
L 390.111087 188.413982 
L 394.868913 189.05206 
L 395.764503 189.130292 
L 396.660094 189.199123 
L 397.051915 188.998141 
L 397.443736 188.896502 
L 398.339327 189.080267 
L 398.843097 189.157526 
L 399.234918 189.215386 
L 399.850636 189.289477 
L 400.634278 189.313999 
L 401.697792 189.586394 
L 402.145587 189.600174 
L 403.32105 189.846266 
L 404.552488 190.266996 
L 406.007823 190.63497 
L 406.455618 190.655005 
L 407.183285 190.844106 
L 407.854978 191.128431 
L 408.750569 191.420033 
L 412.55683 192.146178 
L 413.564369 192.181337 
L 414.180088 192.340064 
L 416.698937 193.024433 
L 419.833505 193.44094 
L 421.568712 193.599157 
L 421.848584 193.607862 
L 422.240405 193.429696 
L 422.912098 193.031567 
L 423.583791 192.847223 
L 424.031586 192.94509 
L 424.871203 193.105417 
L 425.318998 193.042038 
L 426.550435 192.890365 
L 428.733438 192.945014 
L 429.237207 192.933346 
L 429.293182 192.915875 
L 429.293182 192.915875 
" style="fill:none;stroke:#348abd;stroke-linecap:square;stroke-width:2;"/>
   </g>
   <g id="line2d_34">
    <path clip-path="url(#p3160d2f44e)" d="M 79.956818 75.263698 
L 80.23669 70.214961 
L 80.964358 59.019321 
L 81.300204 56.217902 
L 82.307744 45.287795 
L 82.475667 45.408092 
L 82.699565 46.09398 
L 82.923463 46.274592 
L 83.203335 47.640365 
L 83.427232 48.531242 
L 83.539181 48.999198 
L 83.875028 50.638884 
L 83.986977 50.872589 
L 84.042951 50.839817 
L 84.210874 50.828418 
L 84.490746 50.162848 
L 84.770618 50.462463 
L 84.882567 50.864701 
L 84.938542 50.819133 
L 85.106465 50.782945 
L 85.218414 50.541245 
L 85.386337 51.108371 
L 85.722184 52.692576 
L 86.002056 53.985089 
L 86.05803 54.072404 
L 86.337902 53.671885 
L 86.5618 54.544434 
L 87.401416 59.210553 
L 87.513365 59.065802 
L 88.073109 57.269395 
L 88.297007 56.775642 
L 88.352981 56.788297 
L 89.080649 58.72489 
L 89.136623 58.693297 
L 89.864291 55.989796 
L 90.256112 52.079925 
L 90.535984 49.897806 
L 90.815856 48.379145 
L 91.151702 46.797916 
L 91.263651 46.774351 
L 91.823396 45.2194 
L 91.935344 45.378867 
L 92.159242 45.961926 
L 92.215216 45.773358 
L 92.271191 45.755563 
L 92.663012 43.525361 
L 92.998858 42.120006 
L 93.27873 40.543561 
L 93.502628 40.198291 
L 93.614577 40.420873 
L 94.398219 43.096019 
L 94.510168 43.053956 
L 94.678091 42.726378 
L 95.181861 40.47823 
L 95.629656 40.799388 
L 95.797579 41.11577 
L 96.245375 40.167264 
L 96.301349 40.202813 
L 96.581221 41.177811 
L 96.69317 41.470074 
L 96.749145 41.447439 
L 96.861093 41.225638 
L 96.917068 41.277638 
L 97.308889 41.571296 
L 97.644735 42.115516 
L 97.868633 41.796727 
L 98.092531 42.08353 
L 98.148505 42.090569 
L 98.316428 41.981572 
L 98.708249 41.578796 
L 98.764224 41.67728 
L 99.156045 42.806808 
L 99.883712 44.92349 
L 100.163584 45.24293 
L 100.891252 45.057032 
L 101.059175 44.950426 
L 101.227098 44.405638 
L 101.730868 42.177134 
L 101.898791 42.296941 
L 102.290612 42.917484 
L 102.626459 43.813449 
L 102.738408 43.973611 
L 103.52205 45.918696 
L 104.137768 48.076513 
L 104.305691 48.277135 
L 104.41764 48.253168 
L 104.809461 48.897883 
L 104.92141 48.652145 
L 105.257257 46.697369 
L 105.593103 43.412632 
L 106.432719 35.173273 
L 107.384285 30.831159 
L 107.664157 30.641466 
L 108.671696 29.900707 
L 110.015082 26.904659 
L 110.183006 26.963024 
L 111.022622 29.181438 
L 111.078596 29.098579 
L 111.190545 29.050559 
L 111.806264 29.391479 
L 112.14211 29.668929 
L 112.757829 31.141567 
L 113.205624 32.077841 
L 113.373548 32.151544 
L 113.597445 32.257795 
L 113.989266 32.735718 
L 114.940832 34.787467 
L 115.220704 35.256364 
L 116.732013 39.059273 
L 116.843962 39.075124 
L 117.291757 39.339258 
L 117.627604 39.379485 
L 118.803067 42.028581 
L 118.97099 42.26971 
L 119.138913 42.467178 
L 119.418785 42.149179 
L 119.530734 41.977082 
L 119.754632 41.635299 
L 119.922555 41.641371 
L 120.202427 42.516257 
L 121.489839 46.899715 
L 122.38543 48.373737 
L 122.665302 48.712371 
L 122.777251 48.656392 
L 123.113097 47.903736 
L 123.392969 47.352331 
L 123.560892 47.509886 
L 124.176611 48.637159 
L 124.456483 49.129322 
L 125.128176 49.492319 
L 125.352074 49.251743 
L 125.68792 48.821654 
L 125.799869 48.894591 
L 127.311179 52.835053 
L 127.647025 53.532368 
L 127.703 53.609728 
L 127.758974 53.527802 
L 127.870923 53.525485 
L 128.150795 53.975794 
L 128.430667 54.298462 
L 128.59859 54.066148 
L 128.990411 52.659435 
L 129.830028 46.721921 
L 130.277823 45.478886 
L 130.725618 44.964261 
L 131.061465 44.968347 
L 131.453286 44.544965 
L 131.733158 44.866609 
L 132.852646 46.459057 
L 133.076544 46.433041 
L 133.468365 46.50711 
L 133.692263 46.435158 
L 133.804212 46.352241 
L 134.140058 45.75321 
L 134.755777 45.250054 
L 135.091623 45.670998 
L 135.42747 46.116646 
L 135.595393 46.085312 
L 135.93124 46.037808 
L 136.490984 45.946749 
L 136.602933 45.793816 
L 136.770856 45.66774 
L 136.994754 45.814956 
L 137.386574 45.523773 
L 138.33814 46.609718 
L 138.729961 47.28796 
L 139.121782 47.806542 
L 139.681526 48.932301 
L 141.24881 53.430655 
L 141.752579 54.337795 
L 142.536221 56.112409 
L 143.039991 56.957645 
L 143.319863 57.424122 
L 143.823633 57.603254 
L 144.271428 58.246369 
L 144.439352 58.479573 
L 144.663249 58.451173 
L 144.943121 58.51148 
L 145.222993 58.538439 
L 145.390917 58.782569 
L 145.782738 59.618111 
L 146.006635 59.899328 
L 146.118584 59.851301 
L 146.342482 59.751581 
L 146.510405 59.705566 
L 147.294047 58.366096 
L 147.405996 58.39124 
L 147.573919 58.68511 
L 148.637433 60.705664 
L 150.316666 64.604941 
L 151.044333 65.597569 
L 151.324205 65.4725 
L 151.604078 65.369698 
L 151.88395 65.670006 
L 152.331745 66.477013 
L 152.77954 66.681592 
L 153.003438 66.659706 
L 153.731106 67.390264 
L 154.850594 69.450898 
L 155.354364 69.886311 
L 157.033596 71.530016 
L 157.257494 71.704861 
L 157.481392 71.760316 
L 157.705289 71.971048 
L 158.09711 72.424031 
L 158.656855 72.756429 
L 159.216599 73.946498 
L 159.888292 75.440319 
L 160.727908 77.056271 
L 161.231678 77.902314 
L 161.51155 78.101994 
L 161.847397 78.029899 
L 162.071294 78.060405 
L 163.022859 78.900666 
L 163.302732 78.954866 
L 164.030399 79.672332 
L 164.870015 80.9818 
L 165.093913 81.103887 
L 165.317811 80.921721 
L 165.933529 80.220346 
L 166.157427 79.939897 
L 167.220941 80.804372 
L 167.724711 81.533613 
L 168.340429 82.155337 
L 169.012123 82.769336 
L 169.851739 83.687224 
L 170.355509 83.739392 
L 170.523432 83.652107 
L 170.803304 83.300835 
L 171.195125 82.801727 
L 171.698895 82.046904 
L 172.034741 82.072529 
L 172.426562 82.064495 
L 172.65046 81.878525 
L 173.15423 81.349927 
L 173.713974 81.245029 
L 174.273718 81.014703 
L 174.721514 81.44055 
L 175.113334 81.896672 
L 175.337232 81.82842 
L 176.736593 82.023505 
L 177.184388 82.381421 
L 177.520235 82.378616 
L 177.744132 82.406131 
L 178.079979 82.492039 
L 178.247902 82.509462 
L 178.807646 83.195967 
L 180.262981 85.790646 
L 180.710777 86.259678 
L 181.102598 86.651507 
L 181.38247 86.896822 
L 182.334035 87.697434 
L 183.229626 89.098019 
L 184.908858 90.995259 
L 185.580551 90.184552 
L 185.916398 89.44026 
L 186.308219 88.755339 
L 186.756014 87.918153 
L 186.979912 87.401738 
L 187.539656 85.212783 
L 188.715119 79.166359 
L 190.002531 69.797574 
L 190.562275 67.568382 
L 191.345917 66.138803 
L 191.849686 65.364372 
L 192.409431 63.944557 
L 193.081124 61.244513 
L 193.808791 57.570271 
L 194.480484 54.675312 
L 195.152177 51.531327 
L 195.767896 50.218347 
L 196.719461 49.1532 
L 196.943359 48.97285 
L 197.223231 49.146546 
L 197.727001 49.58008 
L 198.342719 50.042132 
L 198.622591 50.00526 
L 198.790515 49.948654 
L 199.23831 50.095044 
L 200.133901 50.107476 
L 200.637671 50.267351 
L 200.861568 50.199011 
L 201.197415 49.749349 
L 201.589236 49.157073 
L 201.869108 49.100945 
L 202.093006 49.314384 
L 202.316903 49.482624 
L 202.484827 49.435459 
L 202.764699 48.934162 
L 203.492366 46.865178 
L 203.772238 46.090465 
L 204.387957 44.983011 
L 205.283548 42.99815 
L 205.843292 42.443725 
L 206.235113 42.283769 
L 206.794857 42.411855 
L 207.130703 42.452781 
L 207.858371 43.189948 
L 209.257731 44.729176 
L 210.153322 45.391607 
L 210.88099 45.548904 
L 211.216836 45.560995 
L 211.608657 45.599384 
L 212.168401 46.037691 
L 212.448274 46.168573 
L 213.008018 46.815356 
L 213.567762 47.471487 
L 214.463353 48.039015 
L 215.246995 47.871668 
L 217.206099 48.223791 
L 217.709869 47.828834 
L 219.053255 46.78569 
L 219.668974 46.599736 
L 219.892872 46.651923 
L 220.172744 46.709634 
L 220.564565 46.384649 
L 221.292232 45.208349 
L 221.572104 45.073297 
L 221.851976 45.102737 
L 222.971465 45.498242 
L 223.92303 46.389332 
L 224.706672 46.663221 
L 225.546288 47.802973 
L 226.385904 48.134781 
L 226.609802 48.327691 
L 227.113572 48.890698 
L 228.009163 49.166934 
L 228.960728 48.838753 
L 229.296574 48.540792 
L 229.74437 47.854223 
L 230.080216 47.165575 
L 230.63996 46.361144 
L 231.591526 46.185413 
L 232.207244 45.985513 
L 232.487116 45.798604 
L 232.934912 45.660851 
L 233.270758 45.742573 
L 233.494656 45.669397 
L 234.278298 45.222353 
L 234.502196 44.991578 
L 235.285837 45.012676 
L 236.909096 45.604849 
L 237.580789 44.695196 
L 238.028584 44.90309 
L 238.420405 45.238781 
L 239.092098 45.412248 
L 239.595868 45.290025 
L 240.043663 45.157395 
L 240.323535 44.71123 
L 240.827305 43.583402 
L 241.275101 43.238955 
L 241.890819 43.14748 
L 242.28264 43.345375 
L 242.674461 43.505585 
L 243.066282 43.79905 
L 243.682001 44.112413 
L 243.849924 44.260539 
L 245.137336 45.833512 
L 246.088901 46.796783 
L 246.424747 47.006356 
L 248.048005 47.746898 
L 248.495801 47.714662 
L 249.391392 48.107712 
L 249.951136 48.162538 
L 250.286982 48.362711 
L 250.902701 48.934407 
L 252.078164 49.483946 
L 252.358036 49.588214 
L 252.637908 49.588437 
L 254.988834 50.070531 
L 255.212731 49.86049 
L 255.660527 49.624581 
L 255.996373 49.819808 
L 256.444169 50.169068 
L 256.891964 50.238219 
L 257.283785 50.103918 
L 257.563657 50.280704 
L 258.23535 50.582836 
L 258.907043 50.542306 
L 259.410813 50.081873 
L 259.74666 49.473804 
L 260.418353 48.176518 
L 260.754199 47.778328 
L 261.14602 47.295412 
L 261.369918 47.018205 
L 262.097585 45.923062 
L 262.545381 45.988122 
L 262.937202 46.149771 
L 263.776818 46.436658 
L 264.000716 46.466474 
L 265.512025 45.97939 
L 266.071769 45.385453 
L 266.799437 45.023985 
L 267.135283 44.524963 
L 267.47113 43.66946 
L 268.086848 42.16581 
L 268.758541 40.746036 
L 269.094388 40.36361 
L 269.37426 39.973335 
L 270.101928 38.901837 
L 270.773621 38.916788 
L 271.27739 39.181922 
L 271.893109 39.216587 
L 272.676751 39.686704 
L 274.859753 40.945942 
L 275.1956 40.950742 
L 275.69937 41.043932 
L 276.035216 41.220493 
L 276.59496 41.349178 
L 277.658474 41.357649 
L 278.218219 40.73445 
L 278.721988 39.900806 
L 279.561605 39.286934 
L 280.0094 39.138459 
L 280.681093 38.779512 
L 280.904991 38.720132 
L 281.520709 38.77031 
L 281.968505 38.648062 
L 282.92007 38.420838 
L 284.207482 38.274034 
L 284.487354 38.468698 
L 285.159047 38.904332 
L 285.438919 38.889461 
L 285.83074 38.690616 
L 286.614382 38.139187 
L 287.062177 37.267775 
L 288.349589 35.054431 
L 288.853359 34.501306 
L 289.301154 34.120712 
L 290.700515 33.636415 
L 291.65208 34.186166 
L 292.267798 34.577287 
L 292.995466 34.461627 
L 293.275338 34.313195 
L 293.55521 34.169272 
L 293.835082 34.093511 
L 294.842622 33.194877 
L 295.346392 32.303064 
L 295.570289 32.272871 
L 295.96211 32.376557 
L 296.633803 32.251927 
L 297.081599 32.149597 
L 297.697317 32.095619 
L 298.480959 31.963012 
L 299.208627 31.746396 
L 299.600448 31.773638 
L 300.440064 31.652365 
L 301.167731 31.773517 
L 301.951373 32.221811 
L 302.846964 32.787296 
L 303.462683 33.27314 
L 304.022427 33.453831 
L 304.302299 33.409881 
L 304.973992 32.953464 
L 306.933097 32.957716 
L 307.324918 33.156629 
L 308.052585 33.645919 
L 308.500381 33.664838 
L 308.780253 33.725787 
L 309.339997 33.912734 
L 309.675843 33.914249 
L 311.01923 33.635625 
L 311.634948 33.435088 
L 312.642488 33.947955 
L 313.034309 34.177947 
L 313.985874 34.884433 
L 314.32172 35.020318 
L 314.937439 35.020814 
L 315.497183 35.210158 
L 316.000953 35.290552 
L 316.448748 35.263452 
L 318.295904 34.690075 
L 318.911623 34.979251 
L 322.326063 38.012844 
L 322.829832 38.196047 
L 323.221653 38.292249 
L 323.501525 38.397886 
L 324.676988 37.924218 
L 325.068809 37.440094 
L 325.516605 36.396642 
L 326.300247 34.597196 
L 327.419735 32.85557 
L 327.699607 32.622681 
L 328.091428 32.532347 
L 328.707147 32.440078 
L 329.098968 32.585726 
L 329.37884 32.571132 
L 330.218456 32.087519 
L 330.722226 31.950499 
L 331.002098 32.057092 
L 332.457433 32.785811 
L 333.1851 33.21727 
L 333.68887 33.6048 
L 334.416538 33.950515 
L 335.424077 34.360953 
L 336.09577 34.440904 
L 336.431617 34.548869 
L 337.047335 34.716318 
L 337.60708 35.033992 
L 338.50267 35.47002 
L 340.405801 35.583196 
L 342.141008 35.225931 
L 343.204522 35.428273 
L 343.764266 35.62019 
L 344.212061 35.61308 
L 345.275575 35.155463 
L 346.003243 35.086452 
L 346.283115 34.950356 
L 347.402603 33.463514 
L 347.73845 33.184374 
L 349.585606 31.313906 
L 350.761069 29.809564 
L 351.376787 29.39244 
L 351.936532 29.074263 
L 352.216404 29.157423 
L 352.720173 29.36767 
L 353.05602 29.516721 
L 353.727713 29.867624 
L 354.735253 29.55158 
L 355.854741 29.823033 
L 356.358511 29.704784 
L 356.806306 29.791572 
L 357.198127 30.021418 
L 358.597488 30.975155 
L 359.437104 31.171343 
L 359.884899 31.263994 
L 360.612567 31.591433 
L 361.116337 31.786227 
L 361.452183 31.773857 
L 362.795569 32.132653 
L 363.579211 32.21858 
L 364.138955 32.387207 
L 364.754674 32.413345 
L 365.146495 32.394059 
L 365.482341 32.118955 
L 365.818188 31.616015 
L 366.545855 30.294066 
L 367.273523 29.970581 
L 367.609369 30.044696 
L 368.337037 30.464679 
L 369.792372 31.504838 
L 370.128218 31.474766 
L 370.967835 31.640409 
L 371.9194 31.984162 
L 372.479144 32.203357 
L 372.92694 32.367679 
L 373.374735 32.583302 
L 374.718121 33.294684 
L 377.125021 33.652598 
L 377.628791 33.793437 
L 379.308024 34.64769 
L 379.699845 34.562305 
L 380.539461 34.054837 
L 381.267128 34.101494 
L 381.938821 34.430892 
L 384.905466 36.260809 
L 385.521184 36.195353 
L 385.801056 36.148049 
L 386.696647 35.913311 
L 386.920545 35.775132 
L 387.256391 35.644617 
L 387.760161 35.567941 
L 388.263931 35.397317 
L 389.495368 34.516043 
L 389.77524 34.402397 
L 390.502908 34.077109 
L 391.062652 34.014963 
L 391.958243 34.338912 
L 392.573961 34.593454 
L 393.357603 34.515169 
L 394.812938 33.881704 
L 395.316708 33.405752 
L 395.876452 32.876704 
L 396.212299 32.674986 
L 397.275813 32.289092 
L 398.843097 32.188751 
L 400.130508 32.936447 
L 400.802201 33.279255 
L 401.305971 33.335894 
L 402.369485 33.983353 
L 402.929229 34.259031 
L 403.600922 34.407092 
L 403.936769 34.361112 
L 404.216641 34.157393 
L 404.944309 33.448584 
L 405.392104 33.083507 
L 406.063797 32.565555 
L 406.511592 32.158551 
L 406.847439 31.805858 
L 407.351209 31.594896 
L 407.854978 31.654241 
L 408.246799 31.58417 
L 408.63862 31.312684 
L 409.086416 31.071362 
L 409.814083 31.010079 
L 410.317853 31.179721 
L 411.773188 31.604505 
L 412.55683 31.529709 
L 413.284497 31.551503 
L 413.676318 31.620832 
L 415.131653 32.166689 
L 416.195167 32.799249 
L 416.586988 32.771684 
L 417.706477 32.816751 
L 418.825965 32.371863 
L 419.217786 32.155214 
L 419.889479 32.188576 
L 421.456763 32.720395 
L 421.736635 32.636756 
L 422.856123 31.934014 
L 423.247944 31.658081 
L 423.583791 31.756414 
L 424.871203 32.37976 
L 426.046665 33.146251 
L 426.662384 33.477911 
L 427.557975 34.00169 
L 429.293182 35.010444 
L 429.293182 35.010444 
" style="fill:none;stroke:#a60628;stroke-linecap:square;stroke-width:2;"/>
   </g>
   <g id="line2d_35">
    <path clip-path="url(#p3160d2f44e)" d="M 79.956818 283.15093 
L 80.068767 283.077114 
L 80.23669 282.821788 
L 80.796435 281.249146 
L 81.020332 281.452262 
L 81.24423 280.437896 
L 81.803974 276.252004 
L 82.363718 273.341371 
L 82.755539 272.672912 
L 82.867488 272.544803 
L 82.923463 272.57463 
L 83.14736 272.65482 
L 83.427232 271.61079 
L 83.65113 270.754816 
L 83.819053 270.792317 
L 83.931002 270.813148 
L 84.042951 270.871788 
L 84.266849 271.132443 
L 84.490746 270.393321 
L 84.770618 269.603847 
L 85.666209 268.230328 
L 86.673749 270.117828 
L 86.897646 270.382653 
L 86.953621 270.32814 
L 87.233493 270.170938 
L 87.401416 270.241433 
L 87.625314 270.102733 
L 88.073109 270.605913 
L 88.185058 270.682699 
L 88.297007 270.672317 
L 88.632853 270.530984 
L 89.024674 270.854876 
L 89.47247 270.469899 
L 89.584419 270.191242 
L 90.200137 267.898886 
L 90.256112 267.885445 
L 90.535984 267.43612 
L 90.703907 267.544186 
L 91.095728 267.911675 
L 91.263651 267.976211 
L 91.543523 267.658579 
L 91.655472 267.538684 
L 91.711447 267.59272 
L 91.87937 267.654478 
L 92.047293 267.518827 
L 92.271191 266.694289 
L 92.830935 262.607678 
L 93.054833 262.197803 
L 93.502628 260.684871 
L 93.838475 260.959511 
L 95.013938 263.034838 
L 95.181861 263.182289 
L 95.909528 264.281925 
L 96.133426 264.381314 
L 96.301349 264.21826 
L 96.413298 264.0729 
L 96.69317 263.586487 
L 97.084991 263.730881 
L 97.308889 263.972497 
L 98.484352 265.89811 
L 99.044096 266.701849 
L 99.267994 266.69669 
L 99.435917 266.637035 
L 99.659814 266.758676 
L 99.827738 266.513331 
L 100.163584 266.670957 
L 100.331508 266.612606 
L 100.499431 266.729604 
L 101.003201 267.305446 
L 101.730868 267.583404 
L 102.066715 267.165843 
L 102.570484 266.720848 
L 103.01828 266.626161 
L 103.354126 267.048097 
L 103.689973 267.213387 
L 103.913871 267.335411 
L 104.529589 267.683234 
L 104.977385 268.208942 
L 105.145308 268.349284 
L 105.369205 268.480522 
L 105.761026 268.495694 
L 105.872975 268.458463 
L 106.040899 268.421151 
L 106.376745 268.213968 
L 106.880515 267.495859 
L 107.440259 268.185408 
L 108.000003 268.588212 
L 108.111952 268.392493 
L 108.447799 267.588758 
L 108.951568 267.288194 
L 109.231441 266.886499 
L 109.623261 266.37372 
L 109.73521 266.375545 
L 110.071057 266.534258 
L 110.406903 266.381492 
L 111.190545 267.147294 
L 111.24652 267.161623 
L 112.030162 265.686089 
L 112.198085 265.733915 
L 112.533931 265.986547 
L 112.981727 266.338151 
L 113.429522 266.179667 
L 113.65342 266.047975 
L 113.821343 265.981068 
L 113.933292 265.969868 
L 114.101215 265.700011 
L 114.549011 264.634329 
L 114.996806 263.476536 
L 115.500576 262.680997 
L 115.836422 262.055717 
L 115.948371 261.900915 
L 116.396166 261.029378 
L 116.620064 260.862793 
L 117.011885 261.016656 
L 117.347732 261.302965 
L 117.515655 261.390703 
L 118.019425 262.055612 
L 118.747092 262.880442 
L 118.915015 262.912616 
L 119.194888 262.499645 
L 119.47476 262.0412 
L 119.586708 261.940269 
L 119.754632 261.794818 
L 121.098018 262.813707 
L 121.601788 262.581575 
L 122.273481 262.873546 
L 122.889199 262.646027 
L 123.504918 263.156576 
L 124.176611 263.746615 
L 124.400509 263.814684 
L 124.904279 264.291749 
L 125.128176 264.21642 
L 126.023767 263.175064 
L 126.247665 263.194336 
L 126.471562 263.405639 
L 127.982872 265.20737 
L 128.486641 265.470217 
L 128.934437 265.221486 
L 129.494181 265.309674 
L 129.830028 265.44871 
L 130.61367 265.252617 
L 131.565235 265.326876 
L 131.677184 265.302751 
L 131.957056 265.42787 
L 132.404851 265.255664 
L 132.684723 265.20171 
L 133.02057 265.384532 
L 133.692263 265.994351 
L 134.140058 265.991691 
L 134.9237 266.468404 
L 135.203572 266.421802 
L 136.267086 266.85404 
L 136.82683 267.214429 
L 137.162677 267.018655 
L 137.778395 266.275197 
L 138.002293 266.262558 
L 138.33814 266.261411 
L 138.729961 265.814226 
L 138.953858 265.466747 
L 139.177756 265.384243 
L 139.569577 265.461985 
L 139.905423 265.489104 
L 140.24127 265.657641 
L 140.465168 265.711973 
L 141.024912 265.382142 
L 141.304784 265.359294 
L 141.696605 265.219388 
L 142.256349 265.349084 
L 142.536221 265.449132 
L 142.928042 265.410277 
L 143.207914 265.434558 
L 144.607275 266.189889 
L 145.782738 265.430317 
L 146.454431 264.259921 
L 147.126124 263.961958 
L 147.46197 263.621225 
L 148.133663 263.841455 
L 148.357561 263.975447 
L 149.421075 264.437298 
L 149.812896 264.721904 
L 150.316666 264.97991 
L 150.484589 265.01961 
L 150.932384 264.676437 
L 151.212257 264.478304 
L 151.995898 264.570333 
L 152.219796 264.665388 
L 152.499668 264.665474 
L 152.723566 264.513238 
L 153.115387 264.220043 
L 153.619157 264.234896 
L 153.899029 264.288054 
L 154.29085 264.259287 
L 154.626696 264.360511 
L 154.850594 264.2312 
L 155.298389 264.050099 
L 155.69021 263.413964 
L 155.914108 263.089095 
L 156.361903 262.784074 
L 156.977622 262.699389 
L 157.369443 262.820215 
L 157.705289 262.707581 
L 157.985162 262.767837 
L 160.11219 263.939935 
L 160.392062 263.920832 
L 160.615959 263.936286 
L 162.631039 264.538465 
L 164.030399 265.37564 
L 164.366246 265.533467 
L 165.093913 265.979956 
L 165.42976 266.145646 
L 166.437299 266.68565 
L 166.885095 266.787039 
L 167.164967 266.780636 
L 169.23602 267.985909 
L 169.907713 267.969867 
L 170.411483 267.995525 
L 170.971227 268.122369 
L 171.307074 267.97409 
L 171.64292 267.670376 
L 172.482537 267.82687 
L 173.15423 268.012123 
L 173.658 267.964592 
L 174.161769 267.832921 
L 174.441641 267.600491 
L 174.777488 267.725658 
L 175.113334 267.801086 
L 176.008925 267.552854 
L 177.072439 266.084795 
L 177.46426 265.837559 
L 178.079979 265.195451 
L 178.303876 264.836127 
L 179.591288 262.650385 
L 179.87116 262.596525 
L 180.430905 262.760892 
L 181.774291 263.28259 
L 182.222086 263.48014 
L 183.061702 263.903363 
L 183.957293 264.219241 
L 184.29314 264.222654 
L 184.684961 264.151386 
L 185.300679 263.53734 
L 185.6925 263.063404 
L 186.028347 262.973039 
L 186.644065 262.724009 
L 186.979912 262.640187 
L 187.371733 262.660825 
L 187.651605 262.352648 
L 187.987451 261.911303 
L 188.435247 261.580956 
L 189.274863 261.350621 
L 189.554735 261.292289 
L 189.722658 261.146172 
L 190.114479 260.712781 
L 190.338377 260.432969 
L 190.842147 259.649504 
L 191.345917 259.435284 
L 192.185533 259.140494 
L 192.52138 258.925093 
L 193.752817 257.569814 
L 194.200612 257.001596 
L 194.648408 256.757825 
L 195.432049 256.529234 
L 195.879845 256.473924 
L 198.23077 255.184109 
L 199.070387 255.133703 
L 200.749619 254.914875 
L 201.197415 254.823368 
L 201.757159 254.855795 
L 201.981057 254.847425 
L 203.436392 255.032154 
L 203.716264 254.818251 
L 204.443931 253.838873 
L 204.835752 253.264015 
L 206.067189 252.972961 
L 206.626934 253.185645 
L 207.634473 253.818389 
L 208.194217 254.124499 
L 209.257731 254.730337 
L 210.489169 255.249045 
L 210.769041 255.096935 
L 211.104887 254.971201 
L 211.77658 255.119818 
L 214.463353 255.510603 
L 215.023097 255.203411 
L 215.470892 255.079911 
L 216.086611 255.03479 
L 216.534406 255.209169 
L 217.206099 255.483083 
L 217.653895 255.591521 
L 217.989741 255.544458 
L 218.941306 255.218247 
L 221.460155 255.408183 
L 222.0199 255.405224 
L 222.411721 255.458577 
L 223.083414 255.564313 
L 224.4268 256.205541 
L 224.874595 256.378157 
L 226.106032 256.682495 
L 226.553828 256.667543 
L 227.113572 256.894408 
L 228.121111 257.342362 
L 228.400984 257.32401 
L 228.73683 257.284428 
L 231.14373 257.622504 
L 231.591526 257.656231 
L 231.871398 257.572711 
L 232.431142 257.662081 
L 232.711014 257.639488 
L 233.886477 257.391416 
L 235.621684 258.056192 
L 237.748712 258.399344 
L 238.252482 258.122952 
L 238.532354 257.816071 
L 239.148072 256.933532 
L 239.707817 256.681091 
L 240.155612 256.615629 
L 240.827305 256.55293 
L 242.114717 256.422158 
L 243.010308 256.781765 
L 243.514077 256.795943 
L 244.297719 256.865017 
L 244.801489 256.777744 
L 245.137336 256.610559 
L 247.320338 256.583451 
L 247.880082 256.391364 
L 250.231008 256.575158 
L 250.958675 256.912073 
L 251.910241 257.22745 
L 252.190113 257.176425 
L 252.861806 256.696726 
L 253.477524 256.264427 
L 253.92532 256.255096 
L 256.668066 256.233334 
L 257.619632 255.805813 
L 258.403273 255.255658 
L 258.851069 254.914061 
L 259.298864 254.773539 
L 260.866148 254.826206 
L 261.090046 254.819672 
L 264.448511 255.527249 
L 264.784357 255.554454 
L 265.456051 255.679429 
L 265.95982 255.578489 
L 266.575539 254.813814 
L 267.135283 253.317662 
L 268.422695 249.719991 
L 268.758541 249.431949 
L 270.605697 248.767946 
L 271.221416 248.696218 
L 271.78116 248.713684 
L 272.732725 249.008157 
L 274.076111 249.332415 
L 275.363523 248.453226 
L 275.811318 248.274023 
L 277.042756 248.283684 
L 277.546526 248.435095 
L 278.666014 248.416663 
L 279.113809 248.457722 
L 279.673554 248.456577 
L 280.0094 248.098713 
L 280.904991 247.267177 
L 282.360326 246.31011 
L 282.92007 246.405432 
L 283.479814 246.193174 
L 284.151507 245.800037 
L 284.711251 245.411224 
L 285.32697 244.925486 
L 285.718791 244.594812 
L 286.110612 244.204802 
L 286.502433 244.151217 
L 286.950228 244.115652 
L 287.73387 243.887513 
L 289.24518 243.417538 
L 290.476617 243.361331 
L 291.65208 242.290203 
L 294.114954 240.887568 
L 295.122494 240.840567 
L 296.130033 241.104851 
L 296.913675 241.28513 
L 297.47342 241.336525 
L 298.648882 241.052138 
L 299.600448 241.363706 
L 300.496038 241.584197 
L 301.111757 241.568105 
L 301.839424 241.474645 
L 302.119297 241.405952 
L 302.567092 241.330085 
L 304.302299 241.496471 
L 307.492841 239.435009 
L 307.884662 239.459335 
L 308.612329 239.611126 
L 309.339997 239.747276 
L 310.291562 239.777984 
L 310.851306 239.461621 
L 311.299102 239.308369 
L 311.634948 238.966442 
L 311.91482 238.796511 
L 312.306641 238.641555 
L 312.978334 238.117128 
L 313.650027 238.190702 
L 314.32172 238.363843 
L 314.82549 238.452295 
L 315.553158 238.381811 
L 318.23993 238.276724 
L 318.967597 238.365819 
L 319.695265 238.381199 
L 321.094625 238.631134 
L 321.822293 238.915052 
L 322.270088 239.012882 
L 322.885807 239.050265 
L 324.117244 239.22026 
L 324.453091 239.214455 
L 325.012835 239.253006 
L 325.796477 239.152609 
L 326.804016 239.076757 
L 327.251812 239.076284 
L 328.87507 239.090675 
L 329.37884 239.133212 
L 331.78574 239.340503 
L 333.297049 238.292174 
L 334.304589 238.004015 
L 335.256154 237.448984 
L 336.59954 237.814168 
L 339.174363 238.508566 
L 339.902031 238.542622 
L 340.629698 238.526801 
L 341.581264 238.451527 
L 342.588803 238.642573 
L 343.82024 238.969304 
L 344.883754 238.924868 
L 345.163627 238.927108 
L 346.059217 238.974193 
L 346.786885 239.094598 
L 347.290655 239.101364 
L 348.969887 238.83674 
L 350.481197 237.96622 
L 350.873018 237.999695 
L 351.656659 238.046743 
L 352.384327 237.893345 
L 353.671739 238.090273 
L 353.951611 238.075293 
L 355.071099 238.350128 
L 356.134613 238.571354 
L 358.261641 238.239483 
L 360.108797 238.63907 
L 360.78049 238.685725 
L 361.340234 238.694523 
L 362.011927 238.676742 
L 362.795569 238.409183 
L 363.411288 238.247337 
L 363.971032 238.20827 
L 364.418827 238.297491 
L 364.866623 238.240151 
L 365.59429 238.10536 
L 366.210009 238.0676 
L 366.881702 238.166645 
L 368.113139 238.41134 
L 368.448986 238.453996 
L 369.792372 238.860057 
L 371.079784 238.99946 
L 371.527579 239.052163 
L 372.92694 239.241246 
L 373.542658 239.277568 
L 374.158377 239.315972 
L 374.997993 239.276069 
L 375.445788 239.305249 
L 376.22943 239.202548 
L 377.628791 238.578606 
L 380.595435 238.413449 
L 381.043231 238.439974 
L 381.938821 238.510182 
L 386.136903 239.485193 
L 386.808596 239.506566 
L 389.047573 239.603004 
L 389.551343 239.392004 
L 389.831215 239.276112 
L 390.670831 239.209836 
L 391.398499 239.280969 
L 392.853834 239.418254 
L 394.19722 239.322201 
L 394.812938 239.143743 
L 398.50725 237.219187 
L 400.354406 237.223453 
L 401.753767 237.251242 
L 402.593383 237.195611 
L 403.880795 237.098268 
L 408.022902 237.05181 
L 409.086416 237.242117 
L 410.485776 237.113138 
L 411.213444 237.244273 
L 412.500855 237.350862 
L 416.307116 237.841986 
L 416.754911 237.737477 
L 420.393249 238.19133 
L 421.064942 238.117934 
L 425.318998 238.290799 
L 426.214589 238.044203 
L 426.942256 237.963857 
L 427.557975 238.004554 
L 428.677463 238.231079 
L 429.293182 238.285494 
L 429.293182 238.285494 
" style="fill:none;stroke:#7a68a6;stroke-linecap:square;stroke-width:2;"/>
   </g>
   <g id="patch_3">
    <path d="M 62.49 295.98 
L 62.49 14.04 
" style="fill:none;stroke:#bcbcbc;stroke-linecap:square;stroke-linejoin:miter;stroke-width:0.8;"/>
   </g>
   <g id="patch_4">
    <path d="M 446.76 295.98 
L 446.76 14.04 
" style="fill:none;stroke:#bcbcbc;stroke-linecap:square;stroke-linejoin:miter;stroke-width:0.8;"/>
   </g>
   <g id="patch_5">
    <path d="M 62.49 295.98 
L 446.76 295.98 
" style="fill:none;stroke:#bcbcbc;stroke-linecap:square;stroke-linejoin:miter;stroke-width:0.8;"/>
   </g>
   <g id="patch_6">
    <path d="M 62.49 14.04 
L 446.76 14.04 
" style="fill:none;stroke:#bcbcbc;stroke-linecap:square;stroke-linejoin:miter;stroke-width:0.8;"/>
   </g>
   <g id="legend_1">
    <g id="patch_7">
     <path d="M 357.45 185.582344 
L 437.66 185.582344 
Q 440.26 185.582344 440.26 182.982344 
L 440.26 127.037656 
Q 440.26 124.437656 437.66 124.437656 
L 357.45 124.437656 
Q 354.85 124.437656 354.85 127.037656 
L 354.85 182.982344 
Q 354.85 185.582344 357.45 185.582344 
z
" style="fill:#eeeeee;opacity:0.8;stroke:#cccccc;stroke-linejoin:miter;stroke-width:0.5;"/>
    </g>
    <g id="line2d_36">
     <path d="M 360.05 134.965625 
L 386.05 134.965625 
" style="fill:none;stroke:#348abd;stroke-linecap:square;stroke-width:2;"/>
    </g>
    <g id="line2d_37"/>
    <g id="text_19">
     <!-- W ($\theta_1$) -->
     <defs>
      <path id="DejaVuSans-20"/>
      <path d="M 31 75.875 
Q 24.46875 64.65625 21.28125 53.65625 
Q 18.109375 42.671875 18.109375 31.390625 
Q 18.109375 20.125 21.3125 9.0625 
Q 24.515625 -2 31 -13.1875 
L 23.1875 -13.1875 
Q 15.875 -1.703125 12.234375 9.375 
Q 8.59375 20.453125 8.59375 31.390625 
Q 8.59375 42.28125 12.203125 53.3125 
Q 15.828125 64.359375 23.1875 75.875 
z
" id="DejaVuSans-28"/>
      <path d="M 16.109375 -1.125 
Q 11.578125 -1.125 8.84375 2.1875 
Q 6.109375 5.515625 5.046875 10.203125 
Q 4 14.890625 4 19.484375 
L 4 19.578125 
Q 4 24.5625 4.953125 29.921875 
Q 5.90625 35.296875 7.703125 40.640625 
Q 9.515625 46 11.625 50.203125 
Q 13.09375 53.125 15.40625 56.734375 
Q 17.71875 60.359375 20.578125 63.5 
Q 23.4375 66.65625 26.734375 68.578125 
Q 30.03125 70.515625 33.40625 70.515625 
L 33.5 70.515625 
Q 37.109375 70.515625 39.515625 68.5 
Q 41.9375 66.5 43.28125 63.375 
Q 44.625 60.25 45.15625 56.6875 
Q 45.703125 53.125 45.703125 49.90625 
Q 45.703125 42.328125 43.65625 34.4375 
Q 41.609375 26.5625 37.984375 19.1875 
Q 36.625 16.40625 34.203125 12.640625 
Q 31.78125 8.890625 29.078125 5.90625 
Q 26.375 2.9375 23 0.90625 
Q 19.625 -1.125 16.21875 -1.125 
z
M 16.3125 1.515625 
Q 19.625 1.515625 22.671875 5.046875 
Q 25.734375 8.59375 28.03125 13.640625 
Q 30.328125 18.703125 32.0625 24 
Q 33.796875 29.296875 34.625 33.015625 
L 14.203125 33.015625 
Q 12.640625 26.703125 11.765625 22.140625 
Q 10.890625 17.578125 10.890625 13.1875 
Q 10.890625 1.515625 16.3125 1.515625 
z
M 14.984375 36.53125 
L 35.5 36.53125 
Q 36.578125 40.921875 37.203125 43.875 
Q 37.84375 46.828125 38.28125 50.09375 
Q 38.71875 53.375 38.71875 56.203125 
Q 38.71875 67.921875 33.40625 67.921875 
Q 27.046875 67.921875 22.4375 57.6875 
Q 17.828125 47.46875 14.984375 36.53125 
z
" id="Cmmi10-b5"/>
      <path d="M 9.28125 0 
L 9.28125 3.515625 
Q 21.78125 3.515625 21.78125 6.6875 
L 21.78125 59.1875 
Q 16.609375 56.6875 8.6875 56.6875 
L 8.6875 60.203125 
Q 20.953125 60.203125 27.203125 66.609375 
L 28.609375 66.609375 
Q 28.953125 66.609375 29.265625 66.328125 
Q 29.59375 66.0625 29.59375 65.71875 
L 29.59375 6.6875 
Q 29.59375 3.515625 42.09375 3.515625 
L 42.09375 0 
z
" id="Cmr10-31"/>
      <path d="M 8.015625 75.875 
L 15.828125 75.875 
Q 23.140625 64.359375 26.78125 53.3125 
Q 30.421875 42.28125 30.421875 31.390625 
Q 30.421875 20.453125 26.78125 9.375 
Q 23.140625 -1.703125 15.828125 -13.1875 
L 8.015625 -13.1875 
Q 14.5 -2 17.703125 9.0625 
Q 20.90625 20.125 20.90625 31.390625 
Q 20.90625 42.671875 17.703125 53.65625 
Q 14.5 64.65625 8.015625 75.875 
z
" id="DejaVuSans-29"/>
     </defs>
     <g transform="translate(396.45 139.515625)scale(0.13 -0.13)">
      <use transform="translate(0 0.125)" xlink:href="#DejaVuSans-57"/>
      <use transform="translate(98.876953 0.125)" xlink:href="#DejaVuSans-20"/>
      <use transform="translate(130.664062 0.125)" xlink:href="#DejaVuSans-28"/>
      <use transform="translate(169.677734 0.125)" xlink:href="#Cmmi10-b5"/>
      <use transform="translate(216.601562 -16.88125)scale(0.7)" xlink:href="#Cmr10-31"/>
      <use transform="translate(257.978906 0.125)" xlink:href="#DejaVuSans-29"/>
     </g>
    </g>
    <g id="line2d_38">
     <path d="M 360.05 154.047187 
L 386.05 154.047187 
" style="fill:none;stroke:#a60628;stroke-linecap:square;stroke-width:2;"/>
    </g>
    <g id="line2d_39"/>
    <g id="text_20">
     <!-- W ($\theta_2$) -->
     <defs>
      <path d="M 4.984375 0 
L 4.984375 2.6875 
Q 4.984375 2.9375 5.171875 3.21875 
L 20.703125 20.40625 
Q 24.21875 24.21875 26.40625 26.796875 
Q 28.609375 29.390625 30.75 32.765625 
Q 32.90625 36.140625 34.15625 39.625 
Q 35.40625 43.109375 35.40625 47.015625 
Q 35.40625 51.125 33.890625 54.859375 
Q 32.375 58.59375 29.375 60.84375 
Q 26.375 63.09375 22.125 63.09375 
Q 17.78125 63.09375 14.3125 60.46875 
Q 10.84375 57.859375 9.421875 53.71875 
Q 9.8125 53.8125 10.5 53.8125 
Q 12.75 53.8125 14.328125 52.296875 
Q 15.921875 50.78125 15.921875 48.390625 
Q 15.921875 46.09375 14.328125 44.5 
Q 12.75 42.921875 10.5 42.921875 
Q 8.15625 42.921875 6.5625 44.546875 
Q 4.984375 46.1875 4.984375 48.390625 
Q 4.984375 52.15625 6.390625 55.4375 
Q 7.8125 58.734375 10.46875 61.296875 
Q 13.140625 63.875 16.484375 65.234375 
Q 19.828125 66.609375 23.578125 66.609375 
Q 29.296875 66.609375 34.21875 64.1875 
Q 39.15625 61.765625 42.03125 57.34375 
Q 44.921875 52.9375 44.921875 47.015625 
Q 44.921875 42.671875 43.015625 38.765625 
Q 41.109375 34.859375 38.125 31.65625 
Q 35.15625 28.46875 30.515625 24.40625 
Q 25.875 20.359375 24.421875 19 
L 13.09375 8.109375 
L 22.703125 8.109375 
Q 29.78125 8.109375 34.546875 8.21875 
Q 39.3125 8.34375 39.59375 8.59375 
Q 40.765625 9.859375 42 17.828125 
L 44.921875 17.828125 
L 42.09375 0 
z
" id="Cmr10-32"/>
     </defs>
     <g transform="translate(396.45 158.597187)scale(0.13 -0.13)">
      <use transform="translate(0 0.125)" xlink:href="#DejaVuSans-57"/>
      <use transform="translate(98.876953 0.125)" xlink:href="#DejaVuSans-20"/>
      <use transform="translate(130.664062 0.125)" xlink:href="#DejaVuSans-28"/>
      <use transform="translate(169.677734 0.125)" xlink:href="#Cmmi10-b5"/>
      <use transform="translate(216.601562 -16.88125)scale(0.7)" xlink:href="#Cmr10-32"/>
      <use transform="translate(257.978906 0.125)" xlink:href="#DejaVuSans-29"/>
     </g>
    </g>
    <g id="line2d_40">
     <path d="M 360.05 173.12875 
L 386.05 173.12875 
" style="fill:none;stroke:#7a68a6;stroke-linecap:square;stroke-width:2;"/>
    </g>
    <g id="line2d_41"/>
    <g id="text_21">
     <!-- W ($\theta_3$) -->
     <defs>
      <path d="M 9.515625 7.71875 
Q 11.859375 4.296875 15.8125 2.640625 
Q 19.78125 0.984375 24.3125 0.984375 
Q 30.125 0.984375 32.5625 5.9375 
Q 35.015625 10.890625 35.015625 17.1875 
Q 35.015625 20.015625 34.5 22.84375 
Q 33.984375 25.6875 32.765625 28.125 
Q 31.546875 30.5625 29.421875 32.03125 
Q 27.296875 33.5 24.21875 33.5 
L 17.578125 33.5 
Q 16.703125 33.5 16.703125 34.421875 
L 16.703125 35.296875 
Q 16.703125 36.078125 17.578125 36.078125 
L 23.09375 36.53125 
Q 26.609375 36.53125 28.921875 39.15625 
Q 31.25 41.796875 32.328125 45.578125 
Q 33.40625 49.359375 33.40625 52.78125 
Q 33.40625 57.5625 31.15625 60.640625 
Q 28.90625 63.71875 24.3125 63.71875 
Q 20.515625 63.71875 17.046875 62.28125 
Q 13.578125 60.84375 11.53125 57.90625 
Q 11.71875 57.953125 11.859375 57.984375 
Q 12.015625 58.015625 12.203125 58.015625 
Q 14.453125 58.015625 15.96875 56.453125 
Q 17.484375 54.890625 17.484375 52.6875 
Q 17.484375 50.53125 15.96875 48.96875 
Q 14.453125 47.40625 12.203125 47.40625 
Q 10.015625 47.40625 8.453125 48.96875 
Q 6.890625 50.53125 6.890625 52.6875 
Q 6.890625 56.984375 9.46875 60.15625 
Q 12.0625 63.328125 16.140625 64.96875 
Q 20.21875 66.609375 24.3125 66.609375 
Q 27.34375 66.609375 30.703125 65.703125 
Q 34.078125 64.796875 36.8125 63.109375 
Q 39.546875 61.421875 41.28125 58.78125 
Q 43.015625 56.15625 43.015625 52.78125 
Q 43.015625 48.578125 41.140625 45.015625 
Q 39.265625 41.453125 35.984375 38.859375 
Q 32.71875 36.28125 28.8125 35.015625 
Q 33.15625 34.1875 37.0625 31.734375 
Q 40.96875 29.296875 43.328125 25.484375 
Q 45.703125 21.6875 45.703125 17.28125 
Q 45.703125 11.765625 42.671875 7.296875 
Q 39.65625 2.828125 34.71875 0.3125 
Q 29.78125 -2.203125 24.3125 -2.203125 
Q 19.625 -2.203125 14.90625 -0.40625 
Q 10.203125 1.375 7.203125 4.9375 
Q 4.203125 8.5 4.203125 13.484375 
Q 4.203125 15.96875 5.859375 17.625 
Q 7.515625 19.28125 10.015625 19.28125 
Q 11.625 19.28125 12.96875 18.53125 
Q 14.3125 17.78125 15.0625 16.40625 
Q 15.828125 15.046875 15.828125 13.484375 
Q 15.828125 11.03125 14.109375 9.375 
Q 12.40625 7.71875 10.015625 7.71875 
z
" id="Cmr10-33"/>
     </defs>
     <g transform="translate(396.45 177.67875)scale(0.13 -0.13)">
      <use transform="translate(0 0.125)" xlink:href="#DejaVuSans-57"/>
      <use transform="translate(98.876953 0.125)" xlink:href="#DejaVuSans-20"/>
      <use transform="translate(130.664062 0.125)" xlink:href="#DejaVuSans-28"/>
      <use transform="translate(169.677734 0.125)" xlink:href="#Cmmi10-b5"/>
      <use transform="translate(216.601562 -16.88125)scale(0.7)" xlink:href="#Cmr10-33"/>
      <use transform="translate(257.978906 0.125)" xlink:href="#DejaVuSans-29"/>
     </g>
    </g>
   </g>
  </g>
 </g>
 <defs>
  <clipPath id="p3160d2f44e">
   <rect height="281.94" width="384.27" x="62.49" y="14.04"/>
  </clipPath>
 </defs>
</svg>
