<?xml version='1.0' encoding='ASCII' standalone='yes'?>
<svg xmlns:xlink="http://www.w3.org/1999/xlink" xmlns="http://www.w3.org/2000/svg" version="1.1" width="460.8px" viewBox="0 0 460.8px 345.6px" height="345.6px">
  <g>
    <g><defs>
  <style type="text/css">
*{stroke-linecap:butt;stroke-linejoin:round;}
  </style>
 </defs>
 <g id="figure_1">
  <g id="patch_1">
   <path d="M 0 345.6  L 460.8 345.6  L 460.8 0  L 0 0  z " style="fill:#ffffff;"/>
  </g>
  <g id="axes_1">
   <g id="patch_2">
    <path d="M 60.41 303.64  L 406.69 303.64  L 406.69 14.999492  L 60.41 14.999492  z " style="fill:#ffffff;"/>
   </g>
   <g id="matplotlib.axis_1">
    <g id="xtick_1">
     <g id="line2d_1">
      <defs>
       <path d="M 0 0  L 0 3.5  " id="m7a70644998" style="stroke:#000000;stroke-width:0.8;"/>
      </defs>
      <g>
       <use style="stroke:#000000;stroke-width:0.8;" x="60.41" xlink:href="#m7a70644998" y="303.64"/>
      </g>
     </g>
     <g id="text_1">
      <!-- 0 -->
      <defs>
       <path d="M 31.78125 66.40625  Q 24.171875 66.40625 20.328125 58.90625  Q 16.5 51.421875 16.5 36.375  Q 16.5 21.390625 20.328125 13.890625  Q 24.171875 6.390625 31.78125 6.390625  Q 39.453125 6.390625 43.28125 13.890625  Q 47.125 21.390625 47.125 36.375  Q 47.125 51.421875 43.28125 58.90625  Q 39.453125 66.40625 31.78125 66.40625  z M 31.78125 74.21875  Q 44.046875 74.21875 50.515625 64.515625  Q 56.984375 54.828125 56.984375 36.375  Q 56.984375 17.96875 50.515625 8.265625  Q 44.046875 -1.421875 31.78125 -1.421875  Q 19.53125 -1.421875 13.0625 8.265625  Q 6.59375 17.96875 6.59375 36.375  Q 6.59375 54.828125 13.0625 64.515625  Q 19.53125 74.21875 31.78125 74.21875  z " id="DejaVuSans-30"/>
      </defs>
      <g transform="translate(57.22875 318.238437)scale(0.1 -0.1)">
       <use xlink:href="#DejaVuSans-30"/>
      </g>
     </g>
    </g>
    <g id="xtick_2">
     <g id="line2d_2">
      <g>
       <use style="stroke:#000000;stroke-width:0.8;" x="109.878571" xlink:href="#m7a70644998" y="303.64"/>
      </g>
     </g>
     <g id="text_2">
      <!-- 200 -->
      <defs>
       <path d="M 19.1875 8.296875  L 53.609375 8.296875  L 53.609375 0  L 7.328125 0  L 7.328125 8.296875  Q 12.9375 14.109375 22.625 23.890625  Q 32.328125 33.6875 34.8125 36.53125  Q 39.546875 41.84375 41.421875 45.53125  Q 43.3125 49.21875 43.3125 52.78125  Q 43.3125 58.59375 39.234375 62.25  Q 35.15625 65.921875 28.609375 65.921875  Q 23.96875 65.921875 18.8125 64.3125  Q 13.671875 62.703125 7.8125 59.421875  L 7.8125 69.390625  Q 13.765625 71.78125 18.9375 73  Q 24.125 74.21875 28.421875 74.21875  Q 39.75 74.21875 46.484375 68.546875  Q 53.21875 62.890625 53.21875 53.421875  Q 53.21875 48.921875 51.53125 44.890625  Q 49.859375 40.875 45.40625 35.40625  Q 44.1875 33.984375 37.640625 27.21875  Q 31.109375 20.453125 19.1875 8.296875  z " id="DejaVuSans-32"/>
      </defs>
      <g transform="translate(100.334821 318.238437)scale(0.1 -0.1)">
       <use xlink:href="#DejaVuSans-32"/>
       <use x="63.623047" xlink:href="#DejaVuSans-30"/>
       <use x="127.246094" xlink:href="#DejaVuSans-30"/>
      </g>
     </g>
    </g>
    <g id="xtick_3">
     <g id="line2d_3">
      <g>
       <use style="stroke:#000000;stroke-width:0.8;" x="159.347143" xlink:href="#m7a70644998" y="303.64"/>
      </g>
     </g>
     <g id="text_3">
      <!-- 400 -->
      <defs>
       <path d="M 37.796875 64.3125  L 12.890625 25.390625  L 37.796875 25.390625  z M 35.203125 72.90625  L 47.609375 72.90625  L 47.609375 25.390625  L 58.015625 25.390625  L 58.015625 17.1875  L 47.609375 17.1875  L 47.609375 0  L 37.796875 0  L 37.796875 17.1875  L 4.890625 17.1875  L 4.890625 26.703125  z " id="DejaVuSans-34"/>
      </defs>
      <g transform="translate(149.803393 318.238437)scale(0.1 -0.1)">
       <use xlink:href="#DejaVuSans-34"/>
       <use x="63.623047" xlink:href="#DejaVuSans-30"/>
       <use x="127.246094" xlink:href="#DejaVuSans-30"/>
      </g>
     </g>
    </g>
    <g id="xtick_4">
     <g id="line2d_4">
      <g>
       <use style="stroke:#000000;stroke-width:0.8;" x="208.815714" xlink:href="#m7a70644998" y="303.64"/>
      </g>
     </g>
     <g id="text_4">
      <!-- 600 -->
      <defs>
       <path d="M 33.015625 40.375  Q 26.375 40.375 22.484375 35.828125  Q 18.609375 31.296875 18.609375 23.390625  Q 18.609375 15.53125 22.484375 10.953125  Q 26.375 6.390625 33.015625 6.390625  Q 39.65625 6.390625 43.53125 10.953125  Q 47.40625 15.53125 47.40625 23.390625  Q 47.40625 31.296875 43.53125 35.828125  Q 39.65625 40.375 33.015625 40.375  z M 52.59375 71.296875  L 52.59375 62.3125  Q 48.875 64.0625 45.09375 64.984375  Q 41.3125 65.921875 37.59375 65.921875  Q 27.828125 65.921875 22.671875 59.328125  Q 17.53125 52.734375 16.796875 39.40625  Q 19.671875 43.65625 24.015625 45.921875  Q 28.375 48.1875 33.59375 48.1875  Q 44.578125 48.1875 50.953125 41.515625  Q 57.328125 34.859375 57.328125 23.390625  Q 57.328125 12.15625 50.6875 5.359375  Q 44.046875 -1.421875 33.015625 -1.421875  Q 20.359375 -1.421875 13.671875 8.265625  Q 6.984375 17.96875 6.984375 36.375  Q 6.984375 53.65625 15.1875 63.9375  Q 23.390625 74.21875 37.203125 74.21875  Q 40.921875 74.21875 44.703125 73.484375  Q 48.484375 72.75 52.59375 71.296875  z " id="DejaVuSans-36"/>
      </defs>
      <g transform="translate(199.271964 318.238437)scale(0.1 -0.1)">
       <use xlink:href="#DejaVuSans-36"/>
       <use x="63.623047" xlink:href="#DejaVuSans-30"/>
       <use x="127.246094" xlink:href="#DejaVuSans-30"/>
      </g>
     </g>
    </g>
    <g id="xtick_5">
     <g id="line2d_5">
      <g>
       <use style="stroke:#000000;stroke-width:0.8;" x="258.284286" xlink:href="#m7a70644998" y="303.64"/>
      </g>
     </g>
     <g id="text_5">
      <!-- 800 -->
      <defs>
       <path d="M 31.78125 34.625  Q 24.75 34.625 20.71875 30.859375  Q 16.703125 27.09375 16.703125 20.515625  Q 16.703125 13.921875 20.71875 10.15625  Q 24.75 6.390625 31.78125 6.390625  Q 38.8125 6.390625 42.859375 10.171875  Q 46.921875 13.96875 46.921875 20.515625  Q 46.921875 27.09375 42.890625 30.859375  Q 38.875 34.625 31.78125 34.625  z M 21.921875 38.8125  Q 15.578125 40.375 12.03125 44.71875  Q 8.5 49.078125 8.5 55.328125  Q 8.5 64.0625 14.71875 69.140625  Q 20.953125 74.21875 31.78125 74.21875  Q 42.671875 74.21875 48.875 69.140625  Q 55.078125 64.0625 55.078125 55.328125  Q 55.078125 49.078125 51.53125 44.71875  Q 48 40.375 41.703125 38.8125  Q 48.828125 37.15625 52.796875 32.3125  Q 56.78125 27.484375 56.78125 20.515625  Q 56.78125 9.90625 50.3125 4.234375  Q 43.84375 -1.421875 31.78125 -1.421875  Q 19.734375 -1.421875 13.25 4.234375  Q 6.78125 9.90625 6.78125 20.515625  Q 6.78125 27.484375 10.78125 32.3125  Q 14.796875 37.15625 21.921875 38.8125  z M 18.3125 54.390625  Q 18.3125 48.734375 21.84375 45.5625  Q 25.390625 42.390625 31.78125 42.390625  Q 38.140625 42.390625 41.71875 45.5625  Q 45.3125 48.734375 45.3125 54.390625  Q 45.3125 60.0625 41.71875 63.234375  Q 38.140625 66.40625 31.78125 66.40625  Q 25.390625 66.40625 21.84375 63.234375  Q 18.3125 60.0625 18.3125 54.390625  z " id="DejaVuSans-38"/>
      </defs>
      <g transform="translate(248.740536 318.238437)scale(0.1 -0.1)">
       <use xlink:href="#DejaVuSans-38"/>
       <use x="63.623047" xlink:href="#DejaVuSans-30"/>
       <use x="127.246094" xlink:href="#DejaVuSans-30"/>
      </g>
     </g>
    </g>
    <g id="xtick_6">
     <g id="line2d_6">
      <g>
       <use style="stroke:#000000;stroke-width:0.8;" x="307.752857" xlink:href="#m7a70644998" y="303.64"/>
      </g>
     </g>
     <g id="text_6">
      <!-- 1000 -->
      <defs>
       <path d="M 12.40625 8.296875  L 28.515625 8.296875  L 28.515625 63.921875  L 10.984375 60.40625  L 10.984375 69.390625  L 28.421875 72.90625  L 38.28125 72.90625  L 38.28125 8.296875  L 54.390625 8.296875  L 54.390625 0  L 12.40625 0  z " id="DejaVuSans-31"/>
      </defs>
      <g transform="translate(295.027857 318.238437)scale(0.1 -0.1)">
       <use xlink:href="#DejaVuSans-31"/>
       <use x="63.623047" xlink:href="#DejaVuSans-30"/>
       <use x="127.246094" xlink:href="#DejaVuSans-30"/>
       <use x="190.869141" xlink:href="#DejaVuSans-30"/>
      </g>
     </g>
    </g>
    <g id="xtick_7">
     <g id="line2d_7">
      <g>
       <use style="stroke:#000000;stroke-width:0.8;" x="357.221429" xlink:href="#m7a70644998" y="303.64"/>
      </g>
     </g>
     <g id="text_7">
      <!-- 1200 -->
      <g transform="translate(344.496429 318.238437)scale(0.1 -0.1)">
       <use xlink:href="#DejaVuSans-31"/>
       <use x="63.623047" xlink:href="#DejaVuSans-32"/>
       <use x="127.246094" xlink:href="#DejaVuSans-30"/>
       <use x="190.869141" xlink:href="#DejaVuSans-30"/>
      </g>
     </g>
    </g>
    <g id="xtick_8">
     <g id="line2d_8">
      <g>
       <use style="stroke:#000000;stroke-width:0.8;" x="406.69" xlink:href="#m7a70644998" y="303.64"/>
      </g>
     </g>
     <g id="text_8">
      <!-- 1400 -->
      <g transform="translate(393.965 318.238437)scale(0.1 -0.1)">
       <use xlink:href="#DejaVuSans-31"/>
       <use x="63.623047" xlink:href="#DejaVuSans-34"/>
       <use x="127.246094" xlink:href="#DejaVuSans-30"/>
       <use x="190.869141" xlink:href="#DejaVuSans-30"/>
      </g>
     </g>
    </g>
    <g id="text_9">
     <!-- Distance (&#181;m) -->
     <defs>
      <path d="M 19.671875 64.796875  L 19.671875 8.109375  L 31.59375 8.109375  Q 46.6875 8.109375 53.6875 14.9375  Q 60.6875 21.78125 60.6875 36.53125  Q 60.6875 51.171875 53.6875 57.984375  Q 46.6875 64.796875 31.59375 64.796875  z M 9.8125 72.90625  L 30.078125 72.90625  Q 51.265625 72.90625 61.171875 64.09375  Q 71.09375 55.28125 71.09375 36.53125  Q 71.09375 17.671875 61.125 8.828125  Q 51.171875 0 30.078125 0  L 9.8125 0  z " id="DejaVuSans-44"/>
      <path d="M 9.421875 54.6875  L 18.40625 54.6875  L 18.40625 0  L 9.421875 0  z M 9.421875 75.984375  L 18.40625 75.984375  L 18.40625 64.59375  L 9.421875 64.59375  z " id="DejaVuSans-69"/>
      <path d="M 44.28125 53.078125  L 44.28125 44.578125  Q 40.484375 46.53125 36.375 47.5  Q 32.28125 48.484375 27.875 48.484375  Q 21.1875 48.484375 17.84375 46.4375  Q 14.5 44.390625 14.5 40.28125  Q 14.5 37.15625 16.890625 35.375  Q 19.28125 33.59375 26.515625 31.984375  L 29.59375 31.296875  Q 39.15625 29.25 43.1875 25.515625  Q 47.21875 21.78125 47.21875 15.09375  Q 47.21875 7.46875 41.1875 3.015625  Q 35.15625 -1.421875 24.609375 -1.421875  Q 20.21875 -1.421875 15.453125 -0.5625  Q 10.6875 0.296875 5.421875 2  L 5.421875 11.28125  Q 10.40625 8.6875 15.234375 7.390625  Q 20.0625 6.109375 24.8125 6.109375  Q 31.15625 6.109375 34.5625 8.28125  Q 37.984375 10.453125 37.984375 14.40625  Q 37.984375 18.0625 35.515625 20.015625  Q 33.0625 21.96875 24.703125 23.78125  L 21.578125 24.515625  Q 13.234375 26.265625 9.515625 29.90625  Q 5.8125 33.546875 5.8125 39.890625  Q 5.8125 47.609375 11.28125 51.796875  Q 16.75 56 26.8125 56  Q 31.78125 56 36.171875 55.265625  Q 40.578125 54.546875 44.28125 53.078125  z " id="DejaVuSans-73"/>
      <path d="M 18.3125 70.21875  L 18.3125 54.6875  L 36.8125 54.6875  L 36.8125 47.703125  L 18.3125 47.703125  L 18.3125 18.015625  Q 18.3125 11.328125 20.140625 9.421875  Q 21.96875 7.515625 27.59375 7.515625  L 36.8125 7.515625  L 36.8125 0  L 27.59375 0  Q 17.1875 0 13.234375 3.875  Q 9.28125 7.765625 9.28125 18.015625  L 9.28125 47.703125  L 2.6875 47.703125  L 2.6875 54.6875  L 9.28125 54.6875  L 9.28125 70.21875  z " id="DejaVuSans-74"/>
      <path d="M 34.28125 27.484375  Q 23.390625 27.484375 19.1875 25  Q 14.984375 22.515625 14.984375 16.5  Q 14.984375 11.71875 18.140625 8.90625  Q 21.296875 6.109375 26.703125 6.109375  Q 34.1875 6.109375 38.703125 11.40625  Q 43.21875 16.703125 43.21875 25.484375  L 43.21875 27.484375  z M 52.203125 31.203125  L 52.203125 0  L 43.21875 0  L 43.21875 8.296875  Q 40.140625 3.328125 35.546875 0.953125  Q 30.953125 -1.421875 24.3125 -1.421875  Q 15.921875 -1.421875 10.953125 3.296875  Q 6 8.015625 6 15.921875  Q 6 25.140625 12.171875 29.828125  Q 18.359375 34.515625 30.609375 34.515625  L 43.21875 34.515625  L 43.21875 35.40625  Q 43.21875 41.609375 39.140625 45  Q 35.0625 48.390625 27.6875 48.390625  Q 23 48.390625 18.546875 47.265625  Q 14.109375 46.140625 10.015625 43.890625  L 10.015625 52.203125  Q 14.9375 54.109375 19.578125 55.046875  Q 24.21875 56 28.609375 56  Q 40.484375 56 46.34375 49.84375  Q 52.203125 43.703125 52.203125 31.203125  z " id="DejaVuSans-61"/>
      <path d="M 54.890625 33.015625  L 54.890625 0  L 45.90625 0  L 45.90625 32.71875  Q 45.90625 40.484375 42.875 44.328125  Q 39.84375 48.1875 33.796875 48.1875  Q 26.515625 48.1875 22.3125 43.546875  Q 18.109375 38.921875 18.109375 30.90625  L 18.109375 0  L 9.078125 0  L 9.078125 54.6875  L 18.109375 54.6875  L 18.109375 46.1875  Q 21.34375 51.125 25.703125 53.5625  Q 30.078125 56 35.796875 56  Q 45.21875 56 50.046875 50.171875  Q 54.890625 44.34375 54.890625 33.015625  z " id="DejaVuSans-6e"/>
      <path d="M 48.78125 52.59375  L 48.78125 44.1875  Q 44.96875 46.296875 41.140625 47.34375  Q 37.3125 48.390625 33.40625 48.390625  Q 24.65625 48.390625 19.8125 42.84375  Q 14.984375 37.3125 14.984375 27.296875  Q 14.984375 17.28125 19.8125 11.734375  Q 24.65625 6.203125 33.40625 6.203125  Q 37.3125 6.203125 41.140625 7.25  Q 44.96875 8.296875 48.78125 10.40625  L 48.78125 2.09375  Q 45.015625 0.34375 40.984375 -0.53125  Q 36.96875 -1.421875 32.421875 -1.421875  Q 20.0625 -1.421875 12.78125 6.34375  Q 5.515625 14.109375 5.515625 27.296875  Q 5.515625 40.671875 12.859375 48.328125  Q 20.21875 56 33.015625 56  Q 37.15625 56 41.109375 55.140625  Q 45.0625 54.296875 48.78125 52.59375  z " id="DejaVuSans-63"/>
      <path d="M 56.203125 29.59375  L 56.203125 25.203125  L 14.890625 25.203125  Q 15.484375 15.921875 20.484375 11.0625  Q 25.484375 6.203125 34.421875 6.203125  Q 39.59375 6.203125 44.453125 7.46875  Q 49.3125 8.734375 54.109375 11.28125  L 54.109375 2.78125  Q 49.265625 0.734375 44.1875 -0.34375  Q 39.109375 -1.421875 33.890625 -1.421875  Q 20.796875 -1.421875 13.15625 6.1875  Q 5.515625 13.8125 5.515625 26.8125  Q 5.515625 40.234375 12.765625 48.109375  Q 20.015625 56 32.328125 56  Q 43.359375 56 49.78125 48.890625  Q 56.203125 41.796875 56.203125 29.59375  z M 47.21875 32.234375  Q 47.125 39.59375 43.09375 43.984375  Q 39.0625 48.390625 32.421875 48.390625  Q 24.90625 48.390625 20.390625 44.140625  Q 15.875 39.890625 15.1875 32.171875  z " id="DejaVuSans-65"/>
      <path id="DejaVuSans-20"/>
      <path d="M 31 75.875  Q 24.46875 64.65625 21.28125 53.65625  Q 18.109375 42.671875 18.109375 31.390625  Q 18.109375 20.125 21.3125 9.0625  Q 24.515625 -2 31 -13.1875  L 23.1875 -13.1875  Q 15.875 -1.703125 12.234375 9.375  Q 8.59375 20.453125 8.59375 31.390625  Q 8.59375 42.28125 12.203125 53.3125  Q 15.828125 64.359375 23.1875 75.875  z " id="DejaVuSans-28"/>
      <path d="M 8.5 -20.796875  L 8.5 54.6875  L 17.484375 54.6875  L 17.484375 20.703125  Q 17.484375 13.625 20.84375 10  Q 24.21875 6.390625 30.8125 6.390625  Q 38.03125 6.390625 41.671875 10.484375  Q 45.3125 14.59375 45.3125 22.796875  L 45.3125 54.6875  L 54.296875 54.6875  L 54.296875 12.59375  Q 54.296875 9.671875 55.140625 8.28125  Q 56 6.890625 57.8125 6.890625  Q 58.25 6.890625 59.03125 7.15625  Q 59.8125 7.421875 61.1875 8.015625  L 61.1875 0.78125  Q 59.1875 -0.34375 57.390625 -0.875  Q 55.609375 -1.421875 53.90625 -1.421875  Q 50.53125 -1.421875 48.53125 0.484375  Q 46.53125 2.390625 45.796875 6.296875  Q 43.359375 2.4375 39.8125 0.5  Q 36.28125 -1.421875 31.5 -1.421875  Q 26.515625 -1.421875 23.015625 0.484375  Q 19.53125 2.390625 17.484375 6.203125  L 17.484375 -20.796875  z " id="DejaVuSans-b5"/>
      <path d="M 52 44.1875  Q 55.375 50.25 60.0625 53.125  Q 64.75 56 71.09375 56  Q 79.640625 56 84.28125 50.015625  Q 88.921875 44.046875 88.921875 33.015625  L 88.921875 0  L 79.890625 0  L 79.890625 32.71875  Q 79.890625 40.578125 77.09375 44.375  Q 74.3125 48.1875 68.609375 48.1875  Q 61.625 48.1875 57.5625 43.546875  Q 53.515625 38.921875 53.515625 30.90625  L 53.515625 0  L 44.484375 0  L 44.484375 32.71875  Q 44.484375 40.625 41.703125 44.40625  Q 38.921875 48.1875 33.109375 48.1875  Q 26.21875 48.1875 22.15625 43.53125  Q 18.109375 38.875 18.109375 30.90625  L 18.109375 0  L 9.078125 0  L 9.078125 54.6875  L 18.109375 54.6875  L 18.109375 46.1875  Q 21.1875 51.21875 25.484375 53.609375  Q 29.78125 56 35.6875 56  Q 41.65625 56 45.828125 52.96875  Q 50 49.953125 52 44.1875  z " id="DejaVuSans-6d"/>
      <path d="M 8.015625 75.875  L 15.828125 75.875  Q 23.140625 64.359375 26.78125 53.3125  Q 30.421875 42.28125 30.421875 31.390625  Q 30.421875 20.453125 26.78125 9.375  Q 23.140625 -1.703125 15.828125 -13.1875  L 8.015625 -13.1875  Q 14.5 -2 17.703125 9.0625  Q 20.90625 20.125 20.90625 31.390625  Q 20.90625 42.671875 17.703125 53.65625  Q 14.5 64.65625 8.015625 75.875  z " id="DejaVuSans-29"/>
     </defs>
     <g transform="translate(198.145313 331.916562)scale(0.1 -0.1)">
      <use xlink:href="#DejaVuSans-44"/>
      <use x="77.001953" xlink:href="#DejaVuSans-69"/>
      <use x="104.785156" xlink:href="#DejaVuSans-73"/>
      <use x="156.884766" xlink:href="#DejaVuSans-74"/>
      <use x="196.09375" xlink:href="#DejaVuSans-61"/>
      <use x="257.373047" xlink:href="#DejaVuSans-6e"/>
      <use x="320.751953" xlink:href="#DejaVuSans-63"/>
      <use x="375.732422" xlink:href="#DejaVuSans-65"/>
      <use x="437.255859" xlink:href="#DejaVuSans-20"/>
      <use x="469.042969" xlink:href="#DejaVuSans-28"/>
      <use x="508.056641" xlink:href="#DejaVuSans-b5"/>
      <use x="571.679688" xlink:href="#DejaVuSans-6d"/>
      <use x="669.091797" xlink:href="#DejaVuSans-29"/>
     </g>
    </g>
   </g>
   <g id="matplotlib.axis_2">
    <g id="ytick_1">
     <g id="line2d_9">
      <defs>
       <path d="M 0 0  L -3.5 0  " id="ma418fb8faf" style="stroke:#000000;stroke-width:0.8;"/>
      </defs>
      <g>
       <use style="stroke:#000000;stroke-width:0.8;" x="60.41" xlink:href="#ma418fb8faf" y="303.641762"/>
      </g>
     </g>
     <g id="text_10">
      <!-- 0.000 -->
      <defs>
       <path d="M 10.6875 12.40625  L 21 12.40625  L 21 0  L 10.6875 0  z " id="DejaVuSans-2e"/>
      </defs>
      <g transform="translate(24.781875 307.440981)scale(0.1 -0.1)">
       <use xlink:href="#DejaVuSans-30"/>
       <use x="63.623047" xlink:href="#DejaVuSans-2e"/>
       <use x="95.410156" xlink:href="#DejaVuSans-30"/>
       <use x="159.033203" xlink:href="#DejaVuSans-30"/>
       <use x="222.65625" xlink:href="#DejaVuSans-30"/>
      </g>
     </g>
    </g>
    <g id="ytick_2">
     <g id="line2d_10">
      <g>
       <use style="stroke:#000000;stroke-width:0.8;" x="60.41" xlink:href="#ma418fb8faf" y="265.654946"/>
      </g>
     </g>
     <g id="text_11">
      <!-- 0.005 -->
      <defs>
       <path d="M 10.796875 72.90625  L 49.515625 72.90625  L 49.515625 64.59375  L 19.828125 64.59375  L 19.828125 46.734375  Q 21.96875 47.46875 24.109375 47.828125  Q 26.265625 48.1875 28.421875 48.1875  Q 40.625 48.1875 47.75 41.5  Q 54.890625 34.8125 54.890625 23.390625  Q 54.890625 11.625 47.5625 5.09375  Q 40.234375 -1.421875 26.90625 -1.421875  Q 22.3125 -1.421875 17.546875 -0.640625  Q 12.796875 0.140625 7.71875 1.703125  L 7.71875 11.625  Q 12.109375 9.234375 16.796875 8.0625  Q 21.484375 6.890625 26.703125 6.890625  Q 35.15625 6.890625 40.078125 11.328125  Q 45.015625 15.765625 45.015625 23.390625  Q 45.015625 31 40.078125 35.4375  Q 35.15625 39.890625 26.703125 39.890625  Q 22.75 39.890625 18.8125 39.015625  Q 14.890625 38.140625 10.796875 36.28125  z " id="DejaVuSans-35"/>
      </defs>
      <g transform="translate(24.781875 269.454165)scale(0.1 -0.1)">
       <use xlink:href="#DejaVuSans-30"/>
       <use x="63.623047" xlink:href="#DejaVuSans-2e"/>
       <use x="95.410156" xlink:href="#DejaVuSans-30"/>
       <use x="159.033203" xlink:href="#DejaVuSans-30"/>
       <use x="222.65625" xlink:href="#DejaVuSans-35"/>
      </g>
     </g>
    </g>
    <g id="ytick_3">
     <g id="line2d_11">
      <g>
       <use style="stroke:#000000;stroke-width:0.8;" x="60.41" xlink:href="#ma418fb8faf" y="227.66813"/>
      </g>
     </g>
     <g id="text_12">
      <!-- 0.010 -->
      <g transform="translate(24.781875 231.467349)scale(0.1 -0.1)">
       <use xlink:href="#DejaVuSans-30"/>
       <use x="63.623047" xlink:href="#DejaVuSans-2e"/>
       <use x="95.410156" xlink:href="#DejaVuSans-30"/>
       <use x="159.033203" xlink:href="#DejaVuSans-31"/>
       <use x="222.65625" xlink:href="#DejaVuSans-30"/>
      </g>
     </g>
    </g>
    <g id="ytick_4">
     <g id="line2d_12">
      <g>
       <use style="stroke:#000000;stroke-width:0.8;" x="60.41" xlink:href="#ma418fb8faf" y="189.681314"/>
      </g>
     </g>
     <g id="text_13">
      <!-- 0.015 -->
      <g transform="translate(24.781875 193.480533)scale(0.1 -0.1)">
       <use xlink:href="#DejaVuSans-30"/>
       <use x="63.623047" xlink:href="#DejaVuSans-2e"/>
       <use x="95.410156" xlink:href="#DejaVuSans-30"/>
       <use x="159.033203" xlink:href="#DejaVuSans-31"/>
       <use x="222.65625" xlink:href="#DejaVuSans-35"/>
      </g>
     </g>
    </g>
    <g id="ytick_5">
     <g id="line2d_13">
      <g>
       <use style="stroke:#000000;stroke-width:0.8;" x="60.41" xlink:href="#ma418fb8faf" y="151.694498"/>
      </g>
     </g>
     <g id="text_14">
      <!-- 0.020 -->
      <g transform="translate(24.781875 155.493717)scale(0.1 -0.1)">
       <use xlink:href="#DejaVuSans-30"/>
       <use x="63.623047" xlink:href="#DejaVuSans-2e"/>
       <use x="95.410156" xlink:href="#DejaVuSans-30"/>
       <use x="159.033203" xlink:href="#DejaVuSans-32"/>
       <use x="222.65625" xlink:href="#DejaVuSans-30"/>
      </g>
     </g>
    </g>
    <g id="ytick_6">
     <g id="line2d_14">
      <g>
       <use style="stroke:#000000;stroke-width:0.8;" x="60.41" xlink:href="#ma418fb8faf" y="113.707682"/>
      </g>
     </g>
     <g id="text_15">
      <!-- 0.025 -->
      <g transform="translate(24.781875 117.506901)scale(0.1 -0.1)">
       <use xlink:href="#DejaVuSans-30"/>
       <use x="63.623047" xlink:href="#DejaVuSans-2e"/>
       <use x="95.410156" xlink:href="#DejaVuSans-30"/>
       <use x="159.033203" xlink:href="#DejaVuSans-32"/>
       <use x="222.65625" xlink:href="#DejaVuSans-35"/>
      </g>
     </g>
    </g>
    <g id="ytick_7">
     <g id="line2d_15">
      <g>
       <use style="stroke:#000000;stroke-width:0.8;" x="60.41" xlink:href="#ma418fb8faf" y="75.720866"/>
      </g>
     </g>
     <g id="text_16">
      <!-- 0.030 -->
      <defs>
       <path d="M 40.578125 39.3125  Q 47.65625 37.796875 51.625 33  Q 55.609375 28.21875 55.609375 21.1875  Q 55.609375 10.40625 48.1875 4.484375  Q 40.765625 -1.421875 27.09375 -1.421875  Q 22.515625 -1.421875 17.65625 -0.515625  Q 12.796875 0.390625 7.625 2.203125  L 7.625 11.71875  Q 11.71875 9.328125 16.59375 8.109375  Q 21.484375 6.890625 26.8125 6.890625  Q 36.078125 6.890625 40.9375 10.546875  Q 45.796875 14.203125 45.796875 21.1875  Q 45.796875 27.640625 41.28125 31.265625  Q 36.765625 34.90625 28.71875 34.90625  L 20.21875 34.90625  L 20.21875 43.015625  L 29.109375 43.015625  Q 36.375 43.015625 40.234375 45.921875  Q 44.09375 48.828125 44.09375 54.296875  Q 44.09375 59.90625 40.109375 62.90625  Q 36.140625 65.921875 28.71875 65.921875  Q 24.65625 65.921875 20.015625 65.03125  Q 15.375 64.15625 9.8125 62.3125  L 9.8125 71.09375  Q 15.4375 72.65625 20.34375 73.4375  Q 25.25 74.21875 29.59375 74.21875  Q 40.828125 74.21875 47.359375 69.109375  Q 53.90625 64.015625 53.90625 55.328125  Q 53.90625 49.265625 50.4375 45.09375  Q 46.96875 40.921875 40.578125 39.3125  z " id="DejaVuSans-33"/>
      </defs>
      <g transform="translate(24.781875 79.520085)scale(0.1 -0.1)">
       <use xlink:href="#DejaVuSans-30"/>
       <use x="63.623047" xlink:href="#DejaVuSans-2e"/>
       <use x="95.410156" xlink:href="#DejaVuSans-30"/>
       <use x="159.033203" xlink:href="#DejaVuSans-33"/>
       <use x="222.65625" xlink:href="#DejaVuSans-30"/>
      </g>
     </g>
    </g>
    <g id="ytick_8">
     <g id="line2d_16">
      <g>
       <use style="stroke:#000000;stroke-width:0.8;" x="60.41" xlink:href="#ma418fb8faf" y="37.73405"/>
      </g>
     </g>
     <g id="text_17">
      <!-- 0.035 -->
      <g transform="translate(24.781875 41.533268)scale(0.1 -0.1)">
       <use xlink:href="#DejaVuSans-30"/>
       <use x="63.623047" xlink:href="#DejaVuSans-2e"/>
       <use x="95.410156" xlink:href="#DejaVuSans-30"/>
       <use x="159.033203" xlink:href="#DejaVuSans-33"/>
       <use x="222.65625" xlink:href="#DejaVuSans-35"/>
      </g>
     </g>
    </g>
    <g id="text_18">
     <!-- Mole Fraction (Al,Ta) -->
     <defs>
      <path d="M 9.8125 72.90625  L 24.515625 72.90625  L 43.109375 23.296875  L 61.8125 72.90625  L 76.515625 72.90625  L 76.515625 0  L 66.890625 0  L 66.890625 64.015625  L 48.09375 14.015625  L 38.1875 14.015625  L 19.390625 64.015625  L 19.390625 0  L 9.8125 0  z " id="DejaVuSans-4d"/>
      <path d="M 30.609375 48.390625  Q 23.390625 48.390625 19.1875 42.75  Q 14.984375 37.109375 14.984375 27.296875  Q 14.984375 17.484375 19.15625 11.84375  Q 23.34375 6.203125 30.609375 6.203125  Q 37.796875 6.203125 41.984375 11.859375  Q 46.1875 17.53125 46.1875 27.296875  Q 46.1875 37.015625 41.984375 42.703125  Q 37.796875 48.390625 30.609375 48.390625  z M 30.609375 56  Q 42.328125 56 49.015625 48.375  Q 55.71875 40.765625 55.71875 27.296875  Q 55.71875 13.875 49.015625 6.21875  Q 42.328125 -1.421875 30.609375 -1.421875  Q 18.84375 -1.421875 12.171875 6.21875  Q 5.515625 13.875 5.515625 27.296875  Q 5.515625 40.765625 12.171875 48.375  Q 18.84375 56 30.609375 56  z " id="DejaVuSans-6f"/>
      <path d="M 9.421875 75.984375  L 18.40625 75.984375  L 18.40625 0  L 9.421875 0  z " id="DejaVuSans-6c"/>
      <path d="M 9.8125 72.90625  L 51.703125 72.90625  L 51.703125 64.59375  L 19.671875 64.59375  L 19.671875 43.109375  L 48.578125 43.109375  L 48.578125 34.8125  L 19.671875 34.8125  L 19.671875 0  L 9.8125 0  z " id="DejaVuSans-46"/>
      <path d="M 41.109375 46.296875  Q 39.59375 47.171875 37.8125 47.578125  Q 36.03125 48 33.890625 48  Q 26.265625 48 22.1875 43.046875  Q 18.109375 38.09375 18.109375 28.8125  L 18.109375 0  L 9.078125 0  L 9.078125 54.6875  L 18.109375 54.6875  L 18.109375 46.1875  Q 20.953125 51.171875 25.484375 53.578125  Q 30.03125 56 36.53125 56  Q 37.453125 56 38.578125 55.875  Q 39.703125 55.765625 41.0625 55.515625  z " id="DejaVuSans-72"/>
      <path d="M 34.1875 63.1875  L 20.796875 26.90625  L 47.609375 26.90625  z M 28.609375 72.90625  L 39.796875 72.90625  L 67.578125 0  L 57.328125 0  L 50.6875 18.703125  L 17.828125 18.703125  L 11.1875 0  L 0.78125 0  z " id="DejaVuSans-41"/>
      <path d="M 11.71875 12.40625  L 22.015625 12.40625  L 22.015625 4  L 14.015625 -11.625  L 7.71875 -11.625  L 11.71875 4  z " id="DejaVuSans-2c"/>
      <path d="M -0.296875 72.90625  L 61.375 72.90625  L 61.375 64.59375  L 35.5 64.59375  L 35.5 0  L 25.59375 0  L 25.59375 64.59375  L -0.296875 64.59375  z " id="DejaVuSans-54"/>
     </defs>
     <g transform="translate(18.702188 211.058809)rotate(-90)scale(0.1 -0.1)">
      <use xlink:href="#DejaVuSans-4d"/>
      <use x="86.279297" xlink:href="#DejaVuSans-6f"/>
      <use x="147.460938" xlink:href="#DejaVuSans-6c"/>
      <use x="175.244141" xlink:href="#DejaVuSans-65"/>
      <use x="236.767578" xlink:href="#DejaVuSans-20"/>
      <use x="268.554688" xlink:href="#DejaVuSans-46"/>
      <use x="325.964844" xlink:href="#DejaVuSans-72"/>
      <use x="367.078125" xlink:href="#DejaVuSans-61"/>
      <use x="428.357422" xlink:href="#DejaVuSans-63"/>
      <use x="483.337891" xlink:href="#DejaVuSans-74"/>
      <use x="522.546875" xlink:href="#DejaVuSans-69"/>
      <use x="550.330078" xlink:href="#DejaVuSans-6f"/>
      <use x="611.511719" xlink:href="#DejaVuSans-6e"/>
      <use x="674.890625" xlink:href="#DejaVuSans-20"/>
      <use x="706.677734" xlink:href="#DejaVuSans-28"/>
      <use x="745.691406" xlink:href="#DejaVuSans-41"/>
      <use x="814.099609" xlink:href="#DejaVuSans-6c"/>
      <use x="841.882812" xlink:href="#DejaVuSans-2c"/>
      <use x="873.669922" xlink:href="#DejaVuSans-54"/>
      <use x="934.503906" xlink:href="#DejaVuSans-61"/>
      <use x="995.783203" xlink:href="#DejaVuSans-29"/>
     </g>
    </g>
   </g>
   <g id="line2d_17">
    <defs>
     <path d="M -0 3  L 3 -3  L -3 -3  z " id="mde3d632166" style="stroke:#e74c3c;stroke-linejoin:miter;"/>
    </defs>
    <g clip-path="url(#p195e70251b)">
     <use style="fill:#e74c3c;stroke:#e74c3c;stroke-linejoin:miter;" x="60.41" xlink:href="#mde3d632166" y="303.265126"/>
     <use style="fill:#e74c3c;stroke:#e74c3c;stroke-linejoin:miter;" x="67.370402" xlink:href="#mde3d632166" y="303.065339"/>
     <use style="fill:#e74c3c;stroke:#e74c3c;stroke-linejoin:miter;" x="74.330804" xlink:href="#mde3d632166" y="302.77362"/>
     <use style="fill:#e74c3c;stroke:#e74c3c;stroke-linejoin:miter;" x="81.291206" xlink:href="#mde3d632166" y="302.354979"/>
     <use style="fill:#e74c3c;stroke:#e74c3c;stroke-linejoin:miter;" x="88.251608" xlink:href="#mde3d632166" y="301.764507"/>
     <use style="fill:#e74c3c;stroke:#e74c3c;stroke-linejoin:miter;" x="95.21201" xlink:href="#mde3d632166" y="300.945976"/>
     <use style="fill:#e74c3c;stroke:#e74c3c;stroke-linejoin:miter;" x="102.172412" xlink:href="#mde3d632166" y="299.83078"/>
     <use style="fill:#e74c3c;stroke:#e74c3c;stroke-linejoin:miter;" x="109.132814" xlink:href="#mde3d632166" y="298.337481"/>
     <use style="fill:#e74c3c;stroke:#e74c3c;stroke-linejoin:miter;" x="116.093216" xlink:href="#mde3d632166" y="296.372212"/>
     <use style="fill:#e74c3c;stroke:#e74c3c;stroke-linejoin:miter;" x="123.053618" xlink:href="#mde3d632166" y="293.830207"/>
     <use style="fill:#e74c3c;stroke:#e74c3c;stroke-linejoin:miter;" x="130.01402" xlink:href="#mde3d632166" y="290.598658"/>
     <use style="fill:#e74c3c;stroke:#e74c3c;stroke-linejoin:miter;" x="136.974422" xlink:href="#mde3d632166" y="286.561048"/>
     <use style="fill:#e74c3c;stroke:#e74c3c;stroke-linejoin:miter;" x="143.934824" xlink:href="#mde3d632166" y="281.602919"/>
     <use style="fill:#e74c3c;stroke:#e74c3c;stroke-linejoin:miter;" x="150.895226" xlink:href="#mde3d632166" y="275.618931"/>
     <use style="fill:#e74c3c;stroke:#e74c3c;stroke-linejoin:miter;" x="157.855628" xlink:href="#mde3d632166" y="268.520814"/>
     <use style="fill:#e74c3c;stroke:#e74c3c;stroke-linejoin:miter;" x="164.81603" xlink:href="#mde3d632166" y="260.245676"/>
     <use style="fill:#e74c3c;stroke:#e74c3c;stroke-linejoin:miter;" x="171.776432" xlink:href="#mde3d632166" y="250.76396"/>
     <use style="fill:#e74c3c;stroke:#e74c3c;stroke-linejoin:miter;" x="178.736834" xlink:href="#mde3d632166" y="240.086249"/>
     <use style="fill:#e74c3c;stroke:#e74c3c;stroke-linejoin:miter;" x="185.697236" xlink:href="#mde3d632166" y="228.268111"/>
     <use style="fill:#e74c3c;stroke:#e74c3c;stroke-linejoin:miter;" x="192.657638" xlink:href="#mde3d632166" y="215.4123"/>
     <use style="fill:#e74c3c;stroke:#e74c3c;stroke-linejoin:miter;" x="199.61804" xlink:href="#mde3d632166" y="201.667782"/>
     <use style="fill:#e74c3c;stroke:#e74c3c;stroke-linejoin:miter;" x="206.578442" xlink:href="#mde3d632166" y="187.225389"/>
     <use style="fill:#e74c3c;stroke:#e74c3c;stroke-linejoin:miter;" x="213.538844" xlink:href="#mde3d632166" y="172.310212"/>
     <use style="fill:#e74c3c;stroke:#e74c3c;stroke-linejoin:miter;" x="220.499246" xlink:href="#mde3d632166" y="157.171211"/>
     <use style="fill:#e74c3c;stroke:#e74c3c;stroke-linejoin:miter;" x="227.459648" xlink:href="#mde3d632166" y="142.068821"/>
     <use style="fill:#e74c3c;stroke:#e74c3c;stroke-linejoin:miter;" x="234.42005" xlink:href="#mde3d632166" y="127.261595"/>
     <use style="fill:#e74c3c;stroke:#e74c3c;stroke-linejoin:miter;" x="241.380452" xlink:href="#mde3d632166" y="112.992996"/>
     <use style="fill:#e74c3c;stroke:#e74c3c;stroke-linejoin:miter;" x="248.340854" xlink:href="#mde3d632166" y="99.479474"/>
     <use style="fill:#e74c3c;stroke:#e74c3c;stroke-linejoin:miter;" x="255.301256" xlink:href="#mde3d632166" y="86.900784"/>
     <use style="fill:#e74c3c;stroke:#e74c3c;stroke-linejoin:miter;" x="262.261658" xlink:href="#mde3d632166" y="75.393262"/>
     <use style="fill:#e74c3c;stroke:#e74c3c;stroke-linejoin:miter;" x="269.22206" xlink:href="#mde3d632166" y="65.046419"/>
     <use style="fill:#e74c3c;stroke:#e74c3c;stroke-linejoin:miter;" x="276.182462" xlink:href="#mde3d632166" y="55.902898"/>
     <use style="fill:#e74c3c;stroke:#e74c3c;stroke-linejoin:miter;" x="283.142864" xlink:href="#mde3d632166" y="47.961469"/>
     <use style="fill:#e74c3c;stroke:#e74c3c;stroke-linejoin:miter;" x="290.103266" xlink:href="#mde3d632166" y="41.182504"/>
     <use style="fill:#e74c3c;stroke:#e74c3c;stroke-linejoin:miter;" x="297.063668" xlink:href="#mde3d632166" y="35.495182"/>
     <use style="fill:#e74c3c;stroke:#e74c3c;stroke-linejoin:miter;" x="304.02407" xlink:href="#mde3d632166" y="30.805625"/>
     <use style="fill:#e74c3c;stroke:#e74c3c;stroke-linejoin:miter;" x="310.984472" xlink:href="#mde3d632166" y="27.005173"/>
     <use style="fill:#e74c3c;stroke:#e74c3c;stroke-linejoin:miter;" x="317.944874" xlink:href="#mde3d632166" y="23.978131"/>
     <use style="fill:#e74c3c;stroke:#e74c3c;stroke-linejoin:miter;" x="324.905276" xlink:href="#mde3d632166" y="21.608498"/>
     <use style="fill:#e74c3c;stroke:#e74c3c;stroke-linejoin:miter;" x="331.865678" xlink:href="#mde3d632166" y="19.785344"/>
     <use style="fill:#e74c3c;stroke:#e74c3c;stroke-linejoin:miter;" x="338.82608" xlink:href="#mde3d632166" y="18.406722"/>
     <use style="fill:#e74c3c;stroke:#e74c3c;stroke-linejoin:miter;" x="345.786482" xlink:href="#mde3d632166" y="17.382141"/>
     <use style="fill:#e74c3c;stroke:#e74c3c;stroke-linejoin:miter;" x="352.746884" xlink:href="#mde3d632166" y="16.633752"/>
     <use style="fill:#e74c3c;stroke:#e74c3c;stroke-linejoin:miter;" x="359.707286" xlink:href="#mde3d632166" y="16.096488"/>
     <use style="fill:#e74c3c;stroke:#e74c3c;stroke-linejoin:miter;" x="366.667688" xlink:href="#mde3d632166" y="15.717411"/>
     <use style="fill:#e74c3c;stroke:#e74c3c;stroke-linejoin:miter;" x="373.62809" xlink:href="#mde3d632166" y="15.454537"/>
     <use style="fill:#e74c3c;stroke:#e74c3c;stroke-linejoin:miter;" x="380.588492" xlink:href="#mde3d632166" y="15.275375"/>
     <use style="fill:#e74c3c;stroke:#e74c3c;stroke-linejoin:miter;" x="387.548894" xlink:href="#mde3d632166" y="15.155363"/>
     <use style="fill:#e74c3c;stroke:#e74c3c;stroke-linejoin:miter;" x="394.509296" xlink:href="#mde3d632166" y="15.076352"/>
     <use style="fill:#e74c3c;stroke:#e74c3c;stroke-linejoin:miter;" x="401.469698" xlink:href="#mde3d632166" y="15.025229"/>
    </g>
   </g>
   <g id="line2d_18">
    <defs>
     <path d="M 0 3  C 0.795609 3 1.55874 2.683901 2.12132 2.12132  C 2.683901 1.55874 3 0.795609 3 0  C 3 -0.795609 2.683901 -1.55874 2.12132 -2.12132  C 1.55874 -2.683901 0.795609 -3 0 -3  C -0.795609 -3 -1.55874 -2.683901 -2.12132 -2.12132  C -2.683901 -1.55874 -3 -0.795609 -3 0  C -3 0.795609 -2.683901 1.55874 -2.12132 2.12132  C -1.55874 2.683901 -0.795609 3 0 3  z " id="m2959c3c64e" style="stroke:#008080;"/>
    </defs>
    <g clip-path="url(#p195e70251b)">
     <use style="fill:#008080;stroke:#008080;" x="60.41" xlink:href="#m2959c3c64e" y="303.64"/>
     <use style="fill:#008080;stroke:#008080;" x="67.370402" xlink:href="#m2959c3c64e" y="303.637882"/>
     <use style="fill:#008080;stroke:#008080;" x="74.330804" xlink:href="#m2959c3c64e" y="303.633485"/>
     <use style="fill:#008080;stroke:#008080;" x="81.291206" xlink:href="#m2959c3c64e" y="303.624655"/>
     <use style="fill:#008080;stroke:#008080;" x="88.251608" xlink:href="#m2959c3c64e" y="303.6075"/>
     <use style="fill:#008080;stroke:#008080;" x="95.21201" xlink:href="#m2959c3c64e" y="303.575257"/>
     <use style="fill:#008080;stroke:#008080;" x="102.172412" xlink:href="#m2959c3c64e" y="303.516631"/>
     <use style="fill:#008080;stroke:#008080;" x="109.132814" xlink:href="#m2959c3c64e" y="303.41351"/>
     <use style="fill:#008080;stroke:#008080;" x="116.093216" xlink:href="#m2959c3c64e" y="303.238036"/>
     <use style="fill:#008080;stroke:#008080;" x="123.053618" xlink:href="#m2959c3c64e" y="302.949176"/>
     <use style="fill:#008080;stroke:#008080;" x="130.01402" xlink:href="#m2959c3c64e" y="302.489166"/>
     <use style="fill:#008080;stroke:#008080;" x="136.974422" xlink:href="#m2959c3c64e" y="301.780475"/>
     <use style="fill:#008080;stroke:#008080;" x="143.934824" xlink:href="#m2959c3c64e" y="300.724254"/>
     <use style="fill:#008080;stroke:#008080;" x="150.895226" xlink:href="#m2959c3c64e" y="299.201392"/>
     <use style="fill:#008080;stroke:#008080;" x="157.855628" xlink:href="#m2959c3c64e" y="297.077295"/>
     <use style="fill:#008080;stroke:#008080;" x="164.81603" xlink:href="#m2959c3c64e" y="294.21116"/>
     <use style="fill:#008080;stroke:#008080;" x="171.776432" xlink:href="#m2959c3c64e" y="290.469822"/>
     <use style="fill:#008080;stroke:#008080;" x="178.736834" xlink:href="#m2959c3c64e" y="285.745215"/>
     <use style="fill:#008080;stroke:#008080;" x="185.697236" xlink:href="#m2959c3c64e" y="279.973394"/>
     <use style="fill:#008080;stroke:#008080;" x="192.657638" xlink:href="#m2959c3c64e" y="273.152076"/>
     <use style="fill:#008080;stroke:#008080;" x="199.61804" xlink:href="#m2959c3c64e" y="265.353197"/>
     <use style="fill:#008080;stroke:#008080;" x="206.578442" xlink:href="#m2959c3c64e" y="256.727296"/>
     <use style="fill:#008080;stroke:#008080;" x="213.538844" xlink:href="#m2959c3c64e" y="247.497647"/>
     <use style="fill:#008080;stroke:#008080;" x="220.499246" xlink:href="#m2959c3c64e" y="237.943888"/>
     <use style="fill:#008080;stroke:#008080;" x="227.459648" xlink:href="#m2959c3c64e" y="228.376973"/>
     <use style="fill:#008080;stroke:#008080;" x="234.42005" xlink:href="#m2959c3c64e" y="219.109146"/>
     <use style="fill:#008080;stroke:#008080;" x="241.380452" xlink:href="#m2959c3c64e" y="210.423694"/>
     <use style="fill:#008080;stroke:#008080;" x="248.340854" xlink:href="#m2959c3c64e" y="202.549334"/>
     <use style="fill:#008080;stroke:#008080;" x="255.301256" xlink:href="#m2959c3c64e" y="195.643015"/>
     <use style="fill:#008080;stroke:#008080;" x="262.261658" xlink:href="#m2959c3c64e" y="189.783168"/>
     <use style="fill:#008080;stroke:#008080;" x="269.22206" xlink:href="#m2959c3c64e" y="184.973287"/>
     <use style="fill:#008080;stroke:#008080;" x="276.182462" xlink:href="#m2959c3c64e" y="181.153925"/>
     <use style="fill:#008080;stroke:#008080;" x="283.142864" xlink:href="#m2959c3c64e" y="178.219955"/>
     <use style="fill:#008080;stroke:#008080;" x="290.103266" xlink:href="#m2959c3c64e" y="176.039594"/>
     <use style="fill:#008080;stroke:#008080;" x="297.063668" xlink:href="#m2959c3c64e" y="174.472085"/>
     <use style="fill:#008080;stroke:#008080;" x="304.02407" xlink:href="#m2959c3c64e" y="173.381902"/>
     <use style="fill:#008080;stroke:#008080;" x="310.984472" xlink:href="#m2959c3c64e" y="172.648408"/>
     <use style="fill:#008080;stroke:#008080;" x="317.944874" xlink:href="#m2959c3c64e" y="172.170985"/>
     <use style="fill:#008080;stroke:#008080;" x="324.905276" xlink:href="#m2959c3c64e" y="171.870366"/>
     <use style="fill:#008080;stroke:#008080;" x="331.865678" xlink:href="#m2959c3c64e" y="171.687245"/>
     <use style="fill:#008080;stroke:#008080;" x="338.82608" xlink:href="#m2959c3c64e" y="171.579334"/>
     <use style="fill:#008080;stroke:#008080;" x="345.786482" xlink:href="#m2959c3c64e" y="171.517815"/>
     <use style="fill:#008080;stroke:#008080;" x="352.746884" xlink:href="#m2959c3c64e" y="171.483888"/>
     <use style="fill:#008080;stroke:#008080;" x="359.707286" xlink:href="#m2959c3c64e" y="171.465787"/>
     <use style="fill:#008080;stroke:#008080;" x="366.667688" xlink:href="#m2959c3c64e" y="171.456444"/>
     <use style="fill:#008080;stroke:#008080;" x="373.62809" xlink:href="#m2959c3c64e" y="171.45178"/>
     <use style="fill:#008080;stroke:#008080;" x="380.588492" xlink:href="#m2959c3c64e" y="171.449526"/>
     <use style="fill:#008080;stroke:#008080;" x="387.548894" xlink:href="#m2959c3c64e" y="171.448473"/>
     <use style="fill:#008080;stroke:#008080;" x="394.509296" xlink:href="#m2959c3c64e" y="171.447997"/>
     <use style="fill:#008080;stroke:#008080;" x="401.469698" xlink:href="#m2959c3c64e" y="171.447789"/>
    </g>
   </g>
   <g id="line2d_19">
    <path clip-path="url(#p195e70251b)" d="M 60.071836 302.34377  L 68.999367 301.716353  L 76.709507 300.949904  L 83.608054 300.03793  L 89.695007 299.01483  L 95.376163 297.839465  L 100.651522 296.526309  L 105.521084 295.098079  L 110.390647 293.436988  L 114.854412 291.688021  L 119.318178 289.702212  L 123.781943 287.460011  L 127.839912 285.183245  L 131.89788 282.665574  L 135.955849 279.894703  L 140.013817 276.85976  L 144.071786 273.551616  L 148.129755 269.963197  L 152.187723 266.089762  L 156.55004 261.605509  L 160.810907 256.905953  L 165.274672 251.648505  L 169.941336 245.796044  L 174.810898 239.316607  L 179.883359 232.18498  L 185.158718 224.383811  L 190.890599 215.502568  L 197.079001 205.490197  L 203.774649 194.220851  L 210.977543 181.656279  L 218.915945 167.349624  L 227.742026 150.969414  L 239.281874 129.043387  L 253.180417 102.705488  L 259.622442 90.975036  L 264.897801 81.802907  L 269.564465 74.113217  L 273.825332 67.500936  L 277.883301 61.605898  L 281.738371 56.393506  L 285.390543 51.81685  L 289.042715 47.596703  L 292.593437 43.834151  L 296.245609 40.307375  L 299.897781 37.117224  L 303.549952 34.24843  L 307.202124 31.682962  L 310.854296 29.400908  L 314.506468 27.381255  L 318.158639 25.602544  L 322.216608 23.882809  L 326.274576 22.405621  L 330.738342 21.028383  L 335.202107 19.877754  L 340.07167 18.844429  L 345.347029 17.945348  L 351.433982 17.141147  L 358.332528 16.467976  L 366.042669 15.940965  L 375.375997 15.52757  L 387.549902 15.223915  L 404.999167 15.034874  L 407.028152 15.023312  L 407.028152 15.023312  " style="fill:none;stroke:#e74c3c;stroke-linecap:square;stroke-width:2;"/>
   </g>
   <g id="line2d_20">
    <path clip-path="url(#p195e70251b)" d="M 60.071836 303.63732  L 99.028335 303.509831  L 113.231225 303.255178  L 122.970349 302.874526  L 130.68049 302.361073  L 137.173239 301.711044  L 142.854395 300.920151  L 147.723958 300.031943  L 152.187723 299.010208  L 156.55004 297.785619  L 160.608008 296.415414  L 164.463078 294.88082  L 168.11525 293.195057  L 171.767422 291.262991  L 175.216695 289.194944  L 178.665968 286.875775  L 182.115242 284.293161  L 185.564515 281.437497  L 189.165962 278.157713  L 192.818134 274.518193  L 196.571755 270.45178  L 200.426825 265.942558  L 204.484794 260.853365  L 208.948559 254.890156  L 214.046382 247.690755  L 220.539132 238.106982  L 234.818109 216.909804  L 239.687671 210.164123  L 243.847089 204.777566  L 247.60071 200.275873  L 251.049983 196.47469  L 254.397808 193.112038  L 257.593458 190.210603  L 260.839833 187.571344  L 263.883309 185.372572  L 267.129684 183.308105  L 270.376059 181.515237  L 273.622434 179.971597  L 277.071707 178.577002  L 280.723879 177.342736  L 284.578949 176.271608  L 288.839816 175.318072  L 293.405031 174.51286  L 298.68039 173.798627  L 305.17314 173.153963  L 312.88328 172.620995  L 322.622405 172.180594  L 335.202107 171.842817  L 352.651372 171.608396  L 380.651356 171.480554  L 407.028152 171.453868  L 407.028152 171.453868  " style="fill:none;stroke:#008080;stroke-linecap:square;stroke-width:2;"/>
   </g>
   <g id="patch_3">
    <path d="M 60.41 303.64  L 60.41 14.999492  " style="fill:none;stroke:#000000;stroke-linecap:square;stroke-linejoin:miter;stroke-width:0.8;"/>
   </g>
   <g id="patch_4">
    <path d="M 406.69 303.64  L 406.69 14.999492  " style="fill:none;stroke:#000000;stroke-linecap:square;stroke-linejoin:miter;stroke-width:0.8;"/>
   </g>
   <g id="patch_5">
    <path d="M 60.41 303.64  L 406.69 303.64  " style="fill:none;stroke:#000000;stroke-linecap:square;stroke-linejoin:miter;stroke-width:0.8;"/>
   </g>
   <g id="patch_6">
    <path d="M 60.41 14.999492  L 406.69 14.999492  " style="fill:none;stroke:#000000;stroke-linecap:square;stroke-linejoin:miter;stroke-width:0.8;"/>
   </g>
  </g>
  <g id="axes_2">
   <g id="matplotlib.axis_3">
    <g id="ytick_9">
     <g id="line2d_21">
      <defs>
       <path d="M 0 0  L 3.5 0  " id="m68d0e752d7" style="stroke:#000000;stroke-width:0.8;"/>
      </defs>
      <g>
       <use style="stroke:#000000;stroke-width:0.8;" x="406.69" xlink:href="#m68d0e752d7" y="275.515737"/>
      </g>
     </g>
     <g id="text_19">
      <!-- 0.95 -->
      <defs>
       <path d="M 10.984375 1.515625  L 10.984375 10.5  Q 14.703125 8.734375 18.5 7.8125  Q 22.3125 6.890625 25.984375 6.890625  Q 35.75 6.890625 40.890625 13.453125  Q 46.046875 20.015625 46.78125 33.40625  Q 43.953125 29.203125 39.59375 26.953125  Q 35.25 24.703125 29.984375 24.703125  Q 19.046875 24.703125 12.671875 31.3125  Q 6.296875 37.9375 6.296875 49.421875  Q 6.296875 60.640625 12.9375 67.421875  Q 19.578125 74.21875 30.609375 74.21875  Q 43.265625 74.21875 49.921875 64.515625  Q 56.59375 54.828125 56.59375 36.375  Q 56.59375 19.140625 48.40625 8.859375  Q 40.234375 -1.421875 26.421875 -1.421875  Q 22.703125 -1.421875 18.890625 -0.6875  Q 15.09375 0.046875 10.984375 1.515625  z M 30.609375 32.421875  Q 37.25 32.421875 41.125 36.953125  Q 45.015625 41.5 45.015625 49.421875  Q 45.015625 57.28125 41.125 61.84375  Q 37.25 66.40625 30.609375 66.40625  Q 23.96875 66.40625 20.09375 61.84375  Q 16.21875 57.28125 16.21875 49.421875  Q 16.21875 41.5 20.09375 36.953125  Q 23.96875 32.421875 30.609375 32.421875  z " id="DejaVuSans-39"/>
      </defs>
      <g transform="translate(413.69 279.314956)scale(0.1 -0.1)">
       <use xlink:href="#DejaVuSans-30"/>
       <use x="63.623047" xlink:href="#DejaVuSans-2e"/>
       <use x="95.410156" xlink:href="#DejaVuSans-39"/>
       <use x="159.033203" xlink:href="#DejaVuSans-35"/>
      </g>
     </g>
    </g>
    <g id="ytick_10">
     <g id="line2d_22">
      <g>
       <use style="stroke:#000000;stroke-width:0.8;" x="406.69" xlink:href="#m68d0e752d7" y="223.360535"/>
      </g>
     </g>
     <g id="text_20">
      <!-- 0.96 -->
      <g transform="translate(413.69 227.159753)scale(0.1 -0.1)">
       <use xlink:href="#DejaVuSans-30"/>
       <use x="63.623047" xlink:href="#DejaVuSans-2e"/>
       <use x="95.410156" xlink:href="#DejaVuSans-39"/>
       <use x="159.033203" xlink:href="#DejaVuSans-36"/>
      </g>
     </g>
    </g>
    <g id="ytick_11">
     <g id="line2d_23">
      <g>
       <use style="stroke:#000000;stroke-width:0.8;" x="406.69" xlink:href="#m68d0e752d7" y="171.205332"/>
      </g>
     </g>
     <g id="text_21">
      <!-- 0.97 -->
      <defs>
       <path d="M 8.203125 72.90625  L 55.078125 72.90625  L 55.078125 68.703125  L 28.609375 0  L 18.3125 0  L 43.21875 64.59375  L 8.203125 64.59375  z " id="DejaVuSans-37"/>
      </defs>
      <g transform="translate(413.69 175.004551)scale(0.1 -0.1)">
       <use xlink:href="#DejaVuSans-30"/>
       <use x="63.623047" xlink:href="#DejaVuSans-2e"/>
       <use x="95.410156" xlink:href="#DejaVuSans-39"/>
       <use x="159.033203" xlink:href="#DejaVuSans-37"/>
      </g>
     </g>
    </g>
    <g id="ytick_12">
     <g id="line2d_24">
      <g>
       <use style="stroke:#000000;stroke-width:0.8;" x="406.69" xlink:href="#m68d0e752d7" y="119.05013"/>
      </g>
     </g>
     <g id="text_22">
      <!-- 0.98 -->
      <g transform="translate(413.69 122.849349)scale(0.1 -0.1)">
       <use xlink:href="#DejaVuSans-30"/>
       <use x="63.623047" xlink:href="#DejaVuSans-2e"/>
       <use x="95.410156" xlink:href="#DejaVuSans-39"/>
       <use x="159.033203" xlink:href="#DejaVuSans-38"/>
      </g>
     </g>
    </g>
    <g id="ytick_13">
     <g id="line2d_25">
      <g>
       <use style="stroke:#000000;stroke-width:0.8;" x="406.69" xlink:href="#m68d0e752d7" y="66.894927"/>
      </g>
     </g>
     <g id="text_23">
      <!-- 0.99 -->
      <g transform="translate(413.69 70.694146)scale(0.1 -0.1)">
       <use xlink:href="#DejaVuSans-30"/>
       <use x="63.623047" xlink:href="#DejaVuSans-2e"/>
       <use x="95.410156" xlink:href="#DejaVuSans-39"/>
       <use x="159.033203" xlink:href="#DejaVuSans-39"/>
      </g>
     </g>
    </g>
    <g id="ytick_14">
     <g id="line2d_26">
      <g>
       <use style="stroke:#000000;stroke-width:0.8;" x="406.69" xlink:href="#m68d0e752d7" y="14.739725"/>
      </g>
     </g>
     <g id="text_24">
      <!-- 1.00 -->
      <g transform="translate(413.69 18.538944)scale(0.1 -0.1)">
       <use xlink:href="#DejaVuSans-31"/>
       <use x="63.623047" xlink:href="#DejaVuSans-2e"/>
       <use x="95.410156" xlink:href="#DejaVuSans-30"/>
       <use x="159.033203" xlink:href="#DejaVuSans-30"/>
      </g>
     </g>
    </g>
    <g id="text_25">
     <!-- Mole Fraction (Ni) -->
     <defs>
      <path d="M 9.8125 72.90625  L 23.09375 72.90625  L 55.421875 11.921875  L 55.421875 72.90625  L 64.984375 72.90625  L 64.984375 0  L 51.703125 0  L 19.390625 60.984375  L 19.390625 0  L 9.8125 0  z " id="DejaVuSans-4e"/>
     </defs>
     <g transform="translate(447.554063 203.68459)rotate(-90)scale(0.1 -0.1)">
      <use xlink:href="#DejaVuSans-4d"/>
      <use x="86.279297" xlink:href="#DejaVuSans-6f"/>
      <use x="147.460938" xlink:href="#DejaVuSans-6c"/>
      <use x="175.244141" xlink:href="#DejaVuSans-65"/>
      <use x="236.767578" xlink:href="#DejaVuSans-20"/>
      <use x="268.554688" xlink:href="#DejaVuSans-46"/>
      <use x="325.964844" xlink:href="#DejaVuSans-72"/>
      <use x="367.078125" xlink:href="#DejaVuSans-61"/>
      <use x="428.357422" xlink:href="#DejaVuSans-63"/>
      <use x="483.337891" xlink:href="#DejaVuSans-74"/>
      <use x="522.546875" xlink:href="#DejaVuSans-69"/>
      <use x="550.330078" xlink:href="#DejaVuSans-6f"/>
      <use x="611.511719" xlink:href="#DejaVuSans-6e"/>
      <use x="674.890625" xlink:href="#DejaVuSans-20"/>
      <use x="706.677734" xlink:href="#DejaVuSans-28"/>
      <use x="745.691406" xlink:href="#DejaVuSans-4e"/>
      <use x="820.496094" xlink:href="#DejaVuSans-69"/>
      <use x="848.279297" xlink:href="#DejaVuSans-29"/>
     </g>
    </g>
   </g>
   <g id="line2d_27">
    <defs>
     <path d="M 0 -3  L -0.673542 -0.927051  L -2.85317 -0.927051  L -1.089814 0.354102  L -1.763356 2.427051  L -0 1.145898  L 1.763356 2.427051  L 1.089814 0.354102  L 2.85317 -0.927051  L 0.673542 -0.927051  z " id="mf765e29c18" style="stroke:#808000;stroke-linejoin:bevel;"/>
    </defs>
    <g clip-path="url(#p195e70251b)">
     <use style="fill:#808000;stroke:#808000;stroke-linejoin:bevel;" x="60.41" xlink:href="#mf765e29c18" y="14.999492"/>
     <use style="fill:#808000;stroke:#808000;stroke-linejoin:bevel;" x="67.370402" xlink:href="#mf765e29c18" y="15.138098"/>
     <use style="fill:#808000;stroke:#808000;stroke-linejoin:bevel;" x="74.330804" xlink:href="#mf765e29c18" y="15.341379"/>
     <use style="fill:#808000;stroke:#808000;stroke-linejoin:bevel;" x="81.291206" xlink:href="#mf765e29c18" y="15.634834"/>
     <use style="fill:#808000;stroke:#808000;stroke-linejoin:bevel;" x="88.251608" xlink:href="#mf765e29c18" y="16.051964"/>
     <use style="fill:#808000;stroke:#808000;stroke-linejoin:bevel;" x="95.21201" xlink:href="#mf765e29c18" y="16.636013"/>
     <use style="fill:#808000;stroke:#808000;stroke-linejoin:bevel;" x="102.172412" xlink:href="#mf765e29c18" y="17.441831"/>
     <use style="fill:#808000;stroke:#808000;stroke-linejoin:bevel;" x="109.132814" xlink:href="#mf765e29c18" y="18.537759"/>
     <use style="fill:#808000;stroke:#808000;stroke-linejoin:bevel;" x="116.093216" xlink:href="#mf765e29c18" y="20.007359"/>
     <use style="fill:#808000;stroke:#808000;stroke-linejoin:bevel;" x="123.053618" xlink:href="#mf765e29c18" y="21.950722"/>
     <use style="fill:#808000;stroke:#808000;stroke-linejoin:bevel;" x="130.01402" xlink:href="#mf765e29c18" y="24.484943"/>
     <use style="fill:#808000;stroke:#808000;stroke-linejoin:bevel;" x="136.974422" xlink:href="#mf765e29c18" y="27.743236"/>
     <use style="fill:#808000;stroke:#808000;stroke-linejoin:bevel;" x="143.934824" xlink:href="#mf765e29c18" y="31.872032"/>
     <use style="fill:#808000;stroke:#808000;stroke-linejoin:bevel;" x="150.895226" xlink:href="#mf765e29c18" y="37.025415"/>
     <use style="fill:#808000;stroke:#808000;stroke-linejoin:bevel;" x="157.855628" xlink:href="#mf765e29c18" y="43.356381"/>
     <use style="fill:#808000;stroke:#808000;stroke-linejoin:bevel;" x="164.81603" xlink:href="#mf765e29c18" y="51.004763"/>
     <use style="fill:#808000;stroke:#808000;stroke-linejoin:bevel;" x="171.776432" xlink:href="#mf765e29c18" y="60.082268"/>
     <use style="fill:#808000;stroke:#808000;stroke-linejoin:bevel;" x="178.736834" xlink:href="#mf765e29c18" y="70.655819"/>
     <use style="fill:#808000;stroke:#808000;stroke-linejoin:bevel;" x="185.697236" xlink:href="#mf765e29c18" y="82.731164"/>
     <use style="fill:#808000;stroke:#808000;stroke-linejoin:bevel;" x="192.657638" xlink:href="#mf765e29c18" y="96.239333"/>
     <use style="fill:#808000;stroke:#808000;stroke-linejoin:bevel;" x="199.61804" xlink:href="#mf765e29c18" y="111.028678"/>
     <use style="fill:#808000;stroke:#808000;stroke-linejoin:bevel;" x="206.578442" xlink:href="#mf765e29c18" y="126.86485"/>
     <use style="fill:#808000;stroke:#808000;stroke-linejoin:bevel;" x="213.538844" xlink:href="#mf765e29c18" y="143.440051"/>
     <use style="fill:#808000;stroke:#808000;stroke-linejoin:bevel;" x="220.499246" xlink:href="#mf765e29c18" y="160.391406"/>
     <use style="fill:#808000;stroke:#808000;stroke-linejoin:bevel;" x="227.459648" xlink:href="#mf765e29c18" y="177.326657"/>
     <use style="fill:#808000;stroke:#808000;stroke-linejoin:bevel;" x="234.42005" xlink:href="#mf765e29c18" y="193.85396"/>
     <use style="fill:#808000;stroke:#808000;stroke-linejoin:bevel;" x="241.380452" xlink:href="#mf765e29c18" y="209.611706"/>
     <use style="fill:#808000;stroke:#808000;stroke-linejoin:bevel;" x="248.340854" xlink:href="#mf765e29c18" y="224.294292"/>
     <use style="fill:#808000;stroke:#808000;stroke-linejoin:bevel;" x="255.301256" xlink:href="#mf765e29c18" y="237.670571"/>
     <use style="fill:#808000;stroke:#808000;stroke-linejoin:bevel;" x="262.261658" xlink:href="#mf765e29c18" y="249.593111"/>
     <use style="fill:#808000;stroke:#808000;stroke-linejoin:bevel;" x="269.22206" xlink:href="#mf765e29c18" y="259.998063"/>
     <use style="fill:#808000;stroke:#808000;stroke-linejoin:bevel;" x="276.182462" xlink:href="#mf765e29c18" y="268.896963"/>
     <use style="fill:#808000;stroke:#808000;stroke-linejoin:bevel;" x="283.142864" xlink:href="#mf765e29c18" y="276.362825"/>
     <use style="fill:#808000;stroke:#808000;stroke-linejoin:bevel;" x="290.103266" xlink:href="#mf765e29c18" y="282.513321"/>
     <use style="fill:#808000;stroke:#808000;stroke-linejoin:bevel;" x="297.063668" xlink:href="#mf765e29c18" y="287.493696"/>
     <use style="fill:#808000;stroke:#808000;stroke-linejoin:bevel;" x="304.02407" xlink:href="#mf765e29c18" y="291.461434"/>
     <use style="fill:#808000;stroke:#808000;stroke-linejoin:bevel;" x="310.984472" xlink:href="#mf765e29c18" y="294.573947"/>
     <use style="fill:#808000;stroke:#808000;stroke-linejoin:bevel;" x="317.944874" xlink:href="#mf765e29c18" y="296.979729"/>
     <use style="fill:#808000;stroke:#808000;stroke-linejoin:bevel;" x="324.905276" xlink:href="#mf765e29c18" y="298.812833"/>
     <use style="fill:#808000;stroke:#808000;stroke-linejoin:bevel;" x="331.865678" xlink:href="#mf765e29c18" y="300.190122"/>
     <use style="fill:#808000;stroke:#808000;stroke-linejoin:bevel;" x="338.82608" xlink:href="#mf765e29c18" y="301.210614"/>
     <use style="fill:#808000;stroke:#808000;stroke-linejoin:bevel;" x="345.786482" xlink:href="#mf765e29c18" y="301.956211"/>
     <use style="fill:#808000;stroke:#808000;stroke-linejoin:bevel;" x="352.746884" xlink:href="#mf765e29c18" y="302.493264"/>
     <use style="fill:#808000;stroke:#808000;stroke-linejoin:bevel;" x="359.707286" xlink:href="#mf765e29c18" y="302.874517"/>
     <use style="fill:#808000;stroke:#808000;stroke-linejoin:bevel;" x="366.667688" xlink:href="#mf765e29c18" y="303.141164"/>
     <use style="fill:#808000;stroke:#808000;stroke-linejoin:bevel;" x="373.62809" xlink:href="#mf765e29c18" y="303.324827"/>
     <use style="fill:#808000;stroke:#808000;stroke-linejoin:bevel;" x="380.588492" xlink:href="#mf765e29c18" y="303.449367"/>
     <use style="fill:#808000;stroke:#808000;stroke-linejoin:bevel;" x="387.548894" xlink:href="#mf765e29c18" y="303.532477"/>
     <use style="fill:#808000;stroke:#808000;stroke-linejoin:bevel;" x="394.509296" xlink:href="#mf765e29c18" y="303.587043"/>
     <use style="fill:#808000;stroke:#808000;stroke-linejoin:bevel;" x="401.469698" xlink:href="#mf765e29c18" y="303.622282"/>
    </g>
   </g>
   <g id="line2d_28">
    <path clip-path="url(#p195e70251b)" d="M 60.071836 15.633835  L 70.216757 16.141858  L 79.144288 16.807451  L 86.854429 17.602656  L 93.752975 18.535491  L 99.839928 19.571884  L 105.521084 20.754579  L 110.796444 22.070116  L 115.666006 23.497478  L 120.535568 25.156409  L 124.999334 26.904713  L 129.463099 28.894646  L 133.521068 30.933893  L 137.579036 33.212108  L 141.637005 35.748927  L 145.694974 38.564321  L 149.752942 41.678338  L 153.405114 44.752659  L 157.361633 48.390509  L 161.216703 52.25826  L 165.071774 56.459573  L 168.926844 61.007293  L 172.781914 65.912224  L 176.636984 71.182691  L 180.492054 76.824091  L 184.550023 83.165324  L 188.607992 89.917621  L 192.919583 97.534046  L 197.383349 105.882499  L 202.050013 115.085752  L 207.122473 125.592141  L 212.778267 137.839926  L 219.473915 152.899765  L 230.557242 178.484449  L 239.586222 199.07753  L 245.470277 211.948683  L 250.441288 222.29467  L 254.905054 231.075829  L 259.013747 238.675936  L 262.868817 245.353368  L 266.520989 251.256882  L 270.17316 256.741646  L 273.622434 261.537068  L 277.071707 265.964109  L 280.52098 270.032281  L 283.970254 273.754501  L 287.419527 277.146263  L 290.8688 280.224887  L 294.216624 282.930991  L 297.868796 285.587063  L 301.520968 287.956527  L 305.17314 290.062119  L 308.825311 291.926045  L 312.88328 293.739676  L 316.941249 295.309407  L 321.405014 296.785828  L 325.86878 298.031627  L 330.738342 299.162758  L 336.013701 300.15928  L 341.694857 301.010447  L 348.187607 301.754854  L 355.49195 302.365179  L 364.013684 302.852352  L 374.564403 303.225617  L 388.767293 303.486238  L 407.028152 303.619425  L 407.028152 303.619425  " style="fill:none;stroke:#808000;stroke-linecap:square;stroke-width:2;"/>
   </g>
   <g id="patch_7">
    <path d="M 60.41 303.64  L 60.41 14.999492  " style="fill:none;stroke:#000000;stroke-linecap:square;stroke-linejoin:miter;stroke-width:0.8;"/>
   </g>
   <g id="patch_8">
    <path d="M 406.69 303.64  L 406.69 14.999492  " style="fill:none;stroke:#000000;stroke-linecap:square;stroke-linejoin:miter;stroke-width:0.8;"/>
   </g>
   <g id="patch_9">
    <path d="M 60.41 303.64  L 406.69 303.64  " style="fill:none;stroke:#000000;stroke-linecap:square;stroke-linejoin:miter;stroke-width:0.8;"/>
   </g>
   <g id="patch_10">
    <path d="M 60.41 14.999492  L 406.69 14.999492  " style="fill:none;stroke:#000000;stroke-linecap:square;stroke-linejoin:miter;stroke-width:0.8;"/>
   </g>
  </g>
 </g>
 <defs>
  <clipPath id="p195e70251b">
   <rect height="288.640508" width="346.28" x="60.41" y="14.999492"/>
  </clipPath>
 </defs>
</g>
    <g transform="translate(10, 300) scale(1) ">
      <g transform="translate(0, 0) scale(3.0) "><defs id="defs831"/>
  <sodipodi:namedview xmlns:sodipodi="http://sodipodi.sourceforge.net/DTD/sodipodi-0.dtd" xmlns:inkscape="http://www.inkscape.org/namespaces/inkscape" id="base" pagecolor="#ffffff" bordercolor="#666666" borderopacity="1.0" inkscape:pageopacity="0.0" inkscape:pageshadow="2" inkscape:zoom="1.979899" inkscape:cx="-12.763683" inkscape:cy="-16.680883" inkscape:document-units="mm" inkscape:current-layer="layer1" showgrid="false" inkscape:window-width="1920" inkscape:window-height="1001" inkscape:window-x="-9" inkscape:window-y="-9" inkscape:window-maximized="1" units="pt"/>
  <metadata xmlns:rdf="http://www.w3.org/1999/02/22-rdf-syntax-ns#" xmlns:cc="http://creativecommons.org/ns#" xmlns:dc="http://purl.org/dc/elements/1.1/" id="metadata834">
    <rdf:RDF>
      <cc:Work rdf:about="">
        <dc:format>image/svg+xml</dc:format>
        <dc:type rdf:resource="http://purl.org/dc/dcmitype/StillImage"/>
        <dc:title/>
      </cc:Work>
    </rdf:RDF>
  </metadata>
  <g xmlns:inkscape="http://www.inkscape.org/namespaces/inkscape" xmlns:sodipodi="http://sodipodi.sourceforge.net/DTD/sodipodi-0.dtd" inkscape:label="Layer 1" inkscape:groupmode="layer" id="layer1" transform="translate(0,-288.81557)">
    <g id="g4761" transform="matrix(0.07377843,0,0,0.07377843,-0.76923022,275.45946)">
      <path inkscape:connector-curvature="0" id="path1959-6-7-1-6-5-4-0-3-2-6-0-3-9-6" style="font-style:normal;font-variant:normal;font-weight:bold;font-stretch:normal;font-size:120.99466705px;line-height:1.25;font-family:Aharoni;-inkscape-font-specification:'Aharoni, Bold';font-variant-ligatures:normal;font-variant-caps:normal;font-variant-numeric:normal;font-feature-settings:normal;text-align:start;letter-spacing:0px;word-spacing:0px;writing-mode:lr-tb;text-anchor:start;fill:#000000;fill-opacity:1;stroke:none;stroke-width:2.37649584" d="M 52.937412,287.55677 H 40.587702 V 265.43005 H 22.776041 v 22.12672 h -12.34982 v -53.17432 h 12.34982 v 20.5296 h 17.811661 v -20.5296 h 12.34971 z"/>
      <path inkscape:connector-curvature="0" id="path1961-2-9-7-9-3-1-6-5-1-5-8-7-8-2" style="font-style:normal;font-variant:normal;font-weight:bold;font-stretch:normal;font-size:120.99466705px;line-height:1.25;font-family:Aharoni;-inkscape-font-specification:'Aharoni, Bold';font-variant-ligatures:normal;font-variant-caps:normal;font-variant-numeric:normal;font-feature-settings:normal;text-align:start;letter-spacing:0px;word-spacing:0px;writing-mode:lr-tb;text-anchor:start;fill:#000000;fill-opacity:1;stroke:none;stroke-width:2.37649584" d="m 69.681125,237.49895 q 0,3.0385 -1.87856,5.1421 -1.84375,2.0647 -4.55721,2.0647 -2.67866,0 -4.55722,-2.1036 -1.84375,-2.1036 -1.84375,-5.1032 0,-2.9996 1.84375,-5.0642 1.87856,-2.1036 4.55722,-2.1036 2.67865,0 4.55721,2.1036 1.87856,2.0646 1.87856,5.0642 z m -0.73057,50.05782 h -11.41048 v -36.15072 h 11.41048 z"/>
      <path inkscape:connector-curvature="0" id="path1963-3-1-2-8-3-6-3-3-3-4-7-6-0-8" style="font-style:normal;font-variant:normal;font-weight:bold;font-stretch:normal;font-size:120.99466705px;line-height:1.25;font-family:Aharoni;-inkscape-font-specification:'Aharoni, Bold';font-variant-ligatures:normal;font-variant-caps:normal;font-variant-numeric:normal;font-feature-settings:normal;text-align:start;letter-spacing:0px;word-spacing:0px;writing-mode:lr-tb;text-anchor:start;fill:#000000;fill-opacity:1;stroke:none;stroke-width:2.37649584" d="m 93.369625,261.92405 h -6.50536 v 25.63272 h -11.4104 v -25.63272 h -3.75712 v -10.518 h 3.75712 v -10.8686 h 11.4104 v 10.8686 h 6.50536 z"/>
      <path id="path1967-3-3-6-2-9-6-2-5-3-0-9-8-2-1" style="font-style:normal;font-variant:normal;font-weight:bold;font-stretch:normal;font-size:120.99466705px;line-height:1.25;font-family:Aharoni;-inkscape-font-specification:'Aharoni, Bold';font-variant-ligatures:normal;font-variant-caps:normal;font-variant-numeric:normal;font-feature-settings:normal;text-align:start;letter-spacing:0px;word-spacing:0px;writing-mode:lr-tb;text-anchor:start;fill:#000000;fill-opacity:1;stroke:none;stroke-width:2.37649584" d="m 160.61447,287.55677 h -12.34971 v -53.17432 h 12.34971 z" inkscape:connector-curvature="0"/>
      <path inkscape:connector-curvature="0" id="path1969-8-0-8-5-3-5-6-6-3-9-8-6-2-0" style="font-style:normal;font-variant:normal;font-weight:bold;font-stretch:normal;font-size:120.99466705px;line-height:1.25;font-family:Aharoni;-inkscape-font-specification:'Aharoni, Bold';font-variant-ligatures:normal;font-variant-caps:normal;font-variant-numeric:normal;font-feature-settings:normal;text-align:start;letter-spacing:0px;word-spacing:0px;writing-mode:lr-tb;text-anchor:start;fill:#000000;fill-opacity:1;stroke:none;stroke-width:2.37649584" d="m 201.6896,284.86883 q -6.05314,2.68794 -11.20172,2.68794 -8.97528,0 -16.07201,-6.42764 -9.04489,-8.21959 -9.04489,-21.42558 0,-13.2448 9.04489,-21.4644 7.09673,-6.4277 16.17636,-6.4277 4.93989,0 11.09737,2.6879 v 16.5561 q -1.73941,-2.3763 -3.54836,-3.5839 -3.30489,-2.2204 -7.09679,-2.2204 -4.8007,0 -8.34907,3.2333 -4.48766,4.0903 -4.48766,11.2191 0,7.0899 4.48766,11.1803 3.54837,3.23328 8.34907,3.23328 3.7919,0 7.09679,-2.22049 1.77415,-1.16869 3.54836,-3.58389 z"/>
      <path inkscape:transform-center-y="-13.656107" inkscape:transform-center-x="-3.9758045" sodipodi:nodetypes="csssssc" inkscape:connector-curvature="0" id="rect815-3-0-9-3-5-6-0-4-03-7-3-7-5-3-2-76-3-8-8-5-3-7-8-0-1-3-7-9-2-8-1" d="m 104.61223,181.4353 c 0,0 17.68257,27.27493 22.63096,34.41579 7.92879,11.44185 16.42741,30.36094 17.92806,45.50275 1.21005,12.20999 -1.38345,26.51285 -17.32077,30.11208 -11.70405,2.64313 -26.75007,-5.41371 -30.334975,-20.50903 -3.30533,-13.91816 -2.13088,-34.61412 0.0984,-48.67354 1.22049,-7.69719 5.657305,-36.06774 6.998335,-40.84805 z" style="font-style:normal;font-weight:normal;font-size:242.08590698px;line-height:1.25;font-family:sans-serif;letter-spacing:0px;word-spacing:0px;opacity:1;fill:#00456b;fill-opacity:1;stroke:none;stroke-width:0.6720385;stroke-miterlimit:4;stroke-dasharray:none;stroke-dashoffset:0;stroke-opacity:1;paint-order:markers fill stroke"/>
      <path sodipodi:nodetypes="ccscscsccscccscc" d="m 107.52748,246.32531 6.45576,30.78617 6.82019,-1.47997 c 5.75791,-1.24946 9.70999,-3.40081 11.85576,-6.45394 2.16431,-3.05721 2.68673,-7.25521 1.56721,-12.59398 -1.11209,-5.30332 -3.26743,-8.89247 -6.46601,-10.76744 -3.18372,-1.89669 -7.65528,-2.22015 -13.4127,-0.97081 z m -8.759905,-5.09591 12.713095,-2.78742 c 8.8634,-1.94336 15.73718,-1.59097 20.62135,1.05715 4.88003,2.62843 8.10326,7.71587 9.6697,15.26232 1.57464,7.58584 0.64804,13.61405 -2.77981,18.08462 -3.42783,4.4705 -9.55303,7.67294 -18.37559,9.60735 l -12.71311,2.78742 z" style="font-style:normal;font-weight:normal;font-size:242.08590698px;line-height:1.25;font-family:sans-serif;letter-spacing:0px;word-spacing:0px;fill:#ffffff;fill-opacity:1;stroke:none;stroke-width:1.60286868" id="path1193-3-5-3-2-7-4-5-6-0-0-6-9-2-4-7-0-0" inkscape:connector-curvature="0"/>
    </g>
  </g>
</g>
    </g>
  </g>
</svg>
