<?xml version='1.0' encoding='ASCII' standalone='yes'?>
<svg xmlns:xlink="http://www.w3.org/1999/xlink" xmlns="http://www.w3.org/2000/svg" version="1.1" width="460.8px" viewBox="0 0 460.8px 345.6px" height="345.6px">
  <g>
    <g><defs>
  <style type="text/css">
*{stroke-linecap:butt;stroke-linejoin:round;}
  </style>
 </defs>
 <g id="figure_1">
  <g id="patch_1">
   <path d="M 0 345.6  L 460.8 345.6  L 460.8 0  L 0 0  z " style="fill:#ffffff;"/>
  </g>
  <g id="axes_1">
   <g id="patch_2">
    <path d="M 55.82 300.76  L 447.48 300.76  L 447.48 13.32  L 55.82 13.32  z " style="fill:#ffffff;"/>
   </g>
   <g id="matplotlib.axis_1">
    <g id="xtick_1">
     <g id="line2d_1">
      <defs>
       <path d="M 0 0  L 0 3.5  " id="m13cf57c84d" style="stroke:#000000;stroke-width:0.8;"/>
      </defs>
      <g>
       <use style="stroke:#000000;stroke-width:0.8;" x="55.82" xlink:href="#m13cf57c84d" y="300.76"/>
      </g>
     </g>
     <g id="text_1">
      <!-- 0 -->
      <defs>
       <path d="M 31.78125 66.40625  Q 24.171875 66.40625 20.328125 58.90625  Q 16.5 51.421875 16.5 36.375  Q 16.5 21.390625 20.328125 13.890625  Q 24.171875 6.390625 31.78125 6.390625  Q 39.453125 6.390625 43.28125 13.890625  Q 47.125 21.390625 47.125 36.375  Q 47.125 51.421875 43.28125 58.90625  Q 39.453125 66.40625 31.78125 66.40625  z M 31.78125 74.21875  Q 44.046875 74.21875 50.515625 64.515625  Q 56.984375 54.828125 56.984375 36.375  Q 56.984375 17.96875 50.515625 8.265625  Q 44.046875 -1.421875 31.78125 -1.421875  Q 19.53125 -1.421875 13.0625 8.265625  Q 6.59375 17.96875 6.59375 36.375  Q 6.59375 54.828125 13.0625 64.515625  Q 19.53125 74.21875 31.78125 74.21875  z " id="DejaVuSans-30"/>
      </defs>
      <g transform="translate(52.63875 315.358437)scale(0.1 -0.1)">
       <use xlink:href="#DejaVuSans-30"/>
      </g>
     </g>
    </g>
    <g id="xtick_2">
     <g id="line2d_2">
      <g>
       <use style="stroke:#000000;stroke-width:0.8;" x="116.075385" xlink:href="#m13cf57c84d" y="300.76"/>
      </g>
     </g>
     <g id="text_2">
      <!-- 200 -->
      <defs>
       <path d="M 19.1875 8.296875  L 53.609375 8.296875  L 53.609375 0  L 7.328125 0  L 7.328125 8.296875  Q 12.9375 14.109375 22.625 23.890625  Q 32.328125 33.6875 34.8125 36.53125  Q 39.546875 41.84375 41.421875 45.53125  Q 43.3125 49.21875 43.3125 52.78125  Q 43.3125 58.59375 39.234375 62.25  Q 35.15625 65.921875 28.609375 65.921875  Q 23.96875 65.921875 18.8125 64.3125  Q 13.671875 62.703125 7.8125 59.421875  L 7.8125 69.390625  Q 13.765625 71.78125 18.9375 73  Q 24.125 74.21875 28.421875 74.21875  Q 39.75 74.21875 46.484375 68.546875  Q 53.21875 62.890625 53.21875 53.421875  Q 53.21875 48.921875 51.53125 44.890625  Q 49.859375 40.875 45.40625 35.40625  Q 44.1875 33.984375 37.640625 27.21875  Q 31.109375 20.453125 19.1875 8.296875  z " id="DejaVuSans-32"/>
      </defs>
      <g transform="translate(106.531635 315.358437)scale(0.1 -0.1)">
       <use xlink:href="#DejaVuSans-32"/>
       <use x="63.623047" xlink:href="#DejaVuSans-30"/>
       <use x="127.246094" xlink:href="#DejaVuSans-30"/>
      </g>
     </g>
    </g>
    <g id="xtick_3">
     <g id="line2d_3">
      <g>
       <use style="stroke:#000000;stroke-width:0.8;" x="176.330769" xlink:href="#m13cf57c84d" y="300.76"/>
      </g>
     </g>
     <g id="text_3">
      <!-- 400 -->
      <defs>
       <path d="M 37.796875 64.3125  L 12.890625 25.390625  L 37.796875 25.390625  z M 35.203125 72.90625  L 47.609375 72.90625  L 47.609375 25.390625  L 58.015625 25.390625  L 58.015625 17.1875  L 47.609375 17.1875  L 47.609375 0  L 37.796875 0  L 37.796875 17.1875  L 4.890625 17.1875  L 4.890625 26.703125  z " id="DejaVuSans-34"/>
      </defs>
      <g transform="translate(166.787019 315.358437)scale(0.1 -0.1)">
       <use xlink:href="#DejaVuSans-34"/>
       <use x="63.623047" xlink:href="#DejaVuSans-30"/>
       <use x="127.246094" xlink:href="#DejaVuSans-30"/>
      </g>
     </g>
    </g>
    <g id="xtick_4">
     <g id="line2d_4">
      <g>
       <use style="stroke:#000000;stroke-width:0.8;" x="236.586154" xlink:href="#m13cf57c84d" y="300.76"/>
      </g>
     </g>
     <g id="text_4">
      <!-- 600 -->
      <defs>
       <path d="M 33.015625 40.375  Q 26.375 40.375 22.484375 35.828125  Q 18.609375 31.296875 18.609375 23.390625  Q 18.609375 15.53125 22.484375 10.953125  Q 26.375 6.390625 33.015625 6.390625  Q 39.65625 6.390625 43.53125 10.953125  Q 47.40625 15.53125 47.40625 23.390625  Q 47.40625 31.296875 43.53125 35.828125  Q 39.65625 40.375 33.015625 40.375  z M 52.59375 71.296875  L 52.59375 62.3125  Q 48.875 64.0625 45.09375 64.984375  Q 41.3125 65.921875 37.59375 65.921875  Q 27.828125 65.921875 22.671875 59.328125  Q 17.53125 52.734375 16.796875 39.40625  Q 19.671875 43.65625 24.015625 45.921875  Q 28.375 48.1875 33.59375 48.1875  Q 44.578125 48.1875 50.953125 41.515625  Q 57.328125 34.859375 57.328125 23.390625  Q 57.328125 12.15625 50.6875 5.359375  Q 44.046875 -1.421875 33.015625 -1.421875  Q 20.359375 -1.421875 13.671875 8.265625  Q 6.984375 17.96875 6.984375 36.375  Q 6.984375 53.65625 15.1875 63.9375  Q 23.390625 74.21875 37.203125 74.21875  Q 40.921875 74.21875 44.703125 73.484375  Q 48.484375 72.75 52.59375 71.296875  z " id="DejaVuSans-36"/>
      </defs>
      <g transform="translate(227.042404 315.358437)scale(0.1 -0.1)">
       <use xlink:href="#DejaVuSans-36"/>
       <use x="63.623047" xlink:href="#DejaVuSans-30"/>
       <use x="127.246094" xlink:href="#DejaVuSans-30"/>
      </g>
     </g>
    </g>
    <g id="xtick_5">
     <g id="line2d_5">
      <g>
       <use style="stroke:#000000;stroke-width:0.8;" x="296.841538" xlink:href="#m13cf57c84d" y="300.76"/>
      </g>
     </g>
     <g id="text_5">
      <!-- 800 -->
      <defs>
       <path d="M 31.78125 34.625  Q 24.75 34.625 20.71875 30.859375  Q 16.703125 27.09375 16.703125 20.515625  Q 16.703125 13.921875 20.71875 10.15625  Q 24.75 6.390625 31.78125 6.390625  Q 38.8125 6.390625 42.859375 10.171875  Q 46.921875 13.96875 46.921875 20.515625  Q 46.921875 27.09375 42.890625 30.859375  Q 38.875 34.625 31.78125 34.625  z M 21.921875 38.8125  Q 15.578125 40.375 12.03125 44.71875  Q 8.5 49.078125 8.5 55.328125  Q 8.5 64.0625 14.71875 69.140625  Q 20.953125 74.21875 31.78125 74.21875  Q 42.671875 74.21875 48.875 69.140625  Q 55.078125 64.0625 55.078125 55.328125  Q 55.078125 49.078125 51.53125 44.71875  Q 48 40.375 41.703125 38.8125  Q 48.828125 37.15625 52.796875 32.3125  Q 56.78125 27.484375 56.78125 20.515625  Q 56.78125 9.90625 50.3125 4.234375  Q 43.84375 -1.421875 31.78125 -1.421875  Q 19.734375 -1.421875 13.25 4.234375  Q 6.78125 9.90625 6.78125 20.515625  Q 6.78125 27.484375 10.78125 32.3125  Q 14.796875 37.15625 21.921875 38.8125  z M 18.3125 54.390625  Q 18.3125 48.734375 21.84375 45.5625  Q 25.390625 42.390625 31.78125 42.390625  Q 38.140625 42.390625 41.71875 45.5625  Q 45.3125 48.734375 45.3125 54.390625  Q 45.3125 60.0625 41.71875 63.234375  Q 38.140625 66.40625 31.78125 66.40625  Q 25.390625 66.40625 21.84375 63.234375  Q 18.3125 60.0625 18.3125 54.390625  z " id="DejaVuSans-38"/>
      </defs>
      <g transform="translate(287.297788 315.358437)scale(0.1 -0.1)">
       <use xlink:href="#DejaVuSans-38"/>
       <use x="63.623047" xlink:href="#DejaVuSans-30"/>
       <use x="127.246094" xlink:href="#DejaVuSans-30"/>
      </g>
     </g>
    </g>
    <g id="xtick_6">
     <g id="line2d_6">
      <g>
       <use style="stroke:#000000;stroke-width:0.8;" x="357.096923" xlink:href="#m13cf57c84d" y="300.76"/>
      </g>
     </g>
     <g id="text_6">
      <!-- 1000 -->
      <defs>
       <path d="M 12.40625 8.296875  L 28.515625 8.296875  L 28.515625 63.921875  L 10.984375 60.40625  L 10.984375 69.390625  L 28.421875 72.90625  L 38.28125 72.90625  L 38.28125 8.296875  L 54.390625 8.296875  L 54.390625 0  L 12.40625 0  z " id="DejaVuSans-31"/>
      </defs>
      <g transform="translate(344.371923 315.358437)scale(0.1 -0.1)">
       <use xlink:href="#DejaVuSans-31"/>
       <use x="63.623047" xlink:href="#DejaVuSans-30"/>
       <use x="127.246094" xlink:href="#DejaVuSans-30"/>
       <use x="190.869141" xlink:href="#DejaVuSans-30"/>
      </g>
     </g>
    </g>
    <g id="xtick_7">
     <g id="line2d_7">
      <g>
       <use style="stroke:#000000;stroke-width:0.8;" x="417.352308" xlink:href="#m13cf57c84d" y="300.76"/>
      </g>
     </g>
     <g id="text_7">
      <!-- 1200 -->
      <g transform="translate(404.627308 315.358437)scale(0.1 -0.1)">
       <use xlink:href="#DejaVuSans-31"/>
       <use x="63.623047" xlink:href="#DejaVuSans-32"/>
       <use x="127.246094" xlink:href="#DejaVuSans-30"/>
       <use x="190.869141" xlink:href="#DejaVuSans-30"/>
      </g>
     </g>
    </g>
    <g id="text_8">
     <!-- Distance ($\mu$m) -->
     <defs>
      <path d="M 19.671875 64.796875  L 19.671875 8.109375  L 31.59375 8.109375  Q 46.6875 8.109375 53.6875 14.9375  Q 60.6875 21.78125 60.6875 36.53125  Q 60.6875 51.171875 53.6875 57.984375  Q 46.6875 64.796875 31.59375 64.796875  z M 9.8125 72.90625  L 30.078125 72.90625  Q 51.265625 72.90625 61.171875 64.09375  Q 71.09375 55.28125 71.09375 36.53125  Q 71.09375 17.671875 61.125 8.828125  Q 51.171875 0 30.078125 0  L 9.8125 0  z " id="DejaVuSans-44"/>
      <path d="M 9.421875 54.6875  L 18.40625 54.6875  L 18.40625 0  L 9.421875 0  z M 9.421875 75.984375  L 18.40625 75.984375  L 18.40625 64.59375  L 9.421875 64.59375  z " id="DejaVuSans-69"/>
      <path d="M 44.28125 53.078125  L 44.28125 44.578125  Q 40.484375 46.53125 36.375 47.5  Q 32.28125 48.484375 27.875 48.484375  Q 21.1875 48.484375 17.84375 46.4375  Q 14.5 44.390625 14.5 40.28125  Q 14.5 37.15625 16.890625 35.375  Q 19.28125 33.59375 26.515625 31.984375  L 29.59375 31.296875  Q 39.15625 29.25 43.1875 25.515625  Q 47.21875 21.78125 47.21875 15.09375  Q 47.21875 7.46875 41.1875 3.015625  Q 35.15625 -1.421875 24.609375 -1.421875  Q 20.21875 -1.421875 15.453125 -0.5625  Q 10.6875 0.296875 5.421875 2  L 5.421875 11.28125  Q 10.40625 8.6875 15.234375 7.390625  Q 20.0625 6.109375 24.8125 6.109375  Q 31.15625 6.109375 34.5625 8.28125  Q 37.984375 10.453125 37.984375 14.40625  Q 37.984375 18.0625 35.515625 20.015625  Q 33.0625 21.96875 24.703125 23.78125  L 21.578125 24.515625  Q 13.234375 26.265625 9.515625 29.90625  Q 5.8125 33.546875 5.8125 39.890625  Q 5.8125 47.609375 11.28125 51.796875  Q 16.75 56 26.8125 56  Q 31.78125 56 36.171875 55.265625  Q 40.578125 54.546875 44.28125 53.078125  z " id="DejaVuSans-73"/>
      <path d="M 18.3125 70.21875  L 18.3125 54.6875  L 36.8125 54.6875  L 36.8125 47.703125  L 18.3125 47.703125  L 18.3125 18.015625  Q 18.3125 11.328125 20.140625 9.421875  Q 21.96875 7.515625 27.59375 7.515625  L 36.8125 7.515625  L 36.8125 0  L 27.59375 0  Q 17.1875 0 13.234375 3.875  Q 9.28125 7.765625 9.28125 18.015625  L 9.28125 47.703125  L 2.6875 47.703125  L 2.6875 54.6875  L 9.28125 54.6875  L 9.28125 70.21875  z " id="DejaVuSans-74"/>
      <path d="M 34.28125 27.484375  Q 23.390625 27.484375 19.1875 25  Q 14.984375 22.515625 14.984375 16.5  Q 14.984375 11.71875 18.140625 8.90625  Q 21.296875 6.109375 26.703125 6.109375  Q 34.1875 6.109375 38.703125 11.40625  Q 43.21875 16.703125 43.21875 25.484375  L 43.21875 27.484375  z M 52.203125 31.203125  L 52.203125 0  L 43.21875 0  L 43.21875 8.296875  Q 40.140625 3.328125 35.546875 0.953125  Q 30.953125 -1.421875 24.3125 -1.421875  Q 15.921875 -1.421875 10.953125 3.296875  Q 6 8.015625 6 15.921875  Q 6 25.140625 12.171875 29.828125  Q 18.359375 34.515625 30.609375 34.515625  L 43.21875 34.515625  L 43.21875 35.40625  Q 43.21875 41.609375 39.140625 45  Q 35.0625 48.390625 27.6875 48.390625  Q 23 48.390625 18.546875 47.265625  Q 14.109375 46.140625 10.015625 43.890625  L 10.015625 52.203125  Q 14.9375 54.109375 19.578125 55.046875  Q 24.21875 56 28.609375 56  Q 40.484375 56 46.34375 49.84375  Q 52.203125 43.703125 52.203125 31.203125  z " id="DejaVuSans-61"/>
      <path d="M 54.890625 33.015625  L 54.890625 0  L 45.90625 0  L 45.90625 32.71875  Q 45.90625 40.484375 42.875 44.328125  Q 39.84375 48.1875 33.796875 48.1875  Q 26.515625 48.1875 22.3125 43.546875  Q 18.109375 38.921875 18.109375 30.90625  L 18.109375 0  L 9.078125 0  L 9.078125 54.6875  L 18.109375 54.6875  L 18.109375 46.1875  Q 21.34375 51.125 25.703125 53.5625  Q 30.078125 56 35.796875 56  Q 45.21875 56 50.046875 50.171875  Q 54.890625 44.34375 54.890625 33.015625  z " id="DejaVuSans-6e"/>
      <path d="M 48.78125 52.59375  L 48.78125 44.1875  Q 44.96875 46.296875 41.140625 47.34375  Q 37.3125 48.390625 33.40625 48.390625  Q 24.65625 48.390625 19.8125 42.84375  Q 14.984375 37.3125 14.984375 27.296875  Q 14.984375 17.28125 19.8125 11.734375  Q 24.65625 6.203125 33.40625 6.203125  Q 37.3125 6.203125 41.140625 7.25  Q 44.96875 8.296875 48.78125 10.40625  L 48.78125 2.09375  Q 45.015625 0.34375 40.984375 -0.53125  Q 36.96875 -1.421875 32.421875 -1.421875  Q 20.0625 -1.421875 12.78125 6.34375  Q 5.515625 14.109375 5.515625 27.296875  Q 5.515625 40.671875 12.859375 48.328125  Q 20.21875 56 33.015625 56  Q 37.15625 56 41.109375 55.140625  Q 45.0625 54.296875 48.78125 52.59375  z " id="DejaVuSans-63"/>
      <path d="M 56.203125 29.59375  L 56.203125 25.203125  L 14.890625 25.203125  Q 15.484375 15.921875 20.484375 11.0625  Q 25.484375 6.203125 34.421875 6.203125  Q 39.59375 6.203125 44.453125 7.46875  Q 49.3125 8.734375 54.109375 11.28125  L 54.109375 2.78125  Q 49.265625 0.734375 44.1875 -0.34375  Q 39.109375 -1.421875 33.890625 -1.421875  Q 20.796875 -1.421875 13.15625 6.1875  Q 5.515625 13.8125 5.515625 26.8125  Q 5.515625 40.234375 12.765625 48.109375  Q 20.015625 56 32.328125 56  Q 43.359375 56 49.78125 48.890625  Q 56.203125 41.796875 56.203125 29.59375  z M 47.21875 32.234375  Q 47.125 39.59375 43.09375 43.984375  Q 39.0625 48.390625 32.421875 48.390625  Q 24.90625 48.390625 20.390625 44.140625  Q 15.875 39.890625 15.1875 32.171875  z " id="DejaVuSans-65"/>
      <path id="DejaVuSans-20"/>
      <path d="M 31 75.875  Q 24.46875 64.65625 21.28125 53.65625  Q 18.109375 42.671875 18.109375 31.390625  Q 18.109375 20.125 21.3125 9.0625  Q 24.515625 -2 31 -13.1875  L 23.1875 -13.1875  Q 15.875 -1.703125 12.234375 9.375  Q 8.59375 20.453125 8.59375 31.390625  Q 8.59375 42.28125 12.203125 53.3125  Q 15.828125 64.359375 23.1875 75.875  z " id="DejaVuSans-28"/>
      <path d="M -1.3125 -20.796875  L 13.375 54.6875  L 22.40625 54.6875  L 15.765625 20.65625  Q 15.578125 19.625 15.421875 18.359375  Q 15.28125 17.09375 15.28125 15.828125  Q 15.28125 11.28125 18.140625 8.828125  Q 21 6.390625 26.3125 6.390625  Q 33.546875 6.390625 37.984375 10.484375  Q 42.4375 14.59375 44 22.796875  L 50.203125 54.6875  L 59.1875 54.6875  L 51.03125 12.640625  Q 50.828125 11.71875 50.75 11.03125  Q 50.6875 10.359375 50.6875 9.8125  Q 50.6875 8.296875 51.296875 7.59375  Q 51.90625 6.890625 53.21875 6.890625  Q 53.71875 6.890625 54.5625 7.125  Q 55.421875 7.375 56.984375 8.015625  L 55.609375 0.78125  Q 53.46875 -0.296875 51.515625 -0.859375  Q 49.5625 -1.421875 47.703125 -1.421875  Q 44.484375 -1.421875 42.65625 0.625  Q 40.828125 2.6875 40.828125 6.296875  Q 38.09375 2.390625 34.296875 0.484375  Q 30.515625 -1.421875 25.390625 -1.421875  Q 20.84375 -1.421875 17.453125 0.671875  Q 14.0625 2.78125 12.984375 6.203125  L 7.71875 -20.796875  z " id="DejaVuSans-Oblique-3bc"/>
      <path d="M 52 44.1875  Q 55.375 50.25 60.0625 53.125  Q 64.75 56 71.09375 56  Q 79.640625 56 84.28125 50.015625  Q 88.921875 44.046875 88.921875 33.015625  L 88.921875 0  L 79.890625 0  L 79.890625 32.71875  Q 79.890625 40.578125 77.09375 44.375  Q 74.3125 48.1875 68.609375 48.1875  Q 61.625 48.1875 57.5625 43.546875  Q 53.515625 38.921875 53.515625 30.90625  L 53.515625 0  L 44.484375 0  L 44.484375 32.71875  Q 44.484375 40.625 41.703125 44.40625  Q 38.921875 48.1875 33.109375 48.1875  Q 26.21875 48.1875 22.15625 43.53125  Q 18.109375 38.875 18.109375 30.90625  L 18.109375 0  L 9.078125 0  L 9.078125 54.6875  L 18.109375 54.6875  L 18.109375 46.1875  Q 21.1875 51.21875 25.484375 53.609375  Q 29.78125 56 35.6875 56  Q 41.65625 56 45.828125 52.96875  Q 50 49.953125 52 44.1875  z " id="DejaVuSans-6d"/>
      <path d="M 8.015625 75.875  L 15.828125 75.875  Q 23.140625 64.359375 26.78125 53.3125  Q 30.421875 42.28125 30.421875 31.390625  Q 30.421875 20.453125 26.78125 9.375  Q 23.140625 -1.703125 15.828125 -13.1875  L 8.015625 -13.1875  Q 14.5 -2 17.703125 9.0625  Q 20.90625 20.125 20.90625 31.390625  Q 20.90625 42.671875 17.703125 53.65625  Q 14.5 64.65625 8.015625 75.875  z " id="DejaVuSans-29"/>
     </defs>
     <g transform="translate(216.2 329.038125)scale(0.1 -0.1)">
      <use transform="translate(0 0.015625)" xlink:href="#DejaVuSans-44"/>
      <use transform="translate(77.001953 0.015625)" xlink:href="#DejaVuSans-69"/>
      <use transform="translate(104.785156 0.015625)" xlink:href="#DejaVuSans-73"/>
      <use transform="translate(156.884766 0.015625)" xlink:href="#DejaVuSans-74"/>
      <use transform="translate(196.09375 0.015625)" xlink:href="#DejaVuSans-61"/>
      <use transform="translate(257.373047 0.015625)" xlink:href="#DejaVuSans-6e"/>
      <use transform="translate(320.751953 0.015625)" xlink:href="#DejaVuSans-63"/>
      <use transform="translate(375.732422 0.015625)" xlink:href="#DejaVuSans-65"/>
      <use transform="translate(437.255859 0.015625)" xlink:href="#DejaVuSans-20"/>
      <use transform="translate(469.042969 0.015625)" xlink:href="#DejaVuSans-28"/>
      <use transform="translate(508.056641 0.015625)" xlink:href="#DejaVuSans-Oblique-3bc"/>
      <use transform="translate(571.679688 0.015625)" xlink:href="#DejaVuSans-6d"/>
      <use transform="translate(669.091797 0.015625)" xlink:href="#DejaVuSans-29"/>
     </g>
    </g>
   </g>
   <g id="matplotlib.axis_2">
    <g id="ytick_1">
     <g id="line2d_8">
      <defs>
       <path d="M 0 0  L -3.5 0  " id="me0c69a9044" style="stroke:#000000;stroke-width:0.8;"/>
      </defs>
      <g>
       <use style="stroke:#000000;stroke-width:0.8;" x="55.82" xlink:href="#me0c69a9044" y="248.7031"/>
      </g>
     </g>
     <g id="text_9">
      <!-- &#8722;50 -->
      <defs>
       <path d="M 10.59375 35.5  L 73.1875 35.5  L 73.1875 27.203125  L 10.59375 27.203125  z " id="DejaVuSans-2212"/>
       <path d="M 10.796875 72.90625  L 49.515625 72.90625  L 49.515625 64.59375  L 19.828125 64.59375  L 19.828125 46.734375  Q 21.96875 47.46875 24.109375 47.828125  Q 26.265625 48.1875 28.421875 48.1875  Q 40.625 48.1875 47.75 41.5  Q 54.890625 34.8125 54.890625 23.390625  Q 54.890625 11.625 47.5625 5.09375  Q 40.234375 -1.421875 26.90625 -1.421875  Q 22.3125 -1.421875 17.546875 -0.640625  Q 12.796875 0.140625 7.71875 1.703125  L 7.71875 11.625  Q 12.109375 9.234375 16.796875 8.0625  Q 21.484375 6.890625 26.703125 6.890625  Q 35.15625 6.890625 40.078125 11.328125  Q 45.015625 15.765625 45.015625 23.390625  Q 45.015625 31 40.078125 35.4375  Q 35.15625 39.890625 26.703125 39.890625  Q 22.75 39.890625 18.8125 39.015625  Q 14.890625 38.140625 10.796875 36.28125  z " id="DejaVuSans-35"/>
      </defs>
      <g transform="translate(27.715313 252.502319)scale(0.1 -0.1)">
       <use xlink:href="#DejaVuSans-2212"/>
       <use x="83.789062" xlink:href="#DejaVuSans-35"/>
       <use x="147.412109" xlink:href="#DejaVuSans-30"/>
      </g>
     </g>
    </g>
    <g id="ytick_2">
     <g id="line2d_9">
      <g>
       <use style="stroke:#000000;stroke-width:0.8;" x="55.82" xlink:href="#me0c69a9044" y="189.598063"/>
      </g>
     </g>
     <g id="text_10">
      <!-- 0 -->
      <g transform="translate(42.4575 193.397281)scale(0.1 -0.1)">
       <use xlink:href="#DejaVuSans-30"/>
      </g>
     </g>
    </g>
    <g id="ytick_3">
     <g id="line2d_10">
      <g>
       <use style="stroke:#000000;stroke-width:0.8;" x="55.82" xlink:href="#me0c69a9044" y="130.493025"/>
      </g>
     </g>
     <g id="text_11">
      <!-- 50 -->
      <g transform="translate(36.095 134.292243)scale(0.1 -0.1)">
       <use xlink:href="#DejaVuSans-35"/>
       <use x="63.623047" xlink:href="#DejaVuSans-30"/>
      </g>
     </g>
    </g>
    <g id="ytick_4">
     <g id="line2d_11">
      <g>
       <use style="stroke:#000000;stroke-width:0.8;" x="55.82" xlink:href="#me0c69a9044" y="71.387987"/>
      </g>
     </g>
     <g id="text_12">
      <!-- 100 -->
      <g transform="translate(29.7325 75.187205)scale(0.1 -0.1)">
       <use xlink:href="#DejaVuSans-31"/>
       <use x="63.623047" xlink:href="#DejaVuSans-30"/>
       <use x="127.246094" xlink:href="#DejaVuSans-30"/>
      </g>
     </g>
    </g>
    <g id="text_13">
     <!-- Slope, at. / $\mu m$ -->
     <defs>
      <path d="M 53.515625 70.515625  L 53.515625 60.890625  Q 47.90625 63.578125 42.921875 64.890625  Q 37.9375 66.21875 33.296875 66.21875  Q 25.25 66.21875 20.875 63.09375  Q 16.5 59.96875 16.5 54.203125  Q 16.5 49.359375 19.40625 46.890625  Q 22.3125 44.4375 30.421875 42.921875  L 36.375 41.703125  Q 47.40625 39.59375 52.65625 34.296875  Q 57.90625 29 57.90625 20.125  Q 57.90625 9.515625 50.796875 4.046875  Q 43.703125 -1.421875 29.984375 -1.421875  Q 24.8125 -1.421875 18.96875 -0.25  Q 13.140625 0.921875 6.890625 3.21875  L 6.890625 13.375  Q 12.890625 10.015625 18.65625 8.296875  Q 24.421875 6.59375 29.984375 6.59375  Q 38.421875 6.59375 43.015625 9.90625  Q 47.609375 13.234375 47.609375 19.390625  Q 47.609375 24.75 44.3125 27.78125  Q 41.015625 30.8125 33.5 32.328125  L 27.484375 33.5  Q 16.453125 35.6875 11.515625 40.375  Q 6.59375 45.0625 6.59375 53.421875  Q 6.59375 63.09375 13.40625 68.65625  Q 20.21875 74.21875 32.171875 74.21875  Q 37.3125 74.21875 42.625 73.28125  Q 47.953125 72.359375 53.515625 70.515625  z " id="DejaVuSans-53"/>
      <path d="M 9.421875 75.984375  L 18.40625 75.984375  L 18.40625 0  L 9.421875 0  z " id="DejaVuSans-6c"/>
      <path d="M 30.609375 48.390625  Q 23.390625 48.390625 19.1875 42.75  Q 14.984375 37.109375 14.984375 27.296875  Q 14.984375 17.484375 19.15625 11.84375  Q 23.34375 6.203125 30.609375 6.203125  Q 37.796875 6.203125 41.984375 11.859375  Q 46.1875 17.53125 46.1875 27.296875  Q 46.1875 37.015625 41.984375 42.703125  Q 37.796875 48.390625 30.609375 48.390625  z M 30.609375 56  Q 42.328125 56 49.015625 48.375  Q 55.71875 40.765625 55.71875 27.296875  Q 55.71875 13.875 49.015625 6.21875  Q 42.328125 -1.421875 30.609375 -1.421875  Q 18.84375 -1.421875 12.171875 6.21875  Q 5.515625 13.875 5.515625 27.296875  Q 5.515625 40.765625 12.171875 48.375  Q 18.84375 56 30.609375 56  z " id="DejaVuSans-6f"/>
      <path d="M 18.109375 8.203125  L 18.109375 -20.796875  L 9.078125 -20.796875  L 9.078125 54.6875  L 18.109375 54.6875  L 18.109375 46.390625  Q 20.953125 51.265625 25.265625 53.625  Q 29.59375 56 35.59375 56  Q 45.5625 56 51.78125 48.09375  Q 58.015625 40.1875 58.015625 27.296875  Q 58.015625 14.40625 51.78125 6.484375  Q 45.5625 -1.421875 35.59375 -1.421875  Q 29.59375 -1.421875 25.265625 0.953125  Q 20.953125 3.328125 18.109375 8.203125  z M 48.6875 27.296875  Q 48.6875 37.203125 44.609375 42.84375  Q 40.53125 48.484375 33.40625 48.484375  Q 26.265625 48.484375 22.1875 42.84375  Q 18.109375 37.203125 18.109375 27.296875  Q 18.109375 17.390625 22.1875 11.75  Q 26.265625 6.109375 33.40625 6.109375  Q 40.53125 6.109375 44.609375 11.75  Q 48.6875 17.390625 48.6875 27.296875  z " id="DejaVuSans-70"/>
      <path d="M 11.71875 12.40625  L 22.015625 12.40625  L 22.015625 4  L 14.015625 -11.625  L 7.71875 -11.625  L 11.71875 4  z " id="DejaVuSans-2c"/>
      <path d="M 10.6875 12.40625  L 21 12.40625  L 21 0  L 10.6875 0  z " id="DejaVuSans-2e"/>
      <path d="M 25.390625 72.90625  L 33.6875 72.90625  L 8.296875 -9.28125  L 0 -9.28125  z " id="DejaVuSans-2f"/>
      <path d="M 89.796875 33.015625  L 83.40625 0  L 74.421875 0  L 80.71875 32.71875  Q 81.109375 34.8125 81.296875 36.328125  Q 81.5 37.84375 81.5 38.921875  Q 81.5 43.3125 79.046875 45.75  Q 76.609375 48.1875 72.21875 48.1875  Q 65.671875 48.1875 60.546875 43.28125  Q 55.421875 38.375 53.90625 30.515625  L 47.90625 0  L 38.921875 0  L 45.3125 32.71875  Q 45.703125 34.515625 45.890625 36.046875  Q 46.09375 37.59375 46.09375 38.8125  Q 46.09375 43.265625 43.65625 45.71875  Q 41.21875 48.1875 36.921875 48.1875  Q 30.28125 48.1875 25.140625 43.28125  Q 20.015625 38.375 18.5 30.515625  L 12.5 0  L 3.515625 0  L 14.203125 54.6875  L 23.1875 54.6875  L 21.484375 46.1875  Q 25.140625 50.984375 30.046875 53.484375  Q 34.96875 56 40.578125 56  Q 46.53125 56 50.359375 52.875  Q 54.203125 49.75 54.984375 44.1875  Q 59.078125 49.953125 64.46875 52.96875  Q 69.875 56 75.875 56  Q 82.90625 56 86.734375 51.953125  Q 90.578125 47.90625 90.578125 40.484375  Q 90.578125 38.875 90.375 36.9375  Q 90.1875 35.015625 89.796875 33.015625  z " id="DejaVuSans-Oblique-6d"/>
     </defs>
     <g transform="translate(21.615313 193.64)rotate(-90)scale(0.1 -0.1)">
      <use transform="translate(0 0.015625)" xlink:href="#DejaVuSans-53"/>
      <use transform="translate(63.476562 0.015625)" xlink:href="#DejaVuSans-6c"/>
      <use transform="translate(91.259766 0.015625)" xlink:href="#DejaVuSans-6f"/>
      <use transform="translate(152.441406 0.015625)" xlink:href="#DejaVuSans-70"/>
      <use transform="translate(215.917969 0.015625)" xlink:href="#DejaVuSans-65"/>
      <use transform="translate(277.441406 0.015625)" xlink:href="#DejaVuSans-2c"/>
      <use transform="translate(309.228516 0.015625)" xlink:href="#DejaVuSans-20"/>
      <use transform="translate(341.015625 0.015625)" xlink:href="#DejaVuSans-61"/>
      <use transform="translate(402.294922 0.015625)" xlink:href="#DejaVuSans-74"/>
      <use transform="translate(441.503906 0.015625)" xlink:href="#DejaVuSans-2e"/>
      <use transform="translate(473.291016 0.015625)" xlink:href="#DejaVuSans-20"/>
      <use transform="translate(505.078125 0.015625)" xlink:href="#DejaVuSans-2f"/>
      <use transform="translate(538.769531 0.015625)" xlink:href="#DejaVuSans-20"/>
      <use transform="translate(570.556641 0.015625)" xlink:href="#DejaVuSans-Oblique-3bc"/>
      <use transform="translate(634.179688 0.015625)" xlink:href="#DejaVuSans-Oblique-6d"/>
     </g>
    </g>
   </g>
   <g id="line2d_12">
    <defs>
     <path d="M -0 3  L 3 -3  L -3 -3  z " id="m8bba71c1be" style="stroke:#e74c3c;stroke-linejoin:miter;"/>
    </defs>
    <g clip-path="url(#p1d7b836702)">
     <use style="fill:#e74c3c;stroke:#e74c3c;stroke-linejoin:miter;" x="55.82" xlink:href="#m8bba71c1be" y="189.617302"/>
     <use style="fill:#e74c3c;stroke:#e74c3c;stroke-linejoin:miter;" x="63.692563" xlink:href="#m8bba71c1be" y="189.628"/>
     <use style="fill:#e74c3c;stroke:#e74c3c;stroke-linejoin:miter;" x="71.565126" xlink:href="#m8bba71c1be" y="189.651066"/>
     <use style="fill:#e74c3c;stroke:#e74c3c;stroke-linejoin:miter;" x="79.437688" xlink:href="#m8bba71c1be" y="189.689963"/>
     <use style="fill:#e74c3c;stroke:#e74c3c;stroke-linejoin:miter;" x="87.310251" xlink:href="#m8bba71c1be" y="189.754108"/>
     <use style="fill:#e74c3c;stroke:#e74c3c;stroke-linejoin:miter;" x="95.182814" xlink:href="#m8bba71c1be" y="189.857545"/>
     <use style="fill:#e74c3c;stroke:#e74c3c;stroke-linejoin:miter;" x="103.055377" xlink:href="#m8bba71c1be" y="190.020622"/>
     <use style="fill:#e74c3c;stroke:#e74c3c;stroke-linejoin:miter;" x="110.92794" xlink:href="#m8bba71c1be" y="190.271956"/>
     <use style="fill:#e74c3c;stroke:#e74c3c;stroke-linejoin:miter;" x="118.800503" xlink:href="#m8bba71c1be" y="190.650551"/>
     <use style="fill:#e74c3c;stroke:#e74c3c;stroke-linejoin:miter;" x="126.673065" xlink:href="#m8bba71c1be" y="191.207842"/>
     <use style="fill:#e74c3c;stroke:#e74c3c;stroke-linejoin:miter;" x="134.545628" xlink:href="#m8bba71c1be" y="192.00929"/>
     <use style="fill:#e74c3c;stroke:#e74c3c;stroke-linejoin:miter;" x="142.418191" xlink:href="#m8bba71c1be" y="193.135045"/>
     <use style="fill:#e74c3c;stroke:#e74c3c;stroke-linejoin:miter;" x="150.290754" xlink:href="#m8bba71c1be" y="194.679079"/>
     <use style="fill:#e74c3c;stroke:#e74c3c;stroke-linejoin:miter;" x="158.163317" xlink:href="#m8bba71c1be" y="196.74617"/>
     <use style="fill:#e74c3c;stroke:#e74c3c;stroke-linejoin:miter;" x="166.035879" xlink:href="#m8bba71c1be" y="199.446209"/>
     <use style="fill:#e74c3c;stroke:#e74c3c;stroke-linejoin:miter;" x="173.908442" xlink:href="#m8bba71c1be" y="202.885487"/>
     <use style="fill:#e74c3c;stroke:#e74c3c;stroke-linejoin:miter;" x="181.781005" xlink:href="#m8bba71c1be" y="207.155052"/>
     <use style="fill:#e74c3c;stroke:#e74c3c;stroke-linejoin:miter;" x="189.653568" xlink:href="#m8bba71c1be" y="212.316694"/>
     <use style="fill:#e74c3c;stroke:#e74c3c;stroke-linejoin:miter;" x="197.526131" xlink:href="#m8bba71c1be" y="218.387766"/>
     <use style="fill:#e74c3c;stroke:#e74c3c;stroke-linejoin:miter;" x="205.398693" xlink:href="#m8bba71c1be" y="225.326591"/>
     <use style="fill:#e74c3c;stroke:#e74c3c;stroke-linejoin:miter;" x="213.271256" xlink:href="#m8bba71c1be" y="233.020677"/>
     <use style="fill:#e74c3c;stroke:#e74c3c;stroke-linejoin:miter;" x="221.143819" xlink:href="#m8bba71c1be" y="241.280109"/>
     <use style="fill:#e74c3c;stroke:#e74c3c;stroke-linejoin:miter;" x="229.016382" xlink:href="#m8bba71c1be" y="249.838255"/>
     <use style="fill:#e74c3c;stroke:#e74c3c;stroke-linejoin:miter;" x="236.888945" xlink:href="#m8bba71c1be" y="258.361234"/>
     <use style="fill:#e74c3c;stroke:#e74c3c;stroke-linejoin:miter;" x="244.761508" xlink:href="#m8bba71c1be" y="266.466553"/>
     <use style="fill:#e74c3c;stroke:#e74c3c;stroke-linejoin:miter;" x="252.63407" xlink:href="#m8bba71c1be" y="273.749921"/>
     <use style="fill:#e74c3c;stroke:#e74c3c;stroke-linejoin:miter;" x="260.506633" xlink:href="#m8bba71c1be" y="279.817886"/>
     <use style="fill:#e74c3c;stroke:#e74c3c;stroke-linejoin:miter;" x="268.379196" xlink:href="#m8bba71c1be" y="284.322742"/>
     <use style="fill:#e74c3c;stroke:#e74c3c;stroke-linejoin:miter;" x="276.251759" xlink:href="#m8bba71c1be" y="286.995431"/>
     <use style="fill:#e74c3c;stroke:#e74c3c;stroke-linejoin:miter;" x="284.124322" xlink:href="#m8bba71c1be" y="287.672134"/>
     <use style="fill:#e74c3c;stroke:#e74c3c;stroke-linejoin:miter;" x="291.996884" xlink:href="#m8bba71c1be" y="286.310893"/>
     <use style="fill:#e74c3c;stroke:#e74c3c;stroke-linejoin:miter;" x="299.869447" xlink:href="#m8bba71c1be" y="282.995914"/>
     <use style="fill:#e74c3c;stroke:#e74c3c;stroke-linejoin:miter;" x="307.74201" xlink:href="#m8bba71c1be" y="277.928949"/>
     <use style="fill:#e74c3c;stroke:#e74c3c;stroke-linejoin:miter;" x="315.614573" xlink:href="#m8bba71c1be" y="271.408967"/>
     <use style="fill:#e74c3c;stroke:#e74c3c;stroke-linejoin:miter;" x="323.487136" xlink:href="#m8bba71c1be" y="263.802983"/>
     <use style="fill:#e74c3c;stroke:#e74c3c;stroke-linejoin:miter;" x="331.359698" xlink:href="#m8bba71c1be" y="255.51198"/>
     <use style="fill:#e74c3c;stroke:#e74c3c;stroke-linejoin:miter;" x="339.232261" xlink:href="#m8bba71c1be" y="246.936314"/>
     <use style="fill:#e74c3c;stroke:#e74c3c;stroke-linejoin:miter;" x="347.104824" xlink:href="#m8bba71c1be" y="238.4447"/>
     <use style="fill:#e74c3c;stroke:#e74c3c;stroke-linejoin:miter;" x="354.977387" xlink:href="#m8bba71c1be" y="230.349957"/>
     <use style="fill:#e74c3c;stroke:#e74c3c;stroke-linejoin:miter;" x="362.84995" xlink:href="#m8bba71c1be" y="222.893432"/>
     <use style="fill:#e74c3c;stroke:#e74c3c;stroke-linejoin:miter;" x="370.722513" xlink:href="#m8bba71c1be" y="216.238587"/>
     <use style="fill:#e74c3c;stroke:#e74c3c;stroke-linejoin:miter;" x="378.595075" xlink:href="#m8bba71c1be" y="210.472973"/>
     <use style="fill:#e74c3c;stroke:#e74c3c;stroke-linejoin:miter;" x="386.467638" xlink:href="#m8bba71c1be" y="205.61684"/>
     <use style="fill:#e74c3c;stroke:#e74c3c;stroke-linejoin:miter;" x="394.340201" xlink:href="#m8bba71c1be" y="201.636137"/>
     <use style="fill:#e74c3c;stroke:#e74c3c;stroke-linejoin:miter;" x="402.212764" xlink:href="#m8bba71c1be" y="198.457529"/>
     <use style="fill:#e74c3c;stroke:#e74c3c;stroke-linejoin:miter;" x="410.085327" xlink:href="#m8bba71c1be" y="195.983358"/>
     <use style="fill:#e74c3c;stroke:#e74c3c;stroke-linejoin:miter;" x="417.957889" xlink:href="#m8bba71c1be" y="194.104957"/>
     <use style="fill:#e74c3c;stroke:#e74c3c;stroke-linejoin:miter;" x="425.830452" xlink:href="#m8bba71c1be" y="192.713339"/>
     <use style="fill:#e74c3c;stroke:#e74c3c;stroke-linejoin:miter;" x="433.703015" xlink:href="#m8bba71c1be" y="191.706879"/>
     <use style="fill:#e74c3c;stroke:#e74c3c;stroke-linejoin:miter;" x="441.575578" xlink:href="#m8bba71c1be" y="190.996052"/>
    </g>
   </g>
   <g id="line2d_13">
    <defs>
     <path d="M 0 -3  L -0.673542 -0.927051  L -2.85317 -0.927051  L -1.089814 0.354102  L -1.763356 2.427051  L -0 1.145898  L 1.763356 2.427051  L 1.089814 0.354102  L 2.85317 -0.927051  L 0.673542 -0.927051  z " id="m7df704a0d6" style="stroke:#808000;stroke-linejoin:bevel;"/>
    </defs>
    <g clip-path="url(#p1d7b836702)">
     <use style="fill:#808000;stroke:#808000;stroke-linejoin:bevel;" x="55.82" xlink:href="#m7df704a0d6" y="189.598066"/>
     <use style="fill:#808000;stroke:#808000;stroke-linejoin:bevel;" x="63.692563" xlink:href="#m7df704a0d6" y="189.598071"/>
     <use style="fill:#808000;stroke:#808000;stroke-linejoin:bevel;" x="71.565126" xlink:href="#m7df704a0d6" y="189.598088"/>
     <use style="fill:#808000;stroke:#808000;stroke-linejoin:bevel;" x="79.437688" xlink:href="#m7df704a0d6" y="189.598138"/>
     <use style="fill:#808000;stroke:#808000;stroke-linejoin:bevel;" x="87.310251" xlink:href="#m7df704a0d6" y="189.598276"/>
     <use style="fill:#808000;stroke:#808000;stroke-linejoin:bevel;" x="95.182814" xlink:href="#m7df704a0d6" y="189.598642"/>
     <use style="fill:#808000;stroke:#808000;stroke-linejoin:bevel;" x="103.055377" xlink:href="#m7df704a0d6" y="189.599571"/>
     <use style="fill:#808000;stroke:#808000;stroke-linejoin:bevel;" x="110.92794" xlink:href="#m7df704a0d6" y="189.601834"/>
     <use style="fill:#808000;stroke:#808000;stroke-linejoin:bevel;" x="118.800503" xlink:href="#m7df704a0d6" y="189.607108"/>
     <use style="fill:#808000;stroke:#808000;stroke-linejoin:bevel;" x="126.673065" xlink:href="#m7df704a0d6" y="189.618886"/>
     <use style="fill:#808000;stroke:#808000;stroke-linejoin:bevel;" x="134.545628" xlink:href="#m7df704a0d6" y="189.644069"/>
     <use style="fill:#808000;stroke:#808000;stroke-linejoin:bevel;" x="142.418191" xlink:href="#m7df704a0d6" y="189.695616"/>
     <use style="fill:#808000;stroke:#808000;stroke-linejoin:bevel;" x="150.290754" xlink:href="#m7df704a0d6" y="189.796591"/>
     <use style="fill:#808000;stroke:#808000;stroke-linejoin:bevel;" x="158.163317" xlink:href="#m7df704a0d6" y="189.985816"/>
     <use style="fill:#808000;stroke:#808000;stroke-linejoin:bevel;" x="166.035879" xlink:href="#m7df704a0d6" y="190.324911"/>
     <use style="fill:#808000;stroke:#808000;stroke-linejoin:bevel;" x="173.908442" xlink:href="#m7df704a0d6" y="190.905696"/>
     <use style="fill:#808000;stroke:#808000;stroke-linejoin:bevel;" x="181.781005" xlink:href="#m7df704a0d6" y="191.85585"/>
     <use style="fill:#808000;stroke:#808000;stroke-linejoin:bevel;" x="189.653568" xlink:href="#m7df704a0d6" y="193.339466"/>
     <use style="fill:#808000;stroke:#808000;stroke-linejoin:bevel;" x="197.526131" xlink:href="#m7df704a0d6" y="195.548389"/>
     <use style="fill:#808000;stroke:#808000;stroke-linejoin:bevel;" x="205.398693" xlink:href="#m7df704a0d6" y="198.680483"/>
     <use style="fill:#808000;stroke:#808000;stroke-linejoin:bevel;" x="213.271256" xlink:href="#m7df704a0d6" y="202.903132"/>
     <use style="fill:#808000;stroke:#808000;stroke-linejoin:bevel;" x="221.143819" xlink:href="#m7df704a0d6" y="208.304338"/>
     <use style="fill:#808000;stroke:#808000;stroke-linejoin:bevel;" x="229.016382" xlink:href="#m7df704a0d6" y="214.839389"/>
     <use style="fill:#808000;stroke:#808000;stroke-linejoin:bevel;" x="236.888945" xlink:href="#m7df704a0d6" y="222.286316"/>
     <use style="fill:#808000;stroke:#808000;stroke-linejoin:bevel;" x="244.761508" xlink:href="#m7df704a0d6" y="230.22611"/>
     <use style="fill:#808000;stroke:#808000;stroke-linejoin:bevel;" x="252.63407" xlink:href="#m7df704a0d6" y="238.061573"/>
     <use style="fill:#808000;stroke:#808000;stroke-linejoin:bevel;" x="260.506633" xlink:href="#m7df704a0d6" y="245.080876"/>
     <use style="fill:#808000;stroke:#808000;stroke-linejoin:bevel;" x="268.379196" xlink:href="#m7df704a0d6" y="250.559722"/>
     <use style="fill:#808000;stroke:#808000;stroke-linejoin:bevel;" x="276.251759" xlink:href="#m7df704a0d6" y="253.883082"/>
     <use style="fill:#808000;stroke:#808000;stroke-linejoin:bevel;" x="284.124322" xlink:href="#m7df704a0d6" y="254.658574"/>
     <use style="fill:#808000;stroke:#808000;stroke-linejoin:bevel;" x="291.996884" xlink:href="#m7df704a0d6" y="252.792648"/>
     <use style="fill:#808000;stroke:#808000;stroke-linejoin:bevel;" x="299.869447" xlink:href="#m7df704a0d6" y="248.509139"/>
     <use style="fill:#808000;stroke:#808000;stroke-linejoin:bevel;" x="307.74201" xlink:href="#m7df704a0d6" y="242.305116"/>
     <use style="fill:#808000;stroke:#808000;stroke-linejoin:bevel;" x="315.614573" xlink:href="#m7df704a0d6" y="234.856048"/>
     <use style="fill:#808000;stroke:#808000;stroke-linejoin:bevel;" x="323.487136" xlink:href="#m7df704a0d6" y="226.895276"/>
     <use style="fill:#808000;stroke:#808000;stroke-linejoin:bevel;" x="331.359698" xlink:href="#m7df704a0d6" y="219.097398"/>
     <use style="fill:#808000;stroke:#808000;stroke-linejoin:bevel;" x="339.232261" xlink:href="#m7df704a0d6" y="211.990573"/>
     <use style="fill:#808000;stroke:#808000;stroke-linejoin:bevel;" x="347.104824" xlink:href="#m7df704a0d6" y="205.911595"/>
     <use style="fill:#808000;stroke:#808000;stroke-linejoin:bevel;" x="354.977387" xlink:href="#m7df704a0d6" y="201.004444"/>
     <use style="fill:#808000;stroke:#808000;stroke-linejoin:bevel;" x="362.84995" xlink:href="#m7df704a0d6" y="197.252309"/>
     <use style="fill:#808000;stroke:#808000;stroke-linejoin:bevel;" x="370.722513" xlink:href="#m7df704a0d6" y="194.527663"/>
     <use style="fill:#808000;stroke:#808000;stroke-linejoin:bevel;" x="378.595075" xlink:href="#m7df704a0d6" y="192.645084"/>
     <use style="fill:#808000;stroke:#808000;stroke-linejoin:bevel;" x="386.467638" xlink:href="#m7df704a0d6" y="191.405628"/>
     <use style="fill:#808000;stroke:#808000;stroke-linejoin:bevel;" x="394.340201" xlink:href="#m7df704a0d6" y="190.627185"/>
     <use style="fill:#808000;stroke:#808000;stroke-linejoin:bevel;" x="402.212764" xlink:href="#m7df704a0d6" y="190.160397"/>
     <use style="fill:#808000;stroke:#808000;stroke-linejoin:bevel;" x="410.085327" xlink:href="#m7df704a0d6" y="189.892964"/>
     <use style="fill:#808000;stroke:#808000;stroke-linejoin:bevel;" x="417.957889" xlink:href="#m7df704a0d6" y="189.74649"/>
     <use style="fill:#808000;stroke:#808000;stroke-linejoin:bevel;" x="425.830452" xlink:href="#m7df704a0d6" y="189.66976"/>
     <use style="fill:#808000;stroke:#808000;stroke-linejoin:bevel;" x="433.703015" xlink:href="#m7df704a0d6" y="189.631302"/>
     <use style="fill:#808000;stroke:#808000;stroke-linejoin:bevel;" x="441.575578" xlink:href="#m7df704a0d6" y="189.612852"/>
    </g>
   </g>
   <g id="line2d_14">
    <defs>
     <path d="M 0 3  C 0.795609 3 1.55874 2.683901 2.12132 2.12132  C 2.683901 1.55874 3 0.795609 3 0  C 3 -0.795609 2.683901 -1.55874 2.12132 -2.12132  C 1.55874 -2.683901 0.795609 -3 0 -3  C -0.795609 -3 -1.55874 -2.683901 -2.12132 -2.12132  C -2.683901 -1.55874 -3 -0.795609 -3 0  C -3 0.795609 -2.683901 1.55874 -2.12132 2.12132  C -1.55874 2.683901 -0.795609 3 0 3  z " id="mdd4e01807b" style="stroke:#008080;"/>
    </defs>
    <g clip-path="url(#p1d7b836702)">
     <use style="fill:#008080;stroke:#008080;" x="55.82" xlink:href="#mdd4e01807b" y="189.57882"/>
     <use style="fill:#008080;stroke:#008080;" x="63.692563" xlink:href="#mdd4e01807b" y="189.568117"/>
     <use style="fill:#008080;stroke:#008080;" x="71.565126" xlink:href="#mdd4e01807b" y="189.545033"/>
     <use style="fill:#008080;stroke:#008080;" x="79.437688" xlink:href="#mdd4e01807b" y="189.506087"/>
     <use style="fill:#008080;stroke:#008080;" x="87.310251" xlink:href="#mdd4e01807b" y="189.441804"/>
     <use style="fill:#008080;stroke:#008080;" x="95.182814" xlink:href="#mdd4e01807b" y="189.338001"/>
     <use style="fill:#008080;stroke:#008080;" x="103.055377" xlink:href="#mdd4e01807b" y="189.173994"/>
     <use style="fill:#008080;stroke:#008080;" x="110.92794" xlink:href="#mdd4e01807b" y="188.920398"/>
     <use style="fill:#008080;stroke:#008080;" x="118.800503" xlink:href="#mdd4e01807b" y="188.536528"/>
     <use style="fill:#008080;stroke:#008080;" x="126.673065" xlink:href="#mdd4e01807b" y="187.96746"/>
     <use style="fill:#008080;stroke:#008080;" x="134.545628" xlink:href="#mdd4e01807b" y="187.140828"/>
     <use style="fill:#008080;stroke:#008080;" x="142.418191" xlink:href="#mdd4e01807b" y="185.963526"/>
     <use style="fill:#008080;stroke:#008080;" x="150.290754" xlink:href="#mdd4e01807b" y="184.318518"/>
     <use style="fill:#008080;stroke:#008080;" x="158.163317" xlink:href="#mdd4e01807b" y="182.062201"/>
     <use style="fill:#008080;stroke:#008080;" x="166.035879" xlink:href="#mdd4e01807b" y="179.023067"/>
     <use style="fill:#008080;stroke:#008080;" x="173.908442" xlink:href="#mdd4e01807b" y="175.003004"/>
     <use style="fill:#008080;stroke:#008080;" x="181.781005" xlink:href="#mdd4e01807b" y="169.783286"/>
     <use style="fill:#008080;stroke:#008080;" x="189.653568" xlink:href="#mdd4e01807b" y="163.138027"/>
     <use style="fill:#008080;stroke:#008080;" x="197.526131" xlink:href="#mdd4e01807b" y="154.858032"/>
     <use style="fill:#008080;stroke:#008080;" x="205.398693" xlink:href="#mdd4e01807b" y="144.787113"/>
     <use style="fill:#008080;stroke:#008080;" x="213.271256" xlink:href="#mdd4e01807b" y="132.870379"/>
     <use style="fill:#008080;stroke:#008080;" x="221.143819" xlink:href="#mdd4e01807b" y="119.209741"/>
     <use style="fill:#008080;stroke:#008080;" x="229.016382" xlink:href="#mdd4e01807b" y="104.116544"/>
     <use style="fill:#008080;stroke:#008080;" x="236.888945" xlink:href="#mdd4e01807b" y="88.146638"/>
     <use style="fill:#008080;stroke:#008080;" x="244.761508" xlink:href="#mdd4e01807b" y="72.101525"/>
     <use style="fill:#008080;stroke:#008080;" x="252.63407" xlink:href="#mdd4e01807b" y="56.982694"/>
     <use style="fill:#008080;stroke:#008080;" x="260.506633" xlink:href="#mdd4e01807b" y="43.895425"/>
     <use style="fill:#008080;stroke:#008080;" x="268.379196" xlink:href="#mdd4e01807b" y="33.911723"/>
     <use style="fill:#008080;stroke:#008080;" x="276.251759" xlink:href="#mdd4e01807b" y="27.915675"/>
     <use style="fill:#008080;stroke:#008080;" x="284.124322" xlink:href="#mdd4e01807b" y="26.463479"/>
     <use style="fill:#008080;stroke:#008080;" x="291.996884" xlink:href="#mdd4e01807b" y="29.690647"/>
     <use style="fill:#008080;stroke:#008080;" x="299.869447" xlink:href="#mdd4e01807b" y="37.289134"/>
     <use style="fill:#008080;stroke:#008080;" x="307.74201" xlink:href="#mdd4e01807b" y="48.560123"/>
     <use style="fill:#008080;stroke:#008080;" x="315.614573" xlink:href="#mdd4e01807b" y="62.529173"/>
     <use style="fill:#008080;stroke:#008080;" x="323.487136" xlink:href="#mdd4e01807b" y="78.095928"/>
     <use style="fill:#008080;stroke:#008080;" x="331.359698" xlink:href="#mdd4e01807b" y="94.184809"/>
     <use style="fill:#008080;stroke:#008080;" x="339.232261" xlink:href="#mdd4e01807b" y="109.867301"/>
     <use style="fill:#008080;stroke:#008080;" x="347.104824" xlink:href="#mdd4e01807b" y="124.437893"/>
     <use style="fill:#008080;stroke:#008080;" x="354.977387" xlink:href="#mdd4e01807b" y="137.439786"/>
     <use style="fill:#008080;stroke:#008080;" x="362.84995" xlink:href="#mdd4e01807b" y="148.648446"/>
     <use style="fill:#008080;stroke:#008080;" x="370.722513" xlink:href="#mdd4e01807b" y="158.027938"/>
     <use style="fill:#008080;stroke:#008080;" x="378.595075" xlink:href="#mdd4e01807b" y="165.67613"/>
     <use style="fill:#008080;stroke:#008080;" x="386.467638" xlink:href="#mdd4e01807b" y="171.771719"/>
     <use style="fill:#008080;stroke:#008080;" x="394.340201" xlink:href="#mdd4e01807b" y="176.530865"/>
     <use style="fill:#008080;stroke:#008080;" x="402.212764" xlink:href="#mdd4e01807b" y="180.176261"/>
     <use style="fill:#008080;stroke:#008080;" x="410.085327" xlink:href="#mdd4e01807b" y="182.917865"/>
     <use style="fill:#008080;stroke:#008080;" x="417.957889" xlink:href="#mdd4e01807b" y="184.942741"/>
     <use style="fill:#008080;stroke:#008080;" x="425.830452" xlink:href="#mdd4e01807b" y="186.411088"/>
     <use style="fill:#008080;stroke:#008080;" x="433.703015" xlink:href="#mdd4e01807b" y="187.456007"/>
     <use style="fill:#008080;stroke:#008080;" x="441.575578" xlink:href="#mdd4e01807b" y="188.185284"/>
    </g>
   </g>
   <g id="line2d_15">
    <path clip-path="url(#p1d7b836702)" d="M 55.43752 189.637004  L 78.386348 189.746219  L 96.74541 190.01153  L 109.137777 190.397313  L 118.776285 190.906079  L 127.037863 191.564119  L 133.922512 192.329439  L 139.889207 193.200064  L 145.396926 194.215611  L 150.445668 195.360937  L 155.035434 196.610284  L 159.6252 198.087053  L 163.755989 199.635165  L 167.886778 201.413812  L 172.017567 203.445085  L 176.148356 205.750108  L 179.820168 208.044331  L 183.491981 210.58119  L 187.163793 213.368878  L 190.835606 216.411515  L 195.425371 220.516555  L 198.752952 223.825339  L 203.113229 228.369937  L 208.161971 233.97189  L 214.587643 241.465855  L 226.291545 255.167382  L 230.651823 259.89797  L 234.323635 263.57289  L 237.536471 266.498719  L 240.691935 269.069737  L 243.560539 271.122951  L 246.314398 272.82609  L 248.953513 274.206372  L 251.592628 275.340345  L 254.231744 276.233337  L 256.870859 276.895213  L 259.624718 277.354289  L 262.493322 277.601161  L 265.47667 277.632893  L 268.689505 277.442316  L 272.246574 277.002154  L 276.119189 276.289776  L 280.479466 275.259716  L 285.356092 273.873238  L 290.462206 272.194571  L 291.867822 271.693962  L 297.146052 269.664214  L 302.309539 267.437273  L 307.243537 265.067206  L 312.062791 262.508503  L 316.939417 259.667144  L 321.988159 256.462983  L 327.266389 252.84888  L 333.233085 248.486647  L 340.57671 242.825628  L 363.86977 224.633626  L 370.295442 220.027481  L 375.803161 216.33781  L 381.31088 212.917865  L 386.359622 210.0353  L 391.408364 207.400763  L 396.457106 205.014287  L 401.505849 202.870668  L 406.554591 200.960484  L 412.06231 199.127942  L 417.570028 197.538568  L 423.077747 196.170778  L 429.044442 194.912853  L 435.470114 193.786218  L 442.354763 192.80264  L 447.862482 192.205188  L 447.862482 192.205188  " style="fill:none;stroke:#e74c3c;stroke-linecap:square;stroke-width:2;"/>
   </g>
   <g id="line2d_16">
    <path clip-path="url(#p1d7b836702)" d="M 55.43752 189.601333  L 119.235262 189.711694  L 142.643067 189.954043  L 157.789293 190.315333  L 168.804731 190.782644  L 177.525285 191.366224  L 184.409934 192.039914  L 190.376629 192.850379  L 195.769604 193.825695  L 205.408112 196.489735  L 208.850436 197.811339  L 212.063272 199.270084  L 215.276108 200.975186  L 218.259456 202.802582  L 221.242803 204.884418  L 224.226151 207.235231  L 227.209499 209.863335  L 230.422334 213.003637  L 233.63517 216.45259  L 237.306983 220.734758  L 241.609888 226.122204  L 248.838769 235.61337  L 254.231744 242.52032  L 257.788812 246.730094  L 260.77216 249.931923  L 263.411275 252.452766  L 265.820902 254.461193  L 268.115785 256.088659  L 270.295923 257.360458  L 272.390004 258.320179  L 274.398026 258.994018  L 276.348677 259.415673  L 278.299327 259.608653  L 280.249978 259.576296  L 282.200628 259.324184  L 284.208651 258.843138  L 286.331417 258.101522  L 288.568928 257.075839  L 290.949869 255.729989  L 293.47424 254.043206  L 296.228099 251.933615  L 299.326191 249.274301  L 302.883259 245.921457  L 307.358281 241.378103  L 314.472418 233.784071  L 322.906112 224.861259  L 327.954854 219.839871  L 332.315132 215.7987  L 336.445921 212.265703  L 340.347221 209.214088  L 344.248522 206.448467  L 347.920335 204.106998  L 351.477403 202.075145  L 355.149216 200.212062  L 358.821028 198.573784  L 362.951817 196.979776  L 367.082606 195.625743  L 371.672372 194.371553  L 376.262138 193.347041  L 381.31088 192.445496  L 386.818599 191.684726  L 393.24427 191.030204  L 400.587895 190.513434  L 409.767427 190.108277  L 421.700817 189.827506  L 439.141927 189.664289  L 447.862482 189.633756  L 447.862482 189.633756  " style="fill:none;stroke:#808000;stroke-linecap:square;stroke-width:2;"/>
   </g>
   <g id="line2d_17">
    <path clip-path="url(#p1d7b836702)" d="M 55.43752 189.55585  L 77.468395 189.445714  L 95.827457 189.171606  L 108.219824 188.771789  L 117.858332 188.243057  L 125.660934 187.60251  L 132.545582 186.818658  L 138.512278 185.923752  L 144.019996 184.875955  L 149.068739 183.689447  L 153.658504 182.389498  L 158.24827 180.845277  L 162.379059 179.217391  L 166.509848 177.335218  L 170.18166 175.424981  L 173.853473 173.269078  L 177.525285 170.845299  L 181.197098 168.131031  L 184.868911 165.10359  L 188.081746 162.180098  L 191.294582 158.985283  L 194.507418 155.505577  L 198.064487 151.30604  L 201.506811 146.881979  L 204.949135 142.094528  L 208.391459 136.93904  L 212.063272 131.035798  L 215.964573 124.319172  L 220.095362 116.740088  L 224.685127 107.824928  L 230.192846 96.608417  L 244.593236 66.989925  L 248.379793 59.857297  L 251.592628 54.257998  L 254.461232 49.691858  L 257.100347 45.906802  L 259.509974 42.835224  L 261.690113 40.395222  L 263.755507 38.395619  L 265.706158 36.795232  L 267.656808 35.480856  L 269.492714 34.508193  L 271.328621 33.792865  L 273.135841 33.339139  L 274.857003 33.135745  L 276.578165 33.152015  L 278.356699 33.39476  L 280.135234 33.86107  L 281.97114 34.569358  L 283.92179 35.564763  L 285.987185 36.878841  L 288.167323 38.540231  L 290.462206 40.573748  L 291.179357 41.265693  L 293.703728 43.901477  L 296.457588 47.105142  L 299.440935 50.918339  L 302.768515 55.533348  L 306.669816 61.343972  L 311.259582 68.601385  L 317.168905 78.379204  L 335.298479 108.656467  L 340.806198 117.275203  L 345.625452 124.42434  L 350.100473 130.690183  L 354.690239 136.716447  L 358.821028 141.780589  L 362.951817 146.499653  L 367.082606 150.875152  L 371.213395 154.913227  L 375.344184 158.623677  L 379.474974 162.019098  L 383.605763 165.114135  L 387.736552 167.924846  L 391.867341 170.468189  L 395.99813 172.76159  L 400.587895 175.038025  L 405.177661 177.051436  L 409.767427 178.825141  L 414.816169 180.526184  L 419.864911 181.992929  L 425.37263 183.357319  L 431.339325 184.594344  L 437.764997 185.688214  L 444.649646 186.632928  L 447.862482 186.955243  L 447.862482 186.955243  " style="fill:none;stroke:#008080;stroke-linecap:square;stroke-width:2;"/>
   </g>
   <g id="patch_3">
    <path d="M 55.82 300.76  L 55.82 13.32  " style="fill:none;stroke:#000000;stroke-linecap:square;stroke-linejoin:miter;stroke-width:0.8;"/>
   </g>
   <g id="patch_4">
    <path d="M 447.48 300.76  L 447.48 13.32  " style="fill:none;stroke:#000000;stroke-linecap:square;stroke-linejoin:miter;stroke-width:0.8;"/>
   </g>
   <g id="patch_5">
    <path d="M 55.82 300.76  L 447.48 300.76  " style="fill:none;stroke:#000000;stroke-linecap:square;stroke-linejoin:miter;stroke-width:0.8;"/>
   </g>
   <g id="patch_6">
    <path d="M 55.82 13.32  L 447.48 13.32  " style="fill:none;stroke:#000000;stroke-linecap:square;stroke-linejoin:miter;stroke-width:0.8;"/>
   </g>
   <g id="legend_1">
    <g id="patch_7">
     <path d="M 374.256563 109.38875  L 440.48 109.38875  Q 442.48 109.38875 442.48 107.38875  L 442.48 20.32  Q 442.48 18.32 440.48 18.32  L 374.256563 18.32  Q 372.256563 18.32 372.256563 20.32  L 372.256563 107.38875  Q 372.256563 109.38875 374.256563 109.38875  z " style="fill:#ffffff;opacity:0.8;stroke:#cccccc;stroke-linejoin:miter;"/>
    </g>
    <g id="line2d_18"/>
    <g id="line2d_19">
     <g>
      <use style="fill:#e74c3c;stroke:#e74c3c;stroke-linejoin:miter;" x="386.256563" xlink:href="#m8bba71c1be" y="26.418437"/>
     </g>
    </g>
    <g id="text_14">
     <!-- exp-Al -->
     <defs>
      <path d="M 54.890625 54.6875  L 35.109375 28.078125  L 55.90625 0  L 45.3125 0  L 29.390625 21.484375  L 13.484375 0  L 2.875 0  L 24.125 28.609375  L 4.6875 54.6875  L 15.28125 54.6875  L 29.78125 35.203125  L 44.28125 54.6875  z " id="DejaVuSans-78"/>
      <path d="M 4.890625 31.390625  L 31.203125 31.390625  L 31.203125 23.390625  L 4.890625 23.390625  z " id="DejaVuSans-2d"/>
      <path d="M 34.1875 63.1875  L 20.796875 26.90625  L 47.609375 26.90625  z M 28.609375 72.90625  L 39.796875 72.90625  L 67.578125 0  L 57.328125 0  L 50.6875 18.703125  L 17.828125 18.703125  L 11.1875 0  L 0.78125 0  z " id="DejaVuSans-41"/>
     </defs>
     <g transform="translate(404.256563 29.918437)scale(0.1 -0.1)">
      <use xlink:href="#DejaVuSans-65"/>
      <use x="61.507812" xlink:href="#DejaVuSans-78"/>
      <use x="120.6875" xlink:href="#DejaVuSans-70"/>
      <use x="184.164062" xlink:href="#DejaVuSans-2d"/>
      <use x="220.216797" xlink:href="#DejaVuSans-41"/>
      <use x="288.625" xlink:href="#DejaVuSans-6c"/>
     </g>
    </g>
    <g id="line2d_20"/>
    <g id="line2d_21">
     <g>
      <use style="fill:#808000;stroke:#808000;stroke-linejoin:bevel;" x="386.256563" xlink:href="#m7df704a0d6" y="41.096563"/>
     </g>
    </g>
    <g id="text_15">
     <!-- exp-Ta -->
     <defs>
      <path d="M -0.296875 72.90625  L 61.375 72.90625  L 61.375 64.59375  L 35.5 64.59375  L 35.5 0  L 25.59375 0  L 25.59375 64.59375  L -0.296875 64.59375  z " id="DejaVuSans-54"/>
     </defs>
     <g transform="translate(404.256563 44.596563)scale(0.1 -0.1)">
      <use xlink:href="#DejaVuSans-65"/>
      <use x="61.507812" xlink:href="#DejaVuSans-78"/>
      <use x="120.6875" xlink:href="#DejaVuSans-70"/>
      <use x="184.164062" xlink:href="#DejaVuSans-2d"/>
      <use x="220.107422" xlink:href="#DejaVuSans-54"/>
      <use x="280.941406" xlink:href="#DejaVuSans-61"/>
     </g>
    </g>
    <g id="line2d_22"/>
    <g id="line2d_23">
     <g>
      <use style="fill:#008080;stroke:#008080;" x="386.256563" xlink:href="#mdd4e01807b" y="55.774687"/>
     </g>
    </g>
    <g id="text_16">
     <!-- exp-Ni -->
     <defs>
      <path d="M 9.8125 72.90625  L 23.09375 72.90625  L 55.421875 11.921875  L 55.421875 72.90625  L 64.984375 72.90625  L 64.984375 0  L 51.703125 0  L 19.390625 60.984375  L 19.390625 0  L 9.8125 0  z " id="DejaVuSans-4e"/>
     </defs>
     <g transform="translate(404.256563 59.274687)scale(0.1 -0.1)">
      <use xlink:href="#DejaVuSans-65"/>
      <use x="61.507812" xlink:href="#DejaVuSans-78"/>
      <use x="120.6875" xlink:href="#DejaVuSans-70"/>
      <use x="184.164062" xlink:href="#DejaVuSans-2d"/>
      <use x="220.248047" xlink:href="#DejaVuSans-4e"/>
      <use x="295.052734" xlink:href="#DejaVuSans-69"/>
     </g>
    </g>
    <g id="line2d_24">
     <path d="M 376.256563 70.452812  L 396.256563 70.452812  " style="fill:none;stroke:#e74c3c;stroke-linecap:square;stroke-width:2;"/>
    </g>
    <g id="line2d_25"/>
    <g id="text_17">
     <!-- sim-Al -->
     <g transform="translate(404.256563 73.952812)scale(0.1 -0.1)">
      <use xlink:href="#DejaVuSans-73"/>
      <use x="52.099609" xlink:href="#DejaVuSans-69"/>
      <use x="79.882812" xlink:href="#DejaVuSans-6d"/>
      <use x="177.294922" xlink:href="#DejaVuSans-2d"/>
      <use x="213.347656" xlink:href="#DejaVuSans-41"/>
      <use x="281.755859" xlink:href="#DejaVuSans-6c"/>
     </g>
    </g>
    <g id="line2d_26">
     <path d="M 376.256563 85.130938  L 396.256563 85.130938  " style="fill:none;stroke:#808000;stroke-linecap:square;stroke-width:2;"/>
    </g>
    <g id="line2d_27"/>
    <g id="text_18">
     <!-- sim-Ta -->
     <g transform="translate(404.256563 88.630938)scale(0.1 -0.1)">
      <use xlink:href="#DejaVuSans-73"/>
      <use x="52.099609" xlink:href="#DejaVuSans-69"/>
      <use x="79.882812" xlink:href="#DejaVuSans-6d"/>
      <use x="177.294922" xlink:href="#DejaVuSans-2d"/>
      <use x="213.238281" xlink:href="#DejaVuSans-54"/>
      <use x="274.072266" xlink:href="#DejaVuSans-61"/>
     </g>
    </g>
    <g id="line2d_28">
     <path d="M 376.256563 99.809062  L 396.256563 99.809062  " style="fill:none;stroke:#008080;stroke-linecap:square;stroke-width:2;"/>
    </g>
    <g id="line2d_29"/>
    <g id="text_19">
     <!-- sim-Ni -->
     <g transform="translate(404.256563 103.309062)scale(0.1 -0.1)">
      <use xlink:href="#DejaVuSans-73"/>
      <use x="52.099609" xlink:href="#DejaVuSans-69"/>
      <use x="79.882812" xlink:href="#DejaVuSans-6d"/>
      <use x="177.294922" xlink:href="#DejaVuSans-2d"/>
      <use x="213.378906" xlink:href="#DejaVuSans-4e"/>
      <use x="288.183594" xlink:href="#DejaVuSans-69"/>
     </g>
    </g>
   </g>
  </g>
 </g>
 <defs>
  <clipPath id="p1d7b836702">
   <rect height="287.44" width="391.66" x="55.82" y="13.32"/>
  </clipPath>
 </defs>
</g>
    <g transform="translate(10, 300) scale(1) ">
      <g transform="translate(0, 0) scale(3.0) "><defs id="defs831"/>
  <sodipodi:namedview xmlns:sodipodi="http://sodipodi.sourceforge.net/DTD/sodipodi-0.dtd" xmlns:inkscape="http://www.inkscape.org/namespaces/inkscape" id="base" pagecolor="#ffffff" bordercolor="#666666" borderopacity="1.0" inkscape:pageopacity="0.0" inkscape:pageshadow="2" inkscape:zoom="1.979899" inkscape:cx="-12.763683" inkscape:cy="-16.680883" inkscape:document-units="mm" inkscape:current-layer="layer1" showgrid="false" inkscape:window-width="1920" inkscape:window-height="1001" inkscape:window-x="-9" inkscape:window-y="-9" inkscape:window-maximized="1" units="pt"/>
  <metadata xmlns:rdf="http://www.w3.org/1999/02/22-rdf-syntax-ns#" xmlns:cc="http://creativecommons.org/ns#" xmlns:dc="http://purl.org/dc/elements/1.1/" id="metadata834">
    <rdf:RDF>
      <cc:Work rdf:about="">
        <dc:format>image/svg+xml</dc:format>
        <dc:type rdf:resource="http://purl.org/dc/dcmitype/StillImage"/>
        <dc:title/>
      </cc:Work>
    </rdf:RDF>
  </metadata>
  <g xmlns:inkscape="http://www.inkscape.org/namespaces/inkscape" xmlns:sodipodi="http://sodipodi.sourceforge.net/DTD/sodipodi-0.dtd" inkscape:label="Layer 1" inkscape:groupmode="layer" id="layer1" transform="translate(0,-288.81557)">
    <g id="g4761" transform="matrix(0.07377843,0,0,0.07377843,-0.76923022,275.45946)">
      <path inkscape:connector-curvature="0" id="path1959-6-7-1-6-5-4-0-3-2-6-0-3-9-6" style="font-style:normal;font-variant:normal;font-weight:bold;font-stretch:normal;font-size:120.99466705px;line-height:1.25;font-family:Aharoni;-inkscape-font-specification:'Aharoni, Bold';font-variant-ligatures:normal;font-variant-caps:normal;font-variant-numeric:normal;font-feature-settings:normal;text-align:start;letter-spacing:0px;word-spacing:0px;writing-mode:lr-tb;text-anchor:start;fill:#000000;fill-opacity:1;stroke:none;stroke-width:2.37649584" d="M 52.937412,287.55677 H 40.587702 V 265.43005 H 22.776041 v 22.12672 h -12.34982 v -53.17432 h 12.34982 v 20.5296 h 17.811661 v -20.5296 h 12.34971 z"/>
      <path inkscape:connector-curvature="0" id="path1961-2-9-7-9-3-1-6-5-1-5-8-7-8-2" style="font-style:normal;font-variant:normal;font-weight:bold;font-stretch:normal;font-size:120.99466705px;line-height:1.25;font-family:Aharoni;-inkscape-font-specification:'Aharoni, Bold';font-variant-ligatures:normal;font-variant-caps:normal;font-variant-numeric:normal;font-feature-settings:normal;text-align:start;letter-spacing:0px;word-spacing:0px;writing-mode:lr-tb;text-anchor:start;fill:#000000;fill-opacity:1;stroke:none;stroke-width:2.37649584" d="m 69.681125,237.49895 q 0,3.0385 -1.87856,5.1421 -1.84375,2.0647 -4.55721,2.0647 -2.67866,0 -4.55722,-2.1036 -1.84375,-2.1036 -1.84375,-5.1032 0,-2.9996 1.84375,-5.0642 1.87856,-2.1036 4.55722,-2.1036 2.67865,0 4.55721,2.1036 1.87856,2.0646 1.87856,5.0642 z m -0.73057,50.05782 h -11.41048 v -36.15072 h 11.41048 z"/>
      <path inkscape:connector-curvature="0" id="path1963-3-1-2-8-3-6-3-3-3-4-7-6-0-8" style="font-style:normal;font-variant:normal;font-weight:bold;font-stretch:normal;font-size:120.99466705px;line-height:1.25;font-family:Aharoni;-inkscape-font-specification:'Aharoni, Bold';font-variant-ligatures:normal;font-variant-caps:normal;font-variant-numeric:normal;font-feature-settings:normal;text-align:start;letter-spacing:0px;word-spacing:0px;writing-mode:lr-tb;text-anchor:start;fill:#000000;fill-opacity:1;stroke:none;stroke-width:2.37649584" d="m 93.369625,261.92405 h -6.50536 v 25.63272 h -11.4104 v -25.63272 h -3.75712 v -10.518 h 3.75712 v -10.8686 h 11.4104 v 10.8686 h 6.50536 z"/>
      <path id="path1967-3-3-6-2-9-6-2-5-3-0-9-8-2-1" style="font-style:normal;font-variant:normal;font-weight:bold;font-stretch:normal;font-size:120.99466705px;line-height:1.25;font-family:Aharoni;-inkscape-font-specification:'Aharoni, Bold';font-variant-ligatures:normal;font-variant-caps:normal;font-variant-numeric:normal;font-feature-settings:normal;text-align:start;letter-spacing:0px;word-spacing:0px;writing-mode:lr-tb;text-anchor:start;fill:#000000;fill-opacity:1;stroke:none;stroke-width:2.37649584" d="m 160.61447,287.55677 h -12.34971 v -53.17432 h 12.34971 z" inkscape:connector-curvature="0"/>
      <path inkscape:connector-curvature="0" id="path1969-8-0-8-5-3-5-6-6-3-9-8-6-2-0" style="font-style:normal;font-variant:normal;font-weight:bold;font-stretch:normal;font-size:120.99466705px;line-height:1.25;font-family:Aharoni;-inkscape-font-specification:'Aharoni, Bold';font-variant-ligatures:normal;font-variant-caps:normal;font-variant-numeric:normal;font-feature-settings:normal;text-align:start;letter-spacing:0px;word-spacing:0px;writing-mode:lr-tb;text-anchor:start;fill:#000000;fill-opacity:1;stroke:none;stroke-width:2.37649584" d="m 201.6896,284.86883 q -6.05314,2.68794 -11.20172,2.68794 -8.97528,0 -16.07201,-6.42764 -9.04489,-8.21959 -9.04489,-21.42558 0,-13.2448 9.04489,-21.4644 7.09673,-6.4277 16.17636,-6.4277 4.93989,0 11.09737,2.6879 v 16.5561 q -1.73941,-2.3763 -3.54836,-3.5839 -3.30489,-2.2204 -7.09679,-2.2204 -4.8007,0 -8.34907,3.2333 -4.48766,4.0903 -4.48766,11.2191 0,7.0899 4.48766,11.1803 3.54837,3.23328 8.34907,3.23328 3.7919,0 7.09679,-2.22049 1.77415,-1.16869 3.54836,-3.58389 z"/>
      <path inkscape:transform-center-y="-13.656107" inkscape:transform-center-x="-3.9758045" sodipodi:nodetypes="csssssc" inkscape:connector-curvature="0" id="rect815-3-0-9-3-5-6-0-4-03-7-3-7-5-3-2-76-3-8-8-5-3-7-8-0-1-3-7-9-2-8-1" d="m 104.61223,181.4353 c 0,0 17.68257,27.27493 22.63096,34.41579 7.92879,11.44185 16.42741,30.36094 17.92806,45.50275 1.21005,12.20999 -1.38345,26.51285 -17.32077,30.11208 -11.70405,2.64313 -26.75007,-5.41371 -30.334975,-20.50903 -3.30533,-13.91816 -2.13088,-34.61412 0.0984,-48.67354 1.22049,-7.69719 5.657305,-36.06774 6.998335,-40.84805 z" style="font-style:normal;font-weight:normal;font-size:242.08590698px;line-height:1.25;font-family:sans-serif;letter-spacing:0px;word-spacing:0px;opacity:1;fill:#00456b;fill-opacity:1;stroke:none;stroke-width:0.6720385;stroke-miterlimit:4;stroke-dasharray:none;stroke-dashoffset:0;stroke-opacity:1;paint-order:markers fill stroke"/>
      <path sodipodi:nodetypes="ccscscsccscccscc" d="m 107.52748,246.32531 6.45576,30.78617 6.82019,-1.47997 c 5.75791,-1.24946 9.70999,-3.40081 11.85576,-6.45394 2.16431,-3.05721 2.68673,-7.25521 1.56721,-12.59398 -1.11209,-5.30332 -3.26743,-8.89247 -6.46601,-10.76744 -3.18372,-1.89669 -7.65528,-2.22015 -13.4127,-0.97081 z m -8.759905,-5.09591 12.713095,-2.78742 c 8.8634,-1.94336 15.73718,-1.59097 20.62135,1.05715 4.88003,2.62843 8.10326,7.71587 9.6697,15.26232 1.57464,7.58584 0.64804,13.61405 -2.77981,18.08462 -3.42783,4.4705 -9.55303,7.67294 -18.37559,9.60735 l -12.71311,2.78742 z" style="font-style:normal;font-weight:normal;font-size:242.08590698px;line-height:1.25;font-family:sans-serif;letter-spacing:0px;word-spacing:0px;fill:#ffffff;fill-opacity:1;stroke:none;stroke-width:1.60286868" id="path1193-3-5-3-2-7-4-5-6-0-0-6-9-2-4-7-0-0" inkscape:connector-curvature="0"/>
    </g>
  </g>
</g>
    </g>
  </g>
</svg>
