<?xml version='1.0' encoding='ASCII' standalone='yes'?>
<svg xmlns:xlink="http://www.w3.org/1999/xlink" xmlns="http://www.w3.org/2000/svg" version="1.1" width="460.8px" viewBox="0 0 460.8px 345.6px" height="345.6px">
  <g>
    <g><defs>
  <style type="text/css">
*{stroke-linecap:butt;stroke-linejoin:round;}
  </style>
 </defs>
 <g id="figure_1">
  <g id="patch_1">
   <path d="M 0 345.6  L 460.8 345.6  L 460.8 0  L 0 0  z " style="fill:#ffffff;"/>
  </g>
  <g id="axes_1">
   <g id="patch_2">
    <path d="M 69.572 300.76  L 440.505 300.76  L 440.505 13.32  L 69.572 13.32  z " style="fill:#ffffff;"/>
   </g>
   <g id="matplotlib.axis_1">
    <g id="xtick_1">
     <g id="line2d_1">
      <defs>
       <path d="M 0 0  L 0 3.5  " id="m3f0030f473" style="stroke:#000000;stroke-width:0.8;"/>
      </defs>
      <g>
       <use style="stroke:#000000;stroke-width:0.8;" x="69.572" xlink:href="#m3f0030f473" y="300.76"/>
      </g>
     </g>
     <g id="text_1">
      <!-- 0 -->
      <defs>
       <path d="M 31.78125 66.40625  Q 24.171875 66.40625 20.328125 58.90625  Q 16.5 51.421875 16.5 36.375  Q 16.5 21.390625 20.328125 13.890625  Q 24.171875 6.390625 31.78125 6.390625  Q 39.453125 6.390625 43.28125 13.890625  Q 47.125 21.390625 47.125 36.375  Q 47.125 51.421875 43.28125 58.90625  Q 39.453125 66.40625 31.78125 66.40625  z M 31.78125 74.21875  Q 44.046875 74.21875 50.515625 64.515625  Q 56.984375 54.828125 56.984375 36.375  Q 56.984375 17.96875 50.515625 8.265625  Q 44.046875 -1.421875 31.78125 -1.421875  Q 19.53125 -1.421875 13.0625 8.265625  Q 6.59375 17.96875 6.59375 36.375  Q 6.59375 54.828125 13.0625 64.515625  Q 19.53125 74.21875 31.78125 74.21875  z " id="DejaVuSans-30"/>
      </defs>
      <g transform="translate(66.39075 315.358437)scale(0.1 -0.1)">
       <use xlink:href="#DejaVuSans-30"/>
      </g>
     </g>
    </g>
    <g id="xtick_2">
     <g id="line2d_2">
      <g>
       <use style="stroke:#000000;stroke-width:0.8;" x="115.938625" xlink:href="#m3f0030f473" y="300.76"/>
      </g>
     </g>
     <g id="text_2">
      <!-- 100 -->
      <defs>
       <path d="M 12.40625 8.296875  L 28.515625 8.296875  L 28.515625 63.921875  L 10.984375 60.40625  L 10.984375 69.390625  L 28.421875 72.90625  L 38.28125 72.90625  L 38.28125 8.296875  L 54.390625 8.296875  L 54.390625 0  L 12.40625 0  z " id="DejaVuSans-31"/>
      </defs>
      <g transform="translate(106.394875 315.358437)scale(0.1 -0.1)">
       <use xlink:href="#DejaVuSans-31"/>
       <use x="63.623047" xlink:href="#DejaVuSans-30"/>
       <use x="127.246094" xlink:href="#DejaVuSans-30"/>
      </g>
     </g>
    </g>
    <g id="xtick_3">
     <g id="line2d_3">
      <g>
       <use style="stroke:#000000;stroke-width:0.8;" x="162.30525" xlink:href="#m3f0030f473" y="300.76"/>
      </g>
     </g>
     <g id="text_3">
      <!-- 200 -->
      <defs>
       <path d="M 19.1875 8.296875  L 53.609375 8.296875  L 53.609375 0  L 7.328125 0  L 7.328125 8.296875  Q 12.9375 14.109375 22.625 23.890625  Q 32.328125 33.6875 34.8125 36.53125  Q 39.546875 41.84375 41.421875 45.53125  Q 43.3125 49.21875 43.3125 52.78125  Q 43.3125 58.59375 39.234375 62.25  Q 35.15625 65.921875 28.609375 65.921875  Q 23.96875 65.921875 18.8125 64.3125  Q 13.671875 62.703125 7.8125 59.421875  L 7.8125 69.390625  Q 13.765625 71.78125 18.9375 73  Q 24.125 74.21875 28.421875 74.21875  Q 39.75 74.21875 46.484375 68.546875  Q 53.21875 62.890625 53.21875 53.421875  Q 53.21875 48.921875 51.53125 44.890625  Q 49.859375 40.875 45.40625 35.40625  Q 44.1875 33.984375 37.640625 27.21875  Q 31.109375 20.453125 19.1875 8.296875  z " id="DejaVuSans-32"/>
      </defs>
      <g transform="translate(152.7615 315.358437)scale(0.1 -0.1)">
       <use xlink:href="#DejaVuSans-32"/>
       <use x="63.623047" xlink:href="#DejaVuSans-30"/>
       <use x="127.246094" xlink:href="#DejaVuSans-30"/>
      </g>
     </g>
    </g>
    <g id="xtick_4">
     <g id="line2d_4">
      <g>
       <use style="stroke:#000000;stroke-width:0.8;" x="208.671875" xlink:href="#m3f0030f473" y="300.76"/>
      </g>
     </g>
     <g id="text_4">
      <!-- 300 -->
      <defs>
       <path d="M 40.578125 39.3125  Q 47.65625 37.796875 51.625 33  Q 55.609375 28.21875 55.609375 21.1875  Q 55.609375 10.40625 48.1875 4.484375  Q 40.765625 -1.421875 27.09375 -1.421875  Q 22.515625 -1.421875 17.65625 -0.515625  Q 12.796875 0.390625 7.625 2.203125  L 7.625 11.71875  Q 11.71875 9.328125 16.59375 8.109375  Q 21.484375 6.890625 26.8125 6.890625  Q 36.078125 6.890625 40.9375 10.546875  Q 45.796875 14.203125 45.796875 21.1875  Q 45.796875 27.640625 41.28125 31.265625  Q 36.765625 34.90625 28.71875 34.90625  L 20.21875 34.90625  L 20.21875 43.015625  L 29.109375 43.015625  Q 36.375 43.015625 40.234375 45.921875  Q 44.09375 48.828125 44.09375 54.296875  Q 44.09375 59.90625 40.109375 62.90625  Q 36.140625 65.921875 28.71875 65.921875  Q 24.65625 65.921875 20.015625 65.03125  Q 15.375 64.15625 9.8125 62.3125  L 9.8125 71.09375  Q 15.4375 72.65625 20.34375 73.4375  Q 25.25 74.21875 29.59375 74.21875  Q 40.828125 74.21875 47.359375 69.109375  Q 53.90625 64.015625 53.90625 55.328125  Q 53.90625 49.265625 50.4375 45.09375  Q 46.96875 40.921875 40.578125 39.3125  z " id="DejaVuSans-33"/>
      </defs>
      <g transform="translate(199.128125 315.358437)scale(0.1 -0.1)">
       <use xlink:href="#DejaVuSans-33"/>
       <use x="63.623047" xlink:href="#DejaVuSans-30"/>
       <use x="127.246094" xlink:href="#DejaVuSans-30"/>
      </g>
     </g>
    </g>
    <g id="xtick_5">
     <g id="line2d_5">
      <g>
       <use style="stroke:#000000;stroke-width:0.8;" x="255.0385" xlink:href="#m3f0030f473" y="300.76"/>
      </g>
     </g>
     <g id="text_5">
      <!-- 400 -->
      <defs>
       <path d="M 37.796875 64.3125  L 12.890625 25.390625  L 37.796875 25.390625  z M 35.203125 72.90625  L 47.609375 72.90625  L 47.609375 25.390625  L 58.015625 25.390625  L 58.015625 17.1875  L 47.609375 17.1875  L 47.609375 0  L 37.796875 0  L 37.796875 17.1875  L 4.890625 17.1875  L 4.890625 26.703125  z " id="DejaVuSans-34"/>
      </defs>
      <g transform="translate(245.49475 315.358437)scale(0.1 -0.1)">
       <use xlink:href="#DejaVuSans-34"/>
       <use x="63.623047" xlink:href="#DejaVuSans-30"/>
       <use x="127.246094" xlink:href="#DejaVuSans-30"/>
      </g>
     </g>
    </g>
    <g id="xtick_6">
     <g id="line2d_6">
      <g>
       <use style="stroke:#000000;stroke-width:0.8;" x="301.405125" xlink:href="#m3f0030f473" y="300.76"/>
      </g>
     </g>
     <g id="text_6">
      <!-- 500 -->
      <defs>
       <path d="M 10.796875 72.90625  L 49.515625 72.90625  L 49.515625 64.59375  L 19.828125 64.59375  L 19.828125 46.734375  Q 21.96875 47.46875 24.109375 47.828125  Q 26.265625 48.1875 28.421875 48.1875  Q 40.625 48.1875 47.75 41.5  Q 54.890625 34.8125 54.890625 23.390625  Q 54.890625 11.625 47.5625 5.09375  Q 40.234375 -1.421875 26.90625 -1.421875  Q 22.3125 -1.421875 17.546875 -0.640625  Q 12.796875 0.140625 7.71875 1.703125  L 7.71875 11.625  Q 12.109375 9.234375 16.796875 8.0625  Q 21.484375 6.890625 26.703125 6.890625  Q 35.15625 6.890625 40.078125 11.328125  Q 45.015625 15.765625 45.015625 23.390625  Q 45.015625 31 40.078125 35.4375  Q 35.15625 39.890625 26.703125 39.890625  Q 22.75 39.890625 18.8125 39.015625  Q 14.890625 38.140625 10.796875 36.28125  z " id="DejaVuSans-35"/>
      </defs>
      <g transform="translate(291.861375 315.358437)scale(0.1 -0.1)">
       <use xlink:href="#DejaVuSans-35"/>
       <use x="63.623047" xlink:href="#DejaVuSans-30"/>
       <use x="127.246094" xlink:href="#DejaVuSans-30"/>
      </g>
     </g>
    </g>
    <g id="xtick_7">
     <g id="line2d_7">
      <g>
       <use style="stroke:#000000;stroke-width:0.8;" x="347.77175" xlink:href="#m3f0030f473" y="300.76"/>
      </g>
     </g>
     <g id="text_7">
      <!-- 600 -->
      <defs>
       <path d="M 33.015625 40.375  Q 26.375 40.375 22.484375 35.828125  Q 18.609375 31.296875 18.609375 23.390625  Q 18.609375 15.53125 22.484375 10.953125  Q 26.375 6.390625 33.015625 6.390625  Q 39.65625 6.390625 43.53125 10.953125  Q 47.40625 15.53125 47.40625 23.390625  Q 47.40625 31.296875 43.53125 35.828125  Q 39.65625 40.375 33.015625 40.375  z M 52.59375 71.296875  L 52.59375 62.3125  Q 48.875 64.0625 45.09375 64.984375  Q 41.3125 65.921875 37.59375 65.921875  Q 27.828125 65.921875 22.671875 59.328125  Q 17.53125 52.734375 16.796875 39.40625  Q 19.671875 43.65625 24.015625 45.921875  Q 28.375 48.1875 33.59375 48.1875  Q 44.578125 48.1875 50.953125 41.515625  Q 57.328125 34.859375 57.328125 23.390625  Q 57.328125 12.15625 50.6875 5.359375  Q 44.046875 -1.421875 33.015625 -1.421875  Q 20.359375 -1.421875 13.671875 8.265625  Q 6.984375 17.96875 6.984375 36.375  Q 6.984375 53.65625 15.1875 63.9375  Q 23.390625 74.21875 37.203125 74.21875  Q 40.921875 74.21875 44.703125 73.484375  Q 48.484375 72.75 52.59375 71.296875  z " id="DejaVuSans-36"/>
      </defs>
      <g transform="translate(338.228 315.358437)scale(0.1 -0.1)">
       <use xlink:href="#DejaVuSans-36"/>
       <use x="63.623047" xlink:href="#DejaVuSans-30"/>
       <use x="127.246094" xlink:href="#DejaVuSans-30"/>
      </g>
     </g>
    </g>
    <g id="xtick_8">
     <g id="line2d_8">
      <g>
       <use style="stroke:#000000;stroke-width:0.8;" x="394.138375" xlink:href="#m3f0030f473" y="300.76"/>
      </g>
     </g>
     <g id="text_8">
      <!-- 700 -->
      <defs>
       <path d="M 8.203125 72.90625  L 55.078125 72.90625  L 55.078125 68.703125  L 28.609375 0  L 18.3125 0  L 43.21875 64.59375  L 8.203125 64.59375  z " id="DejaVuSans-37"/>
      </defs>
      <g transform="translate(384.594625 315.358437)scale(0.1 -0.1)">
       <use xlink:href="#DejaVuSans-37"/>
       <use x="63.623047" xlink:href="#DejaVuSans-30"/>
       <use x="127.246094" xlink:href="#DejaVuSans-30"/>
      </g>
     </g>
    </g>
    <g id="xtick_9">
     <g id="line2d_9">
      <g>
       <use style="stroke:#000000;stroke-width:0.8;" x="440.505" xlink:href="#m3f0030f473" y="300.76"/>
      </g>
     </g>
     <g id="text_9">
      <!-- 800 -->
      <defs>
       <path d="M 31.78125 34.625  Q 24.75 34.625 20.71875 30.859375  Q 16.703125 27.09375 16.703125 20.515625  Q 16.703125 13.921875 20.71875 10.15625  Q 24.75 6.390625 31.78125 6.390625  Q 38.8125 6.390625 42.859375 10.171875  Q 46.921875 13.96875 46.921875 20.515625  Q 46.921875 27.09375 42.890625 30.859375  Q 38.875 34.625 31.78125 34.625  z M 21.921875 38.8125  Q 15.578125 40.375 12.03125 44.71875  Q 8.5 49.078125 8.5 55.328125  Q 8.5 64.0625 14.71875 69.140625  Q 20.953125 74.21875 31.78125 74.21875  Q 42.671875 74.21875 48.875 69.140625  Q 55.078125 64.0625 55.078125 55.328125  Q 55.078125 49.078125 51.53125 44.71875  Q 48 40.375 41.703125 38.8125  Q 48.828125 37.15625 52.796875 32.3125  Q 56.78125 27.484375 56.78125 20.515625  Q 56.78125 9.90625 50.3125 4.234375  Q 43.84375 -1.421875 31.78125 -1.421875  Q 19.734375 -1.421875 13.25 4.234375  Q 6.78125 9.90625 6.78125 20.515625  Q 6.78125 27.484375 10.78125 32.3125  Q 14.796875 37.15625 21.921875 38.8125  z M 18.3125 54.390625  Q 18.3125 48.734375 21.84375 45.5625  Q 25.390625 42.390625 31.78125 42.390625  Q 38.140625 42.390625 41.71875 45.5625  Q 45.3125 48.734375 45.3125 54.390625  Q 45.3125 60.0625 41.71875 63.234375  Q 38.140625 66.40625 31.78125 66.40625  Q 25.390625 66.40625 21.84375 63.234375  Q 18.3125 60.0625 18.3125 54.390625  z " id="DejaVuSans-38"/>
      </defs>
      <g transform="translate(430.96125 315.358437)scale(0.1 -0.1)">
       <use xlink:href="#DejaVuSans-38"/>
       <use x="63.623047" xlink:href="#DejaVuSans-30"/>
       <use x="127.246094" xlink:href="#DejaVuSans-30"/>
      </g>
     </g>
    </g>
    <g id="text_10">
     <!-- Distance ($\mu$m) -->
     <defs>
      <path d="M 19.671875 64.796875  L 19.671875 8.109375  L 31.59375 8.109375  Q 46.6875 8.109375 53.6875 14.9375  Q 60.6875 21.78125 60.6875 36.53125  Q 60.6875 51.171875 53.6875 57.984375  Q 46.6875 64.796875 31.59375 64.796875  z M 9.8125 72.90625  L 30.078125 72.90625  Q 51.265625 72.90625 61.171875 64.09375  Q 71.09375 55.28125 71.09375 36.53125  Q 71.09375 17.671875 61.125 8.828125  Q 51.171875 0 30.078125 0  L 9.8125 0  z " id="DejaVuSans-44"/>
      <path d="M 9.421875 54.6875  L 18.40625 54.6875  L 18.40625 0  L 9.421875 0  z M 9.421875 75.984375  L 18.40625 75.984375  L 18.40625 64.59375  L 9.421875 64.59375  z " id="DejaVuSans-69"/>
      <path d="M 44.28125 53.078125  L 44.28125 44.578125  Q 40.484375 46.53125 36.375 47.5  Q 32.28125 48.484375 27.875 48.484375  Q 21.1875 48.484375 17.84375 46.4375  Q 14.5 44.390625 14.5 40.28125  Q 14.5 37.15625 16.890625 35.375  Q 19.28125 33.59375 26.515625 31.984375  L 29.59375 31.296875  Q 39.15625 29.25 43.1875 25.515625  Q 47.21875 21.78125 47.21875 15.09375  Q 47.21875 7.46875 41.1875 3.015625  Q 35.15625 -1.421875 24.609375 -1.421875  Q 20.21875 -1.421875 15.453125 -0.5625  Q 10.6875 0.296875 5.421875 2  L 5.421875 11.28125  Q 10.40625 8.6875 15.234375 7.390625  Q 20.0625 6.109375 24.8125 6.109375  Q 31.15625 6.109375 34.5625 8.28125  Q 37.984375 10.453125 37.984375 14.40625  Q 37.984375 18.0625 35.515625 20.015625  Q 33.0625 21.96875 24.703125 23.78125  L 21.578125 24.515625  Q 13.234375 26.265625 9.515625 29.90625  Q 5.8125 33.546875 5.8125 39.890625  Q 5.8125 47.609375 11.28125 51.796875  Q 16.75 56 26.8125 56  Q 31.78125 56 36.171875 55.265625  Q 40.578125 54.546875 44.28125 53.078125  z " id="DejaVuSans-73"/>
      <path d="M 18.3125 70.21875  L 18.3125 54.6875  L 36.8125 54.6875  L 36.8125 47.703125  L 18.3125 47.703125  L 18.3125 18.015625  Q 18.3125 11.328125 20.140625 9.421875  Q 21.96875 7.515625 27.59375 7.515625  L 36.8125 7.515625  L 36.8125 0  L 27.59375 0  Q 17.1875 0 13.234375 3.875  Q 9.28125 7.765625 9.28125 18.015625  L 9.28125 47.703125  L 2.6875 47.703125  L 2.6875 54.6875  L 9.28125 54.6875  L 9.28125 70.21875  z " id="DejaVuSans-74"/>
      <path d="M 34.28125 27.484375  Q 23.390625 27.484375 19.1875 25  Q 14.984375 22.515625 14.984375 16.5  Q 14.984375 11.71875 18.140625 8.90625  Q 21.296875 6.109375 26.703125 6.109375  Q 34.1875 6.109375 38.703125 11.40625  Q 43.21875 16.703125 43.21875 25.484375  L 43.21875 27.484375  z M 52.203125 31.203125  L 52.203125 0  L 43.21875 0  L 43.21875 8.296875  Q 40.140625 3.328125 35.546875 0.953125  Q 30.953125 -1.421875 24.3125 -1.421875  Q 15.921875 -1.421875 10.953125 3.296875  Q 6 8.015625 6 15.921875  Q 6 25.140625 12.171875 29.828125  Q 18.359375 34.515625 30.609375 34.515625  L 43.21875 34.515625  L 43.21875 35.40625  Q 43.21875 41.609375 39.140625 45  Q 35.0625 48.390625 27.6875 48.390625  Q 23 48.390625 18.546875 47.265625  Q 14.109375 46.140625 10.015625 43.890625  L 10.015625 52.203125  Q 14.9375 54.109375 19.578125 55.046875  Q 24.21875 56 28.609375 56  Q 40.484375 56 46.34375 49.84375  Q 52.203125 43.703125 52.203125 31.203125  z " id="DejaVuSans-61"/>
      <path d="M 54.890625 33.015625  L 54.890625 0  L 45.90625 0  L 45.90625 32.71875  Q 45.90625 40.484375 42.875 44.328125  Q 39.84375 48.1875 33.796875 48.1875  Q 26.515625 48.1875 22.3125 43.546875  Q 18.109375 38.921875 18.109375 30.90625  L 18.109375 0  L 9.078125 0  L 9.078125 54.6875  L 18.109375 54.6875  L 18.109375 46.1875  Q 21.34375 51.125 25.703125 53.5625  Q 30.078125 56 35.796875 56  Q 45.21875 56 50.046875 50.171875  Q 54.890625 44.34375 54.890625 33.015625  z " id="DejaVuSans-6e"/>
      <path d="M 48.78125 52.59375  L 48.78125 44.1875  Q 44.96875 46.296875 41.140625 47.34375  Q 37.3125 48.390625 33.40625 48.390625  Q 24.65625 48.390625 19.8125 42.84375  Q 14.984375 37.3125 14.984375 27.296875  Q 14.984375 17.28125 19.8125 11.734375  Q 24.65625 6.203125 33.40625 6.203125  Q 37.3125 6.203125 41.140625 7.25  Q 44.96875 8.296875 48.78125 10.40625  L 48.78125 2.09375  Q 45.015625 0.34375 40.984375 -0.53125  Q 36.96875 -1.421875 32.421875 -1.421875  Q 20.0625 -1.421875 12.78125 6.34375  Q 5.515625 14.109375 5.515625 27.296875  Q 5.515625 40.671875 12.859375 48.328125  Q 20.21875 56 33.015625 56  Q 37.15625 56 41.109375 55.140625  Q 45.0625 54.296875 48.78125 52.59375  z " id="DejaVuSans-63"/>
      <path d="M 56.203125 29.59375  L 56.203125 25.203125  L 14.890625 25.203125  Q 15.484375 15.921875 20.484375 11.0625  Q 25.484375 6.203125 34.421875 6.203125  Q 39.59375 6.203125 44.453125 7.46875  Q 49.3125 8.734375 54.109375 11.28125  L 54.109375 2.78125  Q 49.265625 0.734375 44.1875 -0.34375  Q 39.109375 -1.421875 33.890625 -1.421875  Q 20.796875 -1.421875 13.15625 6.1875  Q 5.515625 13.8125 5.515625 26.8125  Q 5.515625 40.234375 12.765625 48.109375  Q 20.015625 56 32.328125 56  Q 43.359375 56 49.78125 48.890625  Q 56.203125 41.796875 56.203125 29.59375  z M 47.21875 32.234375  Q 47.125 39.59375 43.09375 43.984375  Q 39.0625 48.390625 32.421875 48.390625  Q 24.90625 48.390625 20.390625 44.140625  Q 15.875 39.890625 15.1875 32.171875  z " id="DejaVuSans-65"/>
      <path id="DejaVuSans-20"/>
      <path d="M 31 75.875  Q 24.46875 64.65625 21.28125 53.65625  Q 18.109375 42.671875 18.109375 31.390625  Q 18.109375 20.125 21.3125 9.0625  Q 24.515625 -2 31 -13.1875  L 23.1875 -13.1875  Q 15.875 -1.703125 12.234375 9.375  Q 8.59375 20.453125 8.59375 31.390625  Q 8.59375 42.28125 12.203125 53.3125  Q 15.828125 64.359375 23.1875 75.875  z " id="DejaVuSans-28"/>
      <path d="M -1.3125 -20.796875  L 13.375 54.6875  L 22.40625 54.6875  L 15.765625 20.65625  Q 15.578125 19.625 15.421875 18.359375  Q 15.28125 17.09375 15.28125 15.828125  Q 15.28125 11.28125 18.140625 8.828125  Q 21 6.390625 26.3125 6.390625  Q 33.546875 6.390625 37.984375 10.484375  Q 42.4375 14.59375 44 22.796875  L 50.203125 54.6875  L 59.1875 54.6875  L 51.03125 12.640625  Q 50.828125 11.71875 50.75 11.03125  Q 50.6875 10.359375 50.6875 9.8125  Q 50.6875 8.296875 51.296875 7.59375  Q 51.90625 6.890625 53.21875 6.890625  Q 53.71875 6.890625 54.5625 7.125  Q 55.421875 7.375 56.984375 8.015625  L 55.609375 0.78125  Q 53.46875 -0.296875 51.515625 -0.859375  Q 49.5625 -1.421875 47.703125 -1.421875  Q 44.484375 -1.421875 42.65625 0.625  Q 40.828125 2.6875 40.828125 6.296875  Q 38.09375 2.390625 34.296875 0.484375  Q 30.515625 -1.421875 25.390625 -1.421875  Q 20.84375 -1.421875 17.453125 0.671875  Q 14.0625 2.78125 12.984375 6.203125  L 7.71875 -20.796875  z " id="DejaVuSans-Oblique-3bc"/>
      <path d="M 52 44.1875  Q 55.375 50.25 60.0625 53.125  Q 64.75 56 71.09375 56  Q 79.640625 56 84.28125 50.015625  Q 88.921875 44.046875 88.921875 33.015625  L 88.921875 0  L 79.890625 0  L 79.890625 32.71875  Q 79.890625 40.578125 77.09375 44.375  Q 74.3125 48.1875 68.609375 48.1875  Q 61.625 48.1875 57.5625 43.546875  Q 53.515625 38.921875 53.515625 30.90625  L 53.515625 0  L 44.484375 0  L 44.484375 32.71875  Q 44.484375 40.625 41.703125 44.40625  Q 38.921875 48.1875 33.109375 48.1875  Q 26.21875 48.1875 22.15625 43.53125  Q 18.109375 38.875 18.109375 30.90625  L 18.109375 0  L 9.078125 0  L 9.078125 54.6875  L 18.109375 54.6875  L 18.109375 46.1875  Q 21.1875 51.21875 25.484375 53.609375  Q 29.78125 56 35.6875 56  Q 41.65625 56 45.828125 52.96875  Q 50 49.953125 52 44.1875  z " id="DejaVuSans-6d"/>
      <path d="M 8.015625 75.875  L 15.828125 75.875  Q 23.140625 64.359375 26.78125 53.3125  Q 30.421875 42.28125 30.421875 31.390625  Q 30.421875 20.453125 26.78125 9.375  Q 23.140625 -1.703125 15.828125 -13.1875  L 8.015625 -13.1875  Q 14.5 -2 17.703125 9.0625  Q 20.90625 20.125 20.90625 31.390625  Q 20.90625 42.671875 17.703125 53.65625  Q 14.5 64.65625 8.015625 75.875  z " id="DejaVuSans-29"/>
     </defs>
     <g transform="translate(219.5885 329.038125)scale(0.1 -0.1)">
      <use transform="translate(0 0.015625)" xlink:href="#DejaVuSans-44"/>
      <use transform="translate(77.001953 0.015625)" xlink:href="#DejaVuSans-69"/>
      <use transform="translate(104.785156 0.015625)" xlink:href="#DejaVuSans-73"/>
      <use transform="translate(156.884766 0.015625)" xlink:href="#DejaVuSans-74"/>
      <use transform="translate(196.09375 0.015625)" xlink:href="#DejaVuSans-61"/>
      <use transform="translate(257.373047 0.015625)" xlink:href="#DejaVuSans-6e"/>
      <use transform="translate(320.751953 0.015625)" xlink:href="#DejaVuSans-63"/>
      <use transform="translate(375.732422 0.015625)" xlink:href="#DejaVuSans-65"/>
      <use transform="translate(437.255859 0.015625)" xlink:href="#DejaVuSans-20"/>
      <use transform="translate(469.042969 0.015625)" xlink:href="#DejaVuSans-28"/>
      <use transform="translate(508.056641 0.015625)" xlink:href="#DejaVuSans-Oblique-3bc"/>
      <use transform="translate(571.679688 0.015625)" xlink:href="#DejaVuSans-6d"/>
      <use transform="translate(669.091797 0.015625)" xlink:href="#DejaVuSans-29"/>
     </g>
    </g>
   </g>
   <g id="matplotlib.axis_2">
    <g id="ytick_1">
     <g id="line2d_10">
      <defs>
       <path d="M 0 0  L -3.5 0  " id="m1cb5bf8566" style="stroke:#000000;stroke-width:0.8;"/>
      </defs>
      <g>
       <use style="stroke:#000000;stroke-width:0.8;" x="69.572" xlink:href="#m1cb5bf8566" y="295.1324"/>
      </g>
     </g>
     <g id="text_11">
      <!-- &#8722;3000 -->
      <defs>
       <path d="M 10.59375 35.5  L 73.1875 35.5  L 73.1875 27.203125  L 10.59375 27.203125  z " id="DejaVuSans-2212"/>
      </defs>
      <g transform="translate(28.742313 298.931619)scale(0.1 -0.1)">
       <use xlink:href="#DejaVuSans-2212"/>
       <use x="83.789062" xlink:href="#DejaVuSans-33"/>
       <use x="147.412109" xlink:href="#DejaVuSans-30"/>
       <use x="211.035156" xlink:href="#DejaVuSans-30"/>
       <use x="274.658203" xlink:href="#DejaVuSans-30"/>
      </g>
     </g>
    </g>
    <g id="ytick_2">
     <g id="line2d_11">
      <g>
       <use style="stroke:#000000;stroke-width:0.8;" x="69.572" xlink:href="#m1cb5bf8566" y="234.839863"/>
      </g>
     </g>
     <g id="text_12">
      <!-- &#8722;2000 -->
      <g transform="translate(28.742313 238.639082)scale(0.1 -0.1)">
       <use xlink:href="#DejaVuSans-2212"/>
       <use x="83.789062" xlink:href="#DejaVuSans-32"/>
       <use x="147.412109" xlink:href="#DejaVuSans-30"/>
       <use x="211.035156" xlink:href="#DejaVuSans-30"/>
       <use x="274.658203" xlink:href="#DejaVuSans-30"/>
      </g>
     </g>
    </g>
    <g id="ytick_3">
     <g id="line2d_12">
      <g>
       <use style="stroke:#000000;stroke-width:0.8;" x="69.572" xlink:href="#m1cb5bf8566" y="174.547326"/>
      </g>
     </g>
     <g id="text_13">
      <!-- &#8722;1000 -->
      <g transform="translate(28.742313 178.346545)scale(0.1 -0.1)">
       <use xlink:href="#DejaVuSans-2212"/>
       <use x="83.789062" xlink:href="#DejaVuSans-31"/>
       <use x="147.412109" xlink:href="#DejaVuSans-30"/>
       <use x="211.035156" xlink:href="#DejaVuSans-30"/>
       <use x="274.658203" xlink:href="#DejaVuSans-30"/>
      </g>
     </g>
    </g>
    <g id="ytick_4">
     <g id="line2d_13">
      <g>
       <use style="stroke:#000000;stroke-width:0.8;" x="69.572" xlink:href="#m1cb5bf8566" y="114.254789"/>
      </g>
     </g>
     <g id="text_14">
      <!-- 0 -->
      <g transform="translate(56.2095 118.054008)scale(0.1 -0.1)">
       <use xlink:href="#DejaVuSans-30"/>
      </g>
     </g>
    </g>
    <g id="ytick_5">
     <g id="line2d_14">
      <g>
       <use style="stroke:#000000;stroke-width:0.8;" x="69.572" xlink:href="#m1cb5bf8566" y="53.962252"/>
      </g>
     </g>
     <g id="text_15">
      <!-- 1000 -->
      <g transform="translate(37.122 57.761471)scale(0.1 -0.1)">
       <use xlink:href="#DejaVuSans-31"/>
       <use x="63.623047" xlink:href="#DejaVuSans-30"/>
       <use x="127.246094" xlink:href="#DejaVuSans-30"/>
       <use x="190.869141" xlink:href="#DejaVuSans-30"/>
      </g>
     </g>
    </g>
    <g id="text_16">
     <!-- Flux (at.-fr.m/s)$\times10^{-14}$ -->
     <defs>
      <path d="M 9.8125 72.90625  L 51.703125 72.90625  L 51.703125 64.59375  L 19.671875 64.59375  L 19.671875 43.109375  L 48.578125 43.109375  L 48.578125 34.8125  L 19.671875 34.8125  L 19.671875 0  L 9.8125 0  z " id="DejaVuSans-46"/>
      <path d="M 9.421875 75.984375  L 18.40625 75.984375  L 18.40625 0  L 9.421875 0  z " id="DejaVuSans-6c"/>
      <path d="M 8.5 21.578125  L 8.5 54.6875  L 17.484375 54.6875  L 17.484375 21.921875  Q 17.484375 14.15625 20.5 10.265625  Q 23.53125 6.390625 29.59375 6.390625  Q 36.859375 6.390625 41.078125 11.03125  Q 45.3125 15.671875 45.3125 23.6875  L 45.3125 54.6875  L 54.296875 54.6875  L 54.296875 0  L 45.3125 0  L 45.3125 8.40625  Q 42.046875 3.421875 37.71875 1  Q 33.40625 -1.421875 27.6875 -1.421875  Q 18.265625 -1.421875 13.375 4.4375  Q 8.5 10.296875 8.5 21.578125  z M 31.109375 56  z " id="DejaVuSans-75"/>
      <path d="M 54.890625 54.6875  L 35.109375 28.078125  L 55.90625 0  L 45.3125 0  L 29.390625 21.484375  L 13.484375 0  L 2.875 0  L 24.125 28.609375  L 4.6875 54.6875  L 15.28125 54.6875  L 29.78125 35.203125  L 44.28125 54.6875  z " id="DejaVuSans-78"/>
      <path d="M 10.6875 12.40625  L 21 12.40625  L 21 0  L 10.6875 0  z " id="DejaVuSans-2e"/>
      <path d="M 4.890625 31.390625  L 31.203125 31.390625  L 31.203125 23.390625  L 4.890625 23.390625  z " id="DejaVuSans-2d"/>
      <path d="M 37.109375 75.984375  L 37.109375 68.5  L 28.515625 68.5  Q 23.6875 68.5 21.796875 66.546875  Q 19.921875 64.59375 19.921875 59.515625  L 19.921875 54.6875  L 34.71875 54.6875  L 34.71875 47.703125  L 19.921875 47.703125  L 19.921875 0  L 10.890625 0  L 10.890625 47.703125  L 2.296875 47.703125  L 2.296875 54.6875  L 10.890625 54.6875  L 10.890625 58.5  Q 10.890625 67.625 15.140625 71.796875  Q 19.390625 75.984375 28.609375 75.984375  z " id="DejaVuSans-66"/>
      <path d="M 41.109375 46.296875  Q 39.59375 47.171875 37.8125 47.578125  Q 36.03125 48 33.890625 48  Q 26.265625 48 22.1875 43.046875  Q 18.109375 38.09375 18.109375 28.8125  L 18.109375 0  L 9.078125 0  L 9.078125 54.6875  L 18.109375 54.6875  L 18.109375 46.1875  Q 20.953125 51.171875 25.484375 53.578125  Q 30.03125 56 36.53125 56  Q 37.453125 56 38.578125 55.875  Q 39.703125 55.765625 41.0625 55.515625  z " id="DejaVuSans-72"/>
      <path d="M 25.390625 72.90625  L 33.6875 72.90625  L 8.296875 -9.28125  L 0 -9.28125  z " id="DejaVuSans-2f"/>
      <path d="M 70.125 53.71875  L 47.796875 31.296875  L 70.125 8.984375  L 64.3125 3.078125  L 41.890625 25.484375  L 19.484375 3.078125  L 13.71875 8.984375  L 35.984375 31.296875  L 13.71875 53.71875  L 19.484375 59.625  L 41.890625 37.203125  L 64.3125 59.625  z " id="DejaVuSans-d7"/>
     </defs>
     <g transform="translate(22.662625 214.04)rotate(-90)scale(0.1 -0.1)">
      <use transform="translate(0 0.684375)" xlink:href="#DejaVuSans-46"/>
      <use transform="translate(57.519531 0.684375)" xlink:href="#DejaVuSans-6c"/>
      <use transform="translate(85.302734 0.684375)" xlink:href="#DejaVuSans-75"/>
      <use transform="translate(148.681641 0.684375)" xlink:href="#DejaVuSans-78"/>
      <use transform="translate(207.861328 0.684375)" xlink:href="#DejaVuSans-20"/>
      <use transform="translate(239.648438 0.684375)" xlink:href="#DejaVuSans-28"/>
      <use transform="translate(278.662109 0.684375)" xlink:href="#DejaVuSans-61"/>
      <use transform="translate(339.941406 0.684375)" xlink:href="#DejaVuSans-74"/>
      <use transform="translate(379.150391 0.684375)" xlink:href="#DejaVuSans-2e"/>
      <use transform="translate(410.9375 0.684375)" xlink:href="#DejaVuSans-2d"/>
      <use transform="translate(447.021484 0.684375)" xlink:href="#DejaVuSans-66"/>
      <use transform="translate(482.226562 0.684375)" xlink:href="#DejaVuSans-72"/>
      <use transform="translate(523.339844 0.684375)" xlink:href="#DejaVuSans-2e"/>
      <use transform="translate(555.033203 0.684375)" xlink:href="#DejaVuSans-6d"/>
      <use transform="translate(652.445312 0.684375)" xlink:href="#DejaVuSans-2f"/>
      <use transform="translate(686.136719 0.684375)" xlink:href="#DejaVuSans-73"/>
      <use transform="translate(738.236328 0.684375)" xlink:href="#DejaVuSans-29"/>
      <use transform="translate(777.25 0.684375)" xlink:href="#DejaVuSans-d7"/>
      <use transform="translate(861.039062 0.684375)" xlink:href="#DejaVuSans-31"/>
      <use transform="translate(924.662109 0.684375)" xlink:href="#DejaVuSans-30"/>
      <use transform="translate(989.242188 38.965625)scale(0.7)" xlink:href="#DejaVuSans-2212"/>
      <use transform="translate(1047.894531 38.965625)scale(0.7)" xlink:href="#DejaVuSans-31"/>
      <use transform="translate(1092.430664 38.965625)scale(0.7)" xlink:href="#DejaVuSans-34"/>
     </g>
    </g>
   </g>
   <g id="line2d_15">
    <defs>
     <path d="M -0 3  L 3 -3  L -3 -3  z " id="m8e2dd8f719" style="stroke:#e74c3c;stroke-linejoin:miter;"/>
    </defs>
    <g clip-path="url(#pb281de1945)">
     <use style="fill:#e74c3c;stroke:#e74c3c;stroke-linejoin:miter;" x="69.572" xlink:href="#m8e2dd8f719" y="114.24992"/>
     <use style="fill:#e74c3c;stroke:#e74c3c;stroke-linejoin:miter;" x="77.02794" xlink:href="#m8e2dd8f719" y="114.229982"/>
     <use style="fill:#e74c3c;stroke:#e74c3c;stroke-linejoin:miter;" x="84.483879" xlink:href="#m8e2dd8f719" y="114.18527"/>
     <use style="fill:#e74c3c;stroke:#e74c3c;stroke-linejoin:miter;" x="91.939819" xlink:href="#m8e2dd8f719" y="114.106966"/>
     <use style="fill:#e74c3c;stroke:#e74c3c;stroke-linejoin:miter;" x="99.395759" xlink:href="#m8e2dd8f719" y="113.973753"/>
     <use style="fill:#e74c3c;stroke:#e74c3c;stroke-linejoin:miter;" x="106.851698" xlink:href="#m8e2dd8f719" y="113.753649"/>
     <use style="fill:#e74c3c;stroke:#e74c3c;stroke-linejoin:miter;" x="114.307638" xlink:href="#m8e2dd8f719" y="113.40052"/>
     <use style="fill:#e74c3c;stroke:#e74c3c;stroke-linejoin:miter;" x="121.763578" xlink:href="#m8e2dd8f719" y="112.85055"/>
     <use style="fill:#e74c3c;stroke:#e74c3c;stroke-linejoin:miter;" x="129.219518" xlink:href="#m8e2dd8f719" y="112.019344"/>
     <use style="fill:#e74c3c;stroke:#e74c3c;stroke-linejoin:miter;" x="136.675457" xlink:href="#m8e2dd8f719" y="110.800695"/>
     <use style="fill:#e74c3c;stroke:#e74c3c;stroke-linejoin:miter;" x="144.131397" xlink:href="#m8e2dd8f719" y="109.068275"/>
     <use style="fill:#e74c3c;stroke:#e74c3c;stroke-linejoin:miter;" x="151.587337" xlink:href="#m8e2dd8f719" y="106.68158"/>
     <use style="fill:#e74c3c;stroke:#e74c3c;stroke-linejoin:miter;" x="159.043276" xlink:href="#m8e2dd8f719" y="103.497232"/>
     <use style="fill:#e74c3c;stroke:#e74c3c;stroke-linejoin:miter;" x="166.499216" xlink:href="#m8e2dd8f719" y="99.386055"/>
     <use style="fill:#e74c3c;stroke:#e74c3c;stroke-linejoin:miter;" x="173.955156" xlink:href="#m8e2dd8f719" y="94.255295"/>
     <use style="fill:#e74c3c;stroke:#e74c3c;stroke-linejoin:miter;" x="181.411095" xlink:href="#m8e2dd8f719" y="88.073916"/>
     <use style="fill:#e74c3c;stroke:#e74c3c;stroke-linejoin:miter;" x="188.867035" xlink:href="#m8e2dd8f719" y="80.897456"/>
     <use style="fill:#e74c3c;stroke:#e74c3c;stroke-linejoin:miter;" x="196.322975" xlink:href="#m8e2dd8f719" y="72.887747"/>
     <use style="fill:#e74c3c;stroke:#e74c3c;stroke-linejoin:miter;" x="203.778915" xlink:href="#m8e2dd8f719" y="64.322376"/>
     <use style="fill:#e74c3c;stroke:#e74c3c;stroke-linejoin:miter;" x="211.234854" xlink:href="#m8e2dd8f719" y="55.589474"/>
     <use style="fill:#e74c3c;stroke:#e74c3c;stroke-linejoin:miter;" x="218.690794" xlink:href="#m8e2dd8f719" y="47.165231"/>
     <use style="fill:#e74c3c;stroke:#e74c3c;stroke-linejoin:miter;" x="226.146734" xlink:href="#m8e2dd8f719" y="39.574548"/>
     <use style="fill:#e74c3c;stroke:#e74c3c;stroke-linejoin:miter;" x="233.602673" xlink:href="#m8e2dd8f719" y="33.338585"/>
     <use style="fill:#e74c3c;stroke:#e74c3c;stroke-linejoin:miter;" x="241.058613" xlink:href="#m8e2dd8f719" y="28.916197"/>
     <use style="fill:#e74c3c;stroke:#e74c3c;stroke-linejoin:miter;" x="248.514553" xlink:href="#m8e2dd8f719" y="26.648279"/>
     <use style="fill:#e74c3c;stroke:#e74c3c;stroke-linejoin:miter;" x="255.970492" xlink:href="#m8e2dd8f719" y="26.714359"/>
     <use style="fill:#e74c3c;stroke:#e74c3c;stroke-linejoin:miter;" x="263.426432" xlink:href="#m8e2dd8f719" y="29.109123"/>
     <use style="fill:#e74c3c;stroke:#e74c3c;stroke-linejoin:miter;" x="270.882372" xlink:href="#m8e2dd8f719" y="33.643111"/>
     <use style="fill:#e74c3c;stroke:#e74c3c;stroke-linejoin:miter;" x="278.338312" xlink:href="#m8e2dd8f719" y="39.967477"/>
     <use style="fill:#e74c3c;stroke:#e74c3c;stroke-linejoin:miter;" x="285.794251" xlink:href="#m8e2dd8f719" y="47.618312"/>
     <use style="fill:#e74c3c;stroke:#e74c3c;stroke-linejoin:miter;" x="293.250191" xlink:href="#m8e2dd8f719" y="56.072718"/>
     <use style="fill:#e74c3c;stroke:#e74c3c;stroke-linejoin:miter;" x="300.706131" xlink:href="#m8e2dd8f719" y="64.807258"/>
     <use style="fill:#e74c3c;stroke:#e74c3c;stroke-linejoin:miter;" x="308.16207" xlink:href="#m8e2dd8f719" y="73.349817"/>
     <use style="fill:#e74c3c;stroke:#e74c3c;stroke-linejoin:miter;" x="315.61801" xlink:href="#m8e2dd8f719" y="81.318081"/>
     <use style="fill:#e74c3c;stroke:#e74c3c;stroke-linejoin:miter;" x="323.07395" xlink:href="#m8e2dd8f719" y="88.44101"/>
     <use style="fill:#e74c3c;stroke:#e74c3c;stroke-linejoin:miter;" x="330.529889" xlink:href="#m8e2dd8f719" y="94.563143"/>
     <use style="fill:#e74c3c;stroke:#e74c3c;stroke-linejoin:miter;" x="337.985829" xlink:href="#m8e2dd8f719" y="99.634417"/>
     <use style="fill:#e74c3c;stroke:#e74c3c;stroke-linejoin:miter;" x="345.441769" xlink:href="#m8e2dd8f719" y="103.690028"/>
     <use style="fill:#e74c3c;stroke:#e74c3c;stroke-linejoin:miter;" x="352.897709" xlink:href="#m8e2dd8f719" y="106.825434"/>
     <use style="fill:#e74c3c;stroke:#e74c3c;stroke-linejoin:miter;" x="360.353648" xlink:href="#m8e2dd8f719" y="109.17115"/>
     <use style="fill:#e74c3c;stroke:#e74c3c;stroke-linejoin:miter;" x="367.809588" xlink:href="#m8e2dd8f719" y="110.870783"/>
     <use style="fill:#e74c3c;stroke:#e74c3c;stroke-linejoin:miter;" x="375.265528" xlink:href="#m8e2dd8f719" y="112.064271"/>
     <use style="fill:#e74c3c;stroke:#e74c3c;stroke-linejoin:miter;" x="382.721467" xlink:href="#m8e2dd8f719" y="112.87691"/>
     <use style="fill:#e74c3c;stroke:#e74c3c;stroke-linejoin:miter;" x="390.177407" xlink:href="#m8e2dd8f719" y="113.413679"/>
     <use style="fill:#e74c3c;stroke:#e74c3c;stroke-linejoin:miter;" x="397.633347" xlink:href="#m8e2dd8f719" y="113.75775"/>
     <use style="fill:#e74c3c;stroke:#e74c3c;stroke-linejoin:miter;" x="405.089286" xlink:href="#m8e2dd8f719" y="113.971852"/>
     <use style="fill:#e74c3c;stroke:#e74c3c;stroke-linejoin:miter;" x="412.545226" xlink:href="#m8e2dd8f719" y="114.101217"/>
     <use style="fill:#e74c3c;stroke:#e74c3c;stroke-linejoin:miter;" x="420.001166" xlink:href="#m8e2dd8f719" y="114.177134"/>
     <use style="fill:#e74c3c;stroke:#e74c3c;stroke-linejoin:miter;" x="427.457106" xlink:href="#m8e2dd8f719" y="114.220414"/>
     <use style="fill:#e74c3c;stroke:#e74c3c;stroke-linejoin:miter;" x="434.913045" xlink:href="#m8e2dd8f719" y="114.244386"/>
    </g>
   </g>
   <g id="line2d_16">
    <defs>
     <path d="M 0 -3  L -0.673542 -0.927051  L -2.85317 -0.927051  L -1.089814 0.354102  L -1.763356 2.427051  L -0 1.145898  L 1.763356 2.427051  L 1.089814 0.354102  L 2.85317 -0.927051  L 0.673542 -0.927051  z " id="mffa26ebbc6" style="stroke:#808000;stroke-linejoin:bevel;"/>
    </defs>
    <g clip-path="url(#pb281de1945)">
     <use style="fill:#808000;stroke:#808000;stroke-linejoin:bevel;" x="69.572" xlink:href="#mffa26ebbc6" y="114.254789"/>
     <use style="fill:#808000;stroke:#808000;stroke-linejoin:bevel;" x="77.02794" xlink:href="#mffa26ebbc6" y="114.254788"/>
     <use style="fill:#808000;stroke:#808000;stroke-linejoin:bevel;" x="84.483879" xlink:href="#mffa26ebbc6" y="114.254785"/>
     <use style="fill:#808000;stroke:#808000;stroke-linejoin:bevel;" x="91.939819" xlink:href="#mffa26ebbc6" y="114.25477"/>
     <use style="fill:#808000;stroke:#808000;stroke-linejoin:bevel;" x="99.395759" xlink:href="#mffa26ebbc6" y="114.254715"/>
     <use style="fill:#808000;stroke:#808000;stroke-linejoin:bevel;" x="106.851698" xlink:href="#mffa26ebbc6" y="114.254521"/>
     <use style="fill:#808000;stroke:#808000;stroke-linejoin:bevel;" x="114.307638" xlink:href="#mffa26ebbc6" y="114.253872"/>
     <use style="fill:#808000;stroke:#808000;stroke-linejoin:bevel;" x="121.763578" xlink:href="#mffa26ebbc6" y="114.251846"/>
     <use style="fill:#808000;stroke:#808000;stroke-linejoin:bevel;" x="129.219518" xlink:href="#mffa26ebbc6" y="114.245925"/>
     <use style="fill:#808000;stroke:#808000;stroke-linejoin:bevel;" x="136.675457" xlink:href="#mffa26ebbc6" y="114.229721"/>
     <use style="fill:#808000;stroke:#808000;stroke-linejoin:bevel;" x="144.131397" xlink:href="#mffa26ebbc6" y="114.188225"/>
     <use style="fill:#808000;stroke:#808000;stroke-linejoin:bevel;" x="151.587337" xlink:href="#mffa26ebbc6" y="114.088826"/>
     <use style="fill:#808000;stroke:#808000;stroke-linejoin:bevel;" x="159.043276" xlink:href="#mffa26ebbc6" y="113.866248"/>
     <use style="fill:#808000;stroke:#808000;stroke-linejoin:bevel;" x="166.499216" xlink:href="#mffa26ebbc6" y="113.400676"/>
     <use style="fill:#808000;stroke:#808000;stroke-linejoin:bevel;" x="173.955156" xlink:href="#mffa26ebbc6" y="112.491815"/>
     <use style="fill:#808000;stroke:#808000;stroke-linejoin:bevel;" x="181.411095" xlink:href="#mffa26ebbc6" y="110.837913"/>
     <use style="fill:#808000;stroke:#808000;stroke-linejoin:bevel;" x="188.867035" xlink:href="#mffa26ebbc6" y="108.036579"/>
     <use style="fill:#808000;stroke:#808000;stroke-linejoin:bevel;" x="196.322975" xlink:href="#mffa26ebbc6" y="103.629166"/>
     <use style="fill:#808000;stroke:#808000;stroke-linejoin:bevel;" x="203.778915" xlink:href="#mffa26ebbc6" y="97.205896"/>
     <use style="fill:#808000;stroke:#808000;stroke-linejoin:bevel;" x="211.234854" xlink:href="#mffa26ebbc6" y="88.569126"/>
     <use style="fill:#808000;stroke:#808000;stroke-linejoin:bevel;" x="218.690794" xlink:href="#mffa26ebbc6" y="77.918699"/>
     <use style="fill:#808000;stroke:#808000;stroke-linejoin:bevel;" x="226.146734" xlink:href="#mffa26ebbc6" y="65.989112"/>
     <use style="fill:#808000;stroke:#808000;stroke-linejoin:bevel;" x="233.602673" xlink:href="#mffa26ebbc6" y="54.055491"/>
     <use style="fill:#808000;stroke:#808000;stroke-linejoin:bevel;" x="241.058613" xlink:href="#mffa26ebbc6" y="43.753467"/>
     <use style="fill:#808000;stroke:#808000;stroke-linejoin:bevel;" x="248.514553" xlink:href="#mffa26ebbc6" y="36.727268"/>
     <use style="fill:#808000;stroke:#808000;stroke-linejoin:bevel;" x="255.970492" xlink:href="#mffa26ebbc6" y="34.203681"/>
     <use style="fill:#808000;stroke:#808000;stroke-linejoin:bevel;" x="263.426432" xlink:href="#mffa26ebbc6" y="36.642302"/>
     <use style="fill:#808000;stroke:#808000;stroke-linejoin:bevel;" x="270.882372" xlink:href="#mffa26ebbc6" y="43.598852"/>
     <use style="fill:#808000;stroke:#808000;stroke-linejoin:bevel;" x="278.338312" xlink:href="#mffa26ebbc6" y="53.857349"/>
     <use style="fill:#808000;stroke:#808000;stroke-linejoin:bevel;" x="285.794251" xlink:href="#mffa26ebbc6" y="65.777178"/>
     <use style="fill:#808000;stroke:#808000;stroke-linejoin:bevel;" x="293.250191" xlink:href="#mffa26ebbc6" y="77.719151"/>
     <use style="fill:#808000;stroke:#808000;stroke-linejoin:bevel;" x="300.706131" xlink:href="#mffa26ebbc6" y="88.399762"/>
     <use style="fill:#808000;stroke:#808000;stroke-linejoin:bevel;" x="308.16207" xlink:href="#mffa26ebbc6" y="97.074673"/>
     <use style="fill:#808000;stroke:#808000;stroke-linejoin:bevel;" x="315.61801" xlink:href="#mffa26ebbc6" y="103.535648"/>
     <use style="fill:#808000;stroke:#808000;stroke-linejoin:bevel;" x="323.07395" xlink:href="#mffa26ebbc6" y="107.974976"/>
     <use style="fill:#808000;stroke:#808000;stroke-linejoin:bevel;" x="330.529889" xlink:href="#mffa26ebbc6" y="110.800281"/>
     <use style="fill:#808000;stroke:#808000;stroke-linejoin:bevel;" x="337.985829" xlink:href="#mffa26ebbc6" y="112.470445"/>
     <use style="fill:#808000;stroke:#808000;stroke-linejoin:bevel;" x="345.441769" xlink:href="#mffa26ebbc6" y="113.389376"/>
     <use style="fill:#808000;stroke:#808000;stroke-linejoin:bevel;" x="352.897709" xlink:href="#mffa26ebbc6" y="113.860675"/>
     <use style="fill:#808000;stroke:#808000;stroke-linejoin:bevel;" x="360.353648" xlink:href="#mffa26ebbc6" y="114.086261"/>
     <use style="fill:#808000;stroke:#808000;stroke-linejoin:bevel;" x="367.809588" xlink:href="#mffa26ebbc6" y="114.187122"/>
     <use style="fill:#808000;stroke:#808000;stroke-linejoin:bevel;" x="375.265528" xlink:href="#mffa26ebbc6" y="114.229278"/>
     <use style="fill:#808000;stroke:#808000;stroke-linejoin:bevel;" x="382.721467" xlink:href="#mffa26ebbc6" y="114.245758"/>
     <use style="fill:#808000;stroke:#808000;stroke-linejoin:bevel;" x="390.177407" xlink:href="#mffa26ebbc6" y="114.251787"/>
     <use style="fill:#808000;stroke:#808000;stroke-linejoin:bevel;" x="397.633347" xlink:href="#mffa26ebbc6" y="114.253852"/>
     <use style="fill:#808000;stroke:#808000;stroke-linejoin:bevel;" x="405.089286" xlink:href="#mffa26ebbc6" y="114.254515"/>
     <use style="fill:#808000;stroke:#808000;stroke-linejoin:bevel;" x="412.545226" xlink:href="#mffa26ebbc6" y="114.254714"/>
     <use style="fill:#808000;stroke:#808000;stroke-linejoin:bevel;" x="420.001166" xlink:href="#mffa26ebbc6" y="114.25477"/>
     <use style="fill:#808000;stroke:#808000;stroke-linejoin:bevel;" x="427.457106" xlink:href="#mffa26ebbc6" y="114.254785"/>
     <use style="fill:#808000;stroke:#808000;stroke-linejoin:bevel;" x="434.913045" xlink:href="#mffa26ebbc6" y="114.254788"/>
    </g>
   </g>
   <g id="line2d_17">
    <defs>
     <path d="M 0 3  C 0.795609 3 1.55874 2.683901 2.12132 2.12132  C 2.683901 1.55874 3 0.795609 3 0  C 3 -0.795609 2.683901 -1.55874 2.12132 -2.12132  C 1.55874 -2.683901 0.795609 -3 0 -3  C -0.795609 -3 -1.55874 -2.683901 -2.12132 -2.12132  C -2.683901 -1.55874 -3 -0.795609 -3 0  C -3 0.795609 -2.683901 1.55874 -2.12132 2.12132  C -1.55874 2.683901 -0.795609 3 0 3  z " id="me5e184dd16" style="stroke:#008080;"/>
    </defs>
    <g clip-path="url(#pb281de1945)">
     <use style="fill:#008080;stroke:#008080;" x="69.572" xlink:href="#me5e184dd16" y="114.259658"/>
     <use style="fill:#008080;stroke:#008080;" x="77.02794" xlink:href="#me5e184dd16" y="114.279596"/>
     <use style="fill:#008080;stroke:#008080;" x="84.483879" xlink:href="#me5e184dd16" y="114.324313"/>
     <use style="fill:#008080;stroke:#008080;" x="91.939819" xlink:href="#me5e184dd16" y="114.402631"/>
     <use style="fill:#008080;stroke:#008080;" x="99.395759" xlink:href="#me5e184dd16" y="114.535898"/>
     <use style="fill:#008080;stroke:#008080;" x="106.851698" xlink:href="#me5e184dd16" y="114.756198"/>
     <use style="fill:#008080;stroke:#008080;" x="114.307638" xlink:href="#me5e184dd16" y="115.109975"/>
     <use style="fill:#008080;stroke:#008080;" x="121.763578" xlink:href="#me5e184dd16" y="115.661971"/>
     <use style="fill:#008080;stroke:#008080;" x="129.219518" xlink:href="#me5e184dd16" y="116.499098"/>
     <use style="fill:#008080;stroke:#008080;" x="136.675457" xlink:href="#me5e184dd16" y="117.73395"/>
     <use style="fill:#008080;stroke:#008080;" x="144.131397" xlink:href="#me5e184dd16" y="119.507867"/>
     <use style="fill:#008080;stroke:#008080;" x="151.587337" xlink:href="#me5e184dd16" y="121.993961"/>
     <use style="fill:#008080;stroke:#008080;" x="159.043276" xlink:href="#me5e184dd16" y="125.400887"/>
     <use style="fill:#008080;stroke:#008080;" x="166.499216" xlink:href="#me5e184dd16" y="129.977635"/>
     <use style="fill:#008080;stroke:#008080;" x="173.955156" xlink:href="#me5e184dd16" y="136.017257"/>
     <use style="fill:#008080;stroke:#008080;" x="181.411095" xlink:href="#me5e184dd16" y="143.852538"/>
     <use style="fill:#008080;stroke:#008080;" x="188.867035" xlink:href="#me5e184dd16" y="153.830332"/>
     <use style="fill:#008080;stroke:#008080;" x="196.322975" xlink:href="#me5e184dd16" y="166.247454"/>
     <use style="fill:#008080;stroke:#008080;" x="203.778915" xlink:href="#me5e184dd16" y="181.236094"/>
     <use style="fill:#008080;stroke:#008080;" x="211.234854" xlink:href="#me5e184dd16" y="198.605767"/>
     <use style="fill:#008080;stroke:#008080;" x="218.690794" xlink:href="#me5e184dd16" y="217.680436"/>
     <use style="fill:#008080;stroke:#008080;" x="226.146734" xlink:href="#me5e184dd16" y="237.200707"/>
     <use style="fill:#008080;stroke:#008080;" x="233.602673" xlink:href="#me5e184dd16" y="255.370291"/>
     <use style="fill:#008080;stroke:#008080;" x="241.058613" xlink:href="#me5e184dd16" y="270.094703"/>
     <use style="fill:#008080;stroke:#008080;" x="248.514553" xlink:href="#me5e184dd16" y="279.38882"/>
     <use style="fill:#008080;stroke:#008080;" x="255.970492" xlink:href="#me5e184dd16" y="281.846326"/>
     <use style="fill:#008080;stroke:#008080;" x="263.426432" xlink:href="#me5e184dd16" y="277.012941"/>
     <use style="fill:#008080;stroke:#008080;" x="270.882372" xlink:href="#me5e184dd16" y="265.522404"/>
     <use style="fill:#008080;stroke:#008080;" x="278.338312" xlink:href="#me5e184dd16" y="248.939541"/>
     <use style="fill:#008080;stroke:#008080;" x="285.794251" xlink:href="#me5e184dd16" y="229.368877"/>
     <use style="fill:#008080;stroke:#008080;" x="293.250191" xlink:href="#me5e184dd16" y="208.972498"/>
     <use style="fill:#008080;stroke:#008080;" x="300.706131" xlink:href="#me5e184dd16" y="189.557347"/>
     <use style="fill:#008080;stroke:#008080;" x="308.16207" xlink:href="#me5e184dd16" y="172.339877"/>
     <use style="fill:#008080;stroke:#008080;" x="315.61801" xlink:href="#me5e184dd16" y="157.910638"/>
     <use style="fill:#008080;stroke:#008080;" x="323.07395" xlink:href="#me5e184dd16" y="146.348381"/>
     <use style="fill:#008080;stroke:#008080;" x="330.529889" xlink:href="#me5e184dd16" y="137.400943"/>
     <use style="fill:#008080;stroke:#008080;" x="337.985829" xlink:href="#me5e184dd16" y="130.659505"/>
     <use style="fill:#008080;stroke:#008080;" x="345.441769" xlink:href="#me5e184dd16" y="125.684963"/>
     <use style="fill:#008080;stroke:#008080;" x="352.897709" xlink:href="#me5e184dd16" y="122.078257"/>
     <use style="fill:#008080;stroke:#008080;" x="360.353648" xlink:href="#me5e184dd16" y="119.506955"/>
     <use style="fill:#008080;stroke:#008080;" x="367.809588" xlink:href="#me5e184dd16" y="117.706461"/>
     <use style="fill:#008080;stroke:#008080;" x="375.265528" xlink:href="#me5e184dd16" y="116.470818"/>
     <use style="fill:#008080;stroke:#008080;" x="382.721467" xlink:href="#me5e184dd16" y="115.641699"/>
     <use style="fill:#008080;stroke:#008080;" x="390.177407" xlink:href="#me5e184dd16" y="115.098901"/>
     <use style="fill:#008080;stroke:#008080;" x="397.633347" xlink:href="#me5e184dd16" y="114.752764"/>
     <use style="fill:#008080;stroke:#008080;" x="405.089286" xlink:href="#me5e184dd16" y="114.538"/>
     <use style="fill:#008080;stroke:#008080;" x="412.545226" xlink:href="#me5e184dd16" y="114.408436"/>
     <use style="fill:#008080;stroke:#008080;" x="420.001166" xlink:href="#me5e184dd16" y="114.332463"/>
     <use style="fill:#008080;stroke:#008080;" x="427.457106" xlink:href="#me5e184dd16" y="114.289169"/>
     <use style="fill:#008080;stroke:#008080;" x="434.913045" xlink:href="#me5e184dd16" y="114.265193"/>
    </g>
   </g>
   <g id="line2d_18">
    <path clip-path="url(#pb281de1945)" d="M 69.209761 114.254764  L 120.502838 114.145689  L 133.108764 113.906148  L 141.367819 113.541969  L 147.888126 113.034733  L 153.104371 112.413189  L 157.451242 111.692709  L 161.363426 110.842003  L 165.275609 109.755302  L 168.753106 108.55314  L 172.230603 107.092256  L 175.273413 105.573953  L 178.316222 103.807682  L 181.359032 101.772651  L 184.29317 99.539304  L 187.33598 96.92999  L 190.378789 94.015742  L 193.421599 90.797866  L 196.681752 87.025262  L 200.159249 82.659656  L 204.071433 77.38791  L 209.070335 70.249693  L 221.839268 51.811614  L 225.64278 46.82837  L 228.902934 42.920629  L 231.837071 39.74658  L 234.553866 37.130449  L 237.161988 34.93142  L 239.552767 33.195495  L 241.943546 31.732772  L 244.225654 30.592764  L 246.534929 29.69229  L 248.7627 29.060982  L 250.990472 28.657115  L 253.272579 28.471799  L 255.554686 28.508828  L 257.891129 28.766857  L 260.336244 29.263283  L 262.808527 29.987233  L 265.41665 30.977492  L 268.242116 32.293883  L 271.176254 33.907246  L 274.327735 35.8937  L 277.805232 38.357568  L 281.608744 41.336863  L 285.846943 44.950447  L 290.791509 49.474736  L 297.094472 55.572325  L 318.611483 76.679983  L 324.045072 81.556348  L 328.717958 85.484401  L 333.499517 89.217239  L 337.846388 92.342251  L 342.193259 95.203397  L 346.54013 97.799257  L 350.887001 100.133881  L 355.233871 102.215872  L 359.580742 104.057453  L 363.927613 105.673552  L 368.709172 107.210904  L 373.49073 108.519592  L 378.706975 109.715118  L 384.357907 110.772109  L 390.443526 111.675526  L 396.963833 112.42097  L 404.353514 113.045105  L 413.047256 113.553219  L 423.914433 113.949463  L 437.82442 114.21859  L 440.86723 114.249991  L 440.86723 114.249991  " style="fill:none;stroke:#e74c3c;stroke-linecap:square;stroke-width:2;"/>
   </g>
   <g id="line2d_19">
    <path clip-path="url(#pb281de1945)" d="M 69.209761 114.254778  L 129.19658 114.145234  L 142.237193 113.908191  L 150.930935 113.541889  L 157.451242 113.060284  L 163.102174 112.418388  L 167.883732 111.645391  L 171.795916 110.806519  L 175.7081 109.734031  L 179.185597 108.542766  L 182.554422 107.135166  L 185.597231 105.615684  L 188.422697 103.966238  L 191.248164 102.061994  L 194.07363 99.879569  L 196.899096 97.398053  L 199.724562 94.600637  L 202.550028 91.47646  L 205.375494 88.022582  L 208.418304 83.942516  L 211.678457 79.183296  L 215.373298 73.370171  L 219.991848 65.648989  L 230.859025 47.303942  L 234.119179 42.332487  L 236.944645 38.423374  L 239.444096 35.345296  L 241.726203 32.891402  L 243.790967 30.992576  L 245.774227 29.475032  L 247.621647 28.343405  L 249.360395 27.533903  L 251.044808 26.989874  L 252.674884 26.689915  L 254.304961 26.61237  L 255.935037 26.755161  L 257.61945 27.130279  L 259.358198 27.75408  L 261.151283 28.640645  L 263.025871 29.820162  L 264.981963 31.3113  L 267.155398 33.258348  L 269.437505 35.602851  L 272.045628 38.616024  L 274.979766 42.367689  L 278.348591 47.049799  L 282.695462 53.497358  L 297.963846 76.514494  L 301.87603 81.831102  L 305.353527 86.205199  L 308.61368 89.972631  L 311.873833 93.401078  L 314.916643 96.290474  L 317.959453 98.883231  L 321.002262 101.188422  L 324.045072 103.21979  L 327.087882 104.994568  L 330.02202 106.481193  L 333.499517 107.983703  L 336.977013 109.235327  L 340.889197 110.383045  L 344.801381 111.296489  L 349.148252 112.084638  L 353.92981 112.731024  L 359.580742 113.268207  L 366.535736 113.690749  L 375.229478 113.984288  L 387.835404 114.167714  L 411.743194 114.246727  L 440.86723 114.254771  L 440.86723 114.254771  " style="fill:none;stroke:#808000;stroke-linecap:square;stroke-width:2;"/>
   </g>
   <g id="line2d_20">
    <path clip-path="url(#pb281de1945)" d="M 69.209761 114.254825  L 116.590654 114.362841  L 128.761893 114.595827  L 137.020948 114.967154  L 143.106567 115.452576  L 148.322813 116.094705  L 152.669684 116.855206  L 156.581868 117.771893  L 160.059364 118.819694  L 163.102174 119.955097  L 166.144984 121.332044  L 168.753106 122.734473  L 171.361229 124.370311  L 173.969351 126.267949  L 176.577474 128.456866  L 179.185597 130.967094  L 181.685047 133.701918  L 184.075827 136.643339  L 186.466606 139.924055  L 188.857385 143.562799  L 191.465507 147.959069  L 194.07363 152.815164  L 196.681752 158.139134  L 199.507218 164.433928  L 202.332685 171.263061  L 205.375494 179.18056  L 208.852991 188.867673  L 212.982519 201.081342  L 219.231146 220.385558  L 225.64278 239.991728  L 229.337621 250.579798  L 232.38043 258.636247  L 234.988553 264.936476  L 237.379332 270.141195  L 239.552767 274.348451  L 241.508859 277.676617  L 243.35628 280.400919  L 245.095028 282.580305  L 246.752273 284.30238  L 248.273677 285.573985  L 249.740746 286.518002  L 251.153479 287.165117  L 252.511877 287.546079  L 253.870274 287.692587  L 255.228671 287.607646  L 256.587068 287.295146  L 257.999801 286.733825  L 259.46687 285.902435  L 260.988275 284.781156  L 262.618352 283.29799  L 264.329932 281.440966  L 266.177352 279.110624  L 268.242116 276.132091  L 270.415551 272.604614  L 272.915002 268.101019  L 275.631797 262.732324  L 278.783278 255.989997  L 282.478118 247.542007  L 287.47702 235.510278  L 301.224 202.112425  L 305.788214 191.791869  L 309.700398 183.478189  L 313.395238 176.138597  L 316.872735 169.714805  L 320.132888 164.130184  L 323.393042 158.969869  L 326.653195 154.226966  L 329.587333 150.30486  L 332.630142 146.570378  L 335.672952 143.158635  L 338.715762 140.051611  L 341.758571 137.2303  L 345.236068 134.330878  L 348.713565 131.750365  L 352.191062 129.460576  L 355.668559 127.434509  L 359.146055 125.646647  L 363.058239 123.890404  L 366.970423 122.374179  L 371.317294 120.936395  L 375.664165 119.724596  L 380.445723 118.615406  L 385.661968 117.63129  L 391.312901 116.785202  L 397.833207 116.037586  L 405.222888 115.419812  L 413.91663 114.92258  L 424.783807 114.538642  L 439.128481 114.274789  L 440.86723 114.259605  L 440.86723 114.259605  " style="fill:none;stroke:#008080;stroke-linecap:square;stroke-width:2;"/>
   </g>
   <g id="patch_3">
    <path d="M 69.572 300.76  L 69.572 13.32  " style="fill:none;stroke:#000000;stroke-linecap:square;stroke-linejoin:miter;stroke-width:0.8;"/>
   </g>
   <g id="patch_4">
    <path d="M 440.505 300.76  L 440.505 13.32  " style="fill:none;stroke:#000000;stroke-linecap:square;stroke-linejoin:miter;stroke-width:0.8;"/>
   </g>
   <g id="patch_5">
    <path d="M 69.572 300.76  L 440.505 300.76  " style="fill:none;stroke:#000000;stroke-linecap:square;stroke-linejoin:miter;stroke-width:0.8;"/>
   </g>
   <g id="patch_6">
    <path d="M 69.572 13.32  L 440.505 13.32  " style="fill:none;stroke:#000000;stroke-linecap:square;stroke-linejoin:miter;stroke-width:0.8;"/>
   </g>
   <g id="legend_1">
    <g id="patch_7">
     <path d="M 76.572 295.76  L 142.795437 295.76  Q 144.795437 295.76 144.795437 293.76  L 144.795437 206.69125  Q 144.795437 204.69125 142.795437 204.69125  L 76.572 204.69125  Q 74.572 204.69125 74.572 206.69125  L 74.572 293.76  Q 74.572 295.76 76.572 295.76  z " style="fill:#ffffff;opacity:0.8;stroke:#cccccc;stroke-linejoin:miter;"/>
    </g>
    <g id="line2d_21"/>
    <g id="line2d_22">
     <g>
      <use style="fill:#e74c3c;stroke:#e74c3c;stroke-linejoin:miter;" x="88.572" xlink:href="#m8e2dd8f719" y="212.789687"/>
     </g>
    </g>
    <g id="text_17">
     <!-- exp-Al -->
     <defs>
      <path d="M 18.109375 8.203125  L 18.109375 -20.796875  L 9.078125 -20.796875  L 9.078125 54.6875  L 18.109375 54.6875  L 18.109375 46.390625  Q 20.953125 51.265625 25.265625 53.625  Q 29.59375 56 35.59375 56  Q 45.5625 56 51.78125 48.09375  Q 58.015625 40.1875 58.015625 27.296875  Q 58.015625 14.40625 51.78125 6.484375  Q 45.5625 -1.421875 35.59375 -1.421875  Q 29.59375 -1.421875 25.265625 0.953125  Q 20.953125 3.328125 18.109375 8.203125  z M 48.6875 27.296875  Q 48.6875 37.203125 44.609375 42.84375  Q 40.53125 48.484375 33.40625 48.484375  Q 26.265625 48.484375 22.1875 42.84375  Q 18.109375 37.203125 18.109375 27.296875  Q 18.109375 17.390625 22.1875 11.75  Q 26.265625 6.109375 33.40625 6.109375  Q 40.53125 6.109375 44.609375 11.75  Q 48.6875 17.390625 48.6875 27.296875  z " id="DejaVuSans-70"/>
      <path d="M 34.1875 63.1875  L 20.796875 26.90625  L 47.609375 26.90625  z M 28.609375 72.90625  L 39.796875 72.90625  L 67.578125 0  L 57.328125 0  L 50.6875 18.703125  L 17.828125 18.703125  L 11.1875 0  L 0.78125 0  z " id="DejaVuSans-41"/>
     </defs>
     <g transform="translate(106.572 216.289687)scale(0.1 -0.1)">
      <use xlink:href="#DejaVuSans-65"/>
      <use x="61.507812" xlink:href="#DejaVuSans-78"/>
      <use x="120.6875" xlink:href="#DejaVuSans-70"/>
      <use x="184.164062" xlink:href="#DejaVuSans-2d"/>
      <use x="220.216797" xlink:href="#DejaVuSans-41"/>
      <use x="288.625" xlink:href="#DejaVuSans-6c"/>
     </g>
    </g>
    <g id="line2d_23"/>
    <g id="line2d_24">
     <g>
      <use style="fill:#808000;stroke:#808000;stroke-linejoin:bevel;" x="88.572" xlink:href="#mffa26ebbc6" y="227.467812"/>
     </g>
    </g>
    <g id="text_18">
     <!-- exp-Ta -->
     <defs>
      <path d="M -0.296875 72.90625  L 61.375 72.90625  L 61.375 64.59375  L 35.5 64.59375  L 35.5 0  L 25.59375 0  L 25.59375 64.59375  L -0.296875 64.59375  z " id="DejaVuSans-54"/>
     </defs>
     <g transform="translate(106.572 230.967812)scale(0.1 -0.1)">
      <use xlink:href="#DejaVuSans-65"/>
      <use x="61.507812" xlink:href="#DejaVuSans-78"/>
      <use x="120.6875" xlink:href="#DejaVuSans-70"/>
      <use x="184.164062" xlink:href="#DejaVuSans-2d"/>
      <use x="220.107422" xlink:href="#DejaVuSans-54"/>
      <use x="280.941406" xlink:href="#DejaVuSans-61"/>
     </g>
    </g>
    <g id="line2d_25"/>
    <g id="line2d_26">
     <g>
      <use style="fill:#008080;stroke:#008080;" x="88.572" xlink:href="#me5e184dd16" y="242.145938"/>
     </g>
    </g>
    <g id="text_19">
     <!-- exp-Ni -->
     <defs>
      <path d="M 9.8125 72.90625  L 23.09375 72.90625  L 55.421875 11.921875  L 55.421875 72.90625  L 64.984375 72.90625  L 64.984375 0  L 51.703125 0  L 19.390625 60.984375  L 19.390625 0  L 9.8125 0  z " id="DejaVuSans-4e"/>
     </defs>
     <g transform="translate(106.572 245.645938)scale(0.1 -0.1)">
      <use xlink:href="#DejaVuSans-65"/>
      <use x="61.507812" xlink:href="#DejaVuSans-78"/>
      <use x="120.6875" xlink:href="#DejaVuSans-70"/>
      <use x="184.164062" xlink:href="#DejaVuSans-2d"/>
      <use x="220.248047" xlink:href="#DejaVuSans-4e"/>
      <use x="295.052734" xlink:href="#DejaVuSans-69"/>
     </g>
    </g>
    <g id="line2d_27">
     <path d="M 78.572 256.824062  L 98.572 256.824062  " style="fill:none;stroke:#e74c3c;stroke-linecap:square;stroke-width:2;"/>
    </g>
    <g id="line2d_28"/>
    <g id="text_20">
     <!-- sim-Al -->
     <g transform="translate(106.572 260.324062)scale(0.1 -0.1)">
      <use xlink:href="#DejaVuSans-73"/>
      <use x="52.099609" xlink:href="#DejaVuSans-69"/>
      <use x="79.882812" xlink:href="#DejaVuSans-6d"/>
      <use x="177.294922" xlink:href="#DejaVuSans-2d"/>
      <use x="213.347656" xlink:href="#DejaVuSans-41"/>
      <use x="281.755859" xlink:href="#DejaVuSans-6c"/>
     </g>
    </g>
    <g id="line2d_29">
     <path d="M 78.572 271.502187  L 98.572 271.502187  " style="fill:none;stroke:#808000;stroke-linecap:square;stroke-width:2;"/>
    </g>
    <g id="line2d_30"/>
    <g id="text_21">
     <!-- sim-Ta -->
     <g transform="translate(106.572 275.002187)scale(0.1 -0.1)">
      <use xlink:href="#DejaVuSans-73"/>
      <use x="52.099609" xlink:href="#DejaVuSans-69"/>
      <use x="79.882812" xlink:href="#DejaVuSans-6d"/>
      <use x="177.294922" xlink:href="#DejaVuSans-2d"/>
      <use x="213.238281" xlink:href="#DejaVuSans-54"/>
      <use x="274.072266" xlink:href="#DejaVuSans-61"/>
     </g>
    </g>
    <g id="line2d_31">
     <path d="M 78.572 286.180313  L 98.572 286.180313  " style="fill:none;stroke:#008080;stroke-linecap:square;stroke-width:2;"/>
    </g>
    <g id="line2d_32"/>
    <g id="text_22">
     <!-- sim-Ni -->
     <g transform="translate(106.572 289.680313)scale(0.1 -0.1)">
      <use xlink:href="#DejaVuSans-73"/>
      <use x="52.099609" xlink:href="#DejaVuSans-69"/>
      <use x="79.882812" xlink:href="#DejaVuSans-6d"/>
      <use x="177.294922" xlink:href="#DejaVuSans-2d"/>
      <use x="213.378906" xlink:href="#DejaVuSans-4e"/>
      <use x="288.183594" xlink:href="#DejaVuSans-69"/>
     </g>
    </g>
   </g>
  </g>
 </g>
 <defs>
  <clipPath id="pb281de1945">
   <rect height="287.44" width="370.933" x="69.572" y="13.32"/>
  </clipPath>
 </defs>
</g>
    <g transform="translate(10, 300) scale(1) ">
      <g transform="translate(0, 0) scale(3.0) "><defs id="defs831"/>
  <sodipodi:namedview xmlns:sodipodi="http://sodipodi.sourceforge.net/DTD/sodipodi-0.dtd" xmlns:inkscape="http://www.inkscape.org/namespaces/inkscape" id="base" pagecolor="#ffffff" bordercolor="#666666" borderopacity="1.0" inkscape:pageopacity="0.0" inkscape:pageshadow="2" inkscape:zoom="1.979899" inkscape:cx="-12.763683" inkscape:cy="-16.680883" inkscape:document-units="mm" inkscape:current-layer="layer1" showgrid="false" inkscape:window-width="1920" inkscape:window-height="1001" inkscape:window-x="-9" inkscape:window-y="-9" inkscape:window-maximized="1" units="pt"/>
  <metadata xmlns:rdf="http://www.w3.org/1999/02/22-rdf-syntax-ns#" xmlns:cc="http://creativecommons.org/ns#" xmlns:dc="http://purl.org/dc/elements/1.1/" id="metadata834">
    <rdf:RDF>
      <cc:Work rdf:about="">
        <dc:format>image/svg+xml</dc:format>
        <dc:type rdf:resource="http://purl.org/dc/dcmitype/StillImage"/>
        <dc:title/>
      </cc:Work>
    </rdf:RDF>
  </metadata>
  <g xmlns:inkscape="http://www.inkscape.org/namespaces/inkscape" xmlns:sodipodi="http://sodipodi.sourceforge.net/DTD/sodipodi-0.dtd" inkscape:label="Layer 1" inkscape:groupmode="layer" id="layer1" transform="translate(0,-288.81557)">
    <g id="g4761" transform="matrix(0.07377843,0,0,0.07377843,-0.76923022,275.45946)">
      <path inkscape:connector-curvature="0" id="path1959-6-7-1-6-5-4-0-3-2-6-0-3-9-6" style="font-style:normal;font-variant:normal;font-weight:bold;font-stretch:normal;font-size:120.99466705px;line-height:1.25;font-family:Aharoni;-inkscape-font-specification:'Aharoni, Bold';font-variant-ligatures:normal;font-variant-caps:normal;font-variant-numeric:normal;font-feature-settings:normal;text-align:start;letter-spacing:0px;word-spacing:0px;writing-mode:lr-tb;text-anchor:start;fill:#000000;fill-opacity:1;stroke:none;stroke-width:2.37649584" d="M 52.937412,287.55677 H 40.587702 V 265.43005 H 22.776041 v 22.12672 h -12.34982 v -53.17432 h 12.34982 v 20.5296 h 17.811661 v -20.5296 h 12.34971 z"/>
      <path inkscape:connector-curvature="0" id="path1961-2-9-7-9-3-1-6-5-1-5-8-7-8-2" style="font-style:normal;font-variant:normal;font-weight:bold;font-stretch:normal;font-size:120.99466705px;line-height:1.25;font-family:Aharoni;-inkscape-font-specification:'Aharoni, Bold';font-variant-ligatures:normal;font-variant-caps:normal;font-variant-numeric:normal;font-feature-settings:normal;text-align:start;letter-spacing:0px;word-spacing:0px;writing-mode:lr-tb;text-anchor:start;fill:#000000;fill-opacity:1;stroke:none;stroke-width:2.37649584" d="m 69.681125,237.49895 q 0,3.0385 -1.87856,5.1421 -1.84375,2.0647 -4.55721,2.0647 -2.67866,0 -4.55722,-2.1036 -1.84375,-2.1036 -1.84375,-5.1032 0,-2.9996 1.84375,-5.0642 1.87856,-2.1036 4.55722,-2.1036 2.67865,0 4.55721,2.1036 1.87856,2.0646 1.87856,5.0642 z m -0.73057,50.05782 h -11.41048 v -36.15072 h 11.41048 z"/>
      <path inkscape:connector-curvature="0" id="path1963-3-1-2-8-3-6-3-3-3-4-7-6-0-8" style="font-style:normal;font-variant:normal;font-weight:bold;font-stretch:normal;font-size:120.99466705px;line-height:1.25;font-family:Aharoni;-inkscape-font-specification:'Aharoni, Bold';font-variant-ligatures:normal;font-variant-caps:normal;font-variant-numeric:normal;font-feature-settings:normal;text-align:start;letter-spacing:0px;word-spacing:0px;writing-mode:lr-tb;text-anchor:start;fill:#000000;fill-opacity:1;stroke:none;stroke-width:2.37649584" d="m 93.369625,261.92405 h -6.50536 v 25.63272 h -11.4104 v -25.63272 h -3.75712 v -10.518 h 3.75712 v -10.8686 h 11.4104 v 10.8686 h 6.50536 z"/>
      <path id="path1967-3-3-6-2-9-6-2-5-3-0-9-8-2-1" style="font-style:normal;font-variant:normal;font-weight:bold;font-stretch:normal;font-size:120.99466705px;line-height:1.25;font-family:Aharoni;-inkscape-font-specification:'Aharoni, Bold';font-variant-ligatures:normal;font-variant-caps:normal;font-variant-numeric:normal;font-feature-settings:normal;text-align:start;letter-spacing:0px;word-spacing:0px;writing-mode:lr-tb;text-anchor:start;fill:#000000;fill-opacity:1;stroke:none;stroke-width:2.37649584" d="m 160.61447,287.55677 h -12.34971 v -53.17432 h 12.34971 z" inkscape:connector-curvature="0"/>
      <path inkscape:connector-curvature="0" id="path1969-8-0-8-5-3-5-6-6-3-9-8-6-2-0" style="font-style:normal;font-variant:normal;font-weight:bold;font-stretch:normal;font-size:120.99466705px;line-height:1.25;font-family:Aharoni;-inkscape-font-specification:'Aharoni, Bold';font-variant-ligatures:normal;font-variant-caps:normal;font-variant-numeric:normal;font-feature-settings:normal;text-align:start;letter-spacing:0px;word-spacing:0px;writing-mode:lr-tb;text-anchor:start;fill:#000000;fill-opacity:1;stroke:none;stroke-width:2.37649584" d="m 201.6896,284.86883 q -6.05314,2.68794 -11.20172,2.68794 -8.97528,0 -16.07201,-6.42764 -9.04489,-8.21959 -9.04489,-21.42558 0,-13.2448 9.04489,-21.4644 7.09673,-6.4277 16.17636,-6.4277 4.93989,0 11.09737,2.6879 v 16.5561 q -1.73941,-2.3763 -3.54836,-3.5839 -3.30489,-2.2204 -7.09679,-2.2204 -4.8007,0 -8.34907,3.2333 -4.48766,4.0903 -4.48766,11.2191 0,7.0899 4.48766,11.1803 3.54837,3.23328 8.34907,3.23328 3.7919,0 7.09679,-2.22049 1.77415,-1.16869 3.54836,-3.58389 z"/>
      <path inkscape:transform-center-y="-13.656107" inkscape:transform-center-x="-3.9758045" sodipodi:nodetypes="csssssc" inkscape:connector-curvature="0" id="rect815-3-0-9-3-5-6-0-4-03-7-3-7-5-3-2-76-3-8-8-5-3-7-8-0-1-3-7-9-2-8-1" d="m 104.61223,181.4353 c 0,0 17.68257,27.27493 22.63096,34.41579 7.92879,11.44185 16.42741,30.36094 17.92806,45.50275 1.21005,12.20999 -1.38345,26.51285 -17.32077,30.11208 -11.70405,2.64313 -26.75007,-5.41371 -30.334975,-20.50903 -3.30533,-13.91816 -2.13088,-34.61412 0.0984,-48.67354 1.22049,-7.69719 5.657305,-36.06774 6.998335,-40.84805 z" style="font-style:normal;font-weight:normal;font-size:242.08590698px;line-height:1.25;font-family:sans-serif;letter-spacing:0px;word-spacing:0px;opacity:1;fill:#00456b;fill-opacity:1;stroke:none;stroke-width:0.6720385;stroke-miterlimit:4;stroke-dasharray:none;stroke-dashoffset:0;stroke-opacity:1;paint-order:markers fill stroke"/>
      <path sodipodi:nodetypes="ccscscsccscccscc" d="m 107.52748,246.32531 6.45576,30.78617 6.82019,-1.47997 c 5.75791,-1.24946 9.70999,-3.40081 11.85576,-6.45394 2.16431,-3.05721 2.68673,-7.25521 1.56721,-12.59398 -1.11209,-5.30332 -3.26743,-8.89247 -6.46601,-10.76744 -3.18372,-1.89669 -7.65528,-2.22015 -13.4127,-0.97081 z m -8.759905,-5.09591 12.713095,-2.78742 c 8.8634,-1.94336 15.73718,-1.59097 20.62135,1.05715 4.88003,2.62843 8.10326,7.71587 9.6697,15.26232 1.57464,7.58584 0.64804,13.61405 -2.77981,18.08462 -3.42783,4.4705 -9.55303,7.67294 -18.37559,9.60735 l -12.71311,2.78742 z" style="font-style:normal;font-weight:normal;font-size:242.08590698px;line-height:1.25;font-family:sans-serif;letter-spacing:0px;word-spacing:0px;fill:#ffffff;fill-opacity:1;stroke:none;stroke-width:1.60286868" id="path1193-3-5-3-2-7-4-5-6-0-0-6-9-2-4-7-0-0" inkscape:connector-curvature="0"/>
    </g>
  </g>
</g>
    </g>
  </g>
</svg>
