<?xml version='1.0' encoding='ASCII' standalone='yes'?>
<svg xmlns:xlink="http://www.w3.org/1999/xlink" xmlns="http://www.w3.org/2000/svg" version="1.1" width="460.8px" viewBox="0 0 460.8px 345.6px" height="345.6px">
  <g>
    <g><defs>
  <style type="text/css">
*{stroke-linecap:butt;stroke-linejoin:round;}
  </style>
 </defs>
 <g id="figure_1">
  <g id="patch_1">
   <path d="M 0 345.6  L 460.8 345.6  L 460.8 0  L 0 0  z " style="fill:#ffffff;"/>
  </g>
  <g id="axes_1">
   <g id="patch_2">
    <path d="M 60.41 303.64  L 406.69 303.64  L 406.69 14.76  L 60.41 14.76  z " style="fill:#ffffff;"/>
   </g>
   <g id="matplotlib.axis_1">
    <g id="xtick_1">
     <g id="line2d_1">
      <defs>
       <path d="M 0 0  L 0 3.5  " id="m4cf361de84" style="stroke:#000000;stroke-width:0.8;"/>
      </defs>
      <g>
       <use style="stroke:#000000;stroke-width:0.8;" x="60.41" xlink:href="#m4cf361de84" y="303.64"/>
      </g>
     </g>
     <g id="text_1">
      <!-- 0 -->
      <defs>
       <path d="M 31.78125 66.40625  Q 24.171875 66.40625 20.328125 58.90625  Q 16.5 51.421875 16.5 36.375  Q 16.5 21.390625 20.328125 13.890625  Q 24.171875 6.390625 31.78125 6.390625  Q 39.453125 6.390625 43.28125 13.890625  Q 47.125 21.390625 47.125 36.375  Q 47.125 51.421875 43.28125 58.90625  Q 39.453125 66.40625 31.78125 66.40625  z M 31.78125 74.21875  Q 44.046875 74.21875 50.515625 64.515625  Q 56.984375 54.828125 56.984375 36.375  Q 56.984375 17.96875 50.515625 8.265625  Q 44.046875 -1.421875 31.78125 -1.421875  Q 19.53125 -1.421875 13.0625 8.265625  Q 6.59375 17.96875 6.59375 36.375  Q 6.59375 54.828125 13.0625 64.515625  Q 19.53125 74.21875 31.78125 74.21875  z " id="DejaVuSans-30"/>
      </defs>
      <g transform="translate(57.22875 318.238437)scale(0.1 -0.1)">
       <use xlink:href="#DejaVuSans-30"/>
      </g>
     </g>
    </g>
    <g id="xtick_2">
     <g id="line2d_2">
      <g>
       <use style="stroke:#000000;stroke-width:0.8;" x="118.123333" xlink:href="#m4cf361de84" y="303.64"/>
      </g>
     </g>
     <g id="text_2">
      <!-- 200 -->
      <defs>
       <path d="M 19.1875 8.296875  L 53.609375 8.296875  L 53.609375 0  L 7.328125 0  L 7.328125 8.296875  Q 12.9375 14.109375 22.625 23.890625  Q 32.328125 33.6875 34.8125 36.53125  Q 39.546875 41.84375 41.421875 45.53125  Q 43.3125 49.21875 43.3125 52.78125  Q 43.3125 58.59375 39.234375 62.25  Q 35.15625 65.921875 28.609375 65.921875  Q 23.96875 65.921875 18.8125 64.3125  Q 13.671875 62.703125 7.8125 59.421875  L 7.8125 69.390625  Q 13.765625 71.78125 18.9375 73  Q 24.125 74.21875 28.421875 74.21875  Q 39.75 74.21875 46.484375 68.546875  Q 53.21875 62.890625 53.21875 53.421875  Q 53.21875 48.921875 51.53125 44.890625  Q 49.859375 40.875 45.40625 35.40625  Q 44.1875 33.984375 37.640625 27.21875  Q 31.109375 20.453125 19.1875 8.296875  z " id="DejaVuSans-32"/>
      </defs>
      <g transform="translate(108.579583 318.238437)scale(0.1 -0.1)">
       <use xlink:href="#DejaVuSans-32"/>
       <use x="63.623047" xlink:href="#DejaVuSans-30"/>
       <use x="127.246094" xlink:href="#DejaVuSans-30"/>
      </g>
     </g>
    </g>
    <g id="xtick_3">
     <g id="line2d_3">
      <g>
       <use style="stroke:#000000;stroke-width:0.8;" x="175.836667" xlink:href="#m4cf361de84" y="303.64"/>
      </g>
     </g>
     <g id="text_3">
      <!-- 400 -->
      <defs>
       <path d="M 37.796875 64.3125  L 12.890625 25.390625  L 37.796875 25.390625  z M 35.203125 72.90625  L 47.609375 72.90625  L 47.609375 25.390625  L 58.015625 25.390625  L 58.015625 17.1875  L 47.609375 17.1875  L 47.609375 0  L 37.796875 0  L 37.796875 17.1875  L 4.890625 17.1875  L 4.890625 26.703125  z " id="DejaVuSans-34"/>
      </defs>
      <g transform="translate(166.292917 318.238437)scale(0.1 -0.1)">
       <use xlink:href="#DejaVuSans-34"/>
       <use x="63.623047" xlink:href="#DejaVuSans-30"/>
       <use x="127.246094" xlink:href="#DejaVuSans-30"/>
      </g>
     </g>
    </g>
    <g id="xtick_4">
     <g id="line2d_4">
      <g>
       <use style="stroke:#000000;stroke-width:0.8;" x="233.55" xlink:href="#m4cf361de84" y="303.64"/>
      </g>
     </g>
     <g id="text_4">
      <!-- 600 -->
      <defs>
       <path d="M 33.015625 40.375  Q 26.375 40.375 22.484375 35.828125  Q 18.609375 31.296875 18.609375 23.390625  Q 18.609375 15.53125 22.484375 10.953125  Q 26.375 6.390625 33.015625 6.390625  Q 39.65625 6.390625 43.53125 10.953125  Q 47.40625 15.53125 47.40625 23.390625  Q 47.40625 31.296875 43.53125 35.828125  Q 39.65625 40.375 33.015625 40.375  z M 52.59375 71.296875  L 52.59375 62.3125  Q 48.875 64.0625 45.09375 64.984375  Q 41.3125 65.921875 37.59375 65.921875  Q 27.828125 65.921875 22.671875 59.328125  Q 17.53125 52.734375 16.796875 39.40625  Q 19.671875 43.65625 24.015625 45.921875  Q 28.375 48.1875 33.59375 48.1875  Q 44.578125 48.1875 50.953125 41.515625  Q 57.328125 34.859375 57.328125 23.390625  Q 57.328125 12.15625 50.6875 5.359375  Q 44.046875 -1.421875 33.015625 -1.421875  Q 20.359375 -1.421875 13.671875 8.265625  Q 6.984375 17.96875 6.984375 36.375  Q 6.984375 53.65625 15.1875 63.9375  Q 23.390625 74.21875 37.203125 74.21875  Q 40.921875 74.21875 44.703125 73.484375  Q 48.484375 72.75 52.59375 71.296875  z " id="DejaVuSans-36"/>
      </defs>
      <g transform="translate(224.00625 318.238437)scale(0.1 -0.1)">
       <use xlink:href="#DejaVuSans-36"/>
       <use x="63.623047" xlink:href="#DejaVuSans-30"/>
       <use x="127.246094" xlink:href="#DejaVuSans-30"/>
      </g>
     </g>
    </g>
    <g id="xtick_5">
     <g id="line2d_5">
      <g>
       <use style="stroke:#000000;stroke-width:0.8;" x="291.263333" xlink:href="#m4cf361de84" y="303.64"/>
      </g>
     </g>
     <g id="text_5">
      <!-- 800 -->
      <defs>
       <path d="M 31.78125 34.625  Q 24.75 34.625 20.71875 30.859375  Q 16.703125 27.09375 16.703125 20.515625  Q 16.703125 13.921875 20.71875 10.15625  Q 24.75 6.390625 31.78125 6.390625  Q 38.8125 6.390625 42.859375 10.171875  Q 46.921875 13.96875 46.921875 20.515625  Q 46.921875 27.09375 42.890625 30.859375  Q 38.875 34.625 31.78125 34.625  z M 21.921875 38.8125  Q 15.578125 40.375 12.03125 44.71875  Q 8.5 49.078125 8.5 55.328125  Q 8.5 64.0625 14.71875 69.140625  Q 20.953125 74.21875 31.78125 74.21875  Q 42.671875 74.21875 48.875 69.140625  Q 55.078125 64.0625 55.078125 55.328125  Q 55.078125 49.078125 51.53125 44.71875  Q 48 40.375 41.703125 38.8125  Q 48.828125 37.15625 52.796875 32.3125  Q 56.78125 27.484375 56.78125 20.515625  Q 56.78125 9.90625 50.3125 4.234375  Q 43.84375 -1.421875 31.78125 -1.421875  Q 19.734375 -1.421875 13.25 4.234375  Q 6.78125 9.90625 6.78125 20.515625  Q 6.78125 27.484375 10.78125 32.3125  Q 14.796875 37.15625 21.921875 38.8125  z M 18.3125 54.390625  Q 18.3125 48.734375 21.84375 45.5625  Q 25.390625 42.390625 31.78125 42.390625  Q 38.140625 42.390625 41.71875 45.5625  Q 45.3125 48.734375 45.3125 54.390625  Q 45.3125 60.0625 41.71875 63.234375  Q 38.140625 66.40625 31.78125 66.40625  Q 25.390625 66.40625 21.84375 63.234375  Q 18.3125 60.0625 18.3125 54.390625  z " id="DejaVuSans-38"/>
      </defs>
      <g transform="translate(281.719583 318.238437)scale(0.1 -0.1)">
       <use xlink:href="#DejaVuSans-38"/>
       <use x="63.623047" xlink:href="#DejaVuSans-30"/>
       <use x="127.246094" xlink:href="#DejaVuSans-30"/>
      </g>
     </g>
    </g>
    <g id="xtick_6">
     <g id="line2d_6">
      <g>
       <use style="stroke:#000000;stroke-width:0.8;" x="348.976667" xlink:href="#m4cf361de84" y="303.64"/>
      </g>
     </g>
     <g id="text_6">
      <!-- 1000 -->
      <defs>
       <path d="M 12.40625 8.296875  L 28.515625 8.296875  L 28.515625 63.921875  L 10.984375 60.40625  L 10.984375 69.390625  L 28.421875 72.90625  L 38.28125 72.90625  L 38.28125 8.296875  L 54.390625 8.296875  L 54.390625 0  L 12.40625 0  z " id="DejaVuSans-31"/>
      </defs>
      <g transform="translate(336.251667 318.238437)scale(0.1 -0.1)">
       <use xlink:href="#DejaVuSans-31"/>
       <use x="63.623047" xlink:href="#DejaVuSans-30"/>
       <use x="127.246094" xlink:href="#DejaVuSans-30"/>
       <use x="190.869141" xlink:href="#DejaVuSans-30"/>
      </g>
     </g>
    </g>
    <g id="xtick_7">
     <g id="line2d_7">
      <g>
       <use style="stroke:#000000;stroke-width:0.8;" x="406.69" xlink:href="#m4cf361de84" y="303.64"/>
      </g>
     </g>
     <g id="text_7">
      <!-- 1200 -->
      <g transform="translate(393.965 318.238437)scale(0.1 -0.1)">
       <use xlink:href="#DejaVuSans-31"/>
       <use x="63.623047" xlink:href="#DejaVuSans-32"/>
       <use x="127.246094" xlink:href="#DejaVuSans-30"/>
       <use x="190.869141" xlink:href="#DejaVuSans-30"/>
      </g>
     </g>
    </g>
    <g id="text_8">
     <!-- Distance (&#181;m) -->
     <defs>
      <path d="M 19.671875 64.796875  L 19.671875 8.109375  L 31.59375 8.109375  Q 46.6875 8.109375 53.6875 14.9375  Q 60.6875 21.78125 60.6875 36.53125  Q 60.6875 51.171875 53.6875 57.984375  Q 46.6875 64.796875 31.59375 64.796875  z M 9.8125 72.90625  L 30.078125 72.90625  Q 51.265625 72.90625 61.171875 64.09375  Q 71.09375 55.28125 71.09375 36.53125  Q 71.09375 17.671875 61.125 8.828125  Q 51.171875 0 30.078125 0  L 9.8125 0  z " id="DejaVuSans-44"/>
      <path d="M 9.421875 54.6875  L 18.40625 54.6875  L 18.40625 0  L 9.421875 0  z M 9.421875 75.984375  L 18.40625 75.984375  L 18.40625 64.59375  L 9.421875 64.59375  z " id="DejaVuSans-69"/>
      <path d="M 44.28125 53.078125  L 44.28125 44.578125  Q 40.484375 46.53125 36.375 47.5  Q 32.28125 48.484375 27.875 48.484375  Q 21.1875 48.484375 17.84375 46.4375  Q 14.5 44.390625 14.5 40.28125  Q 14.5 37.15625 16.890625 35.375  Q 19.28125 33.59375 26.515625 31.984375  L 29.59375 31.296875  Q 39.15625 29.25 43.1875 25.515625  Q 47.21875 21.78125 47.21875 15.09375  Q 47.21875 7.46875 41.1875 3.015625  Q 35.15625 -1.421875 24.609375 -1.421875  Q 20.21875 -1.421875 15.453125 -0.5625  Q 10.6875 0.296875 5.421875 2  L 5.421875 11.28125  Q 10.40625 8.6875 15.234375 7.390625  Q 20.0625 6.109375 24.8125 6.109375  Q 31.15625 6.109375 34.5625 8.28125  Q 37.984375 10.453125 37.984375 14.40625  Q 37.984375 18.0625 35.515625 20.015625  Q 33.0625 21.96875 24.703125 23.78125  L 21.578125 24.515625  Q 13.234375 26.265625 9.515625 29.90625  Q 5.8125 33.546875 5.8125 39.890625  Q 5.8125 47.609375 11.28125 51.796875  Q 16.75 56 26.8125 56  Q 31.78125 56 36.171875 55.265625  Q 40.578125 54.546875 44.28125 53.078125  z " id="DejaVuSans-73"/>
      <path d="M 18.3125 70.21875  L 18.3125 54.6875  L 36.8125 54.6875  L 36.8125 47.703125  L 18.3125 47.703125  L 18.3125 18.015625  Q 18.3125 11.328125 20.140625 9.421875  Q 21.96875 7.515625 27.59375 7.515625  L 36.8125 7.515625  L 36.8125 0  L 27.59375 0  Q 17.1875 0 13.234375 3.875  Q 9.28125 7.765625 9.28125 18.015625  L 9.28125 47.703125  L 2.6875 47.703125  L 2.6875 54.6875  L 9.28125 54.6875  L 9.28125 70.21875  z " id="DejaVuSans-74"/>
      <path d="M 34.28125 27.484375  Q 23.390625 27.484375 19.1875 25  Q 14.984375 22.515625 14.984375 16.5  Q 14.984375 11.71875 18.140625 8.90625  Q 21.296875 6.109375 26.703125 6.109375  Q 34.1875 6.109375 38.703125 11.40625  Q 43.21875 16.703125 43.21875 25.484375  L 43.21875 27.484375  z M 52.203125 31.203125  L 52.203125 0  L 43.21875 0  L 43.21875 8.296875  Q 40.140625 3.328125 35.546875 0.953125  Q 30.953125 -1.421875 24.3125 -1.421875  Q 15.921875 -1.421875 10.953125 3.296875  Q 6 8.015625 6 15.921875  Q 6 25.140625 12.171875 29.828125  Q 18.359375 34.515625 30.609375 34.515625  L 43.21875 34.515625  L 43.21875 35.40625  Q 43.21875 41.609375 39.140625 45  Q 35.0625 48.390625 27.6875 48.390625  Q 23 48.390625 18.546875 47.265625  Q 14.109375 46.140625 10.015625 43.890625  L 10.015625 52.203125  Q 14.9375 54.109375 19.578125 55.046875  Q 24.21875 56 28.609375 56  Q 40.484375 56 46.34375 49.84375  Q 52.203125 43.703125 52.203125 31.203125  z " id="DejaVuSans-61"/>
      <path d="M 54.890625 33.015625  L 54.890625 0  L 45.90625 0  L 45.90625 32.71875  Q 45.90625 40.484375 42.875 44.328125  Q 39.84375 48.1875 33.796875 48.1875  Q 26.515625 48.1875 22.3125 43.546875  Q 18.109375 38.921875 18.109375 30.90625  L 18.109375 0  L 9.078125 0  L 9.078125 54.6875  L 18.109375 54.6875  L 18.109375 46.1875  Q 21.34375 51.125 25.703125 53.5625  Q 30.078125 56 35.796875 56  Q 45.21875 56 50.046875 50.171875  Q 54.890625 44.34375 54.890625 33.015625  z " id="DejaVuSans-6e"/>
      <path d="M 48.78125 52.59375  L 48.78125 44.1875  Q 44.96875 46.296875 41.140625 47.34375  Q 37.3125 48.390625 33.40625 48.390625  Q 24.65625 48.390625 19.8125 42.84375  Q 14.984375 37.3125 14.984375 27.296875  Q 14.984375 17.28125 19.8125 11.734375  Q 24.65625 6.203125 33.40625 6.203125  Q 37.3125 6.203125 41.140625 7.25  Q 44.96875 8.296875 48.78125 10.40625  L 48.78125 2.09375  Q 45.015625 0.34375 40.984375 -0.53125  Q 36.96875 -1.421875 32.421875 -1.421875  Q 20.0625 -1.421875 12.78125 6.34375  Q 5.515625 14.109375 5.515625 27.296875  Q 5.515625 40.671875 12.859375 48.328125  Q 20.21875 56 33.015625 56  Q 37.15625 56 41.109375 55.140625  Q 45.0625 54.296875 48.78125 52.59375  z " id="DejaVuSans-63"/>
      <path d="M 56.203125 29.59375  L 56.203125 25.203125  L 14.890625 25.203125  Q 15.484375 15.921875 20.484375 11.0625  Q 25.484375 6.203125 34.421875 6.203125  Q 39.59375 6.203125 44.453125 7.46875  Q 49.3125 8.734375 54.109375 11.28125  L 54.109375 2.78125  Q 49.265625 0.734375 44.1875 -0.34375  Q 39.109375 -1.421875 33.890625 -1.421875  Q 20.796875 -1.421875 13.15625 6.1875  Q 5.515625 13.8125 5.515625 26.8125  Q 5.515625 40.234375 12.765625 48.109375  Q 20.015625 56 32.328125 56  Q 43.359375 56 49.78125 48.890625  Q 56.203125 41.796875 56.203125 29.59375  z M 47.21875 32.234375  Q 47.125 39.59375 43.09375 43.984375  Q 39.0625 48.390625 32.421875 48.390625  Q 24.90625 48.390625 20.390625 44.140625  Q 15.875 39.890625 15.1875 32.171875  z " id="DejaVuSans-65"/>
      <path id="DejaVuSans-20"/>
      <path d="M 31 75.875  Q 24.46875 64.65625 21.28125 53.65625  Q 18.109375 42.671875 18.109375 31.390625  Q 18.109375 20.125 21.3125 9.0625  Q 24.515625 -2 31 -13.1875  L 23.1875 -13.1875  Q 15.875 -1.703125 12.234375 9.375  Q 8.59375 20.453125 8.59375 31.390625  Q 8.59375 42.28125 12.203125 53.3125  Q 15.828125 64.359375 23.1875 75.875  z " id="DejaVuSans-28"/>
      <path d="M 8.5 -20.796875  L 8.5 54.6875  L 17.484375 54.6875  L 17.484375 20.703125  Q 17.484375 13.625 20.84375 10  Q 24.21875 6.390625 30.8125 6.390625  Q 38.03125 6.390625 41.671875 10.484375  Q 45.3125 14.59375 45.3125 22.796875  L 45.3125 54.6875  L 54.296875 54.6875  L 54.296875 12.59375  Q 54.296875 9.671875 55.140625 8.28125  Q 56 6.890625 57.8125 6.890625  Q 58.25 6.890625 59.03125 7.15625  Q 59.8125 7.421875 61.1875 8.015625  L 61.1875 0.78125  Q 59.1875 -0.34375 57.390625 -0.875  Q 55.609375 -1.421875 53.90625 -1.421875  Q 50.53125 -1.421875 48.53125 0.484375  Q 46.53125 2.390625 45.796875 6.296875  Q 43.359375 2.4375 39.8125 0.5  Q 36.28125 -1.421875 31.5 -1.421875  Q 26.515625 -1.421875 23.015625 0.484375  Q 19.53125 2.390625 17.484375 6.203125  L 17.484375 -20.796875  z " id="DejaVuSans-b5"/>
      <path d="M 52 44.1875  Q 55.375 50.25 60.0625 53.125  Q 64.75 56 71.09375 56  Q 79.640625 56 84.28125 50.015625  Q 88.921875 44.046875 88.921875 33.015625  L 88.921875 0  L 79.890625 0  L 79.890625 32.71875  Q 79.890625 40.578125 77.09375 44.375  Q 74.3125 48.1875 68.609375 48.1875  Q 61.625 48.1875 57.5625 43.546875  Q 53.515625 38.921875 53.515625 30.90625  L 53.515625 0  L 44.484375 0  L 44.484375 32.71875  Q 44.484375 40.625 41.703125 44.40625  Q 38.921875 48.1875 33.109375 48.1875  Q 26.21875 48.1875 22.15625 43.53125  Q 18.109375 38.875 18.109375 30.90625  L 18.109375 0  L 9.078125 0  L 9.078125 54.6875  L 18.109375 54.6875  L 18.109375 46.1875  Q 21.1875 51.21875 25.484375 53.609375  Q 29.78125 56 35.6875 56  Q 41.65625 56 45.828125 52.96875  Q 50 49.953125 52 44.1875  z " id="DejaVuSans-6d"/>
      <path d="M 8.015625 75.875  L 15.828125 75.875  Q 23.140625 64.359375 26.78125 53.3125  Q 30.421875 42.28125 30.421875 31.390625  Q 30.421875 20.453125 26.78125 9.375  Q 23.140625 -1.703125 15.828125 -13.1875  L 8.015625 -13.1875  Q 14.5 -2 17.703125 9.0625  Q 20.90625 20.125 20.90625 31.390625  Q 20.90625 42.671875 17.703125 53.65625  Q 14.5 64.65625 8.015625 75.875  z " id="DejaVuSans-29"/>
     </defs>
     <g transform="translate(198.145313 331.916562)scale(0.1 -0.1)">
      <use xlink:href="#DejaVuSans-44"/>
      <use x="77.001953" xlink:href="#DejaVuSans-69"/>
      <use x="104.785156" xlink:href="#DejaVuSans-73"/>
      <use x="156.884766" xlink:href="#DejaVuSans-74"/>
      <use x="196.09375" xlink:href="#DejaVuSans-61"/>
      <use x="257.373047" xlink:href="#DejaVuSans-6e"/>
      <use x="320.751953" xlink:href="#DejaVuSans-63"/>
      <use x="375.732422" xlink:href="#DejaVuSans-65"/>
      <use x="437.255859" xlink:href="#DejaVuSans-20"/>
      <use x="469.042969" xlink:href="#DejaVuSans-28"/>
      <use x="508.056641" xlink:href="#DejaVuSans-b5"/>
      <use x="571.679688" xlink:href="#DejaVuSans-6d"/>
      <use x="669.091797" xlink:href="#DejaVuSans-29"/>
     </g>
    </g>
   </g>
   <g id="matplotlib.axis_2">
    <g id="ytick_1">
     <g id="line2d_8">
      <defs>
       <path d="M 0 0  L -3.5 0  " id="mb1b5a61401" style="stroke:#000000;stroke-width:0.8;"/>
      </defs>
      <g>
       <use style="stroke:#000000;stroke-width:0.8;" x="60.41" xlink:href="#mb1b5a61401" y="303.640054"/>
      </g>
     </g>
     <g id="text_9">
      <!-- 0.000 -->
      <defs>
       <path d="M 10.6875 12.40625  L 21 12.40625  L 21 0  L 10.6875 0  z " id="DejaVuSans-2e"/>
      </defs>
      <g transform="translate(24.781875 307.439273)scale(0.1 -0.1)">
       <use xlink:href="#DejaVuSans-30"/>
       <use x="63.623047" xlink:href="#DejaVuSans-2e"/>
       <use x="95.410156" xlink:href="#DejaVuSans-30"/>
       <use x="159.033203" xlink:href="#DejaVuSans-30"/>
       <use x="222.65625" xlink:href="#DejaVuSans-30"/>
      </g>
     </g>
    </g>
    <g id="ytick_2">
     <g id="line2d_9">
      <g>
       <use style="stroke:#000000;stroke-width:0.8;" x="60.41" xlink:href="#mb1b5a61401" y="251.49978"/>
      </g>
     </g>
     <g id="text_10">
      <!-- 0.005 -->
      <defs>
       <path d="M 10.796875 72.90625  L 49.515625 72.90625  L 49.515625 64.59375  L 19.828125 64.59375  L 19.828125 46.734375  Q 21.96875 47.46875 24.109375 47.828125  Q 26.265625 48.1875 28.421875 48.1875  Q 40.625 48.1875 47.75 41.5  Q 54.890625 34.8125 54.890625 23.390625  Q 54.890625 11.625 47.5625 5.09375  Q 40.234375 -1.421875 26.90625 -1.421875  Q 22.3125 -1.421875 17.546875 -0.640625  Q 12.796875 0.140625 7.71875 1.703125  L 7.71875 11.625  Q 12.109375 9.234375 16.796875 8.0625  Q 21.484375 6.890625 26.703125 6.890625  Q 35.15625 6.890625 40.078125 11.328125  Q 45.015625 15.765625 45.015625 23.390625  Q 45.015625 31 40.078125 35.4375  Q 35.15625 39.890625 26.703125 39.890625  Q 22.75 39.890625 18.8125 39.015625  Q 14.890625 38.140625 10.796875 36.28125  z " id="DejaVuSans-35"/>
      </defs>
      <g transform="translate(24.781875 255.298999)scale(0.1 -0.1)">
       <use xlink:href="#DejaVuSans-30"/>
       <use x="63.623047" xlink:href="#DejaVuSans-2e"/>
       <use x="95.410156" xlink:href="#DejaVuSans-30"/>
       <use x="159.033203" xlink:href="#DejaVuSans-30"/>
       <use x="222.65625" xlink:href="#DejaVuSans-35"/>
      </g>
     </g>
    </g>
    <g id="ytick_3">
     <g id="line2d_10">
      <g>
       <use style="stroke:#000000;stroke-width:0.8;" x="60.41" xlink:href="#mb1b5a61401" y="199.359506"/>
      </g>
     </g>
     <g id="text_11">
      <!-- 0.010 -->
      <g transform="translate(24.781875 203.158725)scale(0.1 -0.1)">
       <use xlink:href="#DejaVuSans-30"/>
       <use x="63.623047" xlink:href="#DejaVuSans-2e"/>
       <use x="95.410156" xlink:href="#DejaVuSans-30"/>
       <use x="159.033203" xlink:href="#DejaVuSans-31"/>
       <use x="222.65625" xlink:href="#DejaVuSans-30"/>
      </g>
     </g>
    </g>
    <g id="ytick_4">
     <g id="line2d_11">
      <g>
       <use style="stroke:#000000;stroke-width:0.8;" x="60.41" xlink:href="#mb1b5a61401" y="147.219232"/>
      </g>
     </g>
     <g id="text_12">
      <!-- 0.015 -->
      <g transform="translate(24.781875 151.018451)scale(0.1 -0.1)">
       <use xlink:href="#DejaVuSans-30"/>
       <use x="63.623047" xlink:href="#DejaVuSans-2e"/>
       <use x="95.410156" xlink:href="#DejaVuSans-30"/>
       <use x="159.033203" xlink:href="#DejaVuSans-31"/>
       <use x="222.65625" xlink:href="#DejaVuSans-35"/>
      </g>
     </g>
    </g>
    <g id="ytick_5">
     <g id="line2d_12">
      <g>
       <use style="stroke:#000000;stroke-width:0.8;" x="60.41" xlink:href="#mb1b5a61401" y="95.078958"/>
      </g>
     </g>
     <g id="text_13">
      <!-- 0.020 -->
      <g transform="translate(24.781875 98.878176)scale(0.1 -0.1)">
       <use xlink:href="#DejaVuSans-30"/>
       <use x="63.623047" xlink:href="#DejaVuSans-2e"/>
       <use x="95.410156" xlink:href="#DejaVuSans-30"/>
       <use x="159.033203" xlink:href="#DejaVuSans-32"/>
       <use x="222.65625" xlink:href="#DejaVuSans-30"/>
      </g>
     </g>
    </g>
    <g id="ytick_6">
     <g id="line2d_13">
      <g>
       <use style="stroke:#000000;stroke-width:0.8;" x="60.41" xlink:href="#mb1b5a61401" y="42.938683"/>
      </g>
     </g>
     <g id="text_14">
      <!-- 0.025 -->
      <g transform="translate(24.781875 46.737902)scale(0.1 -0.1)">
       <use xlink:href="#DejaVuSans-30"/>
       <use x="63.623047" xlink:href="#DejaVuSans-2e"/>
       <use x="95.410156" xlink:href="#DejaVuSans-30"/>
       <use x="159.033203" xlink:href="#DejaVuSans-32"/>
       <use x="222.65625" xlink:href="#DejaVuSans-35"/>
      </g>
     </g>
    </g>
    <g id="text_15">
     <!-- Mole Fraction (Al,Ta) -->
     <defs>
      <path d="M 9.8125 72.90625  L 24.515625 72.90625  L 43.109375 23.296875  L 61.8125 72.90625  L 76.515625 72.90625  L 76.515625 0  L 66.890625 0  L 66.890625 64.015625  L 48.09375 14.015625  L 38.1875 14.015625  L 19.390625 64.015625  L 19.390625 0  L 9.8125 0  z " id="DejaVuSans-4d"/>
      <path d="M 30.609375 48.390625  Q 23.390625 48.390625 19.1875 42.75  Q 14.984375 37.109375 14.984375 27.296875  Q 14.984375 17.484375 19.15625 11.84375  Q 23.34375 6.203125 30.609375 6.203125  Q 37.796875 6.203125 41.984375 11.859375  Q 46.1875 17.53125 46.1875 27.296875  Q 46.1875 37.015625 41.984375 42.703125  Q 37.796875 48.390625 30.609375 48.390625  z M 30.609375 56  Q 42.328125 56 49.015625 48.375  Q 55.71875 40.765625 55.71875 27.296875  Q 55.71875 13.875 49.015625 6.21875  Q 42.328125 -1.421875 30.609375 -1.421875  Q 18.84375 -1.421875 12.171875 6.21875  Q 5.515625 13.875 5.515625 27.296875  Q 5.515625 40.765625 12.171875 48.375  Q 18.84375 56 30.609375 56  z " id="DejaVuSans-6f"/>
      <path d="M 9.421875 75.984375  L 18.40625 75.984375  L 18.40625 0  L 9.421875 0  z " id="DejaVuSans-6c"/>
      <path d="M 9.8125 72.90625  L 51.703125 72.90625  L 51.703125 64.59375  L 19.671875 64.59375  L 19.671875 43.109375  L 48.578125 43.109375  L 48.578125 34.8125  L 19.671875 34.8125  L 19.671875 0  L 9.8125 0  z " id="DejaVuSans-46"/>
      <path d="M 41.109375 46.296875  Q 39.59375 47.171875 37.8125 47.578125  Q 36.03125 48 33.890625 48  Q 26.265625 48 22.1875 43.046875  Q 18.109375 38.09375 18.109375 28.8125  L 18.109375 0  L 9.078125 0  L 9.078125 54.6875  L 18.109375 54.6875  L 18.109375 46.1875  Q 20.953125 51.171875 25.484375 53.578125  Q 30.03125 56 36.53125 56  Q 37.453125 56 38.578125 55.875  Q 39.703125 55.765625 41.0625 55.515625  z " id="DejaVuSans-72"/>
      <path d="M 34.1875 63.1875  L 20.796875 26.90625  L 47.609375 26.90625  z M 28.609375 72.90625  L 39.796875 72.90625  L 67.578125 0  L 57.328125 0  L 50.6875 18.703125  L 17.828125 18.703125  L 11.1875 0  L 0.78125 0  z " id="DejaVuSans-41"/>
      <path d="M 11.71875 12.40625  L 22.015625 12.40625  L 22.015625 4  L 14.015625 -11.625  L 7.71875 -11.625  L 11.71875 4  z " id="DejaVuSans-2c"/>
      <path d="M -0.296875 72.90625  L 61.375 72.90625  L 61.375 64.59375  L 35.5 64.59375  L 35.5 0  L 25.59375 0  L 25.59375 64.59375  L -0.296875 64.59375  z " id="DejaVuSans-54"/>
     </defs>
     <g transform="translate(18.702188 210.939062)rotate(-90)scale(0.1 -0.1)">
      <use xlink:href="#DejaVuSans-4d"/>
      <use x="86.279297" xlink:href="#DejaVuSans-6f"/>
      <use x="147.460938" xlink:href="#DejaVuSans-6c"/>
      <use x="175.244141" xlink:href="#DejaVuSans-65"/>
      <use x="236.767578" xlink:href="#DejaVuSans-20"/>
      <use x="268.554688" xlink:href="#DejaVuSans-46"/>
      <use x="325.964844" xlink:href="#DejaVuSans-72"/>
      <use x="367.078125" xlink:href="#DejaVuSans-61"/>
      <use x="428.357422" xlink:href="#DejaVuSans-63"/>
      <use x="483.337891" xlink:href="#DejaVuSans-74"/>
      <use x="522.546875" xlink:href="#DejaVuSans-69"/>
      <use x="550.330078" xlink:href="#DejaVuSans-6f"/>
      <use x="611.511719" xlink:href="#DejaVuSans-6e"/>
      <use x="674.890625" xlink:href="#DejaVuSans-20"/>
      <use x="706.677734" xlink:href="#DejaVuSans-28"/>
      <use x="745.691406" xlink:href="#DejaVuSans-41"/>
      <use x="814.099609" xlink:href="#DejaVuSans-6c"/>
      <use x="841.882812" xlink:href="#DejaVuSans-2c"/>
      <use x="873.669922" xlink:href="#DejaVuSans-54"/>
      <use x="934.503906" xlink:href="#DejaVuSans-61"/>
      <use x="995.783203" xlink:href="#DejaVuSans-29"/>
     </g>
    </g>
   </g>
   <g id="line2d_14">
    <defs>
     <path d="M -0 3  L 3 -3  L -3 -3  z " id="m7d53e0df8e" style="stroke:#e74c3c;stroke-linejoin:miter;"/>
    </defs>
    <g clip-path="url(#p99571b1cc2)">
     <use style="fill:#e74c3c;stroke:#e74c3c;stroke-linejoin:miter;" x="60.41" xlink:href="#m7d53e0df8e" y="298.341418"/>
     <use style="fill:#e74c3c;stroke:#e74c3c;stroke-linejoin:miter;" x="67.370402" xlink:href="#m7d53e0df8e" y="298.283704"/>
     <use style="fill:#e74c3c;stroke:#e74c3c;stroke-linejoin:miter;" x="74.330804" xlink:href="#m7d53e0df8e" y="298.191214"/>
     <use style="fill:#e74c3c;stroke:#e74c3c;stroke-linejoin:miter;" x="81.291206" xlink:href="#m7d53e0df8e" y="298.046017"/>
     <use style="fill:#e74c3c;stroke:#e74c3c;stroke-linejoin:miter;" x="88.251608" xlink:href="#m7d53e0df8e" y="297.822728"/>
     <use style="fill:#e74c3c;stroke:#e74c3c;stroke-linejoin:miter;" x="95.21201" xlink:href="#m7d53e0df8e" y="297.486353"/>
     <use style="fill:#e74c3c;stroke:#e74c3c;stroke-linejoin:miter;" x="102.172412" xlink:href="#m7d53e0df8e" y="296.989958"/>
     <use style="fill:#e74c3c;stroke:#e74c3c;stroke-linejoin:miter;" x="109.132814" xlink:href="#m7d53e0df8e" y="296.272365"/>
     <use style="fill:#e74c3c;stroke:#e74c3c;stroke-linejoin:miter;" x="116.093216" xlink:href="#m7d53e0df8e" y="295.256174"/>
     <use style="fill:#e74c3c;stroke:#e74c3c;stroke-linejoin:miter;" x="123.053618" xlink:href="#m7d53e0df8e" y="293.846496"/>
     <use style="fill:#e74c3c;stroke:#e74c3c;stroke-linejoin:miter;" x="130.01402" xlink:href="#m7d53e0df8e" y="291.930867"/>
     <use style="fill:#e74c3c;stroke:#e74c3c;stroke-linejoin:miter;" x="136.974422" xlink:href="#m7d53e0df8e" y="289.38081"/>
     <use style="fill:#e74c3c;stroke:#e74c3c;stroke-linejoin:miter;" x="143.934824" xlink:href="#m7d53e0df8e" y="286.055474"/>
     <use style="fill:#e74c3c;stroke:#e74c3c;stroke-linejoin:miter;" x="150.895226" xlink:href="#m7d53e0df8e" y="281.807636"/>
     <use style="fill:#e74c3c;stroke:#e74c3c;stroke-linejoin:miter;" x="157.855628" xlink:href="#m7d53e0df8e" y="276.492093"/>
     <use style="fill:#e74c3c;stroke:#e74c3c;stroke-linejoin:miter;" x="164.81603" xlink:href="#m7d53e0df8e" y="269.976196"/>
     <use style="fill:#e74c3c;stroke:#e74c3c;stroke-linejoin:miter;" x="171.776432" xlink:href="#m7d53e0df8e" y="262.151853"/>
     <use style="fill:#e74c3c;stroke:#e74c3c;stroke-linejoin:miter;" x="178.736834" xlink:href="#m7d53e0df8e" y="252.948021"/>
     <use style="fill:#e74c3c;stroke:#e74c3c;stroke-linejoin:miter;" x="185.697236" xlink:href="#m7d53e0df8e" y="242.342391"/>
     <use style="fill:#e74c3c;stroke:#e74c3c;stroke-linejoin:miter;" x="192.657638" xlink:href="#m7d53e0df8e" y="230.370815"/>
     <use style="fill:#e74c3c;stroke:#e74c3c;stroke-linejoin:miter;" x="199.61804" xlink:href="#m7d53e0df8e" y="217.133092"/>
     <use style="fill:#e74c3c;stroke:#e74c3c;stroke-linejoin:miter;" x="206.578442" xlink:href="#m7d53e0df8e" y="202.793978"/>
     <use style="fill:#e74c3c;stroke:#e74c3c;stroke-linejoin:miter;" x="213.538844" xlink:href="#m7d53e0df8e" y="187.578752"/>
     <use style="fill:#e74c3c;stroke:#e74c3c;stroke-linejoin:miter;" x="220.499246" xlink:href="#m7d53e0df8e" y="171.763301"/>
     <use style="fill:#e74c3c;stroke:#e74c3c;stroke-linejoin:miter;" x="227.459648" xlink:href="#m7d53e0df8e" y="155.659373"/>
     <use style="fill:#e74c3c;stroke:#e74c3c;stroke-linejoin:miter;" x="234.42005" xlink:href="#m7d53e0df8e" y="139.59628"/>
     <use style="fill:#e74c3c;stroke:#e74c3c;stroke-linejoin:miter;" x="241.380452" xlink:href="#m7d53e0df8e" y="123.900837"/>
     <use style="fill:#e74c3c;stroke:#e74c3c;stroke-linejoin:miter;" x="248.340854" xlink:href="#m7d53e0df8e" y="108.877546"/>
     <use style="fill:#e74c3c;stroke:#e74c3c;stroke-linejoin:miter;" x="255.301256" xlink:href="#m7d53e0df8e" y="94.791028"/>
     <use style="fill:#e74c3c;stroke:#e74c3c;stroke-linejoin:miter;" x="262.261658" xlink:href="#m7d53e0df8e" y="81.852368"/>
     <use style="fill:#e74c3c;stroke:#e74c3c;stroke-linejoin:miter;" x="269.22206" xlink:href="#m7d53e0df8e" y="70.210518"/>
     <use style="fill:#e74c3c;stroke:#e74c3c;stroke-linejoin:miter;" x="276.182462" xlink:href="#m7d53e0df8e" y="59.949232"/>
     <use style="fill:#e74c3c;stroke:#e74c3c;stroke-linejoin:miter;" x="283.142864" xlink:href="#m7d53e0df8e" y="51.089335"/>
     <use style="fill:#e74c3c;stroke:#e74c3c;stroke-linejoin:miter;" x="290.103266" xlink:href="#m7d53e0df8e" y="43.595526"/>
     <use style="fill:#e74c3c;stroke:#e74c3c;stroke-linejoin:miter;" x="297.063668" xlink:href="#m7d53e0df8e" y="37.386499"/>
     <use style="fill:#e74c3c;stroke:#e74c3c;stroke-linejoin:miter;" x="304.02407" xlink:href="#m7d53e0df8e" y="32.346952"/>
     <use style="fill:#e74c3c;stroke:#e74c3c;stroke-linejoin:miter;" x="310.984472" xlink:href="#m7d53e0df8e" y="28.340069"/>
     <use style="fill:#e74c3c;stroke:#e74c3c;stroke-linejoin:miter;" x="317.944874" xlink:href="#m7d53e0df8e" y="25.219249"/>
     <use style="fill:#e74c3c;stroke:#e74c3c;stroke-linejoin:miter;" x="324.905276" xlink:href="#m7d53e0df8e" y="22.838147"/>
     <use style="fill:#e74c3c;stroke:#e74c3c;stroke-linejoin:miter;" x="331.865678" xlink:href="#m7d53e0df8e" y="21.0585"/>
     <use style="fill:#e74c3c;stroke:#e74c3c;stroke-linejoin:miter;" x="338.82608" xlink:href="#m7d53e0df8e" y="19.755521"/>
     <use style="fill:#e74c3c;stroke:#e74c3c;stroke-linejoin:miter;" x="345.786482" xlink:href="#m7d53e0df8e" y="18.821004"/>
     <use style="fill:#e74c3c;stroke:#e74c3c;stroke-linejoin:miter;" x="352.746884" xlink:href="#m7d53e0df8e" y="18.164429"/>
     <use style="fill:#e74c3c;stroke:#e74c3c;stroke-linejoin:miter;" x="359.707286" xlink:href="#m7d53e0df8e" y="17.712543"/>
     <use style="fill:#e74c3c;stroke:#e74c3c;stroke-linejoin:miter;" x="366.667688" xlink:href="#m7d53e0df8e" y="17.40788"/>
     <use style="fill:#e74c3c;stroke:#e74c3c;stroke-linejoin:miter;" x="373.62809" xlink:href="#m7d53e0df8e" y="17.206666"/>
     <use style="fill:#e74c3c;stroke:#e74c3c;stroke-linejoin:miter;" x="380.588492" xlink:href="#m7d53e0df8e" y="17.076487"/>
     <use style="fill:#e74c3c;stroke:#e74c3c;stroke-linejoin:miter;" x="387.548894" xlink:href="#m7d53e0df8e" y="16.993983"/>
     <use style="fill:#e74c3c;stroke:#e74c3c;stroke-linejoin:miter;" x="394.509296" xlink:href="#m7d53e0df8e" y="16.942761"/>
     <use style="fill:#e74c3c;stroke:#e74c3c;stroke-linejoin:miter;" x="401.469698" xlink:href="#m7d53e0df8e" y="16.91161"/>
    </g>
   </g>
   <g id="line2d_15">
    <defs>
     <path d="M 0 3  C 0.795609 3 1.55874 2.683901 2.12132 2.12132  C 2.683901 1.55874 3 0.795609 3 0  C 3 -0.795609 2.683901 -1.55874 2.12132 -2.12132  C 1.55874 -2.683901 0.795609 -3 0 -3  C -0.795609 -3 -1.55874 -2.683901 -2.12132 -2.12132  C -2.683901 -1.55874 -3 -0.795609 -3 0  C -3 0.795609 -2.683901 1.55874 -2.12132 2.12132  C -1.55874 2.683901 -0.795609 3 0 3  z " id="m63bd86072e" style="stroke:#008080;"/>
    </defs>
    <g clip-path="url(#p99571b1cc2)">
     <use style="fill:#008080;stroke:#008080;" x="60.41" xlink:href="#m63bd86072e" y="14.785048"/>
     <use style="fill:#008080;stroke:#008080;" x="67.370402" xlink:href="#m63bd86072e" y="14.787843"/>
     <use style="fill:#008080;stroke:#008080;" x="74.330804" xlink:href="#m63bd86072e" y="14.793953"/>
     <use style="fill:#008080;stroke:#008080;" x="81.291206" xlink:href="#m63bd86072e" y="14.806841"/>
     <use style="fill:#008080;stroke:#008080;" x="88.251608" xlink:href="#m63bd86072e" y="14.833073"/>
     <use style="fill:#008080;stroke:#008080;" x="95.21201" xlink:href="#m63bd86072e" y="14.88459"/>
     <use style="fill:#008080;stroke:#008080;" x="102.172412" xlink:href="#m63bd86072e" y="14.982217"/>
     <use style="fill:#008080;stroke:#008080;" x="109.132814" xlink:href="#m63bd86072e" y="15.160735"/>
     <use style="fill:#008080;stroke:#008080;" x="116.093216" xlink:href="#m63bd86072e" y="15.47572"/>
     <use style="fill:#008080;stroke:#008080;" x="123.053618" xlink:href="#m63bd86072e" y="16.011998"/>
     <use style="fill:#008080;stroke:#008080;" x="130.01402" xlink:href="#m63bd86072e" y="16.893015"/>
     <use style="fill:#008080;stroke:#008080;" x="136.974422" xlink:href="#m63bd86072e" y="18.289618"/>
     <use style="fill:#008080;stroke:#008080;" x="143.934824" xlink:href="#m63bd86072e" y="20.425882"/>
     <use style="fill:#008080;stroke:#008080;" x="150.895226" xlink:href="#m63bd86072e" y="23.578936"/>
     <use style="fill:#008080;stroke:#008080;" x="157.855628" xlink:href="#m63bd86072e" y="28.06951"/>
     <use style="fill:#008080;stroke:#008080;" x="164.81603" xlink:href="#m63bd86072e" y="34.240665"/>
     <use style="fill:#008080;stroke:#008080;" x="171.776432" xlink:href="#m63bd86072e" y="42.423906"/>
     <use style="fill:#008080;stroke:#008080;" x="178.736834" xlink:href="#m63bd86072e" y="52.894672"/>
     <use style="fill:#008080;stroke:#008080;" x="185.697236" xlink:href="#m63bd86072e" y="65.82251"/>
     <use style="fill:#008080;stroke:#008080;" x="192.657638" xlink:href="#m63bd86072e" y="81.224177"/>
     <use style="fill:#008080;stroke:#008080;" x="199.61804" xlink:href="#m63bd86072e" y="98.929502"/>
     <use style="fill:#008080;stroke:#008080;" x="206.578442" xlink:href="#m63bd86072e" y="118.569186"/>
     <use style="fill:#008080;stroke:#008080;" x="213.538844" xlink:href="#m63bd86072e" y="139.590484"/>
     <use style="fill:#008080;stroke:#008080;" x="220.499246" xlink:href="#m63bd86072e" y="161.30144"/>
     <use style="fill:#008080;stroke:#008080;" x="227.459648" xlink:href="#m63bd86072e" y="182.93823"/>
     <use style="fill:#008080;stroke:#008080;" x="234.42005" xlink:href="#m63bd86072e" y="203.744832"/>
     <use style="fill:#008080;stroke:#008080;" x="241.380452" xlink:href="#m63bd86072e" y="223.051348"/>
     <use style="fill:#008080;stroke:#008080;" x="248.340854" xlink:href="#m63bd86072e" y="240.337609"/>
     <use style="fill:#008080;stroke:#008080;" x="255.301256" xlink:href="#m63bd86072e" y="255.272176"/>
     <use style="fill:#008080;stroke:#008080;" x="262.261658" xlink:href="#m63bd86072e" y="267.722441"/>
     <use style="fill:#008080;stroke:#008080;" x="269.22206" xlink:href="#m63bd86072e" y="277.737624"/>
     <use style="fill:#008080;stroke:#008080;" x="276.182462" xlink:href="#m63bd86072e" y="285.511426"/>
     <use style="fill:#008080;stroke:#008080;" x="283.142864" xlink:href="#m63bd86072e" y="291.33383"/>
     <use style="fill:#008080;stroke:#008080;" x="290.103266" xlink:href="#m63bd86072e" y="295.541731"/>
     <use style="fill:#008080;stroke:#008080;" x="297.063668" xlink:href="#m63bd86072e" y="298.476154"/>
     <use style="fill:#008080;stroke:#008080;" x="304.02407" xlink:href="#m63bd86072e" y="300.45073"/>
     <use style="fill:#008080;stroke:#008080;" x="310.984472" xlink:href="#m63bd86072e" y="301.732823"/>
     <use style="fill:#008080;stroke:#008080;" x="317.944874" xlink:href="#m63bd86072e" y="302.536088"/>
     <use style="fill:#008080;stroke:#008080;" x="324.905276" xlink:href="#m63bd86072e" y="303.021703"/>
     <use style="fill:#008080;stroke:#008080;" x="331.865678" xlink:href="#m63bd86072e" y="303.304985"/>
     <use style="fill:#008080;stroke:#008080;" x="338.82608" xlink:href="#m63bd86072e" y="303.464441"/>
     <use style="fill:#008080;stroke:#008080;" x="345.786482" xlink:href="#m63bd86072e" y="303.551048"/>
     <use style="fill:#008080;stroke:#008080;" x="352.746884" xlink:href="#m63bd86072e" y="303.596439"/>
     <use style="fill:#008080;stroke:#008080;" x="359.707286" xlink:href="#m63bd86072e" y="303.619393"/>
     <use style="fill:#008080;stroke:#008080;" x="366.667688" xlink:href="#m63bd86072e" y="303.630594"/>
     <use style="fill:#008080;stroke:#008080;" x="373.62809" xlink:href="#m63bd86072e" y="303.635868"/>
     <use style="fill:#008080;stroke:#008080;" x="380.588492" xlink:href="#m63bd86072e" y="303.638264"/>
     <use style="fill:#008080;stroke:#008080;" x="387.548894" xlink:href="#m63bd86072e" y="303.639315"/>
     <use style="fill:#008080;stroke:#008080;" x="394.509296" xlink:href="#m63bd86072e" y="303.639759"/>
     <use style="fill:#008080;stroke:#008080;" x="401.469698" xlink:href="#m63bd86072e" y="303.639941"/>
    </g>
   </g>
   <g id="line2d_16">
    <path clip-path="url(#p99571b1cc2)" d="M 60.071836 298.422864  L 96.18776 298.29931  L 108.361666 298.044137  L 116.477604 297.662938  L 122.564558 297.173475  L 127.839917 296.533737  L 132.303683 295.776591  L 136.361652 294.864926  L 140.013824 293.818477  L 143.260199 292.672707  L 146.506574 291.289571  L 149.347153 289.8568  L 152.187731 288.190445  L 155.028309 286.265345  L 157.868887 284.056537  L 160.608016 281.635353  L 163.245696 279.014617  L 165.883376 276.093909  L 168.521056 272.859719  L 171.361634 269.014262  L 174.202212 264.784792  L 177.042791 260.168328  L 180.086267 254.796014  L 183.332643 248.592235  L 186.781916 241.491144  L 190.434088 233.443316  L 194.441333 224.056456  L 199.006548 212.767268  L 204.484806 198.58709  L 212.296396 177.677251  L 225.10436 143.401483  L 231.140589 127.929162  L 236.238413 115.458525  L 240.803628 104.863768  L 244.963046 95.750376  L 248.919566 87.605483  L 252.673187 80.381789  L 256.22391 74.019326  L 259.622459 68.368795  L 262.868834 63.376164  L 266.115209 58.777524  L 269.361584 54.566463  L 272.607959 50.732101  L 275.854334 47.259545  L 279.10071 44.130483  L 282.347085 41.323869  L 285.59346 38.816674  L 288.839835 36.584634  L 292.289109 34.486867  L 295.839831 32.591529  L 299.492004 30.889114  L 303.549972 29.252876  L 308.013738 27.717191  L 312.477504 26.412388  L 317.752864 25.112729  L 323.43402 23.947072  L 329.926771 22.844895  L 337.636912 21.77692  L 346.158646 20.823403  L 356.303569 19.919809  L 367.665882 19.135056  L 380.651382 18.465819  L 395.260071 17.939054  L 407.028181 17.652301  L 407.028181 17.652301  " style="fill:none;stroke:#e74c3c;stroke-linecap:square;stroke-width:2;"/>
   </g>
   <g id="line2d_17">
    <path clip-path="url(#p99571b1cc2)" d="M 60.071836 14.778281  L 112.419635 14.867504  L 121.752964 15.128758  L 128.245714 15.515999  L 133.521074 16.03904  L 137.98484 16.691757  L 142.042809 17.50749  L 145.694981 18.470097  L 148.941356 19.546202  L 152.187731 20.867159  L 155.028309 22.254163  L 157.868887 23.885313  L 160.810915 25.861851  L 163.448595 27.907458  L 166.086275 30.234488  L 168.723954 32.863976  L 171.361634 35.815501  L 173.999314 39.106641  L 176.636994 42.752429  L 179.274674 46.764849  L 182.115252 51.50558  L 184.95583 56.686827  L 187.999307 62.726759  L 191.042784 69.264522  L 194.339883 76.890648  L 197.789157 85.441601  L 201.542778 95.35882  L 205.702196 107.004325  L 210.47031 121.050867  L 216.430452 139.350629  L 235.32537 197.905464  L 240.093483 211.656152  L 244.252901 223.000606  L 248.107972 232.880734  L 251.658695 241.383786  L 255.006519 248.841313  L 258.252894 255.533196  L 261.245646 261.222067  L 264.289123 266.532818  L 267.129701 271.061537  L 269.970279 275.185347  L 272.810858 278.916494  L 275.651436 282.270766  L 278.492014 285.266917  L 281.332593 287.926061  L 284.173171 290.271057  L 287.013749 292.325895  L 289.854327 294.115125  L 292.897804 295.76534  L 295.839831 297.125429  L 299.086207 298.389293  L 302.738379 299.553559  L 306.390551 300.48645  L 310.44852 301.298571  L 314.912286 301.972385  L 320.187645 302.540828  L 326.680395 302.996964  L 334.796333 303.322346  L 346.158646 303.528963  L 365.636897 303.6245  L 407.028181 303.639927  L 407.028181 303.639927  " style="fill:none;stroke:#008080;stroke-linecap:square;stroke-width:2;"/>
   </g>
   <g id="patch_3">
    <path d="M 60.41 303.64  L 60.41 14.76  " style="fill:none;stroke:#000000;stroke-linecap:square;stroke-linejoin:miter;stroke-width:0.8;"/>
   </g>
   <g id="patch_4">
    <path d="M 406.69 303.64  L 406.69 14.76  " style="fill:none;stroke:#000000;stroke-linecap:square;stroke-linejoin:miter;stroke-width:0.8;"/>
   </g>
   <g id="patch_5">
    <path d="M 60.41 303.64  L 406.69 303.64  " style="fill:none;stroke:#000000;stroke-linecap:square;stroke-linejoin:miter;stroke-width:0.8;"/>
   </g>
   <g id="patch_6">
    <path d="M 60.41 14.76  L 406.69 14.76  " style="fill:none;stroke:#000000;stroke-linecap:square;stroke-linejoin:miter;stroke-width:0.8;"/>
   </g>
  </g>
  <g id="axes_2">
   <g id="matplotlib.axis_3">
    <g id="ytick_7">
     <g id="line2d_18">
      <defs>
       <path d="M 0 0  L 3.5 0  " id="mdc310ce199" style="stroke:#000000;stroke-width:0.8;"/>
      </defs>
      <g>
       <use style="stroke:#000000;stroke-width:0.8;" x="406.69" xlink:href="#mdc310ce199" y="279.465641"/>
      </g>
     </g>
     <g id="text_16">
      <!-- 0.95 -->
      <defs>
       <path d="M 10.984375 1.515625  L 10.984375 10.5  Q 14.703125 8.734375 18.5 7.8125  Q 22.3125 6.890625 25.984375 6.890625  Q 35.75 6.890625 40.890625 13.453125  Q 46.046875 20.015625 46.78125 33.40625  Q 43.953125 29.203125 39.59375 26.953125  Q 35.25 24.703125 29.984375 24.703125  Q 19.046875 24.703125 12.671875 31.3125  Q 6.296875 37.9375 6.296875 49.421875  Q 6.296875 60.640625 12.9375 67.421875  Q 19.578125 74.21875 30.609375 74.21875  Q 43.265625 74.21875 49.921875 64.515625  Q 56.59375 54.828125 56.59375 36.375  Q 56.59375 19.140625 48.40625 8.859375  Q 40.234375 -1.421875 26.421875 -1.421875  Q 22.703125 -1.421875 18.890625 -0.6875  Q 15.09375 0.046875 10.984375 1.515625  z M 30.609375 32.421875  Q 37.25 32.421875 41.125 36.953125  Q 45.015625 41.5 45.015625 49.421875  Q 45.015625 57.28125 41.125 61.84375  Q 37.25 66.40625 30.609375 66.40625  Q 23.96875 66.40625 20.09375 61.84375  Q 16.21875 57.28125 16.21875 49.421875  Q 16.21875 41.5 20.09375 36.953125  Q 23.96875 32.421875 30.609375 32.421875  z " id="DejaVuSans-39"/>
      </defs>
      <g transform="translate(413.69 283.26486)scale(0.1 -0.1)">
       <use xlink:href="#DejaVuSans-30"/>
       <use x="63.623047" xlink:href="#DejaVuSans-2e"/>
       <use x="95.410156" xlink:href="#DejaVuSans-39"/>
       <use x="159.033203" xlink:href="#DejaVuSans-35"/>
      </g>
     </g>
    </g>
    <g id="ytick_8">
     <g id="line2d_19">
      <g>
       <use style="stroke:#000000;stroke-width:0.8;" x="406.69" xlink:href="#mdc310ce199" y="226.524513"/>
      </g>
     </g>
     <g id="text_17">
      <!-- 0.96 -->
      <g transform="translate(413.69 230.323732)scale(0.1 -0.1)">
       <use xlink:href="#DejaVuSans-30"/>
       <use x="63.623047" xlink:href="#DejaVuSans-2e"/>
       <use x="95.410156" xlink:href="#DejaVuSans-39"/>
       <use x="159.033203" xlink:href="#DejaVuSans-36"/>
      </g>
     </g>
    </g>
    <g id="ytick_9">
     <g id="line2d_20">
      <g>
       <use style="stroke:#000000;stroke-width:0.8;" x="406.69" xlink:href="#mdc310ce199" y="173.583385"/>
      </g>
     </g>
     <g id="text_18">
      <!-- 0.97 -->
      <defs>
       <path d="M 8.203125 72.90625  L 55.078125 72.90625  L 55.078125 68.703125  L 28.609375 0  L 18.3125 0  L 43.21875 64.59375  L 8.203125 64.59375  z " id="DejaVuSans-37"/>
      </defs>
      <g transform="translate(413.69 177.382604)scale(0.1 -0.1)">
       <use xlink:href="#DejaVuSans-30"/>
       <use x="63.623047" xlink:href="#DejaVuSans-2e"/>
       <use x="95.410156" xlink:href="#DejaVuSans-39"/>
       <use x="159.033203" xlink:href="#DejaVuSans-37"/>
      </g>
     </g>
    </g>
    <g id="ytick_10">
     <g id="line2d_21">
      <g>
       <use style="stroke:#000000;stroke-width:0.8;" x="406.69" xlink:href="#mdc310ce199" y="120.642257"/>
      </g>
     </g>
     <g id="text_19">
      <!-- 0.98 -->
      <g transform="translate(413.69 124.441475)scale(0.1 -0.1)">
       <use xlink:href="#DejaVuSans-30"/>
       <use x="63.623047" xlink:href="#DejaVuSans-2e"/>
       <use x="95.410156" xlink:href="#DejaVuSans-39"/>
       <use x="159.033203" xlink:href="#DejaVuSans-38"/>
      </g>
     </g>
    </g>
    <g id="ytick_11">
     <g id="line2d_22">
      <g>
       <use style="stroke:#000000;stroke-width:0.8;" x="406.69" xlink:href="#mdc310ce199" y="67.701128"/>
      </g>
     </g>
     <g id="text_20">
      <!-- 0.99 -->
      <g transform="translate(413.69 71.500347)scale(0.1 -0.1)">
       <use xlink:href="#DejaVuSans-30"/>
       <use x="63.623047" xlink:href="#DejaVuSans-2e"/>
       <use x="95.410156" xlink:href="#DejaVuSans-39"/>
       <use x="159.033203" xlink:href="#DejaVuSans-39"/>
      </g>
     </g>
    </g>
    <g id="ytick_12">
     <g id="line2d_23">
      <g>
       <use style="stroke:#000000;stroke-width:0.8;" x="406.69" xlink:href="#mdc310ce199" y="14.76"/>
      </g>
     </g>
     <g id="text_21">
      <!-- 1.00 -->
      <g transform="translate(413.69 18.559219)scale(0.1 -0.1)">
       <use xlink:href="#DejaVuSans-31"/>
       <use x="63.623047" xlink:href="#DejaVuSans-2e"/>
       <use x="95.410156" xlink:href="#DejaVuSans-30"/>
       <use x="159.033203" xlink:href="#DejaVuSans-30"/>
      </g>
     </g>
    </g>
    <g id="text_22">
     <!-- Mole Fraction (Ni) -->
     <defs>
      <path d="M 9.8125 72.90625  L 23.09375 72.90625  L 55.421875 11.921875  L 55.421875 72.90625  L 64.984375 72.90625  L 64.984375 0  L 51.703125 0  L 19.390625 60.984375  L 19.390625 0  L 9.8125 0  z " id="DejaVuSans-4e"/>
     </defs>
     <g transform="translate(447.554063 203.564844)rotate(-90)scale(0.1 -0.1)">
      <use xlink:href="#DejaVuSans-4d"/>
      <use x="86.279297" xlink:href="#DejaVuSans-6f"/>
      <use x="147.460938" xlink:href="#DejaVuSans-6c"/>
      <use x="175.244141" xlink:href="#DejaVuSans-65"/>
      <use x="236.767578" xlink:href="#DejaVuSans-20"/>
      <use x="268.554688" xlink:href="#DejaVuSans-46"/>
      <use x="325.964844" xlink:href="#DejaVuSans-72"/>
      <use x="367.078125" xlink:href="#DejaVuSans-61"/>
      <use x="428.357422" xlink:href="#DejaVuSans-63"/>
      <use x="483.337891" xlink:href="#DejaVuSans-74"/>
      <use x="522.546875" xlink:href="#DejaVuSans-69"/>
      <use x="550.330078" xlink:href="#DejaVuSans-6f"/>
      <use x="611.511719" xlink:href="#DejaVuSans-6e"/>
      <use x="674.890625" xlink:href="#DejaVuSans-20"/>
      <use x="706.677734" xlink:href="#DejaVuSans-28"/>
      <use x="745.691406" xlink:href="#DejaVuSans-4e"/>
      <use x="820.496094" xlink:href="#DejaVuSans-69"/>
      <use x="848.279297" xlink:href="#DejaVuSans-29"/>
     </g>
    </g>
   </g>
   <g id="line2d_24">
    <defs>
     <path d="M 0 -3  L -0.673542 -0.927051  L -2.85317 -0.927051  L -1.089814 0.354102  L -1.763356 2.427051  L -0 1.145898  L 1.763356 2.427051  L 1.089814 0.354102  L 2.85317 -0.927051  L 0.673542 -0.927051  z " id="md38fbc31bc" style="stroke:#808000;stroke-linejoin:bevel;"/>
    </defs>
    <g clip-path="url(#p99571b1cc2)">
     <use style="fill:#808000;stroke:#808000;stroke-linejoin:bevel;" x="60.41" xlink:href="#md38fbc31bc" y="164.095864"/>
     <use style="fill:#808000;stroke:#808000;stroke-linejoin:bevel;" x="67.370402" xlink:href="#md38fbc31bc" y="164.123745"/>
     <use style="fill:#808000;stroke:#808000;stroke-linejoin:bevel;" x="74.330804" xlink:href="#md38fbc31bc" y="164.167598"/>
     <use style="fill:#808000;stroke:#808000;stroke-linejoin:bevel;" x="81.291206" xlink:href="#md38fbc31bc" y="164.234769"/>
     <use style="fill:#808000;stroke:#808000;stroke-linejoin:bevel;" x="88.251608" xlink:href="#md38fbc31bc" y="164.334811"/>
     <use style="fill:#808000;stroke:#808000;stroke-linejoin:bevel;" x="95.21201" xlink:href="#md38fbc31bc" y="164.479428"/>
     <use style="fill:#808000;stroke:#808000;stroke-linejoin:bevel;" x="102.172412" xlink:href="#md38fbc31bc" y="164.681874"/>
     <use style="fill:#808000;stroke:#808000;stroke-linejoin:bevel;" x="109.132814" xlink:href="#md38fbc31bc" y="164.955551"/>
     <use style="fill:#808000;stroke:#808000;stroke-linejoin:bevel;" x="116.093216" xlink:href="#md38fbc31bc" y="165.31154"/>
     <use style="fill:#808000;stroke:#808000;stroke-linejoin:bevel;" x="123.053618" xlink:href="#md38fbc31bc" y="165.754947"/>
     <use style="fill:#808000;stroke:#808000;stroke-linejoin:bevel;" x="130.01402" xlink:href="#md38fbc31bc" y="166.280198"/>
     <use style="fill:#808000;stroke:#808000;stroke-linejoin:bevel;" x="136.974422" xlink:href="#md38fbc31bc" y="166.865784"/>
     <use style="fill:#808000;stroke:#808000;stroke-linejoin:bevel;" x="143.934824" xlink:href="#md38fbc31bc" y="167.469451"/>
     <use style="fill:#808000;stroke:#808000;stroke-linejoin:bevel;" x="150.895226" xlink:href="#md38fbc31bc" y="168.025251"/>
     <use style="fill:#808000;stroke:#808000;stroke-linejoin:bevel;" x="157.855628" xlink:href="#md38fbc31bc" y="168.444071"/>
     <use style="fill:#808000;stroke:#808000;stroke-linejoin:bevel;" x="164.81603" xlink:href="#md38fbc31bc" y="168.61909"/>
     <use style="fill:#808000;stroke:#808000;stroke-linejoin:bevel;" x="171.776432" xlink:href="#md38fbc31bc" y="168.436885"/>
     <use style="fill:#808000;stroke:#808000;stroke-linejoin:bevel;" x="178.736834" xlink:href="#md38fbc31bc" y="167.793688"/>
     <use style="fill:#808000;stroke:#808000;stroke-linejoin:bevel;" x="185.697236" xlink:href="#md38fbc31bc" y="166.614749"/>
     <use style="fill:#808000;stroke:#808000;stroke-linejoin:bevel;" x="192.657638" xlink:href="#md38fbc31bc" y="164.873362"/>
     <use style="fill:#808000;stroke:#808000;stroke-linejoin:bevel;" x="199.61804" xlink:href="#md38fbc31bc" y="162.605251"/>
     <use style="fill:#808000;stroke:#808000;stroke-linejoin:bevel;" x="206.578442" xlink:href="#md38fbc31bc" y="159.914258"/>
     <use style="fill:#808000;stroke:#808000;stroke-linejoin:bevel;" x="213.538844" xlink:href="#md38fbc31bc" y="156.966633"/>
     <use style="fill:#808000;stroke:#808000;stroke-linejoin:bevel;" x="220.499246" xlink:href="#md38fbc31bc" y="153.973604"/>
     <use style="fill:#808000;stroke:#808000;stroke-linejoin:bevel;" x="227.459648" xlink:href="#md38fbc31bc" y="151.164682"/>
     <use style="fill:#808000;stroke:#808000;stroke-linejoin:bevel;" x="234.42005" xlink:href="#md38fbc31bc" y="148.756498"/>
     <use style="fill:#808000;stroke:#808000;stroke-linejoin:bevel;" x="241.380452" xlink:href="#md38fbc31bc" y="146.923229"/>
     <use style="fill:#808000;stroke:#808000;stroke-linejoin:bevel;" x="248.340854" xlink:href="#md38fbc31bc" y="145.774365"/>
     <use style="fill:#808000;stroke:#808000;stroke-linejoin:bevel;" x="255.301256" xlink:href="#md38fbc31bc" y="145.343827"/>
     <use style="fill:#808000;stroke:#808000;stroke-linejoin:bevel;" x="262.261658" xlink:href="#md38fbc31bc" y="145.591776"/>
     <use style="fill:#808000;stroke:#808000;stroke-linejoin:bevel;" x="269.22206" xlink:href="#md38fbc31bc" y="146.417602"/>
     <use style="fill:#808000;stroke:#808000;stroke-linejoin:bevel;" x="276.182462" xlink:href="#md38fbc31bc" y="147.680447"/>
     <use style="fill:#808000;stroke:#808000;stroke-linejoin:bevel;" x="283.142864" xlink:href="#md38fbc31bc" y="149.222521"/>
     <use style="fill:#808000;stroke:#808000;stroke-linejoin:bevel;" x="290.103266" xlink:href="#md38fbc31bc" y="150.89071"/>
     <use style="fill:#808000;stroke:#808000;stroke-linejoin:bevel;" x="297.063668" xlink:href="#md38fbc31bc" y="152.553161"/>
     <use style="fill:#808000;stroke:#808000;stroke-linejoin:bevel;" x="304.02407" xlink:href="#md38fbc31bc" y="154.109184"/>
     <use style="fill:#808000;stroke:#808000;stroke-linejoin:bevel;" x="310.984472" xlink:href="#md38fbc31bc" y="155.492505"/>
     <use style="fill:#808000;stroke:#808000;stroke-linejoin:bevel;" x="317.944874" xlink:href="#md38fbc31bc" y="156.669081"/>
     <use style="fill:#808000;stroke:#808000;stroke-linejoin:bevel;" x="324.905276" xlink:href="#md38fbc31bc" y="157.631381"/>
     <use style="fill:#808000;stroke:#808000;stroke-linejoin:bevel;" x="331.865678" xlink:href="#md38fbc31bc" y="158.391056"/>
     <use style="fill:#808000;stroke:#808000;stroke-linejoin:bevel;" x="338.82608" xlink:href="#md38fbc31bc" y="158.971599"/>
     <use style="fill:#808000;stroke:#808000;stroke-linejoin:bevel;" x="345.786482" xlink:href="#md38fbc31bc" y="159.402066"/>
     <use style="fill:#808000;stroke:#808000;stroke-linejoin:bevel;" x="352.746884" xlink:href="#md38fbc31bc" y="159.712352"/>
     <use style="fill:#808000;stroke:#808000;stroke-linejoin:bevel;" x="359.707286" xlink:href="#md38fbc31bc" y="159.930112"/>
     <use style="fill:#808000;stroke:#808000;stroke-linejoin:bevel;" x="366.667688" xlink:href="#md38fbc31bc" y="160.079097"/>
     <use style="fill:#808000;stroke:#808000;stroke-linejoin:bevel;" x="373.62809" xlink:href="#md38fbc31bc" y="160.178571"/>
     <use style="fill:#808000;stroke:#808000;stroke-linejoin:bevel;" x="380.588492" xlink:href="#md38fbc31bc" y="160.243444"/>
     <use style="fill:#808000;stroke:#808000;stroke-linejoin:bevel;" x="387.548894" xlink:href="#md38fbc31bc" y="160.284797"/>
     <use style="fill:#808000;stroke:#808000;stroke-linejoin:bevel;" x="394.509296" xlink:href="#md38fbc31bc" y="160.310575"/>
     <use style="fill:#808000;stroke:#808000;stroke-linejoin:bevel;" x="401.469698" xlink:href="#md38fbc31bc" y="160.326298"/>
    </g>
   </g>
   <g id="line2d_25">
    <path clip-path="url(#p99571b1cc2)" d="M 60.071836 164.05795  L 103.897901 164.184293  L 120.535573 164.44403  L 132.70948 164.851067  L 142.854402 165.414435  L 152.187731 166.161542  L 161.825407 167.166145  L 185.767424 169.805275  L 191.44858 170.104051  L 196.470317 170.1431  L 201.136981 169.957849  L 205.702196 169.555927  L 210.368861 168.920495  L 215.339873 168.012386  L 220.843493 166.772963  L 227.74204 164.975937  L 247.803624 159.604439  L 253.992027 158.268574  L 259.622459 157.274496  L 265.303615 156.500283  L 270.984772 155.95329  L 276.868827 155.609088  L 283.361577 155.457898  L 290.665921 155.518481  L 299.492004 155.823712  L 312.477504 156.523245  L 344.535459 158.321728  L 361.578928 159.00945  L 379.839789 159.52071  L 400.941227 159.881948  L 407.028181 159.950271  L 407.028181 159.950271  " style="fill:none;stroke:#808000;stroke-linecap:square;stroke-width:2;"/>
   </g>
   <g id="patch_7">
    <path d="M 60.41 303.64  L 60.41 14.76  " style="fill:none;stroke:#000000;stroke-linecap:square;stroke-linejoin:miter;stroke-width:0.8;"/>
   </g>
   <g id="patch_8">
    <path d="M 406.69 303.64  L 406.69 14.76  " style="fill:none;stroke:#000000;stroke-linecap:square;stroke-linejoin:miter;stroke-width:0.8;"/>
   </g>
   <g id="patch_9">
    <path d="M 60.41 303.64  L 406.69 303.64  " style="fill:none;stroke:#000000;stroke-linecap:square;stroke-linejoin:miter;stroke-width:0.8;"/>
   </g>
   <g id="patch_10">
    <path d="M 60.41 14.76  L 406.69 14.76  " style="fill:none;stroke:#000000;stroke-linecap:square;stroke-linejoin:miter;stroke-width:0.8;"/>
   </g>
  </g>
 </g>
 <defs>
  <clipPath id="p99571b1cc2">
   <rect height="288.88" width="346.28" x="60.41" y="14.76"/>
  </clipPath>
 </defs>
</g>
    <g transform="translate(10, 300) scale(1) ">
      <g transform="translate(0, 0) scale(3.0) "><defs id="defs831"/>
  <sodipodi:namedview xmlns:sodipodi="http://sodipodi.sourceforge.net/DTD/sodipodi-0.dtd" xmlns:inkscape="http://www.inkscape.org/namespaces/inkscape" id="base" pagecolor="#ffffff" bordercolor="#666666" borderopacity="1.0" inkscape:pageopacity="0.0" inkscape:pageshadow="2" inkscape:zoom="1.979899" inkscape:cx="-12.763683" inkscape:cy="-16.680883" inkscape:document-units="mm" inkscape:current-layer="layer1" showgrid="false" inkscape:window-width="1920" inkscape:window-height="1001" inkscape:window-x="-9" inkscape:window-y="-9" inkscape:window-maximized="1" units="pt"/>
  <metadata xmlns:rdf="http://www.w3.org/1999/02/22-rdf-syntax-ns#" xmlns:cc="http://creativecommons.org/ns#" xmlns:dc="http://purl.org/dc/elements/1.1/" id="metadata834">
    <rdf:RDF>
      <cc:Work rdf:about="">
        <dc:format>image/svg+xml</dc:format>
        <dc:type rdf:resource="http://purl.org/dc/dcmitype/StillImage"/>
        <dc:title/>
      </cc:Work>
    </rdf:RDF>
  </metadata>
  <g xmlns:inkscape="http://www.inkscape.org/namespaces/inkscape" xmlns:sodipodi="http://sodipodi.sourceforge.net/DTD/sodipodi-0.dtd" inkscape:label="Layer 1" inkscape:groupmode="layer" id="layer1" transform="translate(0,-288.81557)">
    <g id="g4761" transform="matrix(0.07377843,0,0,0.07377843,-0.76923022,275.45946)">
      <path inkscape:connector-curvature="0" id="path1959-6-7-1-6-5-4-0-3-2-6-0-3-9-6" style="font-style:normal;font-variant:normal;font-weight:bold;font-stretch:normal;font-size:120.99466705px;line-height:1.25;font-family:Aharoni;-inkscape-font-specification:'Aharoni, Bold';font-variant-ligatures:normal;font-variant-caps:normal;font-variant-numeric:normal;font-feature-settings:normal;text-align:start;letter-spacing:0px;word-spacing:0px;writing-mode:lr-tb;text-anchor:start;fill:#000000;fill-opacity:1;stroke:none;stroke-width:2.37649584" d="M 52.937412,287.55677 H 40.587702 V 265.43005 H 22.776041 v 22.12672 h -12.34982 v -53.17432 h 12.34982 v 20.5296 h 17.811661 v -20.5296 h 12.34971 z"/>
      <path inkscape:connector-curvature="0" id="path1961-2-9-7-9-3-1-6-5-1-5-8-7-8-2" style="font-style:normal;font-variant:normal;font-weight:bold;font-stretch:normal;font-size:120.99466705px;line-height:1.25;font-family:Aharoni;-inkscape-font-specification:'Aharoni, Bold';font-variant-ligatures:normal;font-variant-caps:normal;font-variant-numeric:normal;font-feature-settings:normal;text-align:start;letter-spacing:0px;word-spacing:0px;writing-mode:lr-tb;text-anchor:start;fill:#000000;fill-opacity:1;stroke:none;stroke-width:2.37649584" d="m 69.681125,237.49895 q 0,3.0385 -1.87856,5.1421 -1.84375,2.0647 -4.55721,2.0647 -2.67866,0 -4.55722,-2.1036 -1.84375,-2.1036 -1.84375,-5.1032 0,-2.9996 1.84375,-5.0642 1.87856,-2.1036 4.55722,-2.1036 2.67865,0 4.55721,2.1036 1.87856,2.0646 1.87856,5.0642 z m -0.73057,50.05782 h -11.41048 v -36.15072 h 11.41048 z"/>
      <path inkscape:connector-curvature="0" id="path1963-3-1-2-8-3-6-3-3-3-4-7-6-0-8" style="font-style:normal;font-variant:normal;font-weight:bold;font-stretch:normal;font-size:120.99466705px;line-height:1.25;font-family:Aharoni;-inkscape-font-specification:'Aharoni, Bold';font-variant-ligatures:normal;font-variant-caps:normal;font-variant-numeric:normal;font-feature-settings:normal;text-align:start;letter-spacing:0px;word-spacing:0px;writing-mode:lr-tb;text-anchor:start;fill:#000000;fill-opacity:1;stroke:none;stroke-width:2.37649584" d="m 93.369625,261.92405 h -6.50536 v 25.63272 h -11.4104 v -25.63272 h -3.75712 v -10.518 h 3.75712 v -10.8686 h 11.4104 v 10.8686 h 6.50536 z"/>
      <path id="path1967-3-3-6-2-9-6-2-5-3-0-9-8-2-1" style="font-style:normal;font-variant:normal;font-weight:bold;font-stretch:normal;font-size:120.99466705px;line-height:1.25;font-family:Aharoni;-inkscape-font-specification:'Aharoni, Bold';font-variant-ligatures:normal;font-variant-caps:normal;font-variant-numeric:normal;font-feature-settings:normal;text-align:start;letter-spacing:0px;word-spacing:0px;writing-mode:lr-tb;text-anchor:start;fill:#000000;fill-opacity:1;stroke:none;stroke-width:2.37649584" d="m 160.61447,287.55677 h -12.34971 v -53.17432 h 12.34971 z" inkscape:connector-curvature="0"/>
      <path inkscape:connector-curvature="0" id="path1969-8-0-8-5-3-5-6-6-3-9-8-6-2-0" style="font-style:normal;font-variant:normal;font-weight:bold;font-stretch:normal;font-size:120.99466705px;line-height:1.25;font-family:Aharoni;-inkscape-font-specification:'Aharoni, Bold';font-variant-ligatures:normal;font-variant-caps:normal;font-variant-numeric:normal;font-feature-settings:normal;text-align:start;letter-spacing:0px;word-spacing:0px;writing-mode:lr-tb;text-anchor:start;fill:#000000;fill-opacity:1;stroke:none;stroke-width:2.37649584" d="m 201.6896,284.86883 q -6.05314,2.68794 -11.20172,2.68794 -8.97528,0 -16.07201,-6.42764 -9.04489,-8.21959 -9.04489,-21.42558 0,-13.2448 9.04489,-21.4644 7.09673,-6.4277 16.17636,-6.4277 4.93989,0 11.09737,2.6879 v 16.5561 q -1.73941,-2.3763 -3.54836,-3.5839 -3.30489,-2.2204 -7.09679,-2.2204 -4.8007,0 -8.34907,3.2333 -4.48766,4.0903 -4.48766,11.2191 0,7.0899 4.48766,11.1803 3.54837,3.23328 8.34907,3.23328 3.7919,0 7.09679,-2.22049 1.77415,-1.16869 3.54836,-3.58389 z"/>
      <path inkscape:transform-center-y="-13.656107" inkscape:transform-center-x="-3.9758045" sodipodi:nodetypes="csssssc" inkscape:connector-curvature="0" id="rect815-3-0-9-3-5-6-0-4-03-7-3-7-5-3-2-76-3-8-8-5-3-7-8-0-1-3-7-9-2-8-1" d="m 104.61223,181.4353 c 0,0 17.68257,27.27493 22.63096,34.41579 7.92879,11.44185 16.42741,30.36094 17.92806,45.50275 1.21005,12.20999 -1.38345,26.51285 -17.32077,30.11208 -11.70405,2.64313 -26.75007,-5.41371 -30.334975,-20.50903 -3.30533,-13.91816 -2.13088,-34.61412 0.0984,-48.67354 1.22049,-7.69719 5.657305,-36.06774 6.998335,-40.84805 z" style="font-style:normal;font-weight:normal;font-size:242.08590698px;line-height:1.25;font-family:sans-serif;letter-spacing:0px;word-spacing:0px;opacity:1;fill:#00456b;fill-opacity:1;stroke:none;stroke-width:0.6720385;stroke-miterlimit:4;stroke-dasharray:none;stroke-dashoffset:0;stroke-opacity:1;paint-order:markers fill stroke"/>
      <path sodipodi:nodetypes="ccscscsccscccscc" d="m 107.52748,246.32531 6.45576,30.78617 6.82019,-1.47997 c 5.75791,-1.24946 9.70999,-3.40081 11.85576,-6.45394 2.16431,-3.05721 2.68673,-7.25521 1.56721,-12.59398 -1.11209,-5.30332 -3.26743,-8.89247 -6.46601,-10.76744 -3.18372,-1.89669 -7.65528,-2.22015 -13.4127,-0.97081 z m -8.759905,-5.09591 12.713095,-2.78742 c 8.8634,-1.94336 15.73718,-1.59097 20.62135,1.05715 4.88003,2.62843 8.10326,7.71587 9.6697,15.26232 1.57464,7.58584 0.64804,13.61405 -2.77981,18.08462 -3.42783,4.4705 -9.55303,7.67294 -18.37559,9.60735 l -12.71311,2.78742 z" style="font-style:normal;font-weight:normal;font-size:242.08590698px;line-height:1.25;font-family:sans-serif;letter-spacing:0px;word-spacing:0px;fill:#ffffff;fill-opacity:1;stroke:none;stroke-width:1.60286868" id="path1193-3-5-3-2-7-4-5-6-0-0-6-9-2-4-7-0-0" inkscape:connector-curvature="0"/>
    </g>
  </g>
</g>
    </g>
  </g>
</svg>
