<?xml version='1.0' encoding='ASCII' standalone='yes'?>
<svg xmlns:xlink="http://www.w3.org/1999/xlink" xmlns="http://www.w3.org/2000/svg" version="1.1" width="460.8px" viewBox="0 0 460.8px 345.6px" height="345.6px">
  <g>
    <g><defs>
  <style type="text/css">
*{stroke-linecap:butt;stroke-linejoin:round;}
  </style>
 </defs>
 <g id="figure_1">
  <g id="patch_1">
   <path d="M 0 345.6  L 460.8 345.6  L 460.8 0  L 0 0  z " style="fill:#ffffff;"/>
  </g>
  <g id="axes_1">
   <g id="patch_2">
    <path d="M 55.82 300.76  L 437.355 300.76  L 437.355 13.32  L 55.82 13.32  z " style="fill:#ffffff;"/>
   </g>
   <g id="matplotlib.axis_1">
    <g id="xtick_1">
     <g id="line2d_1">
      <defs>
       <path d="M 0 0  L 0 3.5  " id="m9d51208c44" style="stroke:#000000;stroke-width:0.8;"/>
      </defs>
      <g>
       <use style="stroke:#000000;stroke-width:0.8;" x="55.82" xlink:href="#m9d51208c44" y="300.76"/>
      </g>
     </g>
     <g id="text_1">
      <!-- 0 -->
      <defs>
       <path d="M 31.78125 66.40625  Q 24.171875 66.40625 20.328125 58.90625  Q 16.5 51.421875 16.5 36.375  Q 16.5 21.390625 20.328125 13.890625  Q 24.171875 6.390625 31.78125 6.390625  Q 39.453125 6.390625 43.28125 13.890625  Q 47.125 21.390625 47.125 36.375  Q 47.125 51.421875 43.28125 58.90625  Q 39.453125 66.40625 31.78125 66.40625  z M 31.78125 74.21875  Q 44.046875 74.21875 50.515625 64.515625  Q 56.984375 54.828125 56.984375 36.375  Q 56.984375 17.96875 50.515625 8.265625  Q 44.046875 -1.421875 31.78125 -1.421875  Q 19.53125 -1.421875 13.0625 8.265625  Q 6.59375 17.96875 6.59375 36.375  Q 6.59375 54.828125 13.0625 64.515625  Q 19.53125 74.21875 31.78125 74.21875  z " id="DejaVuSans-30"/>
      </defs>
      <g transform="translate(52.63875 315.358437)scale(0.1 -0.1)">
       <use xlink:href="#DejaVuSans-30"/>
      </g>
     </g>
    </g>
    <g id="xtick_2">
     <g id="line2d_2">
      <g>
       <use style="stroke:#000000;stroke-width:0.8;" x="119.409167" xlink:href="#m9d51208c44" y="300.76"/>
      </g>
     </g>
     <g id="text_2">
      <!-- 200 -->
      <defs>
       <path d="M 19.1875 8.296875  L 53.609375 8.296875  L 53.609375 0  L 7.328125 0  L 7.328125 8.296875  Q 12.9375 14.109375 22.625 23.890625  Q 32.328125 33.6875 34.8125 36.53125  Q 39.546875 41.84375 41.421875 45.53125  Q 43.3125 49.21875 43.3125 52.78125  Q 43.3125 58.59375 39.234375 62.25  Q 35.15625 65.921875 28.609375 65.921875  Q 23.96875 65.921875 18.8125 64.3125  Q 13.671875 62.703125 7.8125 59.421875  L 7.8125 69.390625  Q 13.765625 71.78125 18.9375 73  Q 24.125 74.21875 28.421875 74.21875  Q 39.75 74.21875 46.484375 68.546875  Q 53.21875 62.890625 53.21875 53.421875  Q 53.21875 48.921875 51.53125 44.890625  Q 49.859375 40.875 45.40625 35.40625  Q 44.1875 33.984375 37.640625 27.21875  Q 31.109375 20.453125 19.1875 8.296875  z " id="DejaVuSans-32"/>
      </defs>
      <g transform="translate(109.865417 315.358437)scale(0.1 -0.1)">
       <use xlink:href="#DejaVuSans-32"/>
       <use x="63.623047" xlink:href="#DejaVuSans-30"/>
       <use x="127.246094" xlink:href="#DejaVuSans-30"/>
      </g>
     </g>
    </g>
    <g id="xtick_3">
     <g id="line2d_3">
      <g>
       <use style="stroke:#000000;stroke-width:0.8;" x="182.998333" xlink:href="#m9d51208c44" y="300.76"/>
      </g>
     </g>
     <g id="text_3">
      <!-- 400 -->
      <defs>
       <path d="M 37.796875 64.3125  L 12.890625 25.390625  L 37.796875 25.390625  z M 35.203125 72.90625  L 47.609375 72.90625  L 47.609375 25.390625  L 58.015625 25.390625  L 58.015625 17.1875  L 47.609375 17.1875  L 47.609375 0  L 37.796875 0  L 37.796875 17.1875  L 4.890625 17.1875  L 4.890625 26.703125  z " id="DejaVuSans-34"/>
      </defs>
      <g transform="translate(173.454583 315.358437)scale(0.1 -0.1)">
       <use xlink:href="#DejaVuSans-34"/>
       <use x="63.623047" xlink:href="#DejaVuSans-30"/>
       <use x="127.246094" xlink:href="#DejaVuSans-30"/>
      </g>
     </g>
    </g>
    <g id="xtick_4">
     <g id="line2d_4">
      <g>
       <use style="stroke:#000000;stroke-width:0.8;" x="246.5875" xlink:href="#m9d51208c44" y="300.76"/>
      </g>
     </g>
     <g id="text_4">
      <!-- 600 -->
      <defs>
       <path d="M 33.015625 40.375  Q 26.375 40.375 22.484375 35.828125  Q 18.609375 31.296875 18.609375 23.390625  Q 18.609375 15.53125 22.484375 10.953125  Q 26.375 6.390625 33.015625 6.390625  Q 39.65625 6.390625 43.53125 10.953125  Q 47.40625 15.53125 47.40625 23.390625  Q 47.40625 31.296875 43.53125 35.828125  Q 39.65625 40.375 33.015625 40.375  z M 52.59375 71.296875  L 52.59375 62.3125  Q 48.875 64.0625 45.09375 64.984375  Q 41.3125 65.921875 37.59375 65.921875  Q 27.828125 65.921875 22.671875 59.328125  Q 17.53125 52.734375 16.796875 39.40625  Q 19.671875 43.65625 24.015625 45.921875  Q 28.375 48.1875 33.59375 48.1875  Q 44.578125 48.1875 50.953125 41.515625  Q 57.328125 34.859375 57.328125 23.390625  Q 57.328125 12.15625 50.6875 5.359375  Q 44.046875 -1.421875 33.015625 -1.421875  Q 20.359375 -1.421875 13.671875 8.265625  Q 6.984375 17.96875 6.984375 36.375  Q 6.984375 53.65625 15.1875 63.9375  Q 23.390625 74.21875 37.203125 74.21875  Q 40.921875 74.21875 44.703125 73.484375  Q 48.484375 72.75 52.59375 71.296875  z " id="DejaVuSans-36"/>
      </defs>
      <g transform="translate(237.04375 315.358437)scale(0.1 -0.1)">
       <use xlink:href="#DejaVuSans-36"/>
       <use x="63.623047" xlink:href="#DejaVuSans-30"/>
       <use x="127.246094" xlink:href="#DejaVuSans-30"/>
      </g>
     </g>
    </g>
    <g id="xtick_5">
     <g id="line2d_5">
      <g>
       <use style="stroke:#000000;stroke-width:0.8;" x="310.176667" xlink:href="#m9d51208c44" y="300.76"/>
      </g>
     </g>
     <g id="text_5">
      <!-- 800 -->
      <defs>
       <path d="M 31.78125 34.625  Q 24.75 34.625 20.71875 30.859375  Q 16.703125 27.09375 16.703125 20.515625  Q 16.703125 13.921875 20.71875 10.15625  Q 24.75 6.390625 31.78125 6.390625  Q 38.8125 6.390625 42.859375 10.171875  Q 46.921875 13.96875 46.921875 20.515625  Q 46.921875 27.09375 42.890625 30.859375  Q 38.875 34.625 31.78125 34.625  z M 21.921875 38.8125  Q 15.578125 40.375 12.03125 44.71875  Q 8.5 49.078125 8.5 55.328125  Q 8.5 64.0625 14.71875 69.140625  Q 20.953125 74.21875 31.78125 74.21875  Q 42.671875 74.21875 48.875 69.140625  Q 55.078125 64.0625 55.078125 55.328125  Q 55.078125 49.078125 51.53125 44.71875  Q 48 40.375 41.703125 38.8125  Q 48.828125 37.15625 52.796875 32.3125  Q 56.78125 27.484375 56.78125 20.515625  Q 56.78125 9.90625 50.3125 4.234375  Q 43.84375 -1.421875 31.78125 -1.421875  Q 19.734375 -1.421875 13.25 4.234375  Q 6.78125 9.90625 6.78125 20.515625  Q 6.78125 27.484375 10.78125 32.3125  Q 14.796875 37.15625 21.921875 38.8125  z M 18.3125 54.390625  Q 18.3125 48.734375 21.84375 45.5625  Q 25.390625 42.390625 31.78125 42.390625  Q 38.140625 42.390625 41.71875 45.5625  Q 45.3125 48.734375 45.3125 54.390625  Q 45.3125 60.0625 41.71875 63.234375  Q 38.140625 66.40625 31.78125 66.40625  Q 25.390625 66.40625 21.84375 63.234375  Q 18.3125 60.0625 18.3125 54.390625  z " id="DejaVuSans-38"/>
      </defs>
      <g transform="translate(300.632917 315.358437)scale(0.1 -0.1)">
       <use xlink:href="#DejaVuSans-38"/>
       <use x="63.623047" xlink:href="#DejaVuSans-30"/>
       <use x="127.246094" xlink:href="#DejaVuSans-30"/>
      </g>
     </g>
    </g>
    <g id="xtick_6">
     <g id="line2d_6">
      <g>
       <use style="stroke:#000000;stroke-width:0.8;" x="373.765833" xlink:href="#m9d51208c44" y="300.76"/>
      </g>
     </g>
     <g id="text_6">
      <!-- 1000 -->
      <defs>
       <path d="M 12.40625 8.296875  L 28.515625 8.296875  L 28.515625 63.921875  L 10.984375 60.40625  L 10.984375 69.390625  L 28.421875 72.90625  L 38.28125 72.90625  L 38.28125 8.296875  L 54.390625 8.296875  L 54.390625 0  L 12.40625 0  z " id="DejaVuSans-31"/>
      </defs>
      <g transform="translate(361.040833 315.358437)scale(0.1 -0.1)">
       <use xlink:href="#DejaVuSans-31"/>
       <use x="63.623047" xlink:href="#DejaVuSans-30"/>
       <use x="127.246094" xlink:href="#DejaVuSans-30"/>
       <use x="190.869141" xlink:href="#DejaVuSans-30"/>
      </g>
     </g>
    </g>
    <g id="xtick_7">
     <g id="line2d_7">
      <g>
       <use style="stroke:#000000;stroke-width:0.8;" x="437.355" xlink:href="#m9d51208c44" y="300.76"/>
      </g>
     </g>
     <g id="text_7">
      <!-- 1200 -->
      <g transform="translate(424.63 315.358437)scale(0.1 -0.1)">
       <use xlink:href="#DejaVuSans-31"/>
       <use x="63.623047" xlink:href="#DejaVuSans-32"/>
       <use x="127.246094" xlink:href="#DejaVuSans-30"/>
       <use x="190.869141" xlink:href="#DejaVuSans-30"/>
      </g>
     </g>
    </g>
    <g id="text_8">
     <!-- Distance ($\mu$m) -->
     <defs>
      <path d="M 19.671875 64.796875  L 19.671875 8.109375  L 31.59375 8.109375  Q 46.6875 8.109375 53.6875 14.9375  Q 60.6875 21.78125 60.6875 36.53125  Q 60.6875 51.171875 53.6875 57.984375  Q 46.6875 64.796875 31.59375 64.796875  z M 9.8125 72.90625  L 30.078125 72.90625  Q 51.265625 72.90625 61.171875 64.09375  Q 71.09375 55.28125 71.09375 36.53125  Q 71.09375 17.671875 61.125 8.828125  Q 51.171875 0 30.078125 0  L 9.8125 0  z " id="DejaVuSans-44"/>
      <path d="M 9.421875 54.6875  L 18.40625 54.6875  L 18.40625 0  L 9.421875 0  z M 9.421875 75.984375  L 18.40625 75.984375  L 18.40625 64.59375  L 9.421875 64.59375  z " id="DejaVuSans-69"/>
      <path d="M 44.28125 53.078125  L 44.28125 44.578125  Q 40.484375 46.53125 36.375 47.5  Q 32.28125 48.484375 27.875 48.484375  Q 21.1875 48.484375 17.84375 46.4375  Q 14.5 44.390625 14.5 40.28125  Q 14.5 37.15625 16.890625 35.375  Q 19.28125 33.59375 26.515625 31.984375  L 29.59375 31.296875  Q 39.15625 29.25 43.1875 25.515625  Q 47.21875 21.78125 47.21875 15.09375  Q 47.21875 7.46875 41.1875 3.015625  Q 35.15625 -1.421875 24.609375 -1.421875  Q 20.21875 -1.421875 15.453125 -0.5625  Q 10.6875 0.296875 5.421875 2  L 5.421875 11.28125  Q 10.40625 8.6875 15.234375 7.390625  Q 20.0625 6.109375 24.8125 6.109375  Q 31.15625 6.109375 34.5625 8.28125  Q 37.984375 10.453125 37.984375 14.40625  Q 37.984375 18.0625 35.515625 20.015625  Q 33.0625 21.96875 24.703125 23.78125  L 21.578125 24.515625  Q 13.234375 26.265625 9.515625 29.90625  Q 5.8125 33.546875 5.8125 39.890625  Q 5.8125 47.609375 11.28125 51.796875  Q 16.75 56 26.8125 56  Q 31.78125 56 36.171875 55.265625  Q 40.578125 54.546875 44.28125 53.078125  z " id="DejaVuSans-73"/>
      <path d="M 18.3125 70.21875  L 18.3125 54.6875  L 36.8125 54.6875  L 36.8125 47.703125  L 18.3125 47.703125  L 18.3125 18.015625  Q 18.3125 11.328125 20.140625 9.421875  Q 21.96875 7.515625 27.59375 7.515625  L 36.8125 7.515625  L 36.8125 0  L 27.59375 0  Q 17.1875 0 13.234375 3.875  Q 9.28125 7.765625 9.28125 18.015625  L 9.28125 47.703125  L 2.6875 47.703125  L 2.6875 54.6875  L 9.28125 54.6875  L 9.28125 70.21875  z " id="DejaVuSans-74"/>
      <path d="M 34.28125 27.484375  Q 23.390625 27.484375 19.1875 25  Q 14.984375 22.515625 14.984375 16.5  Q 14.984375 11.71875 18.140625 8.90625  Q 21.296875 6.109375 26.703125 6.109375  Q 34.1875 6.109375 38.703125 11.40625  Q 43.21875 16.703125 43.21875 25.484375  L 43.21875 27.484375  z M 52.203125 31.203125  L 52.203125 0  L 43.21875 0  L 43.21875 8.296875  Q 40.140625 3.328125 35.546875 0.953125  Q 30.953125 -1.421875 24.3125 -1.421875  Q 15.921875 -1.421875 10.953125 3.296875  Q 6 8.015625 6 15.921875  Q 6 25.140625 12.171875 29.828125  Q 18.359375 34.515625 30.609375 34.515625  L 43.21875 34.515625  L 43.21875 35.40625  Q 43.21875 41.609375 39.140625 45  Q 35.0625 48.390625 27.6875 48.390625  Q 23 48.390625 18.546875 47.265625  Q 14.109375 46.140625 10.015625 43.890625  L 10.015625 52.203125  Q 14.9375 54.109375 19.578125 55.046875  Q 24.21875 56 28.609375 56  Q 40.484375 56 46.34375 49.84375  Q 52.203125 43.703125 52.203125 31.203125  z " id="DejaVuSans-61"/>
      <path d="M 54.890625 33.015625  L 54.890625 0  L 45.90625 0  L 45.90625 32.71875  Q 45.90625 40.484375 42.875 44.328125  Q 39.84375 48.1875 33.796875 48.1875  Q 26.515625 48.1875 22.3125 43.546875  Q 18.109375 38.921875 18.109375 30.90625  L 18.109375 0  L 9.078125 0  L 9.078125 54.6875  L 18.109375 54.6875  L 18.109375 46.1875  Q 21.34375 51.125 25.703125 53.5625  Q 30.078125 56 35.796875 56  Q 45.21875 56 50.046875 50.171875  Q 54.890625 44.34375 54.890625 33.015625  z " id="DejaVuSans-6e"/>
      <path d="M 48.78125 52.59375  L 48.78125 44.1875  Q 44.96875 46.296875 41.140625 47.34375  Q 37.3125 48.390625 33.40625 48.390625  Q 24.65625 48.390625 19.8125 42.84375  Q 14.984375 37.3125 14.984375 27.296875  Q 14.984375 17.28125 19.8125 11.734375  Q 24.65625 6.203125 33.40625 6.203125  Q 37.3125 6.203125 41.140625 7.25  Q 44.96875 8.296875 48.78125 10.40625  L 48.78125 2.09375  Q 45.015625 0.34375 40.984375 -0.53125  Q 36.96875 -1.421875 32.421875 -1.421875  Q 20.0625 -1.421875 12.78125 6.34375  Q 5.515625 14.109375 5.515625 27.296875  Q 5.515625 40.671875 12.859375 48.328125  Q 20.21875 56 33.015625 56  Q 37.15625 56 41.109375 55.140625  Q 45.0625 54.296875 48.78125 52.59375  z " id="DejaVuSans-63"/>
      <path d="M 56.203125 29.59375  L 56.203125 25.203125  L 14.890625 25.203125  Q 15.484375 15.921875 20.484375 11.0625  Q 25.484375 6.203125 34.421875 6.203125  Q 39.59375 6.203125 44.453125 7.46875  Q 49.3125 8.734375 54.109375 11.28125  L 54.109375 2.78125  Q 49.265625 0.734375 44.1875 -0.34375  Q 39.109375 -1.421875 33.890625 -1.421875  Q 20.796875 -1.421875 13.15625 6.1875  Q 5.515625 13.8125 5.515625 26.8125  Q 5.515625 40.234375 12.765625 48.109375  Q 20.015625 56 32.328125 56  Q 43.359375 56 49.78125 48.890625  Q 56.203125 41.796875 56.203125 29.59375  z M 47.21875 32.234375  Q 47.125 39.59375 43.09375 43.984375  Q 39.0625 48.390625 32.421875 48.390625  Q 24.90625 48.390625 20.390625 44.140625  Q 15.875 39.890625 15.1875 32.171875  z " id="DejaVuSans-65"/>
      <path id="DejaVuSans-20"/>
      <path d="M 31 75.875  Q 24.46875 64.65625 21.28125 53.65625  Q 18.109375 42.671875 18.109375 31.390625  Q 18.109375 20.125 21.3125 9.0625  Q 24.515625 -2 31 -13.1875  L 23.1875 -13.1875  Q 15.875 -1.703125 12.234375 9.375  Q 8.59375 20.453125 8.59375 31.390625  Q 8.59375 42.28125 12.203125 53.3125  Q 15.828125 64.359375 23.1875 75.875  z " id="DejaVuSans-28"/>
      <path d="M -1.3125 -20.796875  L 13.375 54.6875  L 22.40625 54.6875  L 15.765625 20.65625  Q 15.578125 19.625 15.421875 18.359375  Q 15.28125 17.09375 15.28125 15.828125  Q 15.28125 11.28125 18.140625 8.828125  Q 21 6.390625 26.3125 6.390625  Q 33.546875 6.390625 37.984375 10.484375  Q 42.4375 14.59375 44 22.796875  L 50.203125 54.6875  L 59.1875 54.6875  L 51.03125 12.640625  Q 50.828125 11.71875 50.75 11.03125  Q 50.6875 10.359375 50.6875 9.8125  Q 50.6875 8.296875 51.296875 7.59375  Q 51.90625 6.890625 53.21875 6.890625  Q 53.71875 6.890625 54.5625 7.125  Q 55.421875 7.375 56.984375 8.015625  L 55.609375 0.78125  Q 53.46875 -0.296875 51.515625 -0.859375  Q 49.5625 -1.421875 47.703125 -1.421875  Q 44.484375 -1.421875 42.65625 0.625  Q 40.828125 2.6875 40.828125 6.296875  Q 38.09375 2.390625 34.296875 0.484375  Q 30.515625 -1.421875 25.390625 -1.421875  Q 20.84375 -1.421875 17.453125 0.671875  Q 14.0625 2.78125 12.984375 6.203125  L 7.71875 -20.796875  z " id="DejaVuSans-Oblique-3bc"/>
      <path d="M 52 44.1875  Q 55.375 50.25 60.0625 53.125  Q 64.75 56 71.09375 56  Q 79.640625 56 84.28125 50.015625  Q 88.921875 44.046875 88.921875 33.015625  L 88.921875 0  L 79.890625 0  L 79.890625 32.71875  Q 79.890625 40.578125 77.09375 44.375  Q 74.3125 48.1875 68.609375 48.1875  Q 61.625 48.1875 57.5625 43.546875  Q 53.515625 38.921875 53.515625 30.90625  L 53.515625 0  L 44.484375 0  L 44.484375 32.71875  Q 44.484375 40.625 41.703125 44.40625  Q 38.921875 48.1875 33.109375 48.1875  Q 26.21875 48.1875 22.15625 43.53125  Q 18.109375 38.875 18.109375 30.90625  L 18.109375 0  L 9.078125 0  L 9.078125 54.6875  L 18.109375 54.6875  L 18.109375 46.1875  Q 21.1875 51.21875 25.484375 53.609375  Q 29.78125 56 35.6875 56  Q 41.65625 56 45.828125 52.96875  Q 50 49.953125 52 44.1875  z " id="DejaVuSans-6d"/>
      <path d="M 8.015625 75.875  L 15.828125 75.875  Q 23.140625 64.359375 26.78125 53.3125  Q 30.421875 42.28125 30.421875 31.390625  Q 30.421875 20.453125 26.78125 9.375  Q 23.140625 -1.703125 15.828125 -13.1875  L 8.015625 -13.1875  Q 14.5 -2 17.703125 9.0625  Q 20.90625 20.125 20.90625 31.390625  Q 20.90625 42.671875 17.703125 53.65625  Q 14.5 64.65625 8.015625 75.875  z " id="DejaVuSans-29"/>
     </defs>
     <g transform="translate(211.1375 329.038125)scale(0.1 -0.1)">
      <use transform="translate(0 0.015625)" xlink:href="#DejaVuSans-44"/>
      <use transform="translate(77.001953 0.015625)" xlink:href="#DejaVuSans-69"/>
      <use transform="translate(104.785156 0.015625)" xlink:href="#DejaVuSans-73"/>
      <use transform="translate(156.884766 0.015625)" xlink:href="#DejaVuSans-74"/>
      <use transform="translate(196.09375 0.015625)" xlink:href="#DejaVuSans-61"/>
      <use transform="translate(257.373047 0.015625)" xlink:href="#DejaVuSans-6e"/>
      <use transform="translate(320.751953 0.015625)" xlink:href="#DejaVuSans-63"/>
      <use transform="translate(375.732422 0.015625)" xlink:href="#DejaVuSans-65"/>
      <use transform="translate(437.255859 0.015625)" xlink:href="#DejaVuSans-20"/>
      <use transform="translate(469.042969 0.015625)" xlink:href="#DejaVuSans-28"/>
      <use transform="translate(508.056641 0.015625)" xlink:href="#DejaVuSans-Oblique-3bc"/>
      <use transform="translate(571.679688 0.015625)" xlink:href="#DejaVuSans-6d"/>
      <use transform="translate(669.091797 0.015625)" xlink:href="#DejaVuSans-29"/>
     </g>
    </g>
   </g>
   <g id="matplotlib.axis_2">
    <g id="ytick_1">
     <g id="line2d_8">
      <defs>
       <path d="M 0 0  L -3.5 0  " id="m75d1961b82" style="stroke:#000000;stroke-width:0.8;"/>
      </defs>
      <g>
       <use style="stroke:#000000;stroke-width:0.8;" x="55.82" xlink:href="#m75d1961b82" y="276.193416"/>
      </g>
     </g>
     <g id="text_9">
      <!-- &#8722;80 -->
      <defs>
       <path d="M 10.59375 35.5  L 73.1875 35.5  L 73.1875 27.203125  L 10.59375 27.203125  z " id="DejaVuSans-2212"/>
      </defs>
      <g transform="translate(27.715313 279.992635)scale(0.1 -0.1)">
       <use xlink:href="#DejaVuSans-2212"/>
       <use x="83.789062" xlink:href="#DejaVuSans-38"/>
       <use x="147.412109" xlink:href="#DejaVuSans-30"/>
      </g>
     </g>
    </g>
    <g id="ytick_2">
     <g id="line2d_9">
      <g>
       <use style="stroke:#000000;stroke-width:0.8;" x="55.82" xlink:href="#m75d1961b82" y="243.915413"/>
      </g>
     </g>
     <g id="text_10">
      <!-- &#8722;60 -->
      <g transform="translate(27.715313 247.714631)scale(0.1 -0.1)">
       <use xlink:href="#DejaVuSans-2212"/>
       <use x="83.789062" xlink:href="#DejaVuSans-36"/>
       <use x="147.412109" xlink:href="#DejaVuSans-30"/>
      </g>
     </g>
    </g>
    <g id="ytick_3">
     <g id="line2d_10">
      <g>
       <use style="stroke:#000000;stroke-width:0.8;" x="55.82" xlink:href="#m75d1961b82" y="211.637409"/>
      </g>
     </g>
     <g id="text_11">
      <!-- &#8722;40 -->
      <g transform="translate(27.715313 215.436628)scale(0.1 -0.1)">
       <use xlink:href="#DejaVuSans-2212"/>
       <use x="83.789062" xlink:href="#DejaVuSans-34"/>
       <use x="147.412109" xlink:href="#DejaVuSans-30"/>
      </g>
     </g>
    </g>
    <g id="ytick_4">
     <g id="line2d_11">
      <g>
       <use style="stroke:#000000;stroke-width:0.8;" x="55.82" xlink:href="#m75d1961b82" y="179.359406"/>
      </g>
     </g>
     <g id="text_12">
      <!-- &#8722;20 -->
      <g transform="translate(27.715313 183.158625)scale(0.1 -0.1)">
       <use xlink:href="#DejaVuSans-2212"/>
       <use x="83.789062" xlink:href="#DejaVuSans-32"/>
       <use x="147.412109" xlink:href="#DejaVuSans-30"/>
      </g>
     </g>
    </g>
    <g id="ytick_5">
     <g id="line2d_12">
      <g>
       <use style="stroke:#000000;stroke-width:0.8;" x="55.82" xlink:href="#m75d1961b82" y="147.081403"/>
      </g>
     </g>
     <g id="text_13">
      <!-- 0 -->
      <g transform="translate(42.4575 150.880621)scale(0.1 -0.1)">
       <use xlink:href="#DejaVuSans-30"/>
      </g>
     </g>
    </g>
    <g id="ytick_6">
     <g id="line2d_13">
      <g>
       <use style="stroke:#000000;stroke-width:0.8;" x="55.82" xlink:href="#m75d1961b82" y="114.803399"/>
      </g>
     </g>
     <g id="text_14">
      <!-- 20 -->
      <g transform="translate(36.095 118.602618)scale(0.1 -0.1)">
       <use xlink:href="#DejaVuSans-32"/>
       <use x="63.623047" xlink:href="#DejaVuSans-30"/>
      </g>
     </g>
    </g>
    <g id="ytick_7">
     <g id="line2d_14">
      <g>
       <use style="stroke:#000000;stroke-width:0.8;" x="55.82" xlink:href="#m75d1961b82" y="82.525396"/>
      </g>
     </g>
     <g id="text_15">
      <!-- 40 -->
      <g transform="translate(36.095 86.324615)scale(0.1 -0.1)">
       <use xlink:href="#DejaVuSans-34"/>
       <use x="63.623047" xlink:href="#DejaVuSans-30"/>
      </g>
     </g>
    </g>
    <g id="ytick_8">
     <g id="line2d_15">
      <g>
       <use style="stroke:#000000;stroke-width:0.8;" x="55.82" xlink:href="#m75d1961b82" y="50.247393"/>
      </g>
     </g>
     <g id="text_16">
      <!-- 60 -->
      <g transform="translate(36.095 54.046611)scale(0.1 -0.1)">
       <use xlink:href="#DejaVuSans-36"/>
       <use x="63.623047" xlink:href="#DejaVuSans-30"/>
      </g>
     </g>
    </g>
    <g id="ytick_9">
     <g id="line2d_16">
      <g>
       <use style="stroke:#000000;stroke-width:0.8;" x="55.82" xlink:href="#m75d1961b82" y="17.969389"/>
      </g>
     </g>
     <g id="text_17">
      <!-- 80 -->
      <g transform="translate(36.095 21.768608)scale(0.1 -0.1)">
       <use xlink:href="#DejaVuSans-38"/>
       <use x="63.623047" xlink:href="#DejaVuSans-30"/>
      </g>
     </g>
    </g>
    <g id="text_18">
     <!-- Slope, at. / $\mu m$ -->
     <defs>
      <path d="M 53.515625 70.515625  L 53.515625 60.890625  Q 47.90625 63.578125 42.921875 64.890625  Q 37.9375 66.21875 33.296875 66.21875  Q 25.25 66.21875 20.875 63.09375  Q 16.5 59.96875 16.5 54.203125  Q 16.5 49.359375 19.40625 46.890625  Q 22.3125 44.4375 30.421875 42.921875  L 36.375 41.703125  Q 47.40625 39.59375 52.65625 34.296875  Q 57.90625 29 57.90625 20.125  Q 57.90625 9.515625 50.796875 4.046875  Q 43.703125 -1.421875 29.984375 -1.421875  Q 24.8125 -1.421875 18.96875 -0.25  Q 13.140625 0.921875 6.890625 3.21875  L 6.890625 13.375  Q 12.890625 10.015625 18.65625 8.296875  Q 24.421875 6.59375 29.984375 6.59375  Q 38.421875 6.59375 43.015625 9.90625  Q 47.609375 13.234375 47.609375 19.390625  Q 47.609375 24.75 44.3125 27.78125  Q 41.015625 30.8125 33.5 32.328125  L 27.484375 33.5  Q 16.453125 35.6875 11.515625 40.375  Q 6.59375 45.0625 6.59375 53.421875  Q 6.59375 63.09375 13.40625 68.65625  Q 20.21875 74.21875 32.171875 74.21875  Q 37.3125 74.21875 42.625 73.28125  Q 47.953125 72.359375 53.515625 70.515625  z " id="DejaVuSans-53"/>
      <path d="M 9.421875 75.984375  L 18.40625 75.984375  L 18.40625 0  L 9.421875 0  z " id="DejaVuSans-6c"/>
      <path d="M 30.609375 48.390625  Q 23.390625 48.390625 19.1875 42.75  Q 14.984375 37.109375 14.984375 27.296875  Q 14.984375 17.484375 19.15625 11.84375  Q 23.34375 6.203125 30.609375 6.203125  Q 37.796875 6.203125 41.984375 11.859375  Q 46.1875 17.53125 46.1875 27.296875  Q 46.1875 37.015625 41.984375 42.703125  Q 37.796875 48.390625 30.609375 48.390625  z M 30.609375 56  Q 42.328125 56 49.015625 48.375  Q 55.71875 40.765625 55.71875 27.296875  Q 55.71875 13.875 49.015625 6.21875  Q 42.328125 -1.421875 30.609375 -1.421875  Q 18.84375 -1.421875 12.171875 6.21875  Q 5.515625 13.875 5.515625 27.296875  Q 5.515625 40.765625 12.171875 48.375  Q 18.84375 56 30.609375 56  z " id="DejaVuSans-6f"/>
      <path d="M 18.109375 8.203125  L 18.109375 -20.796875  L 9.078125 -20.796875  L 9.078125 54.6875  L 18.109375 54.6875  L 18.109375 46.390625  Q 20.953125 51.265625 25.265625 53.625  Q 29.59375 56 35.59375 56  Q 45.5625 56 51.78125 48.09375  Q 58.015625 40.1875 58.015625 27.296875  Q 58.015625 14.40625 51.78125 6.484375  Q 45.5625 -1.421875 35.59375 -1.421875  Q 29.59375 -1.421875 25.265625 0.953125  Q 20.953125 3.328125 18.109375 8.203125  z M 48.6875 27.296875  Q 48.6875 37.203125 44.609375 42.84375  Q 40.53125 48.484375 33.40625 48.484375  Q 26.265625 48.484375 22.1875 42.84375  Q 18.109375 37.203125 18.109375 27.296875  Q 18.109375 17.390625 22.1875 11.75  Q 26.265625 6.109375 33.40625 6.109375  Q 40.53125 6.109375 44.609375 11.75  Q 48.6875 17.390625 48.6875 27.296875  z " id="DejaVuSans-70"/>
      <path d="M 11.71875 12.40625  L 22.015625 12.40625  L 22.015625 4  L 14.015625 -11.625  L 7.71875 -11.625  L 11.71875 4  z " id="DejaVuSans-2c"/>
      <path d="M 10.6875 12.40625  L 21 12.40625  L 21 0  L 10.6875 0  z " id="DejaVuSans-2e"/>
      <path d="M 25.390625 72.90625  L 33.6875 72.90625  L 8.296875 -9.28125  L 0 -9.28125  z " id="DejaVuSans-2f"/>
      <path d="M 89.796875 33.015625  L 83.40625 0  L 74.421875 0  L 80.71875 32.71875  Q 81.109375 34.8125 81.296875 36.328125  Q 81.5 37.84375 81.5 38.921875  Q 81.5 43.3125 79.046875 45.75  Q 76.609375 48.1875 72.21875 48.1875  Q 65.671875 48.1875 60.546875 43.28125  Q 55.421875 38.375 53.90625 30.515625  L 47.90625 0  L 38.921875 0  L 45.3125 32.71875  Q 45.703125 34.515625 45.890625 36.046875  Q 46.09375 37.59375 46.09375 38.8125  Q 46.09375 43.265625 43.65625 45.71875  Q 41.21875 48.1875 36.921875 48.1875  Q 30.28125 48.1875 25.140625 43.28125  Q 20.015625 38.375 18.5 30.515625  L 12.5 0  L 3.515625 0  L 14.203125 54.6875  L 23.1875 54.6875  L 21.484375 46.1875  Q 25.140625 50.984375 30.046875 53.484375  Q 34.96875 56 40.578125 56  Q 46.53125 56 50.359375 52.875  Q 54.203125 49.75 54.984375 44.1875  Q 59.078125 49.953125 64.46875 52.96875  Q 69.875 56 75.875 56  Q 82.90625 56 86.734375 51.953125  Q 90.578125 47.90625 90.578125 40.484375  Q 90.578125 38.875 90.375 36.9375  Q 90.1875 35.015625 89.796875 33.015625  z " id="DejaVuSans-Oblique-6d"/>
     </defs>
     <g transform="translate(21.615313 193.64)rotate(-90)scale(0.1 -0.1)">
      <use transform="translate(0 0.015625)" xlink:href="#DejaVuSans-53"/>
      <use transform="translate(63.476562 0.015625)" xlink:href="#DejaVuSans-6c"/>
      <use transform="translate(91.259766 0.015625)" xlink:href="#DejaVuSans-6f"/>
      <use transform="translate(152.441406 0.015625)" xlink:href="#DejaVuSans-70"/>
      <use transform="translate(215.917969 0.015625)" xlink:href="#DejaVuSans-65"/>
      <use transform="translate(277.441406 0.015625)" xlink:href="#DejaVuSans-2c"/>
      <use transform="translate(309.228516 0.015625)" xlink:href="#DejaVuSans-20"/>
      <use transform="translate(341.015625 0.015625)" xlink:href="#DejaVuSans-61"/>
      <use transform="translate(402.294922 0.015625)" xlink:href="#DejaVuSans-74"/>
      <use transform="translate(441.503906 0.015625)" xlink:href="#DejaVuSans-2e"/>
      <use transform="translate(473.291016 0.015625)" xlink:href="#DejaVuSans-20"/>
      <use transform="translate(505.078125 0.015625)" xlink:href="#DejaVuSans-2f"/>
      <use transform="translate(538.769531 0.015625)" xlink:href="#DejaVuSans-20"/>
      <use transform="translate(570.556641 0.015625)" xlink:href="#DejaVuSans-Oblique-3bc"/>
      <use transform="translate(634.179688 0.015625)" xlink:href="#DejaVuSans-Oblique-6d"/>
     </g>
    </g>
   </g>
   <g id="line2d_17">
    <defs>
     <path d="M -0 3  L 3 -3  L -3 -3  z " id="mf53c2fc3b8" style="stroke:#e74c3c;stroke-linejoin:miter;"/>
    </defs>
    <g clip-path="url(#p28c8d4e1e6)">
     <use style="fill:#e74c3c;stroke:#e74c3c;stroke-linejoin:miter;" x="55.82" xlink:href="#mf53c2fc3b8" y="146.75555"/>
     <use style="fill:#e74c3c;stroke:#e74c3c;stroke-linejoin:miter;" x="63.489045" xlink:href="#mf53c2fc3b8" y="146.614365"/>
     <use style="fill:#e74c3c;stroke:#e74c3c;stroke-linejoin:miter;" x="71.15809" xlink:href="#mf53c2fc3b8" y="146.340179"/>
     <use style="fill:#e74c3c;stroke:#e74c3c;stroke-linejoin:miter;" x="78.827136" xlink:href="#mf53c2fc3b8" y="145.92906"/>
     <use style="fill:#e74c3c;stroke:#e74c3c;stroke-linejoin:miter;" x="86.496181" xlink:href="#mf53c2fc3b8" y="145.326514"/>
     <use style="fill:#e74c3c;stroke:#e74c3c;stroke-linejoin:miter;" x="94.165226" xlink:href="#mf53c2fc3b8" y="144.463504"/>
     <use style="fill:#e74c3c;stroke:#e74c3c;stroke-linejoin:miter;" x="101.834271" xlink:href="#mf53c2fc3b8" y="143.255871"/>
     <use style="fill:#e74c3c;stroke:#e74c3c;stroke-linejoin:miter;" x="109.503317" xlink:href="#mf53c2fc3b8" y="141.605368"/>
     <use style="fill:#e74c3c;stroke:#e74c3c;stroke-linejoin:miter;" x="117.172362" xlink:href="#mf53c2fc3b8" y="139.402907"/>
     <use style="fill:#e74c3c;stroke:#e74c3c;stroke-linejoin:miter;" x="124.841407" xlink:href="#mf53c2fc3b8" y="136.534581"/>
     <use style="fill:#e74c3c;stroke:#e74c3c;stroke-linejoin:miter;" x="132.510452" xlink:href="#mf53c2fc3b8" y="132.890744"/>
     <use style="fill:#e74c3c;stroke:#e74c3c;stroke-linejoin:miter;" x="140.179497" xlink:href="#mf53c2fc3b8" y="128.378069"/>
     <use style="fill:#e74c3c;stroke:#e74c3c;stroke-linejoin:miter;" x="147.848543" xlink:href="#mf53c2fc3b8" y="122.933967"/>
     <use style="fill:#e74c3c;stroke:#e74c3c;stroke-linejoin:miter;" x="155.517588" xlink:href="#mf53c2fc3b8" y="116.542143"/>
     <use style="fill:#e74c3c;stroke:#e74c3c;stroke-linejoin:miter;" x="163.186633" xlink:href="#mf53c2fc3b8" y="109.247468"/>
     <use style="fill:#e74c3c;stroke:#e74c3c;stroke-linejoin:miter;" x="170.855678" xlink:href="#mf53c2fc3b8" y="101.167941"/>
     <use style="fill:#e74c3c;stroke:#e74c3c;stroke-linejoin:miter;" x="178.524724" xlink:href="#mf53c2fc3b8" y="92.501335"/>
     <use style="fill:#e74c3c;stroke:#e74c3c;stroke-linejoin:miter;" x="186.193769" xlink:href="#mf53c2fc3b8" y="83.524369"/>
     <use style="fill:#e74c3c;stroke:#e74c3c;stroke-linejoin:miter;" x="193.862814" xlink:href="#mf53c2fc3b8" y="74.58296"/>
     <use style="fill:#e74c3c;stroke:#e74c3c;stroke-linejoin:miter;" x="201.531859" xlink:href="#mf53c2fc3b8" y="66.073151"/>
     <use style="fill:#e74c3c;stroke:#e74c3c;stroke-linejoin:miter;" x="209.200905" xlink:href="#mf53c2fc3b8" y="58.413722"/>
     <use style="fill:#e74c3c;stroke:#e74c3c;stroke-linejoin:miter;" x="216.86995" xlink:href="#mf53c2fc3b8" y="52.012834"/>
     <use style="fill:#e74c3c;stroke:#e74c3c;stroke-linejoin:miter;" x="224.538995" xlink:href="#mf53c2fc3b8" y="47.23232"/>
     <use style="fill:#e74c3c;stroke:#e74c3c;stroke-linejoin:miter;" x="232.20804" xlink:href="#mf53c2fc3b8" y="44.353904"/>
     <use style="fill:#e74c3c;stroke:#e74c3c;stroke-linejoin:miter;" x="239.877085" xlink:href="#mf53c2fc3b8" y="43.551724"/>
     <use style="fill:#e74c3c;stroke:#e74c3c;stroke-linejoin:miter;" x="247.546131" xlink:href="#mf53c2fc3b8" y="44.874898"/>
     <use style="fill:#e74c3c;stroke:#e74c3c;stroke-linejoin:miter;" x="255.215176" xlink:href="#mf53c2fc3b8" y="48.242545"/>
     <use style="fill:#e74c3c;stroke:#e74c3c;stroke-linejoin:miter;" x="262.884221" xlink:href="#mf53c2fc3b8" y="53.451965"/>
     <use style="fill:#e74c3c;stroke:#e74c3c;stroke-linejoin:miter;" x="270.553266" xlink:href="#mf53c2fc3b8" y="60.198839"/>
     <use style="fill:#e74c3c;stroke:#e74c3c;stroke-linejoin:miter;" x="278.222312" xlink:href="#mf53c2fc3b8" y="68.106635"/>
     <use style="fill:#e74c3c;stroke:#e74c3c;stroke-linejoin:miter;" x="285.891357" xlink:href="#mf53c2fc3b8" y="76.761283"/>
     <use style="fill:#e74c3c;stroke:#e74c3c;stroke-linejoin:miter;" x="293.560402" xlink:href="#mf53c2fc3b8" y="85.746687"/>
     <use style="fill:#e74c3c;stroke:#e74c3c;stroke-linejoin:miter;" x="301.229447" xlink:href="#mf53c2fc3b8" y="94.676897"/>
     <use style="fill:#e74c3c;stroke:#e74c3c;stroke-linejoin:miter;" x="308.898492" xlink:href="#mf53c2fc3b8" y="103.221626"/>
     <use style="fill:#e74c3c;stroke:#e74c3c;stroke-linejoin:miter;" x="316.567538" xlink:href="#mf53c2fc3b8" y="111.123056"/>
     <use style="fill:#e74c3c;stroke:#e74c3c;stroke-linejoin:miter;" x="324.236583" xlink:href="#mf53c2fc3b8" y="118.203309"/>
     <use style="fill:#e74c3c;stroke:#e74c3c;stroke-linejoin:miter;" x="331.905628" xlink:href="#mf53c2fc3b8" y="124.363259"/>
     <use style="fill:#e74c3c;stroke:#e74c3c;stroke-linejoin:miter;" x="339.574673" xlink:href="#mf53c2fc3b8" y="129.574364"/>
     <use style="fill:#e74c3c;stroke:#e74c3c;stroke-linejoin:miter;" x="347.243719" xlink:href="#mf53c2fc3b8" y="133.865768"/>
     <use style="fill:#e74c3c;stroke:#e74c3c;stroke-linejoin:miter;" x="354.912764" xlink:href="#mf53c2fc3b8" y="137.309055"/>
     <use style="fill:#e74c3c;stroke:#e74c3c;stroke-linejoin:miter;" x="362.581809" xlink:href="#mf53c2fc3b8" y="140.002837"/>
     <use style="fill:#e74c3c;stroke:#e74c3c;stroke-linejoin:miter;" x="370.250854" xlink:href="#mf53c2fc3b8" y="142.058819"/>
     <use style="fill:#e74c3c;stroke:#e74c3c;stroke-linejoin:miter;" x="377.919899" xlink:href="#mf53c2fc3b8" y="143.590445"/>
     <use style="fill:#e74c3c;stroke:#e74c3c;stroke-linejoin:miter;" x="385.588945" xlink:href="#mf53c2fc3b8" y="144.704576"/>
     <use style="fill:#e74c3c;stroke:#e74c3c;stroke-linejoin:miter;" x="393.25799" xlink:href="#mf53c2fc3b8" y="145.496196"/>
     <use style="fill:#e74c3c;stroke:#e74c3c;stroke-linejoin:miter;" x="400.927035" xlink:href="#mf53c2fc3b8" y="146.04576"/>
     <use style="fill:#e74c3c;stroke:#e74c3c;stroke-linejoin:miter;" x="408.59608" xlink:href="#mf53c2fc3b8" y="146.418623"/>
     <use style="fill:#e74c3c;stroke:#e74c3c;stroke-linejoin:miter;" x="416.265126" xlink:href="#mf53c2fc3b8" y="146.665909"/>
     <use style="fill:#e74c3c;stroke:#e74c3c;stroke-linejoin:miter;" x="423.934171" xlink:href="#mf53c2fc3b8" y="146.826253"/>
     <use style="fill:#e74c3c;stroke:#e74c3c;stroke-linejoin:miter;" x="431.603216" xlink:href="#mf53c2fc3b8" y="146.92792"/>
    </g>
   </g>
   <g id="line2d_18">
    <defs>
     <path d="M 0 -3  L -0.673542 -0.927051  L -2.85317 -0.927051  L -1.089814 0.354102  L -1.763356 2.427051  L -0 1.145898  L 1.763356 2.427051  L 1.089814 0.354102  L 2.85317 -0.927051  L 0.673542 -0.927051  z " id="m48541cb0e0" style="stroke:#808000;stroke-linejoin:bevel;"/>
    </defs>
    <g clip-path="url(#p28c8d4e1e6)">
     <use style="fill:#808000;stroke:#808000;stroke-linejoin:bevel;" x="55.82" xlink:href="#m48541cb0e0" y="147.09579"/>
     <use style="fill:#808000;stroke:#808000;stroke-linejoin:bevel;" x="63.489045" xlink:href="#m48541cb0e0" y="147.107563"/>
     <use style="fill:#808000;stroke:#808000;stroke-linejoin:bevel;" x="71.15809" xlink:href="#m48541cb0e0" y="147.137673"/>
     <use style="fill:#808000;stroke:#808000;stroke-linejoin:bevel;" x="78.827136" xlink:href="#m48541cb0e0" y="147.198182"/>
     <use style="fill:#808000;stroke:#808000;stroke-linejoin:bevel;" x="86.496181" xlink:href="#m48541cb0e0" y="147.315241"/>
     <use style="fill:#808000;stroke:#808000;stroke-linejoin:bevel;" x="94.165226" xlink:href="#m48541cb0e0" y="147.533177"/>
     <use style="fill:#808000;stroke:#808000;stroke-linejoin:bevel;" x="101.834271" xlink:href="#m48541cb0e0" y="147.923551"/>
     <use style="fill:#808000;stroke:#808000;stroke-linejoin:bevel;" x="109.503317" xlink:href="#m48541cb0e0" y="148.59606"/>
     <use style="fill:#808000;stroke:#808000;stroke-linejoin:bevel;" x="117.172362" xlink:href="#m48541cb0e0" y="149.709855"/>
     <use style="fill:#808000;stroke:#808000;stroke-linejoin:bevel;" x="124.841407" xlink:href="#m48541cb0e0" y="151.482343"/>
     <use style="fill:#808000;stroke:#808000;stroke-linejoin:bevel;" x="132.510452" xlink:href="#m48541cb0e0" y="154.19109"/>
     <use style="fill:#808000;stroke:#808000;stroke-linejoin:bevel;" x="140.179497" xlink:href="#m48541cb0e0" y="158.163325"/>
     <use style="fill:#808000;stroke:#808000;stroke-linejoin:bevel;" x="147.848543" xlink:href="#m48541cb0e0" y="163.747709"/>
     <use style="fill:#808000;stroke:#808000;stroke-linejoin:bevel;" x="155.517588" xlink:href="#m48541cb0e0" y="171.265134"/>
     <use style="fill:#808000;stroke:#808000;stroke-linejoin:bevel;" x="163.186633" xlink:href="#m48541cb0e0" y="180.93984"/>
     <use style="fill:#808000;stroke:#808000;stroke-linejoin:bevel;" x="170.855678" xlink:href="#m48541cb0e0" y="192.818667"/>
     <use style="fill:#808000;stroke:#808000;stroke-linejoin:bevel;" x="178.524724" xlink:href="#m48541cb0e0" y="206.693326"/>
     <use style="fill:#808000;stroke:#808000;stroke-linejoin:bevel;" x="186.193769" xlink:href="#m48541cb0e0" y="222.045921"/>
     <use style="fill:#808000;stroke:#808000;stroke-linejoin:bevel;" x="193.862814" xlink:href="#m48541cb0e0" y="238.038805"/>
     <use style="fill:#808000;stroke:#808000;stroke-linejoin:bevel;" x="201.531859" xlink:href="#m48541cb0e0" y="253.564341"/>
     <use style="fill:#808000;stroke:#808000;stroke-linejoin:bevel;" x="209.200905" xlink:href="#m48541cb0e0" y="267.358153"/>
     <use style="fill:#808000;stroke:#808000;stroke-linejoin:bevel;" x="216.86995" xlink:href="#m48541cb0e0" y="278.163394"/>
     <use style="fill:#808000;stroke:#808000;stroke-linejoin:bevel;" x="224.538995" xlink:href="#m48541cb0e0" y="284.917845"/>
     <use style="fill:#808000;stroke:#808000;stroke-linejoin:bevel;" x="232.20804" xlink:href="#m48541cb0e0" y="286.925701"/>
     <use style="fill:#808000;stroke:#808000;stroke-linejoin:bevel;" x="239.877085" xlink:href="#m48541cb0e0" y="283.975637"/>
     <use style="fill:#808000;stroke:#808000;stroke-linejoin:bevel;" x="247.546131" xlink:href="#m48541cb0e0" y="276.377446"/>
     <use style="fill:#808000;stroke:#808000;stroke-linejoin:bevel;" x="255.215176" xlink:href="#m48541cb0e0" y="264.90845"/>
     <use style="fill:#808000;stroke:#808000;stroke-linejoin:bevel;" x="262.884221" xlink:href="#m48541cb0e0" y="250.68252"/>
     <use style="fill:#808000;stroke:#808000;stroke-linejoin:bevel;" x="270.553266" xlink:href="#m48541cb0e0" y="234.972232"/>
     <use style="fill:#808000;stroke:#808000;stroke-linejoin:bevel;" x="278.222312" xlink:href="#m48541cb0e0" y="219.023379"/>
     <use style="fill:#808000;stroke:#808000;stroke-linejoin:bevel;" x="285.891357" xlink:href="#m48541cb0e0" y="203.898736"/>
     <use style="fill:#808000;stroke:#808000;stroke-linejoin:bevel;" x="293.560402" xlink:href="#m48541cb0e0" y="190.376528"/>
     <use style="fill:#808000;stroke:#808000;stroke-linejoin:bevel;" x="301.229447" xlink:href="#m48541cb0e0" y="178.912882"/>
     <use style="fill:#808000;stroke:#808000;stroke-linejoin:bevel;" x="308.898492" xlink:href="#m48541cb0e0" y="169.661943"/>
     <use style="fill:#808000;stroke:#808000;stroke-linejoin:bevel;" x="316.567538" xlink:href="#m48541cb0e0" y="162.536491"/>
     <use style="fill:#808000;stroke:#808000;stroke-linejoin:bevel;" x="324.236583" xlink:href="#m48541cb0e0" y="157.287702"/>
     <use style="fill:#808000;stroke:#808000;stroke-linejoin:bevel;" x="331.905628" xlink:href="#m48541cb0e0" y="153.584568"/>
     <use style="fill:#808000;stroke:#808000;stroke-linejoin:bevel;" x="339.574673" xlink:href="#m48541cb0e0" y="151.079385"/>
     <use style="fill:#808000;stroke:#808000;stroke-linejoin:bevel;" x="347.243719" xlink:href="#m48541cb0e0" y="149.452867"/>
     <use style="fill:#808000;stroke:#808000;stroke-linejoin:bevel;" x="354.912764" xlink:href="#m48541cb0e0" y="148.438628"/>
     <use style="fill:#808000;stroke:#808000;stroke-linejoin:bevel;" x="362.581809" xlink:href="#m48541cb0e0" y="147.83086"/>
     <use style="fill:#808000;stroke:#808000;stroke-linejoin:bevel;" x="370.250854" xlink:href="#m48541cb0e0" y="147.480705"/>
     <use style="fill:#808000;stroke:#808000;stroke-linejoin:bevel;" x="377.919899" xlink:href="#m48541cb0e0" y="147.286668"/>
     <use style="fill:#808000;stroke:#808000;stroke-linejoin:bevel;" x="385.588945" xlink:href="#m48541cb0e0" y="147.183212"/>
     <use style="fill:#808000;stroke:#808000;stroke-linejoin:bevel;" x="393.25799" xlink:href="#m48541cb0e0" y="147.130124"/>
     <use style="fill:#808000;stroke:#808000;stroke-linejoin:bevel;" x="400.927035" xlink:href="#m48541cb0e0" y="147.103899"/>
     <use style="fill:#808000;stroke:#808000;stroke-linejoin:bevel;" x="408.59608" xlink:href="#m48541cb0e0" y="147.091425"/>
     <use style="fill:#808000;stroke:#808000;stroke-linejoin:bevel;" x="416.265126" xlink:href="#m48541cb0e0" y="147.085711"/>
     <use style="fill:#808000;stroke:#808000;stroke-linejoin:bevel;" x="423.934171" xlink:href="#m48541cb0e0" y="147.083189"/>
     <use style="fill:#808000;stroke:#808000;stroke-linejoin:bevel;" x="431.603216" xlink:href="#m48541cb0e0" y="147.082118"/>
    </g>
   </g>
   <g id="line2d_19">
    <defs>
     <path d="M 0 3  C 0.795609 3 1.55874 2.683901 2.12132 2.12132  C 2.683901 1.55874 3 0.795609 3 0  C 3 -0.795609 2.683901 -1.55874 2.12132 -2.12132  C 1.55874 -2.683901 0.795609 -3 0 -3  C -0.795609 -3 -1.55874 -2.683901 -2.12132 -2.12132  C -2.683901 -1.55874 -3 -0.795609 -3 0  C -3 0.795609 -2.683901 1.55874 -2.12132 2.12132  C -1.55874 2.683901 -0.795609 3 0 3  z " id="m81e02ef0bc" style="stroke:#008080;"/>
    </defs>
    <g clip-path="url(#p28c8d4e1e6)">
     <use style="fill:#008080;stroke:#008080;" x="55.82" xlink:href="#m81e02ef0bc" y="147.392868"/>
     <use style="fill:#008080;stroke:#008080;" x="63.489045" xlink:href="#m81e02ef0bc" y="147.52228"/>
     <use style="fill:#008080;stroke:#008080;" x="71.15809" xlink:href="#m81e02ef0bc" y="147.766356"/>
     <use style="fill:#008080;stroke:#008080;" x="78.827136" xlink:href="#m81e02ef0bc" y="148.116965"/>
     <use style="fill:#008080;stroke:#008080;" x="86.496181" xlink:href="#m81e02ef0bc" y="148.602453"/>
     <use style="fill:#008080;stroke:#008080;" x="94.165226" xlink:href="#m81e02ef0bc" y="149.247527"/>
     <use style="fill:#008080;stroke:#008080;" x="101.834271" xlink:href="#m81e02ef0bc" y="150.064786"/>
     <use style="fill:#008080;stroke:#008080;" x="109.503317" xlink:href="#m81e02ef0bc" y="151.04278"/>
     <use style="fill:#008080;stroke:#008080;" x="117.172362" xlink:href="#m81e02ef0bc" y="152.131445"/>
     <use style="fill:#008080;stroke:#008080;" x="124.841407" xlink:href="#m81e02ef0bc" y="153.227283"/>
     <use style="fill:#008080;stroke:#008080;" x="132.510452" xlink:href="#m81e02ef0bc" y="154.162374"/>
     <use style="fill:#008080;stroke:#008080;" x="140.179497" xlink:href="#m81e02ef0bc" y="154.702814"/>
     <use style="fill:#008080;stroke:#008080;" x="147.848543" xlink:href="#m81e02ef0bc" y="154.562531"/>
     <use style="fill:#008080;stroke:#008080;" x="155.517588" xlink:href="#m81e02ef0bc" y="153.436931"/>
     <use style="fill:#008080;stroke:#008080;" x="163.186633" xlink:href="#m81e02ef0bc" y="151.0569"/>
     <use style="fill:#008080;stroke:#008080;" x="170.855678" xlink:href="#m81e02ef0bc" y="147.257599"/>
     <use style="fill:#008080;stroke:#008080;" x="178.524724" xlink:href="#m81e02ef0bc" y="142.049547"/>
     <use style="fill:#008080;stroke:#008080;" x="186.193769" xlink:href="#m81e02ef0bc" y="135.673918"/>
     <use style="fill:#008080;stroke:#008080;" x="193.862814" xlink:href="#m81e02ef0bc" y="128.622443"/>
     <use style="fill:#008080;stroke:#008080;" x="201.531859" xlink:href="#m81e02ef0bc" y="121.606715"/>
     <use style="fill:#008080;stroke:#008080;" x="209.200905" xlink:href="#m81e02ef0bc" y="115.472332"/>
     <use style="fill:#008080;stroke:#008080;" x="216.86995" xlink:href="#m81e02ef0bc" y="111.06798"/>
     <use style="fill:#008080;stroke:#008080;" x="224.538995" xlink:href="#m81e02ef0bc" y="109.094043"/>
     <use style="fill:#008080;stroke:#008080;" x="232.20804" xlink:href="#m81e02ef0bc" y="109.964603"/>
     <use style="fill:#008080;stroke:#008080;" x="239.877085" xlink:href="#m81e02ef0bc" y="113.716847"/>
     <use style="fill:#008080;stroke:#008080;" x="247.546131" xlink:href="#m81e02ef0bc" y="119.991864"/>
     <use style="fill:#008080;stroke:#008080;" x="255.215176" xlink:href="#m81e02ef0bc" y="128.093213"/>
     <use style="fill:#008080;stroke:#008080;" x="262.884221" xlink:href="#m81e02ef0bc" y="137.109723"/>
     <use style="fill:#008080;stroke:#008080;" x="270.553266" xlink:href="#m81e02ef0bc" y="146.073137"/>
     <use style="fill:#008080;stroke:#008080;" x="278.222312" xlink:href="#m81e02ef0bc" y="154.114194"/>
     <use style="fill:#008080;stroke:#008080;" x="285.891357" xlink:href="#m81e02ef0bc" y="160.584189"/>
     <use style="fill:#008080;stroke:#008080;" x="293.560402" xlink:href="#m81e02ef0bc" y="165.120993"/>
     <use style="fill:#008080;stroke:#008080;" x="301.229447" xlink:href="#m81e02ef0bc" y="167.654428"/>
     <use style="fill:#008080;stroke:#008080;" x="308.898492" xlink:href="#m81e02ef0bc" y="168.360639"/>
     <use style="fill:#008080;stroke:#008080;" x="316.567538" xlink:href="#m81e02ef0bc" y="167.584661"/>
     <use style="fill:#008080;stroke:#008080;" x="324.236583" xlink:href="#m81e02ef0bc" y="165.753197"/>
     <use style="fill:#008080;stroke:#008080;" x="331.905628" xlink:href="#m81e02ef0bc" y="163.296381"/>
     <use style="fill:#008080;stroke:#008080;" x="339.574673" xlink:href="#m81e02ef0bc" y="160.590458"/>
     <use style="fill:#008080;stroke:#008080;" x="347.243719" xlink:href="#m81e02ef0bc" y="157.925573"/>
     <use style="fill:#008080;stroke:#008080;" x="354.912764" xlink:href="#m81e02ef0bc" y="155.496524"/>
     <use style="fill:#008080;stroke:#008080;" x="362.581809" xlink:href="#m81e02ef0bc" y="153.41051"/>
     <use style="fill:#008080;stroke:#008080;" x="370.250854" xlink:href="#m81e02ef0bc" y="151.704683"/>
     <use style="fill:#008080;stroke:#008080;" x="377.919899" xlink:href="#m81e02ef0bc" y="150.367094"/>
     <use style="fill:#008080;stroke:#008080;" x="385.588945" xlink:href="#m81e02ef0bc" y="149.356419"/>
     <use style="fill:#008080;stroke:#008080;" x="393.25799" xlink:href="#m81e02ef0bc" y="148.617887"/>
     <use style="fill:#008080;stroke:#008080;" x="400.927035" xlink:href="#m81e02ef0bc" y="148.094548"/>
     <use style="fill:#008080;stroke:#008080;" x="408.59608" xlink:href="#m81e02ef0bc" y="147.73416"/>
     <use style="fill:#008080;stroke:#008080;" x="416.265126" xlink:href="#m81e02ef0bc" y="147.492588"/>
     <use style="fill:#008080;stroke:#008080;" x="423.934171" xlink:href="#m81e02ef0bc" y="147.334765"/>
     <use style="fill:#008080;stroke:#008080;" x="431.603216" xlink:href="#m81e02ef0bc" y="147.234171"/>
    </g>
   </g>
   <g id="line2d_20">
    <path clip-path="url(#p28c8d4e1e6)" d="M 55.447407 147.065167  L 78.250086 146.954059  L 91.216315 146.698697  L 99.711431 146.325573  L 106.418101 145.818181  L 111.783437 145.205714  L 116.701662 144.420107  L 120.725664 143.570453  L 124.749666 142.488537  L 128.326557 141.292164  L 131.456337 140.03295  L 134.586116 138.546867  L 137.715895 136.805414  L 140.845675 134.779709  L 143.528343 132.795656  L 146.211011 130.565101  L 148.893679 128.072812  L 151.576347 125.305902  L 154.259015 122.254647  L 157.388795 118.328099  L 160.518574 114.006342  L 163.983687 108.861067  L 164.654354 107.707881  L 168.231245 101.762118  L 172.255247 94.600022  L 177.173472 85.341723  L 191.25748 58.46917  L 194.83437 52.266209  L 197.96415 47.250572  L 200.926263 42.923676  L 203.608931 39.398572  L 206.068043 36.519878  L 208.415378 34.100918  L 210.650934 32.103553  L 212.774713 30.486298  L 214.898492 29.142525  L 216.910493 28.120069  L 218.922494 27.338194  L 220.934495 26.792406  L 222.946496 26.477181  L 224.958498 26.386212  L 227.054332 26.522522  L 229.122222 26.88023  L 231.246001 27.469905  L 233.481558 28.324407  L 235.773003 29.438674  L 238.176227 30.854951  L 240.691228 32.595647  L 243.373896 34.728758  L 246.196287 37.263402  L 249.214288 40.282111  L 252.455846 43.852791  L 255.920958 48.011383  L 259.721405 52.930496  L 263.968963 58.799814  L 269.110743 66.299501  L 277.326414 78.739464  L 285.374419 90.795388  L 290.516199 98.097302  L 294.763757 103.759824  L 298.787759 108.751131  L 302.36465 112.850395  L 305.941541 116.614742  L 309.294876 119.833812  L 312.648211 122.754657  L 316.113324 125.467896  L 319.690215 127.958373  L 323.267105 130.153614  L 326.843996 132.077075  L 330.420887 133.754112  L 334.444889 135.378655  L 338.468891 136.760839  L 342.940005 138.054509  L 347.85823 139.233291  L 353.223566 140.284995  L 359.483125 141.273877  L 366.636906 142.172936  L 375.579133 143.056576  L 386.309806 143.885312  L 399.723146 144.693782  L 416.266266 145.460077  L 435.939166 146.140717  L 437.727611 146.180128  L 437.727611 146.180128  " style="fill:none;stroke:#e74c3c;stroke-linecap:square;stroke-width:2;"/>
   </g>
   <g id="line2d_21">
    <path clip-path="url(#p28c8d4e1e6)" d="M 55.447407 147.065543  L 98.370097 147.176372  L 107.312324 147.451287  L 114.018994 147.873229  L 119.38433 148.427574  L 123.855444 149.098514  L 127.879446 149.915292  L 131.456337 150.851942  L 135.033227 152.027577  L 138.163007 153.286002  L 141.292786 154.790924  L 144.422566 156.574132  L 147.105234 158.348435  L 149.787902 160.370645  L 152.47057 162.659683  L 155.153238 165.232902  L 157.835906 168.105393  L 160.518574 171.289234  L 163.983687 175.79721  L 164.87791 177.146723  L 167.784134 181.525674  L 170.913913 186.6577  L 174.267248 192.613238  L 177.844139 199.442684  L 181.868141 207.629399  L 186.786366 218.175105  L 202.491152 252.284203  L 206.179821 259.527522  L 209.3096 265.209296  L 212.215824 270.030088  L 214.786714 273.882389  L 217.245827 277.171569  L 219.481384 279.803477  L 221.605162 281.971822  L 223.617163 283.71651  L 225.517387 285.080062  L 227.389665 286.148082  L 229.178111 286.909398  L 230.910667 287.403618  L 232.587335 287.653006  L 234.264002 287.677276  L 235.94067 287.477296  L 237.617338 287.054763  L 239.349894 286.387013  L 241.138339 285.455157  L 242.982674 284.241353  L 244.854953 282.753291  L 246.866954 280.875909  L 248.990733 278.593793  L 251.338067 275.730352  L 253.79718 272.370427  L 256.479848 268.318211  L 259.386071 263.519045  L 262.627629 257.731323  L 266.428075 250.470651  L 271.122744 240.994861  L 289.174865 204.01193  L 293.198867 196.548769  L 296.775758 190.352719  L 300.129093 184.961628  L 303.482428 180.000346  L 306.612208 175.768995  L 309.741987 171.92489  L 312.648211 168.697177  L 315.666213 165.683295  L 318.795992 162.905616  L 321.925771 160.461604  L 325.055551 158.327687  L 328.18533 156.47847  L 331.31511 154.887675  L 334.444889 153.528946  L 338.02178 152.227267  L 341.598671 151.158422  L 345.622673 150.191999  L 350.093786 149.360245  L 355.012011 148.679523  L 360.824459 148.114775  L 367.531129 147.692723  L 376.026245 147.385684  L 388.098251 147.187669  L 409.559596 147.095277  L 437.727611 147.082153  L 437.727611 147.082153  " style="fill:none;stroke:#808000;stroke-linecap:square;stroke-width:2;"/>
   </g>
   <g id="line2d_22">
    <path clip-path="url(#p28c8d4e1e6)" d="M 55.447407 147.113498  L 76.014529 147.220274  L 92.110538 147.480942  L 103.735433 147.882572  L 113.124771 148.426766  L 121.172776 149.111902  L 128.326557 149.931359  L 135.480339 150.974138  L 142.63412 152.241412  L 151.576347 154.072394  L 163.201242 156.456677  L 170.690358 157.528808  L 174.267248 157.764487  L 177.620583 157.760326  L 180.750363 157.522673  L 183.656587 157.073029  L 186.339255 156.444903  L 189.021923 155.601096  L 191.704591 154.5362  L 194.610815 153.134058  L 197.517038 151.483127  L 200.702707 149.410778  L 204.279598 146.802769  L 208.527155 143.416584  L 223.728941 131.024258  L 227.16611 128.672874  L 230.184111 126.871158  L 232.978557 125.453672  L 235.661225 124.339189  L 238.232116 123.508855  L 240.747117 122.927155  L 243.262118 122.57438  L 245.749175 122.447562  L 248.320066 122.541472  L 251.002734 122.871717  L 253.79718 123.451021  L 256.703403 124.285437  L 259.833183 125.417594  L 263.298296 126.909887  L 267.322298 128.890439  L 272.464078 131.682299  L 290.069088 141.451674  L 294.987313 143.80145  L 299.458426 145.693487  L 303.705984 147.257129  L 307.953542 148.587707  L 312.2011 149.689326  L 316.560435 150.593774  L 321.031549 151.302048  L 325.949774 151.852456  L 331.31511 152.218613  L 337.127557 152.389895  L 343.834228 152.364435  L 352.329343 152.095942  L 364.40135 151.465714  L 405.982705 149.133999  L 425.208493 148.364612  L 437.727611 147.981927  L 437.727611 147.981927  " style="fill:none;stroke:#008080;stroke-linecap:square;stroke-width:2;"/>
   </g>
   <g id="patch_3">
    <path d="M 55.82 300.76  L 55.82 13.32  " style="fill:none;stroke:#000000;stroke-linecap:square;stroke-linejoin:miter;stroke-width:0.8;"/>
   </g>
   <g id="patch_4">
    <path d="M 437.355 300.76  L 437.355 13.32  " style="fill:none;stroke:#000000;stroke-linecap:square;stroke-linejoin:miter;stroke-width:0.8;"/>
   </g>
   <g id="patch_5">
    <path d="M 55.82 300.76  L 437.355 300.76  " style="fill:none;stroke:#000000;stroke-linecap:square;stroke-linejoin:miter;stroke-width:0.8;"/>
   </g>
   <g id="patch_6">
    <path d="M 55.82 13.32  L 437.355 13.32  " style="fill:none;stroke:#000000;stroke-linecap:square;stroke-linejoin:miter;stroke-width:0.8;"/>
   </g>
   <g id="legend_1">
    <g id="patch_7">
     <path d="M 364.131563 109.38875  L 430.355 109.38875  Q 432.355 109.38875 432.355 107.38875  L 432.355 20.32  Q 432.355 18.32 430.355 18.32  L 364.131563 18.32  Q 362.131563 18.32 362.131563 20.32  L 362.131563 107.38875  Q 362.131563 109.38875 364.131563 109.38875  z " style="fill:#ffffff;opacity:0.8;stroke:#cccccc;stroke-linejoin:miter;"/>
    </g>
    <g id="line2d_23"/>
    <g id="line2d_24">
     <g>
      <use style="fill:#e74c3c;stroke:#e74c3c;stroke-linejoin:miter;" x="376.131563" xlink:href="#mf53c2fc3b8" y="26.418437"/>
     </g>
    </g>
    <g id="text_19">
     <!-- exp-Al -->
     <defs>
      <path d="M 54.890625 54.6875  L 35.109375 28.078125  L 55.90625 0  L 45.3125 0  L 29.390625 21.484375  L 13.484375 0  L 2.875 0  L 24.125 28.609375  L 4.6875 54.6875  L 15.28125 54.6875  L 29.78125 35.203125  L 44.28125 54.6875  z " id="DejaVuSans-78"/>
      <path d="M 4.890625 31.390625  L 31.203125 31.390625  L 31.203125 23.390625  L 4.890625 23.390625  z " id="DejaVuSans-2d"/>
      <path d="M 34.1875 63.1875  L 20.796875 26.90625  L 47.609375 26.90625  z M 28.609375 72.90625  L 39.796875 72.90625  L 67.578125 0  L 57.328125 0  L 50.6875 18.703125  L 17.828125 18.703125  L 11.1875 0  L 0.78125 0  z " id="DejaVuSans-41"/>
     </defs>
     <g transform="translate(394.131563 29.918437)scale(0.1 -0.1)">
      <use xlink:href="#DejaVuSans-65"/>
      <use x="61.507812" xlink:href="#DejaVuSans-78"/>
      <use x="120.6875" xlink:href="#DejaVuSans-70"/>
      <use x="184.164062" xlink:href="#DejaVuSans-2d"/>
      <use x="220.216797" xlink:href="#DejaVuSans-41"/>
      <use x="288.625" xlink:href="#DejaVuSans-6c"/>
     </g>
    </g>
    <g id="line2d_25"/>
    <g id="line2d_26">
     <g>
      <use style="fill:#808000;stroke:#808000;stroke-linejoin:bevel;" x="376.131563" xlink:href="#m48541cb0e0" y="41.096563"/>
     </g>
    </g>
    <g id="text_20">
     <!-- exp-Ta -->
     <defs>
      <path d="M -0.296875 72.90625  L 61.375 72.90625  L 61.375 64.59375  L 35.5 64.59375  L 35.5 0  L 25.59375 0  L 25.59375 64.59375  L -0.296875 64.59375  z " id="DejaVuSans-54"/>
     </defs>
     <g transform="translate(394.131563 44.596563)scale(0.1 -0.1)">
      <use xlink:href="#DejaVuSans-65"/>
      <use x="61.507812" xlink:href="#DejaVuSans-78"/>
      <use x="120.6875" xlink:href="#DejaVuSans-70"/>
      <use x="184.164062" xlink:href="#DejaVuSans-2d"/>
      <use x="220.107422" xlink:href="#DejaVuSans-54"/>
      <use x="280.941406" xlink:href="#DejaVuSans-61"/>
     </g>
    </g>
    <g id="line2d_27"/>
    <g id="line2d_28">
     <g>
      <use style="fill:#008080;stroke:#008080;" x="376.131563" xlink:href="#m81e02ef0bc" y="55.774687"/>
     </g>
    </g>
    <g id="text_21">
     <!-- exp-Ni -->
     <defs>
      <path d="M 9.8125 72.90625  L 23.09375 72.90625  L 55.421875 11.921875  L 55.421875 72.90625  L 64.984375 72.90625  L 64.984375 0  L 51.703125 0  L 19.390625 60.984375  L 19.390625 0  L 9.8125 0  z " id="DejaVuSans-4e"/>
     </defs>
     <g transform="translate(394.131563 59.274687)scale(0.1 -0.1)">
      <use xlink:href="#DejaVuSans-65"/>
      <use x="61.507812" xlink:href="#DejaVuSans-78"/>
      <use x="120.6875" xlink:href="#DejaVuSans-70"/>
      <use x="184.164062" xlink:href="#DejaVuSans-2d"/>
      <use x="220.248047" xlink:href="#DejaVuSans-4e"/>
      <use x="295.052734" xlink:href="#DejaVuSans-69"/>
     </g>
    </g>
    <g id="line2d_29">
     <path d="M 366.131563 70.452812  L 386.131563 70.452812  " style="fill:none;stroke:#e74c3c;stroke-linecap:square;stroke-width:2;"/>
    </g>
    <g id="line2d_30"/>
    <g id="text_22">
     <!-- sim-Al -->
     <g transform="translate(394.131563 73.952812)scale(0.1 -0.1)">
      <use xlink:href="#DejaVuSans-73"/>
      <use x="52.099609" xlink:href="#DejaVuSans-69"/>
      <use x="79.882812" xlink:href="#DejaVuSans-6d"/>
      <use x="177.294922" xlink:href="#DejaVuSans-2d"/>
      <use x="213.347656" xlink:href="#DejaVuSans-41"/>
      <use x="281.755859" xlink:href="#DejaVuSans-6c"/>
     </g>
    </g>
    <g id="line2d_31">
     <path d="M 366.131563 85.130938  L 386.131563 85.130938  " style="fill:none;stroke:#808000;stroke-linecap:square;stroke-width:2;"/>
    </g>
    <g id="line2d_32"/>
    <g id="text_23">
     <!-- sim-Ta -->
     <g transform="translate(394.131563 88.630938)scale(0.1 -0.1)">
      <use xlink:href="#DejaVuSans-73"/>
      <use x="52.099609" xlink:href="#DejaVuSans-69"/>
      <use x="79.882812" xlink:href="#DejaVuSans-6d"/>
      <use x="177.294922" xlink:href="#DejaVuSans-2d"/>
      <use x="213.238281" xlink:href="#DejaVuSans-54"/>
      <use x="274.072266" xlink:href="#DejaVuSans-61"/>
     </g>
    </g>
    <g id="line2d_33">
     <path d="M 366.131563 99.809062  L 386.131563 99.809062  " style="fill:none;stroke:#008080;stroke-linecap:square;stroke-width:2;"/>
    </g>
    <g id="line2d_34"/>
    <g id="text_24">
     <!-- sim-Ni -->
     <g transform="translate(394.131563 103.309062)scale(0.1 -0.1)">
      <use xlink:href="#DejaVuSans-73"/>
      <use x="52.099609" xlink:href="#DejaVuSans-69"/>
      <use x="79.882812" xlink:href="#DejaVuSans-6d"/>
      <use x="177.294922" xlink:href="#DejaVuSans-2d"/>
      <use x="213.378906" xlink:href="#DejaVuSans-4e"/>
      <use x="288.183594" xlink:href="#DejaVuSans-69"/>
     </g>
    </g>
   </g>
  </g>
 </g>
 <defs>
  <clipPath id="p28c8d4e1e6">
   <rect height="287.44" width="381.535" x="55.82" y="13.32"/>
  </clipPath>
 </defs>
</g>
    <g transform="translate(10, 300) scale(1) ">
      <g transform="translate(0, 0) scale(3.0) "><defs id="defs831"/>
  <sodipodi:namedview xmlns:sodipodi="http://sodipodi.sourceforge.net/DTD/sodipodi-0.dtd" xmlns:inkscape="http://www.inkscape.org/namespaces/inkscape" id="base" pagecolor="#ffffff" bordercolor="#666666" borderopacity="1.0" inkscape:pageopacity="0.0" inkscape:pageshadow="2" inkscape:zoom="1.979899" inkscape:cx="-12.763683" inkscape:cy="-16.680883" inkscape:document-units="mm" inkscape:current-layer="layer1" showgrid="false" inkscape:window-width="1920" inkscape:window-height="1001" inkscape:window-x="-9" inkscape:window-y="-9" inkscape:window-maximized="1" units="pt"/>
  <metadata xmlns:rdf="http://www.w3.org/1999/02/22-rdf-syntax-ns#" xmlns:cc="http://creativecommons.org/ns#" xmlns:dc="http://purl.org/dc/elements/1.1/" id="metadata834">
    <rdf:RDF>
      <cc:Work rdf:about="">
        <dc:format>image/svg+xml</dc:format>
        <dc:type rdf:resource="http://purl.org/dc/dcmitype/StillImage"/>
        <dc:title/>
      </cc:Work>
    </rdf:RDF>
  </metadata>
  <g xmlns:inkscape="http://www.inkscape.org/namespaces/inkscape" xmlns:sodipodi="http://sodipodi.sourceforge.net/DTD/sodipodi-0.dtd" inkscape:label="Layer 1" inkscape:groupmode="layer" id="layer1" transform="translate(0,-288.81557)">
    <g id="g4761" transform="matrix(0.07377843,0,0,0.07377843,-0.76923022,275.45946)">
      <path inkscape:connector-curvature="0" id="path1959-6-7-1-6-5-4-0-3-2-6-0-3-9-6" style="font-style:normal;font-variant:normal;font-weight:bold;font-stretch:normal;font-size:120.99466705px;line-height:1.25;font-family:Aharoni;-inkscape-font-specification:'Aharoni, Bold';font-variant-ligatures:normal;font-variant-caps:normal;font-variant-numeric:normal;font-feature-settings:normal;text-align:start;letter-spacing:0px;word-spacing:0px;writing-mode:lr-tb;text-anchor:start;fill:#000000;fill-opacity:1;stroke:none;stroke-width:2.37649584" d="M 52.937412,287.55677 H 40.587702 V 265.43005 H 22.776041 v 22.12672 h -12.34982 v -53.17432 h 12.34982 v 20.5296 h 17.811661 v -20.5296 h 12.34971 z"/>
      <path inkscape:connector-curvature="0" id="path1961-2-9-7-9-3-1-6-5-1-5-8-7-8-2" style="font-style:normal;font-variant:normal;font-weight:bold;font-stretch:normal;font-size:120.99466705px;line-height:1.25;font-family:Aharoni;-inkscape-font-specification:'Aharoni, Bold';font-variant-ligatures:normal;font-variant-caps:normal;font-variant-numeric:normal;font-feature-settings:normal;text-align:start;letter-spacing:0px;word-spacing:0px;writing-mode:lr-tb;text-anchor:start;fill:#000000;fill-opacity:1;stroke:none;stroke-width:2.37649584" d="m 69.681125,237.49895 q 0,3.0385 -1.87856,5.1421 -1.84375,2.0647 -4.55721,2.0647 -2.67866,0 -4.55722,-2.1036 -1.84375,-2.1036 -1.84375,-5.1032 0,-2.9996 1.84375,-5.0642 1.87856,-2.1036 4.55722,-2.1036 2.67865,0 4.55721,2.1036 1.87856,2.0646 1.87856,5.0642 z m -0.73057,50.05782 h -11.41048 v -36.15072 h 11.41048 z"/>
      <path inkscape:connector-curvature="0" id="path1963-3-1-2-8-3-6-3-3-3-4-7-6-0-8" style="font-style:normal;font-variant:normal;font-weight:bold;font-stretch:normal;font-size:120.99466705px;line-height:1.25;font-family:Aharoni;-inkscape-font-specification:'Aharoni, Bold';font-variant-ligatures:normal;font-variant-caps:normal;font-variant-numeric:normal;font-feature-settings:normal;text-align:start;letter-spacing:0px;word-spacing:0px;writing-mode:lr-tb;text-anchor:start;fill:#000000;fill-opacity:1;stroke:none;stroke-width:2.37649584" d="m 93.369625,261.92405 h -6.50536 v 25.63272 h -11.4104 v -25.63272 h -3.75712 v -10.518 h 3.75712 v -10.8686 h 11.4104 v 10.8686 h 6.50536 z"/>
      <path id="path1967-3-3-6-2-9-6-2-5-3-0-9-8-2-1" style="font-style:normal;font-variant:normal;font-weight:bold;font-stretch:normal;font-size:120.99466705px;line-height:1.25;font-family:Aharoni;-inkscape-font-specification:'Aharoni, Bold';font-variant-ligatures:normal;font-variant-caps:normal;font-variant-numeric:normal;font-feature-settings:normal;text-align:start;letter-spacing:0px;word-spacing:0px;writing-mode:lr-tb;text-anchor:start;fill:#000000;fill-opacity:1;stroke:none;stroke-width:2.37649584" d="m 160.61447,287.55677 h -12.34971 v -53.17432 h 12.34971 z" inkscape:connector-curvature="0"/>
      <path inkscape:connector-curvature="0" id="path1969-8-0-8-5-3-5-6-6-3-9-8-6-2-0" style="font-style:normal;font-variant:normal;font-weight:bold;font-stretch:normal;font-size:120.99466705px;line-height:1.25;font-family:Aharoni;-inkscape-font-specification:'Aharoni, Bold';font-variant-ligatures:normal;font-variant-caps:normal;font-variant-numeric:normal;font-feature-settings:normal;text-align:start;letter-spacing:0px;word-spacing:0px;writing-mode:lr-tb;text-anchor:start;fill:#000000;fill-opacity:1;stroke:none;stroke-width:2.37649584" d="m 201.6896,284.86883 q -6.05314,2.68794 -11.20172,2.68794 -8.97528,0 -16.07201,-6.42764 -9.04489,-8.21959 -9.04489,-21.42558 0,-13.2448 9.04489,-21.4644 7.09673,-6.4277 16.17636,-6.4277 4.93989,0 11.09737,2.6879 v 16.5561 q -1.73941,-2.3763 -3.54836,-3.5839 -3.30489,-2.2204 -7.09679,-2.2204 -4.8007,0 -8.34907,3.2333 -4.48766,4.0903 -4.48766,11.2191 0,7.0899 4.48766,11.1803 3.54837,3.23328 8.34907,3.23328 3.7919,0 7.09679,-2.22049 1.77415,-1.16869 3.54836,-3.58389 z"/>
      <path inkscape:transform-center-y="-13.656107" inkscape:transform-center-x="-3.9758045" sodipodi:nodetypes="csssssc" inkscape:connector-curvature="0" id="rect815-3-0-9-3-5-6-0-4-03-7-3-7-5-3-2-76-3-8-8-5-3-7-8-0-1-3-7-9-2-8-1" d="m 104.61223,181.4353 c 0,0 17.68257,27.27493 22.63096,34.41579 7.92879,11.44185 16.42741,30.36094 17.92806,45.50275 1.21005,12.20999 -1.38345,26.51285 -17.32077,30.11208 -11.70405,2.64313 -26.75007,-5.41371 -30.334975,-20.50903 -3.30533,-13.91816 -2.13088,-34.61412 0.0984,-48.67354 1.22049,-7.69719 5.657305,-36.06774 6.998335,-40.84805 z" style="font-style:normal;font-weight:normal;font-size:242.08590698px;line-height:1.25;font-family:sans-serif;letter-spacing:0px;word-spacing:0px;opacity:1;fill:#00456b;fill-opacity:1;stroke:none;stroke-width:0.6720385;stroke-miterlimit:4;stroke-dasharray:none;stroke-dashoffset:0;stroke-opacity:1;paint-order:markers fill stroke"/>
      <path sodipodi:nodetypes="ccscscsccscccscc" d="m 107.52748,246.32531 6.45576,30.78617 6.82019,-1.47997 c 5.75791,-1.24946 9.70999,-3.40081 11.85576,-6.45394 2.16431,-3.05721 2.68673,-7.25521 1.56721,-12.59398 -1.11209,-5.30332 -3.26743,-8.89247 -6.46601,-10.76744 -3.18372,-1.89669 -7.65528,-2.22015 -13.4127,-0.97081 z m -8.759905,-5.09591 12.713095,-2.78742 c 8.8634,-1.94336 15.73718,-1.59097 20.62135,1.05715 4.88003,2.62843 8.10326,7.71587 9.6697,15.26232 1.57464,7.58584 0.64804,13.61405 -2.77981,18.08462 -3.42783,4.4705 -9.55303,7.67294 -18.37559,9.60735 l -12.71311,2.78742 z" style="font-style:normal;font-weight:normal;font-size:242.08590698px;line-height:1.25;font-family:sans-serif;letter-spacing:0px;word-spacing:0px;fill:#ffffff;fill-opacity:1;stroke:none;stroke-width:1.60286868" id="path1193-3-5-3-2-7-4-5-6-0-0-6-9-2-4-7-0-0" inkscape:connector-curvature="0"/>
    </g>
  </g>
</g>
    </g>
  </g>
</svg>
