<?xml version='1.0' encoding='ASCII' standalone='yes'?>
<svg xmlns:xlink="http://www.w3.org/1999/xlink" xmlns="http://www.w3.org/2000/svg" version="1.1" width="460.8px" viewBox="0 0 460.8px 345.6px" height="345.6px">
  <g>
    <g><defs>
  <style type="text/css">
*{stroke-linecap:butt;stroke-linejoin:round;}
  </style>
 </defs>
 <g id="figure_1">
  <g id="patch_1">
   <path d="M 0 345.6  L 460.8 345.6  L 460.8 0  L 0 0  z " style="fill:#ffffff;"/>
  </g>
  <g id="axes_1">
   <g id="patch_2">
    <path d="M 62.21 300.76  L 437.355 300.76  L 437.355 13.32  L 62.21 13.32  z " style="fill:#ffffff;"/>
   </g>
   <g id="matplotlib.axis_1">
    <g id="xtick_1">
     <g id="line2d_1">
      <defs>
       <path d="M 0 0  L 0 3.5  " id="ma8fec608b9" style="stroke:#000000;stroke-width:0.8;"/>
      </defs>
      <g>
       <use style="stroke:#000000;stroke-width:0.8;" x="62.21" xlink:href="#ma8fec608b9" y="300.76"/>
      </g>
     </g>
     <g id="text_1">
      <!-- 0 -->
      <defs>
       <path d="M 31.78125 66.40625  Q 24.171875 66.40625 20.328125 58.90625  Q 16.5 51.421875 16.5 36.375  Q 16.5 21.390625 20.328125 13.890625  Q 24.171875 6.390625 31.78125 6.390625  Q 39.453125 6.390625 43.28125 13.890625  Q 47.125 21.390625 47.125 36.375  Q 47.125 51.421875 43.28125 58.90625  Q 39.453125 66.40625 31.78125 66.40625  z M 31.78125 74.21875  Q 44.046875 74.21875 50.515625 64.515625  Q 56.984375 54.828125 56.984375 36.375  Q 56.984375 17.96875 50.515625 8.265625  Q 44.046875 -1.421875 31.78125 -1.421875  Q 19.53125 -1.421875 13.0625 8.265625  Q 6.59375 17.96875 6.59375 36.375  Q 6.59375 54.828125 13.0625 64.515625  Q 19.53125 74.21875 31.78125 74.21875  z " id="DejaVuSans-30"/>
      </defs>
      <g transform="translate(59.02875 315.358437)scale(0.1 -0.1)">
       <use xlink:href="#DejaVuSans-30"/>
      </g>
     </g>
    </g>
    <g id="xtick_2">
     <g id="line2d_2">
      <g>
       <use style="stroke:#000000;stroke-width:0.8;" x="115.802143" xlink:href="#ma8fec608b9" y="300.76"/>
      </g>
     </g>
     <g id="text_2">
      <!-- 200 -->
      <defs>
       <path d="M 19.1875 8.296875  L 53.609375 8.296875  L 53.609375 0  L 7.328125 0  L 7.328125 8.296875  Q 12.9375 14.109375 22.625 23.890625  Q 32.328125 33.6875 34.8125 36.53125  Q 39.546875 41.84375 41.421875 45.53125  Q 43.3125 49.21875 43.3125 52.78125  Q 43.3125 58.59375 39.234375 62.25  Q 35.15625 65.921875 28.609375 65.921875  Q 23.96875 65.921875 18.8125 64.3125  Q 13.671875 62.703125 7.8125 59.421875  L 7.8125 69.390625  Q 13.765625 71.78125 18.9375 73  Q 24.125 74.21875 28.421875 74.21875  Q 39.75 74.21875 46.484375 68.546875  Q 53.21875 62.890625 53.21875 53.421875  Q 53.21875 48.921875 51.53125 44.890625  Q 49.859375 40.875 45.40625 35.40625  Q 44.1875 33.984375 37.640625 27.21875  Q 31.109375 20.453125 19.1875 8.296875  z " id="DejaVuSans-32"/>
      </defs>
      <g transform="translate(106.258393 315.358437)scale(0.1 -0.1)">
       <use xlink:href="#DejaVuSans-32"/>
       <use x="63.623047" xlink:href="#DejaVuSans-30"/>
       <use x="127.246094" xlink:href="#DejaVuSans-30"/>
      </g>
     </g>
    </g>
    <g id="xtick_3">
     <g id="line2d_3">
      <g>
       <use style="stroke:#000000;stroke-width:0.8;" x="169.394286" xlink:href="#ma8fec608b9" y="300.76"/>
      </g>
     </g>
     <g id="text_3">
      <!-- 400 -->
      <defs>
       <path d="M 37.796875 64.3125  L 12.890625 25.390625  L 37.796875 25.390625  z M 35.203125 72.90625  L 47.609375 72.90625  L 47.609375 25.390625  L 58.015625 25.390625  L 58.015625 17.1875  L 47.609375 17.1875  L 47.609375 0  L 37.796875 0  L 37.796875 17.1875  L 4.890625 17.1875  L 4.890625 26.703125  z " id="DejaVuSans-34"/>
      </defs>
      <g transform="translate(159.850536 315.358437)scale(0.1 -0.1)">
       <use xlink:href="#DejaVuSans-34"/>
       <use x="63.623047" xlink:href="#DejaVuSans-30"/>
       <use x="127.246094" xlink:href="#DejaVuSans-30"/>
      </g>
     </g>
    </g>
    <g id="xtick_4">
     <g id="line2d_4">
      <g>
       <use style="stroke:#000000;stroke-width:0.8;" x="222.986429" xlink:href="#ma8fec608b9" y="300.76"/>
      </g>
     </g>
     <g id="text_4">
      <!-- 600 -->
      <defs>
       <path d="M 33.015625 40.375  Q 26.375 40.375 22.484375 35.828125  Q 18.609375 31.296875 18.609375 23.390625  Q 18.609375 15.53125 22.484375 10.953125  Q 26.375 6.390625 33.015625 6.390625  Q 39.65625 6.390625 43.53125 10.953125  Q 47.40625 15.53125 47.40625 23.390625  Q 47.40625 31.296875 43.53125 35.828125  Q 39.65625 40.375 33.015625 40.375  z M 52.59375 71.296875  L 52.59375 62.3125  Q 48.875 64.0625 45.09375 64.984375  Q 41.3125 65.921875 37.59375 65.921875  Q 27.828125 65.921875 22.671875 59.328125  Q 17.53125 52.734375 16.796875 39.40625  Q 19.671875 43.65625 24.015625 45.921875  Q 28.375 48.1875 33.59375 48.1875  Q 44.578125 48.1875 50.953125 41.515625  Q 57.328125 34.859375 57.328125 23.390625  Q 57.328125 12.15625 50.6875 5.359375  Q 44.046875 -1.421875 33.015625 -1.421875  Q 20.359375 -1.421875 13.671875 8.265625  Q 6.984375 17.96875 6.984375 36.375  Q 6.984375 53.65625 15.1875 63.9375  Q 23.390625 74.21875 37.203125 74.21875  Q 40.921875 74.21875 44.703125 73.484375  Q 48.484375 72.75 52.59375 71.296875  z " id="DejaVuSans-36"/>
      </defs>
      <g transform="translate(213.442679 315.358437)scale(0.1 -0.1)">
       <use xlink:href="#DejaVuSans-36"/>
       <use x="63.623047" xlink:href="#DejaVuSans-30"/>
       <use x="127.246094" xlink:href="#DejaVuSans-30"/>
      </g>
     </g>
    </g>
    <g id="xtick_5">
     <g id="line2d_5">
      <g>
       <use style="stroke:#000000;stroke-width:0.8;" x="276.578571" xlink:href="#ma8fec608b9" y="300.76"/>
      </g>
     </g>
     <g id="text_5">
      <!-- 800 -->
      <defs>
       <path d="M 31.78125 34.625  Q 24.75 34.625 20.71875 30.859375  Q 16.703125 27.09375 16.703125 20.515625  Q 16.703125 13.921875 20.71875 10.15625  Q 24.75 6.390625 31.78125 6.390625  Q 38.8125 6.390625 42.859375 10.171875  Q 46.921875 13.96875 46.921875 20.515625  Q 46.921875 27.09375 42.890625 30.859375  Q 38.875 34.625 31.78125 34.625  z M 21.921875 38.8125  Q 15.578125 40.375 12.03125 44.71875  Q 8.5 49.078125 8.5 55.328125  Q 8.5 64.0625 14.71875 69.140625  Q 20.953125 74.21875 31.78125 74.21875  Q 42.671875 74.21875 48.875 69.140625  Q 55.078125 64.0625 55.078125 55.328125  Q 55.078125 49.078125 51.53125 44.71875  Q 48 40.375 41.703125 38.8125  Q 48.828125 37.15625 52.796875 32.3125  Q 56.78125 27.484375 56.78125 20.515625  Q 56.78125 9.90625 50.3125 4.234375  Q 43.84375 -1.421875 31.78125 -1.421875  Q 19.734375 -1.421875 13.25 4.234375  Q 6.78125 9.90625 6.78125 20.515625  Q 6.78125 27.484375 10.78125 32.3125  Q 14.796875 37.15625 21.921875 38.8125  z M 18.3125 54.390625  Q 18.3125 48.734375 21.84375 45.5625  Q 25.390625 42.390625 31.78125 42.390625  Q 38.140625 42.390625 41.71875 45.5625  Q 45.3125 48.734375 45.3125 54.390625  Q 45.3125 60.0625 41.71875 63.234375  Q 38.140625 66.40625 31.78125 66.40625  Q 25.390625 66.40625 21.84375 63.234375  Q 18.3125 60.0625 18.3125 54.390625  z " id="DejaVuSans-38"/>
      </defs>
      <g transform="translate(267.034821 315.358437)scale(0.1 -0.1)">
       <use xlink:href="#DejaVuSans-38"/>
       <use x="63.623047" xlink:href="#DejaVuSans-30"/>
       <use x="127.246094" xlink:href="#DejaVuSans-30"/>
      </g>
     </g>
    </g>
    <g id="xtick_6">
     <g id="line2d_6">
      <g>
       <use style="stroke:#000000;stroke-width:0.8;" x="330.170714" xlink:href="#ma8fec608b9" y="300.76"/>
      </g>
     </g>
     <g id="text_6">
      <!-- 1000 -->
      <defs>
       <path d="M 12.40625 8.296875  L 28.515625 8.296875  L 28.515625 63.921875  L 10.984375 60.40625  L 10.984375 69.390625  L 28.421875 72.90625  L 38.28125 72.90625  L 38.28125 8.296875  L 54.390625 8.296875  L 54.390625 0  L 12.40625 0  z " id="DejaVuSans-31"/>
      </defs>
      <g transform="translate(317.445714 315.358437)scale(0.1 -0.1)">
       <use xlink:href="#DejaVuSans-31"/>
       <use x="63.623047" xlink:href="#DejaVuSans-30"/>
       <use x="127.246094" xlink:href="#DejaVuSans-30"/>
       <use x="190.869141" xlink:href="#DejaVuSans-30"/>
      </g>
     </g>
    </g>
    <g id="xtick_7">
     <g id="line2d_7">
      <g>
       <use style="stroke:#000000;stroke-width:0.8;" x="383.762857" xlink:href="#ma8fec608b9" y="300.76"/>
      </g>
     </g>
     <g id="text_7">
      <!-- 1200 -->
      <g transform="translate(371.037857 315.358437)scale(0.1 -0.1)">
       <use xlink:href="#DejaVuSans-31"/>
       <use x="63.623047" xlink:href="#DejaVuSans-32"/>
       <use x="127.246094" xlink:href="#DejaVuSans-30"/>
       <use x="190.869141" xlink:href="#DejaVuSans-30"/>
      </g>
     </g>
    </g>
    <g id="xtick_8">
     <g id="line2d_8">
      <g>
       <use style="stroke:#000000;stroke-width:0.8;" x="437.355" xlink:href="#ma8fec608b9" y="300.76"/>
      </g>
     </g>
     <g id="text_8">
      <!-- 1400 -->
      <g transform="translate(424.63 315.358437)scale(0.1 -0.1)">
       <use xlink:href="#DejaVuSans-31"/>
       <use x="63.623047" xlink:href="#DejaVuSans-34"/>
       <use x="127.246094" xlink:href="#DejaVuSans-30"/>
       <use x="190.869141" xlink:href="#DejaVuSans-30"/>
      </g>
     </g>
    </g>
    <g id="text_9">
     <!-- Distance ($\mu$m) -->
     <defs>
      <path d="M 19.671875 64.796875  L 19.671875 8.109375  L 31.59375 8.109375  Q 46.6875 8.109375 53.6875 14.9375  Q 60.6875 21.78125 60.6875 36.53125  Q 60.6875 51.171875 53.6875 57.984375  Q 46.6875 64.796875 31.59375 64.796875  z M 9.8125 72.90625  L 30.078125 72.90625  Q 51.265625 72.90625 61.171875 64.09375  Q 71.09375 55.28125 71.09375 36.53125  Q 71.09375 17.671875 61.125 8.828125  Q 51.171875 0 30.078125 0  L 9.8125 0  z " id="DejaVuSans-44"/>
      <path d="M 9.421875 54.6875  L 18.40625 54.6875  L 18.40625 0  L 9.421875 0  z M 9.421875 75.984375  L 18.40625 75.984375  L 18.40625 64.59375  L 9.421875 64.59375  z " id="DejaVuSans-69"/>
      <path d="M 44.28125 53.078125  L 44.28125 44.578125  Q 40.484375 46.53125 36.375 47.5  Q 32.28125 48.484375 27.875 48.484375  Q 21.1875 48.484375 17.84375 46.4375  Q 14.5 44.390625 14.5 40.28125  Q 14.5 37.15625 16.890625 35.375  Q 19.28125 33.59375 26.515625 31.984375  L 29.59375 31.296875  Q 39.15625 29.25 43.1875 25.515625  Q 47.21875 21.78125 47.21875 15.09375  Q 47.21875 7.46875 41.1875 3.015625  Q 35.15625 -1.421875 24.609375 -1.421875  Q 20.21875 -1.421875 15.453125 -0.5625  Q 10.6875 0.296875 5.421875 2  L 5.421875 11.28125  Q 10.40625 8.6875 15.234375 7.390625  Q 20.0625 6.109375 24.8125 6.109375  Q 31.15625 6.109375 34.5625 8.28125  Q 37.984375 10.453125 37.984375 14.40625  Q 37.984375 18.0625 35.515625 20.015625  Q 33.0625 21.96875 24.703125 23.78125  L 21.578125 24.515625  Q 13.234375 26.265625 9.515625 29.90625  Q 5.8125 33.546875 5.8125 39.890625  Q 5.8125 47.609375 11.28125 51.796875  Q 16.75 56 26.8125 56  Q 31.78125 56 36.171875 55.265625  Q 40.578125 54.546875 44.28125 53.078125  z " id="DejaVuSans-73"/>
      <path d="M 18.3125 70.21875  L 18.3125 54.6875  L 36.8125 54.6875  L 36.8125 47.703125  L 18.3125 47.703125  L 18.3125 18.015625  Q 18.3125 11.328125 20.140625 9.421875  Q 21.96875 7.515625 27.59375 7.515625  L 36.8125 7.515625  L 36.8125 0  L 27.59375 0  Q 17.1875 0 13.234375 3.875  Q 9.28125 7.765625 9.28125 18.015625  L 9.28125 47.703125  L 2.6875 47.703125  L 2.6875 54.6875  L 9.28125 54.6875  L 9.28125 70.21875  z " id="DejaVuSans-74"/>
      <path d="M 34.28125 27.484375  Q 23.390625 27.484375 19.1875 25  Q 14.984375 22.515625 14.984375 16.5  Q 14.984375 11.71875 18.140625 8.90625  Q 21.296875 6.109375 26.703125 6.109375  Q 34.1875 6.109375 38.703125 11.40625  Q 43.21875 16.703125 43.21875 25.484375  L 43.21875 27.484375  z M 52.203125 31.203125  L 52.203125 0  L 43.21875 0  L 43.21875 8.296875  Q 40.140625 3.328125 35.546875 0.953125  Q 30.953125 -1.421875 24.3125 -1.421875  Q 15.921875 -1.421875 10.953125 3.296875  Q 6 8.015625 6 15.921875  Q 6 25.140625 12.171875 29.828125  Q 18.359375 34.515625 30.609375 34.515625  L 43.21875 34.515625  L 43.21875 35.40625  Q 43.21875 41.609375 39.140625 45  Q 35.0625 48.390625 27.6875 48.390625  Q 23 48.390625 18.546875 47.265625  Q 14.109375 46.140625 10.015625 43.890625  L 10.015625 52.203125  Q 14.9375 54.109375 19.578125 55.046875  Q 24.21875 56 28.609375 56  Q 40.484375 56 46.34375 49.84375  Q 52.203125 43.703125 52.203125 31.203125  z " id="DejaVuSans-61"/>
      <path d="M 54.890625 33.015625  L 54.890625 0  L 45.90625 0  L 45.90625 32.71875  Q 45.90625 40.484375 42.875 44.328125  Q 39.84375 48.1875 33.796875 48.1875  Q 26.515625 48.1875 22.3125 43.546875  Q 18.109375 38.921875 18.109375 30.90625  L 18.109375 0  L 9.078125 0  L 9.078125 54.6875  L 18.109375 54.6875  L 18.109375 46.1875  Q 21.34375 51.125 25.703125 53.5625  Q 30.078125 56 35.796875 56  Q 45.21875 56 50.046875 50.171875  Q 54.890625 44.34375 54.890625 33.015625  z " id="DejaVuSans-6e"/>
      <path d="M 48.78125 52.59375  L 48.78125 44.1875  Q 44.96875 46.296875 41.140625 47.34375  Q 37.3125 48.390625 33.40625 48.390625  Q 24.65625 48.390625 19.8125 42.84375  Q 14.984375 37.3125 14.984375 27.296875  Q 14.984375 17.28125 19.8125 11.734375  Q 24.65625 6.203125 33.40625 6.203125  Q 37.3125 6.203125 41.140625 7.25  Q 44.96875 8.296875 48.78125 10.40625  L 48.78125 2.09375  Q 45.015625 0.34375 40.984375 -0.53125  Q 36.96875 -1.421875 32.421875 -1.421875  Q 20.0625 -1.421875 12.78125 6.34375  Q 5.515625 14.109375 5.515625 27.296875  Q 5.515625 40.671875 12.859375 48.328125  Q 20.21875 56 33.015625 56  Q 37.15625 56 41.109375 55.140625  Q 45.0625 54.296875 48.78125 52.59375  z " id="DejaVuSans-63"/>
      <path d="M 56.203125 29.59375  L 56.203125 25.203125  L 14.890625 25.203125  Q 15.484375 15.921875 20.484375 11.0625  Q 25.484375 6.203125 34.421875 6.203125  Q 39.59375 6.203125 44.453125 7.46875  Q 49.3125 8.734375 54.109375 11.28125  L 54.109375 2.78125  Q 49.265625 0.734375 44.1875 -0.34375  Q 39.109375 -1.421875 33.890625 -1.421875  Q 20.796875 -1.421875 13.15625 6.1875  Q 5.515625 13.8125 5.515625 26.8125  Q 5.515625 40.234375 12.765625 48.109375  Q 20.015625 56 32.328125 56  Q 43.359375 56 49.78125 48.890625  Q 56.203125 41.796875 56.203125 29.59375  z M 47.21875 32.234375  Q 47.125 39.59375 43.09375 43.984375  Q 39.0625 48.390625 32.421875 48.390625  Q 24.90625 48.390625 20.390625 44.140625  Q 15.875 39.890625 15.1875 32.171875  z " id="DejaVuSans-65"/>
      <path id="DejaVuSans-20"/>
      <path d="M 31 75.875  Q 24.46875 64.65625 21.28125 53.65625  Q 18.109375 42.671875 18.109375 31.390625  Q 18.109375 20.125 21.3125 9.0625  Q 24.515625 -2 31 -13.1875  L 23.1875 -13.1875  Q 15.875 -1.703125 12.234375 9.375  Q 8.59375 20.453125 8.59375 31.390625  Q 8.59375 42.28125 12.203125 53.3125  Q 15.828125 64.359375 23.1875 75.875  z " id="DejaVuSans-28"/>
      <path d="M -1.3125 -20.796875  L 13.375 54.6875  L 22.40625 54.6875  L 15.765625 20.65625  Q 15.578125 19.625 15.421875 18.359375  Q 15.28125 17.09375 15.28125 15.828125  Q 15.28125 11.28125 18.140625 8.828125  Q 21 6.390625 26.3125 6.390625  Q 33.546875 6.390625 37.984375 10.484375  Q 42.4375 14.59375 44 22.796875  L 50.203125 54.6875  L 59.1875 54.6875  L 51.03125 12.640625  Q 50.828125 11.71875 50.75 11.03125  Q 50.6875 10.359375 50.6875 9.8125  Q 50.6875 8.296875 51.296875 7.59375  Q 51.90625 6.890625 53.21875 6.890625  Q 53.71875 6.890625 54.5625 7.125  Q 55.421875 7.375 56.984375 8.015625  L 55.609375 0.78125  Q 53.46875 -0.296875 51.515625 -0.859375  Q 49.5625 -1.421875 47.703125 -1.421875  Q 44.484375 -1.421875 42.65625 0.625  Q 40.828125 2.6875 40.828125 6.296875  Q 38.09375 2.390625 34.296875 0.484375  Q 30.515625 -1.421875 25.390625 -1.421875  Q 20.84375 -1.421875 17.453125 0.671875  Q 14.0625 2.78125 12.984375 6.203125  L 7.71875 -20.796875  z " id="DejaVuSans-Oblique-3bc"/>
      <path d="M 52 44.1875  Q 55.375 50.25 60.0625 53.125  Q 64.75 56 71.09375 56  Q 79.640625 56 84.28125 50.015625  Q 88.921875 44.046875 88.921875 33.015625  L 88.921875 0  L 79.890625 0  L 79.890625 32.71875  Q 79.890625 40.578125 77.09375 44.375  Q 74.3125 48.1875 68.609375 48.1875  Q 61.625 48.1875 57.5625 43.546875  Q 53.515625 38.921875 53.515625 30.90625  L 53.515625 0  L 44.484375 0  L 44.484375 32.71875  Q 44.484375 40.625 41.703125 44.40625  Q 38.921875 48.1875 33.109375 48.1875  Q 26.21875 48.1875 22.15625 43.53125  Q 18.109375 38.875 18.109375 30.90625  L 18.109375 0  L 9.078125 0  L 9.078125 54.6875  L 18.109375 54.6875  L 18.109375 46.1875  Q 21.1875 51.21875 25.484375 53.609375  Q 29.78125 56 35.6875 56  Q 41.65625 56 45.828125 52.96875  Q 50 49.953125 52 44.1875  z " id="DejaVuSans-6d"/>
      <path d="M 8.015625 75.875  L 15.828125 75.875  Q 23.140625 64.359375 26.78125 53.3125  Q 30.421875 42.28125 30.421875 31.390625  Q 30.421875 20.453125 26.78125 9.375  Q 23.140625 -1.703125 15.828125 -13.1875  L 8.015625 -13.1875  Q 14.5 -2 17.703125 9.0625  Q 20.90625 20.125 20.90625 31.390625  Q 20.90625 42.671875 17.703125 53.65625  Q 14.5 64.65625 8.015625 75.875  z " id="DejaVuSans-29"/>
     </defs>
     <g transform="translate(214.3325 329.038125)scale(0.1 -0.1)">
      <use transform="translate(0 0.015625)" xlink:href="#DejaVuSans-44"/>
      <use transform="translate(77.001953 0.015625)" xlink:href="#DejaVuSans-69"/>
      <use transform="translate(104.785156 0.015625)" xlink:href="#DejaVuSans-73"/>
      <use transform="translate(156.884766 0.015625)" xlink:href="#DejaVuSans-74"/>
      <use transform="translate(196.09375 0.015625)" xlink:href="#DejaVuSans-61"/>
      <use transform="translate(257.373047 0.015625)" xlink:href="#DejaVuSans-6e"/>
      <use transform="translate(320.751953 0.015625)" xlink:href="#DejaVuSans-63"/>
      <use transform="translate(375.732422 0.015625)" xlink:href="#DejaVuSans-65"/>
      <use transform="translate(437.255859 0.015625)" xlink:href="#DejaVuSans-20"/>
      <use transform="translate(469.042969 0.015625)" xlink:href="#DejaVuSans-28"/>
      <use transform="translate(508.056641 0.015625)" xlink:href="#DejaVuSans-Oblique-3bc"/>
      <use transform="translate(571.679688 0.015625)" xlink:href="#DejaVuSans-6d"/>
      <use transform="translate(669.091797 0.015625)" xlink:href="#DejaVuSans-29"/>
     </g>
    </g>
   </g>
   <g id="matplotlib.axis_2">
    <g id="ytick_1">
     <g id="line2d_9">
      <defs>
       <path d="M 0 0  L -3.5 0  " id="me39b06b7c8" style="stroke:#000000;stroke-width:0.8;"/>
      </defs>
      <g>
       <use style="stroke:#000000;stroke-width:0.8;" x="62.21" xlink:href="#me39b06b7c8" y="300.472328"/>
      </g>
     </g>
     <g id="text_10">
      <!-- &#8722;125 -->
      <defs>
       <path d="M 10.59375 35.5  L 73.1875 35.5  L 73.1875 27.203125  L 10.59375 27.203125  z " id="DejaVuSans-2212"/>
       <path d="M 10.796875 72.90625  L 49.515625 72.90625  L 49.515625 64.59375  L 19.828125 64.59375  L 19.828125 46.734375  Q 21.96875 47.46875 24.109375 47.828125  Q 26.265625 48.1875 28.421875 48.1875  Q 40.625 48.1875 47.75 41.5  Q 54.890625 34.8125 54.890625 23.390625  Q 54.890625 11.625 47.5625 5.09375  Q 40.234375 -1.421875 26.90625 -1.421875  Q 22.3125 -1.421875 17.546875 -0.640625  Q 12.796875 0.140625 7.71875 1.703125  L 7.71875 11.625  Q 12.109375 9.234375 16.796875 8.0625  Q 21.484375 6.890625 26.703125 6.890625  Q 35.15625 6.890625 40.078125 11.328125  Q 45.015625 15.765625 45.015625 23.390625  Q 45.015625 31 40.078125 35.4375  Q 35.15625 39.890625 26.703125 39.890625  Q 22.75 39.890625 18.8125 39.015625  Q 14.890625 38.140625 10.796875 36.28125  z " id="DejaVuSans-35"/>
      </defs>
      <g transform="translate(27.742813 304.271547)scale(0.1 -0.1)">
       <use xlink:href="#DejaVuSans-2212"/>
       <use x="83.789062" xlink:href="#DejaVuSans-31"/>
       <use x="147.412109" xlink:href="#DejaVuSans-32"/>
       <use x="211.035156" xlink:href="#DejaVuSans-35"/>
      </g>
     </g>
    </g>
    <g id="ytick_2">
     <g id="line2d_10">
      <g>
       <use style="stroke:#000000;stroke-width:0.8;" x="62.21" xlink:href="#me39b06b7c8" y="265.498227"/>
      </g>
     </g>
     <g id="text_11">
      <!-- &#8722;100 -->
      <g transform="translate(27.742813 269.297446)scale(0.1 -0.1)">
       <use xlink:href="#DejaVuSans-2212"/>
       <use x="83.789062" xlink:href="#DejaVuSans-31"/>
       <use x="147.412109" xlink:href="#DejaVuSans-30"/>
       <use x="211.035156" xlink:href="#DejaVuSans-30"/>
      </g>
     </g>
    </g>
    <g id="ytick_3">
     <g id="line2d_11">
      <g>
       <use style="stroke:#000000;stroke-width:0.8;" x="62.21" xlink:href="#me39b06b7c8" y="230.524125"/>
      </g>
     </g>
     <g id="text_12">
      <!-- &#8722;75 -->
      <defs>
       <path d="M 8.203125 72.90625  L 55.078125 72.90625  L 55.078125 68.703125  L 28.609375 0  L 18.3125 0  L 43.21875 64.59375  L 8.203125 64.59375  z " id="DejaVuSans-37"/>
      </defs>
      <g transform="translate(34.105313 234.323344)scale(0.1 -0.1)">
       <use xlink:href="#DejaVuSans-2212"/>
       <use x="83.789062" xlink:href="#DejaVuSans-37"/>
       <use x="147.412109" xlink:href="#DejaVuSans-35"/>
      </g>
     </g>
    </g>
    <g id="ytick_4">
     <g id="line2d_12">
      <g>
       <use style="stroke:#000000;stroke-width:0.8;" x="62.21" xlink:href="#me39b06b7c8" y="195.550024"/>
      </g>
     </g>
     <g id="text_13">
      <!-- &#8722;50 -->
      <g transform="translate(34.105313 199.349242)scale(0.1 -0.1)">
       <use xlink:href="#DejaVuSans-2212"/>
       <use x="83.789062" xlink:href="#DejaVuSans-35"/>
       <use x="147.412109" xlink:href="#DejaVuSans-30"/>
      </g>
     </g>
    </g>
    <g id="ytick_5">
     <g id="line2d_13">
      <g>
       <use style="stroke:#000000;stroke-width:0.8;" x="62.21" xlink:href="#me39b06b7c8" y="160.575922"/>
      </g>
     </g>
     <g id="text_14">
      <!-- &#8722;25 -->
      <g transform="translate(34.105313 164.375141)scale(0.1 -0.1)">
       <use xlink:href="#DejaVuSans-2212"/>
       <use x="83.789062" xlink:href="#DejaVuSans-32"/>
       <use x="147.412109" xlink:href="#DejaVuSans-35"/>
      </g>
     </g>
    </g>
    <g id="ytick_6">
     <g id="line2d_14">
      <g>
       <use style="stroke:#000000;stroke-width:0.8;" x="62.21" xlink:href="#me39b06b7c8" y="125.60182"/>
      </g>
     </g>
     <g id="text_15">
      <!-- 0 -->
      <g transform="translate(48.8475 129.401039)scale(0.1 -0.1)">
       <use xlink:href="#DejaVuSans-30"/>
      </g>
     </g>
    </g>
    <g id="ytick_7">
     <g id="line2d_15">
      <g>
       <use style="stroke:#000000;stroke-width:0.8;" x="62.21" xlink:href="#me39b06b7c8" y="90.627719"/>
      </g>
     </g>
     <g id="text_16">
      <!-- 25 -->
      <g transform="translate(42.485 94.426938)scale(0.1 -0.1)">
       <use xlink:href="#DejaVuSans-32"/>
       <use x="63.623047" xlink:href="#DejaVuSans-35"/>
      </g>
     </g>
    </g>
    <g id="ytick_8">
     <g id="line2d_16">
      <g>
       <use style="stroke:#000000;stroke-width:0.8;" x="62.21" xlink:href="#me39b06b7c8" y="55.653617"/>
      </g>
     </g>
     <g id="text_17">
      <!-- 50 -->
      <g transform="translate(42.485 59.452836)scale(0.1 -0.1)">
       <use xlink:href="#DejaVuSans-35"/>
       <use x="63.623047" xlink:href="#DejaVuSans-30"/>
      </g>
     </g>
    </g>
    <g id="ytick_9">
     <g id="line2d_17">
      <g>
       <use style="stroke:#000000;stroke-width:0.8;" x="62.21" xlink:href="#me39b06b7c8" y="20.679516"/>
      </g>
     </g>
     <g id="text_18">
      <!-- 75 -->
      <g transform="translate(42.485 24.478734)scale(0.1 -0.1)">
       <use xlink:href="#DejaVuSans-37"/>
       <use x="63.623047" xlink:href="#DejaVuSans-35"/>
      </g>
     </g>
    </g>
    <g id="text_19">
     <!-- Slope, at. / $\mu m$ -->
     <defs>
      <path d="M 53.515625 70.515625  L 53.515625 60.890625  Q 47.90625 63.578125 42.921875 64.890625  Q 37.9375 66.21875 33.296875 66.21875  Q 25.25 66.21875 20.875 63.09375  Q 16.5 59.96875 16.5 54.203125  Q 16.5 49.359375 19.40625 46.890625  Q 22.3125 44.4375 30.421875 42.921875  L 36.375 41.703125  Q 47.40625 39.59375 52.65625 34.296875  Q 57.90625 29 57.90625 20.125  Q 57.90625 9.515625 50.796875 4.046875  Q 43.703125 -1.421875 29.984375 -1.421875  Q 24.8125 -1.421875 18.96875 -0.25  Q 13.140625 0.921875 6.890625 3.21875  L 6.890625 13.375  Q 12.890625 10.015625 18.65625 8.296875  Q 24.421875 6.59375 29.984375 6.59375  Q 38.421875 6.59375 43.015625 9.90625  Q 47.609375 13.234375 47.609375 19.390625  Q 47.609375 24.75 44.3125 27.78125  Q 41.015625 30.8125 33.5 32.328125  L 27.484375 33.5  Q 16.453125 35.6875 11.515625 40.375  Q 6.59375 45.0625 6.59375 53.421875  Q 6.59375 63.09375 13.40625 68.65625  Q 20.21875 74.21875 32.171875 74.21875  Q 37.3125 74.21875 42.625 73.28125  Q 47.953125 72.359375 53.515625 70.515625  z " id="DejaVuSans-53"/>
      <path d="M 9.421875 75.984375  L 18.40625 75.984375  L 18.40625 0  L 9.421875 0  z " id="DejaVuSans-6c"/>
      <path d="M 30.609375 48.390625  Q 23.390625 48.390625 19.1875 42.75  Q 14.984375 37.109375 14.984375 27.296875  Q 14.984375 17.484375 19.15625 11.84375  Q 23.34375 6.203125 30.609375 6.203125  Q 37.796875 6.203125 41.984375 11.859375  Q 46.1875 17.53125 46.1875 27.296875  Q 46.1875 37.015625 41.984375 42.703125  Q 37.796875 48.390625 30.609375 48.390625  z M 30.609375 56  Q 42.328125 56 49.015625 48.375  Q 55.71875 40.765625 55.71875 27.296875  Q 55.71875 13.875 49.015625 6.21875  Q 42.328125 -1.421875 30.609375 -1.421875  Q 18.84375 -1.421875 12.171875 6.21875  Q 5.515625 13.875 5.515625 27.296875  Q 5.515625 40.765625 12.171875 48.375  Q 18.84375 56 30.609375 56  z " id="DejaVuSans-6f"/>
      <path d="M 18.109375 8.203125  L 18.109375 -20.796875  L 9.078125 -20.796875  L 9.078125 54.6875  L 18.109375 54.6875  L 18.109375 46.390625  Q 20.953125 51.265625 25.265625 53.625  Q 29.59375 56 35.59375 56  Q 45.5625 56 51.78125 48.09375  Q 58.015625 40.1875 58.015625 27.296875  Q 58.015625 14.40625 51.78125 6.484375  Q 45.5625 -1.421875 35.59375 -1.421875  Q 29.59375 -1.421875 25.265625 0.953125  Q 20.953125 3.328125 18.109375 8.203125  z M 48.6875 27.296875  Q 48.6875 37.203125 44.609375 42.84375  Q 40.53125 48.484375 33.40625 48.484375  Q 26.265625 48.484375 22.1875 42.84375  Q 18.109375 37.203125 18.109375 27.296875  Q 18.109375 17.390625 22.1875 11.75  Q 26.265625 6.109375 33.40625 6.109375  Q 40.53125 6.109375 44.609375 11.75  Q 48.6875 17.390625 48.6875 27.296875  z " id="DejaVuSans-70"/>
      <path d="M 11.71875 12.40625  L 22.015625 12.40625  L 22.015625 4  L 14.015625 -11.625  L 7.71875 -11.625  L 11.71875 4  z " id="DejaVuSans-2c"/>
      <path d="M 10.6875 12.40625  L 21 12.40625  L 21 0  L 10.6875 0  z " id="DejaVuSans-2e"/>
      <path d="M 25.390625 72.90625  L 33.6875 72.90625  L 8.296875 -9.28125  L 0 -9.28125  z " id="DejaVuSans-2f"/>
      <path d="M 89.796875 33.015625  L 83.40625 0  L 74.421875 0  L 80.71875 32.71875  Q 81.109375 34.8125 81.296875 36.328125  Q 81.5 37.84375 81.5 38.921875  Q 81.5 43.3125 79.046875 45.75  Q 76.609375 48.1875 72.21875 48.1875  Q 65.671875 48.1875 60.546875 43.28125  Q 55.421875 38.375 53.90625 30.515625  L 47.90625 0  L 38.921875 0  L 45.3125 32.71875  Q 45.703125 34.515625 45.890625 36.046875  Q 46.09375 37.59375 46.09375 38.8125  Q 46.09375 43.265625 43.65625 45.71875  Q 41.21875 48.1875 36.921875 48.1875  Q 30.28125 48.1875 25.140625 43.28125  Q 20.015625 38.375 18.5 30.515625  L 12.5 0  L 3.515625 0  L 14.203125 54.6875  L 23.1875 54.6875  L 21.484375 46.1875  Q 25.140625 50.984375 30.046875 53.484375  Q 34.96875 56 40.578125 56  Q 46.53125 56 50.359375 52.875  Q 54.203125 49.75 54.984375 44.1875  Q 59.078125 49.953125 64.46875 52.96875  Q 69.875 56 75.875 56  Q 82.90625 56 86.734375 51.953125  Q 90.578125 47.90625 90.578125 40.484375  Q 90.578125 38.875 90.375 36.9375  Q 90.1875 35.015625 89.796875 33.015625  z " id="DejaVuSans-Oblique-6d"/>
     </defs>
     <g transform="translate(21.642813 193.64)rotate(-90)scale(0.1 -0.1)">
      <use transform="translate(0 0.015625)" xlink:href="#DejaVuSans-53"/>
      <use transform="translate(63.476562 0.015625)" xlink:href="#DejaVuSans-6c"/>
      <use transform="translate(91.259766 0.015625)" xlink:href="#DejaVuSans-6f"/>
      <use transform="translate(152.441406 0.015625)" xlink:href="#DejaVuSans-70"/>
      <use transform="translate(215.917969 0.015625)" xlink:href="#DejaVuSans-65"/>
      <use transform="translate(277.441406 0.015625)" xlink:href="#DejaVuSans-2c"/>
      <use transform="translate(309.228516 0.015625)" xlink:href="#DejaVuSans-20"/>
      <use transform="translate(341.015625 0.015625)" xlink:href="#DejaVuSans-61"/>
      <use transform="translate(402.294922 0.015625)" xlink:href="#DejaVuSans-74"/>
      <use transform="translate(441.503906 0.015625)" xlink:href="#DejaVuSans-2e"/>
      <use transform="translate(473.291016 0.015625)" xlink:href="#DejaVuSans-20"/>
      <use transform="translate(505.078125 0.015625)" xlink:href="#DejaVuSans-2f"/>
      <use transform="translate(538.769531 0.015625)" xlink:href="#DejaVuSans-20"/>
      <use transform="translate(570.556641 0.015625)" xlink:href="#DejaVuSans-Oblique-3bc"/>
      <use transform="translate(634.179688 0.015625)" xlink:href="#DejaVuSans-Oblique-6d"/>
     </g>
    </g>
   </g>
   <g id="line2d_18">
    <defs>
     <path d="M -0 3  L 3 -3  L -3 -3  z " id="m5fefdd3372" style="stroke:#e74c3c;stroke-linejoin:miter;"/>
    </defs>
    <g clip-path="url(#pddd08a595b)">
     <use style="fill:#e74c3c;stroke:#e74c3c;stroke-linejoin:miter;" x="62.21" xlink:href="#m5fefdd3372" y="124.420807"/>
     <use style="fill:#e74c3c;stroke:#e74c3c;stroke-linejoin:miter;" x="69.750603" xlink:href="#m5fefdd3372" y="124.024922"/>
     <use style="fill:#e74c3c;stroke:#e74c3c;stroke-linejoin:miter;" x="77.291206" xlink:href="#m5fefdd3372" y="123.318246"/>
     <use style="fill:#e74c3c;stroke:#e74c3c;stroke-linejoin:miter;" x="84.831809" xlink:href="#m5fefdd3372" y="122.351712"/>
     <use style="fill:#e74c3c;stroke:#e74c3c;stroke-linejoin:miter;" x="92.372412" xlink:href="#m5fefdd3372" y="121.055583"/>
     <use style="fill:#e74c3c;stroke:#e74c3c;stroke-linejoin:miter;" x="99.913015" xlink:href="#m5fefdd3372" y="119.351854"/>
     <use style="fill:#e74c3c;stroke:#e74c3c;stroke-linejoin:miter;" x="107.453618" xlink:href="#m5fefdd3372" y="117.157304"/>
     <use style="fill:#e74c3c;stroke:#e74c3c;stroke-linejoin:miter;" x="114.994221" xlink:href="#m5fefdd3372" y="114.388266"/>
     <use style="fill:#e74c3c;stroke:#e74c3c;stroke-linejoin:miter;" x="122.534824" xlink:href="#m5fefdd3372" y="110.96714"/>
     <use style="fill:#e74c3c;stroke:#e74c3c;stroke-linejoin:miter;" x="130.075427" xlink:href="#m5fefdd3372" y="106.830509"/>
     <use style="fill:#e74c3c;stroke:#e74c3c;stroke-linejoin:miter;" x="137.61603" xlink:href="#m5fefdd3372" y="101.938404"/>
     <use style="fill:#e74c3c;stroke:#e74c3c;stroke-linejoin:miter;" x="145.156633" xlink:href="#m5fefdd3372" y="96.283998"/>
     <use style="fill:#e74c3c;stroke:#e74c3c;stroke-linejoin:miter;" x="152.697236" xlink:href="#m5fefdd3372" y="89.902707"/>
     <use style="fill:#e74c3c;stroke:#e74c3c;stroke-linejoin:miter;" x="160.237839" xlink:href="#m5fefdd3372" y="82.879525"/>
     <use style="fill:#e74c3c;stroke:#e74c3c;stroke-linejoin:miter;" x="167.778442" xlink:href="#m5fefdd3372" y="75.353312"/>
     <use style="fill:#e74c3c;stroke:#e74c3c;stroke-linejoin:miter;" x="175.319045" xlink:href="#m5fefdd3372" y="67.516926"/>
     <use style="fill:#e74c3c;stroke:#e74c3c;stroke-linejoin:miter;" x="182.859648" xlink:href="#m5fefdd3372" y="59.612344"/>
     <use style="fill:#e74c3c;stroke:#e74c3c;stroke-linejoin:miter;" x="190.400251" xlink:href="#m5fefdd3372" y="51.920466"/>
     <use style="fill:#e74c3c;stroke:#e74c3c;stroke-linejoin:miter;" x="197.940854" xlink:href="#m5fefdd3372" y="44.745874"/>
     <use style="fill:#e74c3c;stroke:#e74c3c;stroke-linejoin:miter;" x="205.481457" xlink:href="#m5fefdd3372" y="38.397547"/>
     <use style="fill:#e74c3c;stroke:#e74c3c;stroke-linejoin:miter;" x="213.02206" xlink:href="#m5fefdd3372" y="33.167125"/>
     <use style="fill:#e74c3c;stroke:#e74c3c;stroke-linejoin:miter;" x="220.562663" xlink:href="#m5fefdd3372" y="29.306828"/>
     <use style="fill:#e74c3c;stroke:#e74c3c;stroke-linejoin:miter;" x="228.103266" xlink:href="#m5fefdd3372" y="27.009331"/>
     <use style="fill:#e74c3c;stroke:#e74c3c;stroke-linejoin:miter;" x="235.643869" xlink:href="#m5fefdd3372" y="26.39183"/>
     <use style="fill:#e74c3c;stroke:#e74c3c;stroke-linejoin:miter;" x="243.184472" xlink:href="#m5fefdd3372" y="27.486139"/>
     <use style="fill:#e74c3c;stroke:#e74c3c;stroke-linejoin:miter;" x="250.725075" xlink:href="#m5fefdd3372" y="30.235971"/>
     <use style="fill:#e74c3c;stroke:#e74c3c;stroke-linejoin:miter;" x="258.265678" xlink:href="#m5fefdd3372" y="34.501735"/>
     <use style="fill:#e74c3c;stroke:#e74c3c;stroke-linejoin:miter;" x="265.806281" xlink:href="#m5fefdd3372" y="40.072282"/>
     <use style="fill:#e74c3c;stroke:#e74c3c;stroke-linejoin:miter;" x="273.346884" xlink:href="#m5fefdd3372" y="46.682213"/>
     <use style="fill:#e74c3c;stroke:#e74c3c;stroke-linejoin:miter;" x="280.887487" xlink:href="#m5fefdd3372" y="54.032788"/>
     <use style="fill:#e74c3c;stroke:#e74c3c;stroke-linejoin:miter;" x="288.42809" xlink:href="#m5fefdd3372" y="61.814139"/>
     <use style="fill:#e74c3c;stroke:#e74c3c;stroke-linejoin:miter;" x="295.968693" xlink:href="#m5fefdd3372" y="69.726513"/>
     <use style="fill:#e74c3c;stroke:#e74c3c;stroke-linejoin:miter;" x="303.509296" xlink:href="#m5fefdd3372" y="77.498563"/>
     <use style="fill:#e74c3c;stroke:#e74c3c;stroke-linejoin:miter;" x="311.049899" xlink:href="#m5fefdd3372" y="84.901251"/>
     <use style="fill:#e74c3c;stroke:#e74c3c;stroke-linejoin:miter;" x="318.590503" xlink:href="#m5fefdd3372" y="91.756555"/>
     <use style="fill:#e74c3c;stroke:#e74c3c;stroke-linejoin:miter;" x="326.131106" xlink:href="#m5fefdd3372" y="97.940889"/>
     <use style="fill:#e74c3c;stroke:#e74c3c;stroke-linejoin:miter;" x="333.671709" xlink:href="#m5fefdd3372" y="103.38371"/>
     <use style="fill:#e74c3c;stroke:#e74c3c;stroke-linejoin:miter;" x="341.212312" xlink:href="#m5fefdd3372" y="108.062253"/>
     <use style="fill:#e74c3c;stroke:#e74c3c;stroke-linejoin:miter;" x="348.752915" xlink:href="#m5fefdd3372" y="111.993577"/>
     <use style="fill:#e74c3c;stroke:#e74c3c;stroke-linejoin:miter;" x="356.293518" xlink:href="#m5fefdd3372" y="115.225181"/>
     <use style="fill:#e74c3c;stroke:#e74c3c;stroke-linejoin:miter;" x="363.834121" xlink:href="#m5fefdd3372" y="117.825345"/>
     <use style="fill:#e74c3c;stroke:#e74c3c;stroke-linejoin:miter;" x="371.374724" xlink:href="#m5fefdd3372" y="119.87412"/>
     <use style="fill:#e74c3c;stroke:#e74c3c;stroke-linejoin:miter;" x="378.915327" xlink:href="#m5fefdd3372" y="121.45563"/>
     <use style="fill:#e74c3c;stroke:#e74c3c;stroke-linejoin:miter;" x="386.45593" xlink:href="#m5fefdd3372" y="122.65204"/>
     <use style="fill:#e74c3c;stroke:#e74c3c;stroke-linejoin:miter;" x="393.996533" xlink:href="#m5fefdd3372" y="123.539284"/>
     <use style="fill:#e74c3c;stroke:#e74c3c;stroke-linejoin:miter;" x="401.537136" xlink:href="#m5fefdd3372" y="124.184445"/>
     <use style="fill:#e74c3c;stroke:#e74c3c;stroke-linejoin:miter;" x="409.077739" xlink:href="#m5fefdd3372" y="124.644539"/>
     <use style="fill:#e74c3c;stroke:#e74c3c;stroke-linejoin:miter;" x="416.618342" xlink:href="#m5fefdd3372" y="124.966393"/>
     <use style="fill:#e74c3c;stroke:#e74c3c;stroke-linejoin:miter;" x="424.158945" xlink:href="#m5fefdd3372" y="125.187283"/>
     <use style="fill:#e74c3c;stroke:#e74c3c;stroke-linejoin:miter;" x="431.699548" xlink:href="#m5fefdd3372" y="125.336034"/>
    </g>
   </g>
   <g id="line2d_19">
    <defs>
     <path d="M 0 -3  L -0.673542 -0.927051  L -2.85317 -0.927051  L -1.089814 0.354102  L -1.763356 2.427051  L -0 1.145898  L 1.763356 2.427051  L 1.089814 0.354102  L 2.85317 -0.927051  L 0.673542 -0.927051  z " id="m7a63bf7c46" style="stroke:#808000;stroke-linejoin:bevel;"/>
    </defs>
    <g clip-path="url(#pddd08a595b)">
     <use style="fill:#808000;stroke:#808000;stroke-linejoin:bevel;" x="62.21" xlink:href="#m7a63bf7c46" y="125.590525"/>
     <use style="fill:#808000;stroke:#808000;stroke-linejoin:bevel;" x="69.750603" xlink:href="#m7a63bf7c46" y="125.58208"/>
     <use style="fill:#808000;stroke:#808000;stroke-linejoin:bevel;" x="77.291206" xlink:href="#m7a63bf7c46" y="125.561454"/>
     <use style="fill:#808000;stroke:#808000;stroke-linejoin:bevel;" x="84.831809" xlink:href="#m7a63bf7c46" y="125.521974"/>
     <use style="fill:#808000;stroke:#808000;stroke-linejoin:bevel;" x="92.372412" xlink:href="#m7a63bf7c46" y="125.449038"/>
     <use style="fill:#808000;stroke:#808000;stroke-linejoin:bevel;" x="99.913015" xlink:href="#m7a63bf7c46" y="125.319027"/>
     <use style="fill:#808000;stroke:#808000;stroke-linejoin:bevel;" x="107.453618" xlink:href="#m7a63bf7c46" y="125.095477"/>
     <use style="fill:#808000;stroke:#808000;stroke-linejoin:bevel;" x="114.994221" xlink:href="#m7a63bf7c46" y="124.724822"/>
     <use style="fill:#808000;stroke:#808000;stroke-linejoin:bevel;" x="122.534824" xlink:href="#m7a63bf7c46" y="124.132452"/>
     <use style="fill:#808000;stroke:#808000;stroke-linejoin:bevel;" x="130.075427" xlink:href="#m7a63bf7c46" y="123.220371"/>
     <use style="fill:#808000;stroke:#808000;stroke-linejoin:bevel;" x="137.61603" xlink:href="#m7a63bf7c46" y="121.868197"/>
     <use style="fill:#808000;stroke:#808000;stroke-linejoin:bevel;" x="145.156633" xlink:href="#m7a63bf7c46" y="119.939454"/>
     <use style="fill:#808000;stroke:#808000;stroke-linejoin:bevel;" x="152.697236" xlink:href="#m7a63bf7c46" y="117.294824"/>
     <use style="fill:#808000;stroke:#808000;stroke-linejoin:bevel;" x="160.237839" xlink:href="#m7a63bf7c46" y="113.813049"/>
     <use style="fill:#808000;stroke:#808000;stroke-linejoin:bevel;" x="167.778442" xlink:href="#m7a63bf7c46" y="109.418354"/>
     <use style="fill:#808000;stroke:#808000;stroke-linejoin:bevel;" x="175.319045" xlink:href="#m7a63bf7c46" y="104.110996"/>
     <use style="fill:#808000;stroke:#808000;stroke-linejoin:bevel;" x="182.859648" xlink:href="#m7a63bf7c46" y="97.995209"/>
     <use style="fill:#808000;stroke:#808000;stroke-linejoin:bevel;" x="190.400251" xlink:href="#m7a63bf7c46" y="91.297279"/>
     <use style="fill:#808000;stroke:#808000;stroke-linejoin:bevel;" x="197.940854" xlink:href="#m7a63bf7c46" y="84.366569"/>
     <use style="fill:#808000;stroke:#808000;stroke-linejoin:bevel;" x="205.481457" xlink:href="#m7a63bf7c46" y="77.654517"/>
     <use style="fill:#808000;stroke:#808000;stroke-linejoin:bevel;" x="213.02206" xlink:href="#m7a63bf7c46" y="71.670851"/>
     <use style="fill:#808000;stroke:#808000;stroke-linejoin:bevel;" x="220.562663" xlink:href="#m7a63bf7c46" y="66.921729"/>
     <use style="fill:#808000;stroke:#808000;stroke-linejoin:bevel;" x="228.103266" xlink:href="#m7a63bf7c46" y="63.83975"/>
     <use style="fill:#808000;stroke:#808000;stroke-linejoin:bevel;" x="235.643869" xlink:href="#m7a63bf7c46" y="62.719086"/>
     <use style="fill:#808000;stroke:#808000;stroke-linejoin:bevel;" x="243.184472" xlink:href="#m7a63bf7c46" y="63.669193"/>
     <use style="fill:#808000;stroke:#808000;stroke-linejoin:bevel;" x="250.725075" xlink:href="#m7a63bf7c46" y="66.597189"/>
     <use style="fill:#808000;stroke:#808000;stroke-linejoin:bevel;" x="258.265678" xlink:href="#m7a63bf7c46" y="71.222822"/>
     <use style="fill:#808000;stroke:#808000;stroke-linejoin:bevel;" x="265.806281" xlink:href="#m7a63bf7c46" y="77.12269"/>
     <use style="fill:#808000;stroke:#808000;stroke-linejoin:bevel;" x="273.346884" xlink:href="#m7a63bf7c46" y="83.794056"/>
     <use style="fill:#808000;stroke:#808000;stroke-linejoin:bevel;" x="280.887487" xlink:href="#m7a63bf7c46" y="90.724944"/>
     <use style="fill:#808000;stroke:#808000;stroke-linejoin:bevel;" x="288.42809" xlink:href="#m7a63bf7c46" y="97.457115"/>
     <use style="fill:#808000;stroke:#808000;stroke-linejoin:bevel;" x="295.968693" xlink:href="#m7a63bf7c46" y="103.631603"/>
     <use style="fill:#808000;stroke:#808000;stroke-linejoin:bevel;" x="303.509296" xlink:href="#m7a63bf7c46" y="109.011663"/>
     <use style="fill:#808000;stroke:#808000;stroke-linejoin:bevel;" x="311.049899" xlink:href="#m7a63bf7c46" y="113.483424"/>
     <use style="fill:#808000;stroke:#808000;stroke-linejoin:bevel;" x="318.590503" xlink:href="#m7a63bf7c46" y="117.038972"/>
     <use style="fill:#808000;stroke:#808000;stroke-linejoin:bevel;" x="326.131106" xlink:href="#m7a63bf7c46" y="119.748936"/>
     <use style="fill:#808000;stroke:#808000;stroke-linejoin:bevel;" x="333.671709" xlink:href="#m7a63bf7c46" y="121.731918"/>
     <use style="fill:#808000;stroke:#808000;stroke-linejoin:bevel;" x="341.212312" xlink:href="#m7a63bf7c46" y="123.12663"/>
     <use style="fill:#808000;stroke:#808000;stroke-linejoin:bevel;" x="348.752915" xlink:href="#m7a63bf7c46" y="124.070395"/>
     <use style="fill:#808000;stroke:#808000;stroke-linejoin:bevel;" x="356.293518" xlink:href="#m7a63bf7c46" y="124.68526"/>
     <use style="fill:#808000;stroke:#808000;stroke-linejoin:bevel;" x="363.834121" xlink:href="#m7a63bf7c46" y="125.071174"/>
     <use style="fill:#808000;stroke:#808000;stroke-linejoin:bevel;" x="371.374724" xlink:href="#m7a63bf7c46" y="125.304635"/>
     <use style="fill:#808000;stroke:#808000;stroke-linejoin:bevel;" x="378.915327" xlink:href="#m7a63bf7c46" y="125.440819"/>
     <use style="fill:#808000;stroke:#808000;stroke-linejoin:bevel;" x="386.45593" xlink:href="#m7a63bf7c46" y="125.517446"/>
     <use style="fill:#808000;stroke:#808000;stroke-linejoin:bevel;" x="393.996533" xlink:href="#m7a63bf7c46" y="125.559048"/>
     <use style="fill:#808000;stroke:#808000;stroke-linejoin:bevel;" x="401.537136" xlink:href="#m7a63bf7c46" y="125.580845"/>
     <use style="fill:#808000;stroke:#808000;stroke-linejoin:bevel;" x="409.077739" xlink:href="#m7a63bf7c46" y="125.591871"/>
     <use style="fill:#808000;stroke:#808000;stroke-linejoin:bevel;" x="416.618342" xlink:href="#m7a63bf7c46" y="125.597255"/>
     <use style="fill:#808000;stroke:#808000;stroke-linejoin:bevel;" x="424.158945" xlink:href="#m7a63bf7c46" y="125.599794"/>
     <use style="fill:#808000;stroke:#808000;stroke-linejoin:bevel;" x="431.699548" xlink:href="#m7a63bf7c46" y="125.60095"/>
    </g>
   </g>
   <g id="line2d_20">
    <defs>
     <path d="M 0 3  C 0.795609 3 1.55874 2.683901 2.12132 2.12132  C 2.683901 1.55874 3 0.795609 3 0  C 3 -0.795609 2.683901 -1.55874 2.12132 -2.12132  C 1.55874 -2.683901 0.795609 -3 0 -3  C -0.795609 -3 -1.55874 -2.683901 -2.12132 -2.12132  C -2.683901 -1.55874 -3 -0.795609 -3 0  C -3 0.795609 -2.683901 1.55874 -2.12132 2.12132  C -1.55874 2.683901 -0.795609 3 0 3  z " id="m61aa73767c" style="stroke:#008080;"/>
    </defs>
    <g clip-path="url(#pddd08a595b)">
     <use style="fill:#008080;stroke:#008080;" x="62.21" xlink:href="#m61aa73767c" y="126.794129"/>
     <use style="fill:#008080;stroke:#008080;" x="69.750603" xlink:href="#m61aa73767c" y="127.19846"/>
     <use style="fill:#008080;stroke:#008080;" x="77.291206" xlink:href="#m61aa73767c" y="127.925761"/>
     <use style="fill:#008080;stroke:#008080;" x="84.831809" xlink:href="#m61aa73767c" y="128.931776"/>
     <use style="fill:#008080;stroke:#008080;" x="92.372412" xlink:href="#m61aa73767c" y="130.30084"/>
     <use style="fill:#008080;stroke:#008080;" x="99.913015" xlink:href="#m61aa73767c" y="132.134581"/>
     <use style="fill:#008080;stroke:#008080;" x="107.453618" xlink:href="#m61aa73767c" y="134.55268"/>
     <use style="fill:#008080;stroke:#008080;" x="114.994221" xlink:href="#m61aa73767c" y="137.692373"/>
     <use style="fill:#008080;stroke:#008080;" x="122.534824" xlink:href="#m61aa73767c" y="141.705869"/>
     <use style="fill:#008080;stroke:#008080;" x="130.075427" xlink:href="#m61aa73767c" y="146.754582"/>
     <use style="fill:#008080;stroke:#008080;" x="137.61603" xlink:href="#m61aa73767c" y="152.99886"/>
     <use style="fill:#008080;stroke:#008080;" x="145.156633" xlink:href="#m61aa73767c" y="160.58201"/>
     <use style="fill:#008080;stroke:#008080;" x="152.697236" xlink:href="#m61aa73767c" y="169.60793"/>
     <use style="fill:#008080;stroke:#008080;" x="160.237839" xlink:href="#m61aa73767c" y="180.112887"/>
     <use style="fill:#008080;stroke:#008080;" x="167.778442" xlink:href="#m61aa73767c" y="192.033795"/>
     <use style="fill:#008080;stroke:#008080;" x="175.319045" xlink:href="#m61aa73767c" y="205.17754"/>
     <use style="fill:#008080;stroke:#008080;" x="182.859648" xlink:href="#m61aa73767c" y="219.197908"/>
     <use style="fill:#008080;stroke:#008080;" x="190.400251" xlink:href="#m61aa73767c" y="233.587717"/>
     <use style="fill:#008080;stroke:#008080;" x="197.940854" xlink:href="#m61aa73767c" y="247.693018"/>
     <use style="fill:#008080;stroke:#008080;" x="205.481457" xlink:href="#m61aa73767c" y="260.753397"/>
     <use style="fill:#008080;stroke:#008080;" x="213.02206" xlink:href="#m61aa73767c" y="271.967485"/>
     <use style="fill:#008080;stroke:#008080;" x="220.562663" xlink:href="#m61aa73767c" y="280.576904"/>
     <use style="fill:#008080;stroke:#008080;" x="228.103266" xlink:href="#m61aa73767c" y="285.95638"/>
     <use style="fill:#008080;stroke:#008080;" x="235.643869" xlink:href="#m61aa73767c" y="287.694545"/>
     <use style="fill:#008080;stroke:#008080;" x="243.184472" xlink:href="#m61aa73767c" y="285.650129"/>
     <use style="fill:#008080;stroke:#008080;" x="250.725075" xlink:href="#m61aa73767c" y="279.972301"/>
     <use style="fill:#008080;stroke:#008080;" x="258.265678" xlink:href="#m61aa73767c" y="271.080905"/>
     <use style="fill:#008080;stroke:#008080;" x="265.806281" xlink:href="#m61aa73767c" y="259.610489"/>
     <use style="fill:#008080;stroke:#008080;" x="273.346884" xlink:href="#m61aa73767c" y="246.329192"/>
     <use style="fill:#008080;stroke:#008080;" x="280.887487" xlink:href="#m61aa73767c" y="232.047729"/>
     <use style="fill:#008080;stroke:#008080;" x="288.42809" xlink:href="#m61aa73767c" y="217.534207"/>
     <use style="fill:#008080;stroke:#008080;" x="295.968693" xlink:href="#m61aa73767c" y="203.447346"/>
     <use style="fill:#008080;stroke:#008080;" x="303.509296" xlink:href="#m61aa73767c" y="190.295235"/>
     <use style="fill:#008080;stroke:#008080;" x="311.049899" xlink:href="#m61aa73767c" y="178.420785"/>
     <use style="fill:#008080;stroke:#008080;" x="318.590503" xlink:href="#m61aa73767c" y="168.009934"/>
     <use style="fill:#008080;stroke:#008080;" x="326.131106" xlink:href="#m61aa73767c" y="159.115636"/>
     <use style="fill:#008080;stroke:#008080;" x="333.671709" xlink:href="#m61aa73767c" y="151.689833"/>
     <use style="fill:#008080;stroke:#008080;" x="341.212312" xlink:href="#m61aa73767c" y="145.616579"/>
     <use style="fill:#008080;stroke:#008080;" x="348.752915" xlink:href="#m61aa73767c" y="140.741489"/>
     <use style="fill:#008080;stroke:#008080;" x="356.293518" xlink:href="#m61aa73767c" y="136.895021"/>
     <use style="fill:#008080;stroke:#008080;" x="363.834121" xlink:href="#m61aa73767c" y="133.908943"/>
     <use style="fill:#008080;stroke:#008080;" x="371.374724" xlink:href="#m61aa73767c" y="131.626707"/>
     <use style="fill:#008080;stroke:#008080;" x="378.915327" xlink:href="#m61aa73767c" y="129.909012"/>
     <use style="fill:#008080;stroke:#008080;" x="386.45593" xlink:href="#m61aa73767c" y="128.635975"/>
     <use style="fill:#008080;stroke:#008080;" x="393.996533" xlink:href="#m61aa73767c" y="127.707129"/>
     <use style="fill:#008080;stroke:#008080;" x="401.537136" xlink:href="#m61aa73767c" y="127.040171"/>
     <use style="fill:#008080;stroke:#008080;" x="409.077739" xlink:href="#m61aa73767c" y="126.569051"/>
     <use style="fill:#008080;stroke:#008080;" x="416.618342" xlink:href="#m61aa73767c" y="126.241813"/>
     <use style="fill:#008080;stroke:#008080;" x="424.158945" xlink:href="#m61aa73767c" y="126.018384"/>
     <use style="fill:#008080;stroke:#008080;" x="431.699548" xlink:href="#m61aa73767c" y="125.868477"/>
    </g>
   </g>
   <g id="line2d_21">
    <path clip-path="url(#pddd08a595b)" d="M 61.843647 122.943447  L 63.162517 122.843537  L 70.636108 121.877169  L 77.670077 120.746297  L 84.264422 119.454004  L 90.419145 118.014413  L 96.134244 116.451593  L 101.849343 114.650381  L 107.12482 112.760792  L 112.400296 110.641803  L 117.675772 108.28576  L 122.951249 105.689426  L 128.226725 102.854882  L 133.941825 99.525033  L 140.096547 95.660041  L 146.690892 91.240318  L 154.604107 85.646305  L 181.970641 66.011734  L 188.125363 62.033715  L 193.620651 58.739961  L 198.896127 55.831336  L 204.226557 53.152367  L 209.502033 50.751661  L 214.997321 48.496443  L 220.822326 46.347934  L 226.977049 44.311839  L 231.125991 43.062595  L 237.280713 41.396909  L 242.721048 40.147521  L 247.309614 39.31046  L 251.376127 38.788308  L 255.003017 38.543223  L 258.30019 38.53879  L 261.377551 38.752757  L 264.345006 39.183582  L 267.202556 39.826769  L 269.9502 40.671346  L 272.697844 41.748193  L 275.390535 43.034928  L 278.248085 44.652428  L 281.105634 46.525552  L 284.182996 48.817259  L 287.480168 51.56656  L 290.997152 54.797948  L 294.95376 58.741976  L 299.789613 63.893819  L 307.263205 72.232167  L 316.385383 82.337529  L 321.660859 87.856644  L 326.496712 92.591571  L 330.892943 96.582176  L 335.289173 100.251106  L 339.24578 103.270672  L 343.202387 106.023349  L 347.158995 108.515302  L 351.115602 110.756678  L 355.072209 112.76048  L 359.46844 114.72647  L 363.86467 116.439668  L 368.2609 117.922897  L 373.096754 119.316031  L 378.37223 120.584526  L 383.647706 121.625975  L 389.362806 122.536703  L 395.957151 123.354969  L 403.430743 124.042481  L 411.78358 124.582167  L 421.89491 125.006161  L 435.083601 125.318034  L 437.721339 125.352289  L 437.721339 125.352289  " style="fill:none;stroke:#e74c3c;stroke-linecap:square;stroke-width:2;"/>
   </g>
   <g id="line2d_22">
    <path clip-path="url(#pddd08a595b)" d="M 61.843647 125.581885  L 85.583291 125.474937  L 100.970097 125.217956  L 111.52105 124.825501  L 119.434265 124.324177  L 126.468233 123.655604  L 132.622955 122.837172  L 137.898432 121.914841  L 142.734285 120.852311  L 147.130516 119.676181  L 151.526746 118.272418  L 155.483353 116.792915  L 159.43996 115.09034  L 163.396568 113.149252  L 167.463081 110.892887  L 171.419688 108.435226  L 175.376295 105.716584  L 179.552714 102.568747  L 183.948944 98.962548  L 188.564986 94.885359  L 194.060274 89.715167  L 201.80863 82.073492  L 210.820902 73.246608  L 215.436944 69.038351  L 219.17374 65.919431  L 222.470912 63.451572  L 225.438368 61.507123  L 228.158535 59.990815  L 230.686368 58.836794  L 233.049342 58.000522  L 235.30241 57.43688  L 237.445572 57.124117  L 239.533781 57.037613  L 241.621991 57.173045  L 243.7102 57.534805  L 245.770933 58.115742  L 247.859143 58.930996  L 250.057258 60.032218  L 252.365279 61.449407  L 254.783205 63.207839  L 257.311038 65.325728  L 260.058682 67.920876  L 263.136043 71.139948  L 266.762933 75.269424  L 271.598786 81.139821  L 282.424503 94.384883  L 286.600922 99.066454  L 290.117906 102.687097  L 293.415079 105.776088  L 296.712252 108.552554  L 299.789613 110.859393  L 302.866974 112.898358  L 305.944336 114.683074  L 309.241508 116.334211  L 312.538681 117.741319  L 315.94576 118.96921  L 319.902367 120.147313  L 324.298597 121.197397  L 329.13445 122.102029  L 334.409927 122.859846  L 340.564649 123.522288  L 348.038241 124.102447  L 357.709947 124.613692  L 370.019392 125.02319  L 386.285444 125.324988  L 409.585465 125.513813  L 437.721339 125.582702  L 437.721339 125.582702  " style="fill:none;stroke:#808000;stroke-linecap:square;stroke-width:2;"/>
   </g>
   <g id="line2d_23">
    <path clip-path="url(#pddd08a595b)" d="M 61.843647 128.28013  L 63.162517 128.381562  L 70.636108 129.366109  L 77.230454 130.446508  L 83.385176 131.670585  L 89.100275 133.025105  L 94.375752 134.488296  L 99.651228 136.181485  L 104.487082 137.957888  L 109.322935 139.970245  L 114.158788 142.239799  L 118.555018 144.544297  L 122.951249 147.095219  L 127.347479 149.90839  L 131.743709 152.999045  L 136.13994 156.381437  L 140.53617 160.068353  L 144.9324 164.070516  L 149.328631 168.395881  L 153.724861 173.048808  L 158.121091 178.029152  L 162.517322 183.331279  L 167.463081 189.66541  L 172.518746 196.515428  L 178.014033 204.338712  L 184.608379 214.135676  L 195.159332 230.290877  L 203.896839 243.500583  L 209.282222 251.245499  L 213.678452 257.186955  L 217.415248 261.879931  L 220.822326 265.809178  L 223.899687 269.023729  L 226.757237 271.686561  L 229.367499 273.818559  L 231.785425 275.514787  L 234.093446 276.86531  L 236.236609 277.869853  L 238.324818 278.605397  L 240.303122 279.071083  L 242.226472 279.300371  L 244.149823 279.302789  L 245.990745 279.087608  L 247.859143 278.647883  L 249.72754 277.982586  L 251.705844 277.030901  L 253.684148 275.825186  L 255.772357 274.279338  L 257.860567 272.457888  L 260.058682 270.25111  L 262.476608 267.494674  L 265.004441 264.265401  L 267.752085 260.383918  L 270.71954 255.803255  L 273.686996 250.827946  L 278.028273 243.168207  L 283.303749 233.270285  L 299.130179 203.24258  L 303.966032 194.716189  L 308.362262 187.417723  L 312.318869 181.259121  L 315.94576 175.972534  L 319.902367 170.604144  L 323.419351 166.181186  L 326.936335 162.081511  L 330.45332 158.296793  L 333.970304 154.816265  L 337.487288 151.627377  L 341.004272 148.716311  L 344.521257 146.068389  L 348.477864 143.385057  L 352.434471 140.993428  L 356.391078 138.871355  L 360.347686 136.996919  L 364.743916 135.178596  L 369.140146 133.611146  L 373.536377 132.267495  L 378.37223 131.017558  L 383.647706 129.890625  L 389.362806 128.90645  L 395.517528 128.074722  L 402.551497 127.356756  L 410.464711 126.77756  L 420.136418 126.30739  L 432.00624 125.966685  L 437.721339 125.87047  L 437.721339 125.87047  " style="fill:none;stroke:#008080;stroke-linecap:square;stroke-width:2;"/>
   </g>
   <g id="patch_3">
    <path d="M 62.21 300.76  L 62.21 13.32  " style="fill:none;stroke:#000000;stroke-linecap:square;stroke-linejoin:miter;stroke-width:0.8;"/>
   </g>
   <g id="patch_4">
    <path d="M 437.355 300.76  L 437.355 13.32  " style="fill:none;stroke:#000000;stroke-linecap:square;stroke-linejoin:miter;stroke-width:0.8;"/>
   </g>
   <g id="patch_5">
    <path d="M 62.21 300.76  L 437.355 300.76  " style="fill:none;stroke:#000000;stroke-linecap:square;stroke-linejoin:miter;stroke-width:0.8;"/>
   </g>
   <g id="patch_6">
    <path d="M 62.21 13.32  L 437.355 13.32  " style="fill:none;stroke:#000000;stroke-linecap:square;stroke-linejoin:miter;stroke-width:0.8;"/>
   </g>
   <g id="legend_1">
    <g id="patch_7">
     <path d="M 364.131563 109.38875  L 430.355 109.38875  Q 432.355 109.38875 432.355 107.38875  L 432.355 20.32  Q 432.355 18.32 430.355 18.32  L 364.131563 18.32  Q 362.131563 18.32 362.131563 20.32  L 362.131563 107.38875  Q 362.131563 109.38875 364.131563 109.38875  z " style="fill:#ffffff;opacity:0.8;stroke:#cccccc;stroke-linejoin:miter;"/>
    </g>
    <g id="line2d_24"/>
    <g id="line2d_25">
     <g>
      <use style="fill:#e74c3c;stroke:#e74c3c;stroke-linejoin:miter;" x="376.131563" xlink:href="#m5fefdd3372" y="26.418437"/>
     </g>
    </g>
    <g id="text_20">
     <!-- exp-Al -->
     <defs>
      <path d="M 54.890625 54.6875  L 35.109375 28.078125  L 55.90625 0  L 45.3125 0  L 29.390625 21.484375  L 13.484375 0  L 2.875 0  L 24.125 28.609375  L 4.6875 54.6875  L 15.28125 54.6875  L 29.78125 35.203125  L 44.28125 54.6875  z " id="DejaVuSans-78"/>
      <path d="M 4.890625 31.390625  L 31.203125 31.390625  L 31.203125 23.390625  L 4.890625 23.390625  z " id="DejaVuSans-2d"/>
      <path d="M 34.1875 63.1875  L 20.796875 26.90625  L 47.609375 26.90625  z M 28.609375 72.90625  L 39.796875 72.90625  L 67.578125 0  L 57.328125 0  L 50.6875 18.703125  L 17.828125 18.703125  L 11.1875 0  L 0.78125 0  z " id="DejaVuSans-41"/>
     </defs>
     <g transform="translate(394.131563 29.918437)scale(0.1 -0.1)">
      <use xlink:href="#DejaVuSans-65"/>
      <use x="61.507812" xlink:href="#DejaVuSans-78"/>
      <use x="120.6875" xlink:href="#DejaVuSans-70"/>
      <use x="184.164062" xlink:href="#DejaVuSans-2d"/>
      <use x="220.216797" xlink:href="#DejaVuSans-41"/>
      <use x="288.625" xlink:href="#DejaVuSans-6c"/>
     </g>
    </g>
    <g id="line2d_26"/>
    <g id="line2d_27">
     <g>
      <use style="fill:#808000;stroke:#808000;stroke-linejoin:bevel;" x="376.131563" xlink:href="#m7a63bf7c46" y="41.096563"/>
     </g>
    </g>
    <g id="text_21">
     <!-- exp-Ta -->
     <defs>
      <path d="M -0.296875 72.90625  L 61.375 72.90625  L 61.375 64.59375  L 35.5 64.59375  L 35.5 0  L 25.59375 0  L 25.59375 64.59375  L -0.296875 64.59375  z " id="DejaVuSans-54"/>
     </defs>
     <g transform="translate(394.131563 44.596563)scale(0.1 -0.1)">
      <use xlink:href="#DejaVuSans-65"/>
      <use x="61.507812" xlink:href="#DejaVuSans-78"/>
      <use x="120.6875" xlink:href="#DejaVuSans-70"/>
      <use x="184.164062" xlink:href="#DejaVuSans-2d"/>
      <use x="220.107422" xlink:href="#DejaVuSans-54"/>
      <use x="280.941406" xlink:href="#DejaVuSans-61"/>
     </g>
    </g>
    <g id="line2d_28"/>
    <g id="line2d_29">
     <g>
      <use style="fill:#008080;stroke:#008080;" x="376.131563" xlink:href="#m61aa73767c" y="55.774687"/>
     </g>
    </g>
    <g id="text_22">
     <!-- exp-Ni -->
     <defs>
      <path d="M 9.8125 72.90625  L 23.09375 72.90625  L 55.421875 11.921875  L 55.421875 72.90625  L 64.984375 72.90625  L 64.984375 0  L 51.703125 0  L 19.390625 60.984375  L 19.390625 0  L 9.8125 0  z " id="DejaVuSans-4e"/>
     </defs>
     <g transform="translate(394.131563 59.274687)scale(0.1 -0.1)">
      <use xlink:href="#DejaVuSans-65"/>
      <use x="61.507812" xlink:href="#DejaVuSans-78"/>
      <use x="120.6875" xlink:href="#DejaVuSans-70"/>
      <use x="184.164062" xlink:href="#DejaVuSans-2d"/>
      <use x="220.248047" xlink:href="#DejaVuSans-4e"/>
      <use x="295.052734" xlink:href="#DejaVuSans-69"/>
     </g>
    </g>
    <g id="line2d_30">
     <path d="M 366.131563 70.452812  L 386.131563 70.452812  " style="fill:none;stroke:#e74c3c;stroke-linecap:square;stroke-width:2;"/>
    </g>
    <g id="line2d_31"/>
    <g id="text_23">
     <!-- sim-Al -->
     <g transform="translate(394.131563 73.952812)scale(0.1 -0.1)">
      <use xlink:href="#DejaVuSans-73"/>
      <use x="52.099609" xlink:href="#DejaVuSans-69"/>
      <use x="79.882812" xlink:href="#DejaVuSans-6d"/>
      <use x="177.294922" xlink:href="#DejaVuSans-2d"/>
      <use x="213.347656" xlink:href="#DejaVuSans-41"/>
      <use x="281.755859" xlink:href="#DejaVuSans-6c"/>
     </g>
    </g>
    <g id="line2d_32">
     <path d="M 366.131563 85.130938  L 386.131563 85.130938  " style="fill:none;stroke:#808000;stroke-linecap:square;stroke-width:2;"/>
    </g>
    <g id="line2d_33"/>
    <g id="text_24">
     <!-- sim-Ta -->
     <g transform="translate(394.131563 88.630938)scale(0.1 -0.1)">
      <use xlink:href="#DejaVuSans-73"/>
      <use x="52.099609" xlink:href="#DejaVuSans-69"/>
      <use x="79.882812" xlink:href="#DejaVuSans-6d"/>
      <use x="177.294922" xlink:href="#DejaVuSans-2d"/>
      <use x="213.238281" xlink:href="#DejaVuSans-54"/>
      <use x="274.072266" xlink:href="#DejaVuSans-61"/>
     </g>
    </g>
    <g id="line2d_34">
     <path d="M 366.131563 99.809062  L 386.131563 99.809062  " style="fill:none;stroke:#008080;stroke-linecap:square;stroke-width:2;"/>
    </g>
    <g id="line2d_35"/>
    <g id="text_25">
     <!-- sim-Ni -->
     <g transform="translate(394.131563 103.309062)scale(0.1 -0.1)">
      <use xlink:href="#DejaVuSans-73"/>
      <use x="52.099609" xlink:href="#DejaVuSans-69"/>
      <use x="79.882812" xlink:href="#DejaVuSans-6d"/>
      <use x="177.294922" xlink:href="#DejaVuSans-2d"/>
      <use x="213.378906" xlink:href="#DejaVuSans-4e"/>
      <use x="288.183594" xlink:href="#DejaVuSans-69"/>
     </g>
    </g>
   </g>
  </g>
 </g>
 <defs>
  <clipPath id="pddd08a595b">
   <rect height="287.44" width="375.145" x="62.21" y="13.32"/>
  </clipPath>
 </defs>
</g>
    <g transform="translate(10, 300) scale(1) ">
      <g transform="translate(0, 0) scale(3.0) "><defs id="defs831"/>
  <sodipodi:namedview xmlns:sodipodi="http://sodipodi.sourceforge.net/DTD/sodipodi-0.dtd" xmlns:inkscape="http://www.inkscape.org/namespaces/inkscape" id="base" pagecolor="#ffffff" bordercolor="#666666" borderopacity="1.0" inkscape:pageopacity="0.0" inkscape:pageshadow="2" inkscape:zoom="1.979899" inkscape:cx="-12.763683" inkscape:cy="-16.680883" inkscape:document-units="mm" inkscape:current-layer="layer1" showgrid="false" inkscape:window-width="1920" inkscape:window-height="1001" inkscape:window-x="-9" inkscape:window-y="-9" inkscape:window-maximized="1" units="pt"/>
  <metadata xmlns:rdf="http://www.w3.org/1999/02/22-rdf-syntax-ns#" xmlns:cc="http://creativecommons.org/ns#" xmlns:dc="http://purl.org/dc/elements/1.1/" id="metadata834">
    <rdf:RDF>
      <cc:Work rdf:about="">
        <dc:format>image/svg+xml</dc:format>
        <dc:type rdf:resource="http://purl.org/dc/dcmitype/StillImage"/>
        <dc:title/>
      </cc:Work>
    </rdf:RDF>
  </metadata>
  <g xmlns:inkscape="http://www.inkscape.org/namespaces/inkscape" xmlns:sodipodi="http://sodipodi.sourceforge.net/DTD/sodipodi-0.dtd" inkscape:label="Layer 1" inkscape:groupmode="layer" id="layer1" transform="translate(0,-288.81557)">
    <g id="g4761" transform="matrix(0.07377843,0,0,0.07377843,-0.76923022,275.45946)">
      <path inkscape:connector-curvature="0" id="path1959-6-7-1-6-5-4-0-3-2-6-0-3-9-6" style="font-style:normal;font-variant:normal;font-weight:bold;font-stretch:normal;font-size:120.99466705px;line-height:1.25;font-family:Aharoni;-inkscape-font-specification:'Aharoni, Bold';font-variant-ligatures:normal;font-variant-caps:normal;font-variant-numeric:normal;font-feature-settings:normal;text-align:start;letter-spacing:0px;word-spacing:0px;writing-mode:lr-tb;text-anchor:start;fill:#000000;fill-opacity:1;stroke:none;stroke-width:2.37649584" d="M 52.937412,287.55677 H 40.587702 V 265.43005 H 22.776041 v 22.12672 h -12.34982 v -53.17432 h 12.34982 v 20.5296 h 17.811661 v -20.5296 h 12.34971 z"/>
      <path inkscape:connector-curvature="0" id="path1961-2-9-7-9-3-1-6-5-1-5-8-7-8-2" style="font-style:normal;font-variant:normal;font-weight:bold;font-stretch:normal;font-size:120.99466705px;line-height:1.25;font-family:Aharoni;-inkscape-font-specification:'Aharoni, Bold';font-variant-ligatures:normal;font-variant-caps:normal;font-variant-numeric:normal;font-feature-settings:normal;text-align:start;letter-spacing:0px;word-spacing:0px;writing-mode:lr-tb;text-anchor:start;fill:#000000;fill-opacity:1;stroke:none;stroke-width:2.37649584" d="m 69.681125,237.49895 q 0,3.0385 -1.87856,5.1421 -1.84375,2.0647 -4.55721,2.0647 -2.67866,0 -4.55722,-2.1036 -1.84375,-2.1036 -1.84375,-5.1032 0,-2.9996 1.84375,-5.0642 1.87856,-2.1036 4.55722,-2.1036 2.67865,0 4.55721,2.1036 1.87856,2.0646 1.87856,5.0642 z m -0.73057,50.05782 h -11.41048 v -36.15072 h 11.41048 z"/>
      <path inkscape:connector-curvature="0" id="path1963-3-1-2-8-3-6-3-3-3-4-7-6-0-8" style="font-style:normal;font-variant:normal;font-weight:bold;font-stretch:normal;font-size:120.99466705px;line-height:1.25;font-family:Aharoni;-inkscape-font-specification:'Aharoni, Bold';font-variant-ligatures:normal;font-variant-caps:normal;font-variant-numeric:normal;font-feature-settings:normal;text-align:start;letter-spacing:0px;word-spacing:0px;writing-mode:lr-tb;text-anchor:start;fill:#000000;fill-opacity:1;stroke:none;stroke-width:2.37649584" d="m 93.369625,261.92405 h -6.50536 v 25.63272 h -11.4104 v -25.63272 h -3.75712 v -10.518 h 3.75712 v -10.8686 h 11.4104 v 10.8686 h 6.50536 z"/>
      <path id="path1967-3-3-6-2-9-6-2-5-3-0-9-8-2-1" style="font-style:normal;font-variant:normal;font-weight:bold;font-stretch:normal;font-size:120.99466705px;line-height:1.25;font-family:Aharoni;-inkscape-font-specification:'Aharoni, Bold';font-variant-ligatures:normal;font-variant-caps:normal;font-variant-numeric:normal;font-feature-settings:normal;text-align:start;letter-spacing:0px;word-spacing:0px;writing-mode:lr-tb;text-anchor:start;fill:#000000;fill-opacity:1;stroke:none;stroke-width:2.37649584" d="m 160.61447,287.55677 h -12.34971 v -53.17432 h 12.34971 z" inkscape:connector-curvature="0"/>
      <path inkscape:connector-curvature="0" id="path1969-8-0-8-5-3-5-6-6-3-9-8-6-2-0" style="font-style:normal;font-variant:normal;font-weight:bold;font-stretch:normal;font-size:120.99466705px;line-height:1.25;font-family:Aharoni;-inkscape-font-specification:'Aharoni, Bold';font-variant-ligatures:normal;font-variant-caps:normal;font-variant-numeric:normal;font-feature-settings:normal;text-align:start;letter-spacing:0px;word-spacing:0px;writing-mode:lr-tb;text-anchor:start;fill:#000000;fill-opacity:1;stroke:none;stroke-width:2.37649584" d="m 201.6896,284.86883 q -6.05314,2.68794 -11.20172,2.68794 -8.97528,0 -16.07201,-6.42764 -9.04489,-8.21959 -9.04489,-21.42558 0,-13.2448 9.04489,-21.4644 7.09673,-6.4277 16.17636,-6.4277 4.93989,0 11.09737,2.6879 v 16.5561 q -1.73941,-2.3763 -3.54836,-3.5839 -3.30489,-2.2204 -7.09679,-2.2204 -4.8007,0 -8.34907,3.2333 -4.48766,4.0903 -4.48766,11.2191 0,7.0899 4.48766,11.1803 3.54837,3.23328 8.34907,3.23328 3.7919,0 7.09679,-2.22049 1.77415,-1.16869 3.54836,-3.58389 z"/>
      <path inkscape:transform-center-y="-13.656107" inkscape:transform-center-x="-3.9758045" sodipodi:nodetypes="csssssc" inkscape:connector-curvature="0" id="rect815-3-0-9-3-5-6-0-4-03-7-3-7-5-3-2-76-3-8-8-5-3-7-8-0-1-3-7-9-2-8-1" d="m 104.61223,181.4353 c 0,0 17.68257,27.27493 22.63096,34.41579 7.92879,11.44185 16.42741,30.36094 17.92806,45.50275 1.21005,12.20999 -1.38345,26.51285 -17.32077,30.11208 -11.70405,2.64313 -26.75007,-5.41371 -30.334975,-20.50903 -3.30533,-13.91816 -2.13088,-34.61412 0.0984,-48.67354 1.22049,-7.69719 5.657305,-36.06774 6.998335,-40.84805 z" style="font-style:normal;font-weight:normal;font-size:242.08590698px;line-height:1.25;font-family:sans-serif;letter-spacing:0px;word-spacing:0px;opacity:1;fill:#00456b;fill-opacity:1;stroke:none;stroke-width:0.6720385;stroke-miterlimit:4;stroke-dasharray:none;stroke-dashoffset:0;stroke-opacity:1;paint-order:markers fill stroke"/>
      <path sodipodi:nodetypes="ccscscsccscccscc" d="m 107.52748,246.32531 6.45576,30.78617 6.82019,-1.47997 c 5.75791,-1.24946 9.70999,-3.40081 11.85576,-6.45394 2.16431,-3.05721 2.68673,-7.25521 1.56721,-12.59398 -1.11209,-5.30332 -3.26743,-8.89247 -6.46601,-10.76744 -3.18372,-1.89669 -7.65528,-2.22015 -13.4127,-0.97081 z m -8.759905,-5.09591 12.713095,-2.78742 c 8.8634,-1.94336 15.73718,-1.59097 20.62135,1.05715 4.88003,2.62843 8.10326,7.71587 9.6697,15.26232 1.57464,7.58584 0.64804,13.61405 -2.77981,18.08462 -3.42783,4.4705 -9.55303,7.67294 -18.37559,9.60735 l -12.71311,2.78742 z" style="font-style:normal;font-weight:normal;font-size:242.08590698px;line-height:1.25;font-family:sans-serif;letter-spacing:0px;word-spacing:0px;fill:#ffffff;fill-opacity:1;stroke:none;stroke-width:1.60286868" id="path1193-3-5-3-2-7-4-5-6-0-0-6-9-2-4-7-0-0" inkscape:connector-curvature="0"/>
    </g>
  </g>
</g>
    </g>
  </g>
</svg>
