<?xml version='1.0' encoding='ASCII' standalone='yes'?>
<svg xmlns:xlink="http://www.w3.org/1999/xlink" xmlns="http://www.w3.org/2000/svg" version="1.1" width="460.8px" viewBox="0 0 460.8px 345.6px" height="345.6px">
  <g>
    <g><defs>
  <style type="text/css">
*{stroke-linecap:butt;stroke-linejoin:round;}
  </style>
 </defs>
 <g id="figure_1">
  <g id="patch_1">
   <path d="M 0 345.6  L 460.8 345.6  L 460.8 0  L 0 0  z " style="fill:#ffffff;"/>
  </g>
  <g id="axes_1">
   <g id="patch_2">
    <path d="M 77.028032 300.76  L 437.355 300.76  L 437.355 16.416  L 77.028032 16.416  z " style="fill:#ffffff;"/>
   </g>
   <g id="matplotlib.axis_1">
    <g id="xtick_1">
     <g id="line2d_1">
      <defs>
       <path d="M 0 0  L 0 3.5  " id="md44820da13" style="stroke:#000000;stroke-width:0.8;"/>
      </defs>
      <g>
       <use style="stroke:#000000;stroke-width:0.8;" x="77.028032" xlink:href="#md44820da13" y="300.76"/>
      </g>
     </g>
     <g id="text_1">
      <!-- 0 -->
      <defs>
       <path d="M 31.78125 66.40625  Q 24.171875 66.40625 20.328125 58.90625  Q 16.5 51.421875 16.5 36.375  Q 16.5 21.390625 20.328125 13.890625  Q 24.171875 6.390625 31.78125 6.390625  Q 39.453125 6.390625 43.28125 13.890625  Q 47.125 21.390625 47.125 36.375  Q 47.125 51.421875 43.28125 58.90625  Q 39.453125 66.40625 31.78125 66.40625  z M 31.78125 74.21875  Q 44.046875 74.21875 50.515625 64.515625  Q 56.984375 54.828125 56.984375 36.375  Q 56.984375 17.96875 50.515625 8.265625  Q 44.046875 -1.421875 31.78125 -1.421875  Q 19.53125 -1.421875 13.0625 8.265625  Q 6.59375 17.96875 6.59375 36.375  Q 6.59375 54.828125 13.0625 64.515625  Q 19.53125 74.21875 31.78125 74.21875  z " id="DejaVuSans-30"/>
      </defs>
      <g transform="translate(73.846782 315.358437)scale(0.1 -0.1)">
       <use xlink:href="#DejaVuSans-30"/>
      </g>
     </g>
    </g>
    <g id="xtick_2">
     <g id="line2d_2">
      <g>
       <use style="stroke:#000000;stroke-width:0.8;" x="149.093426" xlink:href="#md44820da13" y="300.76"/>
      </g>
     </g>
     <g id="text_2">
      <!-- 200 -->
      <defs>
       <path d="M 19.1875 8.296875  L 53.609375 8.296875  L 53.609375 0  L 7.328125 0  L 7.328125 8.296875  Q 12.9375 14.109375 22.625 23.890625  Q 32.328125 33.6875 34.8125 36.53125  Q 39.546875 41.84375 41.421875 45.53125  Q 43.3125 49.21875 43.3125 52.78125  Q 43.3125 58.59375 39.234375 62.25  Q 35.15625 65.921875 28.609375 65.921875  Q 23.96875 65.921875 18.8125 64.3125  Q 13.671875 62.703125 7.8125 59.421875  L 7.8125 69.390625  Q 13.765625 71.78125 18.9375 73  Q 24.125 74.21875 28.421875 74.21875  Q 39.75 74.21875 46.484375 68.546875  Q 53.21875 62.890625 53.21875 53.421875  Q 53.21875 48.921875 51.53125 44.890625  Q 49.859375 40.875 45.40625 35.40625  Q 44.1875 33.984375 37.640625 27.21875  Q 31.109375 20.453125 19.1875 8.296875  z " id="DejaVuSans-32"/>
      </defs>
      <g transform="translate(139.549676 315.358437)scale(0.1 -0.1)">
       <use xlink:href="#DejaVuSans-32"/>
       <use x="63.623047" xlink:href="#DejaVuSans-30"/>
       <use x="127.246094" xlink:href="#DejaVuSans-30"/>
      </g>
     </g>
    </g>
    <g id="xtick_3">
     <g id="line2d_3">
      <g>
       <use style="stroke:#000000;stroke-width:0.8;" x="221.158819" xlink:href="#md44820da13" y="300.76"/>
      </g>
     </g>
     <g id="text_3">
      <!-- 400 -->
      <defs>
       <path d="M 37.796875 64.3125  L 12.890625 25.390625  L 37.796875 25.390625  z M 35.203125 72.90625  L 47.609375 72.90625  L 47.609375 25.390625  L 58.015625 25.390625  L 58.015625 17.1875  L 47.609375 17.1875  L 47.609375 0  L 37.796875 0  L 37.796875 17.1875  L 4.890625 17.1875  L 4.890625 26.703125  z " id="DejaVuSans-34"/>
      </defs>
      <g transform="translate(211.615069 315.358437)scale(0.1 -0.1)">
       <use xlink:href="#DejaVuSans-34"/>
       <use x="63.623047" xlink:href="#DejaVuSans-30"/>
       <use x="127.246094" xlink:href="#DejaVuSans-30"/>
      </g>
     </g>
    </g>
    <g id="xtick_4">
     <g id="line2d_4">
      <g>
       <use style="stroke:#000000;stroke-width:0.8;" x="293.224213" xlink:href="#md44820da13" y="300.76"/>
      </g>
     </g>
     <g id="text_4">
      <!-- 600 -->
      <defs>
       <path d="M 33.015625 40.375  Q 26.375 40.375 22.484375 35.828125  Q 18.609375 31.296875 18.609375 23.390625  Q 18.609375 15.53125 22.484375 10.953125  Q 26.375 6.390625 33.015625 6.390625  Q 39.65625 6.390625 43.53125 10.953125  Q 47.40625 15.53125 47.40625 23.390625  Q 47.40625 31.296875 43.53125 35.828125  Q 39.65625 40.375 33.015625 40.375  z M 52.59375 71.296875  L 52.59375 62.3125  Q 48.875 64.0625 45.09375 64.984375  Q 41.3125 65.921875 37.59375 65.921875  Q 27.828125 65.921875 22.671875 59.328125  Q 17.53125 52.734375 16.796875 39.40625  Q 19.671875 43.65625 24.015625 45.921875  Q 28.375 48.1875 33.59375 48.1875  Q 44.578125 48.1875 50.953125 41.515625  Q 57.328125 34.859375 57.328125 23.390625  Q 57.328125 12.15625 50.6875 5.359375  Q 44.046875 -1.421875 33.015625 -1.421875  Q 20.359375 -1.421875 13.671875 8.265625  Q 6.984375 17.96875 6.984375 36.375  Q 6.984375 53.65625 15.1875 63.9375  Q 23.390625 74.21875 37.203125 74.21875  Q 40.921875 74.21875 44.703125 73.484375  Q 48.484375 72.75 52.59375 71.296875  z " id="DejaVuSans-36"/>
      </defs>
      <g transform="translate(283.680463 315.358437)scale(0.1 -0.1)">
       <use xlink:href="#DejaVuSans-36"/>
       <use x="63.623047" xlink:href="#DejaVuSans-30"/>
       <use x="127.246094" xlink:href="#DejaVuSans-30"/>
      </g>
     </g>
    </g>
    <g id="xtick_5">
     <g id="line2d_5">
      <g>
       <use style="stroke:#000000;stroke-width:0.8;" x="365.289606" xlink:href="#md44820da13" y="300.76"/>
      </g>
     </g>
     <g id="text_5">
      <!-- 800 -->
      <defs>
       <path d="M 31.78125 34.625  Q 24.75 34.625 20.71875 30.859375  Q 16.703125 27.09375 16.703125 20.515625  Q 16.703125 13.921875 20.71875 10.15625  Q 24.75 6.390625 31.78125 6.390625  Q 38.8125 6.390625 42.859375 10.171875  Q 46.921875 13.96875 46.921875 20.515625  Q 46.921875 27.09375 42.890625 30.859375  Q 38.875 34.625 31.78125 34.625  z M 21.921875 38.8125  Q 15.578125 40.375 12.03125 44.71875  Q 8.5 49.078125 8.5 55.328125  Q 8.5 64.0625 14.71875 69.140625  Q 20.953125 74.21875 31.78125 74.21875  Q 42.671875 74.21875 48.875 69.140625  Q 55.078125 64.0625 55.078125 55.328125  Q 55.078125 49.078125 51.53125 44.71875  Q 48 40.375 41.703125 38.8125  Q 48.828125 37.15625 52.796875 32.3125  Q 56.78125 27.484375 56.78125 20.515625  Q 56.78125 9.90625 50.3125 4.234375  Q 43.84375 -1.421875 31.78125 -1.421875  Q 19.734375 -1.421875 13.25 4.234375  Q 6.78125 9.90625 6.78125 20.515625  Q 6.78125 27.484375 10.78125 32.3125  Q 14.796875 37.15625 21.921875 38.8125  z M 18.3125 54.390625  Q 18.3125 48.734375 21.84375 45.5625  Q 25.390625 42.390625 31.78125 42.390625  Q 38.140625 42.390625 41.71875 45.5625  Q 45.3125 48.734375 45.3125 54.390625  Q 45.3125 60.0625 41.71875 63.234375  Q 38.140625 66.40625 31.78125 66.40625  Q 25.390625 66.40625 21.84375 63.234375  Q 18.3125 60.0625 18.3125 54.390625  z " id="DejaVuSans-38"/>
      </defs>
      <g transform="translate(355.745856 315.358437)scale(0.1 -0.1)">
       <use xlink:href="#DejaVuSans-38"/>
       <use x="63.623047" xlink:href="#DejaVuSans-30"/>
       <use x="127.246094" xlink:href="#DejaVuSans-30"/>
      </g>
     </g>
    </g>
    <g id="xtick_6">
     <g id="line2d_6">
      <g>
       <use style="stroke:#000000;stroke-width:0.8;" x="437.355" xlink:href="#md44820da13" y="300.76"/>
      </g>
     </g>
     <g id="text_6">
      <!-- 1000 -->
      <defs>
       <path d="M 12.40625 8.296875  L 28.515625 8.296875  L 28.515625 63.921875  L 10.984375 60.40625  L 10.984375 69.390625  L 28.421875 72.90625  L 38.28125 72.90625  L 38.28125 8.296875  L 54.390625 8.296875  L 54.390625 0  L 12.40625 0  z " id="DejaVuSans-31"/>
      </defs>
      <g transform="translate(424.63 315.358437)scale(0.1 -0.1)">
       <use xlink:href="#DejaVuSans-31"/>
       <use x="63.623047" xlink:href="#DejaVuSans-30"/>
       <use x="127.246094" xlink:href="#DejaVuSans-30"/>
       <use x="190.869141" xlink:href="#DejaVuSans-30"/>
      </g>
     </g>
    </g>
    <g id="text_7">
     <!-- Distance ($\mu$m) -->
     <defs>
      <path d="M 19.671875 64.796875  L 19.671875 8.109375  L 31.59375 8.109375  Q 46.6875 8.109375 53.6875 14.9375  Q 60.6875 21.78125 60.6875 36.53125  Q 60.6875 51.171875 53.6875 57.984375  Q 46.6875 64.796875 31.59375 64.796875  z M 9.8125 72.90625  L 30.078125 72.90625  Q 51.265625 72.90625 61.171875 64.09375  Q 71.09375 55.28125 71.09375 36.53125  Q 71.09375 17.671875 61.125 8.828125  Q 51.171875 0 30.078125 0  L 9.8125 0  z " id="DejaVuSans-44"/>
      <path d="M 9.421875 54.6875  L 18.40625 54.6875  L 18.40625 0  L 9.421875 0  z M 9.421875 75.984375  L 18.40625 75.984375  L 18.40625 64.59375  L 9.421875 64.59375  z " id="DejaVuSans-69"/>
      <path d="M 44.28125 53.078125  L 44.28125 44.578125  Q 40.484375 46.53125 36.375 47.5  Q 32.28125 48.484375 27.875 48.484375  Q 21.1875 48.484375 17.84375 46.4375  Q 14.5 44.390625 14.5 40.28125  Q 14.5 37.15625 16.890625 35.375  Q 19.28125 33.59375 26.515625 31.984375  L 29.59375 31.296875  Q 39.15625 29.25 43.1875 25.515625  Q 47.21875 21.78125 47.21875 15.09375  Q 47.21875 7.46875 41.1875 3.015625  Q 35.15625 -1.421875 24.609375 -1.421875  Q 20.21875 -1.421875 15.453125 -0.5625  Q 10.6875 0.296875 5.421875 2  L 5.421875 11.28125  Q 10.40625 8.6875 15.234375 7.390625  Q 20.0625 6.109375 24.8125 6.109375  Q 31.15625 6.109375 34.5625 8.28125  Q 37.984375 10.453125 37.984375 14.40625  Q 37.984375 18.0625 35.515625 20.015625  Q 33.0625 21.96875 24.703125 23.78125  L 21.578125 24.515625  Q 13.234375 26.265625 9.515625 29.90625  Q 5.8125 33.546875 5.8125 39.890625  Q 5.8125 47.609375 11.28125 51.796875  Q 16.75 56 26.8125 56  Q 31.78125 56 36.171875 55.265625  Q 40.578125 54.546875 44.28125 53.078125  z " id="DejaVuSans-73"/>
      <path d="M 18.3125 70.21875  L 18.3125 54.6875  L 36.8125 54.6875  L 36.8125 47.703125  L 18.3125 47.703125  L 18.3125 18.015625  Q 18.3125 11.328125 20.140625 9.421875  Q 21.96875 7.515625 27.59375 7.515625  L 36.8125 7.515625  L 36.8125 0  L 27.59375 0  Q 17.1875 0 13.234375 3.875  Q 9.28125 7.765625 9.28125 18.015625  L 9.28125 47.703125  L 2.6875 47.703125  L 2.6875 54.6875  L 9.28125 54.6875  L 9.28125 70.21875  z " id="DejaVuSans-74"/>
      <path d="M 34.28125 27.484375  Q 23.390625 27.484375 19.1875 25  Q 14.984375 22.515625 14.984375 16.5  Q 14.984375 11.71875 18.140625 8.90625  Q 21.296875 6.109375 26.703125 6.109375  Q 34.1875 6.109375 38.703125 11.40625  Q 43.21875 16.703125 43.21875 25.484375  L 43.21875 27.484375  z M 52.203125 31.203125  L 52.203125 0  L 43.21875 0  L 43.21875 8.296875  Q 40.140625 3.328125 35.546875 0.953125  Q 30.953125 -1.421875 24.3125 -1.421875  Q 15.921875 -1.421875 10.953125 3.296875  Q 6 8.015625 6 15.921875  Q 6 25.140625 12.171875 29.828125  Q 18.359375 34.515625 30.609375 34.515625  L 43.21875 34.515625  L 43.21875 35.40625  Q 43.21875 41.609375 39.140625 45  Q 35.0625 48.390625 27.6875 48.390625  Q 23 48.390625 18.546875 47.265625  Q 14.109375 46.140625 10.015625 43.890625  L 10.015625 52.203125  Q 14.9375 54.109375 19.578125 55.046875  Q 24.21875 56 28.609375 56  Q 40.484375 56 46.34375 49.84375  Q 52.203125 43.703125 52.203125 31.203125  z " id="DejaVuSans-61"/>
      <path d="M 54.890625 33.015625  L 54.890625 0  L 45.90625 0  L 45.90625 32.71875  Q 45.90625 40.484375 42.875 44.328125  Q 39.84375 48.1875 33.796875 48.1875  Q 26.515625 48.1875 22.3125 43.546875  Q 18.109375 38.921875 18.109375 30.90625  L 18.109375 0  L 9.078125 0  L 9.078125 54.6875  L 18.109375 54.6875  L 18.109375 46.1875  Q 21.34375 51.125 25.703125 53.5625  Q 30.078125 56 35.796875 56  Q 45.21875 56 50.046875 50.171875  Q 54.890625 44.34375 54.890625 33.015625  z " id="DejaVuSans-6e"/>
      <path d="M 48.78125 52.59375  L 48.78125 44.1875  Q 44.96875 46.296875 41.140625 47.34375  Q 37.3125 48.390625 33.40625 48.390625  Q 24.65625 48.390625 19.8125 42.84375  Q 14.984375 37.3125 14.984375 27.296875  Q 14.984375 17.28125 19.8125 11.734375  Q 24.65625 6.203125 33.40625 6.203125  Q 37.3125 6.203125 41.140625 7.25  Q 44.96875 8.296875 48.78125 10.40625  L 48.78125 2.09375  Q 45.015625 0.34375 40.984375 -0.53125  Q 36.96875 -1.421875 32.421875 -1.421875  Q 20.0625 -1.421875 12.78125 6.34375  Q 5.515625 14.109375 5.515625 27.296875  Q 5.515625 40.671875 12.859375 48.328125  Q 20.21875 56 33.015625 56  Q 37.15625 56 41.109375 55.140625  Q 45.0625 54.296875 48.78125 52.59375  z " id="DejaVuSans-63"/>
      <path d="M 56.203125 29.59375  L 56.203125 25.203125  L 14.890625 25.203125  Q 15.484375 15.921875 20.484375 11.0625  Q 25.484375 6.203125 34.421875 6.203125  Q 39.59375 6.203125 44.453125 7.46875  Q 49.3125 8.734375 54.109375 11.28125  L 54.109375 2.78125  Q 49.265625 0.734375 44.1875 -0.34375  Q 39.109375 -1.421875 33.890625 -1.421875  Q 20.796875 -1.421875 13.15625 6.1875  Q 5.515625 13.8125 5.515625 26.8125  Q 5.515625 40.234375 12.765625 48.109375  Q 20.015625 56 32.328125 56  Q 43.359375 56 49.78125 48.890625  Q 56.203125 41.796875 56.203125 29.59375  z M 47.21875 32.234375  Q 47.125 39.59375 43.09375 43.984375  Q 39.0625 48.390625 32.421875 48.390625  Q 24.90625 48.390625 20.390625 44.140625  Q 15.875 39.890625 15.1875 32.171875  z " id="DejaVuSans-65"/>
      <path id="DejaVuSans-20"/>
      <path d="M 31 75.875  Q 24.46875 64.65625 21.28125 53.65625  Q 18.109375 42.671875 18.109375 31.390625  Q 18.109375 20.125 21.3125 9.0625  Q 24.515625 -2 31 -13.1875  L 23.1875 -13.1875  Q 15.875 -1.703125 12.234375 9.375  Q 8.59375 20.453125 8.59375 31.390625  Q 8.59375 42.28125 12.203125 53.3125  Q 15.828125 64.359375 23.1875 75.875  z " id="DejaVuSans-28"/>
      <path d="M -1.3125 -20.796875  L 13.375 54.6875  L 22.40625 54.6875  L 15.765625 20.65625  Q 15.578125 19.625 15.421875 18.359375  Q 15.28125 17.09375 15.28125 15.828125  Q 15.28125 11.28125 18.140625 8.828125  Q 21 6.390625 26.3125 6.390625  Q 33.546875 6.390625 37.984375 10.484375  Q 42.4375 14.59375 44 22.796875  L 50.203125 54.6875  L 59.1875 54.6875  L 51.03125 12.640625  Q 50.828125 11.71875 50.75 11.03125  Q 50.6875 10.359375 50.6875 9.8125  Q 50.6875 8.296875 51.296875 7.59375  Q 51.90625 6.890625 53.21875 6.890625  Q 53.71875 6.890625 54.5625 7.125  Q 55.421875 7.375 56.984375 8.015625  L 55.609375 0.78125  Q 53.46875 -0.296875 51.515625 -0.859375  Q 49.5625 -1.421875 47.703125 -1.421875  Q 44.484375 -1.421875 42.65625 0.625  Q 40.828125 2.6875 40.828125 6.296875  Q 38.09375 2.390625 34.296875 0.484375  Q 30.515625 -1.421875 25.390625 -1.421875  Q 20.84375 -1.421875 17.453125 0.671875  Q 14.0625 2.78125 12.984375 6.203125  L 7.71875 -20.796875  z " id="DejaVuSans-Oblique-3bc"/>
      <path d="M 52 44.1875  Q 55.375 50.25 60.0625 53.125  Q 64.75 56 71.09375 56  Q 79.640625 56 84.28125 50.015625  Q 88.921875 44.046875 88.921875 33.015625  L 88.921875 0  L 79.890625 0  L 79.890625 32.71875  Q 79.890625 40.578125 77.09375 44.375  Q 74.3125 48.1875 68.609375 48.1875  Q 61.625 48.1875 57.5625 43.546875  Q 53.515625 38.921875 53.515625 30.90625  L 53.515625 0  L 44.484375 0  L 44.484375 32.71875  Q 44.484375 40.625 41.703125 44.40625  Q 38.921875 48.1875 33.109375 48.1875  Q 26.21875 48.1875 22.15625 43.53125  Q 18.109375 38.875 18.109375 30.90625  L 18.109375 0  L 9.078125 0  L 9.078125 54.6875  L 18.109375 54.6875  L 18.109375 46.1875  Q 21.1875 51.21875 25.484375 53.609375  Q 29.78125 56 35.6875 56  Q 41.65625 56 45.828125 52.96875  Q 50 49.953125 52 44.1875  z " id="DejaVuSans-6d"/>
      <path d="M 8.015625 75.875  L 15.828125 75.875  Q 23.140625 64.359375 26.78125 53.3125  Q 30.421875 42.28125 30.421875 31.390625  Q 30.421875 20.453125 26.78125 9.375  Q 23.140625 -1.703125 15.828125 -13.1875  L 8.015625 -13.1875  Q 14.5 -2 17.703125 9.0625  Q 20.90625 20.125 20.90625 31.390625  Q 20.90625 42.671875 17.703125 53.65625  Q 14.5 64.65625 8.015625 75.875  z " id="DejaVuSans-29"/>
     </defs>
     <g transform="translate(221.741516 329.038125)scale(0.1 -0.1)">
      <use transform="translate(0 0.015625)" xlink:href="#DejaVuSans-44"/>
      <use transform="translate(77.001953 0.015625)" xlink:href="#DejaVuSans-69"/>
      <use transform="translate(104.785156 0.015625)" xlink:href="#DejaVuSans-73"/>
      <use transform="translate(156.884766 0.015625)" xlink:href="#DejaVuSans-74"/>
      <use transform="translate(196.09375 0.015625)" xlink:href="#DejaVuSans-61"/>
      <use transform="translate(257.373047 0.015625)" xlink:href="#DejaVuSans-6e"/>
      <use transform="translate(320.751953 0.015625)" xlink:href="#DejaVuSans-63"/>
      <use transform="translate(375.732422 0.015625)" xlink:href="#DejaVuSans-65"/>
      <use transform="translate(437.255859 0.015625)" xlink:href="#DejaVuSans-20"/>
      <use transform="translate(469.042969 0.015625)" xlink:href="#DejaVuSans-28"/>
      <use transform="translate(508.056641 0.015625)" xlink:href="#DejaVuSans-Oblique-3bc"/>
      <use transform="translate(571.679688 0.015625)" xlink:href="#DejaVuSans-6d"/>
      <use transform="translate(669.091797 0.015625)" xlink:href="#DejaVuSans-29"/>
     </g>
    </g>
   </g>
   <g id="matplotlib.axis_2">
    <g id="ytick_1">
     <g id="line2d_7">
      <defs>
       <path d="M 0 0  L -3.5 0  " id="m01e1d151eb" style="stroke:#000000;stroke-width:0.8;"/>
      </defs>
      <g>
       <use style="stroke:#000000;stroke-width:0.8;" x="77.028032" xlink:href="#m01e1d151eb" y="300.76"/>
      </g>
     </g>
     <g id="text_8">
      <!-- $\mathdefault{10^{-13.28}}$ -->
      <defs>
       <path d="M 10.59375 35.5  L 73.1875 35.5  L 73.1875 27.203125  L 10.59375 27.203125  z " id="DejaVuSans-2212"/>
       <path d="M 40.578125 39.3125  Q 47.65625 37.796875 51.625 33  Q 55.609375 28.21875 55.609375 21.1875  Q 55.609375 10.40625 48.1875 4.484375  Q 40.765625 -1.421875 27.09375 -1.421875  Q 22.515625 -1.421875 17.65625 -0.515625  Q 12.796875 0.390625 7.625 2.203125  L 7.625 11.71875  Q 11.71875 9.328125 16.59375 8.109375  Q 21.484375 6.890625 26.8125 6.890625  Q 36.078125 6.890625 40.9375 10.546875  Q 45.796875 14.203125 45.796875 21.1875  Q 45.796875 27.640625 41.28125 31.265625  Q 36.765625 34.90625 28.71875 34.90625  L 20.21875 34.90625  L 20.21875 43.015625  L 29.109375 43.015625  Q 36.375 43.015625 40.234375 45.921875  Q 44.09375 48.828125 44.09375 54.296875  Q 44.09375 59.90625 40.109375 62.90625  Q 36.140625 65.921875 28.71875 65.921875  Q 24.65625 65.921875 20.015625 65.03125  Q 15.375 64.15625 9.8125 62.3125  L 9.8125 71.09375  Q 15.4375 72.65625 20.34375 73.4375  Q 25.25 74.21875 29.59375 74.21875  Q 40.828125 74.21875 47.359375 69.109375  Q 53.90625 64.015625 53.90625 55.328125  Q 53.90625 49.265625 50.4375 45.09375  Q 46.96875 40.921875 40.578125 39.3125  z " id="DejaVuSans-33"/>
       <path d="M 10.6875 12.40625  L 21 12.40625  L 21 0  L 10.6875 0  z " id="DejaVuSans-2e"/>
      </defs>
      <g transform="translate(31.028032 304.559219)scale(0.1 -0.1)">
       <use transform="translate(0 0.765625)" xlink:href="#DejaVuSans-31"/>
       <use transform="translate(63.623047 0.765625)" xlink:href="#DejaVuSans-30"/>
       <use transform="translate(128.203125 39.046875)scale(0.7)" xlink:href="#DejaVuSans-2212"/>
       <use transform="translate(186.855469 39.046875)scale(0.7)" xlink:href="#DejaVuSans-31"/>
       <use transform="translate(231.391602 39.046875)scale(0.7)" xlink:href="#DejaVuSans-33"/>
       <use transform="translate(275.927734 39.046875)scale(0.7)" xlink:href="#DejaVuSans-2e"/>
       <use transform="translate(298.124023 39.046875)scale(0.7)" xlink:href="#DejaVuSans-32"/>
       <use transform="translate(342.660156 39.046875)scale(0.7)" xlink:href="#DejaVuSans-38"/>
      </g>
     </g>
    </g>
    <g id="ytick_2">
     <g id="line2d_8">
      <g>
       <use style="stroke:#000000;stroke-width:0.8;" x="77.028032" xlink:href="#m01e1d151eb" y="16.416"/>
      </g>
     </g>
     <g id="text_9">
      <!-- $\mathdefault{10^{-12.49}}$ -->
      <defs>
       <path d="M 10.984375 1.515625  L 10.984375 10.5  Q 14.703125 8.734375 18.5 7.8125  Q 22.3125 6.890625 25.984375 6.890625  Q 35.75 6.890625 40.890625 13.453125  Q 46.046875 20.015625 46.78125 33.40625  Q 43.953125 29.203125 39.59375 26.953125  Q 35.25 24.703125 29.984375 24.703125  Q 19.046875 24.703125 12.671875 31.3125  Q 6.296875 37.9375 6.296875 49.421875  Q 6.296875 60.640625 12.9375 67.421875  Q 19.578125 74.21875 30.609375 74.21875  Q 43.265625 74.21875 49.921875 64.515625  Q 56.59375 54.828125 56.59375 36.375  Q 56.59375 19.140625 48.40625 8.859375  Q 40.234375 -1.421875 26.421875 -1.421875  Q 22.703125 -1.421875 18.890625 -0.6875  Q 15.09375 0.046875 10.984375 1.515625  z M 30.609375 32.421875  Q 37.25 32.421875 41.125 36.953125  Q 45.015625 41.5 45.015625 49.421875  Q 45.015625 57.28125 41.125 61.84375  Q 37.25 66.40625 30.609375 66.40625  Q 23.96875 66.40625 20.09375 61.84375  Q 16.21875 57.28125 16.21875 49.421875  Q 16.21875 41.5 20.09375 36.953125  Q 23.96875 32.421875 30.609375 32.421875  z " id="DejaVuSans-39"/>
      </defs>
      <g transform="translate(31.028032 20.215219)scale(0.1 -0.1)">
       <use transform="translate(0 0.765625)" xlink:href="#DejaVuSans-31"/>
       <use transform="translate(63.623047 0.765625)" xlink:href="#DejaVuSans-30"/>
       <use transform="translate(128.203125 39.046875)scale(0.7)" xlink:href="#DejaVuSans-2212"/>
       <use transform="translate(186.855469 39.046875)scale(0.7)" xlink:href="#DejaVuSans-31"/>
       <use transform="translate(231.391602 39.046875)scale(0.7)" xlink:href="#DejaVuSans-32"/>
       <use transform="translate(275.927734 39.046875)scale(0.7)" xlink:href="#DejaVuSans-2e"/>
       <use transform="translate(298.178711 39.046875)scale(0.7)" xlink:href="#DejaVuSans-34"/>
       <use transform="translate(342.714844 39.046875)scale(0.7)" xlink:href="#DejaVuSans-39"/>
      </g>
     </g>
    </g>
    <g id="ytick_3">
     <g id="line2d_9">
      <defs>
       <path d="M 0 0  L -2 0  " id="me4a1faa273" style="stroke:#000000;stroke-width:0.6;"/>
      </defs>
      <g>
       <use style="stroke:#000000;stroke-width:0.6;" x="77.028032" xlink:href="#me4a1faa273" y="300.76"/>
      </g>
     </g>
    </g>
    <g id="ytick_4">
     <g id="line2d_10">
      <g>
       <use style="stroke:#000000;stroke-width:0.6;" x="77.028032" xlink:href="#me4a1faa273" y="16.416"/>
      </g>
     </g>
    </g>
    <g id="text_10">
     <!-- Interdiffusivity ($m^2/s$) -->
     <defs>
      <path d="M 9.8125 72.90625  L 19.671875 72.90625  L 19.671875 0  L 9.8125 0  z " id="DejaVuSans-49"/>
      <path d="M 41.109375 46.296875  Q 39.59375 47.171875 37.8125 47.578125  Q 36.03125 48 33.890625 48  Q 26.265625 48 22.1875 43.046875  Q 18.109375 38.09375 18.109375 28.8125  L 18.109375 0  L 9.078125 0  L 9.078125 54.6875  L 18.109375 54.6875  L 18.109375 46.1875  Q 20.953125 51.171875 25.484375 53.578125  Q 30.03125 56 36.53125 56  Q 37.453125 56 38.578125 55.875  Q 39.703125 55.765625 41.0625 55.515625  z " id="DejaVuSans-72"/>
      <path d="M 45.40625 46.390625  L 45.40625 75.984375  L 54.390625 75.984375  L 54.390625 0  L 45.40625 0  L 45.40625 8.203125  Q 42.578125 3.328125 38.25 0.953125  Q 33.9375 -1.421875 27.875 -1.421875  Q 17.96875 -1.421875 11.734375 6.484375  Q 5.515625 14.40625 5.515625 27.296875  Q 5.515625 40.1875 11.734375 48.09375  Q 17.96875 56 27.875 56  Q 33.9375 56 38.25 53.625  Q 42.578125 51.265625 45.40625 46.390625  z M 14.796875 27.296875  Q 14.796875 17.390625 18.875 11.75  Q 22.953125 6.109375 30.078125 6.109375  Q 37.203125 6.109375 41.296875 11.75  Q 45.40625 17.390625 45.40625 27.296875  Q 45.40625 37.203125 41.296875 42.84375  Q 37.203125 48.484375 30.078125 48.484375  Q 22.953125 48.484375 18.875 42.84375  Q 14.796875 37.203125 14.796875 27.296875  z " id="DejaVuSans-64"/>
      <path d="M 37.109375 75.984375  L 37.109375 68.5  L 28.515625 68.5  Q 23.6875 68.5 21.796875 66.546875  Q 19.921875 64.59375 19.921875 59.515625  L 19.921875 54.6875  L 34.71875 54.6875  L 34.71875 47.703125  L 19.921875 47.703125  L 19.921875 0  L 10.890625 0  L 10.890625 47.703125  L 2.296875 47.703125  L 2.296875 54.6875  L 10.890625 54.6875  L 10.890625 58.5  Q 10.890625 67.625 15.140625 71.796875  Q 19.390625 75.984375 28.609375 75.984375  z " id="DejaVuSans-66"/>
      <path d="M 8.5 21.578125  L 8.5 54.6875  L 17.484375 54.6875  L 17.484375 21.921875  Q 17.484375 14.15625 20.5 10.265625  Q 23.53125 6.390625 29.59375 6.390625  Q 36.859375 6.390625 41.078125 11.03125  Q 45.3125 15.671875 45.3125 23.6875  L 45.3125 54.6875  L 54.296875 54.6875  L 54.296875 0  L 45.3125 0  L 45.3125 8.40625  Q 42.046875 3.421875 37.71875 1  Q 33.40625 -1.421875 27.6875 -1.421875  Q 18.265625 -1.421875 13.375 4.4375  Q 8.5 10.296875 8.5 21.578125  z M 31.109375 56  z " id="DejaVuSans-75"/>
      <path d="M 2.984375 54.6875  L 12.5 54.6875  L 29.59375 8.796875  L 46.6875 54.6875  L 56.203125 54.6875  L 35.6875 0  L 23.484375 0  z " id="DejaVuSans-76"/>
      <path d="M 32.171875 -5.078125  Q 28.375 -14.84375 24.75 -17.8125  Q 21.140625 -20.796875 15.09375 -20.796875  L 7.90625 -20.796875  L 7.90625 -13.28125  L 13.1875 -13.28125  Q 16.890625 -13.28125 18.9375 -11.515625  Q 21 -9.765625 23.484375 -3.21875  L 25.09375 0.875  L 2.984375 54.6875  L 12.5 54.6875  L 29.59375 11.921875  L 46.6875 54.6875  L 56.203125 54.6875  z " id="DejaVuSans-79"/>
      <path d="M 89.796875 33.015625  L 83.40625 0  L 74.421875 0  L 80.71875 32.71875  Q 81.109375 34.8125 81.296875 36.328125  Q 81.5 37.84375 81.5 38.921875  Q 81.5 43.3125 79.046875 45.75  Q 76.609375 48.1875 72.21875 48.1875  Q 65.671875 48.1875 60.546875 43.28125  Q 55.421875 38.375 53.90625 30.515625  L 47.90625 0  L 38.921875 0  L 45.3125 32.71875  Q 45.703125 34.515625 45.890625 36.046875  Q 46.09375 37.59375 46.09375 38.8125  Q 46.09375 43.265625 43.65625 45.71875  Q 41.21875 48.1875 36.921875 48.1875  Q 30.28125 48.1875 25.140625 43.28125  Q 20.015625 38.375 18.5 30.515625  L 12.5 0  L 3.515625 0  L 14.203125 54.6875  L 23.1875 54.6875  L 21.484375 46.1875  Q 25.140625 50.984375 30.046875 53.484375  Q 34.96875 56 40.578125 56  Q 46.53125 56 50.359375 52.875  Q 54.203125 49.75 54.984375 44.1875  Q 59.078125 49.953125 64.46875 52.96875  Q 69.875 56 75.875 56  Q 82.90625 56 86.734375 51.953125  Q 90.578125 47.90625 90.578125 40.484375  Q 90.578125 38.875 90.375 36.9375  Q 90.1875 35.015625 89.796875 33.015625  z " id="DejaVuSans-Oblique-6d"/>
      <path d="M 25.390625 72.90625  L 33.6875 72.90625  L 8.296875 -9.28125  L 0 -9.28125  z " id="DejaVuSans-2f"/>
      <path d="M 50 53.078125  L 48.296875 44.578125  Q 44.734375 46.53125 40.765625 47.5  Q 36.8125 48.484375 32.625 48.484375  Q 25.53125 48.484375 21.453125 46.0625  Q 17.390625 43.65625 17.390625 39.5  Q 17.390625 34.671875 26.859375 32.078125  Q 27.59375 31.890625 27.9375 31.78125  L 30.8125 30.90625  Q 39.796875 28.421875 42.796875 25.6875  Q 45.796875 22.953125 45.796875 18.21875  Q 45.796875 9.515625 38.890625 4.046875  Q 31.984375 -1.421875 20.796875 -1.421875  Q 16.453125 -1.421875 11.671875 -0.578125  Q 6.890625 0.25 1.125 2  L 2.875 11.28125  Q 7.8125 8.734375 12.59375 7.421875  Q 17.390625 6.109375 21.78125 6.109375  Q 28.375 6.109375 32.5 8.9375  Q 36.625 11.765625 36.625 16.109375  Q 36.625 20.796875 25.78125 23.6875  L 24.859375 23.921875  L 21.78125 24.703125  Q 14.9375 26.515625 11.765625 29.46875  Q 8.59375 32.421875 8.59375 37.015625  Q 8.59375 45.75 15.15625 50.875  Q 21.734375 56 33.015625 56  Q 37.453125 56 41.671875 55.265625  Q 45.90625 54.546875 50 53.078125  z " id="DejaVuSans-Oblique-73"/>
     </defs>
     <g transform="translate(24.928032 212.088)rotate(-90)scale(0.1 -0.1)">
      <use transform="translate(0 0.765625)" xlink:href="#DejaVuSans-49"/>
      <use transform="translate(29.492188 0.765625)" xlink:href="#DejaVuSans-6e"/>
      <use transform="translate(92.871094 0.765625)" xlink:href="#DejaVuSans-74"/>
      <use transform="translate(132.080078 0.765625)" xlink:href="#DejaVuSans-65"/>
      <use transform="translate(193.603516 0.765625)" xlink:href="#DejaVuSans-72"/>
      <use transform="translate(234.716797 0.765625)" xlink:href="#DejaVuSans-64"/>
      <use transform="translate(298.193359 0.765625)" xlink:href="#DejaVuSans-69"/>
      <use transform="translate(325.976562 0.765625)" xlink:href="#DejaVuSans-66"/>
      <use transform="translate(361.181641 0.765625)" xlink:href="#DejaVuSans-66"/>
      <use transform="translate(396.386719 0.765625)" xlink:href="#DejaVuSans-75"/>
      <use transform="translate(459.765625 0.765625)" xlink:href="#DejaVuSans-73"/>
      <use transform="translate(511.865234 0.765625)" xlink:href="#DejaVuSans-69"/>
      <use transform="translate(539.648438 0.765625)" xlink:href="#DejaVuSans-76"/>
      <use transform="translate(598.828125 0.765625)" xlink:href="#DejaVuSans-69"/>
      <use transform="translate(626.611328 0.765625)" xlink:href="#DejaVuSans-74"/>
      <use transform="translate(665.820312 0.765625)" xlink:href="#DejaVuSans-79"/>
      <use transform="translate(725 0.765625)" xlink:href="#DejaVuSans-20"/>
      <use transform="translate(756.787109 0.765625)" xlink:href="#DejaVuSans-28"/>
      <use transform="translate(795.800781 0.765625)" xlink:href="#DejaVuSans-Oblique-6d"/>
      <use transform="translate(897.862786 39.046875)scale(0.7)" xlink:href="#DejaVuSans-32"/>
      <use transform="translate(945.133294 0.765625)" xlink:href="#DejaVuSans-2f"/>
      <use transform="translate(978.824701 0.765625)" xlink:href="#DejaVuSans-Oblique-73"/>
      <use transform="translate(1030.92431 0.765625)" xlink:href="#DejaVuSans-29"/>
     </g>
    </g>
   </g>
   <g id="line2d_11">
    <path clip-path="url(#p74f73a070e)" d="M 76.676151 29.340727  L 154.793915 29.452165  L 175.062308 29.701476  L 188.57457 30.080771  L 198.286508 30.564613  L 205.359333 31.130296  L 210.63756 31.768722  L 214.649013 32.461106  L 218.027078 33.254849  L 220.982885 34.171569  L 223.516434 35.176776  L 225.838855 36.324815  L 227.950145 37.599588  L 230.061436 39.13878  L 231.961598 40.789713  L 233.86176 42.731652  L 235.761922 45.004721  L 237.662084 47.650161  L 239.509463 50.618115  L 241.409625 54.116548  L 243.309787 58.102032  L 245.209949 62.604255  L 247.215675 67.941001  L 249.326966 74.220921  L 251.543822 81.542713  L 253.866242 89.983096  L 256.505355 100.451674  L 259.461163 113.117546  L 263.261486 130.456109  L 275.058324 185.029148  L 278.278043 198.467128  L 281.128286 209.440286  L 283.767399 218.742232  L 286.274557 226.777314  L 288.702542 233.804527  L 291.024962 239.839742  L 293.241817 244.992471  L 295.458673 249.576243  L 297.569964 253.440685  L 299.681255 256.84675  L 301.792546 259.826854  L 303.903837 262.414886  L 306.015127 264.6454  L 308.126418 266.552896  L 310.290492 268.208251  L 312.612912 269.686808  L 314.935332 270.89718  L 317.468881 271.956724  L 320.213559 272.848437  L 323.169366 273.567896  L 326.547432 274.152747  L 330.558884 274.606738  L 335.414854 274.923047  L 341.854291 275.11634  L 353.255262 275.20183  L 418.283022 275.200494  L 437.706899 275.200489  L 437.706899 275.200489  " style="fill:none;stroke:#e74c3c;stroke-linecap:square;stroke-width:2;"/>
   </g>
   <g id="line2d_12">
    <path clip-path="url(#p74f73a070e)" d="M 76.676151 287.835273  L 176.329082 287.723737  L 199.553282 287.470754  L 213.804496 287.109283  L 223.094176 286.663695  L 229.639178 286.141729  L 234.917405 285.510637  L 239.615028 284.724474  L 243.83761 283.789746  L 247.849062 282.6728  L 251.860515 281.324402  L 256.188662 279.630892  L 261.572453 277.270444  L 274.424937 271.539719  L 279.333688 269.659608  L 284.136875 268.057709  L 289.230365 266.594502  L 294.93085 265.19423  L 301.053594 263.922193  L 307.176337 262.874358  L 313.246299 262.058427  L 319.580172 261.434764  L 326.547432 260.97947  L 334.781466 260.67114  L 346.076873 260.486289  L 366.767524 260.411276  L 437.706899 260.404635  L 437.706899 260.404635  " style="fill:none;stroke:#808000;stroke-linecap:square;stroke-width:2;"/>
   </g>
   <g id="patch_3">
    <path d="M 77.028032 300.76  L 77.028032 16.416  " style="fill:none;stroke:#000000;stroke-linecap:square;stroke-linejoin:miter;stroke-width:0.8;"/>
   </g>
   <g id="patch_4">
    <path d="M 437.355 300.76  L 437.355 16.416  " style="fill:none;stroke:#000000;stroke-linecap:square;stroke-linejoin:miter;stroke-width:0.8;"/>
   </g>
   <g id="patch_5">
    <path d="M 77.028032 300.76  L 437.355 300.76  " style="fill:none;stroke:#000000;stroke-linecap:square;stroke-linejoin:miter;stroke-width:0.8;"/>
   </g>
   <g id="patch_6">
    <path d="M 77.028032 16.416  L 437.355 16.416  " style="fill:none;stroke:#000000;stroke-linecap:square;stroke-linejoin:miter;stroke-width:0.8;"/>
   </g>
   <g id="legend_1">
    <g id="patch_7">
     <path d="M 373.055 60.116  L 430.355 60.116  Q 432.355 60.116 432.355 58.116  L 432.355 23.416  Q 432.355 21.416 430.355 21.416  L 373.055 21.416  Q 371.055 21.416 371.055 23.416  L 371.055 58.116  Q 371.055 60.116 373.055 60.116  z " style="fill:#ffffff;opacity:0.8;stroke:#cccccc;stroke-linejoin:miter;"/>
    </g>
    <g id="line2d_13">
     <path d="M 375.055 31.916  L 395.055 31.916  " style="fill:none;stroke:#e74c3c;stroke-linecap:square;stroke-width:2;"/>
    </g>
    <g id="line2d_14"/>
    <g id="text_11">
     <!-- $\tilde D_{AlAl}^{Ni}$ -->
     <defs>
      <path d="M -25.296875 66.890625  L -28.078125 69.578125  Q -29.15625 70.5625 -29.953125 71.015625  Q -30.765625 71.484375 -31.390625 71.484375  Q -33.25 71.484375 -34.125 69.703125  Q -35.015625 67.921875 -35.109375 63.921875  L -41.21875 63.921875  Q -41.109375 70.515625 -38.625 74.09375  Q -36.140625 77.6875 -31.6875 77.6875  Q -29.828125 77.6875 -28.265625 77  Q -26.703125 76.3125 -24.90625 74.703125  L -22.125 72.015625  Q -21.046875 71.046875 -20.234375 70.578125  Q -19.4375 70.125 -18.796875 70.125  Q -16.9375 70.125 -16.0625 71.90625  Q -15.1875 73.6875 -15.09375 77.6875  L -8.984375 77.6875  Q -9.078125 71.09375 -11.5625 67.5  Q -14.0625 63.921875 -18.5 63.921875  Q -20.359375 63.921875 -21.921875 64.59375  Q -23.484375 65.28125 -25.296875 66.890625  z " id="DejaVuSans-303"/>
      <path d="M 16.890625 72.90625  L 38.09375 72.90625  Q 54.984375 72.90625 63.59375 65.75  Q 72.21875 58.59375 72.21875 44.484375  Q 72.21875 35.15625 68.9375 26.53125  Q 65.671875 17.921875 59.90625 12.015625  Q 54.109375 5.953125 45.171875 2.96875  Q 36.234375 0 24.03125 0  L 2.6875 0  z M 25.203125 64.796875  L 14.203125 8.109375  L 27.09375 8.109375  Q 43.65625 8.109375 52.734375 17.625  Q 61.8125 27.15625 61.8125 44.484375  Q 61.8125 54.984375 55.953125 59.890625  Q 50.09375 64.796875 37.59375 64.796875  z " id="DejaVuSans-Oblique-44"/>
      <path d="M 16.890625 72.90625  L 30.171875 72.90625  L 50.296875 10.40625  L 62.5 72.90625  L 72.125 72.90625  L 57.90625 0  L 44.578125 0  L 24.515625 62.890625  L 12.3125 0  L 2.6875 0  z " id="DejaVuSans-Oblique-4e"/>
      <path d="M 18.3125 75.984375  L 27.296875 75.984375  L 25.09375 64.59375  L 16.109375 64.59375  z M 14.203125 54.6875  L 23.1875 54.6875  L 12.5 0  L 3.515625 0  z " id="DejaVuSans-Oblique-69"/>
      <path d="M 36.8125 72.90625  L 48 72.90625  L 61.53125 0  L 51.21875 0  L 48.1875 18.703125  L 15.375 18.703125  L 5.078125 0  L -5.328125 0  z M 40.375 63.1875  L 19.921875 26.90625  L 46.6875 26.90625  z " id="DejaVuSans-Oblique-41"/>
      <path d="M 18.3125 75.984375  L 27.296875 75.984375  L 12.5 0  L 3.515625 0  z " id="DejaVuSans-Oblique-6c"/>
     </defs>
     <g transform="translate(403.055 35.416)scale(0.1 -0.1)">
      <use transform="translate(68.601562 22.3125)" xlink:href="#DejaVuSans-303"/>
      <use transform="translate(0 0.828125)" xlink:href="#DejaVuSans-Oblique-44"/>
      <use transform="translate(77.958984 39.173438)scale(0.7)" xlink:href="#DejaVuSans-Oblique-4e"/>
      <use transform="translate(130.322266 39.173438)scale(0.7)" xlink:href="#DejaVuSans-Oblique-69"/>
      <use transform="translate(77.958984 -26.515625)scale(0.7)" xlink:href="#DejaVuSans-Oblique-41"/>
      <use transform="translate(125.844727 -26.515625)scale(0.7)" xlink:href="#DejaVuSans-Oblique-6c"/>
      <use transform="translate(145.292969 -26.515625)scale(0.7)" xlink:href="#DejaVuSans-Oblique-41"/>
      <use transform="translate(193.178711 -26.515625)scale(0.7)" xlink:href="#DejaVuSans-Oblique-6c"/>
     </g>
    </g>
    <g id="line2d_15">
     <path d="M 375.055 49.716  L 395.055 49.716  " style="fill:none;stroke:#808000;stroke-linecap:square;stroke-width:2;"/>
    </g>
    <g id="line2d_16"/>
    <g id="text_12">
     <!-- $\tilde D_{TaTa}^{Ni}$ -->
     <defs>
      <path d="M 5.90625 72.90625  L 67.578125 72.90625  L 66.015625 64.59375  L 39.984375 64.59375  L 27.484375 0  L 17.578125 0  L 30.078125 64.59375  L 4.296875 64.59375  z " id="DejaVuSans-Oblique-54"/>
      <path d="M 53.71875 31.203125  L 47.609375 0  L 38.625 0  L 40.28125 8.296875  Q 36.328125 3.421875 31.265625 1  Q 26.21875 -1.421875 20.015625 -1.421875  Q 13.03125 -1.421875 8.5625 2.84375  Q 4.109375 7.125 4.109375 13.8125  Q 4.109375 23.390625 11.75 28.953125  Q 19.390625 34.515625 32.8125 34.515625  L 45.3125 34.515625  L 45.796875 36.921875  Q 45.90625 37.3125 45.953125 37.765625  Q 46 38.234375 46 39.203125  Q 46 43.5625 42.453125 45.96875  Q 38.921875 48.390625 32.515625 48.390625  Q 28.125 48.390625 23.5 47.265625  Q 18.890625 46.140625 14.015625 43.890625  L 15.578125 52.203125  Q 20.65625 54.109375 25.515625 55.046875  Q 30.375 56 34.90625 56  Q 44.578125 56 49.625 51.796875  Q 54.6875 47.609375 54.6875 39.59375  Q 54.6875 37.984375 54.4375 35.8125  Q 54.203125 33.640625 53.71875 31.203125  z M 44 27.484375  L 35.015625 27.484375  Q 23.96875 27.484375 18.671875 24.53125  Q 13.375 21.578125 13.375 15.375  Q 13.375 11.078125 16.078125 8.640625  Q 18.796875 6.203125 23.578125 6.203125  Q 30.90625 6.203125 36.375 11.453125  Q 41.84375 16.703125 43.609375 25.484375  z " id="DejaVuSans-Oblique-61"/>
     </defs>
     <g transform="translate(403.055 53.216)scale(0.1 -0.1)">
      <use transform="translate(68.601562 22.3125)" xlink:href="#DejaVuSans-303"/>
      <use transform="translate(0 0.828125)" xlink:href="#DejaVuSans-Oblique-44"/>
      <use transform="translate(77.958984 39.109375)scale(0.7)" xlink:href="#DejaVuSans-Oblique-4e"/>
      <use transform="translate(130.322266 39.109375)scale(0.7)" xlink:href="#DejaVuSans-Oblique-69"/>
      <use transform="translate(77.958984 -26.515625)scale(0.7)" xlink:href="#DejaVuSans-Oblique-54"/>
      <use transform="translate(120.717773 -26.515625)scale(0.7)" xlink:href="#DejaVuSans-Oblique-61"/>
      <use transform="translate(163.613281 -26.515625)scale(0.7)" xlink:href="#DejaVuSans-Oblique-54"/>
      <use transform="translate(206.37207 -26.515625)scale(0.7)" xlink:href="#DejaVuSans-Oblique-61"/>
     </g>
    </g>
   </g>
  </g>
 </g>
 <defs>
  <clipPath id="p74f73a070e">
   <rect height="284.344" width="360.326968" x="77.028032" y="16.416"/>
  </clipPath>
 </defs>
</g>
    <g transform="translate(10, 300) scale(1) ">
      <g transform="translate(0, 0) scale(3.0) "><defs id="defs831"/>
  <sodipodi:namedview xmlns:sodipodi="http://sodipodi.sourceforge.net/DTD/sodipodi-0.dtd" xmlns:inkscape="http://www.inkscape.org/namespaces/inkscape" id="base" pagecolor="#ffffff" bordercolor="#666666" borderopacity="1.0" inkscape:pageopacity="0.0" inkscape:pageshadow="2" inkscape:zoom="1.979899" inkscape:cx="-12.763683" inkscape:cy="-16.680883" inkscape:document-units="mm" inkscape:current-layer="layer1" showgrid="false" inkscape:window-width="1920" inkscape:window-height="1001" inkscape:window-x="-9" inkscape:window-y="-9" inkscape:window-maximized="1" units="pt"/>
  <metadata xmlns:rdf="http://www.w3.org/1999/02/22-rdf-syntax-ns#" xmlns:cc="http://creativecommons.org/ns#" xmlns:dc="http://purl.org/dc/elements/1.1/" id="metadata834">
    <rdf:RDF>
      <cc:Work rdf:about="">
        <dc:format>image/svg+xml</dc:format>
        <dc:type rdf:resource="http://purl.org/dc/dcmitype/StillImage"/>
        <dc:title/>
      </cc:Work>
    </rdf:RDF>
  </metadata>
  <g xmlns:inkscape="http://www.inkscape.org/namespaces/inkscape" xmlns:sodipodi="http://sodipodi.sourceforge.net/DTD/sodipodi-0.dtd" inkscape:label="Layer 1" inkscape:groupmode="layer" id="layer1" transform="translate(0,-288.81557)">
    <g id="g4761" transform="matrix(0.07377843,0,0,0.07377843,-0.76923022,275.45946)">
      <path inkscape:connector-curvature="0" id="path1959-6-7-1-6-5-4-0-3-2-6-0-3-9-6" style="font-style:normal;font-variant:normal;font-weight:bold;font-stretch:normal;font-size:120.99466705px;line-height:1.25;font-family:Aharoni;-inkscape-font-specification:'Aharoni, Bold';font-variant-ligatures:normal;font-variant-caps:normal;font-variant-numeric:normal;font-feature-settings:normal;text-align:start;letter-spacing:0px;word-spacing:0px;writing-mode:lr-tb;text-anchor:start;fill:#000000;fill-opacity:1;stroke:none;stroke-width:2.37649584" d="M 52.937412,287.55677 H 40.587702 V 265.43005 H 22.776041 v 22.12672 h -12.34982 v -53.17432 h 12.34982 v 20.5296 h 17.811661 v -20.5296 h 12.34971 z"/>
      <path inkscape:connector-curvature="0" id="path1961-2-9-7-9-3-1-6-5-1-5-8-7-8-2" style="font-style:normal;font-variant:normal;font-weight:bold;font-stretch:normal;font-size:120.99466705px;line-height:1.25;font-family:Aharoni;-inkscape-font-specification:'Aharoni, Bold';font-variant-ligatures:normal;font-variant-caps:normal;font-variant-numeric:normal;font-feature-settings:normal;text-align:start;letter-spacing:0px;word-spacing:0px;writing-mode:lr-tb;text-anchor:start;fill:#000000;fill-opacity:1;stroke:none;stroke-width:2.37649584" d="m 69.681125,237.49895 q 0,3.0385 -1.87856,5.1421 -1.84375,2.0647 -4.55721,2.0647 -2.67866,0 -4.55722,-2.1036 -1.84375,-2.1036 -1.84375,-5.1032 0,-2.9996 1.84375,-5.0642 1.87856,-2.1036 4.55722,-2.1036 2.67865,0 4.55721,2.1036 1.87856,2.0646 1.87856,5.0642 z m -0.73057,50.05782 h -11.41048 v -36.15072 h 11.41048 z"/>
      <path inkscape:connector-curvature="0" id="path1963-3-1-2-8-3-6-3-3-3-4-7-6-0-8" style="font-style:normal;font-variant:normal;font-weight:bold;font-stretch:normal;font-size:120.99466705px;line-height:1.25;font-family:Aharoni;-inkscape-font-specification:'Aharoni, Bold';font-variant-ligatures:normal;font-variant-caps:normal;font-variant-numeric:normal;font-feature-settings:normal;text-align:start;letter-spacing:0px;word-spacing:0px;writing-mode:lr-tb;text-anchor:start;fill:#000000;fill-opacity:1;stroke:none;stroke-width:2.37649584" d="m 93.369625,261.92405 h -6.50536 v 25.63272 h -11.4104 v -25.63272 h -3.75712 v -10.518 h 3.75712 v -10.8686 h 11.4104 v 10.8686 h 6.50536 z"/>
      <path id="path1967-3-3-6-2-9-6-2-5-3-0-9-8-2-1" style="font-style:normal;font-variant:normal;font-weight:bold;font-stretch:normal;font-size:120.99466705px;line-height:1.25;font-family:Aharoni;-inkscape-font-specification:'Aharoni, Bold';font-variant-ligatures:normal;font-variant-caps:normal;font-variant-numeric:normal;font-feature-settings:normal;text-align:start;letter-spacing:0px;word-spacing:0px;writing-mode:lr-tb;text-anchor:start;fill:#000000;fill-opacity:1;stroke:none;stroke-width:2.37649584" d="m 160.61447,287.55677 h -12.34971 v -53.17432 h 12.34971 z" inkscape:connector-curvature="0"/>
      <path inkscape:connector-curvature="0" id="path1969-8-0-8-5-3-5-6-6-3-9-8-6-2-0" style="font-style:normal;font-variant:normal;font-weight:bold;font-stretch:normal;font-size:120.99466705px;line-height:1.25;font-family:Aharoni;-inkscape-font-specification:'Aharoni, Bold';font-variant-ligatures:normal;font-variant-caps:normal;font-variant-numeric:normal;font-feature-settings:normal;text-align:start;letter-spacing:0px;word-spacing:0px;writing-mode:lr-tb;text-anchor:start;fill:#000000;fill-opacity:1;stroke:none;stroke-width:2.37649584" d="m 201.6896,284.86883 q -6.05314,2.68794 -11.20172,2.68794 -8.97528,0 -16.07201,-6.42764 -9.04489,-8.21959 -9.04489,-21.42558 0,-13.2448 9.04489,-21.4644 7.09673,-6.4277 16.17636,-6.4277 4.93989,0 11.09737,2.6879 v 16.5561 q -1.73941,-2.3763 -3.54836,-3.5839 -3.30489,-2.2204 -7.09679,-2.2204 -4.8007,0 -8.34907,3.2333 -4.48766,4.0903 -4.48766,11.2191 0,7.0899 4.48766,11.1803 3.54837,3.23328 8.34907,3.23328 3.7919,0 7.09679,-2.22049 1.77415,-1.16869 3.54836,-3.58389 z"/>
      <path inkscape:transform-center-y="-13.656107" inkscape:transform-center-x="-3.9758045" sodipodi:nodetypes="csssssc" inkscape:connector-curvature="0" id="rect815-3-0-9-3-5-6-0-4-03-7-3-7-5-3-2-76-3-8-8-5-3-7-8-0-1-3-7-9-2-8-1" d="m 104.61223,181.4353 c 0,0 17.68257,27.27493 22.63096,34.41579 7.92879,11.44185 16.42741,30.36094 17.92806,45.50275 1.21005,12.20999 -1.38345,26.51285 -17.32077,30.11208 -11.70405,2.64313 -26.75007,-5.41371 -30.334975,-20.50903 -3.30533,-13.91816 -2.13088,-34.61412 0.0984,-48.67354 1.22049,-7.69719 5.657305,-36.06774 6.998335,-40.84805 z" style="font-style:normal;font-weight:normal;font-size:242.08590698px;line-height:1.25;font-family:sans-serif;letter-spacing:0px;word-spacing:0px;opacity:1;fill:#00456b;fill-opacity:1;stroke:none;stroke-width:0.6720385;stroke-miterlimit:4;stroke-dasharray:none;stroke-dashoffset:0;stroke-opacity:1;paint-order:markers fill stroke"/>
      <path sodipodi:nodetypes="ccscscsccscccscc" d="m 107.52748,246.32531 6.45576,30.78617 6.82019,-1.47997 c 5.75791,-1.24946 9.70999,-3.40081 11.85576,-6.45394 2.16431,-3.05721 2.68673,-7.25521 1.56721,-12.59398 -1.11209,-5.30332 -3.26743,-8.89247 -6.46601,-10.76744 -3.18372,-1.89669 -7.65528,-2.22015 -13.4127,-0.97081 z m -8.759905,-5.09591 12.713095,-2.78742 c 8.8634,-1.94336 15.73718,-1.59097 20.62135,1.05715 4.88003,2.62843 8.10326,7.71587 9.6697,15.26232 1.57464,7.58584 0.64804,13.61405 -2.77981,18.08462 -3.42783,4.4705 -9.55303,7.67294 -18.37559,9.60735 l -12.71311,2.78742 z" style="font-style:normal;font-weight:normal;font-size:242.08590698px;line-height:1.25;font-family:sans-serif;letter-spacing:0px;word-spacing:0px;fill:#ffffff;fill-opacity:1;stroke:none;stroke-width:1.60286868" id="path1193-3-5-3-2-7-4-5-6-0-0-6-9-2-4-7-0-0" inkscape:connector-curvature="0"/>
    </g>
  </g>
</g>
    </g>
  </g>
</svg>
