<?xml version='1.0' encoding='ASCII' standalone='yes'?>
<svg xmlns:xlink="http://www.w3.org/1999/xlink" xmlns="http://www.w3.org/2000/svg" version="1.1" width="460.8px" viewBox="0 0 460.8px 345.6px" height="345.6px">
  <g>
    <g><defs>
  <style type="text/css">
*{stroke-linecap:butt;stroke-linejoin:round;}
  </style>
 </defs>
 <g id="figure_1">
  <g id="patch_1">
   <path d="M 0 345.6  L 460.8 345.6  L 460.8 0  L 0 0  z " style="fill:#ffffff;"/>
  </g>
  <g id="axes_1">
   <g id="patch_2">
    <path d="M 62.12 300.76  L 440.505 300.76  L 440.505 13.32  L 62.12 13.32  z " style="fill:#ffffff;"/>
   </g>
   <g id="matplotlib.axis_1">
    <g id="xtick_1">
     <g id="line2d_1">
      <defs>
       <path d="M 0 0  L 0 3.5  " id="m4ca4a819e5" style="stroke:#000000;stroke-width:0.8;"/>
      </defs>
      <g>
       <use style="stroke:#000000;stroke-width:0.8;" x="62.12" xlink:href="#m4ca4a819e5" y="300.76"/>
      </g>
     </g>
     <g id="text_1">
      <!-- 0 -->
      <defs>
       <path d="M 31.78125 66.40625  Q 24.171875 66.40625 20.328125 58.90625  Q 16.5 51.421875 16.5 36.375  Q 16.5 21.390625 20.328125 13.890625  Q 24.171875 6.390625 31.78125 6.390625  Q 39.453125 6.390625 43.28125 13.890625  Q 47.125 21.390625 47.125 36.375  Q 47.125 51.421875 43.28125 58.90625  Q 39.453125 66.40625 31.78125 66.40625  z M 31.78125 74.21875  Q 44.046875 74.21875 50.515625 64.515625  Q 56.984375 54.828125 56.984375 36.375  Q 56.984375 17.96875 50.515625 8.265625  Q 44.046875 -1.421875 31.78125 -1.421875  Q 19.53125 -1.421875 13.0625 8.265625  Q 6.59375 17.96875 6.59375 36.375  Q 6.59375 54.828125 13.0625 64.515625  Q 19.53125 74.21875 31.78125 74.21875  z " id="DejaVuSans-30"/>
      </defs>
      <g transform="translate(58.93875 315.358437)scale(0.1 -0.1)">
       <use xlink:href="#DejaVuSans-30"/>
      </g>
     </g>
    </g>
    <g id="xtick_2">
     <g id="line2d_2">
      <g>
       <use style="stroke:#000000;stroke-width:0.8;" x="109.418125" xlink:href="#m4ca4a819e5" y="300.76"/>
      </g>
     </g>
     <g id="text_2">
      <!-- 100 -->
      <defs>
       <path d="M 12.40625 8.296875  L 28.515625 8.296875  L 28.515625 63.921875  L 10.984375 60.40625  L 10.984375 69.390625  L 28.421875 72.90625  L 38.28125 72.90625  L 38.28125 8.296875  L 54.390625 8.296875  L 54.390625 0  L 12.40625 0  z " id="DejaVuSans-31"/>
      </defs>
      <g transform="translate(99.874375 315.358437)scale(0.1 -0.1)">
       <use xlink:href="#DejaVuSans-31"/>
       <use x="63.623047" xlink:href="#DejaVuSans-30"/>
       <use x="127.246094" xlink:href="#DejaVuSans-30"/>
      </g>
     </g>
    </g>
    <g id="xtick_3">
     <g id="line2d_3">
      <g>
       <use style="stroke:#000000;stroke-width:0.8;" x="156.71625" xlink:href="#m4ca4a819e5" y="300.76"/>
      </g>
     </g>
     <g id="text_3">
      <!-- 200 -->
      <defs>
       <path d="M 19.1875 8.296875  L 53.609375 8.296875  L 53.609375 0  L 7.328125 0  L 7.328125 8.296875  Q 12.9375 14.109375 22.625 23.890625  Q 32.328125 33.6875 34.8125 36.53125  Q 39.546875 41.84375 41.421875 45.53125  Q 43.3125 49.21875 43.3125 52.78125  Q 43.3125 58.59375 39.234375 62.25  Q 35.15625 65.921875 28.609375 65.921875  Q 23.96875 65.921875 18.8125 64.3125  Q 13.671875 62.703125 7.8125 59.421875  L 7.8125 69.390625  Q 13.765625 71.78125 18.9375 73  Q 24.125 74.21875 28.421875 74.21875  Q 39.75 74.21875 46.484375 68.546875  Q 53.21875 62.890625 53.21875 53.421875  Q 53.21875 48.921875 51.53125 44.890625  Q 49.859375 40.875 45.40625 35.40625  Q 44.1875 33.984375 37.640625 27.21875  Q 31.109375 20.453125 19.1875 8.296875  z " id="DejaVuSans-32"/>
      </defs>
      <g transform="translate(147.1725 315.358437)scale(0.1 -0.1)">
       <use xlink:href="#DejaVuSans-32"/>
       <use x="63.623047" xlink:href="#DejaVuSans-30"/>
       <use x="127.246094" xlink:href="#DejaVuSans-30"/>
      </g>
     </g>
    </g>
    <g id="xtick_4">
     <g id="line2d_4">
      <g>
       <use style="stroke:#000000;stroke-width:0.8;" x="204.014375" xlink:href="#m4ca4a819e5" y="300.76"/>
      </g>
     </g>
     <g id="text_4">
      <!-- 300 -->
      <defs>
       <path d="M 40.578125 39.3125  Q 47.65625 37.796875 51.625 33  Q 55.609375 28.21875 55.609375 21.1875  Q 55.609375 10.40625 48.1875 4.484375  Q 40.765625 -1.421875 27.09375 -1.421875  Q 22.515625 -1.421875 17.65625 -0.515625  Q 12.796875 0.390625 7.625 2.203125  L 7.625 11.71875  Q 11.71875 9.328125 16.59375 8.109375  Q 21.484375 6.890625 26.8125 6.890625  Q 36.078125 6.890625 40.9375 10.546875  Q 45.796875 14.203125 45.796875 21.1875  Q 45.796875 27.640625 41.28125 31.265625  Q 36.765625 34.90625 28.71875 34.90625  L 20.21875 34.90625  L 20.21875 43.015625  L 29.109375 43.015625  Q 36.375 43.015625 40.234375 45.921875  Q 44.09375 48.828125 44.09375 54.296875  Q 44.09375 59.90625 40.109375 62.90625  Q 36.140625 65.921875 28.71875 65.921875  Q 24.65625 65.921875 20.015625 65.03125  Q 15.375 64.15625 9.8125 62.3125  L 9.8125 71.09375  Q 15.4375 72.65625 20.34375 73.4375  Q 25.25 74.21875 29.59375 74.21875  Q 40.828125 74.21875 47.359375 69.109375  Q 53.90625 64.015625 53.90625 55.328125  Q 53.90625 49.265625 50.4375 45.09375  Q 46.96875 40.921875 40.578125 39.3125  z " id="DejaVuSans-33"/>
      </defs>
      <g transform="translate(194.470625 315.358437)scale(0.1 -0.1)">
       <use xlink:href="#DejaVuSans-33"/>
       <use x="63.623047" xlink:href="#DejaVuSans-30"/>
       <use x="127.246094" xlink:href="#DejaVuSans-30"/>
      </g>
     </g>
    </g>
    <g id="xtick_5">
     <g id="line2d_5">
      <g>
       <use style="stroke:#000000;stroke-width:0.8;" x="251.3125" xlink:href="#m4ca4a819e5" y="300.76"/>
      </g>
     </g>
     <g id="text_5">
      <!-- 400 -->
      <defs>
       <path d="M 37.796875 64.3125  L 12.890625 25.390625  L 37.796875 25.390625  z M 35.203125 72.90625  L 47.609375 72.90625  L 47.609375 25.390625  L 58.015625 25.390625  L 58.015625 17.1875  L 47.609375 17.1875  L 47.609375 0  L 37.796875 0  L 37.796875 17.1875  L 4.890625 17.1875  L 4.890625 26.703125  z " id="DejaVuSans-34"/>
      </defs>
      <g transform="translate(241.76875 315.358437)scale(0.1 -0.1)">
       <use xlink:href="#DejaVuSans-34"/>
       <use x="63.623047" xlink:href="#DejaVuSans-30"/>
       <use x="127.246094" xlink:href="#DejaVuSans-30"/>
      </g>
     </g>
    </g>
    <g id="xtick_6">
     <g id="line2d_6">
      <g>
       <use style="stroke:#000000;stroke-width:0.8;" x="298.610625" xlink:href="#m4ca4a819e5" y="300.76"/>
      </g>
     </g>
     <g id="text_6">
      <!-- 500 -->
      <defs>
       <path d="M 10.796875 72.90625  L 49.515625 72.90625  L 49.515625 64.59375  L 19.828125 64.59375  L 19.828125 46.734375  Q 21.96875 47.46875 24.109375 47.828125  Q 26.265625 48.1875 28.421875 48.1875  Q 40.625 48.1875 47.75 41.5  Q 54.890625 34.8125 54.890625 23.390625  Q 54.890625 11.625 47.5625 5.09375  Q 40.234375 -1.421875 26.90625 -1.421875  Q 22.3125 -1.421875 17.546875 -0.640625  Q 12.796875 0.140625 7.71875 1.703125  L 7.71875 11.625  Q 12.109375 9.234375 16.796875 8.0625  Q 21.484375 6.890625 26.703125 6.890625  Q 35.15625 6.890625 40.078125 11.328125  Q 45.015625 15.765625 45.015625 23.390625  Q 45.015625 31 40.078125 35.4375  Q 35.15625 39.890625 26.703125 39.890625  Q 22.75 39.890625 18.8125 39.015625  Q 14.890625 38.140625 10.796875 36.28125  z " id="DejaVuSans-35"/>
      </defs>
      <g transform="translate(289.066875 315.358437)scale(0.1 -0.1)">
       <use xlink:href="#DejaVuSans-35"/>
       <use x="63.623047" xlink:href="#DejaVuSans-30"/>
       <use x="127.246094" xlink:href="#DejaVuSans-30"/>
      </g>
     </g>
    </g>
    <g id="xtick_7">
     <g id="line2d_7">
      <g>
       <use style="stroke:#000000;stroke-width:0.8;" x="345.90875" xlink:href="#m4ca4a819e5" y="300.76"/>
      </g>
     </g>
     <g id="text_7">
      <!-- 600 -->
      <defs>
       <path d="M 33.015625 40.375  Q 26.375 40.375 22.484375 35.828125  Q 18.609375 31.296875 18.609375 23.390625  Q 18.609375 15.53125 22.484375 10.953125  Q 26.375 6.390625 33.015625 6.390625  Q 39.65625 6.390625 43.53125 10.953125  Q 47.40625 15.53125 47.40625 23.390625  Q 47.40625 31.296875 43.53125 35.828125  Q 39.65625 40.375 33.015625 40.375  z M 52.59375 71.296875  L 52.59375 62.3125  Q 48.875 64.0625 45.09375 64.984375  Q 41.3125 65.921875 37.59375 65.921875  Q 27.828125 65.921875 22.671875 59.328125  Q 17.53125 52.734375 16.796875 39.40625  Q 19.671875 43.65625 24.015625 45.921875  Q 28.375 48.1875 33.59375 48.1875  Q 44.578125 48.1875 50.953125 41.515625  Q 57.328125 34.859375 57.328125 23.390625  Q 57.328125 12.15625 50.6875 5.359375  Q 44.046875 -1.421875 33.015625 -1.421875  Q 20.359375 -1.421875 13.671875 8.265625  Q 6.984375 17.96875 6.984375 36.375  Q 6.984375 53.65625 15.1875 63.9375  Q 23.390625 74.21875 37.203125 74.21875  Q 40.921875 74.21875 44.703125 73.484375  Q 48.484375 72.75 52.59375 71.296875  z " id="DejaVuSans-36"/>
      </defs>
      <g transform="translate(336.365 315.358437)scale(0.1 -0.1)">
       <use xlink:href="#DejaVuSans-36"/>
       <use x="63.623047" xlink:href="#DejaVuSans-30"/>
       <use x="127.246094" xlink:href="#DejaVuSans-30"/>
      </g>
     </g>
    </g>
    <g id="xtick_8">
     <g id="line2d_8">
      <g>
       <use style="stroke:#000000;stroke-width:0.8;" x="393.206875" xlink:href="#m4ca4a819e5" y="300.76"/>
      </g>
     </g>
     <g id="text_8">
      <!-- 700 -->
      <defs>
       <path d="M 8.203125 72.90625  L 55.078125 72.90625  L 55.078125 68.703125  L 28.609375 0  L 18.3125 0  L 43.21875 64.59375  L 8.203125 64.59375  z " id="DejaVuSans-37"/>
      </defs>
      <g transform="translate(383.663125 315.358437)scale(0.1 -0.1)">
       <use xlink:href="#DejaVuSans-37"/>
       <use x="63.623047" xlink:href="#DejaVuSans-30"/>
       <use x="127.246094" xlink:href="#DejaVuSans-30"/>
      </g>
     </g>
    </g>
    <g id="xtick_9">
     <g id="line2d_9">
      <g>
       <use style="stroke:#000000;stroke-width:0.8;" x="440.505" xlink:href="#m4ca4a819e5" y="300.76"/>
      </g>
     </g>
     <g id="text_9">
      <!-- 800 -->
      <defs>
       <path d="M 31.78125 34.625  Q 24.75 34.625 20.71875 30.859375  Q 16.703125 27.09375 16.703125 20.515625  Q 16.703125 13.921875 20.71875 10.15625  Q 24.75 6.390625 31.78125 6.390625  Q 38.8125 6.390625 42.859375 10.171875  Q 46.921875 13.96875 46.921875 20.515625  Q 46.921875 27.09375 42.890625 30.859375  Q 38.875 34.625 31.78125 34.625  z M 21.921875 38.8125  Q 15.578125 40.375 12.03125 44.71875  Q 8.5 49.078125 8.5 55.328125  Q 8.5 64.0625 14.71875 69.140625  Q 20.953125 74.21875 31.78125 74.21875  Q 42.671875 74.21875 48.875 69.140625  Q 55.078125 64.0625 55.078125 55.328125  Q 55.078125 49.078125 51.53125 44.71875  Q 48 40.375 41.703125 38.8125  Q 48.828125 37.15625 52.796875 32.3125  Q 56.78125 27.484375 56.78125 20.515625  Q 56.78125 9.90625 50.3125 4.234375  Q 43.84375 -1.421875 31.78125 -1.421875  Q 19.734375 -1.421875 13.25 4.234375  Q 6.78125 9.90625 6.78125 20.515625  Q 6.78125 27.484375 10.78125 32.3125  Q 14.796875 37.15625 21.921875 38.8125  z M 18.3125 54.390625  Q 18.3125 48.734375 21.84375 45.5625  Q 25.390625 42.390625 31.78125 42.390625  Q 38.140625 42.390625 41.71875 45.5625  Q 45.3125 48.734375 45.3125 54.390625  Q 45.3125 60.0625 41.71875 63.234375  Q 38.140625 66.40625 31.78125 66.40625  Q 25.390625 66.40625 21.84375 63.234375  Q 18.3125 60.0625 18.3125 54.390625  z " id="DejaVuSans-38"/>
      </defs>
      <g transform="translate(430.96125 315.358437)scale(0.1 -0.1)">
       <use xlink:href="#DejaVuSans-38"/>
       <use x="63.623047" xlink:href="#DejaVuSans-30"/>
       <use x="127.246094" xlink:href="#DejaVuSans-30"/>
      </g>
     </g>
    </g>
    <g id="text_10">
     <!-- Distance ($\mu$m) -->
     <defs>
      <path d="M 19.671875 64.796875  L 19.671875 8.109375  L 31.59375 8.109375  Q 46.6875 8.109375 53.6875 14.9375  Q 60.6875 21.78125 60.6875 36.53125  Q 60.6875 51.171875 53.6875 57.984375  Q 46.6875 64.796875 31.59375 64.796875  z M 9.8125 72.90625  L 30.078125 72.90625  Q 51.265625 72.90625 61.171875 64.09375  Q 71.09375 55.28125 71.09375 36.53125  Q 71.09375 17.671875 61.125 8.828125  Q 51.171875 0 30.078125 0  L 9.8125 0  z " id="DejaVuSans-44"/>
      <path d="M 9.421875 54.6875  L 18.40625 54.6875  L 18.40625 0  L 9.421875 0  z M 9.421875 75.984375  L 18.40625 75.984375  L 18.40625 64.59375  L 9.421875 64.59375  z " id="DejaVuSans-69"/>
      <path d="M 44.28125 53.078125  L 44.28125 44.578125  Q 40.484375 46.53125 36.375 47.5  Q 32.28125 48.484375 27.875 48.484375  Q 21.1875 48.484375 17.84375 46.4375  Q 14.5 44.390625 14.5 40.28125  Q 14.5 37.15625 16.890625 35.375  Q 19.28125 33.59375 26.515625 31.984375  L 29.59375 31.296875  Q 39.15625 29.25 43.1875 25.515625  Q 47.21875 21.78125 47.21875 15.09375  Q 47.21875 7.46875 41.1875 3.015625  Q 35.15625 -1.421875 24.609375 -1.421875  Q 20.21875 -1.421875 15.453125 -0.5625  Q 10.6875 0.296875 5.421875 2  L 5.421875 11.28125  Q 10.40625 8.6875 15.234375 7.390625  Q 20.0625 6.109375 24.8125 6.109375  Q 31.15625 6.109375 34.5625 8.28125  Q 37.984375 10.453125 37.984375 14.40625  Q 37.984375 18.0625 35.515625 20.015625  Q 33.0625 21.96875 24.703125 23.78125  L 21.578125 24.515625  Q 13.234375 26.265625 9.515625 29.90625  Q 5.8125 33.546875 5.8125 39.890625  Q 5.8125 47.609375 11.28125 51.796875  Q 16.75 56 26.8125 56  Q 31.78125 56 36.171875 55.265625  Q 40.578125 54.546875 44.28125 53.078125  z " id="DejaVuSans-73"/>
      <path d="M 18.3125 70.21875  L 18.3125 54.6875  L 36.8125 54.6875  L 36.8125 47.703125  L 18.3125 47.703125  L 18.3125 18.015625  Q 18.3125 11.328125 20.140625 9.421875  Q 21.96875 7.515625 27.59375 7.515625  L 36.8125 7.515625  L 36.8125 0  L 27.59375 0  Q 17.1875 0 13.234375 3.875  Q 9.28125 7.765625 9.28125 18.015625  L 9.28125 47.703125  L 2.6875 47.703125  L 2.6875 54.6875  L 9.28125 54.6875  L 9.28125 70.21875  z " id="DejaVuSans-74"/>
      <path d="M 34.28125 27.484375  Q 23.390625 27.484375 19.1875 25  Q 14.984375 22.515625 14.984375 16.5  Q 14.984375 11.71875 18.140625 8.90625  Q 21.296875 6.109375 26.703125 6.109375  Q 34.1875 6.109375 38.703125 11.40625  Q 43.21875 16.703125 43.21875 25.484375  L 43.21875 27.484375  z M 52.203125 31.203125  L 52.203125 0  L 43.21875 0  L 43.21875 8.296875  Q 40.140625 3.328125 35.546875 0.953125  Q 30.953125 -1.421875 24.3125 -1.421875  Q 15.921875 -1.421875 10.953125 3.296875  Q 6 8.015625 6 15.921875  Q 6 25.140625 12.171875 29.828125  Q 18.359375 34.515625 30.609375 34.515625  L 43.21875 34.515625  L 43.21875 35.40625  Q 43.21875 41.609375 39.140625 45  Q 35.0625 48.390625 27.6875 48.390625  Q 23 48.390625 18.546875 47.265625  Q 14.109375 46.140625 10.015625 43.890625  L 10.015625 52.203125  Q 14.9375 54.109375 19.578125 55.046875  Q 24.21875 56 28.609375 56  Q 40.484375 56 46.34375 49.84375  Q 52.203125 43.703125 52.203125 31.203125  z " id="DejaVuSans-61"/>
      <path d="M 54.890625 33.015625  L 54.890625 0  L 45.90625 0  L 45.90625 32.71875  Q 45.90625 40.484375 42.875 44.328125  Q 39.84375 48.1875 33.796875 48.1875  Q 26.515625 48.1875 22.3125 43.546875  Q 18.109375 38.921875 18.109375 30.90625  L 18.109375 0  L 9.078125 0  L 9.078125 54.6875  L 18.109375 54.6875  L 18.109375 46.1875  Q 21.34375 51.125 25.703125 53.5625  Q 30.078125 56 35.796875 56  Q 45.21875 56 50.046875 50.171875  Q 54.890625 44.34375 54.890625 33.015625  z " id="DejaVuSans-6e"/>
      <path d="M 48.78125 52.59375  L 48.78125 44.1875  Q 44.96875 46.296875 41.140625 47.34375  Q 37.3125 48.390625 33.40625 48.390625  Q 24.65625 48.390625 19.8125 42.84375  Q 14.984375 37.3125 14.984375 27.296875  Q 14.984375 17.28125 19.8125 11.734375  Q 24.65625 6.203125 33.40625 6.203125  Q 37.3125 6.203125 41.140625 7.25  Q 44.96875 8.296875 48.78125 10.40625  L 48.78125 2.09375  Q 45.015625 0.34375 40.984375 -0.53125  Q 36.96875 -1.421875 32.421875 -1.421875  Q 20.0625 -1.421875 12.78125 6.34375  Q 5.515625 14.109375 5.515625 27.296875  Q 5.515625 40.671875 12.859375 48.328125  Q 20.21875 56 33.015625 56  Q 37.15625 56 41.109375 55.140625  Q 45.0625 54.296875 48.78125 52.59375  z " id="DejaVuSans-63"/>
      <path d="M 56.203125 29.59375  L 56.203125 25.203125  L 14.890625 25.203125  Q 15.484375 15.921875 20.484375 11.0625  Q 25.484375 6.203125 34.421875 6.203125  Q 39.59375 6.203125 44.453125 7.46875  Q 49.3125 8.734375 54.109375 11.28125  L 54.109375 2.78125  Q 49.265625 0.734375 44.1875 -0.34375  Q 39.109375 -1.421875 33.890625 -1.421875  Q 20.796875 -1.421875 13.15625 6.1875  Q 5.515625 13.8125 5.515625 26.8125  Q 5.515625 40.234375 12.765625 48.109375  Q 20.015625 56 32.328125 56  Q 43.359375 56 49.78125 48.890625  Q 56.203125 41.796875 56.203125 29.59375  z M 47.21875 32.234375  Q 47.125 39.59375 43.09375 43.984375  Q 39.0625 48.390625 32.421875 48.390625  Q 24.90625 48.390625 20.390625 44.140625  Q 15.875 39.890625 15.1875 32.171875  z " id="DejaVuSans-65"/>
      <path id="DejaVuSans-20"/>
      <path d="M 31 75.875  Q 24.46875 64.65625 21.28125 53.65625  Q 18.109375 42.671875 18.109375 31.390625  Q 18.109375 20.125 21.3125 9.0625  Q 24.515625 -2 31 -13.1875  L 23.1875 -13.1875  Q 15.875 -1.703125 12.234375 9.375  Q 8.59375 20.453125 8.59375 31.390625  Q 8.59375 42.28125 12.203125 53.3125  Q 15.828125 64.359375 23.1875 75.875  z " id="DejaVuSans-28"/>
      <path d="M -1.3125 -20.796875  L 13.375 54.6875  L 22.40625 54.6875  L 15.765625 20.65625  Q 15.578125 19.625 15.421875 18.359375  Q 15.28125 17.09375 15.28125 15.828125  Q 15.28125 11.28125 18.140625 8.828125  Q 21 6.390625 26.3125 6.390625  Q 33.546875 6.390625 37.984375 10.484375  Q 42.4375 14.59375 44 22.796875  L 50.203125 54.6875  L 59.1875 54.6875  L 51.03125 12.640625  Q 50.828125 11.71875 50.75 11.03125  Q 50.6875 10.359375 50.6875 9.8125  Q 50.6875 8.296875 51.296875 7.59375  Q 51.90625 6.890625 53.21875 6.890625  Q 53.71875 6.890625 54.5625 7.125  Q 55.421875 7.375 56.984375 8.015625  L 55.609375 0.78125  Q 53.46875 -0.296875 51.515625 -0.859375  Q 49.5625 -1.421875 47.703125 -1.421875  Q 44.484375 -1.421875 42.65625 0.625  Q 40.828125 2.6875 40.828125 6.296875  Q 38.09375 2.390625 34.296875 0.484375  Q 30.515625 -1.421875 25.390625 -1.421875  Q 20.84375 -1.421875 17.453125 0.671875  Q 14.0625 2.78125 12.984375 6.203125  L 7.71875 -20.796875  z " id="DejaVuSans-Oblique-3bc"/>
      <path d="M 52 44.1875  Q 55.375 50.25 60.0625 53.125  Q 64.75 56 71.09375 56  Q 79.640625 56 84.28125 50.015625  Q 88.921875 44.046875 88.921875 33.015625  L 88.921875 0  L 79.890625 0  L 79.890625 32.71875  Q 79.890625 40.578125 77.09375 44.375  Q 74.3125 48.1875 68.609375 48.1875  Q 61.625 48.1875 57.5625 43.546875  Q 53.515625 38.921875 53.515625 30.90625  L 53.515625 0  L 44.484375 0  L 44.484375 32.71875  Q 44.484375 40.625 41.703125 44.40625  Q 38.921875 48.1875 33.109375 48.1875  Q 26.21875 48.1875 22.15625 43.53125  Q 18.109375 38.875 18.109375 30.90625  L 18.109375 0  L 9.078125 0  L 9.078125 54.6875  L 18.109375 54.6875  L 18.109375 46.1875  Q 21.1875 51.21875 25.484375 53.609375  Q 29.78125 56 35.6875 56  Q 41.65625 56 45.828125 52.96875  Q 50 49.953125 52 44.1875  z " id="DejaVuSans-6d"/>
      <path d="M 8.015625 75.875  L 15.828125 75.875  Q 23.140625 64.359375 26.78125 53.3125  Q 30.421875 42.28125 30.421875 31.390625  Q 30.421875 20.453125 26.78125 9.375  Q 23.140625 -1.703125 15.828125 -13.1875  L 8.015625 -13.1875  Q 14.5 -2 17.703125 9.0625  Q 20.90625 20.125 20.90625 31.390625  Q 20.90625 42.671875 17.703125 53.65625  Q 14.5 64.65625 8.015625 75.875  z " id="DejaVuSans-29"/>
     </defs>
     <g transform="translate(215.8625 329.038125)scale(0.1 -0.1)">
      <use transform="translate(0 0.015625)" xlink:href="#DejaVuSans-44"/>
      <use transform="translate(77.001953 0.015625)" xlink:href="#DejaVuSans-69"/>
      <use transform="translate(104.785156 0.015625)" xlink:href="#DejaVuSans-73"/>
      <use transform="translate(156.884766 0.015625)" xlink:href="#DejaVuSans-74"/>
      <use transform="translate(196.09375 0.015625)" xlink:href="#DejaVuSans-61"/>
      <use transform="translate(257.373047 0.015625)" xlink:href="#DejaVuSans-6e"/>
      <use transform="translate(320.751953 0.015625)" xlink:href="#DejaVuSans-63"/>
      <use transform="translate(375.732422 0.015625)" xlink:href="#DejaVuSans-65"/>
      <use transform="translate(437.255859 0.015625)" xlink:href="#DejaVuSans-20"/>
      <use transform="translate(469.042969 0.015625)" xlink:href="#DejaVuSans-28"/>
      <use transform="translate(508.056641 0.015625)" xlink:href="#DejaVuSans-Oblique-3bc"/>
      <use transform="translate(571.679688 0.015625)" xlink:href="#DejaVuSans-6d"/>
      <use transform="translate(669.091797 0.015625)" xlink:href="#DejaVuSans-29"/>
     </g>
    </g>
   </g>
   <g id="matplotlib.axis_2">
    <g id="ytick_1">
     <g id="line2d_10">
      <defs>
       <path d="M 0 0  L -3.5 0  " id="m377a71b19d" style="stroke:#000000;stroke-width:0.8;"/>
      </defs>
      <g>
       <use style="stroke:#000000;stroke-width:0.8;" x="62.12" xlink:href="#m377a71b19d" y="253.188222"/>
      </g>
     </g>
     <g id="text_11">
      <!-- &#8722;100 -->
      <defs>
       <path d="M 10.59375 35.5  L 73.1875 35.5  L 73.1875 27.203125  L 10.59375 27.203125  z " id="DejaVuSans-2212"/>
      </defs>
      <g transform="translate(27.652813 256.98744)scale(0.1 -0.1)">
       <use xlink:href="#DejaVuSans-2212"/>
       <use x="83.789062" xlink:href="#DejaVuSans-31"/>
       <use x="147.412109" xlink:href="#DejaVuSans-30"/>
       <use x="211.035156" xlink:href="#DejaVuSans-30"/>
      </g>
     </g>
    </g>
    <g id="ytick_2">
     <g id="line2d_11">
      <g>
       <use style="stroke:#000000;stroke-width:0.8;" x="62.12" xlink:href="#m377a71b19d" y="189.56766"/>
      </g>
     </g>
     <g id="text_12">
      <!-- 0 -->
      <g transform="translate(48.7575 193.366879)scale(0.1 -0.1)">
       <use xlink:href="#DejaVuSans-30"/>
      </g>
     </g>
    </g>
    <g id="ytick_3">
     <g id="line2d_12">
      <g>
       <use style="stroke:#000000;stroke-width:0.8;" x="62.12" xlink:href="#m377a71b19d" y="125.947099"/>
      </g>
     </g>
     <g id="text_13">
      <!-- 100 -->
      <g transform="translate(36.0325 129.746318)scale(0.1 -0.1)">
       <use xlink:href="#DejaVuSans-31"/>
       <use x="63.623047" xlink:href="#DejaVuSans-30"/>
       <use x="127.246094" xlink:href="#DejaVuSans-30"/>
      </g>
     </g>
    </g>
    <g id="ytick_4">
     <g id="line2d_13">
      <g>
       <use style="stroke:#000000;stroke-width:0.8;" x="62.12" xlink:href="#m377a71b19d" y="62.326538"/>
      </g>
     </g>
     <g id="text_14">
      <!-- 200 -->
      <g transform="translate(36.0325 66.125757)scale(0.1 -0.1)">
       <use xlink:href="#DejaVuSans-32"/>
       <use x="63.623047" xlink:href="#DejaVuSans-30"/>
       <use x="127.246094" xlink:href="#DejaVuSans-30"/>
      </g>
     </g>
    </g>
    <g id="text_15">
     <!-- Slope, at. / $\mu m$ -->
     <defs>
      <path d="M 53.515625 70.515625  L 53.515625 60.890625  Q 47.90625 63.578125 42.921875 64.890625  Q 37.9375 66.21875 33.296875 66.21875  Q 25.25 66.21875 20.875 63.09375  Q 16.5 59.96875 16.5 54.203125  Q 16.5 49.359375 19.40625 46.890625  Q 22.3125 44.4375 30.421875 42.921875  L 36.375 41.703125  Q 47.40625 39.59375 52.65625 34.296875  Q 57.90625 29 57.90625 20.125  Q 57.90625 9.515625 50.796875 4.046875  Q 43.703125 -1.421875 29.984375 -1.421875  Q 24.8125 -1.421875 18.96875 -0.25  Q 13.140625 0.921875 6.890625 3.21875  L 6.890625 13.375  Q 12.890625 10.015625 18.65625 8.296875  Q 24.421875 6.59375 29.984375 6.59375  Q 38.421875 6.59375 43.015625 9.90625  Q 47.609375 13.234375 47.609375 19.390625  Q 47.609375 24.75 44.3125 27.78125  Q 41.015625 30.8125 33.5 32.328125  L 27.484375 33.5  Q 16.453125 35.6875 11.515625 40.375  Q 6.59375 45.0625 6.59375 53.421875  Q 6.59375 63.09375 13.40625 68.65625  Q 20.21875 74.21875 32.171875 74.21875  Q 37.3125 74.21875 42.625 73.28125  Q 47.953125 72.359375 53.515625 70.515625  z " id="DejaVuSans-53"/>
      <path d="M 9.421875 75.984375  L 18.40625 75.984375  L 18.40625 0  L 9.421875 0  z " id="DejaVuSans-6c"/>
      <path d="M 30.609375 48.390625  Q 23.390625 48.390625 19.1875 42.75  Q 14.984375 37.109375 14.984375 27.296875  Q 14.984375 17.484375 19.15625 11.84375  Q 23.34375 6.203125 30.609375 6.203125  Q 37.796875 6.203125 41.984375 11.859375  Q 46.1875 17.53125 46.1875 27.296875  Q 46.1875 37.015625 41.984375 42.703125  Q 37.796875 48.390625 30.609375 48.390625  z M 30.609375 56  Q 42.328125 56 49.015625 48.375  Q 55.71875 40.765625 55.71875 27.296875  Q 55.71875 13.875 49.015625 6.21875  Q 42.328125 -1.421875 30.609375 -1.421875  Q 18.84375 -1.421875 12.171875 6.21875  Q 5.515625 13.875 5.515625 27.296875  Q 5.515625 40.765625 12.171875 48.375  Q 18.84375 56 30.609375 56  z " id="DejaVuSans-6f"/>
      <path d="M 18.109375 8.203125  L 18.109375 -20.796875  L 9.078125 -20.796875  L 9.078125 54.6875  L 18.109375 54.6875  L 18.109375 46.390625  Q 20.953125 51.265625 25.265625 53.625  Q 29.59375 56 35.59375 56  Q 45.5625 56 51.78125 48.09375  Q 58.015625 40.1875 58.015625 27.296875  Q 58.015625 14.40625 51.78125 6.484375  Q 45.5625 -1.421875 35.59375 -1.421875  Q 29.59375 -1.421875 25.265625 0.953125  Q 20.953125 3.328125 18.109375 8.203125  z M 48.6875 27.296875  Q 48.6875 37.203125 44.609375 42.84375  Q 40.53125 48.484375 33.40625 48.484375  Q 26.265625 48.484375 22.1875 42.84375  Q 18.109375 37.203125 18.109375 27.296875  Q 18.109375 17.390625 22.1875 11.75  Q 26.265625 6.109375 33.40625 6.109375  Q 40.53125 6.109375 44.609375 11.75  Q 48.6875 17.390625 48.6875 27.296875  z " id="DejaVuSans-70"/>
      <path d="M 11.71875 12.40625  L 22.015625 12.40625  L 22.015625 4  L 14.015625 -11.625  L 7.71875 -11.625  L 11.71875 4  z " id="DejaVuSans-2c"/>
      <path d="M 10.6875 12.40625  L 21 12.40625  L 21 0  L 10.6875 0  z " id="DejaVuSans-2e"/>
      <path d="M 25.390625 72.90625  L 33.6875 72.90625  L 8.296875 -9.28125  L 0 -9.28125  z " id="DejaVuSans-2f"/>
      <path d="M 89.796875 33.015625  L 83.40625 0  L 74.421875 0  L 80.71875 32.71875  Q 81.109375 34.8125 81.296875 36.328125  Q 81.5 37.84375 81.5 38.921875  Q 81.5 43.3125 79.046875 45.75  Q 76.609375 48.1875 72.21875 48.1875  Q 65.671875 48.1875 60.546875 43.28125  Q 55.421875 38.375 53.90625 30.515625  L 47.90625 0  L 38.921875 0  L 45.3125 32.71875  Q 45.703125 34.515625 45.890625 36.046875  Q 46.09375 37.59375 46.09375 38.8125  Q 46.09375 43.265625 43.65625 45.71875  Q 41.21875 48.1875 36.921875 48.1875  Q 30.28125 48.1875 25.140625 43.28125  Q 20.015625 38.375 18.5 30.515625  L 12.5 0  L 3.515625 0  L 14.203125 54.6875  L 23.1875 54.6875  L 21.484375 46.1875  Q 25.140625 50.984375 30.046875 53.484375  Q 34.96875 56 40.578125 56  Q 46.53125 56 50.359375 52.875  Q 54.203125 49.75 54.984375 44.1875  Q 59.078125 49.953125 64.46875 52.96875  Q 69.875 56 75.875 56  Q 82.90625 56 86.734375 51.953125  Q 90.578125 47.90625 90.578125 40.484375  Q 90.578125 38.875 90.375 36.9375  Q 90.1875 35.015625 89.796875 33.015625  z " id="DejaVuSans-Oblique-6d"/>
     </defs>
     <g transform="translate(21.552813 193.64)rotate(-90)scale(0.1 -0.1)">
      <use transform="translate(0 0.015625)" xlink:href="#DejaVuSans-53"/>
      <use transform="translate(63.476562 0.015625)" xlink:href="#DejaVuSans-6c"/>
      <use transform="translate(91.259766 0.015625)" xlink:href="#DejaVuSans-6f"/>
      <use transform="translate(152.441406 0.015625)" xlink:href="#DejaVuSans-70"/>
      <use transform="translate(215.917969 0.015625)" xlink:href="#DejaVuSans-65"/>
      <use transform="translate(277.441406 0.015625)" xlink:href="#DejaVuSans-2c"/>
      <use transform="translate(309.228516 0.015625)" xlink:href="#DejaVuSans-20"/>
      <use transform="translate(341.015625 0.015625)" xlink:href="#DejaVuSans-61"/>
      <use transform="translate(402.294922 0.015625)" xlink:href="#DejaVuSans-74"/>
      <use transform="translate(441.503906 0.015625)" xlink:href="#DejaVuSans-2e"/>
      <use transform="translate(473.291016 0.015625)" xlink:href="#DejaVuSans-20"/>
      <use transform="translate(505.078125 0.015625)" xlink:href="#DejaVuSans-2f"/>
      <use transform="translate(538.769531 0.015625)" xlink:href="#DejaVuSans-20"/>
      <use transform="translate(570.556641 0.015625)" xlink:href="#DejaVuSans-Oblique-3bc"/>
      <use transform="translate(634.179688 0.015625)" xlink:href="#DejaVuSans-Oblique-6d"/>
     </g>
    </g>
   </g>
   <g id="line2d_14">
    <defs>
     <path d="M -0 3  L 3 -3  L -3 -3  z " id="ma39b9c44fe" style="stroke:#e74c3c;stroke-linejoin:miter;"/>
    </defs>
    <g clip-path="url(#p60fb77029f)">
     <use style="fill:#e74c3c;stroke:#e74c3c;stroke-linejoin:miter;" x="62.12" xlink:href="#ma39b9c44fe" y="189.570548"/>
     <use style="fill:#e74c3c;stroke:#e74c3c;stroke-linejoin:miter;" x="69.725729" xlink:href="#ma39b9c44fe" y="189.572623"/>
     <use style="fill:#e74c3c;stroke:#e74c3c;stroke-linejoin:miter;" x="77.331457" xlink:href="#ma39b9c44fe" y="189.577653"/>
     <use style="fill:#e74c3c;stroke:#e74c3c;stroke-linejoin:miter;" x="84.937186" xlink:href="#ma39b9c44fe" y="189.58727"/>
     <use style="fill:#e74c3c;stroke:#e74c3c;stroke-linejoin:miter;" x="92.542915" xlink:href="#ma39b9c44fe" y="189.605168"/>
     <use style="fill:#e74c3c;stroke:#e74c3c;stroke-linejoin:miter;" x="100.148643" xlink:href="#ma39b9c44fe" y="189.637583"/>
     <use style="fill:#e74c3c;stroke:#e74c3c;stroke-linejoin:miter;" x="107.754372" xlink:href="#ma39b9c44fe" y="189.694706"/>
     <use style="fill:#e74c3c;stroke:#e74c3c;stroke-linejoin:miter;" x="115.360101" xlink:href="#ma39b9c44fe" y="189.792645"/>
     <use style="fill:#e74c3c;stroke:#e74c3c;stroke-linejoin:miter;" x="122.965829" xlink:href="#ma39b9c44fe" y="189.955988"/>
     <use style="fill:#e74c3c;stroke:#e74c3c;stroke-linejoin:miter;" x="130.571558" xlink:href="#ma39b9c44fe" y="190.220929"/>
     <use style="fill:#e74c3c;stroke:#e74c3c;stroke-linejoin:miter;" x="138.177286" xlink:href="#ma39b9c44fe" y="190.638776"/>
     <use style="fill:#e74c3c;stroke:#e74c3c;stroke-linejoin:miter;" x="145.783015" xlink:href="#ma39b9c44fe" y="191.279371"/>
     <use style="fill:#e74c3c;stroke:#e74c3c;stroke-linejoin:miter;" x="153.388744" xlink:href="#ma39b9c44fe" y="192.233748"/>
     <use style="fill:#e74c3c;stroke:#e74c3c;stroke-linejoin:miter;" x="160.994472" xlink:href="#ma39b9c44fe" y="193.614988"/>
     <use style="fill:#e74c3c;stroke:#e74c3c;stroke-linejoin:miter;" x="168.600201" xlink:href="#ma39b9c44fe" y="195.556081"/>
     <use style="fill:#e74c3c;stroke:#e74c3c;stroke-linejoin:miter;" x="176.20593" xlink:href="#ma39b9c44fe" y="198.203533"/>
     <use style="fill:#e74c3c;stroke:#e74c3c;stroke-linejoin:miter;" x="183.811658" xlink:href="#ma39b9c44fe" y="201.705743"/>
     <use style="fill:#e74c3c;stroke:#e74c3c;stroke-linejoin:miter;" x="191.417387" xlink:href="#ma39b9c44fe" y="206.195809"/>
     <use style="fill:#e74c3c;stroke:#e74c3c;stroke-linejoin:miter;" x="199.023116" xlink:href="#ma39b9c44fe" y="211.769434"/>
     <use style="fill:#e74c3c;stroke:#e74c3c;stroke-linejoin:miter;" x="206.628844" xlink:href="#ma39b9c44fe" y="218.459911"/>
     <use style="fill:#e74c3c;stroke:#e74c3c;stroke-linejoin:miter;" x="214.234573" xlink:href="#ma39b9c44fe" y="226.213531"/>
     <use style="fill:#e74c3c;stroke:#e74c3c;stroke-linejoin:miter;" x="221.840302" xlink:href="#ma39b9c44fe" y="234.869795"/>
     <use style="fill:#e74c3c;stroke:#e74c3c;stroke-linejoin:miter;" x="229.44603" xlink:href="#ma39b9c44fe" y="244.151268"/>
     <use style="fill:#e74c3c;stroke:#e74c3c;stroke-linejoin:miter;" x="237.051759" xlink:href="#ma39b9c44fe" y="253.667326"/>
     <use style="fill:#e74c3c;stroke:#e74c3c;stroke-linejoin:miter;" x="244.657487" xlink:href="#ma39b9c44fe" y="262.934405"/>
     <use style="fill:#e74c3c;stroke:#e74c3c;stroke-linejoin:miter;" x="252.263216" xlink:href="#ma39b9c44fe" y="271.412761"/>
     <use style="fill:#e74c3c;stroke:#e74c3c;stroke-linejoin:miter;" x="259.868945" xlink:href="#ma39b9c44fe" y="278.55661"/>
     <use style="fill:#e74c3c;stroke:#e74c3c;stroke-linejoin:miter;" x="267.474673" xlink:href="#ma39b9c44fe" y="283.871513"/>
     <use style="fill:#e74c3c;stroke:#e74c3c;stroke-linejoin:miter;" x="275.080402" xlink:href="#ma39b9c44fe" y="286.970753"/>
     <use style="fill:#e74c3c;stroke:#e74c3c;stroke-linejoin:miter;" x="282.686131" xlink:href="#ma39b9c44fe" y="287.621818"/>
     <use style="fill:#e74c3c;stroke:#e74c3c;stroke-linejoin:miter;" x="290.291859" xlink:href="#ma39b9c44fe" y="285.775229"/>
     <use style="fill:#e74c3c;stroke:#e74c3c;stroke-linejoin:miter;" x="297.897588" xlink:href="#ma39b9c44fe" y="281.570752"/>
     <use style="fill:#e74c3c;stroke:#e74c3c;stroke-linejoin:miter;" x="305.503317" xlink:href="#ma39b9c44fe" y="275.319917"/>
     <use style="fill:#e74c3c;stroke:#e74c3c;stroke-linejoin:miter;" x="313.109045" xlink:href="#ma39b9c44fe" y="267.467875"/>
     <use style="fill:#e74c3c;stroke:#e74c3c;stroke-linejoin:miter;" x="320.714774" xlink:href="#ma39b9c44fe" y="258.541072"/>
     <use style="fill:#e74c3c;stroke:#e74c3c;stroke-linejoin:miter;" x="328.320503" xlink:href="#ma39b9c44fe" y="249.089276"/>
     <use style="fill:#e74c3c;stroke:#e74c3c;stroke-linejoin:miter;" x="335.926231" xlink:href="#ma39b9c44fe" y="239.630753"/>
     <use style="fill:#e74c3c;stroke:#e74c3c;stroke-linejoin:miter;" x="343.53196" xlink:href="#ma39b9c44fe" y="230.607967"/>
     <use style="fill:#e74c3c;stroke:#e74c3c;stroke-linejoin:miter;" x="351.137688" xlink:href="#ma39b9c44fe" y="222.35857"/>
     <use style="fill:#e74c3c;stroke:#e74c3c;stroke-linejoin:miter;" x="358.743417" xlink:href="#ma39b9c44fe" y="215.103273"/>
     <use style="fill:#e74c3c;stroke:#e74c3c;stroke-linejoin:miter;" x="366.349146" xlink:href="#ma39b9c44fe" y="208.949235"/>
     <use style="fill:#e74c3c;stroke:#e74c3c;stroke-linejoin:miter;" x="373.954874" xlink:href="#ma39b9c44fe" y="203.905436"/>
     <use style="fill:#e74c3c;stroke:#e74c3c;stroke-linejoin:miter;" x="381.560603" xlink:href="#ma39b9c44fe" y="199.905373"/>
     <use style="fill:#e74c3c;stroke:#e74c3c;stroke-linejoin:miter;" x="389.166332" xlink:href="#ma39b9c44fe" y="196.832351"/>
     <use style="fill:#e74c3c;stroke:#e74c3c;stroke-linejoin:miter;" x="396.77206" xlink:href="#ma39b9c44fe" y="194.543423"/>
     <use style="fill:#e74c3c;stroke:#e74c3c;stroke-linejoin:miter;" x="404.377789" xlink:href="#ma39b9c44fe" y="192.889298"/>
     <use style="fill:#e74c3c;stroke:#e74c3c;stroke-linejoin:miter;" x="411.983518" xlink:href="#ma39b9c44fe" y="191.728859"/>
     <use style="fill:#e74c3c;stroke:#e74c3c;stroke-linejoin:miter;" x="419.589246" xlink:href="#ma39b9c44fe" y="190.938186"/>
     <use style="fill:#e74c3c;stroke:#e74c3c;stroke-linejoin:miter;" x="427.194975" xlink:href="#ma39b9c44fe" y="190.41475"/>
     <use style="fill:#e74c3c;stroke:#e74c3c;stroke-linejoin:miter;" x="434.800704" xlink:href="#ma39b9c44fe" y="190.077956"/>
    </g>
   </g>
   <g id="line2d_15">
    <defs>
     <path d="M 0 -3  L -0.673542 -0.927051  L -2.85317 -0.927051  L -1.089814 0.354102  L -1.763356 2.427051  L -0 1.145898  L 1.763356 2.427051  L 1.089814 0.354102  L 2.85317 -0.927051  L 0.673542 -0.927051  z " id="mc245596be3" style="stroke:#808000;stroke-linejoin:bevel;"/>
    </defs>
    <g clip-path="url(#p60fb77029f)">
     <use style="fill:#808000;stroke:#808000;stroke-linejoin:bevel;" x="62.12" xlink:href="#mc245596be3" y="189.56766"/>
     <use style="fill:#808000;stroke:#808000;stroke-linejoin:bevel;" x="69.725729" xlink:href="#mc245596be3" y="189.56766"/>
     <use style="fill:#808000;stroke:#808000;stroke-linejoin:bevel;" x="77.331457" xlink:href="#mc245596be3" y="189.567661"/>
     <use style="fill:#808000;stroke:#808000;stroke-linejoin:bevel;" x="84.937186" xlink:href="#mc245596be3" y="189.567661"/>
     <use style="fill:#808000;stroke:#808000;stroke-linejoin:bevel;" x="92.542915" xlink:href="#mc245596be3" y="189.567661"/>
     <use style="fill:#808000;stroke:#808000;stroke-linejoin:bevel;" x="100.148643" xlink:href="#mc245596be3" y="189.567663"/>
     <use style="fill:#808000;stroke:#808000;stroke-linejoin:bevel;" x="107.754372" xlink:href="#mc245596be3" y="189.567671"/>
     <use style="fill:#808000;stroke:#808000;stroke-linejoin:bevel;" x="115.360101" xlink:href="#mc245596be3" y="189.567702"/>
     <use style="fill:#808000;stroke:#808000;stroke-linejoin:bevel;" x="122.965829" xlink:href="#mc245596be3" y="189.567807"/>
     <use style="fill:#808000;stroke:#808000;stroke-linejoin:bevel;" x="130.571558" xlink:href="#mc245596be3" y="189.56815"/>
     <use style="fill:#808000;stroke:#808000;stroke-linejoin:bevel;" x="138.177286" xlink:href="#mc245596be3" y="189.569206"/>
     <use style="fill:#808000;stroke:#808000;stroke-linejoin:bevel;" x="145.783015" xlink:href="#mc245596be3" y="189.57226"/>
     <use style="fill:#808000;stroke:#808000;stroke-linejoin:bevel;" x="153.388744" xlink:href="#mc245596be3" y="189.580566"/>
     <use style="fill:#808000;stroke:#808000;stroke-linejoin:bevel;" x="160.994472" xlink:href="#mc245596be3" y="189.601804"/>
     <use style="fill:#808000;stroke:#808000;stroke-linejoin:bevel;" x="168.600201" xlink:href="#mc245596be3" y="189.65282"/>
     <use style="fill:#808000;stroke:#808000;stroke-linejoin:bevel;" x="176.20593" xlink:href="#mc245596be3" y="189.76791"/>
     <use style="fill:#808000;stroke:#808000;stroke-linejoin:bevel;" x="183.811658" xlink:href="#mc245596be3" y="190.011601"/>
     <use style="fill:#808000;stroke:#808000;stroke-linejoin:bevel;" x="191.417387" xlink:href="#mc245596be3" y="190.49554"/>
     <use style="fill:#808000;stroke:#808000;stroke-linejoin:bevel;" x="199.023116" xlink:href="#mc245596be3" y="191.396067"/>
     <use style="fill:#808000;stroke:#808000;stroke-linejoin:bevel;" x="206.628844" xlink:href="#mc245596be3" y="192.964439"/>
     <use style="fill:#808000;stroke:#808000;stroke-linejoin:bevel;" x="214.234573" xlink:href="#mc245596be3" y="195.517091"/>
     <use style="fill:#808000;stroke:#808000;stroke-linejoin:bevel;" x="221.840302" xlink:href="#mc245596be3" y="199.391863"/>
     <use style="fill:#808000;stroke:#808000;stroke-linejoin:bevel;" x="229.44603" xlink:href="#mc245596be3" y="204.862078"/>
     <use style="fill:#808000;stroke:#808000;stroke-linejoin:bevel;" x="237.051759" xlink:href="#mc245596be3" y="212.015902"/>
     <use style="fill:#808000;stroke:#808000;stroke-linejoin:bevel;" x="244.657487" xlink:href="#mc245596be3" y="220.630808"/>
     <use style="fill:#808000;stroke:#808000;stroke-linejoin:bevel;" x="252.263216" xlink:href="#mc245596be3" y="230.092601"/>
     <use style="fill:#808000;stroke:#808000;stroke-linejoin:bevel;" x="259.868945" xlink:href="#mc245596be3" y="239.411685"/>
     <use style="fill:#808000;stroke:#808000;stroke-linejoin:bevel;" x="267.474673" xlink:href="#mc245596be3" y="247.3663"/>
     <use style="fill:#808000;stroke:#808000;stroke-linejoin:bevel;" x="275.080402" xlink:href="#mc245596be3" y="252.755853"/>
     <use style="fill:#808000;stroke:#808000;stroke-linejoin:bevel;" x="282.686131" xlink:href="#mc245596be3" y="254.695709"/>
     <use style="fill:#808000;stroke:#808000;stroke-linejoin:bevel;" x="290.291859" xlink:href="#mc245596be3" y="252.854587"/>
     <use style="fill:#808000;stroke:#808000;stroke-linejoin:bevel;" x="297.897588" xlink:href="#mc245596be3" y="247.547067"/>
     <use style="fill:#808000;stroke:#808000;stroke-linejoin:bevel;" x="305.503317" xlink:href="#mc245596be3" y="239.645701"/>
     <use style="fill:#808000;stroke:#808000;stroke-linejoin:bevel;" x="313.109045" xlink:href="#mc245596be3" y="230.346483"/>
     <use style="fill:#808000;stroke:#808000;stroke-linejoin:bevel;" x="320.714774" xlink:href="#mc245596be3" y="220.874256"/>
     <use style="fill:#808000;stroke:#808000;stroke-linejoin:bevel;" x="328.320503" xlink:href="#mc245596be3" y="212.227184"/>
     <use style="fill:#808000;stroke:#808000;stroke-linejoin:bevel;" x="335.926231" xlink:href="#mc245596be3" y="205.030152"/>
     <use style="fill:#808000;stroke:#808000;stroke-linejoin:bevel;" x="343.53196" xlink:href="#mc245596be3" y="199.515343"/>
     <use style="fill:#808000;stroke:#808000;stroke-linejoin:bevel;" x="351.137688" xlink:href="#mc245596be3" y="195.601282"/>
     <use style="fill:#808000;stroke:#808000;stroke-linejoin:bevel;" x="358.743417" xlink:href="#mc245596be3" y="193.01789"/>
     <use style="fill:#808000;stroke:#808000;stroke-linejoin:bevel;" x="366.349146" xlink:href="#mc245596be3" y="191.42774"/>
     <use style="fill:#808000;stroke:#808000;stroke-linejoin:bevel;" x="373.954874" xlink:href="#mc245596be3" y="190.513089"/>
     <use style="fill:#808000;stroke:#808000;stroke-linejoin:bevel;" x="381.560603" xlink:href="#mc245596be3" y="190.020704"/>
     <use style="fill:#808000;stroke:#808000;stroke-linejoin:bevel;" x="389.166332" xlink:href="#mc245596be3" y="189.772335"/>
     <use style="fill:#808000;stroke:#808000;stroke-linejoin:bevel;" x="396.77206" xlink:href="#mc245596be3" y="189.654837"/>
     <use style="fill:#808000;stroke:#808000;stroke-linejoin:bevel;" x="404.377789" xlink:href="#mc245596be3" y="189.602667"/>
     <use style="fill:#808000;stroke:#808000;stroke-linejoin:bevel;" x="411.983518" xlink:href="#mc245596be3" y="189.580914"/>
     <use style="fill:#808000;stroke:#808000;stroke-linejoin:bevel;" x="419.589246" xlink:href="#mc245596be3" y="189.572391"/>
     <use style="fill:#808000;stroke:#808000;stroke-linejoin:bevel;" x="427.194975" xlink:href="#mc245596be3" y="189.569252"/>
     <use style="fill:#808000;stroke:#808000;stroke-linejoin:bevel;" x="434.800704" xlink:href="#mc245596be3" y="189.568165"/>
    </g>
   </g>
   <g id="line2d_16">
    <defs>
     <path d="M 0 3  C 0.795609 3 1.55874 2.683901 2.12132 2.12132  C 2.683901 1.55874 3 0.795609 3 0  C 3 -0.795609 2.683901 -1.55874 2.12132 -2.12132  C 1.55874 -2.683901 0.795609 -3 0 -3  C -0.795609 -3 -1.55874 -2.683901 -2.12132 -2.12132  C -2.683901 -1.55874 -3 -0.795609 -3 0  C -3 0.795609 -2.683901 1.55874 -2.12132 2.12132  C -1.55874 2.683901 -0.795609 3 0 3  z " id="m8c5bbf060b" style="stroke:#008080;"/>
    </defs>
    <g clip-path="url(#p60fb77029f)">
     <use style="fill:#008080;stroke:#008080;" x="62.12" xlink:href="#m8c5bbf060b" y="189.564773"/>
     <use style="fill:#008080;stroke:#008080;" x="69.725729" xlink:href="#m8c5bbf060b" y="189.562698"/>
     <use style="fill:#008080;stroke:#008080;" x="77.331457" xlink:href="#m8c5bbf060b" y="189.557668"/>
     <use style="fill:#008080;stroke:#008080;" x="84.937186" xlink:href="#m8c5bbf060b" y="189.54805"/>
     <use style="fill:#008080;stroke:#008080;" x="92.542915" xlink:href="#m8c5bbf060b" y="189.530152"/>
     <use style="fill:#008080;stroke:#008080;" x="100.148643" xlink:href="#m8c5bbf060b" y="189.497736"/>
     <use style="fill:#008080;stroke:#008080;" x="107.754372" xlink:href="#m8c5bbf060b" y="189.440604"/>
     <use style="fill:#008080;stroke:#008080;" x="115.360101" xlink:href="#m8c5bbf060b" y="189.342634"/>
     <use style="fill:#008080;stroke:#008080;" x="122.965829" xlink:href="#m8c5bbf060b" y="189.179187"/>
     <use style="fill:#008080;stroke:#008080;" x="130.571558" xlink:href="#m8c5bbf060b" y="188.913902"/>
     <use style="fill:#008080;stroke:#008080;" x="138.177286" xlink:href="#m8c5bbf060b" y="188.495"/>
     <use style="fill:#008080;stroke:#008080;" x="145.783015" xlink:href="#m8c5bbf060b" y="187.851351"/>
     <use style="fill:#008080;stroke:#008080;" x="153.388744" xlink:href="#m8c5bbf060b" y="186.888667"/>
     <use style="fill:#008080;stroke:#008080;" x="160.994472" xlink:href="#m8c5bbf060b" y="185.48619"/>
     <use style="fill:#008080;stroke:#008080;" x="168.600201" xlink:href="#m8c5bbf060b" y="183.494081"/>
     <use style="fill:#008080;stroke:#008080;" x="176.20593" xlink:href="#m8c5bbf060b" y="180.731539"/>
     <use style="fill:#008080;stroke:#008080;" x="183.811658" xlink:href="#m8c5bbf060b" y="176.985638"/>
     <use style="fill:#008080;stroke:#008080;" x="191.417387" xlink:href="#m8c5bbf060b" y="172.011632"/>
     <use style="fill:#008080;stroke:#008080;" x="199.023116" xlink:href="#m8c5bbf060b" y="165.537481"/>
     <use style="fill:#008080;stroke:#008080;" x="206.628844" xlink:href="#m8c5bbf060b" y="157.278632"/>
     <use style="fill:#008080;stroke:#008080;" x="214.234573" xlink:href="#m8c5bbf060b" y="146.97236"/>
     <use style="fill:#008080;stroke:#008080;" x="221.840302" xlink:href="#m8c5bbf060b" y="134.441324"/>
     <use style="fill:#008080;stroke:#008080;" x="229.44603" xlink:href="#m8c5bbf060b" y="119.689636"/>
     <use style="fill:#008080;stroke:#008080;" x="237.051759" xlink:href="#m8c5bbf060b" y="103.019754"/>
     <use style="fill:#008080;stroke:#008080;" x="244.657487" xlink:href="#m8c5bbf060b" y="85.137769"/>
     <use style="fill:#008080;stroke:#008080;" x="252.263216" xlink:href="#m8c5bbf060b" y="67.19762"/>
     <use style="fill:#008080;stroke:#008080;" x="259.868945" xlink:href="#m8c5bbf060b" y="50.734686"/>
     <use style="fill:#008080;stroke:#008080;" x="267.474673" xlink:href="#m8c5bbf060b" y="37.465169"/>
     <use style="fill:#008080;stroke:#008080;" x="275.080402" xlink:href="#m8c5bbf060b" y="28.976375"/>
     <use style="fill:#008080;stroke:#008080;" x="282.686131" xlink:href="#m8c5bbf060b" y="26.385455"/>
     <use style="fill:#008080;stroke:#008080;" x="290.291859" xlink:href="#m8c5bbf060b" y="30.073165"/>
     <use style="fill:#008080;stroke:#008080;" x="297.897588" xlink:href="#m8c5bbf060b" y="39.585163"/>
     <use style="fill:#008080;stroke:#008080;" x="305.503317" xlink:href="#m8c5bbf060b" y="53.737364"/>
     <use style="fill:#008080;stroke:#008080;" x="313.109045" xlink:href="#m8c5bbf060b" y="70.888623"/>
     <use style="fill:#008080;stroke:#008080;" x="320.714774" xlink:href="#m8c5bbf060b" y="89.287654"/>
     <use style="fill:#008080;stroke:#008080;" x="328.320503" xlink:href="#m8c5bbf060b" y="107.386521"/>
     <use style="fill:#008080;stroke:#008080;" x="335.926231" xlink:href="#m8c5bbf060b" y="124.042077"/>
     <use style="fill:#008080;stroke:#008080;" x="343.53196" xlink:href="#m8c5bbf060b" y="138.579672"/>
     <use style="fill:#008080;stroke:#008080;" x="351.137688" xlink:href="#m8c5bbf060b" y="150.743129"/>
     <use style="fill:#008080;stroke:#008080;" x="358.743417" xlink:href="#m8c5bbf060b" y="160.581818"/>
     <use style="fill:#008080;stroke:#008080;" x="366.349146" xlink:href="#m8c5bbf060b" y="168.326006"/>
     <use style="fill:#008080;stroke:#008080;" x="373.954874" xlink:href="#m8c5bbf060b" y="174.284456"/>
     <use style="fill:#008080;stroke:#008080;" x="381.560603" xlink:href="#m8c5bbf060b" y="178.776904"/>
     <use style="fill:#008080;stroke:#008080;" x="389.166332" xlink:href="#m8c5bbf060b" y="182.098296"/>
     <use style="fill:#008080;stroke:#008080;" x="396.77206" xlink:href="#m8c5bbf060b" y="184.504721"/>
     <use style="fill:#008080;stroke:#008080;" x="404.377789" xlink:href="#m8c5bbf060b" y="186.211016"/>
     <use style="fill:#008080;stroke:#008080;" x="411.983518" xlink:href="#m8c5bbf060b" y="187.393209"/>
     <use style="fill:#008080;stroke:#008080;" x="419.589246" xlink:href="#m8c5bbf060b" y="188.192405"/>
     <use style="fill:#008080;stroke:#008080;" x="427.194975" xlink:href="#m8c5bbf060b" y="188.718979"/>
     <use style="fill:#008080;stroke:#008080;" x="434.800704" xlink:href="#m8c5bbf060b" y="189.05686"/>
    </g>
   </g>
   <g id="line2d_17">
    <path clip-path="url(#p60fb77029f)" d="M 61.750483 189.572213  L 104.762215 189.683222  L 121.612171 189.934117  L 132.697669 190.317226  L 141.122647 190.827539  L 147.773946 191.436527  L 153.538405 192.167751  L 158.859444 193.060093  L 163.737063 194.10632  L 168.171262 195.286051  L 172.162041 196.566103  L 176.15282 198.083555  L 179.70018 199.656658  L 183.247539 201.463807  L 186.794898 203.52674  L 190.342258 205.866005  L 193.889617 208.499862  L 197.769541 211.686066  L 198.656381 212.527769  L 201.98203 215.679473  L 205.529389 219.350699  L 209.298459 223.589553  L 213.289238 228.426856  L 217.723437 234.155778  L 223.709606 242.281332  L 233.021424 254.932952  L 237.012203 259.975499  L 240.116142 263.601671  L 241.390975 264.999945  L 244.384059 268.046805  L 247.155434 270.546533  L 249.705098 272.55424  L 252.143908 274.204144  L 254.582717 275.588068  L 257.021527 276.710511  L 259.460336 277.581212  L 261.899146 278.214226  L 264.44881 278.640639  L 267.10933 278.852586  L 269.880704 278.847973  L 272.901502 278.614013  L 276.116296 278.139039  L 279.608228 277.397012  L 283.377298 276.366682  L 287.368077 275.0415  L 291.38657 273.474211  L 295.377349 271.683948  L 299.368128 269.650824  L 303.358907 267.363423  L 307.349686 264.81386  L 311.340466 262.001574  L 315.497527 258.802702  L 319.931726 255.112623  L 325.031055 250.568422  L 331.238934 244.720259  L 352.190525 224.707935  L 357.511564 220.077086  L 362.389183 216.12386  L 366.823382 212.801206  L 371.257581 209.752393  L 375.69178 206.983785  L 380.125979 204.494383  L 384.560178 202.277054  L 388.994377 200.319798  L 393.428577 198.606968  L 397.862776 197.120406  L 402.740395 195.723027  L 407.618014 194.548577  L 412.939053 193.490041  L 418.703511 192.567808  L 425.35481 191.743843  L 432.449529 191.090909  L 440.431087 190.567891  L 440.874507 190.567891  L 440.874507 190.567891  " style="fill:none;stroke:#e74c3c;stroke-linecap:square;stroke-width:2;"/>
   </g>
   <g id="line2d_18">
    <path clip-path="url(#p60fb77029f)" d="M 61.750483 189.568014  L 142.896327 189.677562  L 163.293643 189.924843  L 176.15282 190.284961  L 185.908058 190.772821  L 193.002777 191.331359  L 199.099801 192.033168  L 203.97742 192.814775  L 208.189909 193.71051  L 211.958978 194.740819  L 215.284627 195.875924  L 218.388567 197.166913  L 221.270796 198.600044  L 224.153026 200.290439  L 226.813545 202.104175  L 229.474065 204.181105  L 232.134584 206.535218  L 234.795104 209.17295  L 237.677333 212.346458  L 240.8367 216.179076  L 244.273204 220.708935  L 248.818258 227.102728  L 257.575801 239.503384  L 260.790596 243.618924  L 263.451115 246.681128  L 265.77907 249.044745  L 267.996169 250.983037  L 269.991559 252.443125  L 271.959235 253.603702  L 273.788342 254.425239  L 275.562022 254.980976  L 277.280274 255.29239  L 278.998526 255.382313  L 280.716778 255.254934  L 282.490458 254.902219  L 284.319565 254.312592  L 286.259527 253.449836  L 288.310344 252.289942  L 290.49973 250.794442  L 292.938539 248.849508  L 295.599059 246.43874  L 298.702998 243.315266  L 302.472067 239.189438  L 307.903961 232.877225  L 317.271207 221.972884  L 321.705406 217.160078  L 325.696185 213.147161  L 329.465254 209.680243  L 333.012614 206.725519  L 336.338263 204.23385  L 339.663912 202.009751  L 342.989562 200.045069  L 346.426066 198.247018  L 353.964205 195.215647  L 357.954984 193.995685  L 361.945763 193.006101  L 366.379962 192.1353  L 371.257581 191.405717  L 377.02204 190.784795  L 383.673339 190.307345  L 391.654897 189.962309  L 402.740395 189.724076  L 420.477191 189.599219  L 440.874507 189.572098  L 440.874507 189.572098  " style="fill:none;stroke:#808000;stroke-linecap:square;stroke-width:2;"/>
   </g>
   <g id="line2d_19">
    <path clip-path="url(#p60fb77029f)" d="M 61.750483 189.562754  L 103.431955 189.454337  L 120.281912 189.206062  L 131.367409 188.82471  L 139.792388 188.314291  L 146.443686 187.702618  L 152.208145 186.965308  L 157.529184 186.061998  L 162.406803 184.998558  L 166.841002 183.794244  L 170.831781 182.481619  L 174.822561 180.917757  L 178.36992 179.28757  L 181.917279 177.403273  L 185.021219 175.523761  L 188.125158 173.408268  L 191.229097 171.036689  L 194.333037 168.388745  L 197.769541 165.166389  L 198.656381 164.20216  L 201.76032 160.812206  L 204.86426 157.080498  L 207.968199 152.990742  L 211.072138 148.529294  L 214.176078 143.686188  L 217.501727 138.068047  L 220.827376 132.008287  L 224.374736 125.073017  L 228.143805 117.208717  L 232.356294 107.898916  L 237.899043 95.057848  L 248.153128 71.188078  L 251.922198 63.057745  L 255.026137 56.887574  L 257.686656 52.079077  L 260.125466 48.125346  L 262.342565 44.949398  L 264.337955 42.457258  L 266.22249 40.438323  L 267.996169 38.845171  L 269.658994 37.62761  L 271.321819 36.680082  L 272.95693 36.012368  L 274.508899 35.619785  L 276.060869 35.459612  L 277.612839 35.52813  L 279.164808 35.820447  L 280.772206 36.352799  L 282.43503 37.141321  L 284.20871 38.238429  L 286.037817 39.633617  L 288.033207 41.443995  L 290.167165 43.69087  L 292.495119 46.479071  L 295.044784 49.897411  L 297.816158 53.994619  L 300.920098 58.986888  L 304.578312 65.315041  L 309.012511 73.462345  L 315.275817 85.487242  L 327.026445 108.097433  L 332.347484 117.795046  L 337.003393 125.810297  L 341.215882 132.618261  L 345.206661 138.64483  L 349.086586 144.092429  L 352.633945 148.712695  L 356.181304 152.990003  L 359.728663 156.930373  L 363.276023 160.543505  L 366.823382 163.841935  L 370.370741 166.840301  L 373.918101 169.554721  L 377.46546 172.002269  L 381.012819 174.200546  L 385.003598 176.397785  L 388.994377 178.327171  L 392.985157 180.013269  L 397.419356 181.630155  L 401.853555 183.006797  L 406.731174 184.278084  L 412.052213 185.414905  L 417.816672 186.398791  L 424.02455 187.222249  L 431.119269 187.925847  L 439.100827 188.48801  L 440.874507 188.562992  L 440.874507 188.562992  " style="fill:none;stroke:#008080;stroke-linecap:square;stroke-width:2;"/>
   </g>
   <g id="patch_3">
    <path d="M 62.12 300.76  L 62.12 13.32  " style="fill:none;stroke:#000000;stroke-linecap:square;stroke-linejoin:miter;stroke-width:0.8;"/>
   </g>
   <g id="patch_4">
    <path d="M 440.505 300.76  L 440.505 13.32  " style="fill:none;stroke:#000000;stroke-linecap:square;stroke-linejoin:miter;stroke-width:0.8;"/>
   </g>
   <g id="patch_5">
    <path d="M 62.12 300.76  L 440.505 300.76  " style="fill:none;stroke:#000000;stroke-linecap:square;stroke-linejoin:miter;stroke-width:0.8;"/>
   </g>
   <g id="patch_6">
    <path d="M 62.12 13.32  L 440.505 13.32  " style="fill:none;stroke:#000000;stroke-linecap:square;stroke-linejoin:miter;stroke-width:0.8;"/>
   </g>
   <g id="legend_1">
    <g id="patch_7">
     <path d="M 367.281563 109.38875  L 433.505 109.38875  Q 435.505 109.38875 435.505 107.38875  L 435.505 20.32  Q 435.505 18.32 433.505 18.32  L 367.281563 18.32  Q 365.281563 18.32 365.281563 20.32  L 365.281563 107.38875  Q 365.281563 109.38875 367.281563 109.38875  z " style="fill:#ffffff;opacity:0.8;stroke:#cccccc;stroke-linejoin:miter;"/>
    </g>
    <g id="line2d_20"/>
    <g id="line2d_21">
     <g>
      <use style="fill:#e74c3c;stroke:#e74c3c;stroke-linejoin:miter;" x="379.281563" xlink:href="#ma39b9c44fe" y="26.418437"/>
     </g>
    </g>
    <g id="text_16">
     <!-- exp-Al -->
     <defs>
      <path d="M 54.890625 54.6875  L 35.109375 28.078125  L 55.90625 0  L 45.3125 0  L 29.390625 21.484375  L 13.484375 0  L 2.875 0  L 24.125 28.609375  L 4.6875 54.6875  L 15.28125 54.6875  L 29.78125 35.203125  L 44.28125 54.6875  z " id="DejaVuSans-78"/>
      <path d="M 4.890625 31.390625  L 31.203125 31.390625  L 31.203125 23.390625  L 4.890625 23.390625  z " id="DejaVuSans-2d"/>
      <path d="M 34.1875 63.1875  L 20.796875 26.90625  L 47.609375 26.90625  z M 28.609375 72.90625  L 39.796875 72.90625  L 67.578125 0  L 57.328125 0  L 50.6875 18.703125  L 17.828125 18.703125  L 11.1875 0  L 0.78125 0  z " id="DejaVuSans-41"/>
     </defs>
     <g transform="translate(397.281563 29.918437)scale(0.1 -0.1)">
      <use xlink:href="#DejaVuSans-65"/>
      <use x="61.507812" xlink:href="#DejaVuSans-78"/>
      <use x="120.6875" xlink:href="#DejaVuSans-70"/>
      <use x="184.164062" xlink:href="#DejaVuSans-2d"/>
      <use x="220.216797" xlink:href="#DejaVuSans-41"/>
      <use x="288.625" xlink:href="#DejaVuSans-6c"/>
     </g>
    </g>
    <g id="line2d_22"/>
    <g id="line2d_23">
     <g>
      <use style="fill:#808000;stroke:#808000;stroke-linejoin:bevel;" x="379.281563" xlink:href="#mc245596be3" y="41.096563"/>
     </g>
    </g>
    <g id="text_17">
     <!-- exp-Ta -->
     <defs>
      <path d="M -0.296875 72.90625  L 61.375 72.90625  L 61.375 64.59375  L 35.5 64.59375  L 35.5 0  L 25.59375 0  L 25.59375 64.59375  L -0.296875 64.59375  z " id="DejaVuSans-54"/>
     </defs>
     <g transform="translate(397.281563 44.596563)scale(0.1 -0.1)">
      <use xlink:href="#DejaVuSans-65"/>
      <use x="61.507812" xlink:href="#DejaVuSans-78"/>
      <use x="120.6875" xlink:href="#DejaVuSans-70"/>
      <use x="184.164062" xlink:href="#DejaVuSans-2d"/>
      <use x="220.107422" xlink:href="#DejaVuSans-54"/>
      <use x="280.941406" xlink:href="#DejaVuSans-61"/>
     </g>
    </g>
    <g id="line2d_24"/>
    <g id="line2d_25">
     <g>
      <use style="fill:#008080;stroke:#008080;" x="379.281563" xlink:href="#m8c5bbf060b" y="55.774687"/>
     </g>
    </g>
    <g id="text_18">
     <!-- exp-Ni -->
     <defs>
      <path d="M 9.8125 72.90625  L 23.09375 72.90625  L 55.421875 11.921875  L 55.421875 72.90625  L 64.984375 72.90625  L 64.984375 0  L 51.703125 0  L 19.390625 60.984375  L 19.390625 0  L 9.8125 0  z " id="DejaVuSans-4e"/>
     </defs>
     <g transform="translate(397.281563 59.274687)scale(0.1 -0.1)">
      <use xlink:href="#DejaVuSans-65"/>
      <use x="61.507812" xlink:href="#DejaVuSans-78"/>
      <use x="120.6875" xlink:href="#DejaVuSans-70"/>
      <use x="184.164062" xlink:href="#DejaVuSans-2d"/>
      <use x="220.248047" xlink:href="#DejaVuSans-4e"/>
      <use x="295.052734" xlink:href="#DejaVuSans-69"/>
     </g>
    </g>
    <g id="line2d_26">
     <path d="M 369.281563 70.452812  L 389.281563 70.452812  " style="fill:none;stroke:#e74c3c;stroke-linecap:square;stroke-width:2;"/>
    </g>
    <g id="line2d_27"/>
    <g id="text_19">
     <!-- sim-Al -->
     <g transform="translate(397.281563 73.952812)scale(0.1 -0.1)">
      <use xlink:href="#DejaVuSans-73"/>
      <use x="52.099609" xlink:href="#DejaVuSans-69"/>
      <use x="79.882812" xlink:href="#DejaVuSans-6d"/>
      <use x="177.294922" xlink:href="#DejaVuSans-2d"/>
      <use x="213.347656" xlink:href="#DejaVuSans-41"/>
      <use x="281.755859" xlink:href="#DejaVuSans-6c"/>
     </g>
    </g>
    <g id="line2d_28">
     <path d="M 369.281563 85.130938  L 389.281563 85.130938  " style="fill:none;stroke:#808000;stroke-linecap:square;stroke-width:2;"/>
    </g>
    <g id="line2d_29"/>
    <g id="text_20">
     <!-- sim-Ta -->
     <g transform="translate(397.281563 88.630938)scale(0.1 -0.1)">
      <use xlink:href="#DejaVuSans-73"/>
      <use x="52.099609" xlink:href="#DejaVuSans-69"/>
      <use x="79.882812" xlink:href="#DejaVuSans-6d"/>
      <use x="177.294922" xlink:href="#DejaVuSans-2d"/>
      <use x="213.238281" xlink:href="#DejaVuSans-54"/>
      <use x="274.072266" xlink:href="#DejaVuSans-61"/>
     </g>
    </g>
    <g id="line2d_30">
     <path d="M 369.281563 99.809062  L 389.281563 99.809062  " style="fill:none;stroke:#008080;stroke-linecap:square;stroke-width:2;"/>
    </g>
    <g id="line2d_31"/>
    <g id="text_21">
     <!-- sim-Ni -->
     <g transform="translate(397.281563 103.309062)scale(0.1 -0.1)">
      <use xlink:href="#DejaVuSans-73"/>
      <use x="52.099609" xlink:href="#DejaVuSans-69"/>
      <use x="79.882812" xlink:href="#DejaVuSans-6d"/>
      <use x="177.294922" xlink:href="#DejaVuSans-2d"/>
      <use x="213.378906" xlink:href="#DejaVuSans-4e"/>
      <use x="288.183594" xlink:href="#DejaVuSans-69"/>
     </g>
    </g>
   </g>
  </g>
 </g>
 <defs>
  <clipPath id="p60fb77029f">
   <rect height="287.44" width="378.385" x="62.12" y="13.32"/>
  </clipPath>
 </defs>
</g>
    <g transform="translate(10, 300) scale(1) ">
      <g transform="translate(0, 0) scale(3.0) "><defs id="defs831"/>
  <sodipodi:namedview xmlns:sodipodi="http://sodipodi.sourceforge.net/DTD/sodipodi-0.dtd" xmlns:inkscape="http://www.inkscape.org/namespaces/inkscape" id="base" pagecolor="#ffffff" bordercolor="#666666" borderopacity="1.0" inkscape:pageopacity="0.0" inkscape:pageshadow="2" inkscape:zoom="1.979899" inkscape:cx="-12.763683" inkscape:cy="-16.680883" inkscape:document-units="mm" inkscape:current-layer="layer1" showgrid="false" inkscape:window-width="1920" inkscape:window-height="1001" inkscape:window-x="-9" inkscape:window-y="-9" inkscape:window-maximized="1" units="pt"/>
  <metadata xmlns:rdf="http://www.w3.org/1999/02/22-rdf-syntax-ns#" xmlns:cc="http://creativecommons.org/ns#" xmlns:dc="http://purl.org/dc/elements/1.1/" id="metadata834">
    <rdf:RDF>
      <cc:Work rdf:about="">
        <dc:format>image/svg+xml</dc:format>
        <dc:type rdf:resource="http://purl.org/dc/dcmitype/StillImage"/>
        <dc:title/>
      </cc:Work>
    </rdf:RDF>
  </metadata>
  <g xmlns:inkscape="http://www.inkscape.org/namespaces/inkscape" xmlns:sodipodi="http://sodipodi.sourceforge.net/DTD/sodipodi-0.dtd" inkscape:label="Layer 1" inkscape:groupmode="layer" id="layer1" transform="translate(0,-288.81557)">
    <g id="g4761" transform="matrix(0.07377843,0,0,0.07377843,-0.76923022,275.45946)">
      <path inkscape:connector-curvature="0" id="path1959-6-7-1-6-5-4-0-3-2-6-0-3-9-6" style="font-style:normal;font-variant:normal;font-weight:bold;font-stretch:normal;font-size:120.99466705px;line-height:1.25;font-family:Aharoni;-inkscape-font-specification:'Aharoni, Bold';font-variant-ligatures:normal;font-variant-caps:normal;font-variant-numeric:normal;font-feature-settings:normal;text-align:start;letter-spacing:0px;word-spacing:0px;writing-mode:lr-tb;text-anchor:start;fill:#000000;fill-opacity:1;stroke:none;stroke-width:2.37649584" d="M 52.937412,287.55677 H 40.587702 V 265.43005 H 22.776041 v 22.12672 h -12.34982 v -53.17432 h 12.34982 v 20.5296 h 17.811661 v -20.5296 h 12.34971 z"/>
      <path inkscape:connector-curvature="0" id="path1961-2-9-7-9-3-1-6-5-1-5-8-7-8-2" style="font-style:normal;font-variant:normal;font-weight:bold;font-stretch:normal;font-size:120.99466705px;line-height:1.25;font-family:Aharoni;-inkscape-font-specification:'Aharoni, Bold';font-variant-ligatures:normal;font-variant-caps:normal;font-variant-numeric:normal;font-feature-settings:normal;text-align:start;letter-spacing:0px;word-spacing:0px;writing-mode:lr-tb;text-anchor:start;fill:#000000;fill-opacity:1;stroke:none;stroke-width:2.37649584" d="m 69.681125,237.49895 q 0,3.0385 -1.87856,5.1421 -1.84375,2.0647 -4.55721,2.0647 -2.67866,0 -4.55722,-2.1036 -1.84375,-2.1036 -1.84375,-5.1032 0,-2.9996 1.84375,-5.0642 1.87856,-2.1036 4.55722,-2.1036 2.67865,0 4.55721,2.1036 1.87856,2.0646 1.87856,5.0642 z m -0.73057,50.05782 h -11.41048 v -36.15072 h 11.41048 z"/>
      <path inkscape:connector-curvature="0" id="path1963-3-1-2-8-3-6-3-3-3-4-7-6-0-8" style="font-style:normal;font-variant:normal;font-weight:bold;font-stretch:normal;font-size:120.99466705px;line-height:1.25;font-family:Aharoni;-inkscape-font-specification:'Aharoni, Bold';font-variant-ligatures:normal;font-variant-caps:normal;font-variant-numeric:normal;font-feature-settings:normal;text-align:start;letter-spacing:0px;word-spacing:0px;writing-mode:lr-tb;text-anchor:start;fill:#000000;fill-opacity:1;stroke:none;stroke-width:2.37649584" d="m 93.369625,261.92405 h -6.50536 v 25.63272 h -11.4104 v -25.63272 h -3.75712 v -10.518 h 3.75712 v -10.8686 h 11.4104 v 10.8686 h 6.50536 z"/>
      <path id="path1967-3-3-6-2-9-6-2-5-3-0-9-8-2-1" style="font-style:normal;font-variant:normal;font-weight:bold;font-stretch:normal;font-size:120.99466705px;line-height:1.25;font-family:Aharoni;-inkscape-font-specification:'Aharoni, Bold';font-variant-ligatures:normal;font-variant-caps:normal;font-variant-numeric:normal;font-feature-settings:normal;text-align:start;letter-spacing:0px;word-spacing:0px;writing-mode:lr-tb;text-anchor:start;fill:#000000;fill-opacity:1;stroke:none;stroke-width:2.37649584" d="m 160.61447,287.55677 h -12.34971 v -53.17432 h 12.34971 z" inkscape:connector-curvature="0"/>
      <path inkscape:connector-curvature="0" id="path1969-8-0-8-5-3-5-6-6-3-9-8-6-2-0" style="font-style:normal;font-variant:normal;font-weight:bold;font-stretch:normal;font-size:120.99466705px;line-height:1.25;font-family:Aharoni;-inkscape-font-specification:'Aharoni, Bold';font-variant-ligatures:normal;font-variant-caps:normal;font-variant-numeric:normal;font-feature-settings:normal;text-align:start;letter-spacing:0px;word-spacing:0px;writing-mode:lr-tb;text-anchor:start;fill:#000000;fill-opacity:1;stroke:none;stroke-width:2.37649584" d="m 201.6896,284.86883 q -6.05314,2.68794 -11.20172,2.68794 -8.97528,0 -16.07201,-6.42764 -9.04489,-8.21959 -9.04489,-21.42558 0,-13.2448 9.04489,-21.4644 7.09673,-6.4277 16.17636,-6.4277 4.93989,0 11.09737,2.6879 v 16.5561 q -1.73941,-2.3763 -3.54836,-3.5839 -3.30489,-2.2204 -7.09679,-2.2204 -4.8007,0 -8.34907,3.2333 -4.48766,4.0903 -4.48766,11.2191 0,7.0899 4.48766,11.1803 3.54837,3.23328 8.34907,3.23328 3.7919,0 7.09679,-2.22049 1.77415,-1.16869 3.54836,-3.58389 z"/>
      <path inkscape:transform-center-y="-13.656107" inkscape:transform-center-x="-3.9758045" sodipodi:nodetypes="csssssc" inkscape:connector-curvature="0" id="rect815-3-0-9-3-5-6-0-4-03-7-3-7-5-3-2-76-3-8-8-5-3-7-8-0-1-3-7-9-2-8-1" d="m 104.61223,181.4353 c 0,0 17.68257,27.27493 22.63096,34.41579 7.92879,11.44185 16.42741,30.36094 17.92806,45.50275 1.21005,12.20999 -1.38345,26.51285 -17.32077,30.11208 -11.70405,2.64313 -26.75007,-5.41371 -30.334975,-20.50903 -3.30533,-13.91816 -2.13088,-34.61412 0.0984,-48.67354 1.22049,-7.69719 5.657305,-36.06774 6.998335,-40.84805 z" style="font-style:normal;font-weight:normal;font-size:242.08590698px;line-height:1.25;font-family:sans-serif;letter-spacing:0px;word-spacing:0px;opacity:1;fill:#00456b;fill-opacity:1;stroke:none;stroke-width:0.6720385;stroke-miterlimit:4;stroke-dasharray:none;stroke-dashoffset:0;stroke-opacity:1;paint-order:markers fill stroke"/>
      <path sodipodi:nodetypes="ccscscsccscccscc" d="m 107.52748,246.32531 6.45576,30.78617 6.82019,-1.47997 c 5.75791,-1.24946 9.70999,-3.40081 11.85576,-6.45394 2.16431,-3.05721 2.68673,-7.25521 1.56721,-12.59398 -1.11209,-5.30332 -3.26743,-8.89247 -6.46601,-10.76744 -3.18372,-1.89669 -7.65528,-2.22015 -13.4127,-0.97081 z m -8.759905,-5.09591 12.713095,-2.78742 c 8.8634,-1.94336 15.73718,-1.59097 20.62135,1.05715 4.88003,2.62843 8.10326,7.71587 9.6697,15.26232 1.57464,7.58584 0.64804,13.61405 -2.77981,18.08462 -3.42783,4.4705 -9.55303,7.67294 -18.37559,9.60735 l -12.71311,2.78742 z" style="font-style:normal;font-weight:normal;font-size:242.08590698px;line-height:1.25;font-family:sans-serif;letter-spacing:0px;word-spacing:0px;fill:#ffffff;fill-opacity:1;stroke:none;stroke-width:1.60286868" id="path1193-3-5-3-2-7-4-5-6-0-0-6-9-2-4-7-0-0" inkscape:connector-curvature="0"/>
    </g>
  </g>
</g>
    </g>
  </g>
</svg>
