<?xml version='1.0' encoding='ASCII' standalone='yes'?>
<svg xmlns:xlink="http://www.w3.org/1999/xlink" xmlns="http://www.w3.org/2000/svg" version="1.1" width="460.8px" viewBox="0 0 460.8px 345.6px" height="345.6px">
  <g>
    <g><defs>
  <style type="text/css">
*{stroke-linecap:butt;stroke-linejoin:round;}
  </style>
 </defs>
 <g id="figure_1">
  <g id="patch_1">
   <path d="M 0 345.6  L 460.8 345.6  L 460.8 0  L 0 0  z " style="fill:#ffffff;"/>
  </g>
  <g id="axes_1">
   <g id="patch_2">
    <path d="M 63.182 300.76  L 437.355 300.76  L 437.355 13.32  L 63.182 13.32  z " style="fill:#ffffff;"/>
   </g>
   <g id="matplotlib.axis_1">
    <g id="xtick_1">
     <g id="line2d_1">
      <defs>
       <path d="M 0 0  L 0 3.5  " id="m18419cccf9" style="stroke:#000000;stroke-width:0.8;"/>
      </defs>
      <g>
       <use style="stroke:#000000;stroke-width:0.8;" x="63.182" xlink:href="#m18419cccf9" y="300.76"/>
      </g>
     </g>
     <g id="text_1">
      <!-- 0 -->
      <defs>
       <path d="M 31.78125 66.40625  Q 24.171875 66.40625 20.328125 58.90625  Q 16.5 51.421875 16.5 36.375  Q 16.5 21.390625 20.328125 13.890625  Q 24.171875 6.390625 31.78125 6.390625  Q 39.453125 6.390625 43.28125 13.890625  Q 47.125 21.390625 47.125 36.375  Q 47.125 51.421875 43.28125 58.90625  Q 39.453125 66.40625 31.78125 66.40625  z M 31.78125 74.21875  Q 44.046875 74.21875 50.515625 64.515625  Q 56.984375 54.828125 56.984375 36.375  Q 56.984375 17.96875 50.515625 8.265625  Q 44.046875 -1.421875 31.78125 -1.421875  Q 19.53125 -1.421875 13.0625 8.265625  Q 6.59375 17.96875 6.59375 36.375  Q 6.59375 54.828125 13.0625 64.515625  Q 19.53125 74.21875 31.78125 74.21875  z " id="DejaVuSans-30"/>
      </defs>
      <g transform="translate(60.00075 315.358437)scale(0.1 -0.1)">
       <use xlink:href="#DejaVuSans-30"/>
      </g>
     </g>
    </g>
    <g id="xtick_2">
     <g id="line2d_2">
      <g>
       <use style="stroke:#000000;stroke-width:0.8;" x="125.544167" xlink:href="#m18419cccf9" y="300.76"/>
      </g>
     </g>
     <g id="text_2">
      <!-- 200 -->
      <defs>
       <path d="M 19.1875 8.296875  L 53.609375 8.296875  L 53.609375 0  L 7.328125 0  L 7.328125 8.296875  Q 12.9375 14.109375 22.625 23.890625  Q 32.328125 33.6875 34.8125 36.53125  Q 39.546875 41.84375 41.421875 45.53125  Q 43.3125 49.21875 43.3125 52.78125  Q 43.3125 58.59375 39.234375 62.25  Q 35.15625 65.921875 28.609375 65.921875  Q 23.96875 65.921875 18.8125 64.3125  Q 13.671875 62.703125 7.8125 59.421875  L 7.8125 69.390625  Q 13.765625 71.78125 18.9375 73  Q 24.125 74.21875 28.421875 74.21875  Q 39.75 74.21875 46.484375 68.546875  Q 53.21875 62.890625 53.21875 53.421875  Q 53.21875 48.921875 51.53125 44.890625  Q 49.859375 40.875 45.40625 35.40625  Q 44.1875 33.984375 37.640625 27.21875  Q 31.109375 20.453125 19.1875 8.296875  z " id="DejaVuSans-32"/>
      </defs>
      <g transform="translate(116.000417 315.358437)scale(0.1 -0.1)">
       <use xlink:href="#DejaVuSans-32"/>
       <use x="63.623047" xlink:href="#DejaVuSans-30"/>
       <use x="127.246094" xlink:href="#DejaVuSans-30"/>
      </g>
     </g>
    </g>
    <g id="xtick_3">
     <g id="line2d_3">
      <g>
       <use style="stroke:#000000;stroke-width:0.8;" x="187.906333" xlink:href="#m18419cccf9" y="300.76"/>
      </g>
     </g>
     <g id="text_3">
      <!-- 400 -->
      <defs>
       <path d="M 37.796875 64.3125  L 12.890625 25.390625  L 37.796875 25.390625  z M 35.203125 72.90625  L 47.609375 72.90625  L 47.609375 25.390625  L 58.015625 25.390625  L 58.015625 17.1875  L 47.609375 17.1875  L 47.609375 0  L 37.796875 0  L 37.796875 17.1875  L 4.890625 17.1875  L 4.890625 26.703125  z " id="DejaVuSans-34"/>
      </defs>
      <g transform="translate(178.362583 315.358437)scale(0.1 -0.1)">
       <use xlink:href="#DejaVuSans-34"/>
       <use x="63.623047" xlink:href="#DejaVuSans-30"/>
       <use x="127.246094" xlink:href="#DejaVuSans-30"/>
      </g>
     </g>
    </g>
    <g id="xtick_4">
     <g id="line2d_4">
      <g>
       <use style="stroke:#000000;stroke-width:0.8;" x="250.2685" xlink:href="#m18419cccf9" y="300.76"/>
      </g>
     </g>
     <g id="text_4">
      <!-- 600 -->
      <defs>
       <path d="M 33.015625 40.375  Q 26.375 40.375 22.484375 35.828125  Q 18.609375 31.296875 18.609375 23.390625  Q 18.609375 15.53125 22.484375 10.953125  Q 26.375 6.390625 33.015625 6.390625  Q 39.65625 6.390625 43.53125 10.953125  Q 47.40625 15.53125 47.40625 23.390625  Q 47.40625 31.296875 43.53125 35.828125  Q 39.65625 40.375 33.015625 40.375  z M 52.59375 71.296875  L 52.59375 62.3125  Q 48.875 64.0625 45.09375 64.984375  Q 41.3125 65.921875 37.59375 65.921875  Q 27.828125 65.921875 22.671875 59.328125  Q 17.53125 52.734375 16.796875 39.40625  Q 19.671875 43.65625 24.015625 45.921875  Q 28.375 48.1875 33.59375 48.1875  Q 44.578125 48.1875 50.953125 41.515625  Q 57.328125 34.859375 57.328125 23.390625  Q 57.328125 12.15625 50.6875 5.359375  Q 44.046875 -1.421875 33.015625 -1.421875  Q 20.359375 -1.421875 13.671875 8.265625  Q 6.984375 17.96875 6.984375 36.375  Q 6.984375 53.65625 15.1875 63.9375  Q 23.390625 74.21875 37.203125 74.21875  Q 40.921875 74.21875 44.703125 73.484375  Q 48.484375 72.75 52.59375 71.296875  z " id="DejaVuSans-36"/>
      </defs>
      <g transform="translate(240.72475 315.358437)scale(0.1 -0.1)">
       <use xlink:href="#DejaVuSans-36"/>
       <use x="63.623047" xlink:href="#DejaVuSans-30"/>
       <use x="127.246094" xlink:href="#DejaVuSans-30"/>
      </g>
     </g>
    </g>
    <g id="xtick_5">
     <g id="line2d_5">
      <g>
       <use style="stroke:#000000;stroke-width:0.8;" x="312.630667" xlink:href="#m18419cccf9" y="300.76"/>
      </g>
     </g>
     <g id="text_5">
      <!-- 800 -->
      <defs>
       <path d="M 31.78125 34.625  Q 24.75 34.625 20.71875 30.859375  Q 16.703125 27.09375 16.703125 20.515625  Q 16.703125 13.921875 20.71875 10.15625  Q 24.75 6.390625 31.78125 6.390625  Q 38.8125 6.390625 42.859375 10.171875  Q 46.921875 13.96875 46.921875 20.515625  Q 46.921875 27.09375 42.890625 30.859375  Q 38.875 34.625 31.78125 34.625  z M 21.921875 38.8125  Q 15.578125 40.375 12.03125 44.71875  Q 8.5 49.078125 8.5 55.328125  Q 8.5 64.0625 14.71875 69.140625  Q 20.953125 74.21875 31.78125 74.21875  Q 42.671875 74.21875 48.875 69.140625  Q 55.078125 64.0625 55.078125 55.328125  Q 55.078125 49.078125 51.53125 44.71875  Q 48 40.375 41.703125 38.8125  Q 48.828125 37.15625 52.796875 32.3125  Q 56.78125 27.484375 56.78125 20.515625  Q 56.78125 9.90625 50.3125 4.234375  Q 43.84375 -1.421875 31.78125 -1.421875  Q 19.734375 -1.421875 13.25 4.234375  Q 6.78125 9.90625 6.78125 20.515625  Q 6.78125 27.484375 10.78125 32.3125  Q 14.796875 37.15625 21.921875 38.8125  z M 18.3125 54.390625  Q 18.3125 48.734375 21.84375 45.5625  Q 25.390625 42.390625 31.78125 42.390625  Q 38.140625 42.390625 41.71875 45.5625  Q 45.3125 48.734375 45.3125 54.390625  Q 45.3125 60.0625 41.71875 63.234375  Q 38.140625 66.40625 31.78125 66.40625  Q 25.390625 66.40625 21.84375 63.234375  Q 18.3125 60.0625 18.3125 54.390625  z " id="DejaVuSans-38"/>
      </defs>
      <g transform="translate(303.086917 315.358437)scale(0.1 -0.1)">
       <use xlink:href="#DejaVuSans-38"/>
       <use x="63.623047" xlink:href="#DejaVuSans-30"/>
       <use x="127.246094" xlink:href="#DejaVuSans-30"/>
      </g>
     </g>
    </g>
    <g id="xtick_6">
     <g id="line2d_6">
      <g>
       <use style="stroke:#000000;stroke-width:0.8;" x="374.992833" xlink:href="#m18419cccf9" y="300.76"/>
      </g>
     </g>
     <g id="text_6">
      <!-- 1000 -->
      <defs>
       <path d="M 12.40625 8.296875  L 28.515625 8.296875  L 28.515625 63.921875  L 10.984375 60.40625  L 10.984375 69.390625  L 28.421875 72.90625  L 38.28125 72.90625  L 38.28125 8.296875  L 54.390625 8.296875  L 54.390625 0  L 12.40625 0  z " id="DejaVuSans-31"/>
      </defs>
      <g transform="translate(362.267833 315.358437)scale(0.1 -0.1)">
       <use xlink:href="#DejaVuSans-31"/>
       <use x="63.623047" xlink:href="#DejaVuSans-30"/>
       <use x="127.246094" xlink:href="#DejaVuSans-30"/>
       <use x="190.869141" xlink:href="#DejaVuSans-30"/>
      </g>
     </g>
    </g>
    <g id="xtick_7">
     <g id="line2d_7">
      <g>
       <use style="stroke:#000000;stroke-width:0.8;" x="437.355" xlink:href="#m18419cccf9" y="300.76"/>
      </g>
     </g>
     <g id="text_7">
      <!-- 1200 -->
      <g transform="translate(424.63 315.358437)scale(0.1 -0.1)">
       <use xlink:href="#DejaVuSans-31"/>
       <use x="63.623047" xlink:href="#DejaVuSans-32"/>
       <use x="127.246094" xlink:href="#DejaVuSans-30"/>
       <use x="190.869141" xlink:href="#DejaVuSans-30"/>
      </g>
     </g>
    </g>
    <g id="text_8">
     <!-- Distance ($\mu$m) -->
     <defs>
      <path d="M 19.671875 64.796875  L 19.671875 8.109375  L 31.59375 8.109375  Q 46.6875 8.109375 53.6875 14.9375  Q 60.6875 21.78125 60.6875 36.53125  Q 60.6875 51.171875 53.6875 57.984375  Q 46.6875 64.796875 31.59375 64.796875  z M 9.8125 72.90625  L 30.078125 72.90625  Q 51.265625 72.90625 61.171875 64.09375  Q 71.09375 55.28125 71.09375 36.53125  Q 71.09375 17.671875 61.125 8.828125  Q 51.171875 0 30.078125 0  L 9.8125 0  z " id="DejaVuSans-44"/>
      <path d="M 9.421875 54.6875  L 18.40625 54.6875  L 18.40625 0  L 9.421875 0  z M 9.421875 75.984375  L 18.40625 75.984375  L 18.40625 64.59375  L 9.421875 64.59375  z " id="DejaVuSans-69"/>
      <path d="M 44.28125 53.078125  L 44.28125 44.578125  Q 40.484375 46.53125 36.375 47.5  Q 32.28125 48.484375 27.875 48.484375  Q 21.1875 48.484375 17.84375 46.4375  Q 14.5 44.390625 14.5 40.28125  Q 14.5 37.15625 16.890625 35.375  Q 19.28125 33.59375 26.515625 31.984375  L 29.59375 31.296875  Q 39.15625 29.25 43.1875 25.515625  Q 47.21875 21.78125 47.21875 15.09375  Q 47.21875 7.46875 41.1875 3.015625  Q 35.15625 -1.421875 24.609375 -1.421875  Q 20.21875 -1.421875 15.453125 -0.5625  Q 10.6875 0.296875 5.421875 2  L 5.421875 11.28125  Q 10.40625 8.6875 15.234375 7.390625  Q 20.0625 6.109375 24.8125 6.109375  Q 31.15625 6.109375 34.5625 8.28125  Q 37.984375 10.453125 37.984375 14.40625  Q 37.984375 18.0625 35.515625 20.015625  Q 33.0625 21.96875 24.703125 23.78125  L 21.578125 24.515625  Q 13.234375 26.265625 9.515625 29.90625  Q 5.8125 33.546875 5.8125 39.890625  Q 5.8125 47.609375 11.28125 51.796875  Q 16.75 56 26.8125 56  Q 31.78125 56 36.171875 55.265625  Q 40.578125 54.546875 44.28125 53.078125  z " id="DejaVuSans-73"/>
      <path d="M 18.3125 70.21875  L 18.3125 54.6875  L 36.8125 54.6875  L 36.8125 47.703125  L 18.3125 47.703125  L 18.3125 18.015625  Q 18.3125 11.328125 20.140625 9.421875  Q 21.96875 7.515625 27.59375 7.515625  L 36.8125 7.515625  L 36.8125 0  L 27.59375 0  Q 17.1875 0 13.234375 3.875  Q 9.28125 7.765625 9.28125 18.015625  L 9.28125 47.703125  L 2.6875 47.703125  L 2.6875 54.6875  L 9.28125 54.6875  L 9.28125 70.21875  z " id="DejaVuSans-74"/>
      <path d="M 34.28125 27.484375  Q 23.390625 27.484375 19.1875 25  Q 14.984375 22.515625 14.984375 16.5  Q 14.984375 11.71875 18.140625 8.90625  Q 21.296875 6.109375 26.703125 6.109375  Q 34.1875 6.109375 38.703125 11.40625  Q 43.21875 16.703125 43.21875 25.484375  L 43.21875 27.484375  z M 52.203125 31.203125  L 52.203125 0  L 43.21875 0  L 43.21875 8.296875  Q 40.140625 3.328125 35.546875 0.953125  Q 30.953125 -1.421875 24.3125 -1.421875  Q 15.921875 -1.421875 10.953125 3.296875  Q 6 8.015625 6 15.921875  Q 6 25.140625 12.171875 29.828125  Q 18.359375 34.515625 30.609375 34.515625  L 43.21875 34.515625  L 43.21875 35.40625  Q 43.21875 41.609375 39.140625 45  Q 35.0625 48.390625 27.6875 48.390625  Q 23 48.390625 18.546875 47.265625  Q 14.109375 46.140625 10.015625 43.890625  L 10.015625 52.203125  Q 14.9375 54.109375 19.578125 55.046875  Q 24.21875 56 28.609375 56  Q 40.484375 56 46.34375 49.84375  Q 52.203125 43.703125 52.203125 31.203125  z " id="DejaVuSans-61"/>
      <path d="M 54.890625 33.015625  L 54.890625 0  L 45.90625 0  L 45.90625 32.71875  Q 45.90625 40.484375 42.875 44.328125  Q 39.84375 48.1875 33.796875 48.1875  Q 26.515625 48.1875 22.3125 43.546875  Q 18.109375 38.921875 18.109375 30.90625  L 18.109375 0  L 9.078125 0  L 9.078125 54.6875  L 18.109375 54.6875  L 18.109375 46.1875  Q 21.34375 51.125 25.703125 53.5625  Q 30.078125 56 35.796875 56  Q 45.21875 56 50.046875 50.171875  Q 54.890625 44.34375 54.890625 33.015625  z " id="DejaVuSans-6e"/>
      <path d="M 48.78125 52.59375  L 48.78125 44.1875  Q 44.96875 46.296875 41.140625 47.34375  Q 37.3125 48.390625 33.40625 48.390625  Q 24.65625 48.390625 19.8125 42.84375  Q 14.984375 37.3125 14.984375 27.296875  Q 14.984375 17.28125 19.8125 11.734375  Q 24.65625 6.203125 33.40625 6.203125  Q 37.3125 6.203125 41.140625 7.25  Q 44.96875 8.296875 48.78125 10.40625  L 48.78125 2.09375  Q 45.015625 0.34375 40.984375 -0.53125  Q 36.96875 -1.421875 32.421875 -1.421875  Q 20.0625 -1.421875 12.78125 6.34375  Q 5.515625 14.109375 5.515625 27.296875  Q 5.515625 40.671875 12.859375 48.328125  Q 20.21875 56 33.015625 56  Q 37.15625 56 41.109375 55.140625  Q 45.0625 54.296875 48.78125 52.59375  z " id="DejaVuSans-63"/>
      <path d="M 56.203125 29.59375  L 56.203125 25.203125  L 14.890625 25.203125  Q 15.484375 15.921875 20.484375 11.0625  Q 25.484375 6.203125 34.421875 6.203125  Q 39.59375 6.203125 44.453125 7.46875  Q 49.3125 8.734375 54.109375 11.28125  L 54.109375 2.78125  Q 49.265625 0.734375 44.1875 -0.34375  Q 39.109375 -1.421875 33.890625 -1.421875  Q 20.796875 -1.421875 13.15625 6.1875  Q 5.515625 13.8125 5.515625 26.8125  Q 5.515625 40.234375 12.765625 48.109375  Q 20.015625 56 32.328125 56  Q 43.359375 56 49.78125 48.890625  Q 56.203125 41.796875 56.203125 29.59375  z M 47.21875 32.234375  Q 47.125 39.59375 43.09375 43.984375  Q 39.0625 48.390625 32.421875 48.390625  Q 24.90625 48.390625 20.390625 44.140625  Q 15.875 39.890625 15.1875 32.171875  z " id="DejaVuSans-65"/>
      <path id="DejaVuSans-20"/>
      <path d="M 31 75.875  Q 24.46875 64.65625 21.28125 53.65625  Q 18.109375 42.671875 18.109375 31.390625  Q 18.109375 20.125 21.3125 9.0625  Q 24.515625 -2 31 -13.1875  L 23.1875 -13.1875  Q 15.875 -1.703125 12.234375 9.375  Q 8.59375 20.453125 8.59375 31.390625  Q 8.59375 42.28125 12.203125 53.3125  Q 15.828125 64.359375 23.1875 75.875  z " id="DejaVuSans-28"/>
      <path d="M -1.3125 -20.796875  L 13.375 54.6875  L 22.40625 54.6875  L 15.765625 20.65625  Q 15.578125 19.625 15.421875 18.359375  Q 15.28125 17.09375 15.28125 15.828125  Q 15.28125 11.28125 18.140625 8.828125  Q 21 6.390625 26.3125 6.390625  Q 33.546875 6.390625 37.984375 10.484375  Q 42.4375 14.59375 44 22.796875  L 50.203125 54.6875  L 59.1875 54.6875  L 51.03125 12.640625  Q 50.828125 11.71875 50.75 11.03125  Q 50.6875 10.359375 50.6875 9.8125  Q 50.6875 8.296875 51.296875 7.59375  Q 51.90625 6.890625 53.21875 6.890625  Q 53.71875 6.890625 54.5625 7.125  Q 55.421875 7.375 56.984375 8.015625  L 55.609375 0.78125  Q 53.46875 -0.296875 51.515625 -0.859375  Q 49.5625 -1.421875 47.703125 -1.421875  Q 44.484375 -1.421875 42.65625 0.625  Q 40.828125 2.6875 40.828125 6.296875  Q 38.09375 2.390625 34.296875 0.484375  Q 30.515625 -1.421875 25.390625 -1.421875  Q 20.84375 -1.421875 17.453125 0.671875  Q 14.0625 2.78125 12.984375 6.203125  L 7.71875 -20.796875  z " id="DejaVuSans-Oblique-3bc"/>
      <path d="M 52 44.1875  Q 55.375 50.25 60.0625 53.125  Q 64.75 56 71.09375 56  Q 79.640625 56 84.28125 50.015625  Q 88.921875 44.046875 88.921875 33.015625  L 88.921875 0  L 79.890625 0  L 79.890625 32.71875  Q 79.890625 40.578125 77.09375 44.375  Q 74.3125 48.1875 68.609375 48.1875  Q 61.625 48.1875 57.5625 43.546875  Q 53.515625 38.921875 53.515625 30.90625  L 53.515625 0  L 44.484375 0  L 44.484375 32.71875  Q 44.484375 40.625 41.703125 44.40625  Q 38.921875 48.1875 33.109375 48.1875  Q 26.21875 48.1875 22.15625 43.53125  Q 18.109375 38.875 18.109375 30.90625  L 18.109375 0  L 9.078125 0  L 9.078125 54.6875  L 18.109375 54.6875  L 18.109375 46.1875  Q 21.1875 51.21875 25.484375 53.609375  Q 29.78125 56 35.6875 56  Q 41.65625 56 45.828125 52.96875  Q 50 49.953125 52 44.1875  z " id="DejaVuSans-6d"/>
      <path d="M 8.015625 75.875  L 15.828125 75.875  Q 23.140625 64.359375 26.78125 53.3125  Q 30.421875 42.28125 30.421875 31.390625  Q 30.421875 20.453125 26.78125 9.375  Q 23.140625 -1.703125 15.828125 -13.1875  L 8.015625 -13.1875  Q 14.5 -2 17.703125 9.0625  Q 20.90625 20.125 20.90625 31.390625  Q 20.90625 42.671875 17.703125 53.65625  Q 14.5 64.65625 8.015625 75.875  z " id="DejaVuSans-29"/>
     </defs>
     <g transform="translate(214.8185 329.038125)scale(0.1 -0.1)">
      <use transform="translate(0 0.015625)" xlink:href="#DejaVuSans-44"/>
      <use transform="translate(77.001953 0.015625)" xlink:href="#DejaVuSans-69"/>
      <use transform="translate(104.785156 0.015625)" xlink:href="#DejaVuSans-73"/>
      <use transform="translate(156.884766 0.015625)" xlink:href="#DejaVuSans-74"/>
      <use transform="translate(196.09375 0.015625)" xlink:href="#DejaVuSans-61"/>
      <use transform="translate(257.373047 0.015625)" xlink:href="#DejaVuSans-6e"/>
      <use transform="translate(320.751953 0.015625)" xlink:href="#DejaVuSans-63"/>
      <use transform="translate(375.732422 0.015625)" xlink:href="#DejaVuSans-65"/>
      <use transform="translate(437.255859 0.015625)" xlink:href="#DejaVuSans-20"/>
      <use transform="translate(469.042969 0.015625)" xlink:href="#DejaVuSans-28"/>
      <use transform="translate(508.056641 0.015625)" xlink:href="#DejaVuSans-Oblique-3bc"/>
      <use transform="translate(571.679688 0.015625)" xlink:href="#DejaVuSans-6d"/>
      <use transform="translate(669.091797 0.015625)" xlink:href="#DejaVuSans-29"/>
     </g>
    </g>
   </g>
   <g id="matplotlib.axis_2">
    <g id="ytick_1">
     <g id="line2d_8">
      <defs>
       <path d="M 0 0  L -3.5 0  " id="mef4cafed6a" style="stroke:#000000;stroke-width:0.8;"/>
      </defs>
      <g>
       <use style="stroke:#000000;stroke-width:0.8;" x="63.182" xlink:href="#mef4cafed6a" y="264.413621"/>
      </g>
     </g>
     <g id="text_9">
      <!-- &#8722;400 -->
      <defs>
       <path d="M 10.59375 35.5  L 73.1875 35.5  L 73.1875 27.203125  L 10.59375 27.203125  z " id="DejaVuSans-2212"/>
      </defs>
      <g transform="translate(28.714813 268.21284)scale(0.1 -0.1)">
       <use xlink:href="#DejaVuSans-2212"/>
       <use x="83.789062" xlink:href="#DejaVuSans-34"/>
       <use x="147.412109" xlink:href="#DejaVuSans-30"/>
       <use x="211.035156" xlink:href="#DejaVuSans-30"/>
      </g>
     </g>
    </g>
    <g id="ytick_2">
     <g id="line2d_9">
      <g>
       <use style="stroke:#000000;stroke-width:0.8;" x="63.182" xlink:href="#mef4cafed6a" y="202.342372"/>
      </g>
     </g>
     <g id="text_10">
      <!-- &#8722;200 -->
      <g transform="translate(28.714813 206.141591)scale(0.1 -0.1)">
       <use xlink:href="#DejaVuSans-2212"/>
       <use x="83.789062" xlink:href="#DejaVuSans-32"/>
       <use x="147.412109" xlink:href="#DejaVuSans-30"/>
       <use x="211.035156" xlink:href="#DejaVuSans-30"/>
      </g>
     </g>
    </g>
    <g id="ytick_3">
     <g id="line2d_10">
      <g>
       <use style="stroke:#000000;stroke-width:0.8;" x="63.182" xlink:href="#mef4cafed6a" y="140.271123"/>
      </g>
     </g>
     <g id="text_11">
      <!-- 0 -->
      <g transform="translate(49.8195 144.070341)scale(0.1 -0.1)">
       <use xlink:href="#DejaVuSans-30"/>
      </g>
     </g>
    </g>
    <g id="ytick_4">
     <g id="line2d_11">
      <g>
       <use style="stroke:#000000;stroke-width:0.8;" x="63.182" xlink:href="#mef4cafed6a" y="78.199873"/>
      </g>
     </g>
     <g id="text_12">
      <!-- 200 -->
      <g transform="translate(37.0945 81.999092)scale(0.1 -0.1)">
       <use xlink:href="#DejaVuSans-32"/>
       <use x="63.623047" xlink:href="#DejaVuSans-30"/>
       <use x="127.246094" xlink:href="#DejaVuSans-30"/>
      </g>
     </g>
    </g>
    <g id="ytick_5">
     <g id="line2d_12">
      <g>
       <use style="stroke:#000000;stroke-width:0.8;" x="63.182" xlink:href="#mef4cafed6a" y="16.128624"/>
      </g>
     </g>
     <g id="text_13">
      <!-- 400 -->
      <g transform="translate(37.0945 19.927843)scale(0.1 -0.1)">
       <use xlink:href="#DejaVuSans-34"/>
       <use x="63.623047" xlink:href="#DejaVuSans-30"/>
       <use x="127.246094" xlink:href="#DejaVuSans-30"/>
      </g>
     </g>
    </g>
    <g id="text_14">
     <!-- Flux (at.-fr.m/s)$\times10^{-14}$ -->
     <defs>
      <path d="M 9.8125 72.90625  L 51.703125 72.90625  L 51.703125 64.59375  L 19.671875 64.59375  L 19.671875 43.109375  L 48.578125 43.109375  L 48.578125 34.8125  L 19.671875 34.8125  L 19.671875 0  L 9.8125 0  z " id="DejaVuSans-46"/>
      <path d="M 9.421875 75.984375  L 18.40625 75.984375  L 18.40625 0  L 9.421875 0  z " id="DejaVuSans-6c"/>
      <path d="M 8.5 21.578125  L 8.5 54.6875  L 17.484375 54.6875  L 17.484375 21.921875  Q 17.484375 14.15625 20.5 10.265625  Q 23.53125 6.390625 29.59375 6.390625  Q 36.859375 6.390625 41.078125 11.03125  Q 45.3125 15.671875 45.3125 23.6875  L 45.3125 54.6875  L 54.296875 54.6875  L 54.296875 0  L 45.3125 0  L 45.3125 8.40625  Q 42.046875 3.421875 37.71875 1  Q 33.40625 -1.421875 27.6875 -1.421875  Q 18.265625 -1.421875 13.375 4.4375  Q 8.5 10.296875 8.5 21.578125  z M 31.109375 56  z " id="DejaVuSans-75"/>
      <path d="M 54.890625 54.6875  L 35.109375 28.078125  L 55.90625 0  L 45.3125 0  L 29.390625 21.484375  L 13.484375 0  L 2.875 0  L 24.125 28.609375  L 4.6875 54.6875  L 15.28125 54.6875  L 29.78125 35.203125  L 44.28125 54.6875  z " id="DejaVuSans-78"/>
      <path d="M 10.6875 12.40625  L 21 12.40625  L 21 0  L 10.6875 0  z " id="DejaVuSans-2e"/>
      <path d="M 4.890625 31.390625  L 31.203125 31.390625  L 31.203125 23.390625  L 4.890625 23.390625  z " id="DejaVuSans-2d"/>
      <path d="M 37.109375 75.984375  L 37.109375 68.5  L 28.515625 68.5  Q 23.6875 68.5 21.796875 66.546875  Q 19.921875 64.59375 19.921875 59.515625  L 19.921875 54.6875  L 34.71875 54.6875  L 34.71875 47.703125  L 19.921875 47.703125  L 19.921875 0  L 10.890625 0  L 10.890625 47.703125  L 2.296875 47.703125  L 2.296875 54.6875  L 10.890625 54.6875  L 10.890625 58.5  Q 10.890625 67.625 15.140625 71.796875  Q 19.390625 75.984375 28.609375 75.984375  z " id="DejaVuSans-66"/>
      <path d="M 41.109375 46.296875  Q 39.59375 47.171875 37.8125 47.578125  Q 36.03125 48 33.890625 48  Q 26.265625 48 22.1875 43.046875  Q 18.109375 38.09375 18.109375 28.8125  L 18.109375 0  L 9.078125 0  L 9.078125 54.6875  L 18.109375 54.6875  L 18.109375 46.1875  Q 20.953125 51.171875 25.484375 53.578125  Q 30.03125 56 36.53125 56  Q 37.453125 56 38.578125 55.875  Q 39.703125 55.765625 41.0625 55.515625  z " id="DejaVuSans-72"/>
      <path d="M 25.390625 72.90625  L 33.6875 72.90625  L 8.296875 -9.28125  L 0 -9.28125  z " id="DejaVuSans-2f"/>
      <path d="M 70.125 53.71875  L 47.796875 31.296875  L 70.125 8.984375  L 64.3125 3.078125  L 41.890625 25.484375  L 19.484375 3.078125  L 13.71875 8.984375  L 35.984375 31.296875  L 13.71875 53.71875  L 19.484375 59.625  L 41.890625 37.203125  L 64.3125 59.625  z " id="DejaVuSans-d7"/>
     </defs>
     <g transform="translate(22.635125 214.04)rotate(-90)scale(0.1 -0.1)">
      <use transform="translate(0 0.684375)" xlink:href="#DejaVuSans-46"/>
      <use transform="translate(57.519531 0.684375)" xlink:href="#DejaVuSans-6c"/>
      <use transform="translate(85.302734 0.684375)" xlink:href="#DejaVuSans-75"/>
      <use transform="translate(148.681641 0.684375)" xlink:href="#DejaVuSans-78"/>
      <use transform="translate(207.861328 0.684375)" xlink:href="#DejaVuSans-20"/>
      <use transform="translate(239.648438 0.684375)" xlink:href="#DejaVuSans-28"/>
      <use transform="translate(278.662109 0.684375)" xlink:href="#DejaVuSans-61"/>
      <use transform="translate(339.941406 0.684375)" xlink:href="#DejaVuSans-74"/>
      <use transform="translate(379.150391 0.684375)" xlink:href="#DejaVuSans-2e"/>
      <use transform="translate(410.9375 0.684375)" xlink:href="#DejaVuSans-2d"/>
      <use transform="translate(447.021484 0.684375)" xlink:href="#DejaVuSans-66"/>
      <use transform="translate(482.226562 0.684375)" xlink:href="#DejaVuSans-72"/>
      <use transform="translate(523.339844 0.684375)" xlink:href="#DejaVuSans-2e"/>
      <use transform="translate(555.033203 0.684375)" xlink:href="#DejaVuSans-6d"/>
      <use transform="translate(652.445312 0.684375)" xlink:href="#DejaVuSans-2f"/>
      <use transform="translate(686.136719 0.684375)" xlink:href="#DejaVuSans-73"/>
      <use transform="translate(738.236328 0.684375)" xlink:href="#DejaVuSans-29"/>
      <use transform="translate(777.25 0.684375)" xlink:href="#DejaVuSans-d7"/>
      <use transform="translate(861.039062 0.684375)" xlink:href="#DejaVuSans-31"/>
      <use transform="translate(924.662109 0.684375)" xlink:href="#DejaVuSans-30"/>
      <use transform="translate(989.242188 38.965625)scale(0.7)" xlink:href="#DejaVuSans-2212"/>
      <use transform="translate(1047.894531 38.965625)scale(0.7)" xlink:href="#DejaVuSans-31"/>
      <use transform="translate(1092.430664 38.965625)scale(0.7)" xlink:href="#DejaVuSans-34"/>
     </g>
    </g>
   </g>
   <g id="line2d_13">
    <defs>
     <path d="M -0 3  L 3 -3  L -3 -3  z " id="m47eb62e421" style="stroke:#e74c3c;stroke-linejoin:miter;"/>
    </defs>
    <g clip-path="url(#p87dad81d32)">
     <use style="fill:#e74c3c;stroke:#e74c3c;stroke-linejoin:miter;" x="63.182" xlink:href="#m47eb62e421" y="140.291272"/>
     <use style="fill:#e74c3c;stroke:#e74c3c;stroke-linejoin:miter;" x="70.703065" xlink:href="#m47eb62e421" y="140.371416"/>
     <use style="fill:#e74c3c;stroke:#e74c3c;stroke-linejoin:miter;" x="78.224131" xlink:href="#m47eb62e421" y="140.542556"/>
     <use style="fill:#e74c3c;stroke:#e74c3c;stroke-linejoin:miter;" x="85.745196" xlink:href="#m47eb62e421" y="140.82653"/>
     <use style="fill:#e74c3c;stroke:#e74c3c;stroke-linejoin:miter;" x="93.266261" xlink:href="#m47eb62e421" y="141.284629"/>
     <use style="fill:#e74c3c;stroke:#e74c3c;stroke-linejoin:miter;" x="100.787327" xlink:href="#m47eb62e421" y="142.002911"/>
     <use style="fill:#e74c3c;stroke:#e74c3c;stroke-linejoin:miter;" x="108.308392" xlink:href="#m47eb62e421" y="143.097275"/>
     <use style="fill:#e74c3c;stroke:#e74c3c;stroke-linejoin:miter;" x="115.829457" xlink:href="#m47eb62e421" y="144.716921"/>
     <use style="fill:#e74c3c;stroke:#e74c3c;stroke-linejoin:miter;" x="123.350523" xlink:href="#m47eb62e421" y="147.044496"/>
     <use style="fill:#e74c3c;stroke:#e74c3c;stroke-linejoin:miter;" x="130.871588" xlink:href="#m47eb62e421" y="150.290978"/>
     <use style="fill:#e74c3c;stroke:#e74c3c;stroke-linejoin:miter;" x="138.392653" xlink:href="#m47eb62e421" y="154.683429"/>
     <use style="fill:#e74c3c;stroke:#e74c3c;stroke-linejoin:miter;" x="145.913719" xlink:href="#m47eb62e421" y="160.444334"/>
     <use style="fill:#e74c3c;stroke:#e74c3c;stroke-linejoin:miter;" x="153.434784" xlink:href="#m47eb62e421" y="167.762418"/>
     <use style="fill:#e74c3c;stroke:#e74c3c;stroke-linejoin:miter;" x="160.955849" xlink:href="#m47eb62e421" y="176.756633"/>
     <use style="fill:#e74c3c;stroke:#e74c3c;stroke-linejoin:miter;" x="168.476915" xlink:href="#m47eb62e421" y="187.437089"/>
     <use style="fill:#e74c3c;stroke:#e74c3c;stroke-linejoin:miter;" x="175.99798" xlink:href="#m47eb62e421" y="199.668772"/>
     <use style="fill:#e74c3c;stroke:#e74c3c;stroke-linejoin:miter;" x="183.519045" xlink:href="#m47eb62e421" y="213.145271"/>
     <use style="fill:#e74c3c;stroke:#e74c3c;stroke-linejoin:miter;" x="191.040111" xlink:href="#m47eb62e421" y="227.379914"/>
     <use style="fill:#e74c3c;stroke:#e74c3c;stroke-linejoin:miter;" x="198.561176" xlink:href="#m47eb62e421" y="241.720264"/>
     <use style="fill:#e74c3c;stroke:#e74c3c;stroke-linejoin:miter;" x="206.082241" xlink:href="#m47eb62e421" y="255.388752"/>
     <use style="fill:#e74c3c;stroke:#e74c3c;stroke-linejoin:miter;" x="213.603307" xlink:href="#m47eb62e421" y="267.547745"/>
     <use style="fill:#e74c3c;stroke:#e74c3c;stroke-linejoin:miter;" x="221.124372" xlink:href="#m47eb62e421" y="277.382386"/>
     <use style="fill:#e74c3c;stroke:#e74c3c;stroke-linejoin:miter;" x="228.645437" xlink:href="#m47eb62e421" y="284.190188"/>
     <use style="fill:#e74c3c;stroke:#e74c3c;stroke-linejoin:miter;" x="236.166503" xlink:href="#m47eb62e421" y="287.463852"/>
     <use style="fill:#e74c3c;stroke:#e74c3c;stroke-linejoin:miter;" x="243.687568" xlink:href="#m47eb62e421" y="286.953753"/>
     <use style="fill:#e74c3c;stroke:#e74c3c;stroke-linejoin:miter;" x="251.208633" xlink:href="#m47eb62e421" y="282.699434"/>
     <use style="fill:#e74c3c;stroke:#e74c3c;stroke-linejoin:miter;" x="258.729698" xlink:href="#m47eb62e421" y="275.024574"/>
     <use style="fill:#e74c3c;stroke:#e74c3c;stroke-linejoin:miter;" x="266.250764" xlink:href="#m47eb62e421" y="264.496327"/>
     <use style="fill:#e74c3c;stroke:#e74c3c;stroke-linejoin:miter;" x="273.771829" xlink:href="#m47eb62e421" y="251.856122"/>
     <use style="fill:#e74c3c;stroke:#e74c3c;stroke-linejoin:miter;" x="281.292894" xlink:href="#m47eb62e421" y="237.933633"/>
     <use style="fill:#e74c3c;stroke:#e74c3c;stroke-linejoin:miter;" x="288.81396" xlink:href="#m47eb62e421" y="223.557741"/>
     <use style="fill:#e74c3c;stroke:#e74c3c;stroke-linejoin:miter;" x="296.335025" xlink:href="#m47eb62e421" y="209.477583"/>
     <use style="fill:#e74c3c;stroke:#e74c3c;stroke-linejoin:miter;" x="303.85609" xlink:href="#m47eb62e421" y="196.30364"/>
     <use style="fill:#e74c3c;stroke:#e74c3c;stroke-linejoin:miter;" x="311.377156" xlink:href="#m47eb62e421" y="184.47421"/>
     <use style="fill:#e74c3c;stroke:#e74c3c;stroke-linejoin:miter;" x="318.898221" xlink:href="#m47eb62e421" y="174.247663"/>
     <use style="fill:#e74c3c;stroke:#e74c3c;stroke-linejoin:miter;" x="326.419286" xlink:href="#m47eb62e421" y="165.716684"/>
     <use style="fill:#e74c3c;stroke:#e74c3c;stroke-linejoin:miter;" x="333.940352" xlink:href="#m47eb62e421" y="158.837998"/>
     <use style="fill:#e74c3c;stroke:#e74c3c;stroke-linejoin:miter;" x="341.461417" xlink:href="#m47eb62e421" y="153.470072"/>
     <use style="fill:#e74c3c;stroke:#e74c3c;stroke-linejoin:miter;" x="348.982482" xlink:href="#m47eb62e421" y="149.41184"/>
     <use style="fill:#e74c3c;stroke:#e74c3c;stroke-linejoin:miter;" x="356.503548" xlink:href="#m47eb62e421" y="146.437146"/>
     <use style="fill:#e74c3c;stroke:#e74c3c;stroke-linejoin:miter;" x="364.024613" xlink:href="#m47eb62e421" y="144.321703"/>
     <use style="fill:#e74c3c;stroke:#e74c3c;stroke-linejoin:miter;" x="371.545678" xlink:href="#m47eb62e421" y="142.861399"/>
     <use style="fill:#e74c3c;stroke:#e74c3c;stroke-linejoin:miter;" x="379.066744" xlink:href="#m47eb62e421" y="141.882456"/>
     <use style="fill:#e74c3c;stroke:#e74c3c;stroke-linejoin:miter;" x="386.587809" xlink:href="#m47eb62e421" y="141.244922"/>
     <use style="fill:#e74c3c;stroke:#e74c3c;stroke-linejoin:miter;" x="394.108874" xlink:href="#m47eb62e421" y="140.841449"/>
     <use style="fill:#e74c3c;stroke:#e74c3c;stroke-linejoin:miter;" x="401.62994" xlink:href="#m47eb62e421" y="140.593245"/>
     <use style="fill:#e74c3c;stroke:#e74c3c;stroke-linejoin:miter;" x="409.151005" xlink:href="#m47eb62e421" y="140.444794"/>
     <use style="fill:#e74c3c;stroke:#e74c3c;stroke-linejoin:miter;" x="416.67207" xlink:href="#m47eb62e421" y="140.358451"/>
     <use style="fill:#e74c3c;stroke:#e74c3c;stroke-linejoin:miter;" x="424.193136" xlink:href="#m47eb62e421" y="140.309608"/>
     <use style="fill:#e74c3c;stroke:#e74c3c;stroke-linejoin:miter;" x="431.714201" xlink:href="#m47eb62e421" y="140.28273"/>
    </g>
   </g>
   <g id="line2d_14">
    <defs>
     <path d="M 0 -3  L -0.673542 -0.927051  L -2.85317 -0.927051  L -1.089814 0.354102  L -1.763356 2.427051  L -0 1.145898  L 1.763356 2.427051  L 1.089814 0.354102  L 2.85317 -0.927051  L 0.673542 -0.927051  z " id="m8f74963f10" style="stroke:#808000;stroke-linejoin:bevel;"/>
    </defs>
    <g clip-path="url(#p87dad81d32)">
     <use style="fill:#808000;stroke:#808000;stroke-linejoin:bevel;" x="63.182" xlink:href="#m8f74963f10" y="140.270586"/>
     <use style="fill:#808000;stroke:#808000;stroke-linejoin:bevel;" x="70.703065" xlink:href="#m8f74963f10" y="140.268003"/>
     <use style="fill:#808000;stroke:#808000;stroke-linejoin:bevel;" x="78.224131" xlink:href="#m8f74963f10" y="140.260477"/>
     <use style="fill:#808000;stroke:#808000;stroke-linejoin:bevel;" x="85.745196" xlink:href="#m8f74963f10" y="140.243123"/>
     <use style="fill:#808000;stroke:#808000;stroke-linejoin:bevel;" x="93.266261" xlink:href="#m8f74963f10" y="140.204886"/>
     <use style="fill:#808000;stroke:#808000;stroke-linejoin:bevel;" x="100.787327" xlink:href="#m8f74963f10" y="140.124417"/>
     <use style="fill:#808000;stroke:#808000;stroke-linejoin:bevel;" x="108.308392" xlink:href="#m8f74963f10" y="139.962706"/>
     <use style="fill:#808000;stroke:#808000;stroke-linejoin:bevel;" x="115.829457" xlink:href="#m8f74963f10" y="139.652507"/>
     <use style="fill:#808000;stroke:#808000;stroke-linejoin:bevel;" x="123.350523" xlink:href="#m8f74963f10" y="139.084772"/>
     <use style="fill:#808000;stroke:#808000;stroke-linejoin:bevel;" x="130.871588" xlink:href="#m8f74963f10" y="138.093898"/>
     <use style="fill:#808000;stroke:#808000;stroke-linejoin:bevel;" x="138.392653" xlink:href="#m8f74963f10" y="136.445833"/>
     <use style="fill:#808000;stroke:#808000;stroke-linejoin:bevel;" x="145.913719" xlink:href="#m8f74963f10" y="133.835714"/>
     <use style="fill:#808000;stroke:#808000;stroke-linejoin:bevel;" x="153.434784" xlink:href="#m8f74963f10" y="129.90356"/>
     <use style="fill:#808000;stroke:#808000;stroke-linejoin:bevel;" x="160.955849" xlink:href="#m8f74963f10" y="124.276106"/>
     <use style="fill:#808000;stroke:#808000;stroke-linejoin:bevel;" x="168.476915" xlink:href="#m8f74963f10" y="116.638614"/>
     <use style="fill:#808000;stroke:#808000;stroke-linejoin:bevel;" x="175.99798" xlink:href="#m8f74963f10" y="106.831828"/>
     <use style="fill:#808000;stroke:#808000;stroke-linejoin:bevel;" x="183.519045" xlink:href="#m8f74963f10" y="94.957445"/>
     <use style="fill:#808000;stroke:#808000;stroke-linejoin:bevel;" x="191.040111" xlink:href="#m8f74963f10" y="81.464269"/>
     <use style="fill:#808000;stroke:#808000;stroke-linejoin:bevel;" x="198.561176" xlink:href="#m8f74963f10" y="67.181805"/>
     <use style="fill:#808000;stroke:#808000;stroke-linejoin:bevel;" x="206.082241" xlink:href="#m8f74963f10" y="53.273431"/>
     <use style="fill:#808000;stroke:#808000;stroke-linejoin:bevel;" x="213.603307" xlink:href="#m8f74963f10" y="41.098975"/>
     <use style="fill:#808000;stroke:#808000;stroke-linejoin:bevel;" x="221.124372" xlink:href="#m8f74963f10" y="32.003132"/>
     <use style="fill:#808000;stroke:#808000;stroke-linejoin:bevel;" x="228.645437" xlink:href="#m8f74963f10" y="27.073076"/>
     <use style="fill:#808000;stroke:#808000;stroke-linejoin:bevel;" x="236.166503" xlink:href="#m8f74963f10" y="26.925078"/>
     <use style="fill:#808000;stroke:#808000;stroke-linejoin:bevel;" x="243.687568" xlink:href="#m8f74963f10" y="31.577907"/>
     <use style="fill:#808000;stroke:#808000;stroke-linejoin:bevel;" x="251.208633" xlink:href="#m8f74963f10" y="40.448912"/>
     <use style="fill:#808000;stroke:#808000;stroke-linejoin:bevel;" x="258.729698" xlink:href="#m8f74963f10" y="52.473932"/>
     <use style="fill:#808000;stroke:#808000;stroke-linejoin:bevel;" x="266.250764" xlink:href="#m8f74963f10" y="66.316934"/>
     <use style="fill:#808000;stroke:#808000;stroke-linejoin:bevel;" x="273.771829" xlink:href="#m8f74963f10" y="80.612441"/>
     <use style="fill:#808000;stroke:#808000;stroke-linejoin:bevel;" x="281.292894" xlink:href="#m8f74963f10" y="94.180427"/>
     <use style="fill:#808000;stroke:#808000;stroke-linejoin:bevel;" x="288.81396" xlink:href="#m8f74963f10" y="106.168984"/>
     <use style="fill:#808000;stroke:#808000;stroke-linejoin:bevel;" x="296.335025" xlink:href="#m8f74963f10" y="116.106574"/>
     <use style="fill:#808000;stroke:#808000;stroke-linejoin:bevel;" x="303.85609" xlink:href="#m8f74963f10" y="123.872609"/>
     <use style="fill:#808000;stroke:#808000;stroke-linejoin:bevel;" x="311.377156" xlink:href="#m8f74963f10" y="129.613534"/>
     <use style="fill:#808000;stroke:#808000;stroke-linejoin:bevel;" x="318.898221" xlink:href="#m8f74963f10" y="133.637633"/>
     <use style="fill:#808000;stroke:#808000;stroke-linejoin:bevel;" x="326.419286" xlink:href="#m8f74963f10" y="136.316967"/>
     <use style="fill:#808000;stroke:#808000;stroke-linejoin:bevel;" x="333.940352" xlink:href="#m8f74963f10" y="138.0138"/>
     <use style="fill:#808000;stroke:#808000;stroke-linejoin:bevel;" x="341.461417" xlink:href="#m8f74963f10" y="139.036991"/>
     <use style="fill:#808000;stroke:#808000;stroke-linejoin:bevel;" x="348.982482" xlink:href="#m8f74963f10" y="139.624939"/>
     <use style="fill:#808000;stroke:#808000;stroke-linejoin:bevel;" x="356.503548" xlink:href="#m8f74963f10" y="139.947101"/>
     <use style="fill:#808000;stroke:#808000;stroke-linejoin:bevel;" x="364.024613" xlink:href="#m8f74963f10" y="140.115522"/>
     <use style="fill:#808000;stroke:#808000;stroke-linejoin:bevel;" x="371.545678" xlink:href="#m8f74963f10" y="140.199565"/>
     <use style="fill:#808000;stroke:#808000;stroke-linejoin:bevel;" x="379.066744" xlink:href="#m8f74963f10" y="140.239611"/>
     <use style="fill:#808000;stroke:#808000;stroke-linejoin:bevel;" x="386.587809" xlink:href="#m8f74963f10" y="140.257837"/>
     <use style="fill:#808000;stroke:#808000;stroke-linejoin:bevel;" x="394.108874" xlink:href="#m8f74963f10" y="140.265763"/>
     <use style="fill:#808000;stroke:#808000;stroke-linejoin:bevel;" x="401.62994" xlink:href="#m8f74963f10" y="140.269057"/>
     <use style="fill:#808000;stroke:#808000;stroke-linejoin:bevel;" x="409.151005" xlink:href="#m8f74963f10" y="140.270365"/>
     <use style="fill:#808000;stroke:#808000;stroke-linejoin:bevel;" x="416.67207" xlink:href="#m8f74963f10" y="140.270862"/>
     <use style="fill:#808000;stroke:#808000;stroke-linejoin:bevel;" x="424.193136" xlink:href="#m8f74963f10" y="140.271042"/>
     <use style="fill:#808000;stroke:#808000;stroke-linejoin:bevel;" x="431.714201" xlink:href="#m8f74963f10" y="140.271105"/>
    </g>
   </g>
   <g id="line2d_15">
    <defs>
     <path d="M 0 3  C 0.795609 3 1.55874 2.683901 2.12132 2.12132  C 2.683901 1.55874 3 0.795609 3 0  C 3 -0.795609 2.683901 -1.55874 2.12132 -2.12132  C 1.55874 -2.683901 0.795609 -3 0 -3  C -0.795609 -3 -1.55874 -2.683901 -2.12132 -2.12132  C -2.683901 -1.55874 -3 -0.795609 -3 0  C -3 0.795609 -2.683901 1.55874 -2.12132 2.12132  C -1.55874 2.683901 -0.795609 3 0 3  z " id="mbbd2088754" style="stroke:#008080;"/>
    </defs>
    <g clip-path="url(#p87dad81d32)">
     <use style="fill:#008080;stroke:#008080;" x="63.182" xlink:href="#mbbd2088754" y="140.251511"/>
     <use style="fill:#008080;stroke:#008080;" x="70.703065" xlink:href="#mbbd2088754" y="140.173948"/>
     <use style="fill:#008080;stroke:#008080;" x="78.224131" xlink:href="#mbbd2088754" y="140.010334"/>
     <use style="fill:#008080;stroke:#008080;" x="85.745196" xlink:href="#mbbd2088754" y="139.743716"/>
     <use style="fill:#008080;stroke:#008080;" x="93.266261" xlink:href="#mbbd2088754" y="139.323852"/>
     <use style="fill:#008080;stroke:#008080;" x="100.787327" xlink:href="#mbbd2088754" y="138.68604"/>
     <use style="fill:#008080;stroke:#008080;" x="108.308392" xlink:href="#mbbd2088754" y="137.753387"/>
     <use style="fill:#008080;stroke:#008080;" x="115.829457" xlink:href="#mbbd2088754" y="136.44394"/>
     <use style="fill:#008080;stroke:#008080;" x="123.350523" xlink:href="#mbbd2088754" y="134.6841"/>
     <use style="fill:#008080;stroke:#008080;" x="130.871588" xlink:href="#mbbd2088754" y="132.428492"/>
     <use style="fill:#008080;stroke:#008080;" x="138.392653" xlink:href="#mbbd2088754" y="129.684106"/>
     <use style="fill:#008080;stroke:#008080;" x="145.913719" xlink:href="#mbbd2088754" y="126.53332"/>
     <use style="fill:#008080;stroke:#008080;" x="153.434784" xlink:href="#mbbd2088754" y="123.14739"/>
     <use style="fill:#008080;stroke:#008080;" x="160.955849" xlink:href="#mbbd2088754" y="119.780628"/>
     <use style="fill:#008080;stroke:#008080;" x="168.476915" xlink:href="#mbbd2088754" y="116.737665"/>
     <use style="fill:#008080;stroke:#008080;" x="175.99798" xlink:href="#mbbd2088754" y="114.312768"/>
     <use style="fill:#008080;stroke:#008080;" x="183.519045" xlink:href="#mbbd2088754" y="112.710651"/>
     <use style="fill:#008080;stroke:#008080;" x="191.040111" xlink:href="#mbbd2088754" y="111.969185"/>
     <use style="fill:#008080;stroke:#008080;" x="198.561176" xlink:href="#mbbd2088754" y="111.911299"/>
     <use style="fill:#008080;stroke:#008080;" x="206.082241" xlink:href="#mbbd2088754" y="112.151185"/>
     <use style="fill:#008080;stroke:#008080;" x="213.603307" xlink:href="#mbbd2088754" y="112.166647"/>
     <use style="fill:#008080;stroke:#008080;" x="221.124372" xlink:href="#mbbd2088754" y="111.42785"/>
     <use style="fill:#008080;stroke:#008080;" x="228.645437" xlink:href="#mbbd2088754" y="109.550104"/>
     <use style="fill:#008080;stroke:#008080;" x="236.166503" xlink:href="#mbbd2088754" y="106.424438"/>
     <use style="fill:#008080;stroke:#008080;" x="243.687568" xlink:href="#mbbd2088754" y="102.281708"/>
     <use style="fill:#008080;stroke:#008080;" x="251.208633" xlink:href="#mbbd2088754" y="97.665022"/>
     <use style="fill:#008080;stroke:#008080;" x="258.729698" xlink:href="#mbbd2088754" y="93.314862"/>
     <use style="fill:#008080;stroke:#008080;" x="266.250764" xlink:href="#mbbd2088754" y="90.000106"/>
     <use style="fill:#008080;stroke:#008080;" x="273.771829" xlink:href="#mbbd2088754" y="88.344805"/>
     <use style="fill:#008080;stroke:#008080;" x="281.292894" xlink:href="#mbbd2088754" y="88.699308"/>
     <use style="fill:#008080;stroke:#008080;" x="288.81396" xlink:href="#mbbd2088754" y="91.086642"/>
     <use style="fill:#008080;stroke:#008080;" x="296.335025" xlink:href="#mbbd2088754" y="95.229211"/>
     <use style="fill:#008080;stroke:#008080;" x="303.85609" xlink:href="#mbbd2088754" y="100.637118"/>
     <use style="fill:#008080;stroke:#008080;" x="311.377156" xlink:href="#mbbd2088754" y="106.725624"/>
     <use style="fill:#008080;stroke:#008080;" x="318.898221" xlink:href="#mbbd2088754" y="112.928072"/>
     <use style="fill:#008080;stroke:#008080;" x="326.419286" xlink:href="#mbbd2088754" y="118.779717"/>
     <use style="fill:#008080;stroke:#008080;" x="333.940352" xlink:href="#mbbd2088754" y="123.96157"/>
     <use style="fill:#008080;stroke:#008080;" x="341.461417" xlink:href="#mbbd2088754" y="128.306304"/>
     <use style="fill:#008080;stroke:#008080;" x="348.982482" xlink:href="#mbbd2088754" y="131.776589"/>
     <use style="fill:#008080;stroke:#008080;" x="356.503548" xlink:href="#mbbd2088754" y="134.429121"/>
     <use style="fill:#008080;stroke:#008080;" x="364.024613" xlink:href="#mbbd2088754" y="136.376143"/>
     <use style="fill:#008080;stroke:#008080;" x="371.545678" xlink:href="#mbbd2088754" y="137.752403"/>
     <use style="fill:#008080;stroke:#008080;" x="379.066744" xlink:href="#mbbd2088754" y="138.691301"/>
     <use style="fill:#008080;stroke:#008080;" x="386.587809" xlink:href="#mbbd2088754" y="139.310608"/>
     <use style="fill:#008080;stroke:#008080;" x="394.108874" xlink:href="#mbbd2088754" y="139.706156"/>
     <use style="fill:#008080;stroke:#008080;" x="401.62994" xlink:href="#mbbd2088754" y="139.951066"/>
     <use style="fill:#008080;stroke:#008080;" x="409.151005" xlink:href="#mbbd2088754" y="140.098209"/>
     <use style="fill:#008080;stroke:#008080;" x="416.67207" xlink:href="#mbbd2088754" y="140.184055"/>
     <use style="fill:#008080;stroke:#008080;" x="424.193136" xlink:href="#mbbd2088754" y="140.232718"/>
     <use style="fill:#008080;stroke:#008080;" x="431.714201" xlink:href="#mbbd2088754" y="140.259533"/>
    </g>
   </g>
   <g id="line2d_16">
    <path clip-path="url(#p87dad81d32)" d="M 62.816597 140.271332  L 96.579865 140.381137  L 109.734385 140.625605  L 118.504065 141.006731  L 125.081325 141.512744  L 130.343133 142.130466  L 134.727974 142.847221  L 138.67433 143.696937  L 142.182202 144.654613  L 145.690074 145.842606  L 148.759462 147.104626  L 151.82885 148.606921  L 154.898238 150.382431  L 157.529142 152.147458  L 160.160046 154.159496  L 162.79095 156.439237  L 165.421854 159.005953  L 168.162379 162.003126  L 170.793283 165.20509  L 173.643429 169.043406  L 176.493575 173.270161  L 179.562963 178.250878  L 182.632351 183.657054  L 186.140223 190.310769  L 190.086579 198.305969  L 195.129145 209.06528  L 205.817193 232.018077  L 209.544307 239.404792  L 212.613695 245.019612  L 215.35422 249.591238  L 217.875503 253.375844  L 220.177544 256.44437  L 222.369964 259.000051  L 224.452763 261.080897  L 226.425941 262.730222  L 228.262093 263.977814  L 230.016029 264.908067  L 231.715154 265.564632  L 233.41428 265.980951  L 235.058595 266.156793  L 236.70291 266.112093  L 238.402035 265.838273  L 240.101161 265.338369  L 241.855097 264.59199  L 243.718654 263.551634  L 245.609616 262.246729  L 247.692415 260.534328  L 249.884835 258.440558  L 252.296497 255.820725  L 254.927401 252.623613  L 257.887168 248.661224  L 261.28542 243.721981  L 265.451018 237.251284  L 271.918657 226.729903  L 280.195042 213.351029  L 285.018366 205.99407  L 289.183964 200.043247  L 293.13032 194.802793  L 296.857434 190.229061  L 300.365306 186.260473  L 303.873179 182.610062  L 307.381051 179.262922  L 311.108165 176.016668  L 314.9449 172.980414  L 318.891256 170.148129  L 322.837612 167.577313  L 327.222452 164.98929  L 332.045776 162.424375  L 336.8691 160.112304  L 342.130908 157.8363  L 347.8312 155.619417  L 353.969976 153.482059  L 360.547236 151.443922  L 367.124496 149.637731  L 374.14024 147.941666  L 381.594468 146.376263  L 389.487181 144.959331  L 397.818377 143.704371  L 406.588057 142.619339  L 415.796221 141.706104  L 425.881353 140.931541  L 436.843453 140.311968  L 437.720421 140.291395  L 437.720421 140.291395  " style="fill:none;stroke:#e74c3c;stroke-linecap:square;stroke-width:2;"/>
   </g>
   <g id="line2d_17">
    <path clip-path="url(#p87dad81d32)" d="M 62.816597 140.27137  L 124.642841 140.171703  L 132.097069 139.871152  L 137.797362 139.431492  L 142.620686 138.839647  L 146.567042 138.149037  L 150.074914 137.335178  L 153.582786 136.290383  L 156.652174 135.151095  L 159.721562 133.767648  L 162.352466 132.361933  L 164.98337 130.730683  L 167.723895 128.769185  L 170.354799 126.614187  L 172.985703 124.17543  L 175.616607 121.438871  L 178.247511 118.394628  L 181.097657 114.74418  L 183.947803 110.729484  L 187.017191 106.01276  L 190.305821 100.539859  L 194.032935 93.883749  L 198.637017 85.165135  L 211.736727 60.029644  L 215.025357 54.367876  L 217.875503 49.896078  L 220.396786 46.34971  L 222.698827 43.495462  L 224.781626 41.260242  L 226.754804 39.468957  L 228.590956 38.102242  L 230.290081 37.105087  L 231.934396 36.39146  L 233.523901 35.940715  L 235.058595 35.730736  L 236.593289 35.74274  L 238.127983 35.97607  L 239.717488 36.448925  L 241.306992 37.153366  L 243.006118 38.156624  L 244.760054 39.455038  L 246.596205 41.088632  L 248.569383 43.140408  L 250.761803 45.755337  L 253.173465 49.00222  L 255.804369 52.9334  L 258.764136 57.7619  L 262.38163 64.108997  L 267.424196 73.449447  L 276.906412 91.068249  L 281.07201 98.292267  L 284.579882 103.956924  L 287.868512 108.860222  L 290.9379 113.051654  L 294.007288 116.858033  L 296.857434 120.046182  L 299.70758 122.906915  L 302.557727 125.452098  L 305.407873 127.698102  L 308.258019 129.664589  L 311.108165 131.37339  L 314.067932 132.899839  L 317.13732 134.24335  L 320.645192 135.516695  L 324.153064 136.549464  L 328.09942 137.47049  L 332.48426 138.250575  L 337.307584 138.877527  L 343.007876 139.386962  L 350.02362 139.777368  L 359.231784 140.049315  L 372.824788 140.207535  L 401.764733 140.267657  L 437.720421 140.271119  L 437.720421 140.271119  " style="fill:none;stroke:#808000;stroke-linecap:square;stroke-width:2;"/>
   </g>
   <g id="line2d_18">
    <path clip-path="url(#p87dad81d32)" d="M 62.816597 140.270665  L 92.195025 140.159622  L 107.980449 139.904266  L 118.504065 139.524995  L 126.835261 139.012541  L 133.851006 138.366891  L 139.989782 137.589568  L 145.690074 136.649417  L 150.951882 135.564749  L 156.21369 134.24995  L 161.475498 132.694197  L 166.737306 130.903448  L 172.766461 128.60245  L 181.974625 124.801761  L 189.209611 121.914524  L 193.813693 120.307788  L 197.760049 119.159485  L 201.267921 118.357021  L 204.830604 117.774683  L 208.228855 117.442982  L 211.846348 117.318074  L 215.792704 117.413614  L 220.616028 117.767181  L 234.181627 118.899155  L 238.292414 118.936417  L 242.12915 118.751665  L 245.938479 118.346215  L 249.884835 117.703933  L 254.379296 116.739454  L 260.18921 115.246102  L 272.028278 112.148115  L 276.68717 111.194462  L 280.852768 110.566351  L 284.799124 110.198479  L 288.526238 110.067817  L 292.253352 110.150503  L 296.199708 110.464165  L 300.365306 111.031155  L 304.750147 111.862455  L 309.573471 113.013153  L 314.9449 114.525623  L 321.960644 116.755624  L 333.799712 120.813991  L 346.515748 125.095011  L 355.285428 127.801697  L 363.17814 130.002841  L 370.632368 131.859082  L 378.086596 133.496644  L 385.979308 134.999776  L 393.872021 136.280376  L 402.203217 137.411975  L 411.411381 138.429161  L 421.058029 139.267545  L 431.581645 139.959097  L 437.720421 140.250854  L 437.720421 140.250854  " style="fill:none;stroke:#008080;stroke-linecap:square;stroke-width:2;"/>
   </g>
   <g id="patch_3">
    <path d="M 63.182 300.76  L 63.182 13.32  " style="fill:none;stroke:#000000;stroke-linecap:square;stroke-linejoin:miter;stroke-width:0.8;"/>
   </g>
   <g id="patch_4">
    <path d="M 437.355 300.76  L 437.355 13.32  " style="fill:none;stroke:#000000;stroke-linecap:square;stroke-linejoin:miter;stroke-width:0.8;"/>
   </g>
   <g id="patch_5">
    <path d="M 63.182 300.76  L 437.355 300.76  " style="fill:none;stroke:#000000;stroke-linecap:square;stroke-linejoin:miter;stroke-width:0.8;"/>
   </g>
   <g id="patch_6">
    <path d="M 63.182 13.32  L 437.355 13.32  " style="fill:none;stroke:#000000;stroke-linecap:square;stroke-linejoin:miter;stroke-width:0.8;"/>
   </g>
   <g id="legend_1">
    <g id="patch_7">
     <path d="M 364.131563 109.38875  L 430.355 109.38875  Q 432.355 109.38875 432.355 107.38875  L 432.355 20.32  Q 432.355 18.32 430.355 18.32  L 364.131563 18.32  Q 362.131563 18.32 362.131563 20.32  L 362.131563 107.38875  Q 362.131563 109.38875 364.131563 109.38875  z " style="fill:#ffffff;opacity:0.8;stroke:#cccccc;stroke-linejoin:miter;"/>
    </g>
    <g id="line2d_19"/>
    <g id="line2d_20">
     <g>
      <use style="fill:#e74c3c;stroke:#e74c3c;stroke-linejoin:miter;" x="376.131563" xlink:href="#m47eb62e421" y="26.418437"/>
     </g>
    </g>
    <g id="text_15">
     <!-- exp-Al -->
     <defs>
      <path d="M 18.109375 8.203125  L 18.109375 -20.796875  L 9.078125 -20.796875  L 9.078125 54.6875  L 18.109375 54.6875  L 18.109375 46.390625  Q 20.953125 51.265625 25.265625 53.625  Q 29.59375 56 35.59375 56  Q 45.5625 56 51.78125 48.09375  Q 58.015625 40.1875 58.015625 27.296875  Q 58.015625 14.40625 51.78125 6.484375  Q 45.5625 -1.421875 35.59375 -1.421875  Q 29.59375 -1.421875 25.265625 0.953125  Q 20.953125 3.328125 18.109375 8.203125  z M 48.6875 27.296875  Q 48.6875 37.203125 44.609375 42.84375  Q 40.53125 48.484375 33.40625 48.484375  Q 26.265625 48.484375 22.1875 42.84375  Q 18.109375 37.203125 18.109375 27.296875  Q 18.109375 17.390625 22.1875 11.75  Q 26.265625 6.109375 33.40625 6.109375  Q 40.53125 6.109375 44.609375 11.75  Q 48.6875 17.390625 48.6875 27.296875  z " id="DejaVuSans-70"/>
      <path d="M 34.1875 63.1875  L 20.796875 26.90625  L 47.609375 26.90625  z M 28.609375 72.90625  L 39.796875 72.90625  L 67.578125 0  L 57.328125 0  L 50.6875 18.703125  L 17.828125 18.703125  L 11.1875 0  L 0.78125 0  z " id="DejaVuSans-41"/>
     </defs>
     <g transform="translate(394.131563 29.918437)scale(0.1 -0.1)">
      <use xlink:href="#DejaVuSans-65"/>
      <use x="61.507812" xlink:href="#DejaVuSans-78"/>
      <use x="120.6875" xlink:href="#DejaVuSans-70"/>
      <use x="184.164062" xlink:href="#DejaVuSans-2d"/>
      <use x="220.216797" xlink:href="#DejaVuSans-41"/>
      <use x="288.625" xlink:href="#DejaVuSans-6c"/>
     </g>
    </g>
    <g id="line2d_21"/>
    <g id="line2d_22">
     <g>
      <use style="fill:#808000;stroke:#808000;stroke-linejoin:bevel;" x="376.131563" xlink:href="#m8f74963f10" y="41.096563"/>
     </g>
    </g>
    <g id="text_16">
     <!-- exp-Ta -->
     <defs>
      <path d="M -0.296875 72.90625  L 61.375 72.90625  L 61.375 64.59375  L 35.5 64.59375  L 35.5 0  L 25.59375 0  L 25.59375 64.59375  L -0.296875 64.59375  z " id="DejaVuSans-54"/>
     </defs>
     <g transform="translate(394.131563 44.596563)scale(0.1 -0.1)">
      <use xlink:href="#DejaVuSans-65"/>
      <use x="61.507812" xlink:href="#DejaVuSans-78"/>
      <use x="120.6875" xlink:href="#DejaVuSans-70"/>
      <use x="184.164062" xlink:href="#DejaVuSans-2d"/>
      <use x="220.107422" xlink:href="#DejaVuSans-54"/>
      <use x="280.941406" xlink:href="#DejaVuSans-61"/>
     </g>
    </g>
    <g id="line2d_23"/>
    <g id="line2d_24">
     <g>
      <use style="fill:#008080;stroke:#008080;" x="376.131563" xlink:href="#mbbd2088754" y="55.774687"/>
     </g>
    </g>
    <g id="text_17">
     <!-- exp-Ni -->
     <defs>
      <path d="M 9.8125 72.90625  L 23.09375 72.90625  L 55.421875 11.921875  L 55.421875 72.90625  L 64.984375 72.90625  L 64.984375 0  L 51.703125 0  L 19.390625 60.984375  L 19.390625 0  L 9.8125 0  z " id="DejaVuSans-4e"/>
     </defs>
     <g transform="translate(394.131563 59.274687)scale(0.1 -0.1)">
      <use xlink:href="#DejaVuSans-65"/>
      <use x="61.507812" xlink:href="#DejaVuSans-78"/>
      <use x="120.6875" xlink:href="#DejaVuSans-70"/>
      <use x="184.164062" xlink:href="#DejaVuSans-2d"/>
      <use x="220.248047" xlink:href="#DejaVuSans-4e"/>
      <use x="295.052734" xlink:href="#DejaVuSans-69"/>
     </g>
    </g>
    <g id="line2d_25">
     <path d="M 366.131563 70.452812  L 386.131563 70.452812  " style="fill:none;stroke:#e74c3c;stroke-linecap:square;stroke-width:2;"/>
    </g>
    <g id="line2d_26"/>
    <g id="text_18">
     <!-- sim-Al -->
     <g transform="translate(394.131563 73.952812)scale(0.1 -0.1)">
      <use xlink:href="#DejaVuSans-73"/>
      <use x="52.099609" xlink:href="#DejaVuSans-69"/>
      <use x="79.882812" xlink:href="#DejaVuSans-6d"/>
      <use x="177.294922" xlink:href="#DejaVuSans-2d"/>
      <use x="213.347656" xlink:href="#DejaVuSans-41"/>
      <use x="281.755859" xlink:href="#DejaVuSans-6c"/>
     </g>
    </g>
    <g id="line2d_27">
     <path d="M 366.131563 85.130938  L 386.131563 85.130938  " style="fill:none;stroke:#808000;stroke-linecap:square;stroke-width:2;"/>
    </g>
    <g id="line2d_28"/>
    <g id="text_19">
     <!-- sim-Ta -->
     <g transform="translate(394.131563 88.630938)scale(0.1 -0.1)">
      <use xlink:href="#DejaVuSans-73"/>
      <use x="52.099609" xlink:href="#DejaVuSans-69"/>
      <use x="79.882812" xlink:href="#DejaVuSans-6d"/>
      <use x="177.294922" xlink:href="#DejaVuSans-2d"/>
      <use x="213.238281" xlink:href="#DejaVuSans-54"/>
      <use x="274.072266" xlink:href="#DejaVuSans-61"/>
     </g>
    </g>
    <g id="line2d_29">
     <path d="M 366.131563 99.809062  L 386.131563 99.809062  " style="fill:none;stroke:#008080;stroke-linecap:square;stroke-width:2;"/>
    </g>
    <g id="line2d_30"/>
    <g id="text_20">
     <!-- sim-Ni -->
     <g transform="translate(394.131563 103.309062)scale(0.1 -0.1)">
      <use xlink:href="#DejaVuSans-73"/>
      <use x="52.099609" xlink:href="#DejaVuSans-69"/>
      <use x="79.882812" xlink:href="#DejaVuSans-6d"/>
      <use x="177.294922" xlink:href="#DejaVuSans-2d"/>
      <use x="213.378906" xlink:href="#DejaVuSans-4e"/>
      <use x="288.183594" xlink:href="#DejaVuSans-69"/>
     </g>
    </g>
   </g>
  </g>
 </g>
 <defs>
  <clipPath id="p87dad81d32">
   <rect height="287.44" width="374.173" x="63.182" y="13.32"/>
  </clipPath>
 </defs>
</g>
    <g transform="translate(10, 300) scale(1) ">
      <g transform="translate(0, 0) scale(3.0) "><defs id="defs831"/>
  <sodipodi:namedview xmlns:sodipodi="http://sodipodi.sourceforge.net/DTD/sodipodi-0.dtd" xmlns:inkscape="http://www.inkscape.org/namespaces/inkscape" id="base" pagecolor="#ffffff" bordercolor="#666666" borderopacity="1.0" inkscape:pageopacity="0.0" inkscape:pageshadow="2" inkscape:zoom="1.979899" inkscape:cx="-12.763683" inkscape:cy="-16.680883" inkscape:document-units="mm" inkscape:current-layer="layer1" showgrid="false" inkscape:window-width="1920" inkscape:window-height="1001" inkscape:window-x="-9" inkscape:window-y="-9" inkscape:window-maximized="1" units="pt"/>
  <metadata xmlns:rdf="http://www.w3.org/1999/02/22-rdf-syntax-ns#" xmlns:cc="http://creativecommons.org/ns#" xmlns:dc="http://purl.org/dc/elements/1.1/" id="metadata834">
    <rdf:RDF>
      <cc:Work rdf:about="">
        <dc:format>image/svg+xml</dc:format>
        <dc:type rdf:resource="http://purl.org/dc/dcmitype/StillImage"/>
        <dc:title/>
      </cc:Work>
    </rdf:RDF>
  </metadata>
  <g xmlns:inkscape="http://www.inkscape.org/namespaces/inkscape" xmlns:sodipodi="http://sodipodi.sourceforge.net/DTD/sodipodi-0.dtd" inkscape:label="Layer 1" inkscape:groupmode="layer" id="layer1" transform="translate(0,-288.81557)">
    <g id="g4761" transform="matrix(0.07377843,0,0,0.07377843,-0.76923022,275.45946)">
      <path inkscape:connector-curvature="0" id="path1959-6-7-1-6-5-4-0-3-2-6-0-3-9-6" style="font-style:normal;font-variant:normal;font-weight:bold;font-stretch:normal;font-size:120.99466705px;line-height:1.25;font-family:Aharoni;-inkscape-font-specification:'Aharoni, Bold';font-variant-ligatures:normal;font-variant-caps:normal;font-variant-numeric:normal;font-feature-settings:normal;text-align:start;letter-spacing:0px;word-spacing:0px;writing-mode:lr-tb;text-anchor:start;fill:#000000;fill-opacity:1;stroke:none;stroke-width:2.37649584" d="M 52.937412,287.55677 H 40.587702 V 265.43005 H 22.776041 v 22.12672 h -12.34982 v -53.17432 h 12.34982 v 20.5296 h 17.811661 v -20.5296 h 12.34971 z"/>
      <path inkscape:connector-curvature="0" id="path1961-2-9-7-9-3-1-6-5-1-5-8-7-8-2" style="font-style:normal;font-variant:normal;font-weight:bold;font-stretch:normal;font-size:120.99466705px;line-height:1.25;font-family:Aharoni;-inkscape-font-specification:'Aharoni, Bold';font-variant-ligatures:normal;font-variant-caps:normal;font-variant-numeric:normal;font-feature-settings:normal;text-align:start;letter-spacing:0px;word-spacing:0px;writing-mode:lr-tb;text-anchor:start;fill:#000000;fill-opacity:1;stroke:none;stroke-width:2.37649584" d="m 69.681125,237.49895 q 0,3.0385 -1.87856,5.1421 -1.84375,2.0647 -4.55721,2.0647 -2.67866,0 -4.55722,-2.1036 -1.84375,-2.1036 -1.84375,-5.1032 0,-2.9996 1.84375,-5.0642 1.87856,-2.1036 4.55722,-2.1036 2.67865,0 4.55721,2.1036 1.87856,2.0646 1.87856,5.0642 z m -0.73057,50.05782 h -11.41048 v -36.15072 h 11.41048 z"/>
      <path inkscape:connector-curvature="0" id="path1963-3-1-2-8-3-6-3-3-3-4-7-6-0-8" style="font-style:normal;font-variant:normal;font-weight:bold;font-stretch:normal;font-size:120.99466705px;line-height:1.25;font-family:Aharoni;-inkscape-font-specification:'Aharoni, Bold';font-variant-ligatures:normal;font-variant-caps:normal;font-variant-numeric:normal;font-feature-settings:normal;text-align:start;letter-spacing:0px;word-spacing:0px;writing-mode:lr-tb;text-anchor:start;fill:#000000;fill-opacity:1;stroke:none;stroke-width:2.37649584" d="m 93.369625,261.92405 h -6.50536 v 25.63272 h -11.4104 v -25.63272 h -3.75712 v -10.518 h 3.75712 v -10.8686 h 11.4104 v 10.8686 h 6.50536 z"/>
      <path id="path1967-3-3-6-2-9-6-2-5-3-0-9-8-2-1" style="font-style:normal;font-variant:normal;font-weight:bold;font-stretch:normal;font-size:120.99466705px;line-height:1.25;font-family:Aharoni;-inkscape-font-specification:'Aharoni, Bold';font-variant-ligatures:normal;font-variant-caps:normal;font-variant-numeric:normal;font-feature-settings:normal;text-align:start;letter-spacing:0px;word-spacing:0px;writing-mode:lr-tb;text-anchor:start;fill:#000000;fill-opacity:1;stroke:none;stroke-width:2.37649584" d="m 160.61447,287.55677 h -12.34971 v -53.17432 h 12.34971 z" inkscape:connector-curvature="0"/>
      <path inkscape:connector-curvature="0" id="path1969-8-0-8-5-3-5-6-6-3-9-8-6-2-0" style="font-style:normal;font-variant:normal;font-weight:bold;font-stretch:normal;font-size:120.99466705px;line-height:1.25;font-family:Aharoni;-inkscape-font-specification:'Aharoni, Bold';font-variant-ligatures:normal;font-variant-caps:normal;font-variant-numeric:normal;font-feature-settings:normal;text-align:start;letter-spacing:0px;word-spacing:0px;writing-mode:lr-tb;text-anchor:start;fill:#000000;fill-opacity:1;stroke:none;stroke-width:2.37649584" d="m 201.6896,284.86883 q -6.05314,2.68794 -11.20172,2.68794 -8.97528,0 -16.07201,-6.42764 -9.04489,-8.21959 -9.04489,-21.42558 0,-13.2448 9.04489,-21.4644 7.09673,-6.4277 16.17636,-6.4277 4.93989,0 11.09737,2.6879 v 16.5561 q -1.73941,-2.3763 -3.54836,-3.5839 -3.30489,-2.2204 -7.09679,-2.2204 -4.8007,0 -8.34907,3.2333 -4.48766,4.0903 -4.48766,11.2191 0,7.0899 4.48766,11.1803 3.54837,3.23328 8.34907,3.23328 3.7919,0 7.09679,-2.22049 1.77415,-1.16869 3.54836,-3.58389 z"/>
      <path inkscape:transform-center-y="-13.656107" inkscape:transform-center-x="-3.9758045" sodipodi:nodetypes="csssssc" inkscape:connector-curvature="0" id="rect815-3-0-9-3-5-6-0-4-03-7-3-7-5-3-2-76-3-8-8-5-3-7-8-0-1-3-7-9-2-8-1" d="m 104.61223,181.4353 c 0,0 17.68257,27.27493 22.63096,34.41579 7.92879,11.44185 16.42741,30.36094 17.92806,45.50275 1.21005,12.20999 -1.38345,26.51285 -17.32077,30.11208 -11.70405,2.64313 -26.75007,-5.41371 -30.334975,-20.50903 -3.30533,-13.91816 -2.13088,-34.61412 0.0984,-48.67354 1.22049,-7.69719 5.657305,-36.06774 6.998335,-40.84805 z" style="font-style:normal;font-weight:normal;font-size:242.08590698px;line-height:1.25;font-family:sans-serif;letter-spacing:0px;word-spacing:0px;opacity:1;fill:#00456b;fill-opacity:1;stroke:none;stroke-width:0.6720385;stroke-miterlimit:4;stroke-dasharray:none;stroke-dashoffset:0;stroke-opacity:1;paint-order:markers fill stroke"/>
      <path sodipodi:nodetypes="ccscscsccscccscc" d="m 107.52748,246.32531 6.45576,30.78617 6.82019,-1.47997 c 5.75791,-1.24946 9.70999,-3.40081 11.85576,-6.45394 2.16431,-3.05721 2.68673,-7.25521 1.56721,-12.59398 -1.11209,-5.30332 -3.26743,-8.89247 -6.46601,-10.76744 -3.18372,-1.89669 -7.65528,-2.22015 -13.4127,-0.97081 z m -8.759905,-5.09591 12.713095,-2.78742 c 8.8634,-1.94336 15.73718,-1.59097 20.62135,1.05715 4.88003,2.62843 8.10326,7.71587 9.6697,15.26232 1.57464,7.58584 0.64804,13.61405 -2.77981,18.08462 -3.42783,4.4705 -9.55303,7.67294 -18.37559,9.60735 l -12.71311,2.78742 z" style="font-style:normal;font-weight:normal;font-size:242.08590698px;line-height:1.25;font-family:sans-serif;letter-spacing:0px;word-spacing:0px;fill:#ffffff;fill-opacity:1;stroke:none;stroke-width:1.60286868" id="path1193-3-5-3-2-7-4-5-6-0-0-6-9-2-4-7-0-0" inkscape:connector-curvature="0"/>
    </g>
  </g>
</g>
    </g>
  </g>
</svg>
