<?xml version='1.0' encoding='ASCII' standalone='yes'?>
<svg xmlns:xlink="http://www.w3.org/1999/xlink" xmlns="http://www.w3.org/2000/svg" version="1.1" width="460.8px" viewBox="0 0 460.8px 345.6px" height="345.6px">
  <g>
    <g><defs>
  <style type="text/css">
*{stroke-linecap:butt;stroke-linejoin:round;}
  </style>
 </defs>
 <g id="figure_1">
  <g id="patch_1">
   <path d="M 0 345.6  L 460.8 345.6  L 460.8 0  L 0 0  z " style="fill:#ffffff;"/>
  </g>
  <g id="axes_1">
   <g id="patch_2">
    <path d="M 62.12 300.76  L 437.355 300.76  L 437.355 13.32  L 62.12 13.32  z " style="fill:#ffffff;"/>
   </g>
   <g id="matplotlib.axis_1">
    <g id="xtick_1">
     <g id="line2d_1">
      <defs>
       <path d="M 0 0  L 0 3.5  " id="m25aeff96f3" style="stroke:#000000;stroke-width:0.8;"/>
      </defs>
      <g>
       <use style="stroke:#000000;stroke-width:0.8;" x="62.12" xlink:href="#m25aeff96f3" y="300.76"/>
      </g>
     </g>
     <g id="text_1">
      <!-- 0 -->
      <defs>
       <path d="M 31.78125 66.40625  Q 24.171875 66.40625 20.328125 58.90625  Q 16.5 51.421875 16.5 36.375  Q 16.5 21.390625 20.328125 13.890625  Q 24.171875 6.390625 31.78125 6.390625  Q 39.453125 6.390625 43.28125 13.890625  Q 47.125 21.390625 47.125 36.375  Q 47.125 51.421875 43.28125 58.90625  Q 39.453125 66.40625 31.78125 66.40625  z M 31.78125 74.21875  Q 44.046875 74.21875 50.515625 64.515625  Q 56.984375 54.828125 56.984375 36.375  Q 56.984375 17.96875 50.515625 8.265625  Q 44.046875 -1.421875 31.78125 -1.421875  Q 19.53125 -1.421875 13.0625 8.265625  Q 6.59375 17.96875 6.59375 36.375  Q 6.59375 54.828125 13.0625 64.515625  Q 19.53125 74.21875 31.78125 74.21875  z " id="DejaVuSans-30"/>
      </defs>
      <g transform="translate(58.93875 315.358437)scale(0.1 -0.1)">
       <use xlink:href="#DejaVuSans-30"/>
      </g>
     </g>
    </g>
    <g id="xtick_2">
     <g id="line2d_2">
      <g>
       <use style="stroke:#000000;stroke-width:0.8;" x="124.659167" xlink:href="#m25aeff96f3" y="300.76"/>
      </g>
     </g>
     <g id="text_2">
      <!-- 200 -->
      <defs>
       <path d="M 19.1875 8.296875  L 53.609375 8.296875  L 53.609375 0  L 7.328125 0  L 7.328125 8.296875  Q 12.9375 14.109375 22.625 23.890625  Q 32.328125 33.6875 34.8125 36.53125  Q 39.546875 41.84375 41.421875 45.53125  Q 43.3125 49.21875 43.3125 52.78125  Q 43.3125 58.59375 39.234375 62.25  Q 35.15625 65.921875 28.609375 65.921875  Q 23.96875 65.921875 18.8125 64.3125  Q 13.671875 62.703125 7.8125 59.421875  L 7.8125 69.390625  Q 13.765625 71.78125 18.9375 73  Q 24.125 74.21875 28.421875 74.21875  Q 39.75 74.21875 46.484375 68.546875  Q 53.21875 62.890625 53.21875 53.421875  Q 53.21875 48.921875 51.53125 44.890625  Q 49.859375 40.875 45.40625 35.40625  Q 44.1875 33.984375 37.640625 27.21875  Q 31.109375 20.453125 19.1875 8.296875  z " id="DejaVuSans-32"/>
      </defs>
      <g transform="translate(115.115417 315.358437)scale(0.1 -0.1)">
       <use xlink:href="#DejaVuSans-32"/>
       <use x="63.623047" xlink:href="#DejaVuSans-30"/>
       <use x="127.246094" xlink:href="#DejaVuSans-30"/>
      </g>
     </g>
    </g>
    <g id="xtick_3">
     <g id="line2d_3">
      <g>
       <use style="stroke:#000000;stroke-width:0.8;" x="187.198333" xlink:href="#m25aeff96f3" y="300.76"/>
      </g>
     </g>
     <g id="text_3">
      <!-- 400 -->
      <defs>
       <path d="M 37.796875 64.3125  L 12.890625 25.390625  L 37.796875 25.390625  z M 35.203125 72.90625  L 47.609375 72.90625  L 47.609375 25.390625  L 58.015625 25.390625  L 58.015625 17.1875  L 47.609375 17.1875  L 47.609375 0  L 37.796875 0  L 37.796875 17.1875  L 4.890625 17.1875  L 4.890625 26.703125  z " id="DejaVuSans-34"/>
      </defs>
      <g transform="translate(177.654583 315.358437)scale(0.1 -0.1)">
       <use xlink:href="#DejaVuSans-34"/>
       <use x="63.623047" xlink:href="#DejaVuSans-30"/>
       <use x="127.246094" xlink:href="#DejaVuSans-30"/>
      </g>
     </g>
    </g>
    <g id="xtick_4">
     <g id="line2d_4">
      <g>
       <use style="stroke:#000000;stroke-width:0.8;" x="249.7375" xlink:href="#m25aeff96f3" y="300.76"/>
      </g>
     </g>
     <g id="text_4">
      <!-- 600 -->
      <defs>
       <path d="M 33.015625 40.375  Q 26.375 40.375 22.484375 35.828125  Q 18.609375 31.296875 18.609375 23.390625  Q 18.609375 15.53125 22.484375 10.953125  Q 26.375 6.390625 33.015625 6.390625  Q 39.65625 6.390625 43.53125 10.953125  Q 47.40625 15.53125 47.40625 23.390625  Q 47.40625 31.296875 43.53125 35.828125  Q 39.65625 40.375 33.015625 40.375  z M 52.59375 71.296875  L 52.59375 62.3125  Q 48.875 64.0625 45.09375 64.984375  Q 41.3125 65.921875 37.59375 65.921875  Q 27.828125 65.921875 22.671875 59.328125  Q 17.53125 52.734375 16.796875 39.40625  Q 19.671875 43.65625 24.015625 45.921875  Q 28.375 48.1875 33.59375 48.1875  Q 44.578125 48.1875 50.953125 41.515625  Q 57.328125 34.859375 57.328125 23.390625  Q 57.328125 12.15625 50.6875 5.359375  Q 44.046875 -1.421875 33.015625 -1.421875  Q 20.359375 -1.421875 13.671875 8.265625  Q 6.984375 17.96875 6.984375 36.375  Q 6.984375 53.65625 15.1875 63.9375  Q 23.390625 74.21875 37.203125 74.21875  Q 40.921875 74.21875 44.703125 73.484375  Q 48.484375 72.75 52.59375 71.296875  z " id="DejaVuSans-36"/>
      </defs>
      <g transform="translate(240.19375 315.358437)scale(0.1 -0.1)">
       <use xlink:href="#DejaVuSans-36"/>
       <use x="63.623047" xlink:href="#DejaVuSans-30"/>
       <use x="127.246094" xlink:href="#DejaVuSans-30"/>
      </g>
     </g>
    </g>
    <g id="xtick_5">
     <g id="line2d_5">
      <g>
       <use style="stroke:#000000;stroke-width:0.8;" x="312.276667" xlink:href="#m25aeff96f3" y="300.76"/>
      </g>
     </g>
     <g id="text_5">
      <!-- 800 -->
      <defs>
       <path d="M 31.78125 34.625  Q 24.75 34.625 20.71875 30.859375  Q 16.703125 27.09375 16.703125 20.515625  Q 16.703125 13.921875 20.71875 10.15625  Q 24.75 6.390625 31.78125 6.390625  Q 38.8125 6.390625 42.859375 10.171875  Q 46.921875 13.96875 46.921875 20.515625  Q 46.921875 27.09375 42.890625 30.859375  Q 38.875 34.625 31.78125 34.625  z M 21.921875 38.8125  Q 15.578125 40.375 12.03125 44.71875  Q 8.5 49.078125 8.5 55.328125  Q 8.5 64.0625 14.71875 69.140625  Q 20.953125 74.21875 31.78125 74.21875  Q 42.671875 74.21875 48.875 69.140625  Q 55.078125 64.0625 55.078125 55.328125  Q 55.078125 49.078125 51.53125 44.71875  Q 48 40.375 41.703125 38.8125  Q 48.828125 37.15625 52.796875 32.3125  Q 56.78125 27.484375 56.78125 20.515625  Q 56.78125 9.90625 50.3125 4.234375  Q 43.84375 -1.421875 31.78125 -1.421875  Q 19.734375 -1.421875 13.25 4.234375  Q 6.78125 9.90625 6.78125 20.515625  Q 6.78125 27.484375 10.78125 32.3125  Q 14.796875 37.15625 21.921875 38.8125  z M 18.3125 54.390625  Q 18.3125 48.734375 21.84375 45.5625  Q 25.390625 42.390625 31.78125 42.390625  Q 38.140625 42.390625 41.71875 45.5625  Q 45.3125 48.734375 45.3125 54.390625  Q 45.3125 60.0625 41.71875 63.234375  Q 38.140625 66.40625 31.78125 66.40625  Q 25.390625 66.40625 21.84375 63.234375  Q 18.3125 60.0625 18.3125 54.390625  z " id="DejaVuSans-38"/>
      </defs>
      <g transform="translate(302.732917 315.358437)scale(0.1 -0.1)">
       <use xlink:href="#DejaVuSans-38"/>
       <use x="63.623047" xlink:href="#DejaVuSans-30"/>
       <use x="127.246094" xlink:href="#DejaVuSans-30"/>
      </g>
     </g>
    </g>
    <g id="xtick_6">
     <g id="line2d_6">
      <g>
       <use style="stroke:#000000;stroke-width:0.8;" x="374.815833" xlink:href="#m25aeff96f3" y="300.76"/>
      </g>
     </g>
     <g id="text_6">
      <!-- 1000 -->
      <defs>
       <path d="M 12.40625 8.296875  L 28.515625 8.296875  L 28.515625 63.921875  L 10.984375 60.40625  L 10.984375 69.390625  L 28.421875 72.90625  L 38.28125 72.90625  L 38.28125 8.296875  L 54.390625 8.296875  L 54.390625 0  L 12.40625 0  z " id="DejaVuSans-31"/>
      </defs>
      <g transform="translate(362.090833 315.358437)scale(0.1 -0.1)">
       <use xlink:href="#DejaVuSans-31"/>
       <use x="63.623047" xlink:href="#DejaVuSans-30"/>
       <use x="127.246094" xlink:href="#DejaVuSans-30"/>
       <use x="190.869141" xlink:href="#DejaVuSans-30"/>
      </g>
     </g>
    </g>
    <g id="xtick_7">
     <g id="line2d_7">
      <g>
       <use style="stroke:#000000;stroke-width:0.8;" x="437.355" xlink:href="#m25aeff96f3" y="300.76"/>
      </g>
     </g>
     <g id="text_7">
      <!-- 1200 -->
      <g transform="translate(424.63 315.358437)scale(0.1 -0.1)">
       <use xlink:href="#DejaVuSans-31"/>
       <use x="63.623047" xlink:href="#DejaVuSans-32"/>
       <use x="127.246094" xlink:href="#DejaVuSans-30"/>
       <use x="190.869141" xlink:href="#DejaVuSans-30"/>
      </g>
     </g>
    </g>
    <g id="text_8">
     <!-- Distance ($\mu$m) -->
     <defs>
      <path d="M 19.671875 64.796875  L 19.671875 8.109375  L 31.59375 8.109375  Q 46.6875 8.109375 53.6875 14.9375  Q 60.6875 21.78125 60.6875 36.53125  Q 60.6875 51.171875 53.6875 57.984375  Q 46.6875 64.796875 31.59375 64.796875  z M 9.8125 72.90625  L 30.078125 72.90625  Q 51.265625 72.90625 61.171875 64.09375  Q 71.09375 55.28125 71.09375 36.53125  Q 71.09375 17.671875 61.125 8.828125  Q 51.171875 0 30.078125 0  L 9.8125 0  z " id="DejaVuSans-44"/>
      <path d="M 9.421875 54.6875  L 18.40625 54.6875  L 18.40625 0  L 9.421875 0  z M 9.421875 75.984375  L 18.40625 75.984375  L 18.40625 64.59375  L 9.421875 64.59375  z " id="DejaVuSans-69"/>
      <path d="M 44.28125 53.078125  L 44.28125 44.578125  Q 40.484375 46.53125 36.375 47.5  Q 32.28125 48.484375 27.875 48.484375  Q 21.1875 48.484375 17.84375 46.4375  Q 14.5 44.390625 14.5 40.28125  Q 14.5 37.15625 16.890625 35.375  Q 19.28125 33.59375 26.515625 31.984375  L 29.59375 31.296875  Q 39.15625 29.25 43.1875 25.515625  Q 47.21875 21.78125 47.21875 15.09375  Q 47.21875 7.46875 41.1875 3.015625  Q 35.15625 -1.421875 24.609375 -1.421875  Q 20.21875 -1.421875 15.453125 -0.5625  Q 10.6875 0.296875 5.421875 2  L 5.421875 11.28125  Q 10.40625 8.6875 15.234375 7.390625  Q 20.0625 6.109375 24.8125 6.109375  Q 31.15625 6.109375 34.5625 8.28125  Q 37.984375 10.453125 37.984375 14.40625  Q 37.984375 18.0625 35.515625 20.015625  Q 33.0625 21.96875 24.703125 23.78125  L 21.578125 24.515625  Q 13.234375 26.265625 9.515625 29.90625  Q 5.8125 33.546875 5.8125 39.890625  Q 5.8125 47.609375 11.28125 51.796875  Q 16.75 56 26.8125 56  Q 31.78125 56 36.171875 55.265625  Q 40.578125 54.546875 44.28125 53.078125  z " id="DejaVuSans-73"/>
      <path d="M 18.3125 70.21875  L 18.3125 54.6875  L 36.8125 54.6875  L 36.8125 47.703125  L 18.3125 47.703125  L 18.3125 18.015625  Q 18.3125 11.328125 20.140625 9.421875  Q 21.96875 7.515625 27.59375 7.515625  L 36.8125 7.515625  L 36.8125 0  L 27.59375 0  Q 17.1875 0 13.234375 3.875  Q 9.28125 7.765625 9.28125 18.015625  L 9.28125 47.703125  L 2.6875 47.703125  L 2.6875 54.6875  L 9.28125 54.6875  L 9.28125 70.21875  z " id="DejaVuSans-74"/>
      <path d="M 34.28125 27.484375  Q 23.390625 27.484375 19.1875 25  Q 14.984375 22.515625 14.984375 16.5  Q 14.984375 11.71875 18.140625 8.90625  Q 21.296875 6.109375 26.703125 6.109375  Q 34.1875 6.109375 38.703125 11.40625  Q 43.21875 16.703125 43.21875 25.484375  L 43.21875 27.484375  z M 52.203125 31.203125  L 52.203125 0  L 43.21875 0  L 43.21875 8.296875  Q 40.140625 3.328125 35.546875 0.953125  Q 30.953125 -1.421875 24.3125 -1.421875  Q 15.921875 -1.421875 10.953125 3.296875  Q 6 8.015625 6 15.921875  Q 6 25.140625 12.171875 29.828125  Q 18.359375 34.515625 30.609375 34.515625  L 43.21875 34.515625  L 43.21875 35.40625  Q 43.21875 41.609375 39.140625 45  Q 35.0625 48.390625 27.6875 48.390625  Q 23 48.390625 18.546875 47.265625  Q 14.109375 46.140625 10.015625 43.890625  L 10.015625 52.203125  Q 14.9375 54.109375 19.578125 55.046875  Q 24.21875 56 28.609375 56  Q 40.484375 56 46.34375 49.84375  Q 52.203125 43.703125 52.203125 31.203125  z " id="DejaVuSans-61"/>
      <path d="M 54.890625 33.015625  L 54.890625 0  L 45.90625 0  L 45.90625 32.71875  Q 45.90625 40.484375 42.875 44.328125  Q 39.84375 48.1875 33.796875 48.1875  Q 26.515625 48.1875 22.3125 43.546875  Q 18.109375 38.921875 18.109375 30.90625  L 18.109375 0  L 9.078125 0  L 9.078125 54.6875  L 18.109375 54.6875  L 18.109375 46.1875  Q 21.34375 51.125 25.703125 53.5625  Q 30.078125 56 35.796875 56  Q 45.21875 56 50.046875 50.171875  Q 54.890625 44.34375 54.890625 33.015625  z " id="DejaVuSans-6e"/>
      <path d="M 48.78125 52.59375  L 48.78125 44.1875  Q 44.96875 46.296875 41.140625 47.34375  Q 37.3125 48.390625 33.40625 48.390625  Q 24.65625 48.390625 19.8125 42.84375  Q 14.984375 37.3125 14.984375 27.296875  Q 14.984375 17.28125 19.8125 11.734375  Q 24.65625 6.203125 33.40625 6.203125  Q 37.3125 6.203125 41.140625 7.25  Q 44.96875 8.296875 48.78125 10.40625  L 48.78125 2.09375  Q 45.015625 0.34375 40.984375 -0.53125  Q 36.96875 -1.421875 32.421875 -1.421875  Q 20.0625 -1.421875 12.78125 6.34375  Q 5.515625 14.109375 5.515625 27.296875  Q 5.515625 40.671875 12.859375 48.328125  Q 20.21875 56 33.015625 56  Q 37.15625 56 41.109375 55.140625  Q 45.0625 54.296875 48.78125 52.59375  z " id="DejaVuSans-63"/>
      <path d="M 56.203125 29.59375  L 56.203125 25.203125  L 14.890625 25.203125  Q 15.484375 15.921875 20.484375 11.0625  Q 25.484375 6.203125 34.421875 6.203125  Q 39.59375 6.203125 44.453125 7.46875  Q 49.3125 8.734375 54.109375 11.28125  L 54.109375 2.78125  Q 49.265625 0.734375 44.1875 -0.34375  Q 39.109375 -1.421875 33.890625 -1.421875  Q 20.796875 -1.421875 13.15625 6.1875  Q 5.515625 13.8125 5.515625 26.8125  Q 5.515625 40.234375 12.765625 48.109375  Q 20.015625 56 32.328125 56  Q 43.359375 56 49.78125 48.890625  Q 56.203125 41.796875 56.203125 29.59375  z M 47.21875 32.234375  Q 47.125 39.59375 43.09375 43.984375  Q 39.0625 48.390625 32.421875 48.390625  Q 24.90625 48.390625 20.390625 44.140625  Q 15.875 39.890625 15.1875 32.171875  z " id="DejaVuSans-65"/>
      <path id="DejaVuSans-20"/>
      <path d="M 31 75.875  Q 24.46875 64.65625 21.28125 53.65625  Q 18.109375 42.671875 18.109375 31.390625  Q 18.109375 20.125 21.3125 9.0625  Q 24.515625 -2 31 -13.1875  L 23.1875 -13.1875  Q 15.875 -1.703125 12.234375 9.375  Q 8.59375 20.453125 8.59375 31.390625  Q 8.59375 42.28125 12.203125 53.3125  Q 15.828125 64.359375 23.1875 75.875  z " id="DejaVuSans-28"/>
      <path d="M -1.3125 -20.796875  L 13.375 54.6875  L 22.40625 54.6875  L 15.765625 20.65625  Q 15.578125 19.625 15.421875 18.359375  Q 15.28125 17.09375 15.28125 15.828125  Q 15.28125 11.28125 18.140625 8.828125  Q 21 6.390625 26.3125 6.390625  Q 33.546875 6.390625 37.984375 10.484375  Q 42.4375 14.59375 44 22.796875  L 50.203125 54.6875  L 59.1875 54.6875  L 51.03125 12.640625  Q 50.828125 11.71875 50.75 11.03125  Q 50.6875 10.359375 50.6875 9.8125  Q 50.6875 8.296875 51.296875 7.59375  Q 51.90625 6.890625 53.21875 6.890625  Q 53.71875 6.890625 54.5625 7.125  Q 55.421875 7.375 56.984375 8.015625  L 55.609375 0.78125  Q 53.46875 -0.296875 51.515625 -0.859375  Q 49.5625 -1.421875 47.703125 -1.421875  Q 44.484375 -1.421875 42.65625 0.625  Q 40.828125 2.6875 40.828125 6.296875  Q 38.09375 2.390625 34.296875 0.484375  Q 30.515625 -1.421875 25.390625 -1.421875  Q 20.84375 -1.421875 17.453125 0.671875  Q 14.0625 2.78125 12.984375 6.203125  L 7.71875 -20.796875  z " id="DejaVuSans-Oblique-3bc"/>
      <path d="M 52 44.1875  Q 55.375 50.25 60.0625 53.125  Q 64.75 56 71.09375 56  Q 79.640625 56 84.28125 50.015625  Q 88.921875 44.046875 88.921875 33.015625  L 88.921875 0  L 79.890625 0  L 79.890625 32.71875  Q 79.890625 40.578125 77.09375 44.375  Q 74.3125 48.1875 68.609375 48.1875  Q 61.625 48.1875 57.5625 43.546875  Q 53.515625 38.921875 53.515625 30.90625  L 53.515625 0  L 44.484375 0  L 44.484375 32.71875  Q 44.484375 40.625 41.703125 44.40625  Q 38.921875 48.1875 33.109375 48.1875  Q 26.21875 48.1875 22.15625 43.53125  Q 18.109375 38.875 18.109375 30.90625  L 18.109375 0  L 9.078125 0  L 9.078125 54.6875  L 18.109375 54.6875  L 18.109375 46.1875  Q 21.1875 51.21875 25.484375 53.609375  Q 29.78125 56 35.6875 56  Q 41.65625 56 45.828125 52.96875  Q 50 49.953125 52 44.1875  z " id="DejaVuSans-6d"/>
      <path d="M 8.015625 75.875  L 15.828125 75.875  Q 23.140625 64.359375 26.78125 53.3125  Q 30.421875 42.28125 30.421875 31.390625  Q 30.421875 20.453125 26.78125 9.375  Q 23.140625 -1.703125 15.828125 -13.1875  L 8.015625 -13.1875  Q 14.5 -2 17.703125 9.0625  Q 20.90625 20.125 20.90625 31.390625  Q 20.90625 42.671875 17.703125 53.65625  Q 14.5 64.65625 8.015625 75.875  z " id="DejaVuSans-29"/>
     </defs>
     <g transform="translate(214.2875 329.038125)scale(0.1 -0.1)">
      <use transform="translate(0 0.015625)" xlink:href="#DejaVuSans-44"/>
      <use transform="translate(77.001953 0.015625)" xlink:href="#DejaVuSans-69"/>
      <use transform="translate(104.785156 0.015625)" xlink:href="#DejaVuSans-73"/>
      <use transform="translate(156.884766 0.015625)" xlink:href="#DejaVuSans-74"/>
      <use transform="translate(196.09375 0.015625)" xlink:href="#DejaVuSans-61"/>
      <use transform="translate(257.373047 0.015625)" xlink:href="#DejaVuSans-6e"/>
      <use transform="translate(320.751953 0.015625)" xlink:href="#DejaVuSans-63"/>
      <use transform="translate(375.732422 0.015625)" xlink:href="#DejaVuSans-65"/>
      <use transform="translate(437.255859 0.015625)" xlink:href="#DejaVuSans-20"/>
      <use transform="translate(469.042969 0.015625)" xlink:href="#DejaVuSans-28"/>
      <use transform="translate(508.056641 0.015625)" xlink:href="#DejaVuSans-Oblique-3bc"/>
      <use transform="translate(571.679688 0.015625)" xlink:href="#DejaVuSans-6d"/>
      <use transform="translate(669.091797 0.015625)" xlink:href="#DejaVuSans-29"/>
     </g>
    </g>
   </g>
   <g id="matplotlib.axis_2">
    <g id="ytick_1">
     <g id="line2d_8">
      <defs>
       <path d="M 0 0  L -3.5 0  " id="me136e0c842" style="stroke:#000000;stroke-width:0.8;"/>
      </defs>
      <g>
       <use style="stroke:#000000;stroke-width:0.8;" x="62.12" xlink:href="#me136e0c842" y="284.86476"/>
      </g>
     </g>
     <g id="text_9">
      <!-- &#8722;100 -->
      <defs>
       <path d="M 10.59375 35.5  L 73.1875 35.5  L 73.1875 27.203125  L 10.59375 27.203125  z " id="DejaVuSans-2212"/>
      </defs>
      <g transform="translate(27.652813 288.663979)scale(0.1 -0.1)">
       <use xlink:href="#DejaVuSans-2212"/>
       <use x="83.789062" xlink:href="#DejaVuSans-31"/>
       <use x="147.412109" xlink:href="#DejaVuSans-30"/>
       <use x="211.035156" xlink:href="#DejaVuSans-30"/>
      </g>
     </g>
    </g>
    <g id="ytick_2">
     <g id="line2d_9">
      <g>
       <use style="stroke:#000000;stroke-width:0.8;" x="62.12" xlink:href="#me136e0c842" y="250.804081"/>
      </g>
     </g>
     <g id="text_10">
      <!-- &#8722;75 -->
      <defs>
       <path d="M 8.203125 72.90625  L 55.078125 72.90625  L 55.078125 68.703125  L 28.609375 0  L 18.3125 0  L 43.21875 64.59375  L 8.203125 64.59375  z " id="DejaVuSans-37"/>
       <path d="M 10.796875 72.90625  L 49.515625 72.90625  L 49.515625 64.59375  L 19.828125 64.59375  L 19.828125 46.734375  Q 21.96875 47.46875 24.109375 47.828125  Q 26.265625 48.1875 28.421875 48.1875  Q 40.625 48.1875 47.75 41.5  Q 54.890625 34.8125 54.890625 23.390625  Q 54.890625 11.625 47.5625 5.09375  Q 40.234375 -1.421875 26.90625 -1.421875  Q 22.3125 -1.421875 17.546875 -0.640625  Q 12.796875 0.140625 7.71875 1.703125  L 7.71875 11.625  Q 12.109375 9.234375 16.796875 8.0625  Q 21.484375 6.890625 26.703125 6.890625  Q 35.15625 6.890625 40.078125 11.328125  Q 45.015625 15.765625 45.015625 23.390625  Q 45.015625 31 40.078125 35.4375  Q 35.15625 39.890625 26.703125 39.890625  Q 22.75 39.890625 18.8125 39.015625  Q 14.890625 38.140625 10.796875 36.28125  z " id="DejaVuSans-35"/>
      </defs>
      <g transform="translate(34.015313 254.6033)scale(0.1 -0.1)">
       <use xlink:href="#DejaVuSans-2212"/>
       <use x="83.789062" xlink:href="#DejaVuSans-37"/>
       <use x="147.412109" xlink:href="#DejaVuSans-35"/>
      </g>
     </g>
    </g>
    <g id="ytick_3">
     <g id="line2d_10">
      <g>
       <use style="stroke:#000000;stroke-width:0.8;" x="62.12" xlink:href="#me136e0c842" y="216.743401"/>
      </g>
     </g>
     <g id="text_11">
      <!-- &#8722;50 -->
      <g transform="translate(34.015313 220.54262)scale(0.1 -0.1)">
       <use xlink:href="#DejaVuSans-2212"/>
       <use x="83.789062" xlink:href="#DejaVuSans-35"/>
       <use x="147.412109" xlink:href="#DejaVuSans-30"/>
      </g>
     </g>
    </g>
    <g id="ytick_4">
     <g id="line2d_11">
      <g>
       <use style="stroke:#000000;stroke-width:0.8;" x="62.12" xlink:href="#me136e0c842" y="182.682722"/>
      </g>
     </g>
     <g id="text_12">
      <!-- &#8722;25 -->
      <g transform="translate(34.015313 186.48194)scale(0.1 -0.1)">
       <use xlink:href="#DejaVuSans-2212"/>
       <use x="83.789062" xlink:href="#DejaVuSans-32"/>
       <use x="147.412109" xlink:href="#DejaVuSans-35"/>
      </g>
     </g>
    </g>
    <g id="ytick_5">
     <g id="line2d_12">
      <g>
       <use style="stroke:#000000;stroke-width:0.8;" x="62.12" xlink:href="#me136e0c842" y="148.622042"/>
      </g>
     </g>
     <g id="text_13">
      <!-- 0 -->
      <g transform="translate(48.7575 152.421261)scale(0.1 -0.1)">
       <use xlink:href="#DejaVuSans-30"/>
      </g>
     </g>
    </g>
    <g id="ytick_6">
     <g id="line2d_13">
      <g>
       <use style="stroke:#000000;stroke-width:0.8;" x="62.12" xlink:href="#me136e0c842" y="114.561362"/>
      </g>
     </g>
     <g id="text_14">
      <!-- 25 -->
      <g transform="translate(42.395 118.360581)scale(0.1 -0.1)">
       <use xlink:href="#DejaVuSans-32"/>
       <use x="63.623047" xlink:href="#DejaVuSans-35"/>
      </g>
     </g>
    </g>
    <g id="ytick_7">
     <g id="line2d_14">
      <g>
       <use style="stroke:#000000;stroke-width:0.8;" x="62.12" xlink:href="#me136e0c842" y="80.500683"/>
      </g>
     </g>
     <g id="text_15">
      <!-- 50 -->
      <g transform="translate(42.395 84.299902)scale(0.1 -0.1)">
       <use xlink:href="#DejaVuSans-35"/>
       <use x="63.623047" xlink:href="#DejaVuSans-30"/>
      </g>
     </g>
    </g>
    <g id="ytick_8">
     <g id="line2d_15">
      <g>
       <use style="stroke:#000000;stroke-width:0.8;" x="62.12" xlink:href="#me136e0c842" y="46.440003"/>
      </g>
     </g>
     <g id="text_16">
      <!-- 75 -->
      <g transform="translate(42.395 50.239222)scale(0.1 -0.1)">
       <use xlink:href="#DejaVuSans-37"/>
       <use x="63.623047" xlink:href="#DejaVuSans-35"/>
      </g>
     </g>
    </g>
    <g id="text_17">
     <!-- Slope, at. / $\mu m$ -->
     <defs>
      <path d="M 53.515625 70.515625  L 53.515625 60.890625  Q 47.90625 63.578125 42.921875 64.890625  Q 37.9375 66.21875 33.296875 66.21875  Q 25.25 66.21875 20.875 63.09375  Q 16.5 59.96875 16.5 54.203125  Q 16.5 49.359375 19.40625 46.890625  Q 22.3125 44.4375 30.421875 42.921875  L 36.375 41.703125  Q 47.40625 39.59375 52.65625 34.296875  Q 57.90625 29 57.90625 20.125  Q 57.90625 9.515625 50.796875 4.046875  Q 43.703125 -1.421875 29.984375 -1.421875  Q 24.8125 -1.421875 18.96875 -0.25  Q 13.140625 0.921875 6.890625 3.21875  L 6.890625 13.375  Q 12.890625 10.015625 18.65625 8.296875  Q 24.421875 6.59375 29.984375 6.59375  Q 38.421875 6.59375 43.015625 9.90625  Q 47.609375 13.234375 47.609375 19.390625  Q 47.609375 24.75 44.3125 27.78125  Q 41.015625 30.8125 33.5 32.328125  L 27.484375 33.5  Q 16.453125 35.6875 11.515625 40.375  Q 6.59375 45.0625 6.59375 53.421875  Q 6.59375 63.09375 13.40625 68.65625  Q 20.21875 74.21875 32.171875 74.21875  Q 37.3125 74.21875 42.625 73.28125  Q 47.953125 72.359375 53.515625 70.515625  z " id="DejaVuSans-53"/>
      <path d="M 9.421875 75.984375  L 18.40625 75.984375  L 18.40625 0  L 9.421875 0  z " id="DejaVuSans-6c"/>
      <path d="M 30.609375 48.390625  Q 23.390625 48.390625 19.1875 42.75  Q 14.984375 37.109375 14.984375 27.296875  Q 14.984375 17.484375 19.15625 11.84375  Q 23.34375 6.203125 30.609375 6.203125  Q 37.796875 6.203125 41.984375 11.859375  Q 46.1875 17.53125 46.1875 27.296875  Q 46.1875 37.015625 41.984375 42.703125  Q 37.796875 48.390625 30.609375 48.390625  z M 30.609375 56  Q 42.328125 56 49.015625 48.375  Q 55.71875 40.765625 55.71875 27.296875  Q 55.71875 13.875 49.015625 6.21875  Q 42.328125 -1.421875 30.609375 -1.421875  Q 18.84375 -1.421875 12.171875 6.21875  Q 5.515625 13.875 5.515625 27.296875  Q 5.515625 40.765625 12.171875 48.375  Q 18.84375 56 30.609375 56  z " id="DejaVuSans-6f"/>
      <path d="M 18.109375 8.203125  L 18.109375 -20.796875  L 9.078125 -20.796875  L 9.078125 54.6875  L 18.109375 54.6875  L 18.109375 46.390625  Q 20.953125 51.265625 25.265625 53.625  Q 29.59375 56 35.59375 56  Q 45.5625 56 51.78125 48.09375  Q 58.015625 40.1875 58.015625 27.296875  Q 58.015625 14.40625 51.78125 6.484375  Q 45.5625 -1.421875 35.59375 -1.421875  Q 29.59375 -1.421875 25.265625 0.953125  Q 20.953125 3.328125 18.109375 8.203125  z M 48.6875 27.296875  Q 48.6875 37.203125 44.609375 42.84375  Q 40.53125 48.484375 33.40625 48.484375  Q 26.265625 48.484375 22.1875 42.84375  Q 18.109375 37.203125 18.109375 27.296875  Q 18.109375 17.390625 22.1875 11.75  Q 26.265625 6.109375 33.40625 6.109375  Q 40.53125 6.109375 44.609375 11.75  Q 48.6875 17.390625 48.6875 27.296875  z " id="DejaVuSans-70"/>
      <path d="M 11.71875 12.40625  L 22.015625 12.40625  L 22.015625 4  L 14.015625 -11.625  L 7.71875 -11.625  L 11.71875 4  z " id="DejaVuSans-2c"/>
      <path d="M 10.6875 12.40625  L 21 12.40625  L 21 0  L 10.6875 0  z " id="DejaVuSans-2e"/>
      <path d="M 25.390625 72.90625  L 33.6875 72.90625  L 8.296875 -9.28125  L 0 -9.28125  z " id="DejaVuSans-2f"/>
      <path d="M 89.796875 33.015625  L 83.40625 0  L 74.421875 0  L 80.71875 32.71875  Q 81.109375 34.8125 81.296875 36.328125  Q 81.5 37.84375 81.5 38.921875  Q 81.5 43.3125 79.046875 45.75  Q 76.609375 48.1875 72.21875 48.1875  Q 65.671875 48.1875 60.546875 43.28125  Q 55.421875 38.375 53.90625 30.515625  L 47.90625 0  L 38.921875 0  L 45.3125 32.71875  Q 45.703125 34.515625 45.890625 36.046875  Q 46.09375 37.59375 46.09375 38.8125  Q 46.09375 43.265625 43.65625 45.71875  Q 41.21875 48.1875 36.921875 48.1875  Q 30.28125 48.1875 25.140625 43.28125  Q 20.015625 38.375 18.5 30.515625  L 12.5 0  L 3.515625 0  L 14.203125 54.6875  L 23.1875 54.6875  L 21.484375 46.1875  Q 25.140625 50.984375 30.046875 53.484375  Q 34.96875 56 40.578125 56  Q 46.53125 56 50.359375 52.875  Q 54.203125 49.75 54.984375 44.1875  Q 59.078125 49.953125 64.46875 52.96875  Q 69.875 56 75.875 56  Q 82.90625 56 86.734375 51.953125  Q 90.578125 47.90625 90.578125 40.484375  Q 90.578125 38.875 90.375 36.9375  Q 90.1875 35.015625 89.796875 33.015625  z " id="DejaVuSans-Oblique-6d"/>
     </defs>
     <g transform="translate(21.552813 193.64)rotate(-90)scale(0.1 -0.1)">
      <use transform="translate(0 0.015625)" xlink:href="#DejaVuSans-53"/>
      <use transform="translate(63.476562 0.015625)" xlink:href="#DejaVuSans-6c"/>
      <use transform="translate(91.259766 0.015625)" xlink:href="#DejaVuSans-6f"/>
      <use transform="translate(152.441406 0.015625)" xlink:href="#DejaVuSans-70"/>
      <use transform="translate(215.917969 0.015625)" xlink:href="#DejaVuSans-65"/>
      <use transform="translate(277.441406 0.015625)" xlink:href="#DejaVuSans-2c"/>
      <use transform="translate(309.228516 0.015625)" xlink:href="#DejaVuSans-20"/>
      <use transform="translate(341.015625 0.015625)" xlink:href="#DejaVuSans-61"/>
      <use transform="translate(402.294922 0.015625)" xlink:href="#DejaVuSans-74"/>
      <use transform="translate(441.503906 0.015625)" xlink:href="#DejaVuSans-2e"/>
      <use transform="translate(473.291016 0.015625)" xlink:href="#DejaVuSans-20"/>
      <use transform="translate(505.078125 0.015625)" xlink:href="#DejaVuSans-2f"/>
      <use transform="translate(538.769531 0.015625)" xlink:href="#DejaVuSans-20"/>
      <use transform="translate(570.556641 0.015625)" xlink:href="#DejaVuSans-Oblique-3bc"/>
      <use transform="translate(634.179688 0.015625)" xlink:href="#DejaVuSans-Oblique-6d"/>
     </g>
    </g>
   </g>
   <g id="line2d_16">
    <defs>
     <path d="M -0 3  L 3 -3  L -3 -3  z " id="m8dfad8457b" style="stroke:#e74c3c;stroke-linejoin:miter;"/>
    </defs>
    <g clip-path="url(#pdec2f1f679)">
     <use style="fill:#e74c3c;stroke:#e74c3c;stroke-linejoin:miter;" x="62.12" xlink:href="#m8dfad8457b" y="148.524292"/>
     <use style="fill:#e74c3c;stroke:#e74c3c;stroke-linejoin:miter;" x="69.662412" xlink:href="#m8dfad8457b" y="148.469911"/>
     <use style="fill:#e74c3c;stroke:#e74c3c;stroke-linejoin:miter;" x="77.204824" xlink:href="#m8dfad8457b" y="148.353821"/>
     <use style="fill:#e74c3c;stroke:#e74c3c;stroke-linejoin:miter;" x="84.747236" xlink:href="#m8dfad8457b" y="148.161249"/>
     <use style="fill:#e74c3c;stroke:#e74c3c;stroke-linejoin:miter;" x="92.289648" xlink:href="#m8dfad8457b" y="147.850686"/>
     <use style="fill:#e74c3c;stroke:#e74c3c;stroke-linejoin:miter;" x="99.83206" xlink:href="#m8dfad8457b" y="147.36387"/>
     <use style="fill:#e74c3c;stroke:#e74c3c;stroke-linejoin:miter;" x="107.374472" xlink:href="#m8dfad8457b" y="146.622358"/>
     <use style="fill:#e74c3c;stroke:#e74c3c;stroke-linejoin:miter;" x="114.916884" xlink:href="#m8dfad8457b" y="145.525201"/>
     <use style="fill:#e74c3c;stroke:#e74c3c;stroke-linejoin:miter;" x="122.459296" xlink:href="#m8dfad8457b" y="143.94886"/>
     <use style="fill:#e74c3c;stroke:#e74c3c;stroke-linejoin:miter;" x="130.001709" xlink:href="#m8dfad8457b" y="141.750681"/>
     <use style="fill:#e74c3c;stroke:#e74c3c;stroke-linejoin:miter;" x="137.544121" xlink:href="#m8dfad8457b" y="138.777193"/>
     <use style="fill:#e74c3c;stroke:#e74c3c;stroke-linejoin:miter;" x="145.086533" xlink:href="#m8dfad8457b" y="134.878091"/>
     <use style="fill:#e74c3c;stroke:#e74c3c;stroke-linejoin:miter;" x="152.628945" xlink:href="#m8dfad8457b" y="129.925971"/>
     <use style="fill:#e74c3c;stroke:#e74c3c;stroke-linejoin:miter;" x="160.171357" xlink:href="#m8dfad8457b" y="123.840669"/>
     <use style="fill:#e74c3c;stroke:#e74c3c;stroke-linejoin:miter;" x="167.713769" xlink:href="#m8dfad8457b" y="116.615658"/>
     <use style="fill:#e74c3c;stroke:#e74c3c;stroke-linejoin:miter;" x="175.256181" xlink:href="#m8dfad8457b" y="108.342538"/>
     <use style="fill:#e74c3c;stroke:#e74c3c;stroke-linejoin:miter;" x="182.798593" xlink:href="#m8dfad8457b" y="99.228763"/>
     <use style="fill:#e74c3c;stroke:#e74c3c;stroke-linejoin:miter;" x="190.341005" xlink:href="#m8dfad8457b" y="89.603585"/>
     <use style="fill:#e74c3c;stroke:#e74c3c;stroke-linejoin:miter;" x="197.883417" xlink:href="#m8dfad8457b" y="79.908222"/>
     <use style="fill:#e74c3c;stroke:#e74c3c;stroke-linejoin:miter;" x="205.425829" xlink:href="#m8dfad8457b" y="70.66837"/>
     <use style="fill:#e74c3c;stroke:#e74c3c;stroke-linejoin:miter;" x="212.968241" xlink:href="#m8dfad8457b" y="62.450212"/>
     <use style="fill:#e74c3c;stroke:#e74c3c;stroke-linejoin:miter;" x="220.510653" xlink:href="#m8dfad8457b" y="55.804449"/>
     <use style="fill:#e74c3c;stroke:#e74c3c;stroke-linejoin:miter;" x="228.053065" xlink:href="#m8dfad8457b" y="51.205763"/>
     <use style="fill:#e74c3c;stroke:#e74c3c;stroke-linejoin:miter;" x="235.595477" xlink:href="#m8dfad8457b" y="48.996884"/>
     <use style="fill:#e74c3c;stroke:#e74c3c;stroke-linejoin:miter;" x="243.137889" xlink:href="#m8dfad8457b" y="49.346387"/>
     <use style="fill:#e74c3c;stroke:#e74c3c;stroke-linejoin:miter;" x="250.680302" xlink:href="#m8dfad8457b" y="52.227433"/>
     <use style="fill:#e74c3c;stroke:#e74c3c;stroke-linejoin:miter;" x="258.222714" xlink:href="#m8dfad8457b" y="57.421172"/>
     <use style="fill:#e74c3c;stroke:#e74c3c;stroke-linejoin:miter;" x="265.765126" xlink:href="#m8dfad8457b" y="64.544218"/>
     <use style="fill:#e74c3c;stroke:#e74c3c;stroke-linejoin:miter;" x="273.307538" xlink:href="#m8dfad8457b" y="73.095396"/>
     <use style="fill:#e74c3c;stroke:#e74c3c;stroke-linejoin:miter;" x="280.84995" xlink:href="#m8dfad8457b" y="82.513865"/>
     <use style="fill:#e74c3c;stroke:#e74c3c;stroke-linejoin:miter;" x="288.392362" xlink:href="#m8dfad8457b" y="92.239271"/>
     <use style="fill:#e74c3c;stroke:#e74c3c;stroke-linejoin:miter;" x="295.934774" xlink:href="#m8dfad8457b" y="101.765106"/>
     <use style="fill:#e74c3c;stroke:#e74c3c;stroke-linejoin:miter;" x="303.477186" xlink:href="#m8dfad8457b" y="110.678522"/>
     <use style="fill:#e74c3c;stroke:#e74c3c;stroke-linejoin:miter;" x="311.019598" xlink:href="#m8dfad8457b" y="118.683021"/>
     <use style="fill:#e74c3c;stroke:#e74c3c;stroke-linejoin:miter;" x="318.56201" xlink:href="#m8dfad8457b" y="125.603712"/>
     <use style="fill:#e74c3c;stroke:#e74c3c;stroke-linejoin:miter;" x="326.104422" xlink:href="#m8dfad8457b" y="131.377714"/>
     <use style="fill:#e74c3c;stroke:#e74c3c;stroke-linejoin:miter;" x="333.646834" xlink:href="#m8dfad8457b" y="136.034093"/>
     <use style="fill:#e74c3c;stroke:#e74c3c;stroke-linejoin:miter;" x="341.189246" xlink:href="#m8dfad8457b" y="139.668396"/>
     <use style="fill:#e74c3c;stroke:#e74c3c;stroke-linejoin:miter;" x="348.731658" xlink:href="#m8dfad8457b" y="142.41648"/>
     <use style="fill:#e74c3c;stroke:#e74c3c;stroke-linejoin:miter;" x="356.27407" xlink:href="#m8dfad8457b" y="144.431227"/>
     <use style="fill:#e74c3c;stroke:#e74c3c;stroke-linejoin:miter;" x="363.816482" xlink:href="#m8dfad8457b" y="145.864309"/>
     <use style="fill:#e74c3c;stroke:#e74c3c;stroke-linejoin:miter;" x="371.358894" xlink:href="#m8dfad8457b" y="146.853798"/>
     <use style="fill:#e74c3c;stroke:#e74c3c;stroke-linejoin:miter;" x="378.901307" xlink:href="#m8dfad8457b" y="147.517281"/>
     <use style="fill:#e74c3c;stroke:#e74c3c;stroke-linejoin:miter;" x="386.443719" xlink:href="#m8dfad8457b" y="147.949483"/>
     <use style="fill:#e74c3c;stroke:#e74c3c;stroke-linejoin:miter;" x="393.986131" xlink:href="#m8dfad8457b" y="148.223082"/>
     <use style="fill:#e74c3c;stroke:#e74c3c;stroke-linejoin:miter;" x="401.528543" xlink:href="#m8dfad8457b" y="148.39144"/>
     <use style="fill:#e74c3c;stroke:#e74c3c;stroke-linejoin:miter;" x="409.070955" xlink:href="#m8dfad8457b" y="148.492164"/>
     <use style="fill:#e74c3c;stroke:#e74c3c;stroke-linejoin:miter;" x="416.613367" xlink:href="#m8dfad8457b" y="148.550766"/>
     <use style="fill:#e74c3c;stroke:#e74c3c;stroke-linejoin:miter;" x="424.155779" xlink:href="#m8dfad8457b" y="148.583928"/>
     <use style="fill:#e74c3c;stroke:#e74c3c;stroke-linejoin:miter;" x="431.698191" xlink:href="#m8dfad8457b" y="148.602183"/>
    </g>
   </g>
   <g id="line2d_17">
    <defs>
     <path d="M 0 -3  L -0.673542 -0.927051  L -2.85317 -0.927051  L -1.089814 0.354102  L -1.763356 2.427051  L -0 1.145898  L 1.763356 2.427051  L 1.089814 0.354102  L 2.85317 -0.927051  L 0.673542 -0.927051  z " id="mf1a5c21ffc" style="stroke:#808000;stroke-linejoin:bevel;"/>
    </defs>
    <g clip-path="url(#pdec2f1f679)">
     <use style="fill:#808000;stroke:#808000;stroke-linejoin:bevel;" x="62.12" xlink:href="#mf1a5c21ffc" y="148.624882"/>
     <use style="fill:#808000;stroke:#808000;stroke-linejoin:bevel;" x="69.662412" xlink:href="#mf1a5c21ffc" y="148.627816"/>
     <use style="fill:#808000;stroke:#808000;stroke-linejoin:bevel;" x="77.204824" xlink:href="#mf1a5c21ffc" y="148.63636"/>
     <use style="fill:#808000;stroke:#808000;stroke-linejoin:bevel;" x="84.747236" xlink:href="#mf1a5c21ffc" y="148.656045"/>
     <use style="fill:#808000;stroke:#808000;stroke-linejoin:bevel;" x="92.289648" xlink:href="#mf1a5c21ffc" y="148.699385"/>
     <use style="fill:#808000;stroke:#808000;stroke-linejoin:bevel;" x="99.83206" xlink:href="#mf1a5c21ffc" y="148.790529"/>
     <use style="fill:#808000;stroke:#808000;stroke-linejoin:bevel;" x="107.374472" xlink:href="#mf1a5c21ffc" y="148.973567"/>
     <use style="fill:#808000;stroke:#808000;stroke-linejoin:bevel;" x="114.916884" xlink:href="#mf1a5c21ffc" y="149.324455"/>
     <use style="fill:#808000;stroke:#808000;stroke-linejoin:bevel;" x="122.459296" xlink:href="#mf1a5c21ffc" y="149.966274"/>
     <use style="fill:#808000;stroke:#808000;stroke-linejoin:bevel;" x="130.001709" xlink:href="#mf1a5c21ffc" y="151.08582"/>
     <use style="fill:#808000;stroke:#808000;stroke-linejoin:bevel;" x="137.544121" xlink:href="#mf1a5c21ffc" y="152.946926"/>
     <use style="fill:#808000;stroke:#808000;stroke-linejoin:bevel;" x="145.086533" xlink:href="#mf1a5c21ffc" y="155.893022"/>
     <use style="fill:#808000;stroke:#808000;stroke-linejoin:bevel;" x="152.628945" xlink:href="#mf1a5c21ffc" y="160.329349"/>
     <use style="fill:#808000;stroke:#808000;stroke-linejoin:bevel;" x="160.171357" xlink:href="#mf1a5c21ffc" y="166.675762"/>
     <use style="fill:#808000;stroke:#808000;stroke-linejoin:bevel;" x="167.713769" xlink:href="#mf1a5c21ffc" y="175.285842"/>
     <use style="fill:#808000;stroke:#808000;stroke-linejoin:bevel;" x="175.256181" xlink:href="#mf1a5c21ffc" y="186.337817"/>
     <use style="fill:#808000;stroke:#808000;stroke-linejoin:bevel;" x="182.798593" xlink:href="#mf1a5c21ffc" y="199.716015"/>
     <use style="fill:#808000;stroke:#808000;stroke-linejoin:bevel;" x="190.341005" xlink:href="#mf1a5c21ffc" y="214.914171"/>
     <use style="fill:#808000;stroke:#808000;stroke-linejoin:bevel;" x="197.883417" xlink:href="#mf1a5c21ffc" y="230.997895"/>
     <use style="fill:#808000;stroke:#808000;stroke-linejoin:bevel;" x="205.425829" xlink:href="#mf1a5c21ffc" y="246.657581"/>
     <use style="fill:#808000;stroke:#808000;stroke-linejoin:bevel;" x="212.968241" xlink:href="#mf1a5c21ffc" y="260.363113"/>
     <use style="fill:#808000;stroke:#808000;stroke-linejoin:bevel;" x="220.510653" xlink:href="#mf1a5c21ffc" y="270.601806"/>
     <use style="fill:#808000;stroke:#808000;stroke-linejoin:bevel;" x="228.053065" xlink:href="#mf1a5c21ffc" y="276.150884"/>
     <use style="fill:#808000;stroke:#808000;stroke-linejoin:bevel;" x="235.595477" xlink:href="#mf1a5c21ffc" y="276.317285"/>
     <use style="fill:#808000;stroke:#808000;stroke-linejoin:bevel;" x="243.137889" xlink:href="#mf1a5c21ffc" y="271.07991"/>
     <use style="fill:#808000;stroke:#808000;stroke-linejoin:bevel;" x="250.680302" xlink:href="#mf1a5c21ffc" y="261.094022"/>
     <use style="fill:#808000;stroke:#808000;stroke-linejoin:bevel;" x="258.222714" xlink:href="#mf1a5c21ffc" y="247.556518"/>
     <use style="fill:#808000;stroke:#808000;stroke-linejoin:bevel;" x="265.765126" xlink:href="#mf1a5c21ffc" y="231.970322"/>
     <use style="fill:#808000;stroke:#808000;stroke-linejoin:bevel;" x="273.307538" xlink:href="#mf1a5c21ffc" y="215.871888"/>
     <use style="fill:#808000;stroke:#808000;stroke-linejoin:bevel;" x="280.84995" xlink:href="#mf1a5c21ffc" y="200.589516"/>
     <use style="fill:#808000;stroke:#808000;stroke-linejoin:bevel;" x="288.392362" xlink:href="#mf1a5c21ffc" y="187.082777"/>
     <use style="fill:#808000;stroke:#808000;stroke-linejoin:bevel;" x="295.934774" xlink:href="#mf1a5c21ffc" y="175.883507"/>
     <use style="fill:#808000;stroke:#808000;stroke-linejoin:bevel;" x="303.477186" xlink:href="#mf1a5c21ffc" y="167.128634"/>
     <use style="fill:#808000;stroke:#808000;stroke-linejoin:bevel;" x="311.019598" xlink:href="#mf1a5c21ffc" y="160.654362"/>
     <use style="fill:#808000;stroke:#808000;stroke-linejoin:bevel;" x="318.56201" xlink:href="#mf1a5c21ffc" y="156.114389"/>
     <use style="fill:#808000;stroke:#808000;stroke-linejoin:bevel;" x="326.104422" xlink:href="#mf1a5c21ffc" y="153.090236"/>
     <use style="fill:#808000;stroke:#808000;stroke-linejoin:bevel;" x="333.646834" xlink:href="#mf1a5c21ffc" y="151.174107"/>
     <use style="fill:#808000;stroke:#808000;stroke-linejoin:bevel;" x="341.189246" xlink:href="#mf1a5c21ffc" y="150.01808"/>
     <use style="fill:#808000;stroke:#808000;stroke-linejoin:bevel;" x="348.731658" xlink:href="#mf1a5c21ffc" y="149.35343"/>
     <use style="fill:#808000;stroke:#808000;stroke-linejoin:bevel;" x="356.27407" xlink:href="#mf1a5c21ffc" y="148.989024"/>
     <use style="fill:#808000;stroke:#808000;stroke-linejoin:bevel;" x="363.816482" xlink:href="#mf1a5c21ffc" y="148.798397"/>
     <use style="fill:#808000;stroke:#808000;stroke-linejoin:bevel;" x="371.358894" xlink:href="#mf1a5c21ffc" y="148.703208"/>
     <use style="fill:#808000;stroke:#808000;stroke-linejoin:bevel;" x="378.901307" xlink:href="#mf1a5c21ffc" y="148.657819"/>
     <use style="fill:#808000;stroke:#808000;stroke-linejoin:bevel;" x="386.443719" xlink:href="#mf1a5c21ffc" y="148.637146"/>
     <use style="fill:#808000;stroke:#808000;stroke-linejoin:bevel;" x="393.986131" xlink:href="#mf1a5c21ffc" y="148.628149"/>
     <use style="fill:#808000;stroke:#808000;stroke-linejoin:bevel;" x="401.528543" xlink:href="#mf1a5c21ffc" y="148.624407"/>
     <use style="fill:#808000;stroke:#808000;stroke-linejoin:bevel;" x="409.070955" xlink:href="#mf1a5c21ffc" y="148.622919"/>
     <use style="fill:#808000;stroke:#808000;stroke-linejoin:bevel;" x="416.613367" xlink:href="#mf1a5c21ffc" y="148.622354"/>
     <use style="fill:#808000;stroke:#808000;stroke-linejoin:bevel;" x="424.155779" xlink:href="#mf1a5c21ffc" y="148.622148"/>
     <use style="fill:#808000;stroke:#808000;stroke-linejoin:bevel;" x="431.698191" xlink:href="#mf1a5c21ffc" y="148.622077"/>
    </g>
   </g>
   <g id="line2d_18">
    <defs>
     <path d="M 0 3  C 0.795609 3 1.55874 2.683901 2.12132 2.12132  C 2.683901 1.55874 3 0.795609 3 0  C 3 -0.795609 2.683901 -1.55874 2.12132 -2.12132  C 1.55874 -2.683901 0.795609 -3 0 -3  C -0.795609 -3 -1.55874 -2.683901 -2.12132 -2.12132  C -2.683901 -1.55874 -3 -0.795609 -3 0  C -3 0.795609 -2.683901 1.55874 -2.12132 2.12132  C -1.55874 2.683901 -0.795609 3 0 3  z " id="m490c347f33" style="stroke:#008080;"/>
    </defs>
    <g clip-path="url(#pdec2f1f679)">
     <use style="fill:#008080;stroke:#008080;" x="62.12" xlink:href="#m490c347f33" y="148.716952"/>
     <use style="fill:#008080;stroke:#008080;" x="69.662412" xlink:href="#m490c347f33" y="148.768399"/>
     <use style="fill:#008080;stroke:#008080;" x="77.204824" xlink:href="#m490c347f33" y="148.875946"/>
     <use style="fill:#008080;stroke:#008080;" x="84.747236" xlink:href="#m490c347f33" y="149.048832"/>
     <use style="fill:#008080;stroke:#008080;" x="92.289648" xlink:href="#m490c347f33" y="149.316055"/>
     <use style="fill:#008080;stroke:#008080;" x="99.83206" xlink:href="#m490c347f33" y="149.711727"/>
     <use style="fill:#008080;stroke:#008080;" x="107.374472" xlink:href="#m490c347f33" y="150.270201"/>
     <use style="fill:#008080;stroke:#008080;" x="114.916884" xlink:href="#m490c347f33" y="151.01647"/>
     <use style="fill:#008080;stroke:#008080;" x="122.459296" xlink:href="#m490c347f33" y="151.950992"/>
     <use style="fill:#008080;stroke:#008080;" x="130.001709" xlink:href="#m490c347f33" y="153.029625"/>
     <use style="fill:#008080;stroke:#008080;" x="137.544121" xlink:href="#m490c347f33" y="154.142007"/>
     <use style="fill:#008080;stroke:#008080;" x="145.086533" xlink:href="#m490c347f33" y="155.095013"/>
     <use style="fill:#008080;stroke:#008080;" x="152.628945" xlink:href="#m490c347f33" y="155.610806"/>
     <use style="fill:#008080;stroke:#008080;" x="160.171357" xlink:href="#m490c347f33" y="155.349695"/>
     <use style="fill:#008080;stroke:#008080;" x="167.713769" xlink:href="#m490c347f33" y="153.964626"/>
     <use style="fill:#008080;stroke:#008080;" x="175.256181" xlink:href="#m490c347f33" y="151.185771"/>
     <use style="fill:#008080;stroke:#008080;" x="182.798593" xlink:href="#m490c347f33" y="146.921348"/>
     <use style="fill:#008080;stroke:#008080;" x="190.341005" xlink:href="#m490c347f33" y="141.34837"/>
     <use style="fill:#008080;stroke:#008080;" x="197.883417" xlink:href="#m490c347f33" y="134.960009"/>
     <use style="fill:#008080;stroke:#008080;" x="205.425829" xlink:href="#m490c347f33" y="128.540175"/>
     <use style="fill:#008080;stroke:#008080;" x="212.968241" xlink:href="#m490c347f33" y="123.052801"/>
     <use style="fill:#008080;stroke:#008080;" x="220.510653" xlink:href="#m490c347f33" y="119.459871"/>
     <use style="fill:#008080;stroke:#008080;" x="228.053065" xlink:href="#m490c347f33" y="118.509479"/>
     <use style="fill:#008080;stroke:#008080;" x="235.595477" xlink:href="#m490c347f33" y="120.551957"/>
     <use style="fill:#008080;stroke:#008080;" x="243.137889" xlink:href="#m490c347f33" y="125.439828"/>
     <use style="fill:#008080;stroke:#008080;" x="250.680302" xlink:href="#m490c347f33" y="132.544671"/>
     <use style="fill:#008080;stroke:#008080;" x="258.222714" xlink:href="#m490c347f33" y="140.888436"/>
     <use style="fill:#008080;stroke:#008080;" x="265.765126" xlink:href="#m490c347f33" y="149.351586"/>
     <use style="fill:#008080;stroke:#008080;" x="273.307538" xlink:href="#m490c347f33" y="156.898842"/>
     <use style="fill:#008080;stroke:#008080;" x="280.84995" xlink:href="#m490c347f33" y="162.762745"/>
     <use style="fill:#008080;stroke:#008080;" x="288.392362" xlink:href="#m490c347f33" y="166.544078"/>
     <use style="fill:#008080;stroke:#008080;" x="295.934774" xlink:href="#m490c347f33" y="168.217513"/>
     <use style="fill:#008080;stroke:#008080;" x="303.477186" xlink:href="#m490c347f33" y="168.05897"/>
     <use style="fill:#008080;stroke:#008080;" x="311.019598" xlink:href="#m490c347f33" y="166.528743"/>
     <use style="fill:#008080;stroke:#008080;" x="318.56201" xlink:href="#m490c347f33" y="164.148025"/>
     <use style="fill:#008080;stroke:#008080;" x="326.104422" xlink:href="#m490c347f33" y="161.398175"/>
     <use style="fill:#008080;stroke:#008080;" x="333.646834" xlink:href="#m490c347f33" y="158.657925"/>
     <use style="fill:#008080;stroke:#008080;" x="341.189246" xlink:href="#m490c347f33" y="156.17965"/>
     <use style="fill:#008080;stroke:#008080;" x="348.731658" xlink:href="#m490c347f33" y="154.096215"/>
     <use style="fill:#008080;stroke:#008080;" x="356.27407" xlink:href="#m490c347f33" y="152.445875"/>
     <use style="fill:#008080;stroke:#008080;" x="363.816482" xlink:href="#m490c347f33" y="151.20342"/>
     <use style="fill:#008080;stroke:#008080;" x="371.358894" xlink:href="#m490c347f33" y="150.30912"/>
     <use style="fill:#008080;stroke:#008080;" x="378.901307" xlink:href="#m490c347f33" y="149.691025"/>
     <use style="fill:#008080;stroke:#008080;" x="386.443719" xlink:href="#m490c347f33" y="149.279498"/>
     <use style="fill:#008080;stroke:#008080;" x="393.986131" xlink:href="#m490c347f33" y="149.014895"/>
     <use style="fill:#008080;stroke:#008080;" x="401.528543" xlink:href="#m490c347f33" y="148.85028"/>
     <use style="fill:#008080;stroke:#008080;" x="409.070955" xlink:href="#m490c347f33" y="148.751043"/>
     <use style="fill:#008080;stroke:#008080;" x="416.613367" xlink:href="#m490c347f33" y="148.693006"/>
     <use style="fill:#008080;stroke:#008080;" x="424.155779" xlink:href="#m490c347f33" y="148.66005"/>
     <use style="fill:#008080;stroke:#008080;" x="431.698191" xlink:href="#m490c347f33" y="148.641867"/>
    </g>
   </g>
   <g id="line2d_19">
    <path clip-path="url(#pdec2f1f679)" d="M 61.75356 148.617858  L 96.052385 148.508932  L 108.804513 148.267135  L 117.159355 147.896737  L 123.315555 147.417079  L 128.592297 146.785626  L 132.989582 146.039624  L 136.947139 145.141493  L 140.464968 144.115469  L 143.543067 143.003959  L 146.621167 141.656318  L 149.259538 140.284263  L 151.89791 138.684898  L 154.536281 136.831604  L 157.174652 134.6975  L 159.813023 132.25631  L 162.451394 129.483457  L 165.089766 126.357365  L 167.838069 122.706941  L 170.47644 118.813384  L 173.114811 114.535787  L 175.973047 109.476905  L 179.051147 103.562435  L 182.568975 96.278241  L 186.746396 87.061307  L 201.037573 54.928504  L 201.971997 53.020474  L 204.940164 47.286568  L 207.578535 42.669965  L 209.997042 38.890028  L 212.195685 35.86084  L 214.284396 33.361173  L 216.263174 31.343288  L 218.13202 29.755134  L 219.890934 28.543294  L 221.649849 27.604422  L 223.298831 26.969306  L 224.947813 26.567405  L 226.596795 26.393855  L 228.27326 26.445699  L 229.977208 26.72755  L 231.736122 27.253084  L 233.550002 28.03583  L 235.418848 29.08812  L 237.397627 30.4627  L 239.486337 32.190598  L 241.68498 34.300675  L 244.048521 36.882437  L 246.604443 40.014599  L 249.352746 43.744339  L 252.320914 48.149927  L 255.72881 53.624931  L 259.686367 60.430985  L 264.853177 69.801425  L 277.330475 92.62531  L 281.507896 99.70532  L 285.245588 105.603751  L 288.543552 110.411245  L 291.841516 114.817341  L 294.919616 118.55645  L 297.997716 121.935644  L 300.855951 124.759249  L 303.714187 127.29341  L 306.792287 129.718177  L 309.870386 131.851321  L 312.948486 133.719446  L 315.916654 135.295486  L 319.434482 136.910579  L 322.95231 138.287883  L 326.909867 139.597251  L 331.307152 140.806405  L 336.144166 141.898082  L 341.860637 142.940868  L 348.456565 143.898521  L 356.371679 144.802762  L 365.605978 145.625766  L 377.03892 146.407987  L 390.230776 147.080411  L 405.621275 147.637759  L 424.089874 148.07555  L 437.721458 148.281489  L 437.721458 148.281489  " style="fill:none;stroke:#e74c3c;stroke-linecap:square;stroke-width:2;"/>
   </g>
   <g id="line2d_20">
    <path clip-path="url(#pdec2f1f679)" d="M 61.75356 148.617148  L 115.400441 148.720364  L 124.195012 148.985336  L 130.351211 149.373017  L 135.627954 149.930415  L 140.025239 150.6279  L 143.543067 151.391019  L 147.060896 152.385963  L 150.138995 153.488425  L 153.217095 154.849073  L 155.855466 156.25375  L 158.493838 157.909067  L 161.132209 159.844925  L 163.77058 162.09135  L 166.299019 164.505356  L 167.178476 165.499835  L 169.596983 168.294359  L 172.01549 171.421063  L 174.433997 174.893924  L 177.072368 179.088107  L 179.710739 183.70959  L 182.568975 189.192107  L 185.647075 195.625683  L 188.945039 203.074282  L 192.682731 212.100326  L 197.519745 224.422108  L 207.908332 251.074095  L 211.42616 259.371834  L 214.284396 265.57846  L 216.812835 270.572425  L 219.12141 274.663179  L 221.21012 277.937916  L 223.188899 280.637986  L 225.057745 282.808301  L 226.706727 284.404254  L 228.328226 285.673182  L 229.867276 286.596205  L 231.296393 287.204386  L 232.725511 287.570803  L 234.099663 287.694275  L 235.473815 287.593509  L 236.847966 287.269553  L 238.277084 286.697984  L 239.761168 285.854611  L 241.300218 284.716196  L 242.9492 283.205853  L 244.625665 281.372045  L 246.494511 278.987922  L 248.473289 276.093581  L 250.671932 272.461987  L 253.090439 268.007214  L 255.72881 262.663297  L 258.80691 255.895033  L 262.43467 247.357209  L 267.711413 234.307845  L 276.231153 213.249599  L 280.408574 203.574338  L 283.926403 195.987468  L 287.004502 189.846686  L 289.862738 184.597295  L 292.720973 179.801654  L 295.359345 175.781818  L 297.997716 172.148041  L 300.636087 168.889097  L 303.274458 165.988423  L 305.912829 163.425398  L 308.551201 161.176541  L 311.189572 159.216596  L 313.718011 157.552278  L 319.87421 154.481732  L 322.95231 153.316667  L 326.470139 152.239967  L 329.987967 151.389649  L 333.945524 150.652051  L 338.782538 149.995627  L 344.05928 149.506434  L 350.655208 149.12216  L 359.449779 148.848557  L 372.641635 148.686883  L 400.344533 148.625833  L 437.721458 148.622102  L 437.721458 148.622102  " style="fill:none;stroke:#808000;stroke-linecap:square;stroke-width:2;"/>
   </g>
   <g id="line2d_21">
    <path clip-path="url(#pdec2f1f679)" d="M 61.75356 148.63112  L 94.293471 148.740457  L 110.123699 148.990985  L 120.677183 149.366422  L 129.032026 149.874941  L 136.067682 150.514224  L 142.66361 151.341668  L 148.81981 152.351363  L 154.536281 153.512598  L 160.69248 154.994587  L 169.377119 157.356873  L 176.63264 159.25783  L 180.810061 160.121277  L 184.108025 160.580727  L 186.96626 160.762278  L 189.604632 160.710323  L 192.023138 160.448427  L 194.441645 159.958797  L 196.860152 159.224328  L 199.278659 158.234374  L 201.752132 156.954928  L 204.170639 155.448662  L 206.809011 153.536413  L 209.667246 151.185716  L 213.075142 148.083905  L 218.241952 143.033872  L 224.178288 137.305875  L 227.558701 134.361699  L 230.36197 132.209712  L 232.890409 130.545165  L 235.198984 129.282855  L 237.397627 128.325542  L 239.541303 127.6309  L 241.630014 127.183802  L 243.718725 126.961875  L 245.834918 126.960899  L 248.033561 127.188148  L 250.342136 127.661239  L 252.760643 128.392102  L 255.399014 129.43197  L 258.367181 130.856651  L 261.775078 132.75145  L 266.282295 135.536101  L 279.748982 144.027169  L 283.926403 146.30468  L 287.664095 148.102791  L 291.401788 149.654405  L 295.13948 150.954486  L 298.877173 152.009187  L 302.614865 152.833066  L 306.572422 153.476475  L 310.749843 153.930913  L 315.476925 154.210539  L 320.753668 154.287719  L 326.909867 154.146668  L 334.824981 153.729627  L 348.016837 152.772999  L 369.563535 151.234944  L 384.514305 150.409619  L 399.904804 149.78525  L 417.493946 149.300885  L 437.721458 148.962535  L 437.721458 148.962535  " style="fill:none;stroke:#008080;stroke-linecap:square;stroke-width:2;"/>
   </g>
   <g id="patch_3">
    <path d="M 62.12 300.76  L 62.12 13.32  " style="fill:none;stroke:#000000;stroke-linecap:square;stroke-linejoin:miter;stroke-width:0.8;"/>
   </g>
   <g id="patch_4">
    <path d="M 437.355 300.76  L 437.355 13.32  " style="fill:none;stroke:#000000;stroke-linecap:square;stroke-linejoin:miter;stroke-width:0.8;"/>
   </g>
   <g id="patch_5">
    <path d="M 62.12 300.76  L 437.355 300.76  " style="fill:none;stroke:#000000;stroke-linecap:square;stroke-linejoin:miter;stroke-width:0.8;"/>
   </g>
   <g id="patch_6">
    <path d="M 62.12 13.32  L 437.355 13.32  " style="fill:none;stroke:#000000;stroke-linecap:square;stroke-linejoin:miter;stroke-width:0.8;"/>
   </g>
   <g id="legend_1">
    <g id="patch_7">
     <path d="M 364.131563 109.38875  L 430.355 109.38875  Q 432.355 109.38875 432.355 107.38875  L 432.355 20.32  Q 432.355 18.32 430.355 18.32  L 364.131563 18.32  Q 362.131563 18.32 362.131563 20.32  L 362.131563 107.38875  Q 362.131563 109.38875 364.131563 109.38875  z " style="fill:#ffffff;opacity:0.8;stroke:#cccccc;stroke-linejoin:miter;"/>
    </g>
    <g id="line2d_22"/>
    <g id="line2d_23">
     <g>
      <use style="fill:#e74c3c;stroke:#e74c3c;stroke-linejoin:miter;" x="376.131563" xlink:href="#m8dfad8457b" y="26.418437"/>
     </g>
    </g>
    <g id="text_18">
     <!-- exp-Al -->
     <defs>
      <path d="M 54.890625 54.6875  L 35.109375 28.078125  L 55.90625 0  L 45.3125 0  L 29.390625 21.484375  L 13.484375 0  L 2.875 0  L 24.125 28.609375  L 4.6875 54.6875  L 15.28125 54.6875  L 29.78125 35.203125  L 44.28125 54.6875  z " id="DejaVuSans-78"/>
      <path d="M 4.890625 31.390625  L 31.203125 31.390625  L 31.203125 23.390625  L 4.890625 23.390625  z " id="DejaVuSans-2d"/>
      <path d="M 34.1875 63.1875  L 20.796875 26.90625  L 47.609375 26.90625  z M 28.609375 72.90625  L 39.796875 72.90625  L 67.578125 0  L 57.328125 0  L 50.6875 18.703125  L 17.828125 18.703125  L 11.1875 0  L 0.78125 0  z " id="DejaVuSans-41"/>
     </defs>
     <g transform="translate(394.131563 29.918437)scale(0.1 -0.1)">
      <use xlink:href="#DejaVuSans-65"/>
      <use x="61.507812" xlink:href="#DejaVuSans-78"/>
      <use x="120.6875" xlink:href="#DejaVuSans-70"/>
      <use x="184.164062" xlink:href="#DejaVuSans-2d"/>
      <use x="220.216797" xlink:href="#DejaVuSans-41"/>
      <use x="288.625" xlink:href="#DejaVuSans-6c"/>
     </g>
    </g>
    <g id="line2d_24"/>
    <g id="line2d_25">
     <g>
      <use style="fill:#808000;stroke:#808000;stroke-linejoin:bevel;" x="376.131563" xlink:href="#mf1a5c21ffc" y="41.096563"/>
     </g>
    </g>
    <g id="text_19">
     <!-- exp-Ta -->
     <defs>
      <path d="M -0.296875 72.90625  L 61.375 72.90625  L 61.375 64.59375  L 35.5 64.59375  L 35.5 0  L 25.59375 0  L 25.59375 64.59375  L -0.296875 64.59375  z " id="DejaVuSans-54"/>
     </defs>
     <g transform="translate(394.131563 44.596563)scale(0.1 -0.1)">
      <use xlink:href="#DejaVuSans-65"/>
      <use x="61.507812" xlink:href="#DejaVuSans-78"/>
      <use x="120.6875" xlink:href="#DejaVuSans-70"/>
      <use x="184.164062" xlink:href="#DejaVuSans-2d"/>
      <use x="220.107422" xlink:href="#DejaVuSans-54"/>
      <use x="280.941406" xlink:href="#DejaVuSans-61"/>
     </g>
    </g>
    <g id="line2d_26"/>
    <g id="line2d_27">
     <g>
      <use style="fill:#008080;stroke:#008080;" x="376.131563" xlink:href="#m490c347f33" y="55.774687"/>
     </g>
    </g>
    <g id="text_20">
     <!-- exp-Ni -->
     <defs>
      <path d="M 9.8125 72.90625  L 23.09375 72.90625  L 55.421875 11.921875  L 55.421875 72.90625  L 64.984375 72.90625  L 64.984375 0  L 51.703125 0  L 19.390625 60.984375  L 19.390625 0  L 9.8125 0  z " id="DejaVuSans-4e"/>
     </defs>
     <g transform="translate(394.131563 59.274687)scale(0.1 -0.1)">
      <use xlink:href="#DejaVuSans-65"/>
      <use x="61.507812" xlink:href="#DejaVuSans-78"/>
      <use x="120.6875" xlink:href="#DejaVuSans-70"/>
      <use x="184.164062" xlink:href="#DejaVuSans-2d"/>
      <use x="220.248047" xlink:href="#DejaVuSans-4e"/>
      <use x="295.052734" xlink:href="#DejaVuSans-69"/>
     </g>
    </g>
    <g id="line2d_28">
     <path d="M 366.131563 70.452812  L 386.131563 70.452812  " style="fill:none;stroke:#e74c3c;stroke-linecap:square;stroke-width:2;"/>
    </g>
    <g id="line2d_29"/>
    <g id="text_21">
     <!-- sim-Al -->
     <g transform="translate(394.131563 73.952812)scale(0.1 -0.1)">
      <use xlink:href="#DejaVuSans-73"/>
      <use x="52.099609" xlink:href="#DejaVuSans-69"/>
      <use x="79.882812" xlink:href="#DejaVuSans-6d"/>
      <use x="177.294922" xlink:href="#DejaVuSans-2d"/>
      <use x="213.347656" xlink:href="#DejaVuSans-41"/>
      <use x="281.755859" xlink:href="#DejaVuSans-6c"/>
     </g>
    </g>
    <g id="line2d_30">
     <path d="M 366.131563 85.130938  L 386.131563 85.130938  " style="fill:none;stroke:#808000;stroke-linecap:square;stroke-width:2;"/>
    </g>
    <g id="line2d_31"/>
    <g id="text_22">
     <!-- sim-Ta -->
     <g transform="translate(394.131563 88.630938)scale(0.1 -0.1)">
      <use xlink:href="#DejaVuSans-73"/>
      <use x="52.099609" xlink:href="#DejaVuSans-69"/>
      <use x="79.882812" xlink:href="#DejaVuSans-6d"/>
      <use x="177.294922" xlink:href="#DejaVuSans-2d"/>
      <use x="213.238281" xlink:href="#DejaVuSans-54"/>
      <use x="274.072266" xlink:href="#DejaVuSans-61"/>
     </g>
    </g>
    <g id="line2d_32">
     <path d="M 366.131563 99.809062  L 386.131563 99.809062  " style="fill:none;stroke:#008080;stroke-linecap:square;stroke-width:2;"/>
    </g>
    <g id="line2d_33"/>
    <g id="text_23">
     <!-- sim-Ni -->
     <g transform="translate(394.131563 103.309062)scale(0.1 -0.1)">
      <use xlink:href="#DejaVuSans-73"/>
      <use x="52.099609" xlink:href="#DejaVuSans-69"/>
      <use x="79.882812" xlink:href="#DejaVuSans-6d"/>
      <use x="177.294922" xlink:href="#DejaVuSans-2d"/>
      <use x="213.378906" xlink:href="#DejaVuSans-4e"/>
      <use x="288.183594" xlink:href="#DejaVuSans-69"/>
     </g>
    </g>
   </g>
  </g>
 </g>
 <defs>
  <clipPath id="pdec2f1f679">
   <rect height="287.44" width="375.235" x="62.12" y="13.32"/>
  </clipPath>
 </defs>
</g>
    <g transform="translate(10, 300) scale(1) ">
      <g transform="translate(0, 0) scale(3.0) "><defs id="defs831"/>
  <sodipodi:namedview xmlns:sodipodi="http://sodipodi.sourceforge.net/DTD/sodipodi-0.dtd" xmlns:inkscape="http://www.inkscape.org/namespaces/inkscape" id="base" pagecolor="#ffffff" bordercolor="#666666" borderopacity="1.0" inkscape:pageopacity="0.0" inkscape:pageshadow="2" inkscape:zoom="1.979899" inkscape:cx="-12.763683" inkscape:cy="-16.680883" inkscape:document-units="mm" inkscape:current-layer="layer1" showgrid="false" inkscape:window-width="1920" inkscape:window-height="1001" inkscape:window-x="-9" inkscape:window-y="-9" inkscape:window-maximized="1" units="pt"/>
  <metadata xmlns:rdf="http://www.w3.org/1999/02/22-rdf-syntax-ns#" xmlns:cc="http://creativecommons.org/ns#" xmlns:dc="http://purl.org/dc/elements/1.1/" id="metadata834">
    <rdf:RDF>
      <cc:Work rdf:about="">
        <dc:format>image/svg+xml</dc:format>
        <dc:type rdf:resource="http://purl.org/dc/dcmitype/StillImage"/>
        <dc:title/>
      </cc:Work>
    </rdf:RDF>
  </metadata>
  <g xmlns:inkscape="http://www.inkscape.org/namespaces/inkscape" xmlns:sodipodi="http://sodipodi.sourceforge.net/DTD/sodipodi-0.dtd" inkscape:label="Layer 1" inkscape:groupmode="layer" id="layer1" transform="translate(0,-288.81557)">
    <g id="g4761" transform="matrix(0.07377843,0,0,0.07377843,-0.76923022,275.45946)">
      <path inkscape:connector-curvature="0" id="path1959-6-7-1-6-5-4-0-3-2-6-0-3-9-6" style="font-style:normal;font-variant:normal;font-weight:bold;font-stretch:normal;font-size:120.99466705px;line-height:1.25;font-family:Aharoni;-inkscape-font-specification:'Aharoni, Bold';font-variant-ligatures:normal;font-variant-caps:normal;font-variant-numeric:normal;font-feature-settings:normal;text-align:start;letter-spacing:0px;word-spacing:0px;writing-mode:lr-tb;text-anchor:start;fill:#000000;fill-opacity:1;stroke:none;stroke-width:2.37649584" d="M 52.937412,287.55677 H 40.587702 V 265.43005 H 22.776041 v 22.12672 h -12.34982 v -53.17432 h 12.34982 v 20.5296 h 17.811661 v -20.5296 h 12.34971 z"/>
      <path inkscape:connector-curvature="0" id="path1961-2-9-7-9-3-1-6-5-1-5-8-7-8-2" style="font-style:normal;font-variant:normal;font-weight:bold;font-stretch:normal;font-size:120.99466705px;line-height:1.25;font-family:Aharoni;-inkscape-font-specification:'Aharoni, Bold';font-variant-ligatures:normal;font-variant-caps:normal;font-variant-numeric:normal;font-feature-settings:normal;text-align:start;letter-spacing:0px;word-spacing:0px;writing-mode:lr-tb;text-anchor:start;fill:#000000;fill-opacity:1;stroke:none;stroke-width:2.37649584" d="m 69.681125,237.49895 q 0,3.0385 -1.87856,5.1421 -1.84375,2.0647 -4.55721,2.0647 -2.67866,0 -4.55722,-2.1036 -1.84375,-2.1036 -1.84375,-5.1032 0,-2.9996 1.84375,-5.0642 1.87856,-2.1036 4.55722,-2.1036 2.67865,0 4.55721,2.1036 1.87856,2.0646 1.87856,5.0642 z m -0.73057,50.05782 h -11.41048 v -36.15072 h 11.41048 z"/>
      <path inkscape:connector-curvature="0" id="path1963-3-1-2-8-3-6-3-3-3-4-7-6-0-8" style="font-style:normal;font-variant:normal;font-weight:bold;font-stretch:normal;font-size:120.99466705px;line-height:1.25;font-family:Aharoni;-inkscape-font-specification:'Aharoni, Bold';font-variant-ligatures:normal;font-variant-caps:normal;font-variant-numeric:normal;font-feature-settings:normal;text-align:start;letter-spacing:0px;word-spacing:0px;writing-mode:lr-tb;text-anchor:start;fill:#000000;fill-opacity:1;stroke:none;stroke-width:2.37649584" d="m 93.369625,261.92405 h -6.50536 v 25.63272 h -11.4104 v -25.63272 h -3.75712 v -10.518 h 3.75712 v -10.8686 h 11.4104 v 10.8686 h 6.50536 z"/>
      <path id="path1967-3-3-6-2-9-6-2-5-3-0-9-8-2-1" style="font-style:normal;font-variant:normal;font-weight:bold;font-stretch:normal;font-size:120.99466705px;line-height:1.25;font-family:Aharoni;-inkscape-font-specification:'Aharoni, Bold';font-variant-ligatures:normal;font-variant-caps:normal;font-variant-numeric:normal;font-feature-settings:normal;text-align:start;letter-spacing:0px;word-spacing:0px;writing-mode:lr-tb;text-anchor:start;fill:#000000;fill-opacity:1;stroke:none;stroke-width:2.37649584" d="m 160.61447,287.55677 h -12.34971 v -53.17432 h 12.34971 z" inkscape:connector-curvature="0"/>
      <path inkscape:connector-curvature="0" id="path1969-8-0-8-5-3-5-6-6-3-9-8-6-2-0" style="font-style:normal;font-variant:normal;font-weight:bold;font-stretch:normal;font-size:120.99466705px;line-height:1.25;font-family:Aharoni;-inkscape-font-specification:'Aharoni, Bold';font-variant-ligatures:normal;font-variant-caps:normal;font-variant-numeric:normal;font-feature-settings:normal;text-align:start;letter-spacing:0px;word-spacing:0px;writing-mode:lr-tb;text-anchor:start;fill:#000000;fill-opacity:1;stroke:none;stroke-width:2.37649584" d="m 201.6896,284.86883 q -6.05314,2.68794 -11.20172,2.68794 -8.97528,0 -16.07201,-6.42764 -9.04489,-8.21959 -9.04489,-21.42558 0,-13.2448 9.04489,-21.4644 7.09673,-6.4277 16.17636,-6.4277 4.93989,0 11.09737,2.6879 v 16.5561 q -1.73941,-2.3763 -3.54836,-3.5839 -3.30489,-2.2204 -7.09679,-2.2204 -4.8007,0 -8.34907,3.2333 -4.48766,4.0903 -4.48766,11.2191 0,7.0899 4.48766,11.1803 3.54837,3.23328 8.34907,3.23328 3.7919,0 7.09679,-2.22049 1.77415,-1.16869 3.54836,-3.58389 z"/>
      <path inkscape:transform-center-y="-13.656107" inkscape:transform-center-x="-3.9758045" sodipodi:nodetypes="csssssc" inkscape:connector-curvature="0" id="rect815-3-0-9-3-5-6-0-4-03-7-3-7-5-3-2-76-3-8-8-5-3-7-8-0-1-3-7-9-2-8-1" d="m 104.61223,181.4353 c 0,0 17.68257,27.27493 22.63096,34.41579 7.92879,11.44185 16.42741,30.36094 17.92806,45.50275 1.21005,12.20999 -1.38345,26.51285 -17.32077,30.11208 -11.70405,2.64313 -26.75007,-5.41371 -30.334975,-20.50903 -3.30533,-13.91816 -2.13088,-34.61412 0.0984,-48.67354 1.22049,-7.69719 5.657305,-36.06774 6.998335,-40.84805 z" style="font-style:normal;font-weight:normal;font-size:242.08590698px;line-height:1.25;font-family:sans-serif;letter-spacing:0px;word-spacing:0px;opacity:1;fill:#00456b;fill-opacity:1;stroke:none;stroke-width:0.6720385;stroke-miterlimit:4;stroke-dasharray:none;stroke-dashoffset:0;stroke-opacity:1;paint-order:markers fill stroke"/>
      <path sodipodi:nodetypes="ccscscsccscccscc" d="m 107.52748,246.32531 6.45576,30.78617 6.82019,-1.47997 c 5.75791,-1.24946 9.70999,-3.40081 11.85576,-6.45394 2.16431,-3.05721 2.68673,-7.25521 1.56721,-12.59398 -1.11209,-5.30332 -3.26743,-8.89247 -6.46601,-10.76744 -3.18372,-1.89669 -7.65528,-2.22015 -13.4127,-0.97081 z m -8.759905,-5.09591 12.713095,-2.78742 c 8.8634,-1.94336 15.73718,-1.59097 20.62135,1.05715 4.88003,2.62843 8.10326,7.71587 9.6697,15.26232 1.57464,7.58584 0.64804,13.61405 -2.77981,18.08462 -3.42783,4.4705 -9.55303,7.67294 -18.37559,9.60735 l -12.71311,2.78742 z" style="font-style:normal;font-weight:normal;font-size:242.08590698px;line-height:1.25;font-family:sans-serif;letter-spacing:0px;word-spacing:0px;fill:#ffffff;fill-opacity:1;stroke:none;stroke-width:1.60286868" id="path1193-3-5-3-2-7-4-5-6-0-0-6-9-2-4-7-0-0" inkscape:connector-curvature="0"/>
    </g>
  </g>
</g>
    </g>
  </g>
</svg>
