<?xml version='1.0' encoding='ASCII' standalone='yes'?>
<svg xmlns:xlink="http://www.w3.org/1999/xlink" xmlns="http://www.w3.org/2000/svg" version="1.1" width="460.8px" viewBox="0 0 460.8px 345.6px" height="345.6px">
  <g>
    <g><defs>
  <style type="text/css">
*{stroke-linecap:butt;stroke-linejoin:round;}
  </style>
 </defs>
 <g id="figure_1">
  <g id="patch_1">
   <path d="M 0 345.6  L 460.8 345.6  L 460.8 0  L 0 0  z " style="fill:#ffffff;"/>
  </g>
  <g id="axes_1">
   <g id="patch_2">
    <path d="M 69.572 300.76  L 447.48 300.76  L 447.48 13.32  L 69.572 13.32  z " style="fill:#ffffff;"/>
   </g>
   <g id="matplotlib.axis_1">
    <g id="xtick_1">
     <g id="line2d_1">
      <defs>
       <path d="M 0 0  L 0 3.5  " id="m75b7920350" style="stroke:#000000;stroke-width:0.8;"/>
      </defs>
      <g>
       <use style="stroke:#000000;stroke-width:0.8;" x="69.572" xlink:href="#m75b7920350" y="300.76"/>
      </g>
     </g>
     <g id="text_1">
      <!-- 0 -->
      <defs>
       <path d="M 31.78125 66.40625  Q 24.171875 66.40625 20.328125 58.90625  Q 16.5 51.421875 16.5 36.375  Q 16.5 21.390625 20.328125 13.890625  Q 24.171875 6.390625 31.78125 6.390625  Q 39.453125 6.390625 43.28125 13.890625  Q 47.125 21.390625 47.125 36.375  Q 47.125 51.421875 43.28125 58.90625  Q 39.453125 66.40625 31.78125 66.40625  z M 31.78125 74.21875  Q 44.046875 74.21875 50.515625 64.515625  Q 56.984375 54.828125 56.984375 36.375  Q 56.984375 17.96875 50.515625 8.265625  Q 44.046875 -1.421875 31.78125 -1.421875  Q 19.53125 -1.421875 13.0625 8.265625  Q 6.59375 17.96875 6.59375 36.375  Q 6.59375 54.828125 13.0625 64.515625  Q 19.53125 74.21875 31.78125 74.21875  z " id="DejaVuSans-30"/>
      </defs>
      <g transform="translate(66.39075 315.358437)scale(0.1 -0.1)">
       <use xlink:href="#DejaVuSans-30"/>
      </g>
     </g>
    </g>
    <g id="xtick_2">
     <g id="line2d_2">
      <g>
       <use style="stroke:#000000;stroke-width:0.8;" x="127.711692" xlink:href="#m75b7920350" y="300.76"/>
      </g>
     </g>
     <g id="text_2">
      <!-- 200 -->
      <defs>
       <path d="M 19.1875 8.296875  L 53.609375 8.296875  L 53.609375 0  L 7.328125 0  L 7.328125 8.296875  Q 12.9375 14.109375 22.625 23.890625  Q 32.328125 33.6875 34.8125 36.53125  Q 39.546875 41.84375 41.421875 45.53125  Q 43.3125 49.21875 43.3125 52.78125  Q 43.3125 58.59375 39.234375 62.25  Q 35.15625 65.921875 28.609375 65.921875  Q 23.96875 65.921875 18.8125 64.3125  Q 13.671875 62.703125 7.8125 59.421875  L 7.8125 69.390625  Q 13.765625 71.78125 18.9375 73  Q 24.125 74.21875 28.421875 74.21875  Q 39.75 74.21875 46.484375 68.546875  Q 53.21875 62.890625 53.21875 53.421875  Q 53.21875 48.921875 51.53125 44.890625  Q 49.859375 40.875 45.40625 35.40625  Q 44.1875 33.984375 37.640625 27.21875  Q 31.109375 20.453125 19.1875 8.296875  z " id="DejaVuSans-32"/>
      </defs>
      <g transform="translate(118.167942 315.358437)scale(0.1 -0.1)">
       <use xlink:href="#DejaVuSans-32"/>
       <use x="63.623047" xlink:href="#DejaVuSans-30"/>
       <use x="127.246094" xlink:href="#DejaVuSans-30"/>
      </g>
     </g>
    </g>
    <g id="xtick_3">
     <g id="line2d_3">
      <g>
       <use style="stroke:#000000;stroke-width:0.8;" x="185.851385" xlink:href="#m75b7920350" y="300.76"/>
      </g>
     </g>
     <g id="text_3">
      <!-- 400 -->
      <defs>
       <path d="M 37.796875 64.3125  L 12.890625 25.390625  L 37.796875 25.390625  z M 35.203125 72.90625  L 47.609375 72.90625  L 47.609375 25.390625  L 58.015625 25.390625  L 58.015625 17.1875  L 47.609375 17.1875  L 47.609375 0  L 37.796875 0  L 37.796875 17.1875  L 4.890625 17.1875  L 4.890625 26.703125  z " id="DejaVuSans-34"/>
      </defs>
      <g transform="translate(176.307635 315.358437)scale(0.1 -0.1)">
       <use xlink:href="#DejaVuSans-34"/>
       <use x="63.623047" xlink:href="#DejaVuSans-30"/>
       <use x="127.246094" xlink:href="#DejaVuSans-30"/>
      </g>
     </g>
    </g>
    <g id="xtick_4">
     <g id="line2d_4">
      <g>
       <use style="stroke:#000000;stroke-width:0.8;" x="243.991077" xlink:href="#m75b7920350" y="300.76"/>
      </g>
     </g>
     <g id="text_4">
      <!-- 600 -->
      <defs>
       <path d="M 33.015625 40.375  Q 26.375 40.375 22.484375 35.828125  Q 18.609375 31.296875 18.609375 23.390625  Q 18.609375 15.53125 22.484375 10.953125  Q 26.375 6.390625 33.015625 6.390625  Q 39.65625 6.390625 43.53125 10.953125  Q 47.40625 15.53125 47.40625 23.390625  Q 47.40625 31.296875 43.53125 35.828125  Q 39.65625 40.375 33.015625 40.375  z M 52.59375 71.296875  L 52.59375 62.3125  Q 48.875 64.0625 45.09375 64.984375  Q 41.3125 65.921875 37.59375 65.921875  Q 27.828125 65.921875 22.671875 59.328125  Q 17.53125 52.734375 16.796875 39.40625  Q 19.671875 43.65625 24.015625 45.921875  Q 28.375 48.1875 33.59375 48.1875  Q 44.578125 48.1875 50.953125 41.515625  Q 57.328125 34.859375 57.328125 23.390625  Q 57.328125 12.15625 50.6875 5.359375  Q 44.046875 -1.421875 33.015625 -1.421875  Q 20.359375 -1.421875 13.671875 8.265625  Q 6.984375 17.96875 6.984375 36.375  Q 6.984375 53.65625 15.1875 63.9375  Q 23.390625 74.21875 37.203125 74.21875  Q 40.921875 74.21875 44.703125 73.484375  Q 48.484375 72.75 52.59375 71.296875  z " id="DejaVuSans-36"/>
      </defs>
      <g transform="translate(234.447327 315.358437)scale(0.1 -0.1)">
       <use xlink:href="#DejaVuSans-36"/>
       <use x="63.623047" xlink:href="#DejaVuSans-30"/>
       <use x="127.246094" xlink:href="#DejaVuSans-30"/>
      </g>
     </g>
    </g>
    <g id="xtick_5">
     <g id="line2d_5">
      <g>
       <use style="stroke:#000000;stroke-width:0.8;" x="302.130769" xlink:href="#m75b7920350" y="300.76"/>
      </g>
     </g>
     <g id="text_5">
      <!-- 800 -->
      <defs>
       <path d="M 31.78125 34.625  Q 24.75 34.625 20.71875 30.859375  Q 16.703125 27.09375 16.703125 20.515625  Q 16.703125 13.921875 20.71875 10.15625  Q 24.75 6.390625 31.78125 6.390625  Q 38.8125 6.390625 42.859375 10.171875  Q 46.921875 13.96875 46.921875 20.515625  Q 46.921875 27.09375 42.890625 30.859375  Q 38.875 34.625 31.78125 34.625  z M 21.921875 38.8125  Q 15.578125 40.375 12.03125 44.71875  Q 8.5 49.078125 8.5 55.328125  Q 8.5 64.0625 14.71875 69.140625  Q 20.953125 74.21875 31.78125 74.21875  Q 42.671875 74.21875 48.875 69.140625  Q 55.078125 64.0625 55.078125 55.328125  Q 55.078125 49.078125 51.53125 44.71875  Q 48 40.375 41.703125 38.8125  Q 48.828125 37.15625 52.796875 32.3125  Q 56.78125 27.484375 56.78125 20.515625  Q 56.78125 9.90625 50.3125 4.234375  Q 43.84375 -1.421875 31.78125 -1.421875  Q 19.734375 -1.421875 13.25 4.234375  Q 6.78125 9.90625 6.78125 20.515625  Q 6.78125 27.484375 10.78125 32.3125  Q 14.796875 37.15625 21.921875 38.8125  z M 18.3125 54.390625  Q 18.3125 48.734375 21.84375 45.5625  Q 25.390625 42.390625 31.78125 42.390625  Q 38.140625 42.390625 41.71875 45.5625  Q 45.3125 48.734375 45.3125 54.390625  Q 45.3125 60.0625 41.71875 63.234375  Q 38.140625 66.40625 31.78125 66.40625  Q 25.390625 66.40625 21.84375 63.234375  Q 18.3125 60.0625 18.3125 54.390625  z " id="DejaVuSans-38"/>
      </defs>
      <g transform="translate(292.587019 315.358437)scale(0.1 -0.1)">
       <use xlink:href="#DejaVuSans-38"/>
       <use x="63.623047" xlink:href="#DejaVuSans-30"/>
       <use x="127.246094" xlink:href="#DejaVuSans-30"/>
      </g>
     </g>
    </g>
    <g id="xtick_6">
     <g id="line2d_6">
      <g>
       <use style="stroke:#000000;stroke-width:0.8;" x="360.270462" xlink:href="#m75b7920350" y="300.76"/>
      </g>
     </g>
     <g id="text_6">
      <!-- 1000 -->
      <defs>
       <path d="M 12.40625 8.296875  L 28.515625 8.296875  L 28.515625 63.921875  L 10.984375 60.40625  L 10.984375 69.390625  L 28.421875 72.90625  L 38.28125 72.90625  L 38.28125 8.296875  L 54.390625 8.296875  L 54.390625 0  L 12.40625 0  z " id="DejaVuSans-31"/>
      </defs>
      <g transform="translate(347.545462 315.358437)scale(0.1 -0.1)">
       <use xlink:href="#DejaVuSans-31"/>
       <use x="63.623047" xlink:href="#DejaVuSans-30"/>
       <use x="127.246094" xlink:href="#DejaVuSans-30"/>
       <use x="190.869141" xlink:href="#DejaVuSans-30"/>
      </g>
     </g>
    </g>
    <g id="xtick_7">
     <g id="line2d_7">
      <g>
       <use style="stroke:#000000;stroke-width:0.8;" x="418.410154" xlink:href="#m75b7920350" y="300.76"/>
      </g>
     </g>
     <g id="text_7">
      <!-- 1200 -->
      <g transform="translate(405.685154 315.358437)scale(0.1 -0.1)">
       <use xlink:href="#DejaVuSans-31"/>
       <use x="63.623047" xlink:href="#DejaVuSans-32"/>
       <use x="127.246094" xlink:href="#DejaVuSans-30"/>
       <use x="190.869141" xlink:href="#DejaVuSans-30"/>
      </g>
     </g>
    </g>
    <g id="text_8">
     <!-- Distance ($\mu$m) -->
     <defs>
      <path d="M 19.671875 64.796875  L 19.671875 8.109375  L 31.59375 8.109375  Q 46.6875 8.109375 53.6875 14.9375  Q 60.6875 21.78125 60.6875 36.53125  Q 60.6875 51.171875 53.6875 57.984375  Q 46.6875 64.796875 31.59375 64.796875  z M 9.8125 72.90625  L 30.078125 72.90625  Q 51.265625 72.90625 61.171875 64.09375  Q 71.09375 55.28125 71.09375 36.53125  Q 71.09375 17.671875 61.125 8.828125  Q 51.171875 0 30.078125 0  L 9.8125 0  z " id="DejaVuSans-44"/>
      <path d="M 9.421875 54.6875  L 18.40625 54.6875  L 18.40625 0  L 9.421875 0  z M 9.421875 75.984375  L 18.40625 75.984375  L 18.40625 64.59375  L 9.421875 64.59375  z " id="DejaVuSans-69"/>
      <path d="M 44.28125 53.078125  L 44.28125 44.578125  Q 40.484375 46.53125 36.375 47.5  Q 32.28125 48.484375 27.875 48.484375  Q 21.1875 48.484375 17.84375 46.4375  Q 14.5 44.390625 14.5 40.28125  Q 14.5 37.15625 16.890625 35.375  Q 19.28125 33.59375 26.515625 31.984375  L 29.59375 31.296875  Q 39.15625 29.25 43.1875 25.515625  Q 47.21875 21.78125 47.21875 15.09375  Q 47.21875 7.46875 41.1875 3.015625  Q 35.15625 -1.421875 24.609375 -1.421875  Q 20.21875 -1.421875 15.453125 -0.5625  Q 10.6875 0.296875 5.421875 2  L 5.421875 11.28125  Q 10.40625 8.6875 15.234375 7.390625  Q 20.0625 6.109375 24.8125 6.109375  Q 31.15625 6.109375 34.5625 8.28125  Q 37.984375 10.453125 37.984375 14.40625  Q 37.984375 18.0625 35.515625 20.015625  Q 33.0625 21.96875 24.703125 23.78125  L 21.578125 24.515625  Q 13.234375 26.265625 9.515625 29.90625  Q 5.8125 33.546875 5.8125 39.890625  Q 5.8125 47.609375 11.28125 51.796875  Q 16.75 56 26.8125 56  Q 31.78125 56 36.171875 55.265625  Q 40.578125 54.546875 44.28125 53.078125  z " id="DejaVuSans-73"/>
      <path d="M 18.3125 70.21875  L 18.3125 54.6875  L 36.8125 54.6875  L 36.8125 47.703125  L 18.3125 47.703125  L 18.3125 18.015625  Q 18.3125 11.328125 20.140625 9.421875  Q 21.96875 7.515625 27.59375 7.515625  L 36.8125 7.515625  L 36.8125 0  L 27.59375 0  Q 17.1875 0 13.234375 3.875  Q 9.28125 7.765625 9.28125 18.015625  L 9.28125 47.703125  L 2.6875 47.703125  L 2.6875 54.6875  L 9.28125 54.6875  L 9.28125 70.21875  z " id="DejaVuSans-74"/>
      <path d="M 34.28125 27.484375  Q 23.390625 27.484375 19.1875 25  Q 14.984375 22.515625 14.984375 16.5  Q 14.984375 11.71875 18.140625 8.90625  Q 21.296875 6.109375 26.703125 6.109375  Q 34.1875 6.109375 38.703125 11.40625  Q 43.21875 16.703125 43.21875 25.484375  L 43.21875 27.484375  z M 52.203125 31.203125  L 52.203125 0  L 43.21875 0  L 43.21875 8.296875  Q 40.140625 3.328125 35.546875 0.953125  Q 30.953125 -1.421875 24.3125 -1.421875  Q 15.921875 -1.421875 10.953125 3.296875  Q 6 8.015625 6 15.921875  Q 6 25.140625 12.171875 29.828125  Q 18.359375 34.515625 30.609375 34.515625  L 43.21875 34.515625  L 43.21875 35.40625  Q 43.21875 41.609375 39.140625 45  Q 35.0625 48.390625 27.6875 48.390625  Q 23 48.390625 18.546875 47.265625  Q 14.109375 46.140625 10.015625 43.890625  L 10.015625 52.203125  Q 14.9375 54.109375 19.578125 55.046875  Q 24.21875 56 28.609375 56  Q 40.484375 56 46.34375 49.84375  Q 52.203125 43.703125 52.203125 31.203125  z " id="DejaVuSans-61"/>
      <path d="M 54.890625 33.015625  L 54.890625 0  L 45.90625 0  L 45.90625 32.71875  Q 45.90625 40.484375 42.875 44.328125  Q 39.84375 48.1875 33.796875 48.1875  Q 26.515625 48.1875 22.3125 43.546875  Q 18.109375 38.921875 18.109375 30.90625  L 18.109375 0  L 9.078125 0  L 9.078125 54.6875  L 18.109375 54.6875  L 18.109375 46.1875  Q 21.34375 51.125 25.703125 53.5625  Q 30.078125 56 35.796875 56  Q 45.21875 56 50.046875 50.171875  Q 54.890625 44.34375 54.890625 33.015625  z " id="DejaVuSans-6e"/>
      <path d="M 48.78125 52.59375  L 48.78125 44.1875  Q 44.96875 46.296875 41.140625 47.34375  Q 37.3125 48.390625 33.40625 48.390625  Q 24.65625 48.390625 19.8125 42.84375  Q 14.984375 37.3125 14.984375 27.296875  Q 14.984375 17.28125 19.8125 11.734375  Q 24.65625 6.203125 33.40625 6.203125  Q 37.3125 6.203125 41.140625 7.25  Q 44.96875 8.296875 48.78125 10.40625  L 48.78125 2.09375  Q 45.015625 0.34375 40.984375 -0.53125  Q 36.96875 -1.421875 32.421875 -1.421875  Q 20.0625 -1.421875 12.78125 6.34375  Q 5.515625 14.109375 5.515625 27.296875  Q 5.515625 40.671875 12.859375 48.328125  Q 20.21875 56 33.015625 56  Q 37.15625 56 41.109375 55.140625  Q 45.0625 54.296875 48.78125 52.59375  z " id="DejaVuSans-63"/>
      <path d="M 56.203125 29.59375  L 56.203125 25.203125  L 14.890625 25.203125  Q 15.484375 15.921875 20.484375 11.0625  Q 25.484375 6.203125 34.421875 6.203125  Q 39.59375 6.203125 44.453125 7.46875  Q 49.3125 8.734375 54.109375 11.28125  L 54.109375 2.78125  Q 49.265625 0.734375 44.1875 -0.34375  Q 39.109375 -1.421875 33.890625 -1.421875  Q 20.796875 -1.421875 13.15625 6.1875  Q 5.515625 13.8125 5.515625 26.8125  Q 5.515625 40.234375 12.765625 48.109375  Q 20.015625 56 32.328125 56  Q 43.359375 56 49.78125 48.890625  Q 56.203125 41.796875 56.203125 29.59375  z M 47.21875 32.234375  Q 47.125 39.59375 43.09375 43.984375  Q 39.0625 48.390625 32.421875 48.390625  Q 24.90625 48.390625 20.390625 44.140625  Q 15.875 39.890625 15.1875 32.171875  z " id="DejaVuSans-65"/>
      <path id="DejaVuSans-20"/>
      <path d="M 31 75.875  Q 24.46875 64.65625 21.28125 53.65625  Q 18.109375 42.671875 18.109375 31.390625  Q 18.109375 20.125 21.3125 9.0625  Q 24.515625 -2 31 -13.1875  L 23.1875 -13.1875  Q 15.875 -1.703125 12.234375 9.375  Q 8.59375 20.453125 8.59375 31.390625  Q 8.59375 42.28125 12.203125 53.3125  Q 15.828125 64.359375 23.1875 75.875  z " id="DejaVuSans-28"/>
      <path d="M -1.3125 -20.796875  L 13.375 54.6875  L 22.40625 54.6875  L 15.765625 20.65625  Q 15.578125 19.625 15.421875 18.359375  Q 15.28125 17.09375 15.28125 15.828125  Q 15.28125 11.28125 18.140625 8.828125  Q 21 6.390625 26.3125 6.390625  Q 33.546875 6.390625 37.984375 10.484375  Q 42.4375 14.59375 44 22.796875  L 50.203125 54.6875  L 59.1875 54.6875  L 51.03125 12.640625  Q 50.828125 11.71875 50.75 11.03125  Q 50.6875 10.359375 50.6875 9.8125  Q 50.6875 8.296875 51.296875 7.59375  Q 51.90625 6.890625 53.21875 6.890625  Q 53.71875 6.890625 54.5625 7.125  Q 55.421875 7.375 56.984375 8.015625  L 55.609375 0.78125  Q 53.46875 -0.296875 51.515625 -0.859375  Q 49.5625 -1.421875 47.703125 -1.421875  Q 44.484375 -1.421875 42.65625 0.625  Q 40.828125 2.6875 40.828125 6.296875  Q 38.09375 2.390625 34.296875 0.484375  Q 30.515625 -1.421875 25.390625 -1.421875  Q 20.84375 -1.421875 17.453125 0.671875  Q 14.0625 2.78125 12.984375 6.203125  L 7.71875 -20.796875  z " id="DejaVuSans-Oblique-3bc"/>
      <path d="M 52 44.1875  Q 55.375 50.25 60.0625 53.125  Q 64.75 56 71.09375 56  Q 79.640625 56 84.28125 50.015625  Q 88.921875 44.046875 88.921875 33.015625  L 88.921875 0  L 79.890625 0  L 79.890625 32.71875  Q 79.890625 40.578125 77.09375 44.375  Q 74.3125 48.1875 68.609375 48.1875  Q 61.625 48.1875 57.5625 43.546875  Q 53.515625 38.921875 53.515625 30.90625  L 53.515625 0  L 44.484375 0  L 44.484375 32.71875  Q 44.484375 40.625 41.703125 44.40625  Q 38.921875 48.1875 33.109375 48.1875  Q 26.21875 48.1875 22.15625 43.53125  Q 18.109375 38.875 18.109375 30.90625  L 18.109375 0  L 9.078125 0  L 9.078125 54.6875  L 18.109375 54.6875  L 18.109375 46.1875  Q 21.1875 51.21875 25.484375 53.609375  Q 29.78125 56 35.6875 56  Q 41.65625 56 45.828125 52.96875  Q 50 49.953125 52 44.1875  z " id="DejaVuSans-6d"/>
      <path d="M 8.015625 75.875  L 15.828125 75.875  Q 23.140625 64.359375 26.78125 53.3125  Q 30.421875 42.28125 30.421875 31.390625  Q 30.421875 20.453125 26.78125 9.375  Q 23.140625 -1.703125 15.828125 -13.1875  L 8.015625 -13.1875  Q 14.5 -2 17.703125 9.0625  Q 20.90625 20.125 20.90625 31.390625  Q 20.90625 42.671875 17.703125 53.65625  Q 14.5 64.65625 8.015625 75.875  z " id="DejaVuSans-29"/>
     </defs>
     <g transform="translate(223.076 329.038125)scale(0.1 -0.1)">
      <use transform="translate(0 0.015625)" xlink:href="#DejaVuSans-44"/>
      <use transform="translate(77.001953 0.015625)" xlink:href="#DejaVuSans-69"/>
      <use transform="translate(104.785156 0.015625)" xlink:href="#DejaVuSans-73"/>
      <use transform="translate(156.884766 0.015625)" xlink:href="#DejaVuSans-74"/>
      <use transform="translate(196.09375 0.015625)" xlink:href="#DejaVuSans-61"/>
      <use transform="translate(257.373047 0.015625)" xlink:href="#DejaVuSans-6e"/>
      <use transform="translate(320.751953 0.015625)" xlink:href="#DejaVuSans-63"/>
      <use transform="translate(375.732422 0.015625)" xlink:href="#DejaVuSans-65"/>
      <use transform="translate(437.255859 0.015625)" xlink:href="#DejaVuSans-20"/>
      <use transform="translate(469.042969 0.015625)" xlink:href="#DejaVuSans-28"/>
      <use transform="translate(508.056641 0.015625)" xlink:href="#DejaVuSans-Oblique-3bc"/>
      <use transform="translate(571.679688 0.015625)" xlink:href="#DejaVuSans-6d"/>
      <use transform="translate(669.091797 0.015625)" xlink:href="#DejaVuSans-29"/>
     </g>
    </g>
   </g>
   <g id="matplotlib.axis_2">
    <g id="ytick_1">
     <g id="line2d_8">
      <defs>
       <path d="M 0 0  L -3.5 0  " id="m94aecd2e3a" style="stroke:#000000;stroke-width:0.8;"/>
      </defs>
      <g>
       <use style="stroke:#000000;stroke-width:0.8;" x="69.572" xlink:href="#m94aecd2e3a" y="273.653764"/>
      </g>
     </g>
     <g id="text_9">
      <!-- &#8722;1000 -->
      <defs>
       <path d="M 10.59375 35.5  L 73.1875 35.5  L 73.1875 27.203125  L 10.59375 27.203125  z " id="DejaVuSans-2212"/>
      </defs>
      <g transform="translate(28.742313 277.452983)scale(0.1 -0.1)">
       <use xlink:href="#DejaVuSans-2212"/>
       <use x="83.789062" xlink:href="#DejaVuSans-31"/>
       <use x="147.412109" xlink:href="#DejaVuSans-30"/>
       <use x="211.035156" xlink:href="#DejaVuSans-30"/>
       <use x="274.658203" xlink:href="#DejaVuSans-30"/>
      </g>
     </g>
    </g>
    <g id="ytick_2">
     <g id="line2d_9">
      <g>
       <use style="stroke:#000000;stroke-width:0.8;" x="69.572" xlink:href="#m94aecd2e3a" y="240.21972"/>
      </g>
     </g>
     <g id="text_10">
      <!-- &#8722;750 -->
      <defs>
       <path d="M 8.203125 72.90625  L 55.078125 72.90625  L 55.078125 68.703125  L 28.609375 0  L 18.3125 0  L 43.21875 64.59375  L 8.203125 64.59375  z " id="DejaVuSans-37"/>
       <path d="M 10.796875 72.90625  L 49.515625 72.90625  L 49.515625 64.59375  L 19.828125 64.59375  L 19.828125 46.734375  Q 21.96875 47.46875 24.109375 47.828125  Q 26.265625 48.1875 28.421875 48.1875  Q 40.625 48.1875 47.75 41.5  Q 54.890625 34.8125 54.890625 23.390625  Q 54.890625 11.625 47.5625 5.09375  Q 40.234375 -1.421875 26.90625 -1.421875  Q 22.3125 -1.421875 17.546875 -0.640625  Q 12.796875 0.140625 7.71875 1.703125  L 7.71875 11.625  Q 12.109375 9.234375 16.796875 8.0625  Q 21.484375 6.890625 26.703125 6.890625  Q 35.15625 6.890625 40.078125 11.328125  Q 45.015625 15.765625 45.015625 23.390625  Q 45.015625 31 40.078125 35.4375  Q 35.15625 39.890625 26.703125 39.890625  Q 22.75 39.890625 18.8125 39.015625  Q 14.890625 38.140625 10.796875 36.28125  z " id="DejaVuSans-35"/>
      </defs>
      <g transform="translate(35.104813 244.018938)scale(0.1 -0.1)">
       <use xlink:href="#DejaVuSans-2212"/>
       <use x="83.789062" xlink:href="#DejaVuSans-37"/>
       <use x="147.412109" xlink:href="#DejaVuSans-35"/>
       <use x="211.035156" xlink:href="#DejaVuSans-30"/>
      </g>
     </g>
    </g>
    <g id="ytick_3">
     <g id="line2d_10">
      <g>
       <use style="stroke:#000000;stroke-width:0.8;" x="69.572" xlink:href="#m94aecd2e3a" y="206.785675"/>
      </g>
     </g>
     <g id="text_11">
      <!-- &#8722;500 -->
      <g transform="translate(35.104813 210.584894)scale(0.1 -0.1)">
       <use xlink:href="#DejaVuSans-2212"/>
       <use x="83.789062" xlink:href="#DejaVuSans-35"/>
       <use x="147.412109" xlink:href="#DejaVuSans-30"/>
       <use x="211.035156" xlink:href="#DejaVuSans-30"/>
      </g>
     </g>
    </g>
    <g id="ytick_4">
     <g id="line2d_11">
      <g>
       <use style="stroke:#000000;stroke-width:0.8;" x="69.572" xlink:href="#m94aecd2e3a" y="173.351631"/>
      </g>
     </g>
     <g id="text_12">
      <!-- &#8722;250 -->
      <g transform="translate(35.104813 177.15085)scale(0.1 -0.1)">
       <use xlink:href="#DejaVuSans-2212"/>
       <use x="83.789062" xlink:href="#DejaVuSans-32"/>
       <use x="147.412109" xlink:href="#DejaVuSans-35"/>
       <use x="211.035156" xlink:href="#DejaVuSans-30"/>
      </g>
     </g>
    </g>
    <g id="ytick_5">
     <g id="line2d_12">
      <g>
       <use style="stroke:#000000;stroke-width:0.8;" x="69.572" xlink:href="#m94aecd2e3a" y="139.917587"/>
      </g>
     </g>
     <g id="text_13">
      <!-- 0 -->
      <g transform="translate(56.2095 143.716805)scale(0.1 -0.1)">
       <use xlink:href="#DejaVuSans-30"/>
      </g>
     </g>
    </g>
    <g id="ytick_6">
     <g id="line2d_13">
      <g>
       <use style="stroke:#000000;stroke-width:0.8;" x="69.572" xlink:href="#m94aecd2e3a" y="106.483542"/>
      </g>
     </g>
     <g id="text_14">
      <!-- 250 -->
      <g transform="translate(43.4845 110.282761)scale(0.1 -0.1)">
       <use xlink:href="#DejaVuSans-32"/>
       <use x="63.623047" xlink:href="#DejaVuSans-35"/>
       <use x="127.246094" xlink:href="#DejaVuSans-30"/>
      </g>
     </g>
    </g>
    <g id="ytick_7">
     <g id="line2d_14">
      <g>
       <use style="stroke:#000000;stroke-width:0.8;" x="69.572" xlink:href="#m94aecd2e3a" y="73.049498"/>
      </g>
     </g>
     <g id="text_15">
      <!-- 500 -->
      <g transform="translate(43.4845 76.848717)scale(0.1 -0.1)">
       <use xlink:href="#DejaVuSans-35"/>
       <use x="63.623047" xlink:href="#DejaVuSans-30"/>
       <use x="127.246094" xlink:href="#DejaVuSans-30"/>
      </g>
     </g>
    </g>
    <g id="ytick_8">
     <g id="line2d_15">
      <g>
       <use style="stroke:#000000;stroke-width:0.8;" x="69.572" xlink:href="#m94aecd2e3a" y="39.615454"/>
      </g>
     </g>
     <g id="text_16">
      <!-- 750 -->
      <g transform="translate(43.4845 43.414672)scale(0.1 -0.1)">
       <use xlink:href="#DejaVuSans-37"/>
       <use x="63.623047" xlink:href="#DejaVuSans-35"/>
       <use x="127.246094" xlink:href="#DejaVuSans-30"/>
      </g>
     </g>
    </g>
    <g id="text_17">
     <!-- Flux (at.-fr.m/s)$\times10^{-14}$ -->
     <defs>
      <path d="M 9.8125 72.90625  L 51.703125 72.90625  L 51.703125 64.59375  L 19.671875 64.59375  L 19.671875 43.109375  L 48.578125 43.109375  L 48.578125 34.8125  L 19.671875 34.8125  L 19.671875 0  L 9.8125 0  z " id="DejaVuSans-46"/>
      <path d="M 9.421875 75.984375  L 18.40625 75.984375  L 18.40625 0  L 9.421875 0  z " id="DejaVuSans-6c"/>
      <path d="M 8.5 21.578125  L 8.5 54.6875  L 17.484375 54.6875  L 17.484375 21.921875  Q 17.484375 14.15625 20.5 10.265625  Q 23.53125 6.390625 29.59375 6.390625  Q 36.859375 6.390625 41.078125 11.03125  Q 45.3125 15.671875 45.3125 23.6875  L 45.3125 54.6875  L 54.296875 54.6875  L 54.296875 0  L 45.3125 0  L 45.3125 8.40625  Q 42.046875 3.421875 37.71875 1  Q 33.40625 -1.421875 27.6875 -1.421875  Q 18.265625 -1.421875 13.375 4.4375  Q 8.5 10.296875 8.5 21.578125  z M 31.109375 56  z " id="DejaVuSans-75"/>
      <path d="M 54.890625 54.6875  L 35.109375 28.078125  L 55.90625 0  L 45.3125 0  L 29.390625 21.484375  L 13.484375 0  L 2.875 0  L 24.125 28.609375  L 4.6875 54.6875  L 15.28125 54.6875  L 29.78125 35.203125  L 44.28125 54.6875  z " id="DejaVuSans-78"/>
      <path d="M 10.6875 12.40625  L 21 12.40625  L 21 0  L 10.6875 0  z " id="DejaVuSans-2e"/>
      <path d="M 4.890625 31.390625  L 31.203125 31.390625  L 31.203125 23.390625  L 4.890625 23.390625  z " id="DejaVuSans-2d"/>
      <path d="M 37.109375 75.984375  L 37.109375 68.5  L 28.515625 68.5  Q 23.6875 68.5 21.796875 66.546875  Q 19.921875 64.59375 19.921875 59.515625  L 19.921875 54.6875  L 34.71875 54.6875  L 34.71875 47.703125  L 19.921875 47.703125  L 19.921875 0  L 10.890625 0  L 10.890625 47.703125  L 2.296875 47.703125  L 2.296875 54.6875  L 10.890625 54.6875  L 10.890625 58.5  Q 10.890625 67.625 15.140625 71.796875  Q 19.390625 75.984375 28.609375 75.984375  z " id="DejaVuSans-66"/>
      <path d="M 41.109375 46.296875  Q 39.59375 47.171875 37.8125 47.578125  Q 36.03125 48 33.890625 48  Q 26.265625 48 22.1875 43.046875  Q 18.109375 38.09375 18.109375 28.8125  L 18.109375 0  L 9.078125 0  L 9.078125 54.6875  L 18.109375 54.6875  L 18.109375 46.1875  Q 20.953125 51.171875 25.484375 53.578125  Q 30.03125 56 36.53125 56  Q 37.453125 56 38.578125 55.875  Q 39.703125 55.765625 41.0625 55.515625  z " id="DejaVuSans-72"/>
      <path d="M 25.390625 72.90625  L 33.6875 72.90625  L 8.296875 -9.28125  L 0 -9.28125  z " id="DejaVuSans-2f"/>
      <path d="M 70.125 53.71875  L 47.796875 31.296875  L 70.125 8.984375  L 64.3125 3.078125  L 41.890625 25.484375  L 19.484375 3.078125  L 13.71875 8.984375  L 35.984375 31.296875  L 13.71875 53.71875  L 19.484375 59.625  L 41.890625 37.203125  L 64.3125 59.625  z " id="DejaVuSans-d7"/>
     </defs>
     <g transform="translate(22.662625 214.04)rotate(-90)scale(0.1 -0.1)">
      <use transform="translate(0 0.684375)" xlink:href="#DejaVuSans-46"/>
      <use transform="translate(57.519531 0.684375)" xlink:href="#DejaVuSans-6c"/>
      <use transform="translate(85.302734 0.684375)" xlink:href="#DejaVuSans-75"/>
      <use transform="translate(148.681641 0.684375)" xlink:href="#DejaVuSans-78"/>
      <use transform="translate(207.861328 0.684375)" xlink:href="#DejaVuSans-20"/>
      <use transform="translate(239.648438 0.684375)" xlink:href="#DejaVuSans-28"/>
      <use transform="translate(278.662109 0.684375)" xlink:href="#DejaVuSans-61"/>
      <use transform="translate(339.941406 0.684375)" xlink:href="#DejaVuSans-74"/>
      <use transform="translate(379.150391 0.684375)" xlink:href="#DejaVuSans-2e"/>
      <use transform="translate(410.9375 0.684375)" xlink:href="#DejaVuSans-2d"/>
      <use transform="translate(447.021484 0.684375)" xlink:href="#DejaVuSans-66"/>
      <use transform="translate(482.226562 0.684375)" xlink:href="#DejaVuSans-72"/>
      <use transform="translate(523.339844 0.684375)" xlink:href="#DejaVuSans-2e"/>
      <use transform="translate(555.033203 0.684375)" xlink:href="#DejaVuSans-6d"/>
      <use transform="translate(652.445312 0.684375)" xlink:href="#DejaVuSans-2f"/>
      <use transform="translate(686.136719 0.684375)" xlink:href="#DejaVuSans-73"/>
      <use transform="translate(738.236328 0.684375)" xlink:href="#DejaVuSans-29"/>
      <use transform="translate(777.25 0.684375)" xlink:href="#DejaVuSans-d7"/>
      <use transform="translate(861.039062 0.684375)" xlink:href="#DejaVuSans-31"/>
      <use transform="translate(924.662109 0.684375)" xlink:href="#DejaVuSans-30"/>
      <use transform="translate(989.242188 38.965625)scale(0.7)" xlink:href="#DejaVuSans-2212"/>
      <use transform="translate(1047.894531 38.965625)scale(0.7)" xlink:href="#DejaVuSans-31"/>
      <use transform="translate(1092.430664 38.965625)scale(0.7)" xlink:href="#DejaVuSans-34"/>
     </g>
    </g>
   </g>
   <g id="line2d_16">
    <defs>
     <path d="M -0 3  L 3 -3  L -3 -3  z " id="m2a410c8dd6" style="stroke:#e74c3c;stroke-linejoin:miter;"/>
    </defs>
    <g clip-path="url(#p3f70c4dc19)">
     <use style="fill:#e74c3c;stroke:#e74c3c;stroke-linejoin:miter;" x="69.572" xlink:href="#m2a410c8dd6" y="139.914733"/>
     <use style="fill:#e74c3c;stroke:#e74c3c;stroke-linejoin:miter;" x="77.168141" xlink:href="#m2a410c8dd6" y="139.903343"/>
     <use style="fill:#e74c3c;stroke:#e74c3c;stroke-linejoin:miter;" x="84.764281" xlink:href="#m2a410c8dd6" y="139.878778"/>
     <use style="fill:#e74c3c;stroke:#e74c3c;stroke-linejoin:miter;" x="92.360422" xlink:href="#m2a410c8dd6" y="139.837346"/>
     <use style="fill:#e74c3c;stroke:#e74c3c;stroke-linejoin:miter;" x="99.956563" xlink:href="#m2a410c8dd6" y="139.769007"/>
     <use style="fill:#e74c3c;stroke:#e74c3c;stroke-linejoin:miter;" x="107.552704" xlink:href="#m2a410c8dd6" y="139.658786"/>
     <use style="fill:#e74c3c;stroke:#e74c3c;stroke-linejoin:miter;" x="115.148844" xlink:href="#m2a410c8dd6" y="139.484985"/>
     <use style="fill:#e74c3c;stroke:#e74c3c;stroke-linejoin:miter;" x="122.744985" xlink:href="#m2a410c8dd6" y="139.217084"/>
     <use style="fill:#e74c3c;stroke:#e74c3c;stroke-linejoin:miter;" x="130.341126" xlink:href="#m2a410c8dd6" y="138.813476"/>
     <use style="fill:#e74c3c;stroke:#e74c3c;stroke-linejoin:miter;" x="137.937266" xlink:href="#m2a410c8dd6" y="138.219293"/>
     <use style="fill:#e74c3c;stroke:#e74c3c;stroke-linejoin:miter;" x="145.533407" xlink:href="#m2a410c8dd6" y="137.364696"/>
     <use style="fill:#e74c3c;stroke:#e74c3c;stroke-linejoin:miter;" x="153.129548" xlink:href="#m2a410c8dd6" y="136.164176"/>
     <use style="fill:#e74c3c;stroke:#e74c3c;stroke-linejoin:miter;" x="160.725688" xlink:href="#m2a410c8dd6" y="134.517478"/>
     <use style="fill:#e74c3c;stroke:#e74c3c;stroke-linejoin:miter;" x="168.321829" xlink:href="#m2a410c8dd6" y="132.312825"/>
     <use style="fill:#e74c3c;stroke:#e74c3c;stroke-linejoin:miter;" x="175.91797" xlink:href="#m2a410c8dd6" y="129.433013"/>
     <use style="fill:#e74c3c;stroke:#e74c3c;stroke-linejoin:miter;" x="183.514111" xlink:href="#m2a410c8dd6" y="125.764716"/>
     <use style="fill:#e74c3c;stroke:#e74c3c;stroke-linejoin:miter;" x="191.110251" xlink:href="#m2a410c8dd6" y="121.210945"/>
     <use style="fill:#e74c3c;stroke:#e74c3c;stroke-linejoin:miter;" x="198.706392" xlink:href="#m2a410c8dd6" y="115.706014"/>
     <use style="fill:#e74c3c;stroke:#e74c3c;stroke-linejoin:miter;" x="206.302533" xlink:href="#m2a410c8dd6" y="109.231777"/>
     <use style="fill:#e74c3c;stroke:#e74c3c;stroke-linejoin:miter;" x="213.898673" xlink:href="#m2a410c8dd6" y="101.833213"/>
     <use style="fill:#e74c3c;stroke:#e74c3c;stroke-linejoin:miter;" x="221.494814" xlink:href="#m2a410c8dd6" y="93.63101"/>
     <use style="fill:#e74c3c;stroke:#e74c3c;stroke-linejoin:miter;" x="229.090955" xlink:href="#m2a410c8dd6" y="84.828605"/>
     <use style="fill:#e74c3c;stroke:#e74c3c;stroke-linejoin:miter;" x="236.687095" xlink:href="#m2a410c8dd6" y="75.711406"/>
     <use style="fill:#e74c3c;stroke:#e74c3c;stroke-linejoin:miter;" x="244.283236" xlink:href="#m2a410c8dd6" y="66.636616"/>
     <use style="fill:#e74c3c;stroke:#e74c3c;stroke-linejoin:miter;" x="251.879377" xlink:href="#m2a410c8dd6" y="58.013275"/>
     <use style="fill:#e74c3c;stroke:#e74c3c;stroke-linejoin:miter;" x="259.475518" xlink:href="#m2a410c8dd6" y="50.273542"/>
     <use style="fill:#e74c3c;stroke:#e74c3c;stroke-linejoin:miter;" x="267.071658" xlink:href="#m2a410c8dd6" y="43.837762"/>
     <use style="fill:#e74c3c;stroke:#e74c3c;stroke-linejoin:miter;" x="274.667799" xlink:href="#m2a410c8dd6" y="39.077124"/>
     <use style="fill:#e74c3c;stroke:#e74c3c;stroke-linejoin:miter;" x="282.26394" xlink:href="#m2a410c8dd6" y="36.278478"/>
     <use style="fill:#e74c3c;stroke:#e74c3c;stroke-linejoin:miter;" x="289.86008" xlink:href="#m2a410c8dd6" y="35.615924"/>
     <use style="fill:#e74c3c;stroke:#e74c3c;stroke-linejoin:miter;" x="297.456221" xlink:href="#m2a410c8dd6" y="37.133093"/>
     <use style="fill:#e74c3c;stroke:#e74c3c;stroke-linejoin:miter;" x="305.052362" xlink:href="#m2a410c8dd6" y="40.738617"/>
     <use style="fill:#e74c3c;stroke:#e74c3c;stroke-linejoin:miter;" x="312.648503" xlink:href="#m2a410c8dd6" y="46.215433"/>
     <use style="fill:#e74c3c;stroke:#e74c3c;stroke-linejoin:miter;" x="320.244643" xlink:href="#m2a410c8dd6" y="53.242611"/>
     <use style="fill:#e74c3c;stroke:#e74c3c;stroke-linejoin:miter;" x="327.840784" xlink:href="#m2a410c8dd6" y="61.426637"/>
     <use style="fill:#e74c3c;stroke:#e74c3c;stroke-linejoin:miter;" x="335.436925" xlink:href="#m2a410c8dd6" y="70.337925"/>
     <use style="fill:#e74c3c;stroke:#e74c3c;stroke-linejoin:miter;" x="343.033065" xlink:href="#m2a410c8dd6" y="79.54785"/>
     <use style="fill:#e74c3c;stroke:#e74c3c;stroke-linejoin:miter;" x="350.629206" xlink:href="#m2a410c8dd6" y="88.661933"/>
     <use style="fill:#e74c3c;stroke:#e74c3c;stroke-linejoin:miter;" x="358.225347" xlink:href="#m2a410c8dd6" y="97.345755"/>
     <use style="fill:#e74c3c;stroke:#e74c3c;stroke-linejoin:miter;" x="365.821487" xlink:href="#m2a410c8dd6" y="105.34158"/>
     <use style="fill:#e74c3c;stroke:#e74c3c;stroke-linejoin:miter;" x="373.417628" xlink:href="#m2a410c8dd6" y="112.475149"/>
     <use style="fill:#e74c3c;stroke:#e74c3c;stroke-linejoin:miter;" x="381.013769" xlink:href="#m2a410c8dd6" y="118.653504"/>
     <use style="fill:#e74c3c;stroke:#e74c3c;stroke-linejoin:miter;" x="388.60991" xlink:href="#m2a410c8dd6" y="123.855712"/>
     <use style="fill:#e74c3c;stroke:#e74c3c;stroke-linejoin:miter;" x="396.20605" xlink:href="#m2a410c8dd6" y="128.118903"/>
     <use style="fill:#e74c3c;stroke:#e74c3c;stroke-linejoin:miter;" x="403.802191" xlink:href="#m2a410c8dd6" y="131.522166"/>
     <use style="fill:#e74c3c;stroke:#e74c3c;stroke-linejoin:miter;" x="411.398332" xlink:href="#m2a410c8dd6" y="134.170516"/>
     <use style="fill:#e74c3c;stroke:#e74c3c;stroke-linejoin:miter;" x="418.994472" xlink:href="#m2a410c8dd6" y="136.180646"/>
     <use style="fill:#e74c3c;stroke:#e74c3c;stroke-linejoin:miter;" x="426.590613" xlink:href="#m2a410c8dd6" y="137.66948"/>
     <use style="fill:#e74c3c;stroke:#e74c3c;stroke-linejoin:miter;" x="434.186754" xlink:href="#m2a410c8dd6" y="138.745982"/>
     <use style="fill:#e74c3c;stroke:#e74c3c;stroke-linejoin:miter;" x="441.782894" xlink:href="#m2a410c8dd6" y="139.506087"/>
    </g>
   </g>
   <g id="line2d_17">
    <defs>
     <path d="M 0 -3  L -0.673542 -0.927051  L -2.85317 -0.927051  L -1.089814 0.354102  L -1.763356 2.427051  L -0 1.145898  L 1.763356 2.427051  L 1.089814 0.354102  L 2.85317 -0.927051  L 0.673542 -0.927051  z " id="mc62f00de2d" style="stroke:#808000;stroke-linejoin:bevel;"/>
    </defs>
    <g clip-path="url(#p3f70c4dc19)">
     <use style="fill:#808000;stroke:#808000;stroke-linejoin:bevel;" x="69.572" xlink:href="#mc62f00de2d" y="139.917586"/>
     <use style="fill:#808000;stroke:#808000;stroke-linejoin:bevel;" x="77.168141" xlink:href="#mc62f00de2d" y="139.917584"/>
     <use style="fill:#808000;stroke:#808000;stroke-linejoin:bevel;" x="84.764281" xlink:href="#mc62f00de2d" y="139.917574"/>
     <use style="fill:#808000;stroke:#808000;stroke-linejoin:bevel;" x="92.360422" xlink:href="#mc62f00de2d" y="139.917547"/>
     <use style="fill:#808000;stroke:#808000;stroke-linejoin:bevel;" x="99.956563" xlink:href="#mc62f00de2d" y="139.917473"/>
     <use style="fill:#808000;stroke:#808000;stroke-linejoin:bevel;" x="107.552704" xlink:href="#mc62f00de2d" y="139.917276"/>
     <use style="fill:#808000;stroke:#808000;stroke-linejoin:bevel;" x="115.148844" xlink:href="#mc62f00de2d" y="139.916775"/>
     <use style="fill:#808000;stroke:#808000;stroke-linejoin:bevel;" x="122.744985" xlink:href="#mc62f00de2d" y="139.915555"/>
     <use style="fill:#808000;stroke:#808000;stroke-linejoin:bevel;" x="130.341126" xlink:href="#mc62f00de2d" y="139.912707"/>
     <use style="fill:#808000;stroke:#808000;stroke-linejoin:bevel;" x="137.937266" xlink:href="#mc62f00de2d" y="139.906343"/>
     <use style="fill:#808000;stroke:#808000;stroke-linejoin:bevel;" x="145.533407" xlink:href="#mc62f00de2d" y="139.892727"/>
     <use style="fill:#808000;stroke:#808000;stroke-linejoin:bevel;" x="153.129548" xlink:href="#mc62f00de2d" y="139.864839"/>
     <use style="fill:#808000;stroke:#808000;stroke-linejoin:bevel;" x="160.725688" xlink:href="#mc62f00de2d" y="139.810175"/>
     <use style="fill:#808000;stroke:#808000;stroke-linejoin:bevel;" x="168.321829" xlink:href="#mc62f00de2d" y="139.707675"/>
     <use style="fill:#808000;stroke:#808000;stroke-linejoin:bevel;" x="175.91797" xlink:href="#mc62f00de2d" y="139.523892"/>
     <use style="fill:#808000;stroke:#808000;stroke-linejoin:bevel;" x="183.514111" xlink:href="#mc62f00de2d" y="139.208956"/>
     <use style="fill:#808000;stroke:#808000;stroke-linejoin:bevel;" x="191.110251" xlink:href="#mc62f00de2d" y="138.693478"/>
     <use style="fill:#808000;stroke:#808000;stroke-linejoin:bevel;" x="198.706392" xlink:href="#mc62f00de2d" y="137.888226"/>
     <use style="fill:#808000;stroke:#808000;stroke-linejoin:bevel;" x="206.302533" xlink:href="#mc62f00de2d" y="136.688814"/>
     <use style="fill:#808000;stroke:#808000;stroke-linejoin:bevel;" x="213.898673" xlink:href="#mc62f00de2d" y="134.987494"/>
     <use style="fill:#808000;stroke:#808000;stroke-linejoin:bevel;" x="221.494814" xlink:href="#mc62f00de2d" y="132.693017"/>
     <use style="fill:#808000;stroke:#808000;stroke-linejoin:bevel;" x="229.090955" xlink:href="#mc62f00de2d" y="129.757249"/>
     <use style="fill:#808000;stroke:#808000;stroke-linejoin:bevel;" x="236.687095" xlink:href="#mc62f00de2d" y="126.204237"/>
     <use style="fill:#808000;stroke:#808000;stroke-linejoin:bevel;" x="244.283236" xlink:href="#mc62f00de2d" y="122.15451"/>
     <use style="fill:#808000;stroke:#808000;stroke-linejoin:bevel;" x="251.879377" xlink:href="#mc62f00de2d" y="117.835912"/>
     <use style="fill:#808000;stroke:#808000;stroke-linejoin:bevel;" x="259.475518" xlink:href="#mc62f00de2d" y="113.573391"/>
     <use style="fill:#808000;stroke:#808000;stroke-linejoin:bevel;" x="267.071658" xlink:href="#mc62f00de2d" y="109.754421"/>
     <use style="fill:#808000;stroke:#808000;stroke-linejoin:bevel;" x="274.667799" xlink:href="#mc62f00de2d" y="106.773365"/>
     <use style="fill:#808000;stroke:#808000;stroke-linejoin:bevel;" x="282.26394" xlink:href="#mc62f00de2d" y="104.965145"/>
     <use style="fill:#808000;stroke:#808000;stroke-linejoin:bevel;" x="289.86008" xlink:href="#mc62f00de2d" y="104.543457"/>
     <use style="fill:#808000;stroke:#808000;stroke-linejoin:bevel;" x="297.456221" xlink:href="#mc62f00de2d" y="105.55924"/>
     <use style="fill:#808000;stroke:#808000;stroke-linejoin:bevel;" x="305.052362" xlink:href="#mc62f00de2d" y="107.890567"/>
     <use style="fill:#808000;stroke:#808000;stroke-linejoin:bevel;" x="312.648503" xlink:href="#mc62f00de2d" y="111.266713"/>
     <use style="fill:#808000;stroke:#808000;stroke-linejoin:bevel;" x="320.244643" xlink:href="#mc62f00de2d" y="115.319845"/>
     <use style="fill:#808000;stroke:#808000;stroke-linejoin:bevel;" x="327.840784" xlink:href="#mc62f00de2d" y="119.650706"/>
     <use style="fill:#808000;stroke:#808000;stroke-linejoin:bevel;" x="335.436925" xlink:href="#mc62f00de2d" y="123.892137"/>
     <use style="fill:#808000;stroke:#808000;stroke-linejoin:bevel;" x="343.033065" xlink:href="#mc62f00de2d" y="127.756828"/>
     <use style="fill:#808000;stroke:#808000;stroke-linejoin:bevel;" x="350.629206" xlink:href="#mc62f00de2d" y="131.061727"/>
     <use style="fill:#808000;stroke:#808000;stroke-linejoin:bevel;" x="358.225347" xlink:href="#mc62f00de2d" y="133.728774"/>
     <use style="fill:#808000;stroke:#808000;stroke-linejoin:bevel;" x="365.821487" xlink:href="#mc62f00de2d" y="135.767405"/>
     <use style="fill:#808000;stroke:#808000;stroke-linejoin:bevel;" x="373.417628" xlink:href="#mc62f00de2d" y="137.247244"/>
     <use style="fill:#808000;stroke:#808000;stroke-linejoin:bevel;" x="381.013769" xlink:href="#mc62f00de2d" y="138.269327"/>
     <use style="fill:#808000;stroke:#808000;stroke-linejoin:bevel;" x="388.60991" xlink:href="#mc62f00de2d" y="138.941961"/>
     <use style="fill:#808000;stroke:#808000;stroke-linejoin:bevel;" x="396.20605" xlink:href="#mc62f00de2d" y="139.364214"/>
     <use style="fill:#808000;stroke:#808000;stroke-linejoin:bevel;" x="403.802191" xlink:href="#mc62f00de2d" y="139.617289"/>
     <use style="fill:#808000;stroke:#808000;stroke-linejoin:bevel;" x="411.398332" xlink:href="#mc62f00de2d" y="139.762204"/>
     <use style="fill:#808000;stroke:#808000;stroke-linejoin:bevel;" x="418.994472" xlink:href="#mc62f00de2d" y="139.84153"/>
     <use style="fill:#808000;stroke:#808000;stroke-linejoin:bevel;" x="426.590613" xlink:href="#mc62f00de2d" y="139.883059"/>
     <use style="fill:#808000;stroke:#808000;stroke-linejoin:bevel;" x="434.186754" xlink:href="#mc62f00de2d" y="139.903861"/>
     <use style="fill:#808000;stroke:#808000;stroke-linejoin:bevel;" x="441.782894" xlink:href="#mc62f00de2d" y="139.913834"/>
    </g>
   </g>
   <g id="line2d_18">
    <defs>
     <path d="M 0 3  C 0.795609 3 1.55874 2.683901 2.12132 2.12132  C 2.683901 1.55874 3 0.795609 3 0  C 3 -0.795609 2.683901 -1.55874 2.12132 -2.12132  C 1.55874 -2.683901 0.795609 -3 0 -3  C -0.795609 -3 -1.55874 -2.683901 -2.12132 -2.12132  C -2.683901 -1.55874 -3 -0.795609 -3 0  C -3 0.795609 -2.683901 1.55874 -2.12132 2.12132  C -1.55874 2.683901 -0.795609 3 0 3  z " id="m38eeba63c9" style="stroke:#008080;"/>
    </defs>
    <g clip-path="url(#p3f70c4dc19)">
     <use style="fill:#008080;stroke:#008080;" x="69.572" xlink:href="#m38eeba63c9" y="139.92044"/>
     <use style="fill:#008080;stroke:#008080;" x="77.168141" xlink:href="#m38eeba63c9" y="139.931834"/>
     <use style="fill:#008080;stroke:#008080;" x="84.764281" xlink:href="#m38eeba63c9" y="139.956407"/>
     <use style="fill:#008080;stroke:#008080;" x="92.360422" xlink:href="#m38eeba63c9" y="139.997866"/>
     <use style="fill:#008080;stroke:#008080;" x="99.956563" xlink:href="#m38eeba63c9" y="140.06628"/>
     <use style="fill:#008080;stroke:#008080;" x="107.552704" xlink:href="#m38eeba63c9" y="140.176698"/>
     <use style="fill:#008080;stroke:#008080;" x="115.148844" xlink:href="#m38eeba63c9" y="140.350999"/>
     <use style="fill:#008080;stroke:#008080;" x="122.744985" xlink:href="#m38eeba63c9" y="140.620121"/>
     <use style="fill:#008080;stroke:#008080;" x="130.341126" xlink:href="#m38eeba63c9" y="141.026577"/>
     <use style="fill:#008080;stroke:#008080;" x="137.937266" xlink:href="#m38eeba63c9" y="141.627124"/>
     <use style="fill:#008080;stroke:#008080;" x="145.533407" xlink:href="#m38eeba63c9" y="142.495337"/>
     <use style="fill:#008080;stroke:#008080;" x="153.129548" xlink:href="#m38eeba63c9" y="143.723745"/>
     <use style="fill:#008080;stroke:#008080;" x="160.725688" xlink:href="#m38eeba63c9" y="145.425107"/>
     <use style="fill:#008080;stroke:#008080;" x="168.321829" xlink:href="#m38eeba63c9" y="147.73226"/>
     <use style="fill:#008080;stroke:#008080;" x="175.91797" xlink:href="#m38eeba63c9" y="150.795855"/>
     <use style="fill:#008080;stroke:#008080;" x="183.514111" xlink:href="#m38eeba63c9" y="154.779088"/>
     <use style="fill:#008080;stroke:#008080;" x="191.110251" xlink:href="#m38eeba63c9" y="159.848337"/>
     <use style="fill:#008080;stroke:#008080;" x="198.706392" xlink:href="#m38eeba63c9" y="166.158519"/>
     <use style="fill:#008080;stroke:#008080;" x="206.302533" xlink:href="#m38eeba63c9" y="173.832169"/>
     <use style="fill:#008080;stroke:#008080;" x="213.898673" xlink:href="#m38eeba63c9" y="182.932052"/>
     <use style="fill:#008080;stroke:#008080;" x="221.494814" xlink:href="#m38eeba63c9" y="193.428733"/>
     <use style="fill:#008080;stroke:#008080;" x="229.090955" xlink:href="#m38eeba63c9" y="205.166906"/>
     <use style="fill:#008080;stroke:#008080;" x="236.687095" xlink:href="#m38eeba63c9" y="217.837117"/>
     <use style="fill:#008080;stroke:#008080;" x="244.283236" xlink:href="#m38eeba63c9" y="230.961634"/>
     <use style="fill:#008080;stroke:#008080;" x="251.879377" xlink:href="#m38eeba63c9" y="243.903573"/>
     <use style="fill:#008080;stroke:#008080;" x="259.475518" xlink:href="#m38eeba63c9" y="255.905827"/>
     <use style="fill:#008080;stroke:#008080;" x="267.071658" xlink:href="#m38eeba63c9" y="266.160577"/>
     <use style="fill:#008080;stroke:#008080;" x="274.667799" xlink:href="#m38eeba63c9" y="273.902271"/>
     <use style="fill:#008080;stroke:#008080;" x="282.26394" xlink:href="#m38eeba63c9" y="278.509137"/>
     <use style="fill:#008080;stroke:#008080;" x="289.86008" xlink:href="#m38eeba63c9" y="279.593379"/>
     <use style="fill:#008080;stroke:#008080;" x="297.456221" xlink:href="#m38eeba63c9" y="277.060427"/>
     <use style="fill:#008080;stroke:#008080;" x="305.052362" xlink:href="#m38eeba63c9" y="271.123576"/>
     <use style="fill:#008080;stroke:#008080;" x="312.648503" xlink:href="#m38eeba63c9" y="262.270614"/>
     <use style="fill:#008080;stroke:#008080;" x="320.244643" xlink:href="#m38eeba63c9" y="251.190304"/>
     <use style="fill:#008080;stroke:#008080;" x="327.840784" xlink:href="#m38eeba63c9" y="238.675417"/>
     <use style="fill:#008080;stroke:#008080;" x="335.436925" xlink:href="#m38eeba63c9" y="225.522698"/>
     <use style="fill:#008080;stroke:#008080;" x="343.033065" xlink:href="#m38eeba63c9" y="212.448082"/>
     <use style="fill:#008080;stroke:#008080;" x="350.629206" xlink:href="#m38eeba63c9" y="200.029101"/>
     <use style="fill:#008080;stroke:#008080;" x="358.225347" xlink:href="#m38eeba63c9" y="188.678231"/>
     <use style="fill:#008080;stroke:#008080;" x="365.821487" xlink:href="#m38eeba63c9" y="178.643775"/>
     <use style="fill:#008080;stroke:#008080;" x="373.417628" xlink:href="#m38eeba63c9" y="170.030367"/>
     <use style="fill:#008080;stroke:#008080;" x="381.013769" xlink:href="#m38eeba63c9" y="162.829928"/>
     <use style="fill:#008080;stroke:#008080;" x="388.60991" xlink:href="#m38eeba63c9" y="156.955087"/>
     <use style="fill:#008080;stroke:#008080;" x="396.20605" xlink:href="#m38eeba63c9" y="152.269643"/>
     <use style="fill:#008080;stroke:#008080;" x="403.802191" xlink:href="#m38eeba63c9" y="148.613305"/>
     <use style="fill:#008080;stroke:#008080;" x="411.398332" xlink:href="#m38eeba63c9" y="145.820039"/>
     <use style="fill:#008080;stroke:#008080;" x="418.994472" xlink:href="#m38eeba63c9" y="143.730584"/>
     <use style="fill:#008080;stroke:#008080;" x="426.590613" xlink:href="#m38eeba63c9" y="142.20022"/>
     <use style="fill:#008080;stroke:#008080;" x="434.186754" xlink:href="#m38eeba63c9" y="141.102916"/>
     <use style="fill:#008080;stroke:#008080;" x="441.782894" xlink:href="#m38eeba63c9" y="140.332839"/>
    </g>
   </g>
   <g id="line2d_19">
    <path clip-path="url(#p3f70c4dc19)" d="M 69.202949 139.91615  L 88.24597 139.806565  L 105.960407 139.525171  L 117.917652 139.124623  L 127.217732 138.604503  L 135.189229 137.940105  L 141.832143 137.175324  L 148.032196 136.237484  L 153.346528 135.220978  L 158.217998 134.083022  L 163.089468 132.715103  L 167.518078 131.243227  L 171.946687 129.526072  L 175.932435 127.748136  L 179.918184 125.729186  L 183.903932 123.449898  L 187.889681 120.892336  L 191.875429 118.040788  L 195.861178 114.882737  L 199.846926 111.409947  L 203.832675 107.619664  L 207.929138 103.397444  L 212.136317 98.730256  L 216.564927 93.483179  L 221.657827 87.08324  L 227.857881 78.898019  L 245.572318 55.249041  L 250.167 49.642856  L 254.042034 45.25623  L 257.584921 41.572725  L 260.906378 38.438256  L 264.006405 35.814083  L 266.995716 33.57452  L 269.874312 31.697751  L 272.642193 30.15805  L 275.299359 28.927324  L 277.956524 27.940082  L 280.586011 27.202496  L 283.187819 26.705588  L 285.789627 26.437996  L 288.391435 26.396603  L 290.993243 26.577657  L 293.650409 26.987692  L 296.335253 27.627885  L 299.103134 28.519445  L 301.98173 29.688613  L 304.860326 31.095974  L 307.849638 32.799466  L 311.060379 34.890722  L 314.381836 37.322805  L 317.924724 40.196943  L 321.7444 43.590789  L 325.951578 47.643135  L 330.601618 52.447451  L 335.91595 58.268629  L 342.780294 66.139276  L 363.262613 89.85341  L 369.019805 96.079007  L 374.334136 101.51239  L 379.205606 106.189093  L 384.077077 110.550045  L 388.505686 114.227809  L 392.934295 117.626936  L 397.362905 120.747244  L 401.791514 123.592908  L 406.220124 126.171752  L 410.648733 128.494537  L 415.077342 130.574277  L 419.505952 132.425602  L 424.377422 134.216954  L 429.248892 135.772428  L 434.563224 137.22564  L 439.877555 138.451037  L 445.634747 139.551204  L 447.849052 139.846686  L 447.849052 139.846686  " style="fill:none;stroke:#e74c3c;stroke-linecap:square;stroke-width:2;"/>
   </g>
   <g id="line2d_20">
    <path clip-path="url(#p3f70c4dc19)" d="M 69.202949 139.917465  L 126.774871 139.808885  L 150.689362 139.560787  L 166.632356 139.186113  L 179.032462 138.680439  L 188.775403 138.075752  L 197.189761 137.337261  L 204.275536 136.497422  L 210.586304 135.523533  L 216.122066 134.444282  L 221.214966 133.223447  L 225.865006 131.885296  L 230.293616 130.388662  L 234.722225 128.660064  L 239.150834 126.696051  L 243.800874 124.394632  L 249.281278 121.421511  L 258.692073 115.997668  L 264.892127 112.564215  L 269.210021 110.423254  L 272.863623 108.854322  L 276.18508 107.666431  L 279.312786 106.78405  L 282.302097 106.172816  L 285.180693 105.808734  L 288.059289 105.669174  L 290.937885 105.753216  L 293.871839 106.06306  L 296.888829 106.606533  L 300.099571 107.417483  L 303.531743 108.523013  L 307.296061 109.979988  L 311.50324 111.853192  L 316.706856 114.426496  L 325.065857 118.849058  L 334.365936 123.697613  L 340.344559 126.561253  L 345.65889 128.862195  L 350.751791 130.822502  L 355.733977 132.499201  L 360.605447 133.911335  L 365.919778 135.209106  L 371.234109 136.2753  L 376.991302 137.200024  L 383.191355 137.968397  L 390.27713 138.612735  L 398.248627 139.110057  L 407.991567 139.488289  L 420.834535 139.749161  L 440.320416 139.89634  L 447.849052 139.916629  L 447.849052 139.916629  " style="fill:none;stroke:#808000;stroke-linecap:square;stroke-width:2;"/>
   </g>
   <g id="line2d_21">
    <path clip-path="url(#p3f70c4dc19)" d="M 69.202949 139.919144  L 87.360248 140.029066  L 104.631824 140.309151  L 116.58907 140.715667  L 125.889149 141.245374  L 133.860646 141.924156  L 140.50356 142.707799  L 146.260753 143.594081  L 151.575084 144.622946  L 156.446554 145.778706  L 161.318024 147.173066  L 165.746634 148.679109  L 169.732382 150.25432  L 173.718131 152.061486  L 177.703879 154.124178  L 181.246767 156.191459  L 184.789654 158.496057  L 188.332542 161.054096  L 191.875429 163.880868  L 195.418317 166.9904  L 198.961204 170.394993  L 202.504092 174.104683  L 206.157695 178.257471  L 209.922012 182.887661  L 213.68633 187.873634  L 217.672079 193.532416  L 221.879258 199.909338  L 226.307867 207.032436  L 231.400768 215.668553  L 237.600821 226.647901  L 252.27059 252.817283  L 256.588484 259.96516  L 260.242087 265.600578  L 263.452828 270.160509  L 266.331425 273.884625  L 268.98859 276.98108  L 271.535041 279.6149  L 273.860061 281.716535  L 276.074365 283.436538  L 278.28867 284.872579  L 280.364581 285.954879  L 282.357455 286.749913  L 284.294971 287.291967  L 286.232488 287.606036  L 288.170005 287.693057  L 290.107521 287.555183  L 292.045038 287.195709  L 294.037912 286.599388  L 296.113823 285.740161  L 298.217412 284.629558  L 300.431717 283.209695  L 302.756737 281.454859  L 305.303187 279.240218  L 307.960353 276.625414  L 310.838949 273.471726  L 313.938975 269.739947  L 317.371148 265.253666  L 321.301539 259.732491  L 325.951578 252.787539  L 331.930201 243.416441  L 352.744665 210.405374  L 357.948281 202.727444  L 362.819752 195.909116  L 367.248361 190.0583  L 371.67697 184.56164  L 376.10558 179.432567  L 380.091328 175.135709  L 384.077077 171.141289  L 388.062825 167.445539  L 392.048574 164.041683  L 396.034322 160.920482  L 400.02007 158.070727  L 404.005819 155.479697  L 407.991567 153.133563  L 412.420177 150.79623  L 416.848786 148.722661  L 421.277395 146.892109  L 426.148866 145.134718  L 431.020336 143.620081  L 436.334667 142.215033  L 441.648999 141.038428  L 447.406191 139.989445  L 447.849052 139.989445  L 447.849052 139.989445  " style="fill:none;stroke:#008080;stroke-linecap:square;stroke-width:2;"/>
   </g>
   <g id="patch_3">
    <path d="M 69.572 300.76  L 69.572 13.32  " style="fill:none;stroke:#000000;stroke-linecap:square;stroke-linejoin:miter;stroke-width:0.8;"/>
   </g>
   <g id="patch_4">
    <path d="M 447.48 300.76  L 447.48 13.32  " style="fill:none;stroke:#000000;stroke-linecap:square;stroke-linejoin:miter;stroke-width:0.8;"/>
   </g>
   <g id="patch_5">
    <path d="M 69.572 300.76  L 447.48 300.76  " style="fill:none;stroke:#000000;stroke-linecap:square;stroke-linejoin:miter;stroke-width:0.8;"/>
   </g>
   <g id="patch_6">
    <path d="M 69.572 13.32  L 447.48 13.32  " style="fill:none;stroke:#000000;stroke-linecap:square;stroke-linejoin:miter;stroke-width:0.8;"/>
   </g>
   <g id="legend_1">
    <g id="patch_7">
     <path d="M 76.572 109.38875  L 142.795437 109.38875  Q 144.795437 109.38875 144.795437 107.38875  L 144.795437 20.32  Q 144.795437 18.32 142.795437 18.32  L 76.572 18.32  Q 74.572 18.32 74.572 20.32  L 74.572 107.38875  Q 74.572 109.38875 76.572 109.38875  z " style="fill:#ffffff;opacity:0.8;stroke:#cccccc;stroke-linejoin:miter;"/>
    </g>
    <g id="line2d_22"/>
    <g id="line2d_23">
     <g>
      <use style="fill:#e74c3c;stroke:#e74c3c;stroke-linejoin:miter;" x="88.572" xlink:href="#m2a410c8dd6" y="26.418437"/>
     </g>
    </g>
    <g id="text_18">
     <!-- exp-Al -->
     <defs>
      <path d="M 18.109375 8.203125  L 18.109375 -20.796875  L 9.078125 -20.796875  L 9.078125 54.6875  L 18.109375 54.6875  L 18.109375 46.390625  Q 20.953125 51.265625 25.265625 53.625  Q 29.59375 56 35.59375 56  Q 45.5625 56 51.78125 48.09375  Q 58.015625 40.1875 58.015625 27.296875  Q 58.015625 14.40625 51.78125 6.484375  Q 45.5625 -1.421875 35.59375 -1.421875  Q 29.59375 -1.421875 25.265625 0.953125  Q 20.953125 3.328125 18.109375 8.203125  z M 48.6875 27.296875  Q 48.6875 37.203125 44.609375 42.84375  Q 40.53125 48.484375 33.40625 48.484375  Q 26.265625 48.484375 22.1875 42.84375  Q 18.109375 37.203125 18.109375 27.296875  Q 18.109375 17.390625 22.1875 11.75  Q 26.265625 6.109375 33.40625 6.109375  Q 40.53125 6.109375 44.609375 11.75  Q 48.6875 17.390625 48.6875 27.296875  z " id="DejaVuSans-70"/>
      <path d="M 34.1875 63.1875  L 20.796875 26.90625  L 47.609375 26.90625  z M 28.609375 72.90625  L 39.796875 72.90625  L 67.578125 0  L 57.328125 0  L 50.6875 18.703125  L 17.828125 18.703125  L 11.1875 0  L 0.78125 0  z " id="DejaVuSans-41"/>
     </defs>
     <g transform="translate(106.572 29.918437)scale(0.1 -0.1)">
      <use xlink:href="#DejaVuSans-65"/>
      <use x="61.507812" xlink:href="#DejaVuSans-78"/>
      <use x="120.6875" xlink:href="#DejaVuSans-70"/>
      <use x="184.164062" xlink:href="#DejaVuSans-2d"/>
      <use x="220.216797" xlink:href="#DejaVuSans-41"/>
      <use x="288.625" xlink:href="#DejaVuSans-6c"/>
     </g>
    </g>
    <g id="line2d_24"/>
    <g id="line2d_25">
     <g>
      <use style="fill:#808000;stroke:#808000;stroke-linejoin:bevel;" x="88.572" xlink:href="#mc62f00de2d" y="41.096563"/>
     </g>
    </g>
    <g id="text_19">
     <!-- exp-Ta -->
     <defs>
      <path d="M -0.296875 72.90625  L 61.375 72.90625  L 61.375 64.59375  L 35.5 64.59375  L 35.5 0  L 25.59375 0  L 25.59375 64.59375  L -0.296875 64.59375  z " id="DejaVuSans-54"/>
     </defs>
     <g transform="translate(106.572 44.596563)scale(0.1 -0.1)">
      <use xlink:href="#DejaVuSans-65"/>
      <use x="61.507812" xlink:href="#DejaVuSans-78"/>
      <use x="120.6875" xlink:href="#DejaVuSans-70"/>
      <use x="184.164062" xlink:href="#DejaVuSans-2d"/>
      <use x="220.107422" xlink:href="#DejaVuSans-54"/>
      <use x="280.941406" xlink:href="#DejaVuSans-61"/>
     </g>
    </g>
    <g id="line2d_26"/>
    <g id="line2d_27">
     <g>
      <use style="fill:#008080;stroke:#008080;" x="88.572" xlink:href="#m38eeba63c9" y="55.774687"/>
     </g>
    </g>
    <g id="text_20">
     <!-- exp-Ni -->
     <defs>
      <path d="M 9.8125 72.90625  L 23.09375 72.90625  L 55.421875 11.921875  L 55.421875 72.90625  L 64.984375 72.90625  L 64.984375 0  L 51.703125 0  L 19.390625 60.984375  L 19.390625 0  L 9.8125 0  z " id="DejaVuSans-4e"/>
     </defs>
     <g transform="translate(106.572 59.274687)scale(0.1 -0.1)">
      <use xlink:href="#DejaVuSans-65"/>
      <use x="61.507812" xlink:href="#DejaVuSans-78"/>
      <use x="120.6875" xlink:href="#DejaVuSans-70"/>
      <use x="184.164062" xlink:href="#DejaVuSans-2d"/>
      <use x="220.248047" xlink:href="#DejaVuSans-4e"/>
      <use x="295.052734" xlink:href="#DejaVuSans-69"/>
     </g>
    </g>
    <g id="line2d_28">
     <path d="M 78.572 70.452812  L 98.572 70.452812  " style="fill:none;stroke:#e74c3c;stroke-linecap:square;stroke-width:2;"/>
    </g>
    <g id="line2d_29"/>
    <g id="text_21">
     <!-- sim-Al -->
     <g transform="translate(106.572 73.952812)scale(0.1 -0.1)">
      <use xlink:href="#DejaVuSans-73"/>
      <use x="52.099609" xlink:href="#DejaVuSans-69"/>
      <use x="79.882812" xlink:href="#DejaVuSans-6d"/>
      <use x="177.294922" xlink:href="#DejaVuSans-2d"/>
      <use x="213.347656" xlink:href="#DejaVuSans-41"/>
      <use x="281.755859" xlink:href="#DejaVuSans-6c"/>
     </g>
    </g>
    <g id="line2d_30">
     <path d="M 78.572 85.130938  L 98.572 85.130938  " style="fill:none;stroke:#808000;stroke-linecap:square;stroke-width:2;"/>
    </g>
    <g id="line2d_31"/>
    <g id="text_22">
     <!-- sim-Ta -->
     <g transform="translate(106.572 88.630938)scale(0.1 -0.1)">
      <use xlink:href="#DejaVuSans-73"/>
      <use x="52.099609" xlink:href="#DejaVuSans-69"/>
      <use x="79.882812" xlink:href="#DejaVuSans-6d"/>
      <use x="177.294922" xlink:href="#DejaVuSans-2d"/>
      <use x="213.238281" xlink:href="#DejaVuSans-54"/>
      <use x="274.072266" xlink:href="#DejaVuSans-61"/>
     </g>
    </g>
    <g id="line2d_32">
     <path d="M 78.572 99.809062  L 98.572 99.809062  " style="fill:none;stroke:#008080;stroke-linecap:square;stroke-width:2;"/>
    </g>
    <g id="line2d_33"/>
    <g id="text_23">
     <!-- sim-Ni -->
     <g transform="translate(106.572 103.309062)scale(0.1 -0.1)">
      <use xlink:href="#DejaVuSans-73"/>
      <use x="52.099609" xlink:href="#DejaVuSans-69"/>
      <use x="79.882812" xlink:href="#DejaVuSans-6d"/>
      <use x="177.294922" xlink:href="#DejaVuSans-2d"/>
      <use x="213.378906" xlink:href="#DejaVuSans-4e"/>
      <use x="288.183594" xlink:href="#DejaVuSans-69"/>
     </g>
    </g>
   </g>
  </g>
 </g>
 <defs>
  <clipPath id="p3f70c4dc19">
   <rect height="287.44" width="377.908" x="69.572" y="13.32"/>
  </clipPath>
 </defs>
</g>
    <g transform="translate(10, 300) scale(1) ">
      <g transform="translate(0, 0) scale(3.0) "><defs id="defs831"/>
  <sodipodi:namedview xmlns:sodipodi="http://sodipodi.sourceforge.net/DTD/sodipodi-0.dtd" xmlns:inkscape="http://www.inkscape.org/namespaces/inkscape" id="base" pagecolor="#ffffff" bordercolor="#666666" borderopacity="1.0" inkscape:pageopacity="0.0" inkscape:pageshadow="2" inkscape:zoom="1.979899" inkscape:cx="-12.763683" inkscape:cy="-16.680883" inkscape:document-units="mm" inkscape:current-layer="layer1" showgrid="false" inkscape:window-width="1920" inkscape:window-height="1001" inkscape:window-x="-9" inkscape:window-y="-9" inkscape:window-maximized="1" units="pt"/>
  <metadata xmlns:rdf="http://www.w3.org/1999/02/22-rdf-syntax-ns#" xmlns:cc="http://creativecommons.org/ns#" xmlns:dc="http://purl.org/dc/elements/1.1/" id="metadata834">
    <rdf:RDF>
      <cc:Work rdf:about="">
        <dc:format>image/svg+xml</dc:format>
        <dc:type rdf:resource="http://purl.org/dc/dcmitype/StillImage"/>
        <dc:title/>
      </cc:Work>
    </rdf:RDF>
  </metadata>
  <g xmlns:inkscape="http://www.inkscape.org/namespaces/inkscape" xmlns:sodipodi="http://sodipodi.sourceforge.net/DTD/sodipodi-0.dtd" inkscape:label="Layer 1" inkscape:groupmode="layer" id="layer1" transform="translate(0,-288.81557)">
    <g id="g4761" transform="matrix(0.07377843,0,0,0.07377843,-0.76923022,275.45946)">
      <path inkscape:connector-curvature="0" id="path1959-6-7-1-6-5-4-0-3-2-6-0-3-9-6" style="font-style:normal;font-variant:normal;font-weight:bold;font-stretch:normal;font-size:120.99466705px;line-height:1.25;font-family:Aharoni;-inkscape-font-specification:'Aharoni, Bold';font-variant-ligatures:normal;font-variant-caps:normal;font-variant-numeric:normal;font-feature-settings:normal;text-align:start;letter-spacing:0px;word-spacing:0px;writing-mode:lr-tb;text-anchor:start;fill:#000000;fill-opacity:1;stroke:none;stroke-width:2.37649584" d="M 52.937412,287.55677 H 40.587702 V 265.43005 H 22.776041 v 22.12672 h -12.34982 v -53.17432 h 12.34982 v 20.5296 h 17.811661 v -20.5296 h 12.34971 z"/>
      <path inkscape:connector-curvature="0" id="path1961-2-9-7-9-3-1-6-5-1-5-8-7-8-2" style="font-style:normal;font-variant:normal;font-weight:bold;font-stretch:normal;font-size:120.99466705px;line-height:1.25;font-family:Aharoni;-inkscape-font-specification:'Aharoni, Bold';font-variant-ligatures:normal;font-variant-caps:normal;font-variant-numeric:normal;font-feature-settings:normal;text-align:start;letter-spacing:0px;word-spacing:0px;writing-mode:lr-tb;text-anchor:start;fill:#000000;fill-opacity:1;stroke:none;stroke-width:2.37649584" d="m 69.681125,237.49895 q 0,3.0385 -1.87856,5.1421 -1.84375,2.0647 -4.55721,2.0647 -2.67866,0 -4.55722,-2.1036 -1.84375,-2.1036 -1.84375,-5.1032 0,-2.9996 1.84375,-5.0642 1.87856,-2.1036 4.55722,-2.1036 2.67865,0 4.55721,2.1036 1.87856,2.0646 1.87856,5.0642 z m -0.73057,50.05782 h -11.41048 v -36.15072 h 11.41048 z"/>
      <path inkscape:connector-curvature="0" id="path1963-3-1-2-8-3-6-3-3-3-4-7-6-0-8" style="font-style:normal;font-variant:normal;font-weight:bold;font-stretch:normal;font-size:120.99466705px;line-height:1.25;font-family:Aharoni;-inkscape-font-specification:'Aharoni, Bold';font-variant-ligatures:normal;font-variant-caps:normal;font-variant-numeric:normal;font-feature-settings:normal;text-align:start;letter-spacing:0px;word-spacing:0px;writing-mode:lr-tb;text-anchor:start;fill:#000000;fill-opacity:1;stroke:none;stroke-width:2.37649584" d="m 93.369625,261.92405 h -6.50536 v 25.63272 h -11.4104 v -25.63272 h -3.75712 v -10.518 h 3.75712 v -10.8686 h 11.4104 v 10.8686 h 6.50536 z"/>
      <path id="path1967-3-3-6-2-9-6-2-5-3-0-9-8-2-1" style="font-style:normal;font-variant:normal;font-weight:bold;font-stretch:normal;font-size:120.99466705px;line-height:1.25;font-family:Aharoni;-inkscape-font-specification:'Aharoni, Bold';font-variant-ligatures:normal;font-variant-caps:normal;font-variant-numeric:normal;font-feature-settings:normal;text-align:start;letter-spacing:0px;word-spacing:0px;writing-mode:lr-tb;text-anchor:start;fill:#000000;fill-opacity:1;stroke:none;stroke-width:2.37649584" d="m 160.61447,287.55677 h -12.34971 v -53.17432 h 12.34971 z" inkscape:connector-curvature="0"/>
      <path inkscape:connector-curvature="0" id="path1969-8-0-8-5-3-5-6-6-3-9-8-6-2-0" style="font-style:normal;font-variant:normal;font-weight:bold;font-stretch:normal;font-size:120.99466705px;line-height:1.25;font-family:Aharoni;-inkscape-font-specification:'Aharoni, Bold';font-variant-ligatures:normal;font-variant-caps:normal;font-variant-numeric:normal;font-feature-settings:normal;text-align:start;letter-spacing:0px;word-spacing:0px;writing-mode:lr-tb;text-anchor:start;fill:#000000;fill-opacity:1;stroke:none;stroke-width:2.37649584" d="m 201.6896,284.86883 q -6.05314,2.68794 -11.20172,2.68794 -8.97528,0 -16.07201,-6.42764 -9.04489,-8.21959 -9.04489,-21.42558 0,-13.2448 9.04489,-21.4644 7.09673,-6.4277 16.17636,-6.4277 4.93989,0 11.09737,2.6879 v 16.5561 q -1.73941,-2.3763 -3.54836,-3.5839 -3.30489,-2.2204 -7.09679,-2.2204 -4.8007,0 -8.34907,3.2333 -4.48766,4.0903 -4.48766,11.2191 0,7.0899 4.48766,11.1803 3.54837,3.23328 8.34907,3.23328 3.7919,0 7.09679,-2.22049 1.77415,-1.16869 3.54836,-3.58389 z"/>
      <path inkscape:transform-center-y="-13.656107" inkscape:transform-center-x="-3.9758045" sodipodi:nodetypes="csssssc" inkscape:connector-curvature="0" id="rect815-3-0-9-3-5-6-0-4-03-7-3-7-5-3-2-76-3-8-8-5-3-7-8-0-1-3-7-9-2-8-1" d="m 104.61223,181.4353 c 0,0 17.68257,27.27493 22.63096,34.41579 7.92879,11.44185 16.42741,30.36094 17.92806,45.50275 1.21005,12.20999 -1.38345,26.51285 -17.32077,30.11208 -11.70405,2.64313 -26.75007,-5.41371 -30.334975,-20.50903 -3.30533,-13.91816 -2.13088,-34.61412 0.0984,-48.67354 1.22049,-7.69719 5.657305,-36.06774 6.998335,-40.84805 z" style="font-style:normal;font-weight:normal;font-size:242.08590698px;line-height:1.25;font-family:sans-serif;letter-spacing:0px;word-spacing:0px;opacity:1;fill:#00456b;fill-opacity:1;stroke:none;stroke-width:0.6720385;stroke-miterlimit:4;stroke-dasharray:none;stroke-dashoffset:0;stroke-opacity:1;paint-order:markers fill stroke"/>
      <path sodipodi:nodetypes="ccscscsccscccscc" d="m 107.52748,246.32531 6.45576,30.78617 6.82019,-1.47997 c 5.75791,-1.24946 9.70999,-3.40081 11.85576,-6.45394 2.16431,-3.05721 2.68673,-7.25521 1.56721,-12.59398 -1.11209,-5.30332 -3.26743,-8.89247 -6.46601,-10.76744 -3.18372,-1.89669 -7.65528,-2.22015 -13.4127,-0.97081 z m -8.759905,-5.09591 12.713095,-2.78742 c 8.8634,-1.94336 15.73718,-1.59097 20.62135,1.05715 4.88003,2.62843 8.10326,7.71587 9.6697,15.26232 1.57464,7.58584 0.64804,13.61405 -2.77981,18.08462 -3.42783,4.4705 -9.55303,7.67294 -18.37559,9.60735 l -12.71311,2.78742 z" style="font-style:normal;font-weight:normal;font-size:242.08590698px;line-height:1.25;font-family:sans-serif;letter-spacing:0px;word-spacing:0px;fill:#ffffff;fill-opacity:1;stroke:none;stroke-width:1.60286868" id="path1193-3-5-3-2-7-4-5-6-0-0-6-9-2-4-7-0-0" inkscape:connector-curvature="0"/>
    </g>
  </g>
</g>
    </g>
  </g>
</svg>
