<?xml version='1.0' encoding='ASCII' standalone='yes'?>
<svg xmlns:xlink="http://www.w3.org/1999/xlink" xmlns="http://www.w3.org/2000/svg" version="1.1" width="460.8px" viewBox="0 0 460.8px 345.6px" height="345.6px">
  <g>
    <g><defs>
  <style type="text/css">
*{stroke-linecap:butt;stroke-linejoin:round;}
  </style>
 </defs>
 <g id="figure_1">
  <g id="patch_1">
   <path d="M 0 345.6  L 460.8 345.6  L 460.8 0  L 0 0  z " style="fill:#ffffff;"/>
  </g>
  <g id="axes_1">
   <g id="patch_2">
    <path d="M 63.272 300.76  L 437.355 300.76  L 437.355 13.32  L 63.272 13.32  z " style="fill:#ffffff;"/>
   </g>
   <g id="matplotlib.axis_1">
    <g id="xtick_1">
     <g id="line2d_1">
      <defs>
       <path d="M 0 0  L 0 3.5  " id="m3d43b54fd0" style="stroke:#000000;stroke-width:0.8;"/>
      </defs>
      <g>
       <use style="stroke:#000000;stroke-width:0.8;" x="63.272" xlink:href="#m3d43b54fd0" y="300.76"/>
      </g>
     </g>
     <g id="text_1">
      <!-- 0 -->
      <defs>
       <path d="M 31.78125 66.40625  Q 24.171875 66.40625 20.328125 58.90625  Q 16.5 51.421875 16.5 36.375  Q 16.5 21.390625 20.328125 13.890625  Q 24.171875 6.390625 31.78125 6.390625  Q 39.453125 6.390625 43.28125 13.890625  Q 47.125 21.390625 47.125 36.375  Q 47.125 51.421875 43.28125 58.90625  Q 39.453125 66.40625 31.78125 66.40625  z M 31.78125 74.21875  Q 44.046875 74.21875 50.515625 64.515625  Q 56.984375 54.828125 56.984375 36.375  Q 56.984375 17.96875 50.515625 8.265625  Q 44.046875 -1.421875 31.78125 -1.421875  Q 19.53125 -1.421875 13.0625 8.265625  Q 6.59375 17.96875 6.59375 36.375  Q 6.59375 54.828125 13.0625 64.515625  Q 19.53125 74.21875 31.78125 74.21875  z " id="DejaVuSans-30"/>
      </defs>
      <g transform="translate(60.09075 315.358437)scale(0.1 -0.1)">
       <use xlink:href="#DejaVuSans-30"/>
      </g>
     </g>
    </g>
    <g id="xtick_2">
     <g id="line2d_2">
      <g>
       <use style="stroke:#000000;stroke-width:0.8;" x="125.619167" xlink:href="#m3d43b54fd0" y="300.76"/>
      </g>
     </g>
     <g id="text_2">
      <!-- 200 -->
      <defs>
       <path d="M 19.1875 8.296875  L 53.609375 8.296875  L 53.609375 0  L 7.328125 0  L 7.328125 8.296875  Q 12.9375 14.109375 22.625 23.890625  Q 32.328125 33.6875 34.8125 36.53125  Q 39.546875 41.84375 41.421875 45.53125  Q 43.3125 49.21875 43.3125 52.78125  Q 43.3125 58.59375 39.234375 62.25  Q 35.15625 65.921875 28.609375 65.921875  Q 23.96875 65.921875 18.8125 64.3125  Q 13.671875 62.703125 7.8125 59.421875  L 7.8125 69.390625  Q 13.765625 71.78125 18.9375 73  Q 24.125 74.21875 28.421875 74.21875  Q 39.75 74.21875 46.484375 68.546875  Q 53.21875 62.890625 53.21875 53.421875  Q 53.21875 48.921875 51.53125 44.890625  Q 49.859375 40.875 45.40625 35.40625  Q 44.1875 33.984375 37.640625 27.21875  Q 31.109375 20.453125 19.1875 8.296875  z " id="DejaVuSans-32"/>
      </defs>
      <g transform="translate(116.075417 315.358437)scale(0.1 -0.1)">
       <use xlink:href="#DejaVuSans-32"/>
       <use x="63.623047" xlink:href="#DejaVuSans-30"/>
       <use x="127.246094" xlink:href="#DejaVuSans-30"/>
      </g>
     </g>
    </g>
    <g id="xtick_3">
     <g id="line2d_3">
      <g>
       <use style="stroke:#000000;stroke-width:0.8;" x="187.966333" xlink:href="#m3d43b54fd0" y="300.76"/>
      </g>
     </g>
     <g id="text_3">
      <!-- 400 -->
      <defs>
       <path d="M 37.796875 64.3125  L 12.890625 25.390625  L 37.796875 25.390625  z M 35.203125 72.90625  L 47.609375 72.90625  L 47.609375 25.390625  L 58.015625 25.390625  L 58.015625 17.1875  L 47.609375 17.1875  L 47.609375 0  L 37.796875 0  L 37.796875 17.1875  L 4.890625 17.1875  L 4.890625 26.703125  z " id="DejaVuSans-34"/>
      </defs>
      <g transform="translate(178.422583 315.358437)scale(0.1 -0.1)">
       <use xlink:href="#DejaVuSans-34"/>
       <use x="63.623047" xlink:href="#DejaVuSans-30"/>
       <use x="127.246094" xlink:href="#DejaVuSans-30"/>
      </g>
     </g>
    </g>
    <g id="xtick_4">
     <g id="line2d_4">
      <g>
       <use style="stroke:#000000;stroke-width:0.8;" x="250.3135" xlink:href="#m3d43b54fd0" y="300.76"/>
      </g>
     </g>
     <g id="text_4">
      <!-- 600 -->
      <defs>
       <path d="M 33.015625 40.375  Q 26.375 40.375 22.484375 35.828125  Q 18.609375 31.296875 18.609375 23.390625  Q 18.609375 15.53125 22.484375 10.953125  Q 26.375 6.390625 33.015625 6.390625  Q 39.65625 6.390625 43.53125 10.953125  Q 47.40625 15.53125 47.40625 23.390625  Q 47.40625 31.296875 43.53125 35.828125  Q 39.65625 40.375 33.015625 40.375  z M 52.59375 71.296875  L 52.59375 62.3125  Q 48.875 64.0625 45.09375 64.984375  Q 41.3125 65.921875 37.59375 65.921875  Q 27.828125 65.921875 22.671875 59.328125  Q 17.53125 52.734375 16.796875 39.40625  Q 19.671875 43.65625 24.015625 45.921875  Q 28.375 48.1875 33.59375 48.1875  Q 44.578125 48.1875 50.953125 41.515625  Q 57.328125 34.859375 57.328125 23.390625  Q 57.328125 12.15625 50.6875 5.359375  Q 44.046875 -1.421875 33.015625 -1.421875  Q 20.359375 -1.421875 13.671875 8.265625  Q 6.984375 17.96875 6.984375 36.375  Q 6.984375 53.65625 15.1875 63.9375  Q 23.390625 74.21875 37.203125 74.21875  Q 40.921875 74.21875 44.703125 73.484375  Q 48.484375 72.75 52.59375 71.296875  z " id="DejaVuSans-36"/>
      </defs>
      <g transform="translate(240.76975 315.358437)scale(0.1 -0.1)">
       <use xlink:href="#DejaVuSans-36"/>
       <use x="63.623047" xlink:href="#DejaVuSans-30"/>
       <use x="127.246094" xlink:href="#DejaVuSans-30"/>
      </g>
     </g>
    </g>
    <g id="xtick_5">
     <g id="line2d_5">
      <g>
       <use style="stroke:#000000;stroke-width:0.8;" x="312.660667" xlink:href="#m3d43b54fd0" y="300.76"/>
      </g>
     </g>
     <g id="text_5">
      <!-- 800 -->
      <defs>
       <path d="M 31.78125 34.625  Q 24.75 34.625 20.71875 30.859375  Q 16.703125 27.09375 16.703125 20.515625  Q 16.703125 13.921875 20.71875 10.15625  Q 24.75 6.390625 31.78125 6.390625  Q 38.8125 6.390625 42.859375 10.171875  Q 46.921875 13.96875 46.921875 20.515625  Q 46.921875 27.09375 42.890625 30.859375  Q 38.875 34.625 31.78125 34.625  z M 21.921875 38.8125  Q 15.578125 40.375 12.03125 44.71875  Q 8.5 49.078125 8.5 55.328125  Q 8.5 64.0625 14.71875 69.140625  Q 20.953125 74.21875 31.78125 74.21875  Q 42.671875 74.21875 48.875 69.140625  Q 55.078125 64.0625 55.078125 55.328125  Q 55.078125 49.078125 51.53125 44.71875  Q 48 40.375 41.703125 38.8125  Q 48.828125 37.15625 52.796875 32.3125  Q 56.78125 27.484375 56.78125 20.515625  Q 56.78125 9.90625 50.3125 4.234375  Q 43.84375 -1.421875 31.78125 -1.421875  Q 19.734375 -1.421875 13.25 4.234375  Q 6.78125 9.90625 6.78125 20.515625  Q 6.78125 27.484375 10.78125 32.3125  Q 14.796875 37.15625 21.921875 38.8125  z M 18.3125 54.390625  Q 18.3125 48.734375 21.84375 45.5625  Q 25.390625 42.390625 31.78125 42.390625  Q 38.140625 42.390625 41.71875 45.5625  Q 45.3125 48.734375 45.3125 54.390625  Q 45.3125 60.0625 41.71875 63.234375  Q 38.140625 66.40625 31.78125 66.40625  Q 25.390625 66.40625 21.84375 63.234375  Q 18.3125 60.0625 18.3125 54.390625  z " id="DejaVuSans-38"/>
      </defs>
      <g transform="translate(303.116917 315.358437)scale(0.1 -0.1)">
       <use xlink:href="#DejaVuSans-38"/>
       <use x="63.623047" xlink:href="#DejaVuSans-30"/>
       <use x="127.246094" xlink:href="#DejaVuSans-30"/>
      </g>
     </g>
    </g>
    <g id="xtick_6">
     <g id="line2d_6">
      <g>
       <use style="stroke:#000000;stroke-width:0.8;" x="375.007833" xlink:href="#m3d43b54fd0" y="300.76"/>
      </g>
     </g>
     <g id="text_6">
      <!-- 1000 -->
      <defs>
       <path d="M 12.40625 8.296875  L 28.515625 8.296875  L 28.515625 63.921875  L 10.984375 60.40625  L 10.984375 69.390625  L 28.421875 72.90625  L 38.28125 72.90625  L 38.28125 8.296875  L 54.390625 8.296875  L 54.390625 0  L 12.40625 0  z " id="DejaVuSans-31"/>
      </defs>
      <g transform="translate(362.282833 315.358437)scale(0.1 -0.1)">
       <use xlink:href="#DejaVuSans-31"/>
       <use x="63.623047" xlink:href="#DejaVuSans-30"/>
       <use x="127.246094" xlink:href="#DejaVuSans-30"/>
       <use x="190.869141" xlink:href="#DejaVuSans-30"/>
      </g>
     </g>
    </g>
    <g id="xtick_7">
     <g id="line2d_7">
      <g>
       <use style="stroke:#000000;stroke-width:0.8;" x="437.355" xlink:href="#m3d43b54fd0" y="300.76"/>
      </g>
     </g>
     <g id="text_7">
      <!-- 1200 -->
      <g transform="translate(424.63 315.358437)scale(0.1 -0.1)">
       <use xlink:href="#DejaVuSans-31"/>
       <use x="63.623047" xlink:href="#DejaVuSans-32"/>
       <use x="127.246094" xlink:href="#DejaVuSans-30"/>
       <use x="190.869141" xlink:href="#DejaVuSans-30"/>
      </g>
     </g>
    </g>
    <g id="text_8">
     <!-- Distance ($\mu$m) -->
     <defs>
      <path d="M 19.671875 64.796875  L 19.671875 8.109375  L 31.59375 8.109375  Q 46.6875 8.109375 53.6875 14.9375  Q 60.6875 21.78125 60.6875 36.53125  Q 60.6875 51.171875 53.6875 57.984375  Q 46.6875 64.796875 31.59375 64.796875  z M 9.8125 72.90625  L 30.078125 72.90625  Q 51.265625 72.90625 61.171875 64.09375  Q 71.09375 55.28125 71.09375 36.53125  Q 71.09375 17.671875 61.125 8.828125  Q 51.171875 0 30.078125 0  L 9.8125 0  z " id="DejaVuSans-44"/>
      <path d="M 9.421875 54.6875  L 18.40625 54.6875  L 18.40625 0  L 9.421875 0  z M 9.421875 75.984375  L 18.40625 75.984375  L 18.40625 64.59375  L 9.421875 64.59375  z " id="DejaVuSans-69"/>
      <path d="M 44.28125 53.078125  L 44.28125 44.578125  Q 40.484375 46.53125 36.375 47.5  Q 32.28125 48.484375 27.875 48.484375  Q 21.1875 48.484375 17.84375 46.4375  Q 14.5 44.390625 14.5 40.28125  Q 14.5 37.15625 16.890625 35.375  Q 19.28125 33.59375 26.515625 31.984375  L 29.59375 31.296875  Q 39.15625 29.25 43.1875 25.515625  Q 47.21875 21.78125 47.21875 15.09375  Q 47.21875 7.46875 41.1875 3.015625  Q 35.15625 -1.421875 24.609375 -1.421875  Q 20.21875 -1.421875 15.453125 -0.5625  Q 10.6875 0.296875 5.421875 2  L 5.421875 11.28125  Q 10.40625 8.6875 15.234375 7.390625  Q 20.0625 6.109375 24.8125 6.109375  Q 31.15625 6.109375 34.5625 8.28125  Q 37.984375 10.453125 37.984375 14.40625  Q 37.984375 18.0625 35.515625 20.015625  Q 33.0625 21.96875 24.703125 23.78125  L 21.578125 24.515625  Q 13.234375 26.265625 9.515625 29.90625  Q 5.8125 33.546875 5.8125 39.890625  Q 5.8125 47.609375 11.28125 51.796875  Q 16.75 56 26.8125 56  Q 31.78125 56 36.171875 55.265625  Q 40.578125 54.546875 44.28125 53.078125  z " id="DejaVuSans-73"/>
      <path d="M 18.3125 70.21875  L 18.3125 54.6875  L 36.8125 54.6875  L 36.8125 47.703125  L 18.3125 47.703125  L 18.3125 18.015625  Q 18.3125 11.328125 20.140625 9.421875  Q 21.96875 7.515625 27.59375 7.515625  L 36.8125 7.515625  L 36.8125 0  L 27.59375 0  Q 17.1875 0 13.234375 3.875  Q 9.28125 7.765625 9.28125 18.015625  L 9.28125 47.703125  L 2.6875 47.703125  L 2.6875 54.6875  L 9.28125 54.6875  L 9.28125 70.21875  z " id="DejaVuSans-74"/>
      <path d="M 34.28125 27.484375  Q 23.390625 27.484375 19.1875 25  Q 14.984375 22.515625 14.984375 16.5  Q 14.984375 11.71875 18.140625 8.90625  Q 21.296875 6.109375 26.703125 6.109375  Q 34.1875 6.109375 38.703125 11.40625  Q 43.21875 16.703125 43.21875 25.484375  L 43.21875 27.484375  z M 52.203125 31.203125  L 52.203125 0  L 43.21875 0  L 43.21875 8.296875  Q 40.140625 3.328125 35.546875 0.953125  Q 30.953125 -1.421875 24.3125 -1.421875  Q 15.921875 -1.421875 10.953125 3.296875  Q 6 8.015625 6 15.921875  Q 6 25.140625 12.171875 29.828125  Q 18.359375 34.515625 30.609375 34.515625  L 43.21875 34.515625  L 43.21875 35.40625  Q 43.21875 41.609375 39.140625 45  Q 35.0625 48.390625 27.6875 48.390625  Q 23 48.390625 18.546875 47.265625  Q 14.109375 46.140625 10.015625 43.890625  L 10.015625 52.203125  Q 14.9375 54.109375 19.578125 55.046875  Q 24.21875 56 28.609375 56  Q 40.484375 56 46.34375 49.84375  Q 52.203125 43.703125 52.203125 31.203125  z " id="DejaVuSans-61"/>
      <path d="M 54.890625 33.015625  L 54.890625 0  L 45.90625 0  L 45.90625 32.71875  Q 45.90625 40.484375 42.875 44.328125  Q 39.84375 48.1875 33.796875 48.1875  Q 26.515625 48.1875 22.3125 43.546875  Q 18.109375 38.921875 18.109375 30.90625  L 18.109375 0  L 9.078125 0  L 9.078125 54.6875  L 18.109375 54.6875  L 18.109375 46.1875  Q 21.34375 51.125 25.703125 53.5625  Q 30.078125 56 35.796875 56  Q 45.21875 56 50.046875 50.171875  Q 54.890625 44.34375 54.890625 33.015625  z " id="DejaVuSans-6e"/>
      <path d="M 48.78125 52.59375  L 48.78125 44.1875  Q 44.96875 46.296875 41.140625 47.34375  Q 37.3125 48.390625 33.40625 48.390625  Q 24.65625 48.390625 19.8125 42.84375  Q 14.984375 37.3125 14.984375 27.296875  Q 14.984375 17.28125 19.8125 11.734375  Q 24.65625 6.203125 33.40625 6.203125  Q 37.3125 6.203125 41.140625 7.25  Q 44.96875 8.296875 48.78125 10.40625  L 48.78125 2.09375  Q 45.015625 0.34375 40.984375 -0.53125  Q 36.96875 -1.421875 32.421875 -1.421875  Q 20.0625 -1.421875 12.78125 6.34375  Q 5.515625 14.109375 5.515625 27.296875  Q 5.515625 40.671875 12.859375 48.328125  Q 20.21875 56 33.015625 56  Q 37.15625 56 41.109375 55.140625  Q 45.0625 54.296875 48.78125 52.59375  z " id="DejaVuSans-63"/>
      <path d="M 56.203125 29.59375  L 56.203125 25.203125  L 14.890625 25.203125  Q 15.484375 15.921875 20.484375 11.0625  Q 25.484375 6.203125 34.421875 6.203125  Q 39.59375 6.203125 44.453125 7.46875  Q 49.3125 8.734375 54.109375 11.28125  L 54.109375 2.78125  Q 49.265625 0.734375 44.1875 -0.34375  Q 39.109375 -1.421875 33.890625 -1.421875  Q 20.796875 -1.421875 13.15625 6.1875  Q 5.515625 13.8125 5.515625 26.8125  Q 5.515625 40.234375 12.765625 48.109375  Q 20.015625 56 32.328125 56  Q 43.359375 56 49.78125 48.890625  Q 56.203125 41.796875 56.203125 29.59375  z M 47.21875 32.234375  Q 47.125 39.59375 43.09375 43.984375  Q 39.0625 48.390625 32.421875 48.390625  Q 24.90625 48.390625 20.390625 44.140625  Q 15.875 39.890625 15.1875 32.171875  z " id="DejaVuSans-65"/>
      <path id="DejaVuSans-20"/>
      <path d="M 31 75.875  Q 24.46875 64.65625 21.28125 53.65625  Q 18.109375 42.671875 18.109375 31.390625  Q 18.109375 20.125 21.3125 9.0625  Q 24.515625 -2 31 -13.1875  L 23.1875 -13.1875  Q 15.875 -1.703125 12.234375 9.375  Q 8.59375 20.453125 8.59375 31.390625  Q 8.59375 42.28125 12.203125 53.3125  Q 15.828125 64.359375 23.1875 75.875  z " id="DejaVuSans-28"/>
      <path d="M -1.3125 -20.796875  L 13.375 54.6875  L 22.40625 54.6875  L 15.765625 20.65625  Q 15.578125 19.625 15.421875 18.359375  Q 15.28125 17.09375 15.28125 15.828125  Q 15.28125 11.28125 18.140625 8.828125  Q 21 6.390625 26.3125 6.390625  Q 33.546875 6.390625 37.984375 10.484375  Q 42.4375 14.59375 44 22.796875  L 50.203125 54.6875  L 59.1875 54.6875  L 51.03125 12.640625  Q 50.828125 11.71875 50.75 11.03125  Q 50.6875 10.359375 50.6875 9.8125  Q 50.6875 8.296875 51.296875 7.59375  Q 51.90625 6.890625 53.21875 6.890625  Q 53.71875 6.890625 54.5625 7.125  Q 55.421875 7.375 56.984375 8.015625  L 55.609375 0.78125  Q 53.46875 -0.296875 51.515625 -0.859375  Q 49.5625 -1.421875 47.703125 -1.421875  Q 44.484375 -1.421875 42.65625 0.625  Q 40.828125 2.6875 40.828125 6.296875  Q 38.09375 2.390625 34.296875 0.484375  Q 30.515625 -1.421875 25.390625 -1.421875  Q 20.84375 -1.421875 17.453125 0.671875  Q 14.0625 2.78125 12.984375 6.203125  L 7.71875 -20.796875  z " id="DejaVuSans-Oblique-3bc"/>
      <path d="M 52 44.1875  Q 55.375 50.25 60.0625 53.125  Q 64.75 56 71.09375 56  Q 79.640625 56 84.28125 50.015625  Q 88.921875 44.046875 88.921875 33.015625  L 88.921875 0  L 79.890625 0  L 79.890625 32.71875  Q 79.890625 40.578125 77.09375 44.375  Q 74.3125 48.1875 68.609375 48.1875  Q 61.625 48.1875 57.5625 43.546875  Q 53.515625 38.921875 53.515625 30.90625  L 53.515625 0  L 44.484375 0  L 44.484375 32.71875  Q 44.484375 40.625 41.703125 44.40625  Q 38.921875 48.1875 33.109375 48.1875  Q 26.21875 48.1875 22.15625 43.53125  Q 18.109375 38.875 18.109375 30.90625  L 18.109375 0  L 9.078125 0  L 9.078125 54.6875  L 18.109375 54.6875  L 18.109375 46.1875  Q 21.1875 51.21875 25.484375 53.609375  Q 29.78125 56 35.6875 56  Q 41.65625 56 45.828125 52.96875  Q 50 49.953125 52 44.1875  z " id="DejaVuSans-6d"/>
      <path d="M 8.015625 75.875  L 15.828125 75.875  Q 23.140625 64.359375 26.78125 53.3125  Q 30.421875 42.28125 30.421875 31.390625  Q 30.421875 20.453125 26.78125 9.375  Q 23.140625 -1.703125 15.828125 -13.1875  L 8.015625 -13.1875  Q 14.5 -2 17.703125 9.0625  Q 20.90625 20.125 20.90625 31.390625  Q 20.90625 42.671875 17.703125 53.65625  Q 14.5 64.65625 8.015625 75.875  z " id="DejaVuSans-29"/>
     </defs>
     <g transform="translate(214.8635 329.038125)scale(0.1 -0.1)">
      <use transform="translate(0 0.015625)" xlink:href="#DejaVuSans-44"/>
      <use transform="translate(77.001953 0.015625)" xlink:href="#DejaVuSans-69"/>
      <use transform="translate(104.785156 0.015625)" xlink:href="#DejaVuSans-73"/>
      <use transform="translate(156.884766 0.015625)" xlink:href="#DejaVuSans-74"/>
      <use transform="translate(196.09375 0.015625)" xlink:href="#DejaVuSans-61"/>
      <use transform="translate(257.373047 0.015625)" xlink:href="#DejaVuSans-6e"/>
      <use transform="translate(320.751953 0.015625)" xlink:href="#DejaVuSans-63"/>
      <use transform="translate(375.732422 0.015625)" xlink:href="#DejaVuSans-65"/>
      <use transform="translate(437.255859 0.015625)" xlink:href="#DejaVuSans-20"/>
      <use transform="translate(469.042969 0.015625)" xlink:href="#DejaVuSans-28"/>
      <use transform="translate(508.056641 0.015625)" xlink:href="#DejaVuSans-Oblique-3bc"/>
      <use transform="translate(571.679688 0.015625)" xlink:href="#DejaVuSans-6d"/>
      <use transform="translate(669.091797 0.015625)" xlink:href="#DejaVuSans-29"/>
     </g>
    </g>
   </g>
   <g id="matplotlib.axis_2">
    <g id="ytick_1">
     <g id="line2d_8">
      <defs>
       <path d="M 0 0  L -3.5 0  " id="mf0408814fb" style="stroke:#000000;stroke-width:0.8;"/>
      </defs>
      <g>
       <use style="stroke:#000000;stroke-width:0.8;" x="63.272" xlink:href="#mf0408814fb" y="296.971239"/>
      </g>
     </g>
     <g id="text_9">
      <!-- &#8722;800 -->
      <defs>
       <path d="M 10.59375 35.5  L 73.1875 35.5  L 73.1875 27.203125  L 10.59375 27.203125  z " id="DejaVuSans-2212"/>
      </defs>
      <g transform="translate(28.804813 300.770457)scale(0.1 -0.1)">
       <use xlink:href="#DejaVuSans-2212"/>
       <use x="83.789062" xlink:href="#DejaVuSans-38"/>
       <use x="147.412109" xlink:href="#DejaVuSans-30"/>
       <use x="211.035156" xlink:href="#DejaVuSans-30"/>
      </g>
     </g>
    </g>
    <g id="ytick_2">
     <g id="line2d_9">
      <g>
       <use style="stroke:#000000;stroke-width:0.8;" x="63.272" xlink:href="#mf0408814fb" y="251.695108"/>
      </g>
     </g>
     <g id="text_10">
      <!-- &#8722;600 -->
      <g transform="translate(28.804813 255.494327)scale(0.1 -0.1)">
       <use xlink:href="#DejaVuSans-2212"/>
       <use x="83.789062" xlink:href="#DejaVuSans-36"/>
       <use x="147.412109" xlink:href="#DejaVuSans-30"/>
       <use x="211.035156" xlink:href="#DejaVuSans-30"/>
      </g>
     </g>
    </g>
    <g id="ytick_3">
     <g id="line2d_10">
      <g>
       <use style="stroke:#000000;stroke-width:0.8;" x="63.272" xlink:href="#mf0408814fb" y="206.418977"/>
      </g>
     </g>
     <g id="text_11">
      <!-- &#8722;400 -->
      <g transform="translate(28.804813 210.218196)scale(0.1 -0.1)">
       <use xlink:href="#DejaVuSans-2212"/>
       <use x="83.789062" xlink:href="#DejaVuSans-34"/>
       <use x="147.412109" xlink:href="#DejaVuSans-30"/>
       <use x="211.035156" xlink:href="#DejaVuSans-30"/>
      </g>
     </g>
    </g>
    <g id="ytick_4">
     <g id="line2d_11">
      <g>
       <use style="stroke:#000000;stroke-width:0.8;" x="63.272" xlink:href="#mf0408814fb" y="161.142847"/>
      </g>
     </g>
     <g id="text_12">
      <!-- &#8722;200 -->
      <g transform="translate(28.804813 164.942065)scale(0.1 -0.1)">
       <use xlink:href="#DejaVuSans-2212"/>
       <use x="83.789062" xlink:href="#DejaVuSans-32"/>
       <use x="147.412109" xlink:href="#DejaVuSans-30"/>
       <use x="211.035156" xlink:href="#DejaVuSans-30"/>
      </g>
     </g>
    </g>
    <g id="ytick_5">
     <g id="line2d_12">
      <g>
       <use style="stroke:#000000;stroke-width:0.8;" x="63.272" xlink:href="#mf0408814fb" y="115.866716"/>
      </g>
     </g>
     <g id="text_13">
      <!-- 0 -->
      <g transform="translate(49.9095 119.665935)scale(0.1 -0.1)">
       <use xlink:href="#DejaVuSans-30"/>
      </g>
     </g>
    </g>
    <g id="ytick_6">
     <g id="line2d_13">
      <g>
       <use style="stroke:#000000;stroke-width:0.8;" x="63.272" xlink:href="#mf0408814fb" y="70.590585"/>
      </g>
     </g>
     <g id="text_14">
      <!-- 200 -->
      <g transform="translate(37.1845 74.389804)scale(0.1 -0.1)">
       <use xlink:href="#DejaVuSans-32"/>
       <use x="63.623047" xlink:href="#DejaVuSans-30"/>
       <use x="127.246094" xlink:href="#DejaVuSans-30"/>
      </g>
     </g>
    </g>
    <g id="ytick_7">
     <g id="line2d_14">
      <g>
       <use style="stroke:#000000;stroke-width:0.8;" x="63.272" xlink:href="#mf0408814fb" y="25.314454"/>
      </g>
     </g>
     <g id="text_15">
      <!-- 400 -->
      <g transform="translate(37.1845 29.113673)scale(0.1 -0.1)">
       <use xlink:href="#DejaVuSans-34"/>
       <use x="63.623047" xlink:href="#DejaVuSans-30"/>
       <use x="127.246094" xlink:href="#DejaVuSans-30"/>
      </g>
     </g>
    </g>
    <g id="text_16">
     <!-- Flux (at.-fr.m/s)$\times10^{-14}$ -->
     <defs>
      <path d="M 9.8125 72.90625  L 51.703125 72.90625  L 51.703125 64.59375  L 19.671875 64.59375  L 19.671875 43.109375  L 48.578125 43.109375  L 48.578125 34.8125  L 19.671875 34.8125  L 19.671875 0  L 9.8125 0  z " id="DejaVuSans-46"/>
      <path d="M 9.421875 75.984375  L 18.40625 75.984375  L 18.40625 0  L 9.421875 0  z " id="DejaVuSans-6c"/>
      <path d="M 8.5 21.578125  L 8.5 54.6875  L 17.484375 54.6875  L 17.484375 21.921875  Q 17.484375 14.15625 20.5 10.265625  Q 23.53125 6.390625 29.59375 6.390625  Q 36.859375 6.390625 41.078125 11.03125  Q 45.3125 15.671875 45.3125 23.6875  L 45.3125 54.6875  L 54.296875 54.6875  L 54.296875 0  L 45.3125 0  L 45.3125 8.40625  Q 42.046875 3.421875 37.71875 1  Q 33.40625 -1.421875 27.6875 -1.421875  Q 18.265625 -1.421875 13.375 4.4375  Q 8.5 10.296875 8.5 21.578125  z M 31.109375 56  z " id="DejaVuSans-75"/>
      <path d="M 54.890625 54.6875  L 35.109375 28.078125  L 55.90625 0  L 45.3125 0  L 29.390625 21.484375  L 13.484375 0  L 2.875 0  L 24.125 28.609375  L 4.6875 54.6875  L 15.28125 54.6875  L 29.78125 35.203125  L 44.28125 54.6875  z " id="DejaVuSans-78"/>
      <path d="M 10.6875 12.40625  L 21 12.40625  L 21 0  L 10.6875 0  z " id="DejaVuSans-2e"/>
      <path d="M 4.890625 31.390625  L 31.203125 31.390625  L 31.203125 23.390625  L 4.890625 23.390625  z " id="DejaVuSans-2d"/>
      <path d="M 37.109375 75.984375  L 37.109375 68.5  L 28.515625 68.5  Q 23.6875 68.5 21.796875 66.546875  Q 19.921875 64.59375 19.921875 59.515625  L 19.921875 54.6875  L 34.71875 54.6875  L 34.71875 47.703125  L 19.921875 47.703125  L 19.921875 0  L 10.890625 0  L 10.890625 47.703125  L 2.296875 47.703125  L 2.296875 54.6875  L 10.890625 54.6875  L 10.890625 58.5  Q 10.890625 67.625 15.140625 71.796875  Q 19.390625 75.984375 28.609375 75.984375  z " id="DejaVuSans-66"/>
      <path d="M 41.109375 46.296875  Q 39.59375 47.171875 37.8125 47.578125  Q 36.03125 48 33.890625 48  Q 26.265625 48 22.1875 43.046875  Q 18.109375 38.09375 18.109375 28.8125  L 18.109375 0  L 9.078125 0  L 9.078125 54.6875  L 18.109375 54.6875  L 18.109375 46.1875  Q 20.953125 51.171875 25.484375 53.578125  Q 30.03125 56 36.53125 56  Q 37.453125 56 38.578125 55.875  Q 39.703125 55.765625 41.0625 55.515625  z " id="DejaVuSans-72"/>
      <path d="M 25.390625 72.90625  L 33.6875 72.90625  L 8.296875 -9.28125  L 0 -9.28125  z " id="DejaVuSans-2f"/>
      <path d="M 70.125 53.71875  L 47.796875 31.296875  L 70.125 8.984375  L 64.3125 3.078125  L 41.890625 25.484375  L 19.484375 3.078125  L 13.71875 8.984375  L 35.984375 31.296875  L 13.71875 53.71875  L 19.484375 59.625  L 41.890625 37.203125  L 64.3125 59.625  z " id="DejaVuSans-d7"/>
     </defs>
     <g transform="translate(22.725125 214.04)rotate(-90)scale(0.1 -0.1)">
      <use transform="translate(0 0.684375)" xlink:href="#DejaVuSans-46"/>
      <use transform="translate(57.519531 0.684375)" xlink:href="#DejaVuSans-6c"/>
      <use transform="translate(85.302734 0.684375)" xlink:href="#DejaVuSans-75"/>
      <use transform="translate(148.681641 0.684375)" xlink:href="#DejaVuSans-78"/>
      <use transform="translate(207.861328 0.684375)" xlink:href="#DejaVuSans-20"/>
      <use transform="translate(239.648438 0.684375)" xlink:href="#DejaVuSans-28"/>
      <use transform="translate(278.662109 0.684375)" xlink:href="#DejaVuSans-61"/>
      <use transform="translate(339.941406 0.684375)" xlink:href="#DejaVuSans-74"/>
      <use transform="translate(379.150391 0.684375)" xlink:href="#DejaVuSans-2e"/>
      <use transform="translate(410.9375 0.684375)" xlink:href="#DejaVuSans-2d"/>
      <use transform="translate(447.021484 0.684375)" xlink:href="#DejaVuSans-66"/>
      <use transform="translate(482.226562 0.684375)" xlink:href="#DejaVuSans-72"/>
      <use transform="translate(523.339844 0.684375)" xlink:href="#DejaVuSans-2e"/>
      <use transform="translate(555.033203 0.684375)" xlink:href="#DejaVuSans-6d"/>
      <use transform="translate(652.445312 0.684375)" xlink:href="#DejaVuSans-2f"/>
      <use transform="translate(686.136719 0.684375)" xlink:href="#DejaVuSans-73"/>
      <use transform="translate(738.236328 0.684375)" xlink:href="#DejaVuSans-29"/>
      <use transform="translate(777.25 0.684375)" xlink:href="#DejaVuSans-d7"/>
      <use transform="translate(861.039062 0.684375)" xlink:href="#DejaVuSans-31"/>
      <use transform="translate(924.662109 0.684375)" xlink:href="#DejaVuSans-30"/>
      <use transform="translate(989.242188 38.965625)scale(0.7)" xlink:href="#DejaVuSans-2212"/>
      <use transform="translate(1047.894531 38.965625)scale(0.7)" xlink:href="#DejaVuSans-31"/>
      <use transform="translate(1092.430664 38.965625)scale(0.7)" xlink:href="#DejaVuSans-34"/>
     </g>
    </g>
   </g>
   <g id="line2d_15">
    <defs>
     <path d="M -0 3  L 3 -3  L -3 -3  z " id="m9870377164" style="stroke:#e74c3c;stroke-linejoin:miter;"/>
    </defs>
    <g clip-path="url(#p03ab218b7f)">
     <use style="fill:#e74c3c;stroke:#e74c3c;stroke-linejoin:miter;" x="63.272" xlink:href="#m9870377164" y="115.844523"/>
     <use style="fill:#e74c3c;stroke:#e74c3c;stroke-linejoin:miter;" x="70.791256" xlink:href="#m9870377164" y="115.762333"/>
     <use style="fill:#e74c3c;stroke:#e74c3c;stroke-linejoin:miter;" x="78.310513" xlink:href="#m9870377164" y="115.606151"/>
     <use style="fill:#e74c3c;stroke:#e74c3c;stroke-linejoin:miter;" x="85.829769" xlink:href="#m9870377164" y="115.376781"/>
     <use style="fill:#e74c3c;stroke:#e74c3c;stroke-linejoin:miter;" x="93.349025" xlink:href="#m9870377164" y="115.046187"/>
     <use style="fill:#e74c3c;stroke:#e74c3c;stroke-linejoin:miter;" x="100.868281" xlink:href="#m9870377164" y="114.57863"/>
     <use style="fill:#e74c3c;stroke:#e74c3c;stroke-linejoin:miter;" x="108.387538" xlink:href="#m9870377164" y="113.929865"/>
     <use style="fill:#e74c3c;stroke:#e74c3c;stroke-linejoin:miter;" x="115.906794" xlink:href="#m9870377164" y="113.046853"/>
     <use style="fill:#e74c3c;stroke:#e74c3c;stroke-linejoin:miter;" x="123.42605" xlink:href="#m9870377164" y="111.868224"/>
     <use style="fill:#e74c3c;stroke:#e74c3c;stroke-linejoin:miter;" x="130.945307" xlink:href="#m9870377164" y="110.325789"/>
     <use style="fill:#e74c3c;stroke:#e74c3c;stroke-linejoin:miter;" x="138.464563" xlink:href="#m9870377164" y="108.347339"/>
     <use style="fill:#e74c3c;stroke:#e74c3c;stroke-linejoin:miter;" x="145.983819" xlink:href="#m9870377164" y="105.860898"/>
     <use style="fill:#e74c3c;stroke:#e74c3c;stroke-linejoin:miter;" x="153.503075" xlink:href="#m9870377164" y="102.800466"/>
     <use style="fill:#e74c3c;stroke:#e74c3c;stroke-linejoin:miter;" x="161.022332" xlink:href="#m9870377164" y="99.113076"/>
     <use style="fill:#e74c3c;stroke:#e74c3c;stroke-linejoin:miter;" x="168.541588" xlink:href="#m9870377164" y="94.766784"/>
     <use style="fill:#e74c3c;stroke:#e74c3c;stroke-linejoin:miter;" x="176.060844" xlink:href="#m9870377164" y="89.758934"/>
     <use style="fill:#e74c3c;stroke:#e74c3c;stroke-linejoin:miter;" x="183.580101" xlink:href="#m9870377164" y="84.123831"/>
     <use style="fill:#e74c3c;stroke:#e74c3c;stroke-linejoin:miter;" x="191.099357" xlink:href="#m9870377164" y="77.938821"/>
     <use style="fill:#e74c3c;stroke:#e74c3c;stroke-linejoin:miter;" x="198.618613" xlink:href="#m9870377164" y="71.327705"/>
     <use style="fill:#e74c3c;stroke:#e74c3c;stroke-linejoin:miter;" x="206.137869" xlink:href="#m9870377164" y="64.460548"/>
     <use style="fill:#e74c3c;stroke:#e74c3c;stroke-linejoin:miter;" x="213.657126" xlink:href="#m9870377164" y="57.549215"/>
     <use style="fill:#e74c3c;stroke:#e74c3c;stroke-linejoin:miter;" x="221.176382" xlink:href="#m9870377164" y="50.838385"/>
     <use style="fill:#e74c3c;stroke:#e74c3c;stroke-linejoin:miter;" x="228.695638" xlink:href="#m9870377164" y="44.592315"/>
     <use style="fill:#e74c3c;stroke:#e74c3c;stroke-linejoin:miter;" x="236.214894" xlink:href="#m9870377164" y="39.078228"/>
     <use style="fill:#e74c3c;stroke:#e74c3c;stroke-linejoin:miter;" x="243.734151" xlink:href="#m9870377164" y="34.54769"/>
     <use style="fill:#e74c3c;stroke:#e74c3c;stroke-linejoin:miter;" x="251.253407" xlink:href="#m9870377164" y="31.217767"/>
     <use style="fill:#e74c3c;stroke:#e74c3c;stroke-linejoin:miter;" x="258.772663" xlink:href="#m9870377164" y="29.253889"/>
     <use style="fill:#e74c3c;stroke:#e74c3c;stroke-linejoin:miter;" x="266.29192" xlink:href="#m9870377164" y="28.756329"/>
     <use style="fill:#e74c3c;stroke:#e74c3c;stroke-linejoin:miter;" x="273.811176" xlink:href="#m9870377164" y="29.751813"/>
     <use style="fill:#e74c3c;stroke:#e74c3c;stroke-linejoin:miter;" x="281.330432" xlink:href="#m9870377164" y="32.191244"/>
     <use style="fill:#e74c3c;stroke:#e74c3c;stroke-linejoin:miter;" x="288.849688" xlink:href="#m9870377164" y="35.953805"/>
     <use style="fill:#e74c3c;stroke:#e74c3c;stroke-linejoin:miter;" x="296.368945" xlink:href="#m9870377164" y="40.856973"/>
     <use style="fill:#e74c3c;stroke:#e74c3c;stroke-linejoin:miter;" x="303.888201" xlink:href="#m9870377164" y="46.671265"/>
     <use style="fill:#e74c3c;stroke:#e74c3c;stroke-linejoin:miter;" x="311.407457" xlink:href="#m9870377164" y="53.138087"/>
     <use style="fill:#e74c3c;stroke:#e74c3c;stroke-linejoin:miter;" x="318.926714" xlink:href="#m9870377164" y="59.988723"/>
     <use style="fill:#e74c3c;stroke:#e74c3c;stroke-linejoin:miter;" x="326.44597" xlink:href="#m9870377164" y="66.962567"/>
     <use style="fill:#e74c3c;stroke:#e74c3c;stroke-linejoin:miter;" x="333.965226" xlink:href="#m9870377164" y="73.822903"/>
     <use style="fill:#e74c3c;stroke:#e74c3c;stroke-linejoin:miter;" x="341.484482" xlink:href="#m9870377164" y="80.368981"/>
     <use style="fill:#e74c3c;stroke:#e74c3c;stroke-linejoin:miter;" x="349.003739" xlink:href="#m9870377164" y="86.443722"/>
     <use style="fill:#e74c3c;stroke:#e74c3c;stroke-linejoin:miter;" x="356.522995" xlink:href="#m9870377164" y="91.9369"/>
     <use style="fill:#e74c3c;stroke:#e74c3c;stroke-linejoin:miter;" x="364.042251" xlink:href="#m9870377164" y="96.784203"/>
     <use style="fill:#e74c3c;stroke:#e74c3c;stroke-linejoin:miter;" x="371.561508" xlink:href="#m9870377164" y="100.962935"/>
     <use style="fill:#e74c3c;stroke:#e74c3c;stroke-linejoin:miter;" x="379.080764" xlink:href="#m9870377164" y="104.485349"/>
     <use style="fill:#e74c3c;stroke:#e74c3c;stroke-linejoin:miter;" x="386.60002" xlink:href="#m9870377164" y="107.390679"/>
     <use style="fill:#e74c3c;stroke:#e74c3c;stroke-linejoin:miter;" x="394.119276" xlink:href="#m9870377164" y="109.736856"/>
     <use style="fill:#e74c3c;stroke:#e74c3c;stroke-linejoin:miter;" x="401.638533" xlink:href="#m9870377164" y="111.592703"/>
     <use style="fill:#e74c3c;stroke:#e74c3c;stroke-linejoin:miter;" x="409.157789" xlink:href="#m9870377164" y="113.031214"/>
     <use style="fill:#e74c3c;stroke:#e74c3c;stroke-linejoin:miter;" x="416.677045" xlink:href="#m9870377164" y="114.12421"/>
     <use style="fill:#e74c3c;stroke:#e74c3c;stroke-linejoin:miter;" x="424.196302" xlink:href="#m9870377164" y="114.938507"/>
     <use style="fill:#e74c3c;stroke:#e74c3c;stroke-linejoin:miter;" x="431.715558" xlink:href="#m9870377164" y="115.5335"/>
    </g>
   </g>
   <g id="line2d_16">
    <defs>
     <path d="M 0 -3  L -0.673542 -0.927051  L -2.85317 -0.927051  L -1.089814 0.354102  L -1.763356 2.427051  L -0 1.145898  L 1.763356 2.427051  L 1.089814 0.354102  L 2.85317 -0.927051  L 0.673542 -0.927051  z " id="m61680614b2" style="stroke:#808000;stroke-linejoin:bevel;"/>
    </defs>
    <g clip-path="url(#p03ab218b7f)">
     <use style="fill:#808000;stroke:#808000;stroke-linejoin:bevel;" x="63.272" xlink:href="#m61680614b2" y="115.866712"/>
     <use style="fill:#808000;stroke:#808000;stroke-linejoin:bevel;" x="70.791256" xlink:href="#m61680614b2" y="115.866692"/>
     <use style="fill:#808000;stroke:#808000;stroke-linejoin:bevel;" x="78.310513" xlink:href="#m61680614b2" y="115.866623"/>
     <use style="fill:#808000;stroke:#808000;stroke-linejoin:bevel;" x="85.829769" xlink:href="#m61680614b2" y="115.866431"/>
     <use style="fill:#808000;stroke:#808000;stroke-linejoin:bevel;" x="93.349025" xlink:href="#m61680614b2" y="115.865917"/>
     <use style="fill:#808000;stroke:#808000;stroke-linejoin:bevel;" x="100.868281" xlink:href="#m61680614b2" y="115.864604"/>
     <use style="fill:#808000;stroke:#808000;stroke-linejoin:bevel;" x="108.387538" xlink:href="#m61680614b2" y="115.86139"/>
     <use style="fill:#808000;stroke:#808000;stroke-linejoin:bevel;" x="115.906794" xlink:href="#m61680614b2" y="115.853865"/>
     <use style="fill:#808000;stroke:#808000;stroke-linejoin:bevel;" x="123.42605" xlink:href="#m61680614b2" y="115.837007"/>
     <use style="fill:#808000;stroke:#808000;stroke-linejoin:bevel;" x="130.945307" xlink:href="#m61680614b2" y="115.800886"/>
     <use style="fill:#808000;stroke:#808000;stroke-linejoin:bevel;" x="138.464563" xlink:href="#m61680614b2" y="115.726874"/>
     <use style="fill:#808000;stroke:#808000;stroke-linejoin:bevel;" x="145.983819" xlink:href="#m61680614b2" y="115.581909"/>
     <use style="fill:#808000;stroke:#808000;stroke-linejoin:bevel;" x="153.503075" xlink:href="#m61680614b2" y="115.310589"/>
     <use style="fill:#808000;stroke:#808000;stroke-linejoin:bevel;" x="161.022332" xlink:href="#m61680614b2" y="114.825564"/>
     <use style="fill:#808000;stroke:#808000;stroke-linejoin:bevel;" x="168.541588" xlink:href="#m61680614b2" y="113.997872"/>
     <use style="fill:#808000;stroke:#808000;stroke-linejoin:bevel;" x="176.060844" xlink:href="#m61680614b2" y="112.650451"/>
     <use style="fill:#808000;stroke:#808000;stroke-linejoin:bevel;" x="183.580101" xlink:href="#m61680614b2" y="110.559696"/>
     <use style="fill:#808000;stroke:#808000;stroke-linejoin:bevel;" x="191.099357" xlink:href="#m61680614b2" y="107.470759"/>
     <use style="fill:#808000;stroke:#808000;stroke-linejoin:bevel;" x="198.618613" xlink:href="#m61680614b2" y="103.131385"/>
     <use style="fill:#808000;stroke:#808000;stroke-linejoin:bevel;" x="206.137869" xlink:href="#m61680614b2" y="97.345439"/>
     <use style="fill:#808000;stroke:#808000;stroke-linejoin:bevel;" x="213.657126" xlink:href="#m61680614b2" y="90.041006"/>
     <use style="fill:#808000;stroke:#808000;stroke-linejoin:bevel;" x="221.176382" xlink:href="#m61680614b2" y="81.340078"/>
     <use style="fill:#808000;stroke:#808000;stroke-linejoin:bevel;" x="228.695638" xlink:href="#m61680614b2" y="71.610224"/>
     <use style="fill:#808000;stroke:#808000;stroke-linejoin:bevel;" x="236.214894" xlink:href="#m61680614b2" y="61.476553"/>
     <use style="fill:#808000;stroke:#808000;stroke-linejoin:bevel;" x="243.734151" xlink:href="#m61680614b2" y="51.777583"/>
     <use style="fill:#808000;stroke:#808000;stroke-linejoin:bevel;" x="251.253407" xlink:href="#m61680614b2" y="43.46163"/>
     <use style="fill:#808000;stroke:#808000;stroke-linejoin:bevel;" x="258.772663" xlink:href="#m61680614b2" y="37.438133"/>
     <use style="fill:#808000;stroke:#808000;stroke-linejoin:bevel;" x="266.29192" xlink:href="#m61680614b2" y="34.415"/>
     <use style="fill:#808000;stroke:#808000;stroke-linejoin:bevel;" x="273.811176" xlink:href="#m61680614b2" y="34.761903"/>
     <use style="fill:#808000;stroke:#808000;stroke-linejoin:bevel;" x="281.330432" xlink:href="#m61680614b2" y="38.43597"/>
     <use style="fill:#808000;stroke:#808000;stroke-linejoin:bevel;" x="288.849688" xlink:href="#m61680614b2" y="44.990493"/>
     <use style="fill:#808000;stroke:#808000;stroke-linejoin:bevel;" x="296.368945" xlink:href="#m61680614b2" y="53.664223"/>
     <use style="fill:#808000;stroke:#808000;stroke-linejoin:bevel;" x="303.888201" xlink:href="#m61680614b2" y="63.526583"/>
     <use style="fill:#808000;stroke:#808000;stroke-linejoin:bevel;" x="311.407457" xlink:href="#m61680614b2" y="73.640597"/>
     <use style="fill:#808000;stroke:#808000;stroke-linejoin:bevel;" x="318.926714" xlink:href="#m61680614b2" y="83.204472"/>
     <use style="fill:#808000;stroke:#808000;stroke-linejoin:bevel;" x="326.44597" xlink:href="#m61680614b2" y="91.643709"/>
     <use style="fill:#808000;stroke:#808000;stroke-linejoin:bevel;" x="333.965226" xlink:href="#m61680614b2" y="98.643074"/>
     <use style="fill:#808000;stroke:#808000;stroke-linejoin:bevel;" x="341.484482" xlink:href="#m61680614b2" y="104.124969"/>
     <use style="fill:#808000;stroke:#808000;stroke-linejoin:bevel;" x="349.003739" xlink:href="#m61680614b2" y="108.192327"/>
     <use style="fill:#808000;stroke:#808000;stroke-linejoin:bevel;" x="356.522995" xlink:href="#m61680614b2" y="111.057831"/>
     <use style="fill:#808000;stroke:#808000;stroke-linejoin:bevel;" x="364.042251" xlink:href="#m61680614b2" y="112.977983"/>
     <use style="fill:#808000;stroke:#808000;stroke-linejoin:bevel;" x="371.561508" xlink:href="#m61680614b2" y="114.203385"/>
     <use style="fill:#808000;stroke:#808000;stroke-linejoin:bevel;" x="379.080764" xlink:href="#m61680614b2" y="114.94892"/>
     <use style="fill:#808000;stroke:#808000;stroke-linejoin:bevel;" x="386.60002" xlink:href="#m61680614b2" y="115.381684"/>
     <use style="fill:#808000;stroke:#808000;stroke-linejoin:bevel;" x="394.119276" xlink:href="#m61680614b2" y="115.621517"/>
     <use style="fill:#808000;stroke:#808000;stroke-linejoin:bevel;" x="401.638533" xlink:href="#m61680614b2" y="115.748479"/>
     <use style="fill:#808000;stroke:#808000;stroke-linejoin:bevel;" x="409.157789" xlink:href="#m61680614b2" y="115.812708"/>
     <use style="fill:#808000;stroke:#808000;stroke-linejoin:bevel;" x="416.677045" xlink:href="#m61680614b2" y="115.843771"/>
     <use style="fill:#808000;stroke:#808000;stroke-linejoin:bevel;" x="424.196302" xlink:href="#m61680614b2" y="115.858138"/>
     <use style="fill:#808000;stroke:#808000;stroke-linejoin:bevel;" x="431.715558" xlink:href="#m61680614b2" y="115.864493"/>
    </g>
   </g>
   <g id="line2d_17">
    <defs>
     <path d="M 0 3  C 0.795609 3 1.55874 2.683901 2.12132 2.12132  C 2.683901 1.55874 3 0.795609 3 0  C 3 -0.795609 2.683901 -1.55874 2.12132 -2.12132  C 1.55874 -2.683901 0.795609 -3 0 -3  C -0.795609 -3 -1.55874 -2.683901 -2.12132 -2.12132  C -2.683901 -1.55874 -3 -0.795609 -3 0  C -3 0.795609 -2.683901 1.55874 -2.12132 2.12132  C -1.55874 2.683901 -0.795609 3 0 3  z " id="m0d62900c31" style="stroke:#008080;"/>
    </defs>
    <g clip-path="url(#p03ab218b7f)">
     <use style="fill:#008080;stroke:#008080;" x="63.272" xlink:href="#m0d62900c31" y="115.888912"/>
     <use style="fill:#008080;stroke:#008080;" x="70.791256" xlink:href="#m0d62900c31" y="115.971122"/>
     <use style="fill:#008080;stroke:#008080;" x="78.310513" xlink:href="#m0d62900c31" y="116.127373"/>
     <use style="fill:#008080;stroke:#008080;" x="85.829769" xlink:href="#m0d62900c31" y="116.356936"/>
     <use style="fill:#008080;stroke:#008080;" x="93.349025" xlink:href="#m0d62900c31" y="116.688043"/>
     <use style="fill:#008080;stroke:#008080;" x="100.868281" xlink:href="#m0d62900c31" y="117.156914"/>
     <use style="fill:#008080;stroke:#008080;" x="108.387538" xlink:href="#m0d62900c31" y="117.808893"/>
     <use style="fill:#008080;stroke:#008080;" x="115.906794" xlink:href="#m0d62900c31" y="118.69943"/>
     <use style="fill:#008080;stroke:#008080;" x="123.42605" xlink:href="#m0d62900c31" y="119.894916"/>
     <use style="fill:#008080;stroke:#008080;" x="130.945307" xlink:href="#m0d62900c31" y="121.473473"/>
     <use style="fill:#008080;stroke:#008080;" x="138.464563" xlink:href="#m0d62900c31" y="123.525934"/>
     <use style="fill:#008080;stroke:#008080;" x="145.983819" xlink:href="#m0d62900c31" y="126.15734"/>
     <use style="fill:#008080;stroke:#008080;" x="153.503075" xlink:href="#m0d62900c31" y="129.489093"/>
     <use style="fill:#008080;stroke:#008080;" x="161.022332" xlink:href="#m0d62900c31" y="133.661508"/>
     <use style="fill:#008080;stroke:#008080;" x="168.541588" xlink:href="#m0d62900c31" y="138.835491"/>
     <use style="fill:#008080;stroke:#008080;" x="176.060844" xlink:href="#m0d62900c31" y="145.190762"/>
     <use style="fill:#008080;stroke:#008080;" x="183.580101" xlink:href="#m0d62900c31" y="152.916621"/>
     <use style="fill:#008080;stroke:#008080;" x="191.099357" xlink:href="#m0d62900c31" y="162.190568"/>
     <use style="fill:#008080;stroke:#008080;" x="198.618613" xlink:href="#m0d62900c31" y="173.141058"/>
     <use style="fill:#008080;stroke:#008080;" x="206.137869" xlink:href="#m0d62900c31" y="185.794161"/>
     <use style="fill:#008080;stroke:#008080;" x="213.657126" xlink:href="#m0d62900c31" y="200.009926"/>
     <use style="fill:#008080;stroke:#008080;" x="221.176382" xlink:href="#m0d62900c31" y="215.421684"/>
     <use style="fill:#008080;stroke:#008080;" x="228.695638" xlink:href="#m0d62900c31" y="231.397608"/>
     <use style="fill:#008080;stroke:#008080;" x="236.214894" xlink:href="#m0d62900c31" y="247.045367"/>
     <use style="fill:#008080;stroke:#008080;" x="243.734151" xlink:href="#m0d62900c31" y="261.274874"/>
     <use style="fill:#008080;stroke:#008080;" x="251.253407" xlink:href="#m0d62900c31" y="272.920751"/>
     <use style="fill:#008080;stroke:#008080;" x="258.772663" xlink:href="#m0d62900c31" y="280.908126"/>
     <use style="fill:#008080;stroke:#008080;" x="266.29192" xlink:href="#m0d62900c31" y="284.428819"/>
     <use style="fill:#008080;stroke:#008080;" x="273.811176" xlink:href="#m0d62900c31" y="283.086431"/>
     <use style="fill:#008080;stroke:#008080;" x="281.330432" xlink:href="#m0d62900c31" y="276.972934"/>
     <use style="fill:#008080;stroke:#008080;" x="288.849688" xlink:href="#m0d62900c31" y="266.655849"/>
     <use style="fill:#008080;stroke:#008080;" x="296.368945" xlink:href="#m0d62900c31" y="253.078952"/>
     <use style="fill:#008080;stroke:#008080;" x="303.888201" xlink:href="#m0d62900c31" y="237.402299"/>
     <use style="fill:#008080;stroke:#008080;" x="311.407457" xlink:href="#m0d62900c31" y="220.821463"/>
     <use style="fill:#008080;stroke:#008080;" x="318.926714" xlink:href="#m0d62900c31" y="204.406953"/>
     <use style="fill:#008080;stroke:#008080;" x="326.44597" xlink:href="#m0d62900c31" y="188.993872"/>
     <use style="fill:#008080;stroke:#008080;" x="333.965226" xlink:href="#m0d62900c31" y="175.134171"/>
     <use style="fill:#008080;stroke:#008080;" x="341.484482" xlink:href="#m0d62900c31" y="163.106198"/>
     <use style="fill:#008080;stroke:#008080;" x="349.003739" xlink:href="#m0d62900c31" y="152.964099"/>
     <use style="fill:#008080;stroke:#008080;" x="356.522995" xlink:href="#m0d62900c31" y="144.605417"/>
     <use style="fill:#008080;stroke:#008080;" x="364.042251" xlink:href="#m0d62900c31" y="137.837961"/>
     <use style="fill:#008080;stroke:#008080;" x="371.561508" xlink:href="#m0d62900c31" y="132.433827"/>
     <use style="fill:#008080;stroke:#008080;" x="379.080764" xlink:href="#m0d62900c31" y="128.165879"/>
     <use style="fill:#008080;stroke:#008080;" x="386.60002" xlink:href="#m0d62900c31" y="124.827785"/>
     <use style="fill:#008080;stroke:#008080;" x="394.119276" xlink:href="#m0d62900c31" y="122.241775"/>
     <use style="fill:#008080;stroke:#008080;" x="401.638533" xlink:href="#m0d62900c31" y="120.258966"/>
     <use style="fill:#008080;stroke:#008080;" x="409.157789" xlink:href="#m0d62900c31" y="118.756226"/>
     <use style="fill:#008080;stroke:#008080;" x="416.677045" xlink:href="#m0d62900c31" y="117.632166"/>
     <use style="fill:#008080;stroke:#008080;" x="424.196302" xlink:href="#m0d62900c31" y="116.803503"/>
     <use style="fill:#008080;stroke:#008080;" x="431.715558" xlink:href="#m0d62900c31" y="116.202155"/>
    </g>
   </g>
   <g id="line2d_18">
    <path clip-path="url(#p03ab218b7f)" d="M 62.906685 115.866492  L 100.607239 115.75851  L 116.827245 115.512027  L 127.348329 115.142631  L 135.239143 114.661838  L 141.814821 114.056204  L 147.513742 113.323134  L 152.774285 112.423876  L 157.596448 111.366724  L 161.980234 110.174312  L 165.925641 108.882783  L 169.871047 107.357414  L 173.816454 105.572906  L 177.323483 103.750256  L 180.830511 101.690454  L 184.337539 99.382779  L 188.173351 96.567518  L 191.899569 93.540496  L 195.844976 90.030079  L 200.009572 86.006357  L 204.612546 81.226105  L 210.092278 75.183975  L 229.435731 53.507038  L 233.490733 49.489315  L 237.107355 46.211184  L 240.395194 43.518765  L 243.573439 41.201216  L 246.532494 39.310267  L 249.381954 37.740838  L 252.231415 36.422152  L 254.971281 35.391183  L 257.711147 34.590453  L 260.533209 34.001877  L 263.327872 33.648732  L 266.177332 33.515736  L 269.08159 33.606169  L 272.040645 33.921493  L 275.109295 34.473278  L 278.314938 35.278958  L 281.712372 36.370744  L 285.2194 37.734616  L 288.945617 39.424517  L 292.891024 41.457888  L 297.165215 43.912217  L 301.713392 46.773361  L 306.973935 50.351145  L 313.111234 54.810614  L 320.782859 60.678009  L 346.099219 80.270676  L 352.674897 84.968065  L 358.812197 89.086187  L 364.511118 92.648735  L 370.210039 95.940488  L 375.470581 98.729836  L 380.731123 101.277532  L 385.991666 103.586043  L 391.252208 105.661802  L 396.512751 107.51442  L 402.211672 109.283617  L 407.910593 110.822607  L 414.047892 112.244215  L 420.62357 113.522951  L 427.199248 114.577516  L 434.213305 115.486452  L 437.720333 115.821702  L 437.720333 115.821702  " style="fill:none;stroke:#e74c3c;stroke-linecap:square;stroke-width:2;"/>
   </g>
   <g id="line2d_19">
    <path clip-path="url(#p03ab218b7f)" d="M 62.906685 115.866611  L 110.689945 115.758706  L 127.348329 115.521403  L 138.307793 115.159773  L 146.636985 114.676807  L 153.651042 114.050932  L 159.349963 113.334261  L 164.610505 112.453657  L 169.432669 111.413208  L 173.816454 110.230544  L 177.761861 108.937214  L 181.707268 107.392165  L 185.214296 105.778864  L 188.830919 103.850784  L 192.118758 101.842512  L 195.406597 99.571636  L 198.694436 97.0221  L 201.982275 94.181828  L 205.270114 91.044185  L 208.557953 87.609507  L 212.064982 83.628544  L 215.791199 79.065537  L 219.955795 73.614635  L 225.216338 66.33954  L 238.64168 47.569924  L 242.477493 42.704344  L 245.655737 39.014148  L 248.505197 36.027571  L 251.135469 33.579431  L 253.546551 31.62125  L 255.848038 30.02498  L 258.067329 28.75058  L 260.204425 27.777503  L 262.286723 27.074394  L 264.314223 26.624795  L 266.286927 26.410457  L 268.25963 26.414982  L 270.287131 26.644762  L 272.314632 27.098111  L 274.39693 27.789875  L 276.561424 28.742993  L 278.862911 30.005958  L 281.273993 31.588814  L 283.79467 33.507283  L 286.534535 35.870892  L 289.603185 38.823156  L 293.000619 42.411895  L 296.946026 46.916401  L 301.932582 52.972469  L 312.672856 66.506671  L 319.029344 74.274249  L 323.851508 79.828333  L 328.235294 84.541631  L 332.180701 88.470971  L 336.016513 91.986544  L 339.96192 95.279166  L 343.468948 97.929636  L 346.975976 100.324511  L 350.483004 102.472252  L 353.990033 104.384509  L 357.93544 106.271868  L 361.880846 107.901419  L 365.826253 109.297033  L 370.210039 110.602925  L 374.593824 111.682844  L 379.415988 112.646997  L 384.67653 113.475063  L 390.81383 114.203286  L 397.827886 114.794513  L 406.157079 115.256556  L 416.678163 115.596801  L 431.144655 115.817417  L 437.720333 115.864062  L 437.720333 115.864062  " style="fill:none;stroke:#808000;stroke-linecap:square;stroke-width:2;"/>
   </g>
   <g id="line2d_20">
    <path clip-path="url(#p03ab218b7f)" d="M 62.906685 115.867044  L 95.785075 115.975386  L 111.566702 116.226232  L 121.649408 116.595574  L 129.540222 117.102354  L 135.677522 117.702569  L 140.938064 118.418238  L 145.760228 119.288203  L 150.144013 120.30255  L 154.08942 121.437359  L 157.596448 122.655124  L 161.103477 124.101181  L 164.610505 125.808497  L 167.679155 127.544369  L 170.747805 129.531963  L 173.816454 131.796698  L 176.885104 134.364196  L 179.953754 137.25969  L 183.022404 140.50731  L 186.091053 144.129232  L 189.050108 147.994399  L 191.899569 152.07528  L 194.968219 156.87346  L 198.036868 162.094177  L 201.324707 168.153039  L 204.612546 174.678442  L 208.119575 182.121531  L 212.064982 191.026739  L 216.667956 201.993557  L 223.243634 218.31825  L 231.846813 239.60585  L 236.121004 249.570967  L 239.628032 257.197185  L 242.696682 263.349724  L 245.436548 268.363055  L 247.957224 272.529714  L 250.258712 275.93129  L 252.450604 278.792941  L 254.532902 281.155931  L 256.505606 283.065705  L 258.396113 284.589882  L 260.204425 285.764334  L 261.957939 286.637201  L 263.656656 287.233161  L 265.300575 287.5772  L 266.944495 287.694507  L 268.588414 287.588109  L 270.232334 287.261871  L 271.93105 286.698746  L 273.684565 285.882736  L 275.465477 284.817419  L 277.438181 283.369373  L 279.520479 281.548817  L 281.712372 279.325682  L 284.013859 276.67414  L 286.534535 273.425328  L 289.274401 269.522628  L 292.343051 264.744682  L 295.740485 259.025682  L 299.685892 251.926263  L 304.343664 243.08005  L 311.35772 229.232673  L 322.317183 207.624352  L 327.796915 197.329307  L 332.619079 188.733052  L 336.89327 181.542419  L 340.838677 175.295826  L 344.784083 169.442334  L 348.72949 163.989753  L 352.674897 158.937922  L 356.620304 154.280126  L 360.127332 150.461127  L 363.634361 146.933104  L 367.579767 143.295872  L 371.525174 139.990535  L 375.470581 136.995814  L 379.415988 134.289949  L 383.361395 131.851252  L 387.306802 129.658514  L 391.690587 127.485802  L 396.074372 125.564982  L 400.896536 123.713417  L 405.7187 122.106108  L 410.979242 120.598681  L 416.239785 119.316493  L 421.938706 118.148315  L 428.076005 117.111474  L 435.090062 116.164697  L 437.720333 115.914384  L 437.720333 115.914384  " style="fill:none;stroke:#008080;stroke-linecap:square;stroke-width:2;"/>
   </g>
   <g id="patch_3">
    <path d="M 63.272 300.76  L 63.272 13.32  " style="fill:none;stroke:#000000;stroke-linecap:square;stroke-linejoin:miter;stroke-width:0.8;"/>
   </g>
   <g id="patch_4">
    <path d="M 437.355 300.76  L 437.355 13.32  " style="fill:none;stroke:#000000;stroke-linecap:square;stroke-linejoin:miter;stroke-width:0.8;"/>
   </g>
   <g id="patch_5">
    <path d="M 63.272 300.76  L 437.355 300.76  " style="fill:none;stroke:#000000;stroke-linecap:square;stroke-linejoin:miter;stroke-width:0.8;"/>
   </g>
   <g id="patch_6">
    <path d="M 63.272 13.32  L 437.355 13.32  " style="fill:none;stroke:#000000;stroke-linecap:square;stroke-linejoin:miter;stroke-width:0.8;"/>
   </g>
   <g id="legend_1">
    <g id="patch_7">
     <path d="M 70.272 295.76  L 136.495438 295.76  Q 138.495438 295.76 138.495438 293.76  L 138.495438 206.69125  Q 138.495438 204.69125 136.495438 204.69125  L 70.272 204.69125  Q 68.272 204.69125 68.272 206.69125  L 68.272 293.76  Q 68.272 295.76 70.272 295.76  z " style="fill:#ffffff;opacity:0.8;stroke:#cccccc;stroke-linejoin:miter;"/>
    </g>
    <g id="line2d_21"/>
    <g id="line2d_22">
     <g>
      <use style="fill:#e74c3c;stroke:#e74c3c;stroke-linejoin:miter;" x="82.272" xlink:href="#m9870377164" y="212.789687"/>
     </g>
    </g>
    <g id="text_17">
     <!-- exp-Al -->
     <defs>
      <path d="M 18.109375 8.203125  L 18.109375 -20.796875  L 9.078125 -20.796875  L 9.078125 54.6875  L 18.109375 54.6875  L 18.109375 46.390625  Q 20.953125 51.265625 25.265625 53.625  Q 29.59375 56 35.59375 56  Q 45.5625 56 51.78125 48.09375  Q 58.015625 40.1875 58.015625 27.296875  Q 58.015625 14.40625 51.78125 6.484375  Q 45.5625 -1.421875 35.59375 -1.421875  Q 29.59375 -1.421875 25.265625 0.953125  Q 20.953125 3.328125 18.109375 8.203125  z M 48.6875 27.296875  Q 48.6875 37.203125 44.609375 42.84375  Q 40.53125 48.484375 33.40625 48.484375  Q 26.265625 48.484375 22.1875 42.84375  Q 18.109375 37.203125 18.109375 27.296875  Q 18.109375 17.390625 22.1875 11.75  Q 26.265625 6.109375 33.40625 6.109375  Q 40.53125 6.109375 44.609375 11.75  Q 48.6875 17.390625 48.6875 27.296875  z " id="DejaVuSans-70"/>
      <path d="M 34.1875 63.1875  L 20.796875 26.90625  L 47.609375 26.90625  z M 28.609375 72.90625  L 39.796875 72.90625  L 67.578125 0  L 57.328125 0  L 50.6875 18.703125  L 17.828125 18.703125  L 11.1875 0  L 0.78125 0  z " id="DejaVuSans-41"/>
     </defs>
     <g transform="translate(100.272 216.289687)scale(0.1 -0.1)">
      <use xlink:href="#DejaVuSans-65"/>
      <use x="61.507812" xlink:href="#DejaVuSans-78"/>
      <use x="120.6875" xlink:href="#DejaVuSans-70"/>
      <use x="184.164062" xlink:href="#DejaVuSans-2d"/>
      <use x="220.216797" xlink:href="#DejaVuSans-41"/>
      <use x="288.625" xlink:href="#DejaVuSans-6c"/>
     </g>
    </g>
    <g id="line2d_23"/>
    <g id="line2d_24">
     <g>
      <use style="fill:#808000;stroke:#808000;stroke-linejoin:bevel;" x="82.272" xlink:href="#m61680614b2" y="227.467812"/>
     </g>
    </g>
    <g id="text_18">
     <!-- exp-Ta -->
     <defs>
      <path d="M -0.296875 72.90625  L 61.375 72.90625  L 61.375 64.59375  L 35.5 64.59375  L 35.5 0  L 25.59375 0  L 25.59375 64.59375  L -0.296875 64.59375  z " id="DejaVuSans-54"/>
     </defs>
     <g transform="translate(100.272 230.967812)scale(0.1 -0.1)">
      <use xlink:href="#DejaVuSans-65"/>
      <use x="61.507812" xlink:href="#DejaVuSans-78"/>
      <use x="120.6875" xlink:href="#DejaVuSans-70"/>
      <use x="184.164062" xlink:href="#DejaVuSans-2d"/>
      <use x="220.107422" xlink:href="#DejaVuSans-54"/>
      <use x="280.941406" xlink:href="#DejaVuSans-61"/>
     </g>
    </g>
    <g id="line2d_25"/>
    <g id="line2d_26">
     <g>
      <use style="fill:#008080;stroke:#008080;" x="82.272" xlink:href="#m0d62900c31" y="242.145938"/>
     </g>
    </g>
    <g id="text_19">
     <!-- exp-Ni -->
     <defs>
      <path d="M 9.8125 72.90625  L 23.09375 72.90625  L 55.421875 11.921875  L 55.421875 72.90625  L 64.984375 72.90625  L 64.984375 0  L 51.703125 0  L 19.390625 60.984375  L 19.390625 0  L 9.8125 0  z " id="DejaVuSans-4e"/>
     </defs>
     <g transform="translate(100.272 245.645938)scale(0.1 -0.1)">
      <use xlink:href="#DejaVuSans-65"/>
      <use x="61.507812" xlink:href="#DejaVuSans-78"/>
      <use x="120.6875" xlink:href="#DejaVuSans-70"/>
      <use x="184.164062" xlink:href="#DejaVuSans-2d"/>
      <use x="220.248047" xlink:href="#DejaVuSans-4e"/>
      <use x="295.052734" xlink:href="#DejaVuSans-69"/>
     </g>
    </g>
    <g id="line2d_27">
     <path d="M 72.272 256.824062  L 92.272 256.824062  " style="fill:none;stroke:#e74c3c;stroke-linecap:square;stroke-width:2;"/>
    </g>
    <g id="line2d_28"/>
    <g id="text_20">
     <!-- sim-Al -->
     <g transform="translate(100.272 260.324062)scale(0.1 -0.1)">
      <use xlink:href="#DejaVuSans-73"/>
      <use x="52.099609" xlink:href="#DejaVuSans-69"/>
      <use x="79.882812" xlink:href="#DejaVuSans-6d"/>
      <use x="177.294922" xlink:href="#DejaVuSans-2d"/>
      <use x="213.347656" xlink:href="#DejaVuSans-41"/>
      <use x="281.755859" xlink:href="#DejaVuSans-6c"/>
     </g>
    </g>
    <g id="line2d_29">
     <path d="M 72.272 271.502187  L 92.272 271.502187  " style="fill:none;stroke:#808000;stroke-linecap:square;stroke-width:2;"/>
    </g>
    <g id="line2d_30"/>
    <g id="text_21">
     <!-- sim-Ta -->
     <g transform="translate(100.272 275.002187)scale(0.1 -0.1)">
      <use xlink:href="#DejaVuSans-73"/>
      <use x="52.099609" xlink:href="#DejaVuSans-69"/>
      <use x="79.882812" xlink:href="#DejaVuSans-6d"/>
      <use x="177.294922" xlink:href="#DejaVuSans-2d"/>
      <use x="213.238281" xlink:href="#DejaVuSans-54"/>
      <use x="274.072266" xlink:href="#DejaVuSans-61"/>
     </g>
    </g>
    <g id="line2d_31">
     <path d="M 72.272 286.180313  L 92.272 286.180313  " style="fill:none;stroke:#008080;stroke-linecap:square;stroke-width:2;"/>
    </g>
    <g id="line2d_32"/>
    <g id="text_22">
     <!-- sim-Ni -->
     <g transform="translate(100.272 289.680313)scale(0.1 -0.1)">
      <use xlink:href="#DejaVuSans-73"/>
      <use x="52.099609" xlink:href="#DejaVuSans-69"/>
      <use x="79.882812" xlink:href="#DejaVuSans-6d"/>
      <use x="177.294922" xlink:href="#DejaVuSans-2d"/>
      <use x="213.378906" xlink:href="#DejaVuSans-4e"/>
      <use x="288.183594" xlink:href="#DejaVuSans-69"/>
     </g>
    </g>
   </g>
  </g>
 </g>
 <defs>
  <clipPath id="p03ab218b7f">
   <rect height="287.44" width="374.083" x="63.272" y="13.32"/>
  </clipPath>
 </defs>
</g>
    <g transform="translate(10, 300) scale(1) ">
      <g transform="translate(0, 0) scale(3.0) "><defs id="defs831"/>
  <sodipodi:namedview xmlns:sodipodi="http://sodipodi.sourceforge.net/DTD/sodipodi-0.dtd" xmlns:inkscape="http://www.inkscape.org/namespaces/inkscape" id="base" pagecolor="#ffffff" bordercolor="#666666" borderopacity="1.0" inkscape:pageopacity="0.0" inkscape:pageshadow="2" inkscape:zoom="1.979899" inkscape:cx="-12.763683" inkscape:cy="-16.680883" inkscape:document-units="mm" inkscape:current-layer="layer1" showgrid="false" inkscape:window-width="1920" inkscape:window-height="1001" inkscape:window-x="-9" inkscape:window-y="-9" inkscape:window-maximized="1" units="pt"/>
  <metadata xmlns:rdf="http://www.w3.org/1999/02/22-rdf-syntax-ns#" xmlns:cc="http://creativecommons.org/ns#" xmlns:dc="http://purl.org/dc/elements/1.1/" id="metadata834">
    <rdf:RDF>
      <cc:Work rdf:about="">
        <dc:format>image/svg+xml</dc:format>
        <dc:type rdf:resource="http://purl.org/dc/dcmitype/StillImage"/>
        <dc:title/>
      </cc:Work>
    </rdf:RDF>
  </metadata>
  <g xmlns:inkscape="http://www.inkscape.org/namespaces/inkscape" xmlns:sodipodi="http://sodipodi.sourceforge.net/DTD/sodipodi-0.dtd" inkscape:label="Layer 1" inkscape:groupmode="layer" id="layer1" transform="translate(0,-288.81557)">
    <g id="g4761" transform="matrix(0.07377843,0,0,0.07377843,-0.76923022,275.45946)">
      <path inkscape:connector-curvature="0" id="path1959-6-7-1-6-5-4-0-3-2-6-0-3-9-6" style="font-style:normal;font-variant:normal;font-weight:bold;font-stretch:normal;font-size:120.99466705px;line-height:1.25;font-family:Aharoni;-inkscape-font-specification:'Aharoni, Bold';font-variant-ligatures:normal;font-variant-caps:normal;font-variant-numeric:normal;font-feature-settings:normal;text-align:start;letter-spacing:0px;word-spacing:0px;writing-mode:lr-tb;text-anchor:start;fill:#000000;fill-opacity:1;stroke:none;stroke-width:2.37649584" d="M 52.937412,287.55677 H 40.587702 V 265.43005 H 22.776041 v 22.12672 h -12.34982 v -53.17432 h 12.34982 v 20.5296 h 17.811661 v -20.5296 h 12.34971 z"/>
      <path inkscape:connector-curvature="0" id="path1961-2-9-7-9-3-1-6-5-1-5-8-7-8-2" style="font-style:normal;font-variant:normal;font-weight:bold;font-stretch:normal;font-size:120.99466705px;line-height:1.25;font-family:Aharoni;-inkscape-font-specification:'Aharoni, Bold';font-variant-ligatures:normal;font-variant-caps:normal;font-variant-numeric:normal;font-feature-settings:normal;text-align:start;letter-spacing:0px;word-spacing:0px;writing-mode:lr-tb;text-anchor:start;fill:#000000;fill-opacity:1;stroke:none;stroke-width:2.37649584" d="m 69.681125,237.49895 q 0,3.0385 -1.87856,5.1421 -1.84375,2.0647 -4.55721,2.0647 -2.67866,0 -4.55722,-2.1036 -1.84375,-2.1036 -1.84375,-5.1032 0,-2.9996 1.84375,-5.0642 1.87856,-2.1036 4.55722,-2.1036 2.67865,0 4.55721,2.1036 1.87856,2.0646 1.87856,5.0642 z m -0.73057,50.05782 h -11.41048 v -36.15072 h 11.41048 z"/>
      <path inkscape:connector-curvature="0" id="path1963-3-1-2-8-3-6-3-3-3-4-7-6-0-8" style="font-style:normal;font-variant:normal;font-weight:bold;font-stretch:normal;font-size:120.99466705px;line-height:1.25;font-family:Aharoni;-inkscape-font-specification:'Aharoni, Bold';font-variant-ligatures:normal;font-variant-caps:normal;font-variant-numeric:normal;font-feature-settings:normal;text-align:start;letter-spacing:0px;word-spacing:0px;writing-mode:lr-tb;text-anchor:start;fill:#000000;fill-opacity:1;stroke:none;stroke-width:2.37649584" d="m 93.369625,261.92405 h -6.50536 v 25.63272 h -11.4104 v -25.63272 h -3.75712 v -10.518 h 3.75712 v -10.8686 h 11.4104 v 10.8686 h 6.50536 z"/>
      <path id="path1967-3-3-6-2-9-6-2-5-3-0-9-8-2-1" style="font-style:normal;font-variant:normal;font-weight:bold;font-stretch:normal;font-size:120.99466705px;line-height:1.25;font-family:Aharoni;-inkscape-font-specification:'Aharoni, Bold';font-variant-ligatures:normal;font-variant-caps:normal;font-variant-numeric:normal;font-feature-settings:normal;text-align:start;letter-spacing:0px;word-spacing:0px;writing-mode:lr-tb;text-anchor:start;fill:#000000;fill-opacity:1;stroke:none;stroke-width:2.37649584" d="m 160.61447,287.55677 h -12.34971 v -53.17432 h 12.34971 z" inkscape:connector-curvature="0"/>
      <path inkscape:connector-curvature="0" id="path1969-8-0-8-5-3-5-6-6-3-9-8-6-2-0" style="font-style:normal;font-variant:normal;font-weight:bold;font-stretch:normal;font-size:120.99466705px;line-height:1.25;font-family:Aharoni;-inkscape-font-specification:'Aharoni, Bold';font-variant-ligatures:normal;font-variant-caps:normal;font-variant-numeric:normal;font-feature-settings:normal;text-align:start;letter-spacing:0px;word-spacing:0px;writing-mode:lr-tb;text-anchor:start;fill:#000000;fill-opacity:1;stroke:none;stroke-width:2.37649584" d="m 201.6896,284.86883 q -6.05314,2.68794 -11.20172,2.68794 -8.97528,0 -16.07201,-6.42764 -9.04489,-8.21959 -9.04489,-21.42558 0,-13.2448 9.04489,-21.4644 7.09673,-6.4277 16.17636,-6.4277 4.93989,0 11.09737,2.6879 v 16.5561 q -1.73941,-2.3763 -3.54836,-3.5839 -3.30489,-2.2204 -7.09679,-2.2204 -4.8007,0 -8.34907,3.2333 -4.48766,4.0903 -4.48766,11.2191 0,7.0899 4.48766,11.1803 3.54837,3.23328 8.34907,3.23328 3.7919,0 7.09679,-2.22049 1.77415,-1.16869 3.54836,-3.58389 z"/>
      <path inkscape:transform-center-y="-13.656107" inkscape:transform-center-x="-3.9758045" sodipodi:nodetypes="csssssc" inkscape:connector-curvature="0" id="rect815-3-0-9-3-5-6-0-4-03-7-3-7-5-3-2-76-3-8-8-5-3-7-8-0-1-3-7-9-2-8-1" d="m 104.61223,181.4353 c 0,0 17.68257,27.27493 22.63096,34.41579 7.92879,11.44185 16.42741,30.36094 17.92806,45.50275 1.21005,12.20999 -1.38345,26.51285 -17.32077,30.11208 -11.70405,2.64313 -26.75007,-5.41371 -30.334975,-20.50903 -3.30533,-13.91816 -2.13088,-34.61412 0.0984,-48.67354 1.22049,-7.69719 5.657305,-36.06774 6.998335,-40.84805 z" style="font-style:normal;font-weight:normal;font-size:242.08590698px;line-height:1.25;font-family:sans-serif;letter-spacing:0px;word-spacing:0px;opacity:1;fill:#00456b;fill-opacity:1;stroke:none;stroke-width:0.6720385;stroke-miterlimit:4;stroke-dasharray:none;stroke-dashoffset:0;stroke-opacity:1;paint-order:markers fill stroke"/>
      <path sodipodi:nodetypes="ccscscsccscccscc" d="m 107.52748,246.32531 6.45576,30.78617 6.82019,-1.47997 c 5.75791,-1.24946 9.70999,-3.40081 11.85576,-6.45394 2.16431,-3.05721 2.68673,-7.25521 1.56721,-12.59398 -1.11209,-5.30332 -3.26743,-8.89247 -6.46601,-10.76744 -3.18372,-1.89669 -7.65528,-2.22015 -13.4127,-0.97081 z m -8.759905,-5.09591 12.713095,-2.78742 c 8.8634,-1.94336 15.73718,-1.59097 20.62135,1.05715 4.88003,2.62843 8.10326,7.71587 9.6697,15.26232 1.57464,7.58584 0.64804,13.61405 -2.77981,18.08462 -3.42783,4.4705 -9.55303,7.67294 -18.37559,9.60735 l -12.71311,2.78742 z" style="font-style:normal;font-weight:normal;font-size:242.08590698px;line-height:1.25;font-family:sans-serif;letter-spacing:0px;word-spacing:0px;fill:#ffffff;fill-opacity:1;stroke:none;stroke-width:1.60286868" id="path1193-3-5-3-2-7-4-5-6-0-0-6-9-2-4-7-0-0" inkscape:connector-curvature="0"/>
    </g>
  </g>
</g>
    </g>
  </g>
</svg>
