<?xml version='1.0' encoding='ASCII' standalone='yes'?>
<svg xmlns:xlink="http://www.w3.org/1999/xlink" xmlns="http://www.w3.org/2000/svg" version="1.1" width="460.8px" viewBox="0 0 460.8px 345.6px" height="345.6px">
  <g>
    <g><defs>
  <style type="text/css">
*{stroke-linecap:butt;stroke-linejoin:round;}
  </style>
 </defs>
 <g id="figure_1">
  <g id="patch_1">
   <path d="M 0 345.6  L 460.8 345.6  L 460.8 0  L 0 0  z " style="fill:#ffffff;"/>
  </g>
  <g id="axes_1">
   <g id="patch_2">
    <path d="M 62.12 300.76  L 437.355 300.76  L 437.355 13.32  L 62.12 13.32  z " style="fill:#ffffff;"/>
   </g>
   <g id="matplotlib.axis_1">
    <g id="xtick_1">
     <g id="line2d_1">
      <defs>
       <path d="M 0 0  L 0 3.5  " id="m73b3b14020" style="stroke:#000000;stroke-width:0.8;"/>
      </defs>
      <g>
       <use style="stroke:#000000;stroke-width:0.8;" x="62.12" xlink:href="#m73b3b14020" y="300.76"/>
      </g>
     </g>
     <g id="text_1">
      <!-- 0 -->
      <defs>
       <path d="M 31.78125 66.40625  Q 24.171875 66.40625 20.328125 58.90625  Q 16.5 51.421875 16.5 36.375  Q 16.5 21.390625 20.328125 13.890625  Q 24.171875 6.390625 31.78125 6.390625  Q 39.453125 6.390625 43.28125 13.890625  Q 47.125 21.390625 47.125 36.375  Q 47.125 51.421875 43.28125 58.90625  Q 39.453125 66.40625 31.78125 66.40625  z M 31.78125 74.21875  Q 44.046875 74.21875 50.515625 64.515625  Q 56.984375 54.828125 56.984375 36.375  Q 56.984375 17.96875 50.515625 8.265625  Q 44.046875 -1.421875 31.78125 -1.421875  Q 19.53125 -1.421875 13.0625 8.265625  Q 6.59375 17.96875 6.59375 36.375  Q 6.59375 54.828125 13.0625 64.515625  Q 19.53125 74.21875 31.78125 74.21875  z " id="DejaVuSans-30"/>
      </defs>
      <g transform="translate(58.93875 315.358437)scale(0.1 -0.1)">
       <use xlink:href="#DejaVuSans-30"/>
      </g>
     </g>
    </g>
    <g id="xtick_2">
     <g id="line2d_2">
      <g>
       <use style="stroke:#000000;stroke-width:0.8;" x="124.659167" xlink:href="#m73b3b14020" y="300.76"/>
      </g>
     </g>
     <g id="text_2">
      <!-- 200 -->
      <defs>
       <path d="M 19.1875 8.296875  L 53.609375 8.296875  L 53.609375 0  L 7.328125 0  L 7.328125 8.296875  Q 12.9375 14.109375 22.625 23.890625  Q 32.328125 33.6875 34.8125 36.53125  Q 39.546875 41.84375 41.421875 45.53125  Q 43.3125 49.21875 43.3125 52.78125  Q 43.3125 58.59375 39.234375 62.25  Q 35.15625 65.921875 28.609375 65.921875  Q 23.96875 65.921875 18.8125 64.3125  Q 13.671875 62.703125 7.8125 59.421875  L 7.8125 69.390625  Q 13.765625 71.78125 18.9375 73  Q 24.125 74.21875 28.421875 74.21875  Q 39.75 74.21875 46.484375 68.546875  Q 53.21875 62.890625 53.21875 53.421875  Q 53.21875 48.921875 51.53125 44.890625  Q 49.859375 40.875 45.40625 35.40625  Q 44.1875 33.984375 37.640625 27.21875  Q 31.109375 20.453125 19.1875 8.296875  z " id="DejaVuSans-32"/>
      </defs>
      <g transform="translate(115.115417 315.358437)scale(0.1 -0.1)">
       <use xlink:href="#DejaVuSans-32"/>
       <use x="63.623047" xlink:href="#DejaVuSans-30"/>
       <use x="127.246094" xlink:href="#DejaVuSans-30"/>
      </g>
     </g>
    </g>
    <g id="xtick_3">
     <g id="line2d_3">
      <g>
       <use style="stroke:#000000;stroke-width:0.8;" x="187.198333" xlink:href="#m73b3b14020" y="300.76"/>
      </g>
     </g>
     <g id="text_3">
      <!-- 400 -->
      <defs>
       <path d="M 37.796875 64.3125  L 12.890625 25.390625  L 37.796875 25.390625  z M 35.203125 72.90625  L 47.609375 72.90625  L 47.609375 25.390625  L 58.015625 25.390625  L 58.015625 17.1875  L 47.609375 17.1875  L 47.609375 0  L 37.796875 0  L 37.796875 17.1875  L 4.890625 17.1875  L 4.890625 26.703125  z " id="DejaVuSans-34"/>
      </defs>
      <g transform="translate(177.654583 315.358437)scale(0.1 -0.1)">
       <use xlink:href="#DejaVuSans-34"/>
       <use x="63.623047" xlink:href="#DejaVuSans-30"/>
       <use x="127.246094" xlink:href="#DejaVuSans-30"/>
      </g>
     </g>
    </g>
    <g id="xtick_4">
     <g id="line2d_4">
      <g>
       <use style="stroke:#000000;stroke-width:0.8;" x="249.7375" xlink:href="#m73b3b14020" y="300.76"/>
      </g>
     </g>
     <g id="text_4">
      <!-- 600 -->
      <defs>
       <path d="M 33.015625 40.375  Q 26.375 40.375 22.484375 35.828125  Q 18.609375 31.296875 18.609375 23.390625  Q 18.609375 15.53125 22.484375 10.953125  Q 26.375 6.390625 33.015625 6.390625  Q 39.65625 6.390625 43.53125 10.953125  Q 47.40625 15.53125 47.40625 23.390625  Q 47.40625 31.296875 43.53125 35.828125  Q 39.65625 40.375 33.015625 40.375  z M 52.59375 71.296875  L 52.59375 62.3125  Q 48.875 64.0625 45.09375 64.984375  Q 41.3125 65.921875 37.59375 65.921875  Q 27.828125 65.921875 22.671875 59.328125  Q 17.53125 52.734375 16.796875 39.40625  Q 19.671875 43.65625 24.015625 45.921875  Q 28.375 48.1875 33.59375 48.1875  Q 44.578125 48.1875 50.953125 41.515625  Q 57.328125 34.859375 57.328125 23.390625  Q 57.328125 12.15625 50.6875 5.359375  Q 44.046875 -1.421875 33.015625 -1.421875  Q 20.359375 -1.421875 13.671875 8.265625  Q 6.984375 17.96875 6.984375 36.375  Q 6.984375 53.65625 15.1875 63.9375  Q 23.390625 74.21875 37.203125 74.21875  Q 40.921875 74.21875 44.703125 73.484375  Q 48.484375 72.75 52.59375 71.296875  z " id="DejaVuSans-36"/>
      </defs>
      <g transform="translate(240.19375 315.358437)scale(0.1 -0.1)">
       <use xlink:href="#DejaVuSans-36"/>
       <use x="63.623047" xlink:href="#DejaVuSans-30"/>
       <use x="127.246094" xlink:href="#DejaVuSans-30"/>
      </g>
     </g>
    </g>
    <g id="xtick_5">
     <g id="line2d_5">
      <g>
       <use style="stroke:#000000;stroke-width:0.8;" x="312.276667" xlink:href="#m73b3b14020" y="300.76"/>
      </g>
     </g>
     <g id="text_5">
      <!-- 800 -->
      <defs>
       <path d="M 31.78125 34.625  Q 24.75 34.625 20.71875 30.859375  Q 16.703125 27.09375 16.703125 20.515625  Q 16.703125 13.921875 20.71875 10.15625  Q 24.75 6.390625 31.78125 6.390625  Q 38.8125 6.390625 42.859375 10.171875  Q 46.921875 13.96875 46.921875 20.515625  Q 46.921875 27.09375 42.890625 30.859375  Q 38.875 34.625 31.78125 34.625  z M 21.921875 38.8125  Q 15.578125 40.375 12.03125 44.71875  Q 8.5 49.078125 8.5 55.328125  Q 8.5 64.0625 14.71875 69.140625  Q 20.953125 74.21875 31.78125 74.21875  Q 42.671875 74.21875 48.875 69.140625  Q 55.078125 64.0625 55.078125 55.328125  Q 55.078125 49.078125 51.53125 44.71875  Q 48 40.375 41.703125 38.8125  Q 48.828125 37.15625 52.796875 32.3125  Q 56.78125 27.484375 56.78125 20.515625  Q 56.78125 9.90625 50.3125 4.234375  Q 43.84375 -1.421875 31.78125 -1.421875  Q 19.734375 -1.421875 13.25 4.234375  Q 6.78125 9.90625 6.78125 20.515625  Q 6.78125 27.484375 10.78125 32.3125  Q 14.796875 37.15625 21.921875 38.8125  z M 18.3125 54.390625  Q 18.3125 48.734375 21.84375 45.5625  Q 25.390625 42.390625 31.78125 42.390625  Q 38.140625 42.390625 41.71875 45.5625  Q 45.3125 48.734375 45.3125 54.390625  Q 45.3125 60.0625 41.71875 63.234375  Q 38.140625 66.40625 31.78125 66.40625  Q 25.390625 66.40625 21.84375 63.234375  Q 18.3125 60.0625 18.3125 54.390625  z " id="DejaVuSans-38"/>
      </defs>
      <g transform="translate(302.732917 315.358437)scale(0.1 -0.1)">
       <use xlink:href="#DejaVuSans-38"/>
       <use x="63.623047" xlink:href="#DejaVuSans-30"/>
       <use x="127.246094" xlink:href="#DejaVuSans-30"/>
      </g>
     </g>
    </g>
    <g id="xtick_6">
     <g id="line2d_6">
      <g>
       <use style="stroke:#000000;stroke-width:0.8;" x="374.815833" xlink:href="#m73b3b14020" y="300.76"/>
      </g>
     </g>
     <g id="text_6">
      <!-- 1000 -->
      <defs>
       <path d="M 12.40625 8.296875  L 28.515625 8.296875  L 28.515625 63.921875  L 10.984375 60.40625  L 10.984375 69.390625  L 28.421875 72.90625  L 38.28125 72.90625  L 38.28125 8.296875  L 54.390625 8.296875  L 54.390625 0  L 12.40625 0  z " id="DejaVuSans-31"/>
      </defs>
      <g transform="translate(362.090833 315.358437)scale(0.1 -0.1)">
       <use xlink:href="#DejaVuSans-31"/>
       <use x="63.623047" xlink:href="#DejaVuSans-30"/>
       <use x="127.246094" xlink:href="#DejaVuSans-30"/>
       <use x="190.869141" xlink:href="#DejaVuSans-30"/>
      </g>
     </g>
    </g>
    <g id="xtick_7">
     <g id="line2d_7">
      <g>
       <use style="stroke:#000000;stroke-width:0.8;" x="437.355" xlink:href="#m73b3b14020" y="300.76"/>
      </g>
     </g>
     <g id="text_7">
      <!-- 1200 -->
      <g transform="translate(424.63 315.358437)scale(0.1 -0.1)">
       <use xlink:href="#DejaVuSans-31"/>
       <use x="63.623047" xlink:href="#DejaVuSans-32"/>
       <use x="127.246094" xlink:href="#DejaVuSans-30"/>
       <use x="190.869141" xlink:href="#DejaVuSans-30"/>
      </g>
     </g>
    </g>
    <g id="text_8">
     <!-- Distance ($\mu$m) -->
     <defs>
      <path d="M 19.671875 64.796875  L 19.671875 8.109375  L 31.59375 8.109375  Q 46.6875 8.109375 53.6875 14.9375  Q 60.6875 21.78125 60.6875 36.53125  Q 60.6875 51.171875 53.6875 57.984375  Q 46.6875 64.796875 31.59375 64.796875  z M 9.8125 72.90625  L 30.078125 72.90625  Q 51.265625 72.90625 61.171875 64.09375  Q 71.09375 55.28125 71.09375 36.53125  Q 71.09375 17.671875 61.125 8.828125  Q 51.171875 0 30.078125 0  L 9.8125 0  z " id="DejaVuSans-44"/>
      <path d="M 9.421875 54.6875  L 18.40625 54.6875  L 18.40625 0  L 9.421875 0  z M 9.421875 75.984375  L 18.40625 75.984375  L 18.40625 64.59375  L 9.421875 64.59375  z " id="DejaVuSans-69"/>
      <path d="M 44.28125 53.078125  L 44.28125 44.578125  Q 40.484375 46.53125 36.375 47.5  Q 32.28125 48.484375 27.875 48.484375  Q 21.1875 48.484375 17.84375 46.4375  Q 14.5 44.390625 14.5 40.28125  Q 14.5 37.15625 16.890625 35.375  Q 19.28125 33.59375 26.515625 31.984375  L 29.59375 31.296875  Q 39.15625 29.25 43.1875 25.515625  Q 47.21875 21.78125 47.21875 15.09375  Q 47.21875 7.46875 41.1875 3.015625  Q 35.15625 -1.421875 24.609375 -1.421875  Q 20.21875 -1.421875 15.453125 -0.5625  Q 10.6875 0.296875 5.421875 2  L 5.421875 11.28125  Q 10.40625 8.6875 15.234375 7.390625  Q 20.0625 6.109375 24.8125 6.109375  Q 31.15625 6.109375 34.5625 8.28125  Q 37.984375 10.453125 37.984375 14.40625  Q 37.984375 18.0625 35.515625 20.015625  Q 33.0625 21.96875 24.703125 23.78125  L 21.578125 24.515625  Q 13.234375 26.265625 9.515625 29.90625  Q 5.8125 33.546875 5.8125 39.890625  Q 5.8125 47.609375 11.28125 51.796875  Q 16.75 56 26.8125 56  Q 31.78125 56 36.171875 55.265625  Q 40.578125 54.546875 44.28125 53.078125  z " id="DejaVuSans-73"/>
      <path d="M 18.3125 70.21875  L 18.3125 54.6875  L 36.8125 54.6875  L 36.8125 47.703125  L 18.3125 47.703125  L 18.3125 18.015625  Q 18.3125 11.328125 20.140625 9.421875  Q 21.96875 7.515625 27.59375 7.515625  L 36.8125 7.515625  L 36.8125 0  L 27.59375 0  Q 17.1875 0 13.234375 3.875  Q 9.28125 7.765625 9.28125 18.015625  L 9.28125 47.703125  L 2.6875 47.703125  L 2.6875 54.6875  L 9.28125 54.6875  L 9.28125 70.21875  z " id="DejaVuSans-74"/>
      <path d="M 34.28125 27.484375  Q 23.390625 27.484375 19.1875 25  Q 14.984375 22.515625 14.984375 16.5  Q 14.984375 11.71875 18.140625 8.90625  Q 21.296875 6.109375 26.703125 6.109375  Q 34.1875 6.109375 38.703125 11.40625  Q 43.21875 16.703125 43.21875 25.484375  L 43.21875 27.484375  z M 52.203125 31.203125  L 52.203125 0  L 43.21875 0  L 43.21875 8.296875  Q 40.140625 3.328125 35.546875 0.953125  Q 30.953125 -1.421875 24.3125 -1.421875  Q 15.921875 -1.421875 10.953125 3.296875  Q 6 8.015625 6 15.921875  Q 6 25.140625 12.171875 29.828125  Q 18.359375 34.515625 30.609375 34.515625  L 43.21875 34.515625  L 43.21875 35.40625  Q 43.21875 41.609375 39.140625 45  Q 35.0625 48.390625 27.6875 48.390625  Q 23 48.390625 18.546875 47.265625  Q 14.109375 46.140625 10.015625 43.890625  L 10.015625 52.203125  Q 14.9375 54.109375 19.578125 55.046875  Q 24.21875 56 28.609375 56  Q 40.484375 56 46.34375 49.84375  Q 52.203125 43.703125 52.203125 31.203125  z " id="DejaVuSans-61"/>
      <path d="M 54.890625 33.015625  L 54.890625 0  L 45.90625 0  L 45.90625 32.71875  Q 45.90625 40.484375 42.875 44.328125  Q 39.84375 48.1875 33.796875 48.1875  Q 26.515625 48.1875 22.3125 43.546875  Q 18.109375 38.921875 18.109375 30.90625  L 18.109375 0  L 9.078125 0  L 9.078125 54.6875  L 18.109375 54.6875  L 18.109375 46.1875  Q 21.34375 51.125 25.703125 53.5625  Q 30.078125 56 35.796875 56  Q 45.21875 56 50.046875 50.171875  Q 54.890625 44.34375 54.890625 33.015625  z " id="DejaVuSans-6e"/>
      <path d="M 48.78125 52.59375  L 48.78125 44.1875  Q 44.96875 46.296875 41.140625 47.34375  Q 37.3125 48.390625 33.40625 48.390625  Q 24.65625 48.390625 19.8125 42.84375  Q 14.984375 37.3125 14.984375 27.296875  Q 14.984375 17.28125 19.8125 11.734375  Q 24.65625 6.203125 33.40625 6.203125  Q 37.3125 6.203125 41.140625 7.25  Q 44.96875 8.296875 48.78125 10.40625  L 48.78125 2.09375  Q 45.015625 0.34375 40.984375 -0.53125  Q 36.96875 -1.421875 32.421875 -1.421875  Q 20.0625 -1.421875 12.78125 6.34375  Q 5.515625 14.109375 5.515625 27.296875  Q 5.515625 40.671875 12.859375 48.328125  Q 20.21875 56 33.015625 56  Q 37.15625 56 41.109375 55.140625  Q 45.0625 54.296875 48.78125 52.59375  z " id="DejaVuSans-63"/>
      <path d="M 56.203125 29.59375  L 56.203125 25.203125  L 14.890625 25.203125  Q 15.484375 15.921875 20.484375 11.0625  Q 25.484375 6.203125 34.421875 6.203125  Q 39.59375 6.203125 44.453125 7.46875  Q 49.3125 8.734375 54.109375 11.28125  L 54.109375 2.78125  Q 49.265625 0.734375 44.1875 -0.34375  Q 39.109375 -1.421875 33.890625 -1.421875  Q 20.796875 -1.421875 13.15625 6.1875  Q 5.515625 13.8125 5.515625 26.8125  Q 5.515625 40.234375 12.765625 48.109375  Q 20.015625 56 32.328125 56  Q 43.359375 56 49.78125 48.890625  Q 56.203125 41.796875 56.203125 29.59375  z M 47.21875 32.234375  Q 47.125 39.59375 43.09375 43.984375  Q 39.0625 48.390625 32.421875 48.390625  Q 24.90625 48.390625 20.390625 44.140625  Q 15.875 39.890625 15.1875 32.171875  z " id="DejaVuSans-65"/>
      <path id="DejaVuSans-20"/>
      <path d="M 31 75.875  Q 24.46875 64.65625 21.28125 53.65625  Q 18.109375 42.671875 18.109375 31.390625  Q 18.109375 20.125 21.3125 9.0625  Q 24.515625 -2 31 -13.1875  L 23.1875 -13.1875  Q 15.875 -1.703125 12.234375 9.375  Q 8.59375 20.453125 8.59375 31.390625  Q 8.59375 42.28125 12.203125 53.3125  Q 15.828125 64.359375 23.1875 75.875  z " id="DejaVuSans-28"/>
      <path d="M -1.3125 -20.796875  L 13.375 54.6875  L 22.40625 54.6875  L 15.765625 20.65625  Q 15.578125 19.625 15.421875 18.359375  Q 15.28125 17.09375 15.28125 15.828125  Q 15.28125 11.28125 18.140625 8.828125  Q 21 6.390625 26.3125 6.390625  Q 33.546875 6.390625 37.984375 10.484375  Q 42.4375 14.59375 44 22.796875  L 50.203125 54.6875  L 59.1875 54.6875  L 51.03125 12.640625  Q 50.828125 11.71875 50.75 11.03125  Q 50.6875 10.359375 50.6875 9.8125  Q 50.6875 8.296875 51.296875 7.59375  Q 51.90625 6.890625 53.21875 6.890625  Q 53.71875 6.890625 54.5625 7.125  Q 55.421875 7.375 56.984375 8.015625  L 55.609375 0.78125  Q 53.46875 -0.296875 51.515625 -0.859375  Q 49.5625 -1.421875 47.703125 -1.421875  Q 44.484375 -1.421875 42.65625 0.625  Q 40.828125 2.6875 40.828125 6.296875  Q 38.09375 2.390625 34.296875 0.484375  Q 30.515625 -1.421875 25.390625 -1.421875  Q 20.84375 -1.421875 17.453125 0.671875  Q 14.0625 2.78125 12.984375 6.203125  L 7.71875 -20.796875  z " id="DejaVuSans-Oblique-3bc"/>
      <path d="M 52 44.1875  Q 55.375 50.25 60.0625 53.125  Q 64.75 56 71.09375 56  Q 79.640625 56 84.28125 50.015625  Q 88.921875 44.046875 88.921875 33.015625  L 88.921875 0  L 79.890625 0  L 79.890625 32.71875  Q 79.890625 40.578125 77.09375 44.375  Q 74.3125 48.1875 68.609375 48.1875  Q 61.625 48.1875 57.5625 43.546875  Q 53.515625 38.921875 53.515625 30.90625  L 53.515625 0  L 44.484375 0  L 44.484375 32.71875  Q 44.484375 40.625 41.703125 44.40625  Q 38.921875 48.1875 33.109375 48.1875  Q 26.21875 48.1875 22.15625 43.53125  Q 18.109375 38.875 18.109375 30.90625  L 18.109375 0  L 9.078125 0  L 9.078125 54.6875  L 18.109375 54.6875  L 18.109375 46.1875  Q 21.1875 51.21875 25.484375 53.609375  Q 29.78125 56 35.6875 56  Q 41.65625 56 45.828125 52.96875  Q 50 49.953125 52 44.1875  z " id="DejaVuSans-6d"/>
      <path d="M 8.015625 75.875  L 15.828125 75.875  Q 23.140625 64.359375 26.78125 53.3125  Q 30.421875 42.28125 30.421875 31.390625  Q 30.421875 20.453125 26.78125 9.375  Q 23.140625 -1.703125 15.828125 -13.1875  L 8.015625 -13.1875  Q 14.5 -2 17.703125 9.0625  Q 20.90625 20.125 20.90625 31.390625  Q 20.90625 42.671875 17.703125 53.65625  Q 14.5 64.65625 8.015625 75.875  z " id="DejaVuSans-29"/>
     </defs>
     <g transform="translate(214.2875 329.038125)scale(0.1 -0.1)">
      <use transform="translate(0 0.015625)" xlink:href="#DejaVuSans-44"/>
      <use transform="translate(77.001953 0.015625)" xlink:href="#DejaVuSans-69"/>
      <use transform="translate(104.785156 0.015625)" xlink:href="#DejaVuSans-73"/>
      <use transform="translate(156.884766 0.015625)" xlink:href="#DejaVuSans-74"/>
      <use transform="translate(196.09375 0.015625)" xlink:href="#DejaVuSans-61"/>
      <use transform="translate(257.373047 0.015625)" xlink:href="#DejaVuSans-6e"/>
      <use transform="translate(320.751953 0.015625)" xlink:href="#DejaVuSans-63"/>
      <use transform="translate(375.732422 0.015625)" xlink:href="#DejaVuSans-65"/>
      <use transform="translate(437.255859 0.015625)" xlink:href="#DejaVuSans-20"/>
      <use transform="translate(469.042969 0.015625)" xlink:href="#DejaVuSans-28"/>
      <use transform="translate(508.056641 0.015625)" xlink:href="#DejaVuSans-Oblique-3bc"/>
      <use transform="translate(571.679688 0.015625)" xlink:href="#DejaVuSans-6d"/>
      <use transform="translate(669.091797 0.015625)" xlink:href="#DejaVuSans-29"/>
     </g>
    </g>
   </g>
   <g id="matplotlib.axis_2">
    <g id="ytick_1">
     <g id="line2d_8">
      <defs>
       <path d="M 0 0  L -3.5 0  " id="m7a9ac4cf17" style="stroke:#000000;stroke-width:0.8;"/>
      </defs>
      <g>
       <use style="stroke:#000000;stroke-width:0.8;" x="62.12" xlink:href="#m7a9ac4cf17" y="299.351292"/>
      </g>
     </g>
     <g id="text_9">
      <!-- &#8722;100 -->
      <defs>
       <path d="M 10.59375 35.5  L 73.1875 35.5  L 73.1875 27.203125  L 10.59375 27.203125  z " id="DejaVuSans-2212"/>
      </defs>
      <g transform="translate(27.652813 303.150511)scale(0.1 -0.1)">
       <use xlink:href="#DejaVuSans-2212"/>
       <use x="83.789062" xlink:href="#DejaVuSans-31"/>
       <use x="147.412109" xlink:href="#DejaVuSans-30"/>
       <use x="211.035156" xlink:href="#DejaVuSans-30"/>
      </g>
     </g>
    </g>
    <g id="ytick_2">
     <g id="line2d_9">
      <g>
       <use style="stroke:#000000;stroke-width:0.8;" x="62.12" xlink:href="#m7a9ac4cf17" y="239.878109"/>
      </g>
     </g>
     <g id="text_10">
      <!-- &#8722;50 -->
      <defs>
       <path d="M 10.796875 72.90625  L 49.515625 72.90625  L 49.515625 64.59375  L 19.828125 64.59375  L 19.828125 46.734375  Q 21.96875 47.46875 24.109375 47.828125  Q 26.265625 48.1875 28.421875 48.1875  Q 40.625 48.1875 47.75 41.5  Q 54.890625 34.8125 54.890625 23.390625  Q 54.890625 11.625 47.5625 5.09375  Q 40.234375 -1.421875 26.90625 -1.421875  Q 22.3125 -1.421875 17.546875 -0.640625  Q 12.796875 0.140625 7.71875 1.703125  L 7.71875 11.625  Q 12.109375 9.234375 16.796875 8.0625  Q 21.484375 6.890625 26.703125 6.890625  Q 35.15625 6.890625 40.078125 11.328125  Q 45.015625 15.765625 45.015625 23.390625  Q 45.015625 31 40.078125 35.4375  Q 35.15625 39.890625 26.703125 39.890625  Q 22.75 39.890625 18.8125 39.015625  Q 14.890625 38.140625 10.796875 36.28125  z " id="DejaVuSans-35"/>
      </defs>
      <g transform="translate(34.015313 243.677327)scale(0.1 -0.1)">
       <use xlink:href="#DejaVuSans-2212"/>
       <use x="83.789062" xlink:href="#DejaVuSans-35"/>
       <use x="147.412109" xlink:href="#DejaVuSans-30"/>
      </g>
     </g>
    </g>
    <g id="ytick_3">
     <g id="line2d_10">
      <g>
       <use style="stroke:#000000;stroke-width:0.8;" x="62.12" xlink:href="#m7a9ac4cf17" y="180.404925"/>
      </g>
     </g>
     <g id="text_11">
      <!-- 0 -->
      <g transform="translate(48.7575 184.204144)scale(0.1 -0.1)">
       <use xlink:href="#DejaVuSans-30"/>
      </g>
     </g>
    </g>
    <g id="ytick_4">
     <g id="line2d_11">
      <g>
       <use style="stroke:#000000;stroke-width:0.8;" x="62.12" xlink:href="#m7a9ac4cf17" y="120.931741"/>
      </g>
     </g>
     <g id="text_12">
      <!-- 50 -->
      <g transform="translate(42.395 124.73096)scale(0.1 -0.1)">
       <use xlink:href="#DejaVuSans-35"/>
       <use x="63.623047" xlink:href="#DejaVuSans-30"/>
      </g>
     </g>
    </g>
    <g id="ytick_5">
     <g id="line2d_12">
      <g>
       <use style="stroke:#000000;stroke-width:0.8;" x="62.12" xlink:href="#m7a9ac4cf17" y="61.458558"/>
      </g>
     </g>
     <g id="text_13">
      <!-- 100 -->
      <g transform="translate(36.0325 65.257776)scale(0.1 -0.1)">
       <use xlink:href="#DejaVuSans-31"/>
       <use x="63.623047" xlink:href="#DejaVuSans-30"/>
       <use x="127.246094" xlink:href="#DejaVuSans-30"/>
      </g>
     </g>
    </g>
    <g id="text_14">
     <!-- Slope, at. / $\mu m$ -->
     <defs>
      <path d="M 53.515625 70.515625  L 53.515625 60.890625  Q 47.90625 63.578125 42.921875 64.890625  Q 37.9375 66.21875 33.296875 66.21875  Q 25.25 66.21875 20.875 63.09375  Q 16.5 59.96875 16.5 54.203125  Q 16.5 49.359375 19.40625 46.890625  Q 22.3125 44.4375 30.421875 42.921875  L 36.375 41.703125  Q 47.40625 39.59375 52.65625 34.296875  Q 57.90625 29 57.90625 20.125  Q 57.90625 9.515625 50.796875 4.046875  Q 43.703125 -1.421875 29.984375 -1.421875  Q 24.8125 -1.421875 18.96875 -0.25  Q 13.140625 0.921875 6.890625 3.21875  L 6.890625 13.375  Q 12.890625 10.015625 18.65625 8.296875  Q 24.421875 6.59375 29.984375 6.59375  Q 38.421875 6.59375 43.015625 9.90625  Q 47.609375 13.234375 47.609375 19.390625  Q 47.609375 24.75 44.3125 27.78125  Q 41.015625 30.8125 33.5 32.328125  L 27.484375 33.5  Q 16.453125 35.6875 11.515625 40.375  Q 6.59375 45.0625 6.59375 53.421875  Q 6.59375 63.09375 13.40625 68.65625  Q 20.21875 74.21875 32.171875 74.21875  Q 37.3125 74.21875 42.625 73.28125  Q 47.953125 72.359375 53.515625 70.515625  z " id="DejaVuSans-53"/>
      <path d="M 9.421875 75.984375  L 18.40625 75.984375  L 18.40625 0  L 9.421875 0  z " id="DejaVuSans-6c"/>
      <path d="M 30.609375 48.390625  Q 23.390625 48.390625 19.1875 42.75  Q 14.984375 37.109375 14.984375 27.296875  Q 14.984375 17.484375 19.15625 11.84375  Q 23.34375 6.203125 30.609375 6.203125  Q 37.796875 6.203125 41.984375 11.859375  Q 46.1875 17.53125 46.1875 27.296875  Q 46.1875 37.015625 41.984375 42.703125  Q 37.796875 48.390625 30.609375 48.390625  z M 30.609375 56  Q 42.328125 56 49.015625 48.375  Q 55.71875 40.765625 55.71875 27.296875  Q 55.71875 13.875 49.015625 6.21875  Q 42.328125 -1.421875 30.609375 -1.421875  Q 18.84375 -1.421875 12.171875 6.21875  Q 5.515625 13.875 5.515625 27.296875  Q 5.515625 40.765625 12.171875 48.375  Q 18.84375 56 30.609375 56  z " id="DejaVuSans-6f"/>
      <path d="M 18.109375 8.203125  L 18.109375 -20.796875  L 9.078125 -20.796875  L 9.078125 54.6875  L 18.109375 54.6875  L 18.109375 46.390625  Q 20.953125 51.265625 25.265625 53.625  Q 29.59375 56 35.59375 56  Q 45.5625 56 51.78125 48.09375  Q 58.015625 40.1875 58.015625 27.296875  Q 58.015625 14.40625 51.78125 6.484375  Q 45.5625 -1.421875 35.59375 -1.421875  Q 29.59375 -1.421875 25.265625 0.953125  Q 20.953125 3.328125 18.109375 8.203125  z M 48.6875 27.296875  Q 48.6875 37.203125 44.609375 42.84375  Q 40.53125 48.484375 33.40625 48.484375  Q 26.265625 48.484375 22.1875 42.84375  Q 18.109375 37.203125 18.109375 27.296875  Q 18.109375 17.390625 22.1875 11.75  Q 26.265625 6.109375 33.40625 6.109375  Q 40.53125 6.109375 44.609375 11.75  Q 48.6875 17.390625 48.6875 27.296875  z " id="DejaVuSans-70"/>
      <path d="M 11.71875 12.40625  L 22.015625 12.40625  L 22.015625 4  L 14.015625 -11.625  L 7.71875 -11.625  L 11.71875 4  z " id="DejaVuSans-2c"/>
      <path d="M 10.6875 12.40625  L 21 12.40625  L 21 0  L 10.6875 0  z " id="DejaVuSans-2e"/>
      <path d="M 25.390625 72.90625  L 33.6875 72.90625  L 8.296875 -9.28125  L 0 -9.28125  z " id="DejaVuSans-2f"/>
      <path d="M 89.796875 33.015625  L 83.40625 0  L 74.421875 0  L 80.71875 32.71875  Q 81.109375 34.8125 81.296875 36.328125  Q 81.5 37.84375 81.5 38.921875  Q 81.5 43.3125 79.046875 45.75  Q 76.609375 48.1875 72.21875 48.1875  Q 65.671875 48.1875 60.546875 43.28125  Q 55.421875 38.375 53.90625 30.515625  L 47.90625 0  L 38.921875 0  L 45.3125 32.71875  Q 45.703125 34.515625 45.890625 36.046875  Q 46.09375 37.59375 46.09375 38.8125  Q 46.09375 43.265625 43.65625 45.71875  Q 41.21875 48.1875 36.921875 48.1875  Q 30.28125 48.1875 25.140625 43.28125  Q 20.015625 38.375 18.5 30.515625  L 12.5 0  L 3.515625 0  L 14.203125 54.6875  L 23.1875 54.6875  L 21.484375 46.1875  Q 25.140625 50.984375 30.046875 53.484375  Q 34.96875 56 40.578125 56  Q 46.53125 56 50.359375 52.875  Q 54.203125 49.75 54.984375 44.1875  Q 59.078125 49.953125 64.46875 52.96875  Q 69.875 56 75.875 56  Q 82.90625 56 86.734375 51.953125  Q 90.578125 47.90625 90.578125 40.484375  Q 90.578125 38.875 90.375 36.9375  Q 90.1875 35.015625 89.796875 33.015625  z " id="DejaVuSans-Oblique-6d"/>
     </defs>
     <g transform="translate(21.552813 193.64)rotate(-90)scale(0.1 -0.1)">
      <use transform="translate(0 0.015625)" xlink:href="#DejaVuSans-53"/>
      <use transform="translate(63.476562 0.015625)" xlink:href="#DejaVuSans-6c"/>
      <use transform="translate(91.259766 0.015625)" xlink:href="#DejaVuSans-6f"/>
      <use transform="translate(152.441406 0.015625)" xlink:href="#DejaVuSans-70"/>
      <use transform="translate(215.917969 0.015625)" xlink:href="#DejaVuSans-65"/>
      <use transform="translate(277.441406 0.015625)" xlink:href="#DejaVuSans-2c"/>
      <use transform="translate(309.228516 0.015625)" xlink:href="#DejaVuSans-20"/>
      <use transform="translate(341.015625 0.015625)" xlink:href="#DejaVuSans-61"/>
      <use transform="translate(402.294922 0.015625)" xlink:href="#DejaVuSans-74"/>
      <use transform="translate(441.503906 0.015625)" xlink:href="#DejaVuSans-2e"/>
      <use transform="translate(473.291016 0.015625)" xlink:href="#DejaVuSans-20"/>
      <use transform="translate(505.078125 0.015625)" xlink:href="#DejaVuSans-2f"/>
      <use transform="translate(538.769531 0.015625)" xlink:href="#DejaVuSans-20"/>
      <use transform="translate(570.556641 0.015625)" xlink:href="#DejaVuSans-Oblique-3bc"/>
      <use transform="translate(634.179688 0.015625)" xlink:href="#DejaVuSans-Oblique-6d"/>
     </g>
    </g>
   </g>
   <g id="line2d_13">
    <defs>
     <path d="M -0 3  L 3 -3  L -3 -3  z " id="mba1b12df86" style="stroke:#e74c3c;stroke-linejoin:miter;"/>
    </defs>
    <g clip-path="url(#p0e9e0e88e0)">
     <use style="fill:#e74c3c;stroke:#e74c3c;stroke-linejoin:miter;" x="62.12" xlink:href="#mba1b12df86" y="180.51492"/>
     <use style="fill:#e74c3c;stroke:#e74c3c;stroke-linejoin:miter;" x="69.662412" xlink:href="#mba1b12df86" y="180.55891"/>
     <use style="fill:#e74c3c;stroke:#e74c3c;stroke-linejoin:miter;" x="77.204824" xlink:href="#mba1b12df86" y="180.642492"/>
     <use style="fill:#e74c3c;stroke:#e74c3c;stroke-linejoin:miter;" x="84.747236" xlink:href="#mba1b12df86" y="180.765229"/>
     <use style="fill:#e74c3c;stroke:#e74c3c;stroke-linejoin:miter;" x="92.289648" xlink:href="#mba1b12df86" y="180.942114"/>
     <use style="fill:#e74c3c;stroke:#e74c3c;stroke-linejoin:miter;" x="99.83206" xlink:href="#mba1b12df86" y="181.192261"/>
     <use style="fill:#e74c3c;stroke:#e74c3c;stroke-linejoin:miter;" x="107.374472" xlink:href="#mba1b12df86" y="181.53933"/>
     <use style="fill:#e74c3c;stroke:#e74c3c;stroke-linejoin:miter;" x="114.916884" xlink:href="#mba1b12df86" y="182.011685"/>
     <use style="fill:#e74c3c;stroke:#e74c3c;stroke-linejoin:miter;" x="122.459296" xlink:href="#mba1b12df86" y="182.642145"/>
     <use style="fill:#e74c3c;stroke:#e74c3c;stroke-linejoin:miter;" x="130.001709" xlink:href="#mba1b12df86" y="183.467179"/>
     <use style="fill:#e74c3c;stroke:#e74c3c;stroke-linejoin:miter;" x="137.544121" xlink:href="#mba1b12df86" y="184.525413"/>
     <use style="fill:#e74c3c;stroke:#e74c3c;stroke-linejoin:miter;" x="145.086533" xlink:href="#mba1b12df86" y="185.855358"/>
     <use style="fill:#e74c3c;stroke:#e74c3c;stroke-linejoin:miter;" x="152.628945" xlink:href="#mba1b12df86" y="187.492346"/>
     <use style="fill:#e74c3c;stroke:#e74c3c;stroke-linejoin:miter;" x="160.171357" xlink:href="#mba1b12df86" y="189.464761"/>
     <use style="fill:#e74c3c;stroke:#e74c3c;stroke-linejoin:miter;" x="167.713769" xlink:href="#mba1b12df86" y="191.789775"/>
     <use style="fill:#e74c3c;stroke:#e74c3c;stroke-linejoin:miter;" x="175.256181" xlink:href="#mba1b12df86" y="194.468935"/>
     <use style="fill:#e74c3c;stroke:#e74c3c;stroke-linejoin:miter;" x="182.798593" xlink:href="#mba1b12df86" y="197.484062"/>
     <use style="fill:#e74c3c;stroke:#e74c3c;stroke-linejoin:miter;" x="190.341005" xlink:href="#mba1b12df86" y="200.794001"/>
     <use style="fill:#e74c3c;stroke:#e74c3c;stroke-linejoin:miter;" x="197.883417" xlink:href="#mba1b12df86" y="204.332795"/>
     <use style="fill:#e74c3c;stroke:#e74c3c;stroke-linejoin:miter;" x="205.425829" xlink:href="#mba1b12df86" y="208.009777"/>
     <use style="fill:#e74c3c;stroke:#e74c3c;stroke-linejoin:miter;" x="212.968241" xlink:href="#mba1b12df86" y="211.711942"/>
     <use style="fill:#e74c3c;stroke:#e74c3c;stroke-linejoin:miter;" x="220.510653" xlink:href="#mba1b12df86" y="215.308735"/>
     <use style="fill:#e74c3c;stroke:#e74c3c;stroke-linejoin:miter;" x="228.053065" xlink:href="#mba1b12df86" y="218.659103"/>
     <use style="fill:#e74c3c;stroke:#e74c3c;stroke-linejoin:miter;" x="235.595477" xlink:href="#mba1b12df86" y="221.62035"/>
     <use style="fill:#e74c3c;stroke:#e74c3c;stroke-linejoin:miter;" x="243.137889" xlink:href="#mba1b12df86" y="224.058074"/>
     <use style="fill:#e74c3c;stroke:#e74c3c;stroke-linejoin:miter;" x="250.680302" xlink:href="#mba1b12df86" y="225.856219"/>
     <use style="fill:#e74c3c;stroke:#e74c3c;stroke-linejoin:miter;" x="258.222714" xlink:href="#mba1b12df86" y="226.926222"/>
     <use style="fill:#e74c3c;stroke:#e74c3c;stroke-linejoin:miter;" x="265.765126" xlink:href="#mba1b12df86" y="227.214237"/>
     <use style="fill:#e74c3c;stroke:#e74c3c;stroke-linejoin:miter;" x="273.307538" xlink:href="#mba1b12df86" y="226.705628"/>
     <use style="fill:#e74c3c;stroke:#e74c3c;stroke-linejoin:miter;" x="280.84995" xlink:href="#mba1b12df86" y="225.4262"/>
     <use style="fill:#e74c3c;stroke:#e74c3c;stroke-linejoin:miter;" x="288.392362" xlink:href="#mba1b12df86" y="223.440031"/>
     <use style="fill:#e74c3c;stroke:#e74c3c;stroke-linejoin:miter;" x="295.934774" xlink:href="#mba1b12df86" y="220.844153"/>
     <use style="fill:#e74c3c;stroke:#e74c3c;stroke-linejoin:miter;" x="303.477186" xlink:href="#mba1b12df86" y="217.760696"/>
     <use style="fill:#e74c3c;stroke:#e74c3c;stroke-linejoin:miter;" x="311.019598" xlink:href="#mba1b12df86" y="214.327393"/>
     <use style="fill:#e74c3c;stroke:#e74c3c;stroke-linejoin:miter;" x="318.56201" xlink:href="#mba1b12df86" y="210.687449"/>
     <use style="fill:#e74c3c;stroke:#e74c3c;stroke-linejoin:miter;" x="326.104422" xlink:href="#mba1b12df86" y="206.979821"/>
     <use style="fill:#e74c3c;stroke:#e74c3c;stroke-linejoin:miter;" x="333.646834" xlink:href="#mba1b12df86" y="203.330802"/>
     <use style="fill:#e74c3c;stroke:#e74c3c;stroke-linejoin:miter;" x="341.189246" xlink:href="#mba1b12df86" y="199.847564"/>
     <use style="fill:#e74c3c;stroke:#e74c3c;stroke-linejoin:miter;" x="348.731658" xlink:href="#mba1b12df86" y="196.614042"/>
     <use style="fill:#e74c3c;stroke:#e74c3c;stroke-linejoin:miter;" x="356.27407" xlink:href="#mba1b12df86" y="193.689216"/>
     <use style="fill:#e74c3c;stroke:#e74c3c;stroke-linejoin:miter;" x="363.816482" xlink:href="#mba1b12df86" y="191.107599"/>
     <use style="fill:#e74c3c;stroke:#e74c3c;stroke-linejoin:miter;" x="371.358894" xlink:href="#mba1b12df86" y="188.881513"/>
     <use style="fill:#e74c3c;stroke:#e74c3c;stroke-linejoin:miter;" x="378.901307" xlink:href="#mba1b12df86" y="187.004634"/>
     <use style="fill:#e74c3c;stroke:#e74c3c;stroke-linejoin:miter;" x="386.443719" xlink:href="#mba1b12df86" y="185.456227"/>
     <use style="fill:#e74c3c;stroke:#e74c3c;stroke-linejoin:miter;" x="393.986131" xlink:href="#mba1b12df86" y="184.205565"/>
     <use style="fill:#e74c3c;stroke:#e74c3c;stroke-linejoin:miter;" x="401.528543" xlink:href="#mba1b12df86" y="183.216082"/>
     <use style="fill:#e74c3c;stroke:#e74c3c;stroke-linejoin:miter;" x="409.070955" xlink:href="#mba1b12df86" y="182.44896"/>
     <use style="fill:#e74c3c;stroke:#e74c3c;stroke-linejoin:miter;" x="416.613367" xlink:href="#mba1b12df86" y="181.865979"/>
     <use style="fill:#e74c3c;stroke:#e74c3c;stroke-linejoin:miter;" x="424.155779" xlink:href="#mba1b12df86" y="181.431568"/>
     <use style="fill:#e74c3c;stroke:#e74c3c;stroke-linejoin:miter;" x="431.698191" xlink:href="#mba1b12df86" y="181.11409"/>
    </g>
   </g>
   <g id="line2d_14">
    <defs>
     <path d="M 0 -3  L -0.673542 -0.927051  L -2.85317 -0.927051  L -1.089814 0.354102  L -1.763356 2.427051  L -0 1.145898  L 1.763356 2.427051  L 1.089814 0.354102  L 2.85317 -0.927051  L 0.673542 -0.927051  z " id="m7a215c8d74" style="stroke:#808000;stroke-linejoin:bevel;"/>
    </defs>
    <g clip-path="url(#p0e9e0e88e0)">
     <use style="fill:#808000;stroke:#808000;stroke-linejoin:bevel;" x="62.12" xlink:href="#m7a215c8d74" y="180.404945"/>
     <use style="fill:#808000;stroke:#808000;stroke-linejoin:bevel;" x="69.662412" xlink:href="#m7a215c8d74" y="180.404971"/>
     <use style="fill:#808000;stroke:#808000;stroke-linejoin:bevel;" x="77.204824" xlink:href="#m7a215c8d74" y="180.405063"/>
     <use style="fill:#808000;stroke:#808000;stroke-linejoin:bevel;" x="84.747236" xlink:href="#m7a215c8d74" y="180.405318"/>
     <use style="fill:#808000;stroke:#808000;stroke-linejoin:bevel;" x="92.289648" xlink:href="#m7a215c8d74" y="180.405999"/>
     <use style="fill:#808000;stroke:#808000;stroke-linejoin:bevel;" x="99.83206" xlink:href="#m7a215c8d74" y="180.407739"/>
     <use style="fill:#808000;stroke:#808000;stroke-linejoin:bevel;" x="107.374472" xlink:href="#m7a215c8d74" y="180.411992"/>
     <use style="fill:#808000;stroke:#808000;stroke-linejoin:bevel;" x="114.916884" xlink:href="#m7a215c8d74" y="180.421944"/>
     <use style="fill:#808000;stroke:#808000;stroke-linejoin:bevel;" x="122.459296" xlink:href="#m7a215c8d74" y="180.444221"/>
     <use style="fill:#808000;stroke:#808000;stroke-linejoin:bevel;" x="130.001709" xlink:href="#m7a215c8d74" y="180.491921"/>
     <use style="fill:#808000;stroke:#808000;stroke-linejoin:bevel;" x="137.544121" xlink:href="#m7a215c8d74" y="180.589592"/>
     <use style="fill:#808000;stroke:#808000;stroke-linejoin:bevel;" x="145.086533" xlink:href="#m7a215c8d74" y="180.780774"/>
     <use style="fill:#808000;stroke:#808000;stroke-linejoin:bevel;" x="152.628945" xlink:href="#m7a215c8d74" y="181.138383"/>
     <use style="fill:#808000;stroke:#808000;stroke-linejoin:bevel;" x="160.171357" xlink:href="#m7a215c8d74" y="181.777301"/>
     <use style="fill:#808000;stroke:#808000;stroke-linejoin:bevel;" x="167.713769" xlink:href="#m7a215c8d74" y="182.867036"/>
     <use style="fill:#808000;stroke:#808000;stroke-linejoin:bevel;" x="175.256181" xlink:href="#m7a215c8d74" y="184.640175"/>
     <use style="fill:#808000;stroke:#808000;stroke-linejoin:bevel;" x="182.798593" xlink:href="#m7a215c8d74" y="187.390257"/>
     <use style="fill:#808000;stroke:#808000;stroke-linejoin:bevel;" x="190.341005" xlink:href="#m7a215c8d74" y="191.451607"/>
     <use style="fill:#808000;stroke:#808000;stroke-linejoin:bevel;" x="197.883417" xlink:href="#m7a215c8d74" y="197.154869"/>
     <use style="fill:#808000;stroke:#808000;stroke-linejoin:bevel;" x="205.425829" xlink:href="#m7a215c8d74" y="204.756753"/>
     <use style="fill:#808000;stroke:#808000;stroke-linejoin:bevel;" x="212.968241" xlink:href="#m7a215c8d74" y="214.350763"/>
     <use style="fill:#808000;stroke:#808000;stroke-linejoin:bevel;" x="220.510653" xlink:href="#m7a215c8d74" y="225.775914"/>
     <use style="fill:#808000;stroke:#808000;stroke-linejoin:bevel;" x="228.053065" xlink:href="#m7a215c8d74" y="238.549165"/>
     <use style="fill:#808000;stroke:#808000;stroke-linejoin:bevel;" x="235.595477" xlink:href="#m7a215c8d74" y="251.849936"/>
     <use style="fill:#808000;stroke:#808000;stroke-linejoin:bevel;" x="243.137889" xlink:href="#m7a215c8d74" y="264.578131"/>
     <use style="fill:#808000;stroke:#808000;stroke-linejoin:bevel;" x="250.680302" xlink:href="#m7a215c8d74" y="275.490051"/>
     <use style="fill:#808000;stroke:#808000;stroke-linejoin:bevel;" x="258.222714" xlink:href="#m7a215c8d74" y="283.393266"/>
     <use style="fill:#808000;stroke:#808000;stroke-linejoin:bevel;" x="265.765126" xlink:href="#m7a215c8d74" y="287.359731"/>
     <use style="fill:#808000;stroke:#808000;stroke-linejoin:bevel;" x="273.307538" xlink:href="#m7a215c8d74" y="286.904851"/>
     <use style="fill:#808000;stroke:#808000;stroke-linejoin:bevel;" x="280.84995" xlink:href="#m7a215c8d74" y="282.084815"/>
     <use style="fill:#808000;stroke:#808000;stroke-linejoin:bevel;" x="288.392362" xlink:href="#m7a215c8d74" y="273.485186"/>
     <use style="fill:#808000;stroke:#808000;stroke-linejoin:bevel;" x="295.934774" xlink:href="#m7a215c8d74" y="262.10395"/>
     <use style="fill:#808000;stroke:#808000;stroke-linejoin:bevel;" x="303.477186" xlink:href="#m7a215c8d74" y="249.161291"/>
     <use style="fill:#808000;stroke:#808000;stroke-linejoin:bevel;" x="311.019598" xlink:href="#m7a215c8d74" y="235.886108"/>
     <use style="fill:#808000;stroke:#808000;stroke-linejoin:bevel;" x="318.56201" xlink:href="#m7a215c8d74" y="223.330415"/>
     <use style="fill:#808000;stroke:#808000;stroke-linejoin:bevel;" x="326.104422" xlink:href="#m7a215c8d74" y="212.24848"/>
     <use style="fill:#808000;stroke:#808000;stroke-linejoin:bevel;" x="333.646834" xlink:href="#m7a215c8d74" y="203.054736"/>
     <use style="fill:#808000;stroke:#808000;stroke-linejoin:bevel;" x="341.189246" xlink:href="#m7a215c8d74" y="195.851932"/>
     <use style="fill:#808000;stroke:#808000;stroke-linejoin:bevel;" x="348.731658" xlink:href="#m7a215c8d74" y="190.505843"/>
     <use style="fill:#808000;stroke:#808000;stroke-linejoin:bevel;" x="356.27407" xlink:href="#m7a215c8d74" y="186.737992"/>
     <use style="fill:#808000;stroke:#808000;stroke-linejoin:bevel;" x="363.816482" xlink:href="#m7a215c8d74" y="184.21211"/>
     <use style="fill:#808000;stroke:#808000;stroke-linejoin:bevel;" x="371.358894" xlink:href="#m7a215c8d74" y="182.5994"/>
     <use style="fill:#808000;stroke:#808000;stroke-linejoin:bevel;" x="378.901307" xlink:href="#m7a215c8d74" y="181.617738"/>
     <use style="fill:#808000;stroke:#808000;stroke-linejoin:bevel;" x="386.443719" xlink:href="#m7a215c8d74" y="181.047604"/>
     <use style="fill:#808000;stroke:#808000;stroke-linejoin:bevel;" x="393.986131" xlink:href="#m7a215c8d74" y="180.731461"/>
     <use style="fill:#808000;stroke:#808000;stroke-linejoin:bevel;" x="401.528543" xlink:href="#m7a215c8d74" y="180.564001"/>
     <use style="fill:#808000;stroke:#808000;stroke-linejoin:bevel;" x="409.070955" xlink:href="#m7a215c8d74" y="180.479229"/>
     <use style="fill:#808000;stroke:#808000;stroke-linejoin:bevel;" x="416.613367" xlink:href="#m7a215c8d74" y="180.438203"/>
     <use style="fill:#808000;stroke:#808000;stroke-linejoin:bevel;" x="424.155779" xlink:href="#m7a215c8d74" y="180.419215"/>
     <use style="fill:#808000;stroke:#808000;stroke-linejoin:bevel;" x="431.698191" xlink:href="#m7a215c8d74" y="180.410809"/>
    </g>
   </g>
   <g id="line2d_15">
    <defs>
     <path d="M 0 3  C 0.795609 3 1.55874 2.683901 2.12132 2.12132  C 2.683901 1.55874 3 0.795609 3 0  C 3 -0.795609 2.683901 -1.55874 2.12132 -2.12132  C 1.55874 -2.683901 0.795609 -3 0 -3  C -0.795609 -3 -1.55874 -2.683901 -2.12132 -2.12132  C -2.683901 -1.55874 -3 -0.795609 -3 0  C -3 0.795609 -2.683901 1.55874 -2.12132 2.12132  C -1.55874 2.683901 -0.795609 3 0 3  z " id="mc67c28807d" style="stroke:#008080;"/>
    </defs>
    <g clip-path="url(#p0e9e0e88e0)">
     <use style="fill:#008080;stroke:#008080;" x="62.12" xlink:href="#mc67c28807d" y="180.29491"/>
     <use style="fill:#008080;stroke:#008080;" x="69.662412" xlink:href="#mc67c28807d" y="180.250894"/>
     <use style="fill:#008080;stroke:#008080;" x="77.204824" xlink:href="#mc67c28807d" y="180.16722"/>
     <use style="fill:#008080;stroke:#008080;" x="84.747236" xlink:href="#mc67c28807d" y="180.044228"/>
     <use style="fill:#008080;stroke:#008080;" x="92.289648" xlink:href="#mc67c28807d" y="179.866662"/>
     <use style="fill:#008080;stroke:#008080;" x="99.83206" xlink:href="#mc67c28807d" y="179.614775"/>
     <use style="fill:#008080;stroke:#008080;" x="107.374472" xlink:href="#mc67c28807d" y="179.263453"/>
     <use style="fill:#008080;stroke:#008080;" x="114.916884" xlink:href="#mc67c28807d" y="178.781146"/>
     <use style="fill:#008080;stroke:#008080;" x="122.459296" xlink:href="#mc67c28807d" y="178.128409"/>
     <use style="fill:#008080;stroke:#008080;" x="130.001709" xlink:href="#mc67c28807d" y="177.255674"/>
     <use style="fill:#008080;stroke:#008080;" x="137.544121" xlink:href="#mc67c28807d" y="176.09977"/>
     <use style="fill:#008080;stroke:#008080;" x="145.086533" xlink:href="#mc67c28807d" y="174.578642"/>
     <use style="fill:#008080;stroke:#008080;" x="152.628945" xlink:href="#mc67c28807d" y="172.584046"/>
     <use style="fill:#008080;stroke:#008080;" x="160.171357" xlink:href="#mc67c28807d" y="169.972713"/>
     <use style="fill:#008080;stroke:#008080;" x="167.713769" xlink:href="#mc67c28807d" y="166.557964"/>
     <use style="fill:#008080;stroke:#008080;" x="175.256181" xlink:href="#mc67c28807d" y="162.105665"/>
     <use style="fill:#008080;stroke:#008080;" x="182.798593" xlink:href="#mc67c28807d" y="156.340456"/>
     <use style="fill:#008080;stroke:#008080;" x="190.341005" xlink:href="#mc67c28807d" y="148.969167"/>
     <use style="fill:#008080;stroke:#008080;" x="197.883417" xlink:href="#mc67c28807d" y="139.727111"/>
     <use style="fill:#008080;stroke:#008080;" x="205.425829" xlink:href="#mc67c28807d" y="128.448244"/>
     <use style="fill:#008080;stroke:#008080;" x="212.968241" xlink:href="#mc67c28807d" y="115.152069"/>
     <use style="fill:#008080;stroke:#008080;" x="220.510653" xlink:href="#mc67c28807d" y="100.130126"/>
     <use style="fill:#008080;stroke:#008080;" x="228.053065" xlink:href="#mc67c28807d" y="84.006507"/>
     <use style="fill:#008080;stroke:#008080;" x="235.595477" xlink:href="#mc67c28807d" y="67.744489"/>
     <use style="fill:#008080;stroke:#008080;" x="243.137889" xlink:href="#mc67c28807d" y="52.57857"/>
     <use style="fill:#008080;stroke:#008080;" x="250.680302" xlink:href="#mc67c28807d" y="39.868505"/>
     <use style="fill:#008080;stroke:#008080;" x="258.222714" xlink:href="#mc67c28807d" y="30.895286"/>
     <use style="fill:#008080;stroke:#008080;" x="265.765126" xlink:href="#mc67c28807d" y="26.640807"/>
     <use style="fill:#008080;stroke:#008080;" x="273.307538" xlink:href="#mc67c28807d" y="27.604296"/>
     <use style="fill:#008080;stroke:#008080;" x="280.84995" xlink:href="#mc67c28807d" y="33.70376"/>
     <use style="fill:#008080;stroke:#008080;" x="288.392362" xlink:href="#mc67c28807d" y="44.289558"/>
     <use style="fill:#008080;stroke:#008080;" x="295.934774" xlink:href="#mc67c28807d" y="58.266672"/>
     <use style="fill:#008080;stroke:#008080;" x="303.477186" xlink:href="#mc67c28807d" y="74.292787"/>
     <use style="fill:#008080;stroke:#008080;" x="311.019598" xlink:href="#mc67c28807d" y="91.001274"/>
     <use style="fill:#008080;stroke:#008080;" x="318.56201" xlink:href="#mc67c28807d" y="107.196912"/>
     <use style="fill:#008080;stroke:#008080;" x="326.104422" xlink:href="#mc67c28807d" y="121.986474"/>
     <use style="fill:#008080;stroke:#008080;" x="333.646834" xlink:href="#mc67c28807d" y="134.829237"/>
     <use style="fill:#008080;stroke:#008080;" x="341.189246" xlink:href="#mc67c28807d" y="145.515278"/>
     <use style="fill:#008080;stroke:#008080;" x="348.731658" xlink:href="#mc67c28807d" y="154.09489"/>
     <use style="fill:#008080;stroke:#008080;" x="356.27407" xlink:href="#mc67c28807d" y="160.787567"/>
     <use style="fill:#008080;stroke:#008080;" x="363.816482" xlink:href="#mc67c28807d" y="165.895066"/>
     <use style="fill:#008080;stroke:#008080;" x="371.358894" xlink:href="#mc67c28807d" y="169.733862"/>
     <use style="fill:#008080;stroke:#008080;" x="378.901307" xlink:href="#mc67c28807d" y="172.592403"/>
     <use style="fill:#008080;stroke:#008080;" x="386.443719" xlink:href="#mc67c28807d" y="174.710944"/>
     <use style="fill:#008080;stroke:#008080;" x="393.986131" xlink:href="#mc67c28807d" y="176.277749"/>
     <use style="fill:#008080;stroke:#008080;" x="401.528543" xlink:href="#mc67c28807d" y="177.434692"/>
     <use style="fill:#008080;stroke:#008080;" x="409.070955" xlink:href="#mc67c28807d" y="178.286586"/>
     <use style="fill:#008080;stroke:#008080;" x="416.613367" xlink:href="#mc67c28807d" y="178.910593"/>
     <use style="fill:#008080;stroke:#008080;" x="424.155779" xlink:href="#mc67c28807d" y="179.363992"/>
     <use style="fill:#008080;stroke:#008080;" x="431.698191" xlink:href="#mc67c28807d" y="179.689876"/>
    </g>
   </g>
   <g id="line2d_16">
    <path clip-path="url(#p0e9e0e88e0)" d="M 61.75356 180.409442  L 102.648313 180.516834  L 118.478541 180.756378  L 129.032026 181.127974  L 136.947139 181.617256  L 143.543067 182.237994  L 149.259538 182.992469  L 154.536281 183.91966  L 159.373295 185.009339  L 163.77058 186.235719  L 167.728137 187.558854  L 171.685694 189.112674  L 175.643251 190.916137  L 179.600807 192.983202  L 183.558364 195.320583  L 187.625853 198.001456  L 191.803274 201.03153  L 196.420424 204.664602  L 202.136895 209.465249  L 215.328751 220.670131  L 219.506172 223.851421  L 223.024 226.253625  L 226.1021 228.101375  L 229.125234 229.654787  L 231.873537 230.824354  L 234.62184 231.752889  L 237.260212 232.414097  L 239.898583 232.851658  L 242.646886 233.076707  L 245.39519 233.078303  L 248.253425 232.860299  L 251.331525 232.399623  L 254.629489 231.679377  L 258.339698 230.635743  L 262.627052 229.190013  L 267.903794 227.165177  L 275.626526 223.939296  L 297.722885 214.606494  L 310.529979 209.506004  L 324.601292 204.137521  L 336.144166 199.951588  L 345.818194 196.670865  L 354.173036 194.061395  L 362.08815 191.816341  L 369.563535 189.917788  L 377.03892 188.242106  L 384.514305 186.787379  L 392.429419 185.477251  L 400.784261 184.331265  L 409.578832 183.358601  L 419.25286 182.524542  L 429.806345 181.843079  L 437.721458 181.473991  L 437.721458 181.473991  " style="fill:none;stroke:#e74c3c;stroke-linecap:square;stroke-width:2;"/>
   </g>
   <g id="line2d_17">
    <path clip-path="url(#p0e9e0e88e0)" d="M 61.75356 180.407022  L 112.76207 180.515836  L 129.032026 180.755354  L 139.585511 181.118707  L 147.500624 181.600147  L 154.096552 182.219836  L 159.813023 182.988472  L 164.650037 183.865122  L 169.047322 184.892974  L 173.004879 186.049928  L 176.522708 187.298865  L 180.040536 188.790352  L 183.118636 190.322766  L 186.196735 192.093792  L 189.384767 194.206728  L 192.243003 196.364173  L 195.101238 198.789101  L 197.959474 201.496761  L 200.817709 204.498489  L 203.895809 208.066832  L 206.973909 211.982151  L 210.271873 216.548498  L 213.789701 221.808565  L 217.747258 228.132658  L 223.024 237.026294  L 233.082791 254.077048  L 236.820483 259.921914  L 239.898583 264.345547  L 242.646886 267.924145  L 245.175325 270.8609  L 247.4839 273.215323  L 249.682543 275.148187  L 251.771253 276.692495  L 253.750032 277.885951  L 255.618878 278.768753  L 257.515207 279.420815  L 259.384054 279.824231  L 261.197934 279.991348  L 263.06678 279.936621  L 264.935626 279.657454  L 266.859439 279.143246  L 268.838217 278.38379  L 270.926928 277.340646  L 273.12557 275.99001  L 275.406662 274.333535  L 277.935101 272.218452  L 280.683405 269.619588  L 283.651572 266.504539  L 287.059468 262.593601  L 291.017025 257.693673  L 295.854039 251.332729  L 303.934051 240.270754  L 312.288893 228.957538  L 317.565636 222.189553  L 321.962921 216.891183  L 326.140342 212.201351  L 330.097899 208.098882  L 333.835592 204.544984  L 337.463352 201.399834  L 340.98118 198.635551  L 344.499009 196.146559  L 348.016837 193.922811  L 351.534665 191.950912  L 355.052493 190.214963  L 359.01005 188.522101  L 362.967607 187.079101  L 366.925164 185.85906  L 371.322449 184.73285  L 376.159463 183.733185  L 381.436206 182.880435  L 387.152677 182.182082  L 393.748605 181.601243  L 401.663718 181.135667  L 411.337746 180.794972  L 424.529602 180.563787  L 437.721458 180.468694  L 437.721458 180.468694  " style="fill:none;stroke:#808000;stroke-linecap:square;stroke-width:2;"/>
   </g>
   <g id="line2d_18">
    <path clip-path="url(#p0e9e0e88e0)" d="M 61.75356 180.39831  L 97.8113 180.290677  L 113.201798 180.048512  L 123.315555 179.677953  L 130.79094 179.197065  L 136.947139 178.593572  L 142.223882 177.866054  L 147.060896 176.973213  L 151.458181 175.923325  L 155.415738 174.739977  L 158.933566 173.461935  L 162.451394 171.93544  L 165.529494 170.366675  L 168.607594 168.552475  L 171.685694 166.464961  L 174.763793 164.075543  L 177.402165 161.765457  L 180.040536 159.194899  L 182.678907 156.347159  L 185.317278 153.206988  L 188.285446 149.308437  L 191.143681 145.175469  L 194.001917 140.663023  L 197.080017 135.377874  L 200.158116 129.659887  L 203.45608 123.076884  L 207.193773 115.099284  L 211.371194 105.645455  L 217.087665 92.114406  L 225.882236 71.292941  L 229.894759 62.410561  L 233.082791 55.87477  L 235.941026 50.514815  L 238.469465 46.230809  L 240.77804 42.734296  L 242.976683 39.798995  L 245.065393 37.384567  L 247.044172 35.444206  L 248.913018 33.92743  L 250.671932 32.782394  L 252.320914 31.957714  L 253.969896 31.372192  L 255.618878 31.022859  L 257.26786 30.905514  L 258.889359 31.011085  L 260.538341 31.336982  L 262.242289 31.897616  L 264.056169 32.734716  L 265.925016 33.844539  L 267.903794 35.278707  L 270.047471 37.114408  L 272.356046 39.395358  L 274.719586 42.029599  L 275.406662 42.847948  L 278.154966 46.33844  L 281.233065 50.617952  L 284.750894 55.911953  L 288.818383 62.459501  L 293.765329 70.864544  L 300.251325 82.340274  L 310.969708 101.174278  L 316.686179 110.797995  L 321.523192 118.519053  L 325.920478 125.128084  L 330.097899 131.001939  L 334.055456 136.178875  L 337.90308 140.838519  L 341.420909 144.773939  L 344.938737 148.401955  L 348.456565 151.729736  L 351.974394 154.767934  L 355.492222 157.529934  L 359.01005 160.031133  L 362.967607 162.554115  L 366.925164 164.793134  L 370.882721 166.773394  L 374.840278 168.519675  L 379.237563 170.214484  L 383.634848 171.680475  L 388.471862 173.062399  L 393.748605 174.332791  L 399.465076 175.473206  L 405.621275 176.474002  L 412.656932 177.384031  L 420.572045 178.173369  L 429.806345 178.857296  L 437.721458 179.272089  L 437.721458 179.272089  " style="fill:none;stroke:#008080;stroke-linecap:square;stroke-width:2;"/>
   </g>
   <g id="patch_3">
    <path d="M 62.12 300.76  L 62.12 13.32  " style="fill:none;stroke:#000000;stroke-linecap:square;stroke-linejoin:miter;stroke-width:0.8;"/>
   </g>
   <g id="patch_4">
    <path d="M 437.355 300.76  L 437.355 13.32  " style="fill:none;stroke:#000000;stroke-linecap:square;stroke-linejoin:miter;stroke-width:0.8;"/>
   </g>
   <g id="patch_5">
    <path d="M 62.12 300.76  L 437.355 300.76  " style="fill:none;stroke:#000000;stroke-linecap:square;stroke-linejoin:miter;stroke-width:0.8;"/>
   </g>
   <g id="patch_6">
    <path d="M 62.12 13.32  L 437.355 13.32  " style="fill:none;stroke:#000000;stroke-linecap:square;stroke-linejoin:miter;stroke-width:0.8;"/>
   </g>
   <g id="legend_1">
    <g id="patch_7">
     <path d="M 364.131563 109.38875  L 430.355 109.38875  Q 432.355 109.38875 432.355 107.38875  L 432.355 20.32  Q 432.355 18.32 430.355 18.32  L 364.131563 18.32  Q 362.131563 18.32 362.131563 20.32  L 362.131563 107.38875  Q 362.131563 109.38875 364.131563 109.38875  z " style="fill:#ffffff;opacity:0.8;stroke:#cccccc;stroke-linejoin:miter;"/>
    </g>
    <g id="line2d_19"/>
    <g id="line2d_20">
     <g>
      <use style="fill:#e74c3c;stroke:#e74c3c;stroke-linejoin:miter;" x="376.131563" xlink:href="#mba1b12df86" y="26.418437"/>
     </g>
    </g>
    <g id="text_15">
     <!-- exp-Al -->
     <defs>
      <path d="M 54.890625 54.6875  L 35.109375 28.078125  L 55.90625 0  L 45.3125 0  L 29.390625 21.484375  L 13.484375 0  L 2.875 0  L 24.125 28.609375  L 4.6875 54.6875  L 15.28125 54.6875  L 29.78125 35.203125  L 44.28125 54.6875  z " id="DejaVuSans-78"/>
      <path d="M 4.890625 31.390625  L 31.203125 31.390625  L 31.203125 23.390625  L 4.890625 23.390625  z " id="DejaVuSans-2d"/>
      <path d="M 34.1875 63.1875  L 20.796875 26.90625  L 47.609375 26.90625  z M 28.609375 72.90625  L 39.796875 72.90625  L 67.578125 0  L 57.328125 0  L 50.6875 18.703125  L 17.828125 18.703125  L 11.1875 0  L 0.78125 0  z " id="DejaVuSans-41"/>
     </defs>
     <g transform="translate(394.131563 29.918437)scale(0.1 -0.1)">
      <use xlink:href="#DejaVuSans-65"/>
      <use x="61.507812" xlink:href="#DejaVuSans-78"/>
      <use x="120.6875" xlink:href="#DejaVuSans-70"/>
      <use x="184.164062" xlink:href="#DejaVuSans-2d"/>
      <use x="220.216797" xlink:href="#DejaVuSans-41"/>
      <use x="288.625" xlink:href="#DejaVuSans-6c"/>
     </g>
    </g>
    <g id="line2d_21"/>
    <g id="line2d_22">
     <g>
      <use style="fill:#808000;stroke:#808000;stroke-linejoin:bevel;" x="376.131563" xlink:href="#m7a215c8d74" y="41.096563"/>
     </g>
    </g>
    <g id="text_16">
     <!-- exp-Ta -->
     <defs>
      <path d="M -0.296875 72.90625  L 61.375 72.90625  L 61.375 64.59375  L 35.5 64.59375  L 35.5 0  L 25.59375 0  L 25.59375 64.59375  L -0.296875 64.59375  z " id="DejaVuSans-54"/>
     </defs>
     <g transform="translate(394.131563 44.596563)scale(0.1 -0.1)">
      <use xlink:href="#DejaVuSans-65"/>
      <use x="61.507812" xlink:href="#DejaVuSans-78"/>
      <use x="120.6875" xlink:href="#DejaVuSans-70"/>
      <use x="184.164062" xlink:href="#DejaVuSans-2d"/>
      <use x="220.107422" xlink:href="#DejaVuSans-54"/>
      <use x="280.941406" xlink:href="#DejaVuSans-61"/>
     </g>
    </g>
    <g id="line2d_23"/>
    <g id="line2d_24">
     <g>
      <use style="fill:#008080;stroke:#008080;" x="376.131563" xlink:href="#mc67c28807d" y="55.774687"/>
     </g>
    </g>
    <g id="text_17">
     <!-- exp-Ni -->
     <defs>
      <path d="M 9.8125 72.90625  L 23.09375 72.90625  L 55.421875 11.921875  L 55.421875 72.90625  L 64.984375 72.90625  L 64.984375 0  L 51.703125 0  L 19.390625 60.984375  L 19.390625 0  L 9.8125 0  z " id="DejaVuSans-4e"/>
     </defs>
     <g transform="translate(394.131563 59.274687)scale(0.1 -0.1)">
      <use xlink:href="#DejaVuSans-65"/>
      <use x="61.507812" xlink:href="#DejaVuSans-78"/>
      <use x="120.6875" xlink:href="#DejaVuSans-70"/>
      <use x="184.164062" xlink:href="#DejaVuSans-2d"/>
      <use x="220.248047" xlink:href="#DejaVuSans-4e"/>
      <use x="295.052734" xlink:href="#DejaVuSans-69"/>
     </g>
    </g>
    <g id="line2d_25">
     <path d="M 366.131563 70.452812  L 386.131563 70.452812  " style="fill:none;stroke:#e74c3c;stroke-linecap:square;stroke-width:2;"/>
    </g>
    <g id="line2d_26"/>
    <g id="text_18">
     <!-- sim-Al -->
     <g transform="translate(394.131563 73.952812)scale(0.1 -0.1)">
      <use xlink:href="#DejaVuSans-73"/>
      <use x="52.099609" xlink:href="#DejaVuSans-69"/>
      <use x="79.882812" xlink:href="#DejaVuSans-6d"/>
      <use x="177.294922" xlink:href="#DejaVuSans-2d"/>
      <use x="213.347656" xlink:href="#DejaVuSans-41"/>
      <use x="281.755859" xlink:href="#DejaVuSans-6c"/>
     </g>
    </g>
    <g id="line2d_27">
     <path d="M 366.131563 85.130938  L 386.131563 85.130938  " style="fill:none;stroke:#808000;stroke-linecap:square;stroke-width:2;"/>
    </g>
    <g id="line2d_28"/>
    <g id="text_19">
     <!-- sim-Ta -->
     <g transform="translate(394.131563 88.630938)scale(0.1 -0.1)">
      <use xlink:href="#DejaVuSans-73"/>
      <use x="52.099609" xlink:href="#DejaVuSans-69"/>
      <use x="79.882812" xlink:href="#DejaVuSans-6d"/>
      <use x="177.294922" xlink:href="#DejaVuSans-2d"/>
      <use x="213.238281" xlink:href="#DejaVuSans-54"/>
      <use x="274.072266" xlink:href="#DejaVuSans-61"/>
     </g>
    </g>
    <g id="line2d_29">
     <path d="M 366.131563 99.809062  L 386.131563 99.809062  " style="fill:none;stroke:#008080;stroke-linecap:square;stroke-width:2;"/>
    </g>
    <g id="line2d_30"/>
    <g id="text_20">
     <!-- sim-Ni -->
     <g transform="translate(394.131563 103.309062)scale(0.1 -0.1)">
      <use xlink:href="#DejaVuSans-73"/>
      <use x="52.099609" xlink:href="#DejaVuSans-69"/>
      <use x="79.882812" xlink:href="#DejaVuSans-6d"/>
      <use x="177.294922" xlink:href="#DejaVuSans-2d"/>
      <use x="213.378906" xlink:href="#DejaVuSans-4e"/>
      <use x="288.183594" xlink:href="#DejaVuSans-69"/>
     </g>
    </g>
   </g>
  </g>
 </g>
 <defs>
  <clipPath id="p0e9e0e88e0">
   <rect height="287.44" width="375.235" x="62.12" y="13.32"/>
  </clipPath>
 </defs>
</g>
    <g transform="translate(10, 300) scale(1) ">
      <g transform="translate(0, 0) scale(3.0) "><defs id="defs831"/>
  <sodipodi:namedview xmlns:sodipodi="http://sodipodi.sourceforge.net/DTD/sodipodi-0.dtd" xmlns:inkscape="http://www.inkscape.org/namespaces/inkscape" id="base" pagecolor="#ffffff" bordercolor="#666666" borderopacity="1.0" inkscape:pageopacity="0.0" inkscape:pageshadow="2" inkscape:zoom="1.979899" inkscape:cx="-12.763683" inkscape:cy="-16.680883" inkscape:document-units="mm" inkscape:current-layer="layer1" showgrid="false" inkscape:window-width="1920" inkscape:window-height="1001" inkscape:window-x="-9" inkscape:window-y="-9" inkscape:window-maximized="1" units="pt"/>
  <metadata xmlns:rdf="http://www.w3.org/1999/02/22-rdf-syntax-ns#" xmlns:cc="http://creativecommons.org/ns#" xmlns:dc="http://purl.org/dc/elements/1.1/" id="metadata834">
    <rdf:RDF>
      <cc:Work rdf:about="">
        <dc:format>image/svg+xml</dc:format>
        <dc:type rdf:resource="http://purl.org/dc/dcmitype/StillImage"/>
        <dc:title/>
      </cc:Work>
    </rdf:RDF>
  </metadata>
  <g xmlns:inkscape="http://www.inkscape.org/namespaces/inkscape" xmlns:sodipodi="http://sodipodi.sourceforge.net/DTD/sodipodi-0.dtd" inkscape:label="Layer 1" inkscape:groupmode="layer" id="layer1" transform="translate(0,-288.81557)">
    <g id="g4761" transform="matrix(0.07377843,0,0,0.07377843,-0.76923022,275.45946)">
      <path inkscape:connector-curvature="0" id="path1959-6-7-1-6-5-4-0-3-2-6-0-3-9-6" style="font-style:normal;font-variant:normal;font-weight:bold;font-stretch:normal;font-size:120.99466705px;line-height:1.25;font-family:Aharoni;-inkscape-font-specification:'Aharoni, Bold';font-variant-ligatures:normal;font-variant-caps:normal;font-variant-numeric:normal;font-feature-settings:normal;text-align:start;letter-spacing:0px;word-spacing:0px;writing-mode:lr-tb;text-anchor:start;fill:#000000;fill-opacity:1;stroke:none;stroke-width:2.37649584" d="M 52.937412,287.55677 H 40.587702 V 265.43005 H 22.776041 v 22.12672 h -12.34982 v -53.17432 h 12.34982 v 20.5296 h 17.811661 v -20.5296 h 12.34971 z"/>
      <path inkscape:connector-curvature="0" id="path1961-2-9-7-9-3-1-6-5-1-5-8-7-8-2" style="font-style:normal;font-variant:normal;font-weight:bold;font-stretch:normal;font-size:120.99466705px;line-height:1.25;font-family:Aharoni;-inkscape-font-specification:'Aharoni, Bold';font-variant-ligatures:normal;font-variant-caps:normal;font-variant-numeric:normal;font-feature-settings:normal;text-align:start;letter-spacing:0px;word-spacing:0px;writing-mode:lr-tb;text-anchor:start;fill:#000000;fill-opacity:1;stroke:none;stroke-width:2.37649584" d="m 69.681125,237.49895 q 0,3.0385 -1.87856,5.1421 -1.84375,2.0647 -4.55721,2.0647 -2.67866,0 -4.55722,-2.1036 -1.84375,-2.1036 -1.84375,-5.1032 0,-2.9996 1.84375,-5.0642 1.87856,-2.1036 4.55722,-2.1036 2.67865,0 4.55721,2.1036 1.87856,2.0646 1.87856,5.0642 z m -0.73057,50.05782 h -11.41048 v -36.15072 h 11.41048 z"/>
      <path inkscape:connector-curvature="0" id="path1963-3-1-2-8-3-6-3-3-3-4-7-6-0-8" style="font-style:normal;font-variant:normal;font-weight:bold;font-stretch:normal;font-size:120.99466705px;line-height:1.25;font-family:Aharoni;-inkscape-font-specification:'Aharoni, Bold';font-variant-ligatures:normal;font-variant-caps:normal;font-variant-numeric:normal;font-feature-settings:normal;text-align:start;letter-spacing:0px;word-spacing:0px;writing-mode:lr-tb;text-anchor:start;fill:#000000;fill-opacity:1;stroke:none;stroke-width:2.37649584" d="m 93.369625,261.92405 h -6.50536 v 25.63272 h -11.4104 v -25.63272 h -3.75712 v -10.518 h 3.75712 v -10.8686 h 11.4104 v 10.8686 h 6.50536 z"/>
      <path id="path1967-3-3-6-2-9-6-2-5-3-0-9-8-2-1" style="font-style:normal;font-variant:normal;font-weight:bold;font-stretch:normal;font-size:120.99466705px;line-height:1.25;font-family:Aharoni;-inkscape-font-specification:'Aharoni, Bold';font-variant-ligatures:normal;font-variant-caps:normal;font-variant-numeric:normal;font-feature-settings:normal;text-align:start;letter-spacing:0px;word-spacing:0px;writing-mode:lr-tb;text-anchor:start;fill:#000000;fill-opacity:1;stroke:none;stroke-width:2.37649584" d="m 160.61447,287.55677 h -12.34971 v -53.17432 h 12.34971 z" inkscape:connector-curvature="0"/>
      <path inkscape:connector-curvature="0" id="path1969-8-0-8-5-3-5-6-6-3-9-8-6-2-0" style="font-style:normal;font-variant:normal;font-weight:bold;font-stretch:normal;font-size:120.99466705px;line-height:1.25;font-family:Aharoni;-inkscape-font-specification:'Aharoni, Bold';font-variant-ligatures:normal;font-variant-caps:normal;font-variant-numeric:normal;font-feature-settings:normal;text-align:start;letter-spacing:0px;word-spacing:0px;writing-mode:lr-tb;text-anchor:start;fill:#000000;fill-opacity:1;stroke:none;stroke-width:2.37649584" d="m 201.6896,284.86883 q -6.05314,2.68794 -11.20172,2.68794 -8.97528,0 -16.07201,-6.42764 -9.04489,-8.21959 -9.04489,-21.42558 0,-13.2448 9.04489,-21.4644 7.09673,-6.4277 16.17636,-6.4277 4.93989,0 11.09737,2.6879 v 16.5561 q -1.73941,-2.3763 -3.54836,-3.5839 -3.30489,-2.2204 -7.09679,-2.2204 -4.8007,0 -8.34907,3.2333 -4.48766,4.0903 -4.48766,11.2191 0,7.0899 4.48766,11.1803 3.54837,3.23328 8.34907,3.23328 3.7919,0 7.09679,-2.22049 1.77415,-1.16869 3.54836,-3.58389 z"/>
      <path inkscape:transform-center-y="-13.656107" inkscape:transform-center-x="-3.9758045" sodipodi:nodetypes="csssssc" inkscape:connector-curvature="0" id="rect815-3-0-9-3-5-6-0-4-03-7-3-7-5-3-2-76-3-8-8-5-3-7-8-0-1-3-7-9-2-8-1" d="m 104.61223,181.4353 c 0,0 17.68257,27.27493 22.63096,34.41579 7.92879,11.44185 16.42741,30.36094 17.92806,45.50275 1.21005,12.20999 -1.38345,26.51285 -17.32077,30.11208 -11.70405,2.64313 -26.75007,-5.41371 -30.334975,-20.50903 -3.30533,-13.91816 -2.13088,-34.61412 0.0984,-48.67354 1.22049,-7.69719 5.657305,-36.06774 6.998335,-40.84805 z" style="font-style:normal;font-weight:normal;font-size:242.08590698px;line-height:1.25;font-family:sans-serif;letter-spacing:0px;word-spacing:0px;opacity:1;fill:#00456b;fill-opacity:1;stroke:none;stroke-width:0.6720385;stroke-miterlimit:4;stroke-dasharray:none;stroke-dashoffset:0;stroke-opacity:1;paint-order:markers fill stroke"/>
      <path sodipodi:nodetypes="ccscscsccscccscc" d="m 107.52748,246.32531 6.45576,30.78617 6.82019,-1.47997 c 5.75791,-1.24946 9.70999,-3.40081 11.85576,-6.45394 2.16431,-3.05721 2.68673,-7.25521 1.56721,-12.59398 -1.11209,-5.30332 -3.26743,-8.89247 -6.46601,-10.76744 -3.18372,-1.89669 -7.65528,-2.22015 -13.4127,-0.97081 z m -8.759905,-5.09591 12.713095,-2.78742 c 8.8634,-1.94336 15.73718,-1.59097 20.62135,1.05715 4.88003,2.62843 8.10326,7.71587 9.6697,15.26232 1.57464,7.58584 0.64804,13.61405 -2.77981,18.08462 -3.42783,4.4705 -9.55303,7.67294 -18.37559,9.60735 l -12.71311,2.78742 z" style="font-style:normal;font-weight:normal;font-size:242.08590698px;line-height:1.25;font-family:sans-serif;letter-spacing:0px;word-spacing:0px;fill:#ffffff;fill-opacity:1;stroke:none;stroke-width:1.60286868" id="path1193-3-5-3-2-7-4-5-6-0-0-6-9-2-4-7-0-0" inkscape:connector-curvature="0"/>
    </g>
  </g>
</g>
    </g>
  </g>
</svg>
