<?xml version='1.0' encoding='ASCII' standalone='yes'?>
<svg xmlns:xlink="http://www.w3.org/1999/xlink" xmlns="http://www.w3.org/2000/svg" version="1.1" width="460.8px" viewBox="0 0 460.8px 345.6px" height="345.6px">
  <g>
    <g><defs>
  <style type="text/css">
*{stroke-linecap:butt;stroke-linejoin:round;}
  </style>
 </defs>
 <g id="figure_1">
  <g id="patch_1">
   <path d="M 0 345.6  L 460.8 345.6  L 460.8 0  L 0 0  z " style="fill:#ffffff;"/>
  </g>
  <g id="axes_1">
   <g id="patch_2">
    <path d="M 62.21 300.76  L 447.48 300.76  L 447.48 13.32  L 62.21 13.32  z " style="fill:#ffffff;"/>
   </g>
   <g id="matplotlib.axis_1">
    <g id="xtick_1">
     <g id="line2d_1">
      <defs>
       <path d="M 0 0  L 0 3.5  " id="mad4b2879b2" style="stroke:#000000;stroke-width:0.8;"/>
      </defs>
      <g>
       <use style="stroke:#000000;stroke-width:0.8;" x="62.21" xlink:href="#mad4b2879b2" y="300.76"/>
      </g>
     </g>
     <g id="text_1">
      <!-- 0 -->
      <defs>
       <path d="M 31.78125 66.40625  Q 24.171875 66.40625 20.328125 58.90625  Q 16.5 51.421875 16.5 36.375  Q 16.5 21.390625 20.328125 13.890625  Q 24.171875 6.390625 31.78125 6.390625  Q 39.453125 6.390625 43.28125 13.890625  Q 47.125 21.390625 47.125 36.375  Q 47.125 51.421875 43.28125 58.90625  Q 39.453125 66.40625 31.78125 66.40625  z M 31.78125 74.21875  Q 44.046875 74.21875 50.515625 64.515625  Q 56.984375 54.828125 56.984375 36.375  Q 56.984375 17.96875 50.515625 8.265625  Q 44.046875 -1.421875 31.78125 -1.421875  Q 19.53125 -1.421875 13.0625 8.265625  Q 6.59375 17.96875 6.59375 36.375  Q 6.59375 54.828125 13.0625 64.515625  Q 19.53125 74.21875 31.78125 74.21875  z " id="DejaVuSans-30"/>
      </defs>
      <g transform="translate(59.02875 315.358437)scale(0.1 -0.1)">
       <use xlink:href="#DejaVuSans-30"/>
      </g>
     </g>
    </g>
    <g id="xtick_2">
     <g id="line2d_2">
      <g>
       <use style="stroke:#000000;stroke-width:0.8;" x="120.391318" xlink:href="#mad4b2879b2" y="300.76"/>
      </g>
     </g>
     <g id="text_2">
      <!-- 200 -->
      <defs>
       <path d="M 19.1875 8.296875  L 53.609375 8.296875  L 53.609375 0  L 7.328125 0  L 7.328125 8.296875  Q 12.9375 14.109375 22.625 23.890625  Q 32.328125 33.6875 34.8125 36.53125  Q 39.546875 41.84375 41.421875 45.53125  Q 43.3125 49.21875 43.3125 52.78125  Q 43.3125 58.59375 39.234375 62.25  Q 35.15625 65.921875 28.609375 65.921875  Q 23.96875 65.921875 18.8125 64.3125  Q 13.671875 62.703125 7.8125 59.421875  L 7.8125 69.390625  Q 13.765625 71.78125 18.9375 73  Q 24.125 74.21875 28.421875 74.21875  Q 39.75 74.21875 46.484375 68.546875  Q 53.21875 62.890625 53.21875 53.421875  Q 53.21875 48.921875 51.53125 44.890625  Q 49.859375 40.875 45.40625 35.40625  Q 44.1875 33.984375 37.640625 27.21875  Q 31.109375 20.453125 19.1875 8.296875  z " id="DejaVuSans-32"/>
      </defs>
      <g transform="translate(110.847568 315.358437)scale(0.1 -0.1)">
       <use xlink:href="#DejaVuSans-32"/>
       <use x="63.623047" xlink:href="#DejaVuSans-30"/>
       <use x="127.246094" xlink:href="#DejaVuSans-30"/>
      </g>
     </g>
    </g>
    <g id="xtick_3">
     <g id="line2d_3">
      <g>
       <use style="stroke:#000000;stroke-width:0.8;" x="178.572637" xlink:href="#mad4b2879b2" y="300.76"/>
      </g>
     </g>
     <g id="text_3">
      <!-- 400 -->
      <defs>
       <path d="M 37.796875 64.3125  L 12.890625 25.390625  L 37.796875 25.390625  z M 35.203125 72.90625  L 47.609375 72.90625  L 47.609375 25.390625  L 58.015625 25.390625  L 58.015625 17.1875  L 47.609375 17.1875  L 47.609375 0  L 37.796875 0  L 37.796875 17.1875  L 4.890625 17.1875  L 4.890625 26.703125  z " id="DejaVuSans-34"/>
      </defs>
      <g transform="translate(169.028887 315.358437)scale(0.1 -0.1)">
       <use xlink:href="#DejaVuSans-34"/>
       <use x="63.623047" xlink:href="#DejaVuSans-30"/>
       <use x="127.246094" xlink:href="#DejaVuSans-30"/>
      </g>
     </g>
    </g>
    <g id="xtick_4">
     <g id="line2d_4">
      <g>
       <use style="stroke:#000000;stroke-width:0.8;" x="236.753955" xlink:href="#mad4b2879b2" y="300.76"/>
      </g>
     </g>
     <g id="text_4">
      <!-- 600 -->
      <defs>
       <path d="M 33.015625 40.375  Q 26.375 40.375 22.484375 35.828125  Q 18.609375 31.296875 18.609375 23.390625  Q 18.609375 15.53125 22.484375 10.953125  Q 26.375 6.390625 33.015625 6.390625  Q 39.65625 6.390625 43.53125 10.953125  Q 47.40625 15.53125 47.40625 23.390625  Q 47.40625 31.296875 43.53125 35.828125  Q 39.65625 40.375 33.015625 40.375  z M 52.59375 71.296875  L 52.59375 62.3125  Q 48.875 64.0625 45.09375 64.984375  Q 41.3125 65.921875 37.59375 65.921875  Q 27.828125 65.921875 22.671875 59.328125  Q 17.53125 52.734375 16.796875 39.40625  Q 19.671875 43.65625 24.015625 45.921875  Q 28.375 48.1875 33.59375 48.1875  Q 44.578125 48.1875 50.953125 41.515625  Q 57.328125 34.859375 57.328125 23.390625  Q 57.328125 12.15625 50.6875 5.359375  Q 44.046875 -1.421875 33.015625 -1.421875  Q 20.359375 -1.421875 13.671875 8.265625  Q 6.984375 17.96875 6.984375 36.375  Q 6.984375 53.65625 15.1875 63.9375  Q 23.390625 74.21875 37.203125 74.21875  Q 40.921875 74.21875 44.703125 73.484375  Q 48.484375 72.75 52.59375 71.296875  z " id="DejaVuSans-36"/>
      </defs>
      <g transform="translate(227.210205 315.358437)scale(0.1 -0.1)">
       <use xlink:href="#DejaVuSans-36"/>
       <use x="63.623047" xlink:href="#DejaVuSans-30"/>
       <use x="127.246094" xlink:href="#DejaVuSans-30"/>
      </g>
     </g>
    </g>
    <g id="xtick_5">
     <g id="line2d_5">
      <g>
       <use style="stroke:#000000;stroke-width:0.8;" x="294.935274" xlink:href="#mad4b2879b2" y="300.76"/>
      </g>
     </g>
     <g id="text_5">
      <!-- 800 -->
      <defs>
       <path d="M 31.78125 34.625  Q 24.75 34.625 20.71875 30.859375  Q 16.703125 27.09375 16.703125 20.515625  Q 16.703125 13.921875 20.71875 10.15625  Q 24.75 6.390625 31.78125 6.390625  Q 38.8125 6.390625 42.859375 10.171875  Q 46.921875 13.96875 46.921875 20.515625  Q 46.921875 27.09375 42.890625 30.859375  Q 38.875 34.625 31.78125 34.625  z M 21.921875 38.8125  Q 15.578125 40.375 12.03125 44.71875  Q 8.5 49.078125 8.5 55.328125  Q 8.5 64.0625 14.71875 69.140625  Q 20.953125 74.21875 31.78125 74.21875  Q 42.671875 74.21875 48.875 69.140625  Q 55.078125 64.0625 55.078125 55.328125  Q 55.078125 49.078125 51.53125 44.71875  Q 48 40.375 41.703125 38.8125  Q 48.828125 37.15625 52.796875 32.3125  Q 56.78125 27.484375 56.78125 20.515625  Q 56.78125 9.90625 50.3125 4.234375  Q 43.84375 -1.421875 31.78125 -1.421875  Q 19.734375 -1.421875 13.25 4.234375  Q 6.78125 9.90625 6.78125 20.515625  Q 6.78125 27.484375 10.78125 32.3125  Q 14.796875 37.15625 21.921875 38.8125  z M 18.3125 54.390625  Q 18.3125 48.734375 21.84375 45.5625  Q 25.390625 42.390625 31.78125 42.390625  Q 38.140625 42.390625 41.71875 45.5625  Q 45.3125 48.734375 45.3125 54.390625  Q 45.3125 60.0625 41.71875 63.234375  Q 38.140625 66.40625 31.78125 66.40625  Q 25.390625 66.40625 21.84375 63.234375  Q 18.3125 60.0625 18.3125 54.390625  z " id="DejaVuSans-38"/>
      </defs>
      <g transform="translate(285.391524 315.358437)scale(0.1 -0.1)">
       <use xlink:href="#DejaVuSans-38"/>
       <use x="63.623047" xlink:href="#DejaVuSans-30"/>
       <use x="127.246094" xlink:href="#DejaVuSans-30"/>
      </g>
     </g>
    </g>
    <g id="xtick_6">
     <g id="line2d_6">
      <g>
       <use style="stroke:#000000;stroke-width:0.8;" x="353.116592" xlink:href="#mad4b2879b2" y="300.76"/>
      </g>
     </g>
     <g id="text_6">
      <!-- 1000 -->
      <defs>
       <path d="M 12.40625 8.296875  L 28.515625 8.296875  L 28.515625 63.921875  L 10.984375 60.40625  L 10.984375 69.390625  L 28.421875 72.90625  L 38.28125 72.90625  L 38.28125 8.296875  L 54.390625 8.296875  L 54.390625 0  L 12.40625 0  z " id="DejaVuSans-31"/>
      </defs>
      <g transform="translate(340.391592 315.358437)scale(0.1 -0.1)">
       <use xlink:href="#DejaVuSans-31"/>
       <use x="63.623047" xlink:href="#DejaVuSans-30"/>
       <use x="127.246094" xlink:href="#DejaVuSans-30"/>
       <use x="190.869141" xlink:href="#DejaVuSans-30"/>
      </g>
     </g>
    </g>
    <g id="xtick_7">
     <g id="line2d_7">
      <g>
       <use style="stroke:#000000;stroke-width:0.8;" x="411.297911" xlink:href="#mad4b2879b2" y="300.76"/>
      </g>
     </g>
     <g id="text_7">
      <!-- 1200 -->
      <g transform="translate(398.572911 315.358437)scale(0.1 -0.1)">
       <use xlink:href="#DejaVuSans-31"/>
       <use x="63.623047" xlink:href="#DejaVuSans-32"/>
       <use x="127.246094" xlink:href="#DejaVuSans-30"/>
       <use x="190.869141" xlink:href="#DejaVuSans-30"/>
      </g>
     </g>
    </g>
    <g id="text_8">
     <!-- Distance ($\mu$m) -->
     <defs>
      <path d="M 19.671875 64.796875  L 19.671875 8.109375  L 31.59375 8.109375  Q 46.6875 8.109375 53.6875 14.9375  Q 60.6875 21.78125 60.6875 36.53125  Q 60.6875 51.171875 53.6875 57.984375  Q 46.6875 64.796875 31.59375 64.796875  z M 9.8125 72.90625  L 30.078125 72.90625  Q 51.265625 72.90625 61.171875 64.09375  Q 71.09375 55.28125 71.09375 36.53125  Q 71.09375 17.671875 61.125 8.828125  Q 51.171875 0 30.078125 0  L 9.8125 0  z " id="DejaVuSans-44"/>
      <path d="M 9.421875 54.6875  L 18.40625 54.6875  L 18.40625 0  L 9.421875 0  z M 9.421875 75.984375  L 18.40625 75.984375  L 18.40625 64.59375  L 9.421875 64.59375  z " id="DejaVuSans-69"/>
      <path d="M 44.28125 53.078125  L 44.28125 44.578125  Q 40.484375 46.53125 36.375 47.5  Q 32.28125 48.484375 27.875 48.484375  Q 21.1875 48.484375 17.84375 46.4375  Q 14.5 44.390625 14.5 40.28125  Q 14.5 37.15625 16.890625 35.375  Q 19.28125 33.59375 26.515625 31.984375  L 29.59375 31.296875  Q 39.15625 29.25 43.1875 25.515625  Q 47.21875 21.78125 47.21875 15.09375  Q 47.21875 7.46875 41.1875 3.015625  Q 35.15625 -1.421875 24.609375 -1.421875  Q 20.21875 -1.421875 15.453125 -0.5625  Q 10.6875 0.296875 5.421875 2  L 5.421875 11.28125  Q 10.40625 8.6875 15.234375 7.390625  Q 20.0625 6.109375 24.8125 6.109375  Q 31.15625 6.109375 34.5625 8.28125  Q 37.984375 10.453125 37.984375 14.40625  Q 37.984375 18.0625 35.515625 20.015625  Q 33.0625 21.96875 24.703125 23.78125  L 21.578125 24.515625  Q 13.234375 26.265625 9.515625 29.90625  Q 5.8125 33.546875 5.8125 39.890625  Q 5.8125 47.609375 11.28125 51.796875  Q 16.75 56 26.8125 56  Q 31.78125 56 36.171875 55.265625  Q 40.578125 54.546875 44.28125 53.078125  z " id="DejaVuSans-73"/>
      <path d="M 18.3125 70.21875  L 18.3125 54.6875  L 36.8125 54.6875  L 36.8125 47.703125  L 18.3125 47.703125  L 18.3125 18.015625  Q 18.3125 11.328125 20.140625 9.421875  Q 21.96875 7.515625 27.59375 7.515625  L 36.8125 7.515625  L 36.8125 0  L 27.59375 0  Q 17.1875 0 13.234375 3.875  Q 9.28125 7.765625 9.28125 18.015625  L 9.28125 47.703125  L 2.6875 47.703125  L 2.6875 54.6875  L 9.28125 54.6875  L 9.28125 70.21875  z " id="DejaVuSans-74"/>
      <path d="M 34.28125 27.484375  Q 23.390625 27.484375 19.1875 25  Q 14.984375 22.515625 14.984375 16.5  Q 14.984375 11.71875 18.140625 8.90625  Q 21.296875 6.109375 26.703125 6.109375  Q 34.1875 6.109375 38.703125 11.40625  Q 43.21875 16.703125 43.21875 25.484375  L 43.21875 27.484375  z M 52.203125 31.203125  L 52.203125 0  L 43.21875 0  L 43.21875 8.296875  Q 40.140625 3.328125 35.546875 0.953125  Q 30.953125 -1.421875 24.3125 -1.421875  Q 15.921875 -1.421875 10.953125 3.296875  Q 6 8.015625 6 15.921875  Q 6 25.140625 12.171875 29.828125  Q 18.359375 34.515625 30.609375 34.515625  L 43.21875 34.515625  L 43.21875 35.40625  Q 43.21875 41.609375 39.140625 45  Q 35.0625 48.390625 27.6875 48.390625  Q 23 48.390625 18.546875 47.265625  Q 14.109375 46.140625 10.015625 43.890625  L 10.015625 52.203125  Q 14.9375 54.109375 19.578125 55.046875  Q 24.21875 56 28.609375 56  Q 40.484375 56 46.34375 49.84375  Q 52.203125 43.703125 52.203125 31.203125  z " id="DejaVuSans-61"/>
      <path d="M 54.890625 33.015625  L 54.890625 0  L 45.90625 0  L 45.90625 32.71875  Q 45.90625 40.484375 42.875 44.328125  Q 39.84375 48.1875 33.796875 48.1875  Q 26.515625 48.1875 22.3125 43.546875  Q 18.109375 38.921875 18.109375 30.90625  L 18.109375 0  L 9.078125 0  L 9.078125 54.6875  L 18.109375 54.6875  L 18.109375 46.1875  Q 21.34375 51.125 25.703125 53.5625  Q 30.078125 56 35.796875 56  Q 45.21875 56 50.046875 50.171875  Q 54.890625 44.34375 54.890625 33.015625  z " id="DejaVuSans-6e"/>
      <path d="M 48.78125 52.59375  L 48.78125 44.1875  Q 44.96875 46.296875 41.140625 47.34375  Q 37.3125 48.390625 33.40625 48.390625  Q 24.65625 48.390625 19.8125 42.84375  Q 14.984375 37.3125 14.984375 27.296875  Q 14.984375 17.28125 19.8125 11.734375  Q 24.65625 6.203125 33.40625 6.203125  Q 37.3125 6.203125 41.140625 7.25  Q 44.96875 8.296875 48.78125 10.40625  L 48.78125 2.09375  Q 45.015625 0.34375 40.984375 -0.53125  Q 36.96875 -1.421875 32.421875 -1.421875  Q 20.0625 -1.421875 12.78125 6.34375  Q 5.515625 14.109375 5.515625 27.296875  Q 5.515625 40.671875 12.859375 48.328125  Q 20.21875 56 33.015625 56  Q 37.15625 56 41.109375 55.140625  Q 45.0625 54.296875 48.78125 52.59375  z " id="DejaVuSans-63"/>
      <path d="M 56.203125 29.59375  L 56.203125 25.203125  L 14.890625 25.203125  Q 15.484375 15.921875 20.484375 11.0625  Q 25.484375 6.203125 34.421875 6.203125  Q 39.59375 6.203125 44.453125 7.46875  Q 49.3125 8.734375 54.109375 11.28125  L 54.109375 2.78125  Q 49.265625 0.734375 44.1875 -0.34375  Q 39.109375 -1.421875 33.890625 -1.421875  Q 20.796875 -1.421875 13.15625 6.1875  Q 5.515625 13.8125 5.515625 26.8125  Q 5.515625 40.234375 12.765625 48.109375  Q 20.015625 56 32.328125 56  Q 43.359375 56 49.78125 48.890625  Q 56.203125 41.796875 56.203125 29.59375  z M 47.21875 32.234375  Q 47.125 39.59375 43.09375 43.984375  Q 39.0625 48.390625 32.421875 48.390625  Q 24.90625 48.390625 20.390625 44.140625  Q 15.875 39.890625 15.1875 32.171875  z " id="DejaVuSans-65"/>
      <path id="DejaVuSans-20"/>
      <path d="M 31 75.875  Q 24.46875 64.65625 21.28125 53.65625  Q 18.109375 42.671875 18.109375 31.390625  Q 18.109375 20.125 21.3125 9.0625  Q 24.515625 -2 31 -13.1875  L 23.1875 -13.1875  Q 15.875 -1.703125 12.234375 9.375  Q 8.59375 20.453125 8.59375 31.390625  Q 8.59375 42.28125 12.203125 53.3125  Q 15.828125 64.359375 23.1875 75.875  z " id="DejaVuSans-28"/>
      <path d="M -1.3125 -20.796875  L 13.375 54.6875  L 22.40625 54.6875  L 15.765625 20.65625  Q 15.578125 19.625 15.421875 18.359375  Q 15.28125 17.09375 15.28125 15.828125  Q 15.28125 11.28125 18.140625 8.828125  Q 21 6.390625 26.3125 6.390625  Q 33.546875 6.390625 37.984375 10.484375  Q 42.4375 14.59375 44 22.796875  L 50.203125 54.6875  L 59.1875 54.6875  L 51.03125 12.640625  Q 50.828125 11.71875 50.75 11.03125  Q 50.6875 10.359375 50.6875 9.8125  Q 50.6875 8.296875 51.296875 7.59375  Q 51.90625 6.890625 53.21875 6.890625  Q 53.71875 6.890625 54.5625 7.125  Q 55.421875 7.375 56.984375 8.015625  L 55.609375 0.78125  Q 53.46875 -0.296875 51.515625 -0.859375  Q 49.5625 -1.421875 47.703125 -1.421875  Q 44.484375 -1.421875 42.65625 0.625  Q 40.828125 2.6875 40.828125 6.296875  Q 38.09375 2.390625 34.296875 0.484375  Q 30.515625 -1.421875 25.390625 -1.421875  Q 20.84375 -1.421875 17.453125 0.671875  Q 14.0625 2.78125 12.984375 6.203125  L 7.71875 -20.796875  z " id="DejaVuSans-Oblique-3bc"/>
      <path d="M 52 44.1875  Q 55.375 50.25 60.0625 53.125  Q 64.75 56 71.09375 56  Q 79.640625 56 84.28125 50.015625  Q 88.921875 44.046875 88.921875 33.015625  L 88.921875 0  L 79.890625 0  L 79.890625 32.71875  Q 79.890625 40.578125 77.09375 44.375  Q 74.3125 48.1875 68.609375 48.1875  Q 61.625 48.1875 57.5625 43.546875  Q 53.515625 38.921875 53.515625 30.90625  L 53.515625 0  L 44.484375 0  L 44.484375 32.71875  Q 44.484375 40.625 41.703125 44.40625  Q 38.921875 48.1875 33.109375 48.1875  Q 26.21875 48.1875 22.15625 43.53125  Q 18.109375 38.875 18.109375 30.90625  L 18.109375 0  L 9.078125 0  L 9.078125 54.6875  L 18.109375 54.6875  L 18.109375 46.1875  Q 21.1875 51.21875 25.484375 53.609375  Q 29.78125 56 35.6875 56  Q 41.65625 56 45.828125 52.96875  Q 50 49.953125 52 44.1875  z " id="DejaVuSans-6d"/>
      <path d="M 8.015625 75.875  L 15.828125 75.875  Q 23.140625 64.359375 26.78125 53.3125  Q 30.421875 42.28125 30.421875 31.390625  Q 30.421875 20.453125 26.78125 9.375  Q 23.140625 -1.703125 15.828125 -13.1875  L 8.015625 -13.1875  Q 14.5 -2 17.703125 9.0625  Q 20.90625 20.125 20.90625 31.390625  Q 20.90625 42.671875 17.703125 53.65625  Q 14.5 64.65625 8.015625 75.875  z " id="DejaVuSans-29"/>
     </defs>
     <g transform="translate(219.395 329.038125)scale(0.1 -0.1)">
      <use transform="translate(0 0.015625)" xlink:href="#DejaVuSans-44"/>
      <use transform="translate(77.001953 0.015625)" xlink:href="#DejaVuSans-69"/>
      <use transform="translate(104.785156 0.015625)" xlink:href="#DejaVuSans-73"/>
      <use transform="translate(156.884766 0.015625)" xlink:href="#DejaVuSans-74"/>
      <use transform="translate(196.09375 0.015625)" xlink:href="#DejaVuSans-61"/>
      <use transform="translate(257.373047 0.015625)" xlink:href="#DejaVuSans-6e"/>
      <use transform="translate(320.751953 0.015625)" xlink:href="#DejaVuSans-63"/>
      <use transform="translate(375.732422 0.015625)" xlink:href="#DejaVuSans-65"/>
      <use transform="translate(437.255859 0.015625)" xlink:href="#DejaVuSans-20"/>
      <use transform="translate(469.042969 0.015625)" xlink:href="#DejaVuSans-28"/>
      <use transform="translate(508.056641 0.015625)" xlink:href="#DejaVuSans-Oblique-3bc"/>
      <use transform="translate(571.679688 0.015625)" xlink:href="#DejaVuSans-6d"/>
      <use transform="translate(669.091797 0.015625)" xlink:href="#DejaVuSans-29"/>
     </g>
    </g>
   </g>
   <g id="matplotlib.axis_2">
    <g id="ytick_1">
     <g id="line2d_8">
      <defs>
       <path d="M 0 0  L -3.5 0  " id="mb803999104" style="stroke:#000000;stroke-width:0.8;"/>
      </defs>
      <g>
       <use style="stroke:#000000;stroke-width:0.8;" x="62.21" xlink:href="#mb803999104" y="299.431702"/>
      </g>
     </g>
     <g id="text_9">
      <!-- &#8722;200 -->
      <defs>
       <path d="M 10.59375 35.5  L 73.1875 35.5  L 73.1875 27.203125  L 10.59375 27.203125  z " id="DejaVuSans-2212"/>
      </defs>
      <g transform="translate(27.742813 303.230921)scale(0.1 -0.1)">
       <use xlink:href="#DejaVuSans-2212"/>
       <use x="83.789062" xlink:href="#DejaVuSans-32"/>
       <use x="147.412109" xlink:href="#DejaVuSans-30"/>
       <use x="211.035156" xlink:href="#DejaVuSans-30"/>
      </g>
     </g>
    </g>
    <g id="ytick_2">
     <g id="line2d_9">
      <g>
       <use style="stroke:#000000;stroke-width:0.8;" x="62.21" xlink:href="#mb803999104" y="259.629042"/>
      </g>
     </g>
     <g id="text_10">
      <!-- &#8722;150 -->
      <defs>
       <path d="M 10.796875 72.90625  L 49.515625 72.90625  L 49.515625 64.59375  L 19.828125 64.59375  L 19.828125 46.734375  Q 21.96875 47.46875 24.109375 47.828125  Q 26.265625 48.1875 28.421875 48.1875  Q 40.625 48.1875 47.75 41.5  Q 54.890625 34.8125 54.890625 23.390625  Q 54.890625 11.625 47.5625 5.09375  Q 40.234375 -1.421875 26.90625 -1.421875  Q 22.3125 -1.421875 17.546875 -0.640625  Q 12.796875 0.140625 7.71875 1.703125  L 7.71875 11.625  Q 12.109375 9.234375 16.796875 8.0625  Q 21.484375 6.890625 26.703125 6.890625  Q 35.15625 6.890625 40.078125 11.328125  Q 45.015625 15.765625 45.015625 23.390625  Q 45.015625 31 40.078125 35.4375  Q 35.15625 39.890625 26.703125 39.890625  Q 22.75 39.890625 18.8125 39.015625  Q 14.890625 38.140625 10.796875 36.28125  z " id="DejaVuSans-35"/>
      </defs>
      <g transform="translate(27.742813 263.428261)scale(0.1 -0.1)">
       <use xlink:href="#DejaVuSans-2212"/>
       <use x="83.789062" xlink:href="#DejaVuSans-31"/>
       <use x="147.412109" xlink:href="#DejaVuSans-35"/>
       <use x="211.035156" xlink:href="#DejaVuSans-30"/>
      </g>
     </g>
    </g>
    <g id="ytick_3">
     <g id="line2d_10">
      <g>
       <use style="stroke:#000000;stroke-width:0.8;" x="62.21" xlink:href="#mb803999104" y="219.826382"/>
      </g>
     </g>
     <g id="text_11">
      <!-- &#8722;100 -->
      <g transform="translate(27.742813 223.625601)scale(0.1 -0.1)">
       <use xlink:href="#DejaVuSans-2212"/>
       <use x="83.789062" xlink:href="#DejaVuSans-31"/>
       <use x="147.412109" xlink:href="#DejaVuSans-30"/>
       <use x="211.035156" xlink:href="#DejaVuSans-30"/>
      </g>
     </g>
    </g>
    <g id="ytick_4">
     <g id="line2d_11">
      <g>
       <use style="stroke:#000000;stroke-width:0.8;" x="62.21" xlink:href="#mb803999104" y="180.023722"/>
      </g>
     </g>
     <g id="text_12">
      <!-- &#8722;50 -->
      <g transform="translate(34.105313 183.822941)scale(0.1 -0.1)">
       <use xlink:href="#DejaVuSans-2212"/>
       <use x="83.789062" xlink:href="#DejaVuSans-35"/>
       <use x="147.412109" xlink:href="#DejaVuSans-30"/>
      </g>
     </g>
    </g>
    <g id="ytick_5">
     <g id="line2d_12">
      <g>
       <use style="stroke:#000000;stroke-width:0.8;" x="62.21" xlink:href="#mb803999104" y="140.221062"/>
      </g>
     </g>
     <g id="text_13">
      <!-- 0 -->
      <g transform="translate(48.8475 144.020281)scale(0.1 -0.1)">
       <use xlink:href="#DejaVuSans-30"/>
      </g>
     </g>
    </g>
    <g id="ytick_6">
     <g id="line2d_13">
      <g>
       <use style="stroke:#000000;stroke-width:0.8;" x="62.21" xlink:href="#mb803999104" y="100.418402"/>
      </g>
     </g>
     <g id="text_14">
      <!-- 50 -->
      <g transform="translate(42.485 104.217621)scale(0.1 -0.1)">
       <use xlink:href="#DejaVuSans-35"/>
       <use x="63.623047" xlink:href="#DejaVuSans-30"/>
      </g>
     </g>
    </g>
    <g id="ytick_7">
     <g id="line2d_14">
      <g>
       <use style="stroke:#000000;stroke-width:0.8;" x="62.21" xlink:href="#mb803999104" y="60.615742"/>
      </g>
     </g>
     <g id="text_15">
      <!-- 100 -->
      <g transform="translate(36.1225 64.414961)scale(0.1 -0.1)">
       <use xlink:href="#DejaVuSans-31"/>
       <use x="63.623047" xlink:href="#DejaVuSans-30"/>
       <use x="127.246094" xlink:href="#DejaVuSans-30"/>
      </g>
     </g>
    </g>
    <g id="ytick_8">
     <g id="line2d_15">
      <g>
       <use style="stroke:#000000;stroke-width:0.8;" x="62.21" xlink:href="#mb803999104" y="20.813082"/>
      </g>
     </g>
     <g id="text_16">
      <!-- 150 -->
      <g transform="translate(36.1225 24.612301)scale(0.1 -0.1)">
       <use xlink:href="#DejaVuSans-31"/>
       <use x="63.623047" xlink:href="#DejaVuSans-35"/>
       <use x="127.246094" xlink:href="#DejaVuSans-30"/>
      </g>
     </g>
    </g>
    <g id="text_17">
     <!-- Slope, at. / $\mu m$ -->
     <defs>
      <path d="M 53.515625 70.515625  L 53.515625 60.890625  Q 47.90625 63.578125 42.921875 64.890625  Q 37.9375 66.21875 33.296875 66.21875  Q 25.25 66.21875 20.875 63.09375  Q 16.5 59.96875 16.5 54.203125  Q 16.5 49.359375 19.40625 46.890625  Q 22.3125 44.4375 30.421875 42.921875  L 36.375 41.703125  Q 47.40625 39.59375 52.65625 34.296875  Q 57.90625 29 57.90625 20.125  Q 57.90625 9.515625 50.796875 4.046875  Q 43.703125 -1.421875 29.984375 -1.421875  Q 24.8125 -1.421875 18.96875 -0.25  Q 13.140625 0.921875 6.890625 3.21875  L 6.890625 13.375  Q 12.890625 10.015625 18.65625 8.296875  Q 24.421875 6.59375 29.984375 6.59375  Q 38.421875 6.59375 43.015625 9.90625  Q 47.609375 13.234375 47.609375 19.390625  Q 47.609375 24.75 44.3125 27.78125  Q 41.015625 30.8125 33.5 32.328125  L 27.484375 33.5  Q 16.453125 35.6875 11.515625 40.375  Q 6.59375 45.0625 6.59375 53.421875  Q 6.59375 63.09375 13.40625 68.65625  Q 20.21875 74.21875 32.171875 74.21875  Q 37.3125 74.21875 42.625 73.28125  Q 47.953125 72.359375 53.515625 70.515625  z " id="DejaVuSans-53"/>
      <path d="M 9.421875 75.984375  L 18.40625 75.984375  L 18.40625 0  L 9.421875 0  z " id="DejaVuSans-6c"/>
      <path d="M 30.609375 48.390625  Q 23.390625 48.390625 19.1875 42.75  Q 14.984375 37.109375 14.984375 27.296875  Q 14.984375 17.484375 19.15625 11.84375  Q 23.34375 6.203125 30.609375 6.203125  Q 37.796875 6.203125 41.984375 11.859375  Q 46.1875 17.53125 46.1875 27.296875  Q 46.1875 37.015625 41.984375 42.703125  Q 37.796875 48.390625 30.609375 48.390625  z M 30.609375 56  Q 42.328125 56 49.015625 48.375  Q 55.71875 40.765625 55.71875 27.296875  Q 55.71875 13.875 49.015625 6.21875  Q 42.328125 -1.421875 30.609375 -1.421875  Q 18.84375 -1.421875 12.171875 6.21875  Q 5.515625 13.875 5.515625 27.296875  Q 5.515625 40.765625 12.171875 48.375  Q 18.84375 56 30.609375 56  z " id="DejaVuSans-6f"/>
      <path d="M 18.109375 8.203125  L 18.109375 -20.796875  L 9.078125 -20.796875  L 9.078125 54.6875  L 18.109375 54.6875  L 18.109375 46.390625  Q 20.953125 51.265625 25.265625 53.625  Q 29.59375 56 35.59375 56  Q 45.5625 56 51.78125 48.09375  Q 58.015625 40.1875 58.015625 27.296875  Q 58.015625 14.40625 51.78125 6.484375  Q 45.5625 -1.421875 35.59375 -1.421875  Q 29.59375 -1.421875 25.265625 0.953125  Q 20.953125 3.328125 18.109375 8.203125  z M 48.6875 27.296875  Q 48.6875 37.203125 44.609375 42.84375  Q 40.53125 48.484375 33.40625 48.484375  Q 26.265625 48.484375 22.1875 42.84375  Q 18.109375 37.203125 18.109375 27.296875  Q 18.109375 17.390625 22.1875 11.75  Q 26.265625 6.109375 33.40625 6.109375  Q 40.53125 6.109375 44.609375 11.75  Q 48.6875 17.390625 48.6875 27.296875  z " id="DejaVuSans-70"/>
      <path d="M 11.71875 12.40625  L 22.015625 12.40625  L 22.015625 4  L 14.015625 -11.625  L 7.71875 -11.625  L 11.71875 4  z " id="DejaVuSans-2c"/>
      <path d="M 10.6875 12.40625  L 21 12.40625  L 21 0  L 10.6875 0  z " id="DejaVuSans-2e"/>
      <path d="M 25.390625 72.90625  L 33.6875 72.90625  L 8.296875 -9.28125  L 0 -9.28125  z " id="DejaVuSans-2f"/>
      <path d="M 89.796875 33.015625  L 83.40625 0  L 74.421875 0  L 80.71875 32.71875  Q 81.109375 34.8125 81.296875 36.328125  Q 81.5 37.84375 81.5 38.921875  Q 81.5 43.3125 79.046875 45.75  Q 76.609375 48.1875 72.21875 48.1875  Q 65.671875 48.1875 60.546875 43.28125  Q 55.421875 38.375 53.90625 30.515625  L 47.90625 0  L 38.921875 0  L 45.3125 32.71875  Q 45.703125 34.515625 45.890625 36.046875  Q 46.09375 37.59375 46.09375 38.8125  Q 46.09375 43.265625 43.65625 45.71875  Q 41.21875 48.1875 36.921875 48.1875  Q 30.28125 48.1875 25.140625 43.28125  Q 20.015625 38.375 18.5 30.515625  L 12.5 0  L 3.515625 0  L 14.203125 54.6875  L 23.1875 54.6875  L 21.484375 46.1875  Q 25.140625 50.984375 30.046875 53.484375  Q 34.96875 56 40.578125 56  Q 46.53125 56 50.359375 52.875  Q 54.203125 49.75 54.984375 44.1875  Q 59.078125 49.953125 64.46875 52.96875  Q 69.875 56 75.875 56  Q 82.90625 56 86.734375 51.953125  Q 90.578125 47.90625 90.578125 40.484375  Q 90.578125 38.875 90.375 36.9375  Q 90.1875 35.015625 89.796875 33.015625  z " id="DejaVuSans-Oblique-6d"/>
     </defs>
     <g transform="translate(21.642813 193.64)rotate(-90)scale(0.1 -0.1)">
      <use transform="translate(0 0.015625)" xlink:href="#DejaVuSans-53"/>
      <use transform="translate(63.476562 0.015625)" xlink:href="#DejaVuSans-6c"/>
      <use transform="translate(91.259766 0.015625)" xlink:href="#DejaVuSans-6f"/>
      <use transform="translate(152.441406 0.015625)" xlink:href="#DejaVuSans-70"/>
      <use transform="translate(215.917969 0.015625)" xlink:href="#DejaVuSans-65"/>
      <use transform="translate(277.441406 0.015625)" xlink:href="#DejaVuSans-2c"/>
      <use transform="translate(309.228516 0.015625)" xlink:href="#DejaVuSans-20"/>
      <use transform="translate(341.015625 0.015625)" xlink:href="#DejaVuSans-61"/>
      <use transform="translate(402.294922 0.015625)" xlink:href="#DejaVuSans-74"/>
      <use transform="translate(441.503906 0.015625)" xlink:href="#DejaVuSans-2e"/>
      <use transform="translate(473.291016 0.015625)" xlink:href="#DejaVuSans-20"/>
      <use transform="translate(505.078125 0.015625)" xlink:href="#DejaVuSans-2f"/>
      <use transform="translate(538.769531 0.015625)" xlink:href="#DejaVuSans-20"/>
      <use transform="translate(570.556641 0.015625)" xlink:href="#DejaVuSans-Oblique-3bc"/>
      <use transform="translate(634.179688 0.015625)" xlink:href="#DejaVuSans-Oblique-6d"/>
     </g>
    </g>
   </g>
   <g id="line2d_16">
    <defs>
     <path d="M -0 3  L 3 -3  L -3 -3  z " id="m2d7479805d" style="stroke:#e74c3c;stroke-linejoin:miter;"/>
    </defs>
    <g clip-path="url(#p3ab8caf54b)">
     <use style="fill:#e74c3c;stroke:#e74c3c;stroke-linejoin:miter;" x="62.21" xlink:href="#m2d7479805d" y="137.858582"/>
     <use style="fill:#e74c3c;stroke:#e74c3c;stroke-linejoin:miter;" x="74.718983" xlink:href="#m2d7479805d" y="137.858582"/>
     <use style="fill:#e74c3c;stroke:#e74c3c;stroke-linejoin:miter;" x="125.336731" xlink:href="#m2d7479805d" y="139.550915"/>
     <use style="fill:#e74c3c;stroke:#e74c3c;stroke-linejoin:miter;" x="131.736676" xlink:href="#m2d7479805d" y="156.4316"/>
     <use style="fill:#e74c3c;stroke:#e74c3c;stroke-linejoin:miter;" x="138.136621" xlink:href="#m2d7479805d" y="143.62572"/>
     <use style="fill:#e74c3c;stroke:#e74c3c;stroke-linejoin:miter;" x="150.645604" xlink:href="#m2d7479805d" y="137.943125"/>
     <use style="fill:#e74c3c;stroke:#e74c3c;stroke-linejoin:miter;" x="157.045549" xlink:href="#m2d7479805d" y="135.554966"/>
     <use style="fill:#e74c3c;stroke:#e74c3c;stroke-linejoin:miter;" x="169.554533" xlink:href="#m2d7479805d" y="142.915396"/>
     <use style="fill:#e74c3c;stroke:#e74c3c;stroke-linejoin:miter;" x="175.954478" xlink:href="#m2d7479805d" y="140.474352"/>
     <use style="fill:#e74c3c;stroke:#e74c3c;stroke-linejoin:miter;" x="182.354423" xlink:href="#m2d7479805d" y="135.910128"/>
     <use style="fill:#e74c3c;stroke:#e74c3c;stroke-linejoin:miter;" x="194.863406" xlink:href="#m2d7479805d" y="133.975106"/>
     <use style="fill:#e74c3c;stroke:#e74c3c;stroke-linejoin:miter;" x="201.263351" xlink:href="#m2d7479805d" y="125.706976"/>
     <use style="fill:#e74c3c;stroke:#e74c3c;stroke-linejoin:miter;" x="207.37239" xlink:href="#m2d7479805d" y="138.647469"/>
     <use style="fill:#e74c3c;stroke:#e74c3c;stroke-linejoin:miter;" x="213.772335" xlink:href="#m2d7479805d" y="135.553296"/>
     <use style="fill:#e74c3c;stroke:#e74c3c;stroke-linejoin:miter;" x="220.17228" xlink:href="#m2d7479805d" y="119.72732"/>
     <use style="fill:#e74c3c;stroke:#e74c3c;stroke-linejoin:miter;" x="226.281318" xlink:href="#m2d7479805d" y="106.54616"/>
     <use style="fill:#e74c3c;stroke:#e74c3c;stroke-linejoin:miter;" x="232.681263" xlink:href="#m2d7479805d" y="113.679925"/>
     <use style="fill:#e74c3c;stroke:#e74c3c;stroke-linejoin:miter;" x="239.081208" xlink:href="#m2d7479805d" y="122.147036"/>
     <use style="fill:#e74c3c;stroke:#e74c3c;stroke-linejoin:miter;" x="245.481153" xlink:href="#m2d7479805d" y="109.434167"/>
     <use style="fill:#e74c3c;stroke:#e74c3c;stroke-linejoin:miter;" x="251.590192" xlink:href="#m2d7479805d" y="110.563452"/>
     <use style="fill:#e74c3c;stroke:#e74c3c;stroke-linejoin:miter;" x="257.990137" xlink:href="#m2d7479805d" y="100.074652"/>
     <use style="fill:#e74c3c;stroke:#e74c3c;stroke-linejoin:miter;" x="264.390082" xlink:href="#m2d7479805d" y="92.71705"/>
     <use style="fill:#e74c3c;stroke:#e74c3c;stroke-linejoin:miter;" x="270.49912" xlink:href="#m2d7479805d" y="106.583186"/>
     <use style="fill:#e74c3c;stroke:#e74c3c;stroke-linejoin:miter;" x="276.899065" xlink:href="#m2d7479805d" y="108.921698"/>
     <use style="fill:#e74c3c;stroke:#e74c3c;stroke-linejoin:miter;" x="283.29901" xlink:href="#m2d7479805d" y="109.500645"/>
     <use style="fill:#e74c3c;stroke:#e74c3c;stroke-linejoin:miter;" x="289.698955" xlink:href="#m2d7479805d" y="106.052009"/>
     <use style="fill:#e74c3c;stroke:#e74c3c;stroke-linejoin:miter;" x="302.207939" xlink:href="#m2d7479805d" y="111.342701"/>
     <use style="fill:#e74c3c;stroke:#e74c3c;stroke-linejoin:miter;" x="308.607884" xlink:href="#m2d7479805d" y="129.372523"/>
     <use style="fill:#e74c3c;stroke:#e74c3c;stroke-linejoin:miter;" x="314.716922" xlink:href="#m2d7479805d" y="124.392562"/>
     <use style="fill:#e74c3c;stroke:#e74c3c;stroke-linejoin:miter;" x="321.116867" xlink:href="#m2d7479805d" y="103.81972"/>
     <use style="fill:#e74c3c;stroke:#e74c3c;stroke-linejoin:miter;" x="327.516812" xlink:href="#m2d7479805d" y="112.811503"/>
     <use style="fill:#e74c3c;stroke:#e74c3c;stroke-linejoin:miter;" x="333.916757" xlink:href="#m2d7479805d" y="153.143042"/>
     <use style="fill:#e74c3c;stroke:#e74c3c;stroke-linejoin:miter;" x="340.025796" xlink:href="#m2d7479805d" y="134.77828"/>
     <use style="fill:#e74c3c;stroke:#e74c3c;stroke-linejoin:miter;" x="346.425741" xlink:href="#m2d7479805d" y="119.939798"/>
     <use style="fill:#e74c3c;stroke:#e74c3c;stroke-linejoin:miter;" x="352.825686" xlink:href="#m2d7479805d" y="144.034712"/>
     <use style="fill:#e74c3c;stroke:#e74c3c;stroke-linejoin:miter;" x="358.934724" xlink:href="#m2d7479805d" y="113.840229"/>
     <use style="fill:#e74c3c;stroke:#e74c3c;stroke-linejoin:miter;" x="365.334669" xlink:href="#m2d7479805d" y="124.878946"/>
     <use style="fill:#e74c3c;stroke:#e74c3c;stroke-linejoin:miter;" x="371.734614" xlink:href="#m2d7479805d" y="159.959563"/>
     <use style="fill:#e74c3c;stroke:#e74c3c;stroke-linejoin:miter;" x="378.134559" xlink:href="#m2d7479805d" y="123.948254"/>
     <use style="fill:#e74c3c;stroke:#e74c3c;stroke-linejoin:miter;" x="384.243598" xlink:href="#m2d7479805d" y="128.372828"/>
     <use style="fill:#e74c3c;stroke:#e74c3c;stroke-linejoin:miter;" x="390.643543" xlink:href="#m2d7479805d" y="133.382241"/>
     <use style="fill:#e74c3c;stroke:#e74c3c;stroke-linejoin:miter;" x="397.043488" xlink:href="#m2d7479805d" y="126.299387"/>
     <use style="fill:#e74c3c;stroke:#e74c3c;stroke-linejoin:miter;" x="403.152526" xlink:href="#m2d7479805d" y="167.157281"/>
     <use style="fill:#e74c3c;stroke:#e74c3c;stroke-linejoin:miter;" x="409.552471" xlink:href="#m2d7479805d" y="122.545063"/>
     <use style="fill:#e74c3c;stroke:#e74c3c;stroke-linejoin:miter;" x="415.952416" xlink:href="#m2d7479805d" y="129.456252"/>
     <use style="fill:#e74c3c;stroke:#e74c3c;stroke-linejoin:miter;" x="422.352361" xlink:href="#m2d7479805d" y="162.936348"/>
     <use style="fill:#e74c3c;stroke:#e74c3c;stroke-linejoin:miter;" x="428.4614" xlink:href="#m2d7479805d" y="141.128192"/>
     <use style="fill:#e74c3c;stroke:#e74c3c;stroke-linejoin:miter;" x="434.861345" xlink:href="#m2d7479805d" y="156.913685"/>
     <use style="fill:#e74c3c;stroke:#e74c3c;stroke-linejoin:miter;" x="447.370328" xlink:href="#m2d7479805d" y="156.913685"/>
    </g>
   </g>
   <g id="line2d_17">
    <defs>
     <path d="M 0 -3  L -0.673542 -0.927051  L -2.85317 -0.927051  L -1.089814 0.354102  L -1.763356 2.427051  L -0 1.145898  L 1.763356 2.427051  L 1.089814 0.354102  L 2.85317 -0.927051  L 0.673542 -0.927051  z " id="m8b00425645" style="stroke:#808000;stroke-linejoin:bevel;"/>
    </defs>
    <g clip-path="url(#p3ab8caf54b)">
     <use style="fill:#808000;stroke:#808000;stroke-linejoin:bevel;" x="62.21" xlink:href="#m8b00425645" y="140.822688"/>
     <use style="fill:#808000;stroke:#808000;stroke-linejoin:bevel;" x="74.718983" xlink:href="#m8b00425645" y="140.822688"/>
     <use style="fill:#808000;stroke:#808000;stroke-linejoin:bevel;" x="125.336731" xlink:href="#m8b00425645" y="140.671888"/>
     <use style="fill:#808000;stroke:#808000;stroke-linejoin:bevel;" x="131.736676" xlink:href="#m8b00425645" y="139.967772"/>
     <use style="fill:#808000;stroke:#808000;stroke-linejoin:bevel;" x="138.136621" xlink:href="#m8b00425645" y="139.155575"/>
     <use style="fill:#808000;stroke:#808000;stroke-linejoin:bevel;" x="150.645604" xlink:href="#m8b00425645" y="138.788166"/>
     <use style="fill:#808000;stroke:#808000;stroke-linejoin:bevel;" x="157.045549" xlink:href="#m8b00425645" y="136.448995"/>
     <use style="fill:#808000;stroke:#808000;stroke-linejoin:bevel;" x="169.554533" xlink:href="#m8b00425645" y="140.723188"/>
     <use style="fill:#808000;stroke:#808000;stroke-linejoin:bevel;" x="175.954478" xlink:href="#m8b00425645" y="143.948038"/>
     <use style="fill:#808000;stroke:#808000;stroke-linejoin:bevel;" x="182.354423" xlink:href="#m8b00425645" y="142.584728"/>
     <use style="fill:#808000;stroke:#808000;stroke-linejoin:bevel;" x="194.863406" xlink:href="#m8b00425645" y="142.00912"/>
     <use style="fill:#808000;stroke:#808000;stroke-linejoin:bevel;" x="201.263351" xlink:href="#m8b00425645" y="136.870233"/>
     <use style="fill:#808000;stroke:#808000;stroke-linejoin:bevel;" x="207.37239" xlink:href="#m8b00425645" y="134.722741"/>
     <use style="fill:#808000;stroke:#808000;stroke-linejoin:bevel;" x="213.772335" xlink:href="#m8b00425645" y="131.91678"/>
     <use style="fill:#808000;stroke:#808000;stroke-linejoin:bevel;" x="220.17228" xlink:href="#m8b00425645" y="138.166134"/>
     <use style="fill:#808000;stroke:#808000;stroke-linejoin:bevel;" x="226.281318" xlink:href="#m8b00425645" y="130.520321"/>
     <use style="fill:#808000;stroke:#808000;stroke-linejoin:bevel;" x="232.681263" xlink:href="#m8b00425645" y="113.390451"/>
     <use style="fill:#808000;stroke:#808000;stroke-linejoin:bevel;" x="239.081208" xlink:href="#m8b00425645" y="100.346034"/>
     <use style="fill:#808000;stroke:#808000;stroke-linejoin:bevel;" x="245.481153" xlink:href="#m8b00425645" y="83.756823"/>
     <use style="fill:#808000;stroke:#808000;stroke-linejoin:bevel;" x="251.590192" xlink:href="#m8b00425645" y="66.09555"/>
     <use style="fill:#808000;stroke:#808000;stroke-linejoin:bevel;" x="257.990137" xlink:href="#m8b00425645" y="65.21114"/>
     <use style="fill:#808000;stroke:#808000;stroke-linejoin:bevel;" x="264.390082" xlink:href="#m8b00425645" y="47.786327"/>
     <use style="fill:#808000;stroke:#808000;stroke-linejoin:bevel;" x="270.49912" xlink:href="#m8b00425645" y="26.385455"/>
     <use style="fill:#808000;stroke:#808000;stroke-linejoin:bevel;" x="276.899065" xlink:href="#m8b00425645" y="37.674936"/>
     <use style="fill:#808000;stroke:#808000;stroke-linejoin:bevel;" x="283.29901" xlink:href="#m8b00425645" y="47.806522"/>
     <use style="fill:#808000;stroke:#808000;stroke-linejoin:bevel;" x="289.698955" xlink:href="#m8b00425645" y="88.085701"/>
     <use style="fill:#808000;stroke:#808000;stroke-linejoin:bevel;" x="302.207939" xlink:href="#m8b00425645" y="107.54614"/>
     <use style="fill:#808000;stroke:#808000;stroke-linejoin:bevel;" x="308.607884" xlink:href="#m8b00425645" y="100.770147"/>
     <use style="fill:#808000;stroke:#808000;stroke-linejoin:bevel;" x="314.716922" xlink:href="#m8b00425645" y="104.7319"/>
     <use style="fill:#808000;stroke:#808000;stroke-linejoin:bevel;" x="321.116867" xlink:href="#m8b00425645" y="119.650324"/>
     <use style="fill:#808000;stroke:#808000;stroke-linejoin:bevel;" x="327.516812" xlink:href="#m8b00425645" y="116.502295"/>
     <use style="fill:#808000;stroke:#808000;stroke-linejoin:bevel;" x="333.916757" xlink:href="#m8b00425645" y="121.504555"/>
     <use style="fill:#808000;stroke:#808000;stroke-linejoin:bevel;" x="340.025796" xlink:href="#m8b00425645" y="142.294503"/>
     <use style="fill:#808000;stroke:#808000;stroke-linejoin:bevel;" x="346.425741" xlink:href="#m8b00425645" y="133.870729"/>
     <use style="fill:#808000;stroke:#808000;stroke-linejoin:bevel;" x="352.825686" xlink:href="#m8b00425645" y="124.003792"/>
     <use style="fill:#808000;stroke:#808000;stroke-linejoin:bevel;" x="358.934724" xlink:href="#m8b00425645" y="148.274158"/>
     <use style="fill:#808000;stroke:#808000;stroke-linejoin:bevel;" x="365.334669" xlink:href="#m8b00425645" y="152.596071"/>
     <use style="fill:#808000;stroke:#808000;stroke-linejoin:bevel;" x="371.734614" xlink:href="#m8b00425645" y="130.650332"/>
     <use style="fill:#808000;stroke:#808000;stroke-linejoin:bevel;" x="378.134559" xlink:href="#m8b00425645" y="132.075401"/>
     <use style="fill:#808000;stroke:#808000;stroke-linejoin:bevel;" x="384.243598" xlink:href="#m8b00425645" y="133.815611"/>
     <use style="fill:#808000;stroke:#808000;stroke-linejoin:bevel;" x="390.643543" xlink:href="#m8b00425645" y="133.54507"/>
     <use style="fill:#808000;stroke:#808000;stroke-linejoin:bevel;" x="397.043488" xlink:href="#m8b00425645" y="145.70087"/>
     <use style="fill:#808000;stroke:#808000;stroke-linejoin:bevel;" x="403.152526" xlink:href="#m8b00425645" y="148.459287"/>
     <use style="fill:#808000;stroke:#808000;stroke-linejoin:bevel;" x="409.552471" xlink:href="#m8b00425645" y="141.596063"/>
     <use style="fill:#808000;stroke:#808000;stroke-linejoin:bevel;" x="415.952416" xlink:href="#m8b00425645" y="124.263814"/>
     <use style="fill:#808000;stroke:#808000;stroke-linejoin:bevel;" x="422.352361" xlink:href="#m8b00425645" y="141.035628"/>
     <use style="fill:#808000;stroke:#808000;stroke-linejoin:bevel;" x="428.4614" xlink:href="#m8b00425645" y="139.795266"/>
     <use style="fill:#808000;stroke:#808000;stroke-linejoin:bevel;" x="434.861345" xlink:href="#m8b00425645" y="133.803649"/>
     <use style="fill:#808000;stroke:#808000;stroke-linejoin:bevel;" x="447.370328" xlink:href="#m8b00425645" y="133.803649"/>
    </g>
   </g>
   <g id="line2d_18">
    <defs>
     <path d="M 0 3  C 0.795609 3 1.55874 2.683901 2.12132 2.12132  C 2.683901 1.55874 3 0.795609 3 0  C 3 -0.795609 2.683901 -1.55874 2.12132 -2.12132  C 1.55874 -2.683901 0.795609 -3 0 -3  C -0.795609 -3 -1.55874 -2.683901 -2.12132 -2.12132  C -2.683901 -1.55874 -3 -0.795609 -3 0  C -3 0.795609 -2.683901 1.55874 -2.12132 2.12132  C -1.55874 2.683901 -0.795609 3 0 3  z " id="m9380f0c0e0" style="stroke:#008080;"/>
    </defs>
    <g clip-path="url(#p3ab8caf54b)">
     <use style="fill:#008080;stroke:#008080;" x="62.21" xlink:href="#m9380f0c0e0" y="141.981917"/>
     <use style="fill:#008080;stroke:#008080;" x="74.718983" xlink:href="#m9380f0c0e0" y="141.981917"/>
     <use style="fill:#008080;stroke:#008080;" x="125.336731" xlink:href="#m9380f0c0e0" y="140.440383"/>
     <use style="fill:#008080;stroke:#008080;" x="131.736676" xlink:href="#m9380f0c0e0" y="124.263814"/>
     <use style="fill:#008080;stroke:#008080;" x="138.136621" xlink:href="#m9380f0c0e0" y="137.88189"/>
     <use style="fill:#008080;stroke:#008080;" x="150.645604" xlink:href="#m9380f0c0e0" y="143.931895"/>
     <use style="fill:#008080;stroke:#008080;" x="157.045549" xlink:href="#m9380f0c0e0" y="148.659226"/>
     <use style="fill:#008080;stroke:#008080;" x="169.554533" xlink:href="#m9380f0c0e0" y="137.024602"/>
     <use style="fill:#008080;stroke:#008080;" x="175.954478" xlink:href="#m9380f0c0e0" y="136.240796"/>
     <use style="fill:#008080;stroke:#008080;" x="182.354423" xlink:href="#m9380f0c0e0" y="142.168331"/>
     <use style="fill:#008080;stroke:#008080;" x="194.863406" xlink:href="#m9380f0c0e0" y="144.67896"/>
     <use style="fill:#008080;stroke:#008080;" x="201.263351" xlink:href="#m9380f0c0e0" y="158.085977"/>
     <use style="fill:#008080;stroke:#008080;" x="207.37239" xlink:href="#m9380f0c0e0" y="147.292977"/>
     <use style="fill:#008080;stroke:#008080;" x="213.772335" xlink:href="#m9380f0c0e0" y="153.193111"/>
     <use style="fill:#008080;stroke:#008080;" x="220.17228" xlink:href="#m9380f0c0e0" y="162.769732"/>
     <use style="fill:#008080;stroke:#008080;" x="226.281318" xlink:href="#m9380f0c0e0" y="183.596705"/>
     <use style="fill:#008080;stroke:#008080;" x="232.681263" xlink:href="#m9380f0c0e0" y="193.592811"/>
     <use style="fill:#008080;stroke:#008080;" x="239.081208" xlink:href="#m9380f0c0e0" y="198.170117"/>
     <use style="fill:#008080;stroke:#008080;" x="245.481153" xlink:href="#m9380f0c0e0" y="227.472195"/>
     <use style="fill:#008080;stroke:#008080;" x="251.590192" xlink:href="#m9380f0c0e0" y="244.004184"/>
     <use style="fill:#008080;stroke:#008080;" x="257.990137" xlink:href="#m9380f0c0e0" y="255.377394"/>
     <use style="fill:#008080;stroke:#008080;" x="264.390082" xlink:href="#m9380f0c0e0" y="280.159809"/>
     <use style="fill:#008080;stroke:#008080;" x="270.49912" xlink:href="#m9380f0c0e0" y="287.694545"/>
     <use style="fill:#008080;stroke:#008080;" x="276.899065" xlink:href="#m9380f0c0e0" y="274.066552"/>
     <use style="fill:#008080;stroke:#008080;" x="283.29901" xlink:href="#m9380f0c0e0" y="263.356018"/>
     <use style="fill:#008080;stroke:#008080;" x="289.698955" xlink:href="#m9380f0c0e0" y="226.525476"/>
     <use style="fill:#008080;stroke:#008080;" x="302.207939" xlink:href="#m9380f0c0e0" y="201.774345"/>
     <use style="fill:#008080;stroke:#008080;" x="308.607884" xlink:href="#m9380f0c0e0" y="190.520517"/>
     <use style="fill:#008080;stroke:#008080;" x="314.716922" xlink:href="#m9380f0c0e0" y="191.538724"/>
     <use style="fill:#008080;stroke:#008080;" x="321.116867" xlink:href="#m9380f0c0e0" y="197.193142"/>
     <use style="fill:#008080;stroke:#008080;" x="327.516812" xlink:href="#m9380f0c0e0" y="191.349388"/>
     <use style="fill:#008080;stroke:#008080;" x="333.916757" xlink:href="#m9380f0c0e0" y="146.015589"/>
     <use style="fill:#008080;stroke:#008080;" x="340.025796" xlink:href="#m9380f0c0e0" y="143.590404"/>
     <use style="fill:#008080;stroke:#008080;" x="346.425741" xlink:href="#m9380f0c0e0" y="166.85266"/>
     <use style="fill:#008080;stroke:#008080;" x="352.825686" xlink:href="#m9380f0c0e0" y="152.624682"/>
     <use style="fill:#008080;stroke:#008080;" x="358.934724" xlink:href="#m9380f0c0e0" y="158.548799"/>
     <use style="fill:#008080;stroke:#008080;" x="365.334669" xlink:href="#m9380f0c0e0" y="143.188169"/>
     <use style="fill:#008080;stroke:#008080;" x="371.734614" xlink:href="#m9380f0c0e0" y="130.053292"/>
     <use style="fill:#008080;stroke:#008080;" x="378.134559" xlink:href="#m9380f0c0e0" y="164.639531"/>
     <use style="fill:#008080;stroke:#008080;" x="384.243598" xlink:href="#m9380f0c0e0" y="158.474747"/>
     <use style="fill:#008080;stroke:#008080;" x="390.643543" xlink:href="#m9380f0c0e0" y="153.735874"/>
     <use style="fill:#008080;stroke:#008080;" x="397.043488" xlink:href="#m9380f0c0e0" y="148.662929"/>
     <use style="fill:#008080;stroke:#008080;" x="403.152526" xlink:href="#m9380f0c0e0" y="105.046618"/>
     <use style="fill:#008080;stroke:#008080;" x="409.552471" xlink:href="#m9380f0c0e0" y="156.522061"/>
     <use style="fill:#008080;stroke:#008080;" x="415.952416" xlink:href="#m9380f0c0e0" y="166.943121"/>
     <use style="fill:#008080;stroke:#008080;" x="422.352361" xlink:href="#m9380f0c0e0" y="116.691211"/>
     <use style="fill:#008080;stroke:#008080;" x="428.4614" xlink:href="#m9380f0c0e0" y="139.739728"/>
     <use style="fill:#008080;stroke:#008080;" x="434.861345" xlink:href="#m9380f0c0e0" y="129.945852"/>
     <use style="fill:#008080;stroke:#008080;" x="447.370328" xlink:href="#m9380f0c0e0" y="129.945852"/>
    </g>
   </g>
   <g id="line2d_19">
    <path clip-path="url(#p3ab8caf54b)" d="M 60.705039 140.220899  L 136.555072 140.124268  L 152.80865 139.892084  L 163.644369 139.511605  L 170.868182 139.064255  L 178.091994 138.373085  L 183.961342 137.560954  L 188.476225 136.738183  L 192.991108 135.705586  L 197.505991 134.427922  L 202.020873 132.87156  L 205.63278 131.406643  L 209.244686 129.735628  L 212.856592 127.855694  L 217.371475 125.223125  L 221.886358 122.315922  L 228.432938 117.783067  L 235.656751 112.807214  L 239.268657 110.557249  L 242.429075 108.829225  L 245.138005 107.578114  L 247.846935 106.574163  L 250.555865 105.840057  L 252.813306 105.442591  L 255.070747 105.239763  L 257.779677 105.243952  L 260.488607 105.49822  L 263.536153 106.046478  L 266.696571 106.858379  L 270.534221 108.094528  L 275.500593 109.952284  L 296.156182 117.966356  L 302.928506 120.232732  L 310.152319 122.418537  L 318.279108 124.63375  L 326.631641 126.690763  L 336.564384 128.899736  L 346.497126 130.880252  L 356.881357 132.752255  L 378.552794 135.75934  L 389.388513 136.892335  L 400.224232 137.790338  L 412.865904 138.58102  L 425.507577 139.146496  L 441.761155 139.628428  L 448.984968 139.743881  L 448.984968 139.743881  " style="fill:none;stroke:#e74c3c;stroke-linecap:square;stroke-width:2;"/>
   </g>
   <g id="line2d_20">
    <path clip-path="url(#p3ab8caf54b)" d="M 60.705039 140.221062  L 185.767295 140.111183  L 194.797061 139.857637  L 200.21492 139.500291  L 204.729803 138.97243  L 208.34171 138.311994  L 211.050639 137.620706  L 213.759569 136.709273  L 216.468499 135.52115  L 219.177428 133.991212  L 220.983382 132.745861  L 223.692311 130.588074  L 224.821032 129.384377  L 226.626985 127.417797  L 228.432938 125.175371  L 230.238892 122.638945  L 232.496333 119.03402  L 234.753774 114.933181  L 237.011216 110.339599  L 239.268657 105.278802  L 241.977587 98.663121  L 245.589493 89.163177  L 253.264794 68.635936  L 255.973724 62.143081  L 258.231165 57.335191  L 260.037119 53.97034  L 261.391583 51.845742  L 263.310409 49.119077  L 264.664874 47.617676  L 266.019338 46.422082  L 267.373803 45.533542  L 268.502524 45.025952  L 269.631245 44.726649  L 270.759965 44.630872  L 271.888686 44.732536  L 273.243151 45.104895  L 274.597616 45.736775  L 275.952081 46.612257  L 277.53229 47.918666  L 279.112499 49.504815  L 280.918452 51.622514  L 282.950149 54.341308  L 285.433335 58.061935  L 288.368009 62.886732  L 292.092787 69.440106  L 305.185948 92.848932  L 309.249342 99.448335  L 312.861248 104.868975  L 316.021666 109.234795  L 319.182084 113.23471  L 322.116758 116.742334  L 323.922712 118.544336  L 326.631641 121.21543  L 329.340571 123.632784  L 332.049501 125.807879  L 334.75843 127.753984  L 337.46736 129.485633  L 341.079266 131.487451  L 344.691173 133.172559  L 348.303079 134.578059  L 351.914985 135.739806  L 356.881357 137.050317  L 364.105169 138.28758  L 369.523029 138.934422  L 376.746841 139.50145  L 383.970654 139.840009  L 394.806373 140.096733  L 411.059951 140.220192  L 448.984968 140.233644  L 448.984968 140.233644  " style="fill:none;stroke:#808000;stroke-linecap:square;stroke-width:2;"/>
   </g>
   <g id="line2d_21">
    <path clip-path="url(#p3ab8caf54b)" d="M 60.705039 140.221225  L 136.555072 140.3179  L 152.80865 140.550864  L 163.644369 140.935054  L 170.868182 141.391232  L 176.286041 141.897431  L 183.058365 142.777489  L 192.088131 144.767125  L 195.700037 145.879604  L 199.311944 147.245787  L 202.020873 148.470677  L 204.729803 149.89884  L 207.438733 151.563933  L 210.147663 153.504969  L 212.856592 155.76664  L 215.565522 158.399239  L 218.274452 161.457948  L 220.983382 165.001174  L 224.369544 170.01297  L 225.27252 171.745453  L 227.529962 175.911706  L 229.787403 180.532855  L 232.044845 185.61858  L 234.753774 192.326008  L 237.462704 199.648148  L 240.623122 208.840147  L 245.589493 224.107133  L 250.104376 237.824423  L 252.813306 245.441317  L 255.070747 251.193747  L 256.876701 255.303761  L 258.682654 258.909638  L 260.488607 261.962359  L 262.181688 264.291891  L 263.536153 265.768929  L 264.890618 266.898663  L 266.019338 267.574684  L 267.148059 268.011582  L 268.27678 268.213272  L 269.405501 268.185295  L 270.534221 267.934638  L 271.662942 267.469549  L 273.017407 266.641579  L 274.371872 265.536043  L 275.952081 263.921018  L 277.53229 261.986242  L 279.338243 259.425774  L 281.36994 256.158947  L 283.853126 251.707714  L 286.7878 245.950804  L 290.62545 237.894199  L 291.189811 236.557156  L 292.092787 234.7236  L 302.477018 212.376406  L 306.540412 204.206503  L 310.152319 197.399685  L 313.764225 191.077981  L 316.924643 185.967542  L 320.085061 181.257562  L 323.019735 177.241786  L 325.728665 173.831683  L 328.437594 170.698222  L 331.146524 167.829685  L 333.855454 165.212573  L 336.564384 162.832139  L 340.17629 159.999492  L 343.788196 157.522258  L 347.400103 155.362905  L 351.012009 153.485148  L 355.526892 151.390597  L 356.881357 150.860614  L 365.911122 148.021552  L 371.328982 146.697147  L 376.746841 145.615729  L 383.970654 144.466389  L 391.194467 143.570808  L 400.224232 142.712975  L 411.059951 141.959854  L 423.701623 141.347397  L 438.149249 140.885573  L 448.984968 140.685661  L 448.984968 140.685661  " style="fill:none;stroke:#008080;stroke-linecap:square;stroke-width:2;"/>
   </g>
   <g id="patch_3">
    <path d="M 62.21 300.76  L 62.21 13.32  " style="fill:none;stroke:#000000;stroke-linecap:square;stroke-linejoin:miter;stroke-width:0.8;"/>
   </g>
   <g id="patch_4">
    <path d="M 447.48 300.76  L 447.48 13.32  " style="fill:none;stroke:#000000;stroke-linecap:square;stroke-linejoin:miter;stroke-width:0.8;"/>
   </g>
   <g id="patch_5">
    <path d="M 62.21 300.76  L 447.48 300.76  " style="fill:none;stroke:#000000;stroke-linecap:square;stroke-linejoin:miter;stroke-width:0.8;"/>
   </g>
   <g id="patch_6">
    <path d="M 62.21 13.32  L 447.48 13.32  " style="fill:none;stroke:#000000;stroke-linecap:square;stroke-linejoin:miter;stroke-width:0.8;"/>
   </g>
   <g id="legend_1">
    <g id="patch_7">
     <path d="M 69.21 109.38875  L 136.556875 109.38875  Q 138.556875 109.38875 138.556875 107.38875  L 138.556875 20.32  Q 138.556875 18.32 136.556875 18.32  L 69.21 18.32  Q 67.21 18.32 67.21 20.32  L 67.21 107.38875  Q 67.21 109.38875 69.21 109.38875  z " style="fill:#ffffff;opacity:0.8;stroke:#cccccc;stroke-linejoin:miter;"/>
    </g>
    <g id="line2d_22"/>
    <g id="line2d_23">
     <g>
      <use style="fill:#e74c3c;stroke:#e74c3c;stroke-linejoin:miter;" x="81.21" xlink:href="#m2d7479805d" y="26.418437"/>
     </g>
    </g>
    <g id="text_18">
     <!-- exp-Sn -->
     <defs>
      <path d="M 54.890625 54.6875  L 35.109375 28.078125  L 55.90625 0  L 45.3125 0  L 29.390625 21.484375  L 13.484375 0  L 2.875 0  L 24.125 28.609375  L 4.6875 54.6875  L 15.28125 54.6875  L 29.78125 35.203125  L 44.28125 54.6875  z " id="DejaVuSans-78"/>
      <path d="M 4.890625 31.390625  L 31.203125 31.390625  L 31.203125 23.390625  L 4.890625 23.390625  z " id="DejaVuSans-2d"/>
     </defs>
     <g transform="translate(99.21 29.918437)scale(0.1 -0.1)">
      <use xlink:href="#DejaVuSans-65"/>
      <use x="61.507812" xlink:href="#DejaVuSans-78"/>
      <use x="120.6875" xlink:href="#DejaVuSans-70"/>
      <use x="184.164062" xlink:href="#DejaVuSans-2d"/>
      <use x="220.248047" xlink:href="#DejaVuSans-53"/>
      <use x="283.724609" xlink:href="#DejaVuSans-6e"/>
     </g>
    </g>
    <g id="line2d_24"/>
    <g id="line2d_25">
     <g>
      <use style="fill:#808000;stroke:#808000;stroke-linejoin:bevel;" x="81.21" xlink:href="#m8b00425645" y="41.096563"/>
     </g>
    </g>
    <g id="text_19">
     <!-- exp-Ag -->
     <defs>
      <path d="M 34.1875 63.1875  L 20.796875 26.90625  L 47.609375 26.90625  z M 28.609375 72.90625  L 39.796875 72.90625  L 67.578125 0  L 57.328125 0  L 50.6875 18.703125  L 17.828125 18.703125  L 11.1875 0  L 0.78125 0  z " id="DejaVuSans-41"/>
      <path d="M 45.40625 27.984375  Q 45.40625 37.75 41.375 43.109375  Q 37.359375 48.484375 30.078125 48.484375  Q 22.859375 48.484375 18.828125 43.109375  Q 14.796875 37.75 14.796875 27.984375  Q 14.796875 18.265625 18.828125 12.890625  Q 22.859375 7.515625 30.078125 7.515625  Q 37.359375 7.515625 41.375 12.890625  Q 45.40625 18.265625 45.40625 27.984375  z M 54.390625 6.78125  Q 54.390625 -7.171875 48.1875 -13.984375  Q 42 -20.796875 29.203125 -20.796875  Q 24.46875 -20.796875 20.265625 -20.09375  Q 16.0625 -19.390625 12.109375 -17.921875  L 12.109375 -9.1875  Q 16.0625 -11.328125 19.921875 -12.34375  Q 23.78125 -13.375 27.78125 -13.375  Q 36.625 -13.375 41.015625 -8.765625  Q 45.40625 -4.15625 45.40625 5.171875  L 45.40625 9.625  Q 42.625 4.78125 38.28125 2.390625  Q 33.9375 0 27.875 0  Q 17.828125 0 11.671875 7.65625  Q 5.515625 15.328125 5.515625 27.984375  Q 5.515625 40.671875 11.671875 48.328125  Q 17.828125 56 27.875 56  Q 33.9375 56 38.28125 53.609375  Q 42.625 51.21875 45.40625 46.390625  L 45.40625 54.6875  L 54.390625 54.6875  z " id="DejaVuSans-67"/>
     </defs>
     <g transform="translate(99.21 44.596563)scale(0.1 -0.1)">
      <use xlink:href="#DejaVuSans-65"/>
      <use x="61.507812" xlink:href="#DejaVuSans-78"/>
      <use x="120.6875" xlink:href="#DejaVuSans-70"/>
      <use x="184.164062" xlink:href="#DejaVuSans-2d"/>
      <use x="220.216797" xlink:href="#DejaVuSans-41"/>
      <use x="288.625" xlink:href="#DejaVuSans-67"/>
     </g>
    </g>
    <g id="line2d_26"/>
    <g id="line2d_27">
     <g>
      <use style="fill:#008080;stroke:#008080;" x="81.21" xlink:href="#m9380f0c0e0" y="55.774687"/>
     </g>
    </g>
    <g id="text_20">
     <!-- exp-Cu -->
     <defs>
      <path d="M 64.40625 67.28125  L 64.40625 56.890625  Q 59.421875 61.53125 53.78125 63.8125  Q 48.140625 66.109375 41.796875 66.109375  Q 29.296875 66.109375 22.65625 58.46875  Q 16.015625 50.828125 16.015625 36.375  Q 16.015625 21.96875 22.65625 14.328125  Q 29.296875 6.6875 41.796875 6.6875  Q 48.140625 6.6875 53.78125 8.984375  Q 59.421875 11.28125 64.40625 15.921875  L 64.40625 5.609375  Q 59.234375 2.09375 53.4375 0.328125  Q 47.65625 -1.421875 41.21875 -1.421875  Q 24.65625 -1.421875 15.125 8.703125  Q 5.609375 18.84375 5.609375 36.375  Q 5.609375 53.953125 15.125 64.078125  Q 24.65625 74.21875 41.21875 74.21875  Q 47.75 74.21875 53.53125 72.484375  Q 59.328125 70.75 64.40625 67.28125  z " id="DejaVuSans-43"/>
      <path d="M 8.5 21.578125  L 8.5 54.6875  L 17.484375 54.6875  L 17.484375 21.921875  Q 17.484375 14.15625 20.5 10.265625  Q 23.53125 6.390625 29.59375 6.390625  Q 36.859375 6.390625 41.078125 11.03125  Q 45.3125 15.671875 45.3125 23.6875  L 45.3125 54.6875  L 54.296875 54.6875  L 54.296875 0  L 45.3125 0  L 45.3125 8.40625  Q 42.046875 3.421875 37.71875 1  Q 33.40625 -1.421875 27.6875 -1.421875  Q 18.265625 -1.421875 13.375 4.4375  Q 8.5 10.296875 8.5 21.578125  z M 31.109375 56  z " id="DejaVuSans-75"/>
     </defs>
     <g transform="translate(99.21 59.274687)scale(0.1 -0.1)">
      <use xlink:href="#DejaVuSans-65"/>
      <use x="61.507812" xlink:href="#DejaVuSans-78"/>
      <use x="120.6875" xlink:href="#DejaVuSans-70"/>
      <use x="184.164062" xlink:href="#DejaVuSans-2d"/>
      <use x="220.248047" xlink:href="#DejaVuSans-43"/>
      <use x="290.072266" xlink:href="#DejaVuSans-75"/>
     </g>
    </g>
    <g id="line2d_28">
     <path d="M 71.21 70.452812  L 91.21 70.452812  " style="fill:none;stroke:#e74c3c;stroke-linecap:square;stroke-width:2;"/>
    </g>
    <g id="line2d_29"/>
    <g id="text_21">
     <!-- sim-Sn -->
     <g transform="translate(99.21 73.952812)scale(0.1 -0.1)">
      <use xlink:href="#DejaVuSans-73"/>
      <use x="52.099609" xlink:href="#DejaVuSans-69"/>
      <use x="79.882812" xlink:href="#DejaVuSans-6d"/>
      <use x="177.294922" xlink:href="#DejaVuSans-2d"/>
      <use x="213.378906" xlink:href="#DejaVuSans-53"/>
      <use x="276.855469" xlink:href="#DejaVuSans-6e"/>
     </g>
    </g>
    <g id="line2d_30">
     <path d="M 71.21 85.130938  L 91.21 85.130938  " style="fill:none;stroke:#808000;stroke-linecap:square;stroke-width:2;"/>
    </g>
    <g id="line2d_31"/>
    <g id="text_22">
     <!-- sim-Ag -->
     <g transform="translate(99.21 88.630938)scale(0.1 -0.1)">
      <use xlink:href="#DejaVuSans-73"/>
      <use x="52.099609" xlink:href="#DejaVuSans-69"/>
      <use x="79.882812" xlink:href="#DejaVuSans-6d"/>
      <use x="177.294922" xlink:href="#DejaVuSans-2d"/>
      <use x="213.347656" xlink:href="#DejaVuSans-41"/>
      <use x="281.755859" xlink:href="#DejaVuSans-67"/>
     </g>
    </g>
    <g id="line2d_32">
     <path d="M 71.21 99.809062  L 91.21 99.809062  " style="fill:none;stroke:#008080;stroke-linecap:square;stroke-width:2;"/>
    </g>
    <g id="line2d_33"/>
    <g id="text_23">
     <!-- sim-Cu -->
     <g transform="translate(99.21 103.309062)scale(0.1 -0.1)">
      <use xlink:href="#DejaVuSans-73"/>
      <use x="52.099609" xlink:href="#DejaVuSans-69"/>
      <use x="79.882812" xlink:href="#DejaVuSans-6d"/>
      <use x="177.294922" xlink:href="#DejaVuSans-2d"/>
      <use x="213.378906" xlink:href="#DejaVuSans-43"/>
      <use x="283.203125" xlink:href="#DejaVuSans-75"/>
     </g>
    </g>
   </g>
  </g>
 </g>
 <defs>
  <clipPath id="p3ab8caf54b">
   <rect height="287.44" width="385.27" x="62.21" y="13.32"/>
  </clipPath>
 </defs>
</g>
    <g transform="translate(10, 300) scale(1) ">
      <g transform="translate(0, 0) scale(3.0) "><defs id="defs831"/>
  <sodipodi:namedview xmlns:sodipodi="http://sodipodi.sourceforge.net/DTD/sodipodi-0.dtd" xmlns:inkscape="http://www.inkscape.org/namespaces/inkscape" id="base" pagecolor="#ffffff" bordercolor="#666666" borderopacity="1.0" inkscape:pageopacity="0.0" inkscape:pageshadow="2" inkscape:zoom="1.979899" inkscape:cx="-12.763683" inkscape:cy="-16.680883" inkscape:document-units="mm" inkscape:current-layer="layer1" showgrid="false" inkscape:window-width="1920" inkscape:window-height="1001" inkscape:window-x="-9" inkscape:window-y="-9" inkscape:window-maximized="1" units="pt"/>
  <metadata xmlns:rdf="http://www.w3.org/1999/02/22-rdf-syntax-ns#" xmlns:cc="http://creativecommons.org/ns#" xmlns:dc="http://purl.org/dc/elements/1.1/" id="metadata834">
    <rdf:RDF>
      <cc:Work rdf:about="">
        <dc:format>image/svg+xml</dc:format>
        <dc:type rdf:resource="http://purl.org/dc/dcmitype/StillImage"/>
        <dc:title/>
      </cc:Work>
    </rdf:RDF>
  </metadata>
  <g xmlns:inkscape="http://www.inkscape.org/namespaces/inkscape" xmlns:sodipodi="http://sodipodi.sourceforge.net/DTD/sodipodi-0.dtd" inkscape:label="Layer 1" inkscape:groupmode="layer" id="layer1" transform="translate(0,-288.81557)">
    <g id="g4761" transform="matrix(0.07377843,0,0,0.07377843,-0.76923022,275.45946)">
      <path inkscape:connector-curvature="0" id="path1959-6-7-1-6-5-4-0-3-2-6-0-3-9-6" style="font-style:normal;font-variant:normal;font-weight:bold;font-stretch:normal;font-size:120.99466705px;line-height:1.25;font-family:Aharoni;-inkscape-font-specification:'Aharoni, Bold';font-variant-ligatures:normal;font-variant-caps:normal;font-variant-numeric:normal;font-feature-settings:normal;text-align:start;letter-spacing:0px;word-spacing:0px;writing-mode:lr-tb;text-anchor:start;fill:#000000;fill-opacity:1;stroke:none;stroke-width:2.37649584" d="M 52.937412,287.55677 H 40.587702 V 265.43005 H 22.776041 v 22.12672 h -12.34982 v -53.17432 h 12.34982 v 20.5296 h 17.811661 v -20.5296 h 12.34971 z"/>
      <path inkscape:connector-curvature="0" id="path1961-2-9-7-9-3-1-6-5-1-5-8-7-8-2" style="font-style:normal;font-variant:normal;font-weight:bold;font-stretch:normal;font-size:120.99466705px;line-height:1.25;font-family:Aharoni;-inkscape-font-specification:'Aharoni, Bold';font-variant-ligatures:normal;font-variant-caps:normal;font-variant-numeric:normal;font-feature-settings:normal;text-align:start;letter-spacing:0px;word-spacing:0px;writing-mode:lr-tb;text-anchor:start;fill:#000000;fill-opacity:1;stroke:none;stroke-width:2.37649584" d="m 69.681125,237.49895 q 0,3.0385 -1.87856,5.1421 -1.84375,2.0647 -4.55721,2.0647 -2.67866,0 -4.55722,-2.1036 -1.84375,-2.1036 -1.84375,-5.1032 0,-2.9996 1.84375,-5.0642 1.87856,-2.1036 4.55722,-2.1036 2.67865,0 4.55721,2.1036 1.87856,2.0646 1.87856,5.0642 z m -0.73057,50.05782 h -11.41048 v -36.15072 h 11.41048 z"/>
      <path inkscape:connector-curvature="0" id="path1963-3-1-2-8-3-6-3-3-3-4-7-6-0-8" style="font-style:normal;font-variant:normal;font-weight:bold;font-stretch:normal;font-size:120.99466705px;line-height:1.25;font-family:Aharoni;-inkscape-font-specification:'Aharoni, Bold';font-variant-ligatures:normal;font-variant-caps:normal;font-variant-numeric:normal;font-feature-settings:normal;text-align:start;letter-spacing:0px;word-spacing:0px;writing-mode:lr-tb;text-anchor:start;fill:#000000;fill-opacity:1;stroke:none;stroke-width:2.37649584" d="m 93.369625,261.92405 h -6.50536 v 25.63272 h -11.4104 v -25.63272 h -3.75712 v -10.518 h 3.75712 v -10.8686 h 11.4104 v 10.8686 h 6.50536 z"/>
      <path id="path1967-3-3-6-2-9-6-2-5-3-0-9-8-2-1" style="font-style:normal;font-variant:normal;font-weight:bold;font-stretch:normal;font-size:120.99466705px;line-height:1.25;font-family:Aharoni;-inkscape-font-specification:'Aharoni, Bold';font-variant-ligatures:normal;font-variant-caps:normal;font-variant-numeric:normal;font-feature-settings:normal;text-align:start;letter-spacing:0px;word-spacing:0px;writing-mode:lr-tb;text-anchor:start;fill:#000000;fill-opacity:1;stroke:none;stroke-width:2.37649584" d="m 160.61447,287.55677 h -12.34971 v -53.17432 h 12.34971 z" inkscape:connector-curvature="0"/>
      <path inkscape:connector-curvature="0" id="path1969-8-0-8-5-3-5-6-6-3-9-8-6-2-0" style="font-style:normal;font-variant:normal;font-weight:bold;font-stretch:normal;font-size:120.99466705px;line-height:1.25;font-family:Aharoni;-inkscape-font-specification:'Aharoni, Bold';font-variant-ligatures:normal;font-variant-caps:normal;font-variant-numeric:normal;font-feature-settings:normal;text-align:start;letter-spacing:0px;word-spacing:0px;writing-mode:lr-tb;text-anchor:start;fill:#000000;fill-opacity:1;stroke:none;stroke-width:2.37649584" d="m 201.6896,284.86883 q -6.05314,2.68794 -11.20172,2.68794 -8.97528,0 -16.07201,-6.42764 -9.04489,-8.21959 -9.04489,-21.42558 0,-13.2448 9.04489,-21.4644 7.09673,-6.4277 16.17636,-6.4277 4.93989,0 11.09737,2.6879 v 16.5561 q -1.73941,-2.3763 -3.54836,-3.5839 -3.30489,-2.2204 -7.09679,-2.2204 -4.8007,0 -8.34907,3.2333 -4.48766,4.0903 -4.48766,11.2191 0,7.0899 4.48766,11.1803 3.54837,3.23328 8.34907,3.23328 3.7919,0 7.09679,-2.22049 1.77415,-1.16869 3.54836,-3.58389 z"/>
      <path inkscape:transform-center-y="-13.656107" inkscape:transform-center-x="-3.9758045" sodipodi:nodetypes="csssssc" inkscape:connector-curvature="0" id="rect815-3-0-9-3-5-6-0-4-03-7-3-7-5-3-2-76-3-8-8-5-3-7-8-0-1-3-7-9-2-8-1" d="m 104.61223,181.4353 c 0,0 17.68257,27.27493 22.63096,34.41579 7.92879,11.44185 16.42741,30.36094 17.92806,45.50275 1.21005,12.20999 -1.38345,26.51285 -17.32077,30.11208 -11.70405,2.64313 -26.75007,-5.41371 -30.334975,-20.50903 -3.30533,-13.91816 -2.13088,-34.61412 0.0984,-48.67354 1.22049,-7.69719 5.657305,-36.06774 6.998335,-40.84805 z" style="font-style:normal;font-weight:normal;font-size:242.08590698px;line-height:1.25;font-family:sans-serif;letter-spacing:0px;word-spacing:0px;opacity:1;fill:#00456b;fill-opacity:1;stroke:none;stroke-width:0.6720385;stroke-miterlimit:4;stroke-dasharray:none;stroke-dashoffset:0;stroke-opacity:1;paint-order:markers fill stroke"/>
      <path sodipodi:nodetypes="ccscscsccscccscc" d="m 107.52748,246.32531 6.45576,30.78617 6.82019,-1.47997 c 5.75791,-1.24946 9.70999,-3.40081 11.85576,-6.45394 2.16431,-3.05721 2.68673,-7.25521 1.56721,-12.59398 -1.11209,-5.30332 -3.26743,-8.89247 -6.46601,-10.76744 -3.18372,-1.89669 -7.65528,-2.22015 -13.4127,-0.97081 z m -8.759905,-5.09591 12.713095,-2.78742 c 8.8634,-1.94336 15.73718,-1.59097 20.62135,1.05715 4.88003,2.62843 8.10326,7.71587 9.6697,15.26232 1.57464,7.58584 0.64804,13.61405 -2.77981,18.08462 -3.42783,4.4705 -9.55303,7.67294 -18.37559,9.60735 l -12.71311,2.78742 z" style="font-style:normal;font-weight:normal;font-size:242.08590698px;line-height:1.25;font-family:sans-serif;letter-spacing:0px;word-spacing:0px;fill:#ffffff;fill-opacity:1;stroke:none;stroke-width:1.60286868" id="path1193-3-5-3-2-7-4-5-6-0-0-6-9-2-4-7-0-0" inkscape:connector-curvature="0"/>
    </g>
  </g>
</g>
    </g>
  </g>
</svg>
