<?xml version='1.0' encoding='ASCII' standalone='yes'?>
<svg xmlns:xlink="http://www.w3.org/1999/xlink" xmlns="http://www.w3.org/2000/svg" version="1.1" width="460.8px" viewBox="0 0 460.8px 345.6px" height="345.6px">
  <g>
    <g><defs>
  <style type="text/css">
*{stroke-linecap:butt;stroke-linejoin:round;}
  </style>
 </defs>
 <g id="figure_1">
  <g id="patch_1">
   <path d="M 0 345.6  L 460.8 345.6  L 460.8 0  L 0 0  z " style="fill:#ffffff;"/>
  </g>
  <g id="axes_1">
   <g id="patch_2">
    <path d="M 69.572 300.76  L 447.48 300.76  L 447.48 13.32  L 69.572 13.32  z " style="fill:#ffffff;"/>
   </g>
   <g id="matplotlib.axis_1">
    <g id="xtick_1">
     <g id="line2d_1">
      <defs>
       <path d="M 0 0  L 0 3.5  " id="m80a983d63b" style="stroke:#000000;stroke-width:0.8;"/>
      </defs>
      <g>
       <use style="stroke:#000000;stroke-width:0.8;" x="69.572" xlink:href="#m80a983d63b" y="300.76"/>
      </g>
     </g>
     <g id="text_1">
      <!-- 0 -->
      <defs>
       <path d="M 31.78125 66.40625  Q 24.171875 66.40625 20.328125 58.90625  Q 16.5 51.421875 16.5 36.375  Q 16.5 21.390625 20.328125 13.890625  Q 24.171875 6.390625 31.78125 6.390625  Q 39.453125 6.390625 43.28125 13.890625  Q 47.125 21.390625 47.125 36.375  Q 47.125 51.421875 43.28125 58.90625  Q 39.453125 66.40625 31.78125 66.40625  z M 31.78125 74.21875  Q 44.046875 74.21875 50.515625 64.515625  Q 56.984375 54.828125 56.984375 36.375  Q 56.984375 17.96875 50.515625 8.265625  Q 44.046875 -1.421875 31.78125 -1.421875  Q 19.53125 -1.421875 13.0625 8.265625  Q 6.59375 17.96875 6.59375 36.375  Q 6.59375 54.828125 13.0625 64.515625  Q 19.53125 74.21875 31.78125 74.21875  z " id="DejaVuSans-30"/>
      </defs>
      <g transform="translate(66.39075 315.358437)scale(0.1 -0.1)">
       <use xlink:href="#DejaVuSans-30"/>
      </g>
     </g>
    </g>
    <g id="xtick_2">
     <g id="line2d_2">
      <g>
       <use style="stroke:#000000;stroke-width:0.8;" x="114.064008" xlink:href="#m80a983d63b" y="300.76"/>
      </g>
     </g>
     <g id="text_2">
      <!-- 200 -->
      <defs>
       <path d="M 19.1875 8.296875  L 53.609375 8.296875  L 53.609375 0  L 7.328125 0  L 7.328125 8.296875  Q 12.9375 14.109375 22.625 23.890625  Q 32.328125 33.6875 34.8125 36.53125  Q 39.546875 41.84375 41.421875 45.53125  Q 43.3125 49.21875 43.3125 52.78125  Q 43.3125 58.59375 39.234375 62.25  Q 35.15625 65.921875 28.609375 65.921875  Q 23.96875 65.921875 18.8125 64.3125  Q 13.671875 62.703125 7.8125 59.421875  L 7.8125 69.390625  Q 13.765625 71.78125 18.9375 73  Q 24.125 74.21875 28.421875 74.21875  Q 39.75 74.21875 46.484375 68.546875  Q 53.21875 62.890625 53.21875 53.421875  Q 53.21875 48.921875 51.53125 44.890625  Q 49.859375 40.875 45.40625 35.40625  Q 44.1875 33.984375 37.640625 27.21875  Q 31.109375 20.453125 19.1875 8.296875  z " id="DejaVuSans-32"/>
      </defs>
      <g transform="translate(104.520258 315.358437)scale(0.1 -0.1)">
       <use xlink:href="#DejaVuSans-32"/>
       <use x="63.623047" xlink:href="#DejaVuSans-30"/>
       <use x="127.246094" xlink:href="#DejaVuSans-30"/>
      </g>
     </g>
    </g>
    <g id="xtick_3">
     <g id="line2d_3">
      <g>
       <use style="stroke:#000000;stroke-width:0.8;" x="158.556017" xlink:href="#m80a983d63b" y="300.76"/>
      </g>
     </g>
     <g id="text_3">
      <!-- 400 -->
      <defs>
       <path d="M 37.796875 64.3125  L 12.890625 25.390625  L 37.796875 25.390625  z M 35.203125 72.90625  L 47.609375 72.90625  L 47.609375 25.390625  L 58.015625 25.390625  L 58.015625 17.1875  L 47.609375 17.1875  L 47.609375 0  L 37.796875 0  L 37.796875 17.1875  L 4.890625 17.1875  L 4.890625 26.703125  z " id="DejaVuSans-34"/>
      </defs>
      <g transform="translate(149.012267 315.358437)scale(0.1 -0.1)">
       <use xlink:href="#DejaVuSans-34"/>
       <use x="63.623047" xlink:href="#DejaVuSans-30"/>
       <use x="127.246094" xlink:href="#DejaVuSans-30"/>
      </g>
     </g>
    </g>
    <g id="xtick_4">
     <g id="line2d_4">
      <g>
       <use style="stroke:#000000;stroke-width:0.8;" x="203.048025" xlink:href="#m80a983d63b" y="300.76"/>
      </g>
     </g>
     <g id="text_4">
      <!-- 600 -->
      <defs>
       <path d="M 33.015625 40.375  Q 26.375 40.375 22.484375 35.828125  Q 18.609375 31.296875 18.609375 23.390625  Q 18.609375 15.53125 22.484375 10.953125  Q 26.375 6.390625 33.015625 6.390625  Q 39.65625 6.390625 43.53125 10.953125  Q 47.40625 15.53125 47.40625 23.390625  Q 47.40625 31.296875 43.53125 35.828125  Q 39.65625 40.375 33.015625 40.375  z M 52.59375 71.296875  L 52.59375 62.3125  Q 48.875 64.0625 45.09375 64.984375  Q 41.3125 65.921875 37.59375 65.921875  Q 27.828125 65.921875 22.671875 59.328125  Q 17.53125 52.734375 16.796875 39.40625  Q 19.671875 43.65625 24.015625 45.921875  Q 28.375 48.1875 33.59375 48.1875  Q 44.578125 48.1875 50.953125 41.515625  Q 57.328125 34.859375 57.328125 23.390625  Q 57.328125 12.15625 50.6875 5.359375  Q 44.046875 -1.421875 33.015625 -1.421875  Q 20.359375 -1.421875 13.671875 8.265625  Q 6.984375 17.96875 6.984375 36.375  Q 6.984375 53.65625 15.1875 63.9375  Q 23.390625 74.21875 37.203125 74.21875  Q 40.921875 74.21875 44.703125 73.484375  Q 48.484375 72.75 52.59375 71.296875  z " id="DejaVuSans-36"/>
      </defs>
      <g transform="translate(193.504275 315.358437)scale(0.1 -0.1)">
       <use xlink:href="#DejaVuSans-36"/>
       <use x="63.623047" xlink:href="#DejaVuSans-30"/>
       <use x="127.246094" xlink:href="#DejaVuSans-30"/>
      </g>
     </g>
    </g>
    <g id="xtick_5">
     <g id="line2d_5">
      <g>
       <use style="stroke:#000000;stroke-width:0.8;" x="247.540033" xlink:href="#m80a983d63b" y="300.76"/>
      </g>
     </g>
     <g id="text_5">
      <!-- 800 -->
      <defs>
       <path d="M 31.78125 34.625  Q 24.75 34.625 20.71875 30.859375  Q 16.703125 27.09375 16.703125 20.515625  Q 16.703125 13.921875 20.71875 10.15625  Q 24.75 6.390625 31.78125 6.390625  Q 38.8125 6.390625 42.859375 10.171875  Q 46.921875 13.96875 46.921875 20.515625  Q 46.921875 27.09375 42.890625 30.859375  Q 38.875 34.625 31.78125 34.625  z M 21.921875 38.8125  Q 15.578125 40.375 12.03125 44.71875  Q 8.5 49.078125 8.5 55.328125  Q 8.5 64.0625 14.71875 69.140625  Q 20.953125 74.21875 31.78125 74.21875  Q 42.671875 74.21875 48.875 69.140625  Q 55.078125 64.0625 55.078125 55.328125  Q 55.078125 49.078125 51.53125 44.71875  Q 48 40.375 41.703125 38.8125  Q 48.828125 37.15625 52.796875 32.3125  Q 56.78125 27.484375 56.78125 20.515625  Q 56.78125 9.90625 50.3125 4.234375  Q 43.84375 -1.421875 31.78125 -1.421875  Q 19.734375 -1.421875 13.25 4.234375  Q 6.78125 9.90625 6.78125 20.515625  Q 6.78125 27.484375 10.78125 32.3125  Q 14.796875 37.15625 21.921875 38.8125  z M 18.3125 54.390625  Q 18.3125 48.734375 21.84375 45.5625  Q 25.390625 42.390625 31.78125 42.390625  Q 38.140625 42.390625 41.71875 45.5625  Q 45.3125 48.734375 45.3125 54.390625  Q 45.3125 60.0625 41.71875 63.234375  Q 38.140625 66.40625 31.78125 66.40625  Q 25.390625 66.40625 21.84375 63.234375  Q 18.3125 60.0625 18.3125 54.390625  z " id="DejaVuSans-38"/>
      </defs>
      <g transform="translate(237.996283 315.358437)scale(0.1 -0.1)">
       <use xlink:href="#DejaVuSans-38"/>
       <use x="63.623047" xlink:href="#DejaVuSans-30"/>
       <use x="127.246094" xlink:href="#DejaVuSans-30"/>
      </g>
     </g>
    </g>
    <g id="xtick_6">
     <g id="line2d_6">
      <g>
       <use style="stroke:#000000;stroke-width:0.8;" x="292.032042" xlink:href="#m80a983d63b" y="300.76"/>
      </g>
     </g>
     <g id="text_6">
      <!-- 1000 -->
      <defs>
       <path d="M 12.40625 8.296875  L 28.515625 8.296875  L 28.515625 63.921875  L 10.984375 60.40625  L 10.984375 69.390625  L 28.421875 72.90625  L 38.28125 72.90625  L 38.28125 8.296875  L 54.390625 8.296875  L 54.390625 0  L 12.40625 0  z " id="DejaVuSans-31"/>
      </defs>
      <g transform="translate(279.307042 315.358437)scale(0.1 -0.1)">
       <use xlink:href="#DejaVuSans-31"/>
       <use x="63.623047" xlink:href="#DejaVuSans-30"/>
       <use x="127.246094" xlink:href="#DejaVuSans-30"/>
       <use x="190.869141" xlink:href="#DejaVuSans-30"/>
      </g>
     </g>
    </g>
    <g id="xtick_7">
     <g id="line2d_7">
      <g>
       <use style="stroke:#000000;stroke-width:0.8;" x="336.52405" xlink:href="#m80a983d63b" y="300.76"/>
      </g>
     </g>
     <g id="text_7">
      <!-- 1200 -->
      <g transform="translate(323.79905 315.358437)scale(0.1 -0.1)">
       <use xlink:href="#DejaVuSans-31"/>
       <use x="63.623047" xlink:href="#DejaVuSans-32"/>
       <use x="127.246094" xlink:href="#DejaVuSans-30"/>
       <use x="190.869141" xlink:href="#DejaVuSans-30"/>
      </g>
     </g>
    </g>
    <g id="xtick_8">
     <g id="line2d_8">
      <g>
       <use style="stroke:#000000;stroke-width:0.8;" x="381.016058" xlink:href="#m80a983d63b" y="300.76"/>
      </g>
     </g>
     <g id="text_8">
      <!-- 1400 -->
      <g transform="translate(368.291058 315.358437)scale(0.1 -0.1)">
       <use xlink:href="#DejaVuSans-31"/>
       <use x="63.623047" xlink:href="#DejaVuSans-34"/>
       <use x="127.246094" xlink:href="#DejaVuSans-30"/>
       <use x="190.869141" xlink:href="#DejaVuSans-30"/>
      </g>
     </g>
    </g>
    <g id="xtick_9">
     <g id="line2d_9">
      <g>
       <use style="stroke:#000000;stroke-width:0.8;" x="425.508067" xlink:href="#m80a983d63b" y="300.76"/>
      </g>
     </g>
     <g id="text_9">
      <!-- 1600 -->
      <g transform="translate(412.783067 315.358437)scale(0.1 -0.1)">
       <use xlink:href="#DejaVuSans-31"/>
       <use x="63.623047" xlink:href="#DejaVuSans-36"/>
       <use x="127.246094" xlink:href="#DejaVuSans-30"/>
       <use x="190.869141" xlink:href="#DejaVuSans-30"/>
      </g>
     </g>
    </g>
    <g id="text_10">
     <!-- Distance ($\mu$m) -->
     <defs>
      <path d="M 19.671875 64.796875  L 19.671875 8.109375  L 31.59375 8.109375  Q 46.6875 8.109375 53.6875 14.9375  Q 60.6875 21.78125 60.6875 36.53125  Q 60.6875 51.171875 53.6875 57.984375  Q 46.6875 64.796875 31.59375 64.796875  z M 9.8125 72.90625  L 30.078125 72.90625  Q 51.265625 72.90625 61.171875 64.09375  Q 71.09375 55.28125 71.09375 36.53125  Q 71.09375 17.671875 61.125 8.828125  Q 51.171875 0 30.078125 0  L 9.8125 0  z " id="DejaVuSans-44"/>
      <path d="M 9.421875 54.6875  L 18.40625 54.6875  L 18.40625 0  L 9.421875 0  z M 9.421875 75.984375  L 18.40625 75.984375  L 18.40625 64.59375  L 9.421875 64.59375  z " id="DejaVuSans-69"/>
      <path d="M 44.28125 53.078125  L 44.28125 44.578125  Q 40.484375 46.53125 36.375 47.5  Q 32.28125 48.484375 27.875 48.484375  Q 21.1875 48.484375 17.84375 46.4375  Q 14.5 44.390625 14.5 40.28125  Q 14.5 37.15625 16.890625 35.375  Q 19.28125 33.59375 26.515625 31.984375  L 29.59375 31.296875  Q 39.15625 29.25 43.1875 25.515625  Q 47.21875 21.78125 47.21875 15.09375  Q 47.21875 7.46875 41.1875 3.015625  Q 35.15625 -1.421875 24.609375 -1.421875  Q 20.21875 -1.421875 15.453125 -0.5625  Q 10.6875 0.296875 5.421875 2  L 5.421875 11.28125  Q 10.40625 8.6875 15.234375 7.390625  Q 20.0625 6.109375 24.8125 6.109375  Q 31.15625 6.109375 34.5625 8.28125  Q 37.984375 10.453125 37.984375 14.40625  Q 37.984375 18.0625 35.515625 20.015625  Q 33.0625 21.96875 24.703125 23.78125  L 21.578125 24.515625  Q 13.234375 26.265625 9.515625 29.90625  Q 5.8125 33.546875 5.8125 39.890625  Q 5.8125 47.609375 11.28125 51.796875  Q 16.75 56 26.8125 56  Q 31.78125 56 36.171875 55.265625  Q 40.578125 54.546875 44.28125 53.078125  z " id="DejaVuSans-73"/>
      <path d="M 18.3125 70.21875  L 18.3125 54.6875  L 36.8125 54.6875  L 36.8125 47.703125  L 18.3125 47.703125  L 18.3125 18.015625  Q 18.3125 11.328125 20.140625 9.421875  Q 21.96875 7.515625 27.59375 7.515625  L 36.8125 7.515625  L 36.8125 0  L 27.59375 0  Q 17.1875 0 13.234375 3.875  Q 9.28125 7.765625 9.28125 18.015625  L 9.28125 47.703125  L 2.6875 47.703125  L 2.6875 54.6875  L 9.28125 54.6875  L 9.28125 70.21875  z " id="DejaVuSans-74"/>
      <path d="M 34.28125 27.484375  Q 23.390625 27.484375 19.1875 25  Q 14.984375 22.515625 14.984375 16.5  Q 14.984375 11.71875 18.140625 8.90625  Q 21.296875 6.109375 26.703125 6.109375  Q 34.1875 6.109375 38.703125 11.40625  Q 43.21875 16.703125 43.21875 25.484375  L 43.21875 27.484375  z M 52.203125 31.203125  L 52.203125 0  L 43.21875 0  L 43.21875 8.296875  Q 40.140625 3.328125 35.546875 0.953125  Q 30.953125 -1.421875 24.3125 -1.421875  Q 15.921875 -1.421875 10.953125 3.296875  Q 6 8.015625 6 15.921875  Q 6 25.140625 12.171875 29.828125  Q 18.359375 34.515625 30.609375 34.515625  L 43.21875 34.515625  L 43.21875 35.40625  Q 43.21875 41.609375 39.140625 45  Q 35.0625 48.390625 27.6875 48.390625  Q 23 48.390625 18.546875 47.265625  Q 14.109375 46.140625 10.015625 43.890625  L 10.015625 52.203125  Q 14.9375 54.109375 19.578125 55.046875  Q 24.21875 56 28.609375 56  Q 40.484375 56 46.34375 49.84375  Q 52.203125 43.703125 52.203125 31.203125  z " id="DejaVuSans-61"/>
      <path d="M 54.890625 33.015625  L 54.890625 0  L 45.90625 0  L 45.90625 32.71875  Q 45.90625 40.484375 42.875 44.328125  Q 39.84375 48.1875 33.796875 48.1875  Q 26.515625 48.1875 22.3125 43.546875  Q 18.109375 38.921875 18.109375 30.90625  L 18.109375 0  L 9.078125 0  L 9.078125 54.6875  L 18.109375 54.6875  L 18.109375 46.1875  Q 21.34375 51.125 25.703125 53.5625  Q 30.078125 56 35.796875 56  Q 45.21875 56 50.046875 50.171875  Q 54.890625 44.34375 54.890625 33.015625  z " id="DejaVuSans-6e"/>
      <path d="M 48.78125 52.59375  L 48.78125 44.1875  Q 44.96875 46.296875 41.140625 47.34375  Q 37.3125 48.390625 33.40625 48.390625  Q 24.65625 48.390625 19.8125 42.84375  Q 14.984375 37.3125 14.984375 27.296875  Q 14.984375 17.28125 19.8125 11.734375  Q 24.65625 6.203125 33.40625 6.203125  Q 37.3125 6.203125 41.140625 7.25  Q 44.96875 8.296875 48.78125 10.40625  L 48.78125 2.09375  Q 45.015625 0.34375 40.984375 -0.53125  Q 36.96875 -1.421875 32.421875 -1.421875  Q 20.0625 -1.421875 12.78125 6.34375  Q 5.515625 14.109375 5.515625 27.296875  Q 5.515625 40.671875 12.859375 48.328125  Q 20.21875 56 33.015625 56  Q 37.15625 56 41.109375 55.140625  Q 45.0625 54.296875 48.78125 52.59375  z " id="DejaVuSans-63"/>
      <path d="M 56.203125 29.59375  L 56.203125 25.203125  L 14.890625 25.203125  Q 15.484375 15.921875 20.484375 11.0625  Q 25.484375 6.203125 34.421875 6.203125  Q 39.59375 6.203125 44.453125 7.46875  Q 49.3125 8.734375 54.109375 11.28125  L 54.109375 2.78125  Q 49.265625 0.734375 44.1875 -0.34375  Q 39.109375 -1.421875 33.890625 -1.421875  Q 20.796875 -1.421875 13.15625 6.1875  Q 5.515625 13.8125 5.515625 26.8125  Q 5.515625 40.234375 12.765625 48.109375  Q 20.015625 56 32.328125 56  Q 43.359375 56 49.78125 48.890625  Q 56.203125 41.796875 56.203125 29.59375  z M 47.21875 32.234375  Q 47.125 39.59375 43.09375 43.984375  Q 39.0625 48.390625 32.421875 48.390625  Q 24.90625 48.390625 20.390625 44.140625  Q 15.875 39.890625 15.1875 32.171875  z " id="DejaVuSans-65"/>
      <path id="DejaVuSans-20"/>
      <path d="M 31 75.875  Q 24.46875 64.65625 21.28125 53.65625  Q 18.109375 42.671875 18.109375 31.390625  Q 18.109375 20.125 21.3125 9.0625  Q 24.515625 -2 31 -13.1875  L 23.1875 -13.1875  Q 15.875 -1.703125 12.234375 9.375  Q 8.59375 20.453125 8.59375 31.390625  Q 8.59375 42.28125 12.203125 53.3125  Q 15.828125 64.359375 23.1875 75.875  z " id="DejaVuSans-28"/>
      <path d="M -1.3125 -20.796875  L 13.375 54.6875  L 22.40625 54.6875  L 15.765625 20.65625  Q 15.578125 19.625 15.421875 18.359375  Q 15.28125 17.09375 15.28125 15.828125  Q 15.28125 11.28125 18.140625 8.828125  Q 21 6.390625 26.3125 6.390625  Q 33.546875 6.390625 37.984375 10.484375  Q 42.4375 14.59375 44 22.796875  L 50.203125 54.6875  L 59.1875 54.6875  L 51.03125 12.640625  Q 50.828125 11.71875 50.75 11.03125  Q 50.6875 10.359375 50.6875 9.8125  Q 50.6875 8.296875 51.296875 7.59375  Q 51.90625 6.890625 53.21875 6.890625  Q 53.71875 6.890625 54.5625 7.125  Q 55.421875 7.375 56.984375 8.015625  L 55.609375 0.78125  Q 53.46875 -0.296875 51.515625 -0.859375  Q 49.5625 -1.421875 47.703125 -1.421875  Q 44.484375 -1.421875 42.65625 0.625  Q 40.828125 2.6875 40.828125 6.296875  Q 38.09375 2.390625 34.296875 0.484375  Q 30.515625 -1.421875 25.390625 -1.421875  Q 20.84375 -1.421875 17.453125 0.671875  Q 14.0625 2.78125 12.984375 6.203125  L 7.71875 -20.796875  z " id="DejaVuSans-Oblique-3bc"/>
      <path d="M 52 44.1875  Q 55.375 50.25 60.0625 53.125  Q 64.75 56 71.09375 56  Q 79.640625 56 84.28125 50.015625  Q 88.921875 44.046875 88.921875 33.015625  L 88.921875 0  L 79.890625 0  L 79.890625 32.71875  Q 79.890625 40.578125 77.09375 44.375  Q 74.3125 48.1875 68.609375 48.1875  Q 61.625 48.1875 57.5625 43.546875  Q 53.515625 38.921875 53.515625 30.90625  L 53.515625 0  L 44.484375 0  L 44.484375 32.71875  Q 44.484375 40.625 41.703125 44.40625  Q 38.921875 48.1875 33.109375 48.1875  Q 26.21875 48.1875 22.15625 43.53125  Q 18.109375 38.875 18.109375 30.90625  L 18.109375 0  L 9.078125 0  L 9.078125 54.6875  L 18.109375 54.6875  L 18.109375 46.1875  Q 21.1875 51.21875 25.484375 53.609375  Q 29.78125 56 35.6875 56  Q 41.65625 56 45.828125 52.96875  Q 50 49.953125 52 44.1875  z " id="DejaVuSans-6d"/>
      <path d="M 8.015625 75.875  L 15.828125 75.875  Q 23.140625 64.359375 26.78125 53.3125  Q 30.421875 42.28125 30.421875 31.390625  Q 30.421875 20.453125 26.78125 9.375  Q 23.140625 -1.703125 15.828125 -13.1875  L 8.015625 -13.1875  Q 14.5 -2 17.703125 9.0625  Q 20.90625 20.125 20.90625 31.390625  Q 20.90625 42.671875 17.703125 53.65625  Q 14.5 64.65625 8.015625 75.875  z " id="DejaVuSans-29"/>
     </defs>
     <g transform="translate(223.076 329.038125)scale(0.1 -0.1)">
      <use transform="translate(0 0.015625)" xlink:href="#DejaVuSans-44"/>
      <use transform="translate(77.001953 0.015625)" xlink:href="#DejaVuSans-69"/>
      <use transform="translate(104.785156 0.015625)" xlink:href="#DejaVuSans-73"/>
      <use transform="translate(156.884766 0.015625)" xlink:href="#DejaVuSans-74"/>
      <use transform="translate(196.09375 0.015625)" xlink:href="#DejaVuSans-61"/>
      <use transform="translate(257.373047 0.015625)" xlink:href="#DejaVuSans-6e"/>
      <use transform="translate(320.751953 0.015625)" xlink:href="#DejaVuSans-63"/>
      <use transform="translate(375.732422 0.015625)" xlink:href="#DejaVuSans-65"/>
      <use transform="translate(437.255859 0.015625)" xlink:href="#DejaVuSans-20"/>
      <use transform="translate(469.042969 0.015625)" xlink:href="#DejaVuSans-28"/>
      <use transform="translate(508.056641 0.015625)" xlink:href="#DejaVuSans-Oblique-3bc"/>
      <use transform="translate(571.679688 0.015625)" xlink:href="#DejaVuSans-6d"/>
      <use transform="translate(669.091797 0.015625)" xlink:href="#DejaVuSans-29"/>
     </g>
    </g>
   </g>
   <g id="matplotlib.axis_2">
    <g id="ytick_1">
     <g id="line2d_10">
      <defs>
       <path d="M 0 0  L -3.5 0  " id="me339780ce3" style="stroke:#000000;stroke-width:0.8;"/>
      </defs>
      <g>
       <use style="stroke:#000000;stroke-width:0.8;" x="69.572" xlink:href="#me339780ce3" y="289.782728"/>
      </g>
     </g>
     <g id="text_11">
      <!-- &#8722;1000 -->
      <defs>
       <path d="M 10.59375 35.5  L 73.1875 35.5  L 73.1875 27.203125  L 10.59375 27.203125  z " id="DejaVuSans-2212"/>
      </defs>
      <g transform="translate(28.742313 293.581946)scale(0.1 -0.1)">
       <use xlink:href="#DejaVuSans-2212"/>
       <use x="83.789062" xlink:href="#DejaVuSans-31"/>
       <use x="147.412109" xlink:href="#DejaVuSans-30"/>
       <use x="211.035156" xlink:href="#DejaVuSans-30"/>
       <use x="274.658203" xlink:href="#DejaVuSans-30"/>
      </g>
     </g>
    </g>
    <g id="ytick_2">
     <g id="line2d_11">
      <g>
       <use style="stroke:#000000;stroke-width:0.8;" x="69.572" xlink:href="#me339780ce3" y="230.271137"/>
      </g>
     </g>
     <g id="text_12">
      <!-- &#8722;500 -->
      <defs>
       <path d="M 10.796875 72.90625  L 49.515625 72.90625  L 49.515625 64.59375  L 19.828125 64.59375  L 19.828125 46.734375  Q 21.96875 47.46875 24.109375 47.828125  Q 26.265625 48.1875 28.421875 48.1875  Q 40.625 48.1875 47.75 41.5  Q 54.890625 34.8125 54.890625 23.390625  Q 54.890625 11.625 47.5625 5.09375  Q 40.234375 -1.421875 26.90625 -1.421875  Q 22.3125 -1.421875 17.546875 -0.640625  Q 12.796875 0.140625 7.71875 1.703125  L 7.71875 11.625  Q 12.109375 9.234375 16.796875 8.0625  Q 21.484375 6.890625 26.703125 6.890625  Q 35.15625 6.890625 40.078125 11.328125  Q 45.015625 15.765625 45.015625 23.390625  Q 45.015625 31 40.078125 35.4375  Q 35.15625 39.890625 26.703125 39.890625  Q 22.75 39.890625 18.8125 39.015625  Q 14.890625 38.140625 10.796875 36.28125  z " id="DejaVuSans-35"/>
      </defs>
      <g transform="translate(35.104813 234.070356)scale(0.1 -0.1)">
       <use xlink:href="#DejaVuSans-2212"/>
       <use x="83.789062" xlink:href="#DejaVuSans-35"/>
       <use x="147.412109" xlink:href="#DejaVuSans-30"/>
       <use x="211.035156" xlink:href="#DejaVuSans-30"/>
      </g>
     </g>
    </g>
    <g id="ytick_3">
     <g id="line2d_12">
      <g>
       <use style="stroke:#000000;stroke-width:0.8;" x="69.572" xlink:href="#me339780ce3" y="170.759547"/>
      </g>
     </g>
     <g id="text_13">
      <!-- 0 -->
      <g transform="translate(56.2095 174.558765)scale(0.1 -0.1)">
       <use xlink:href="#DejaVuSans-30"/>
      </g>
     </g>
    </g>
    <g id="ytick_4">
     <g id="line2d_13">
      <g>
       <use style="stroke:#000000;stroke-width:0.8;" x="69.572" xlink:href="#me339780ce3" y="111.247956"/>
      </g>
     </g>
     <g id="text_14">
      <!-- 500 -->
      <g transform="translate(43.4845 115.047175)scale(0.1 -0.1)">
       <use xlink:href="#DejaVuSans-35"/>
       <use x="63.623047" xlink:href="#DejaVuSans-30"/>
       <use x="127.246094" xlink:href="#DejaVuSans-30"/>
      </g>
     </g>
    </g>
    <g id="ytick_5">
     <g id="line2d_14">
      <g>
       <use style="stroke:#000000;stroke-width:0.8;" x="69.572" xlink:href="#me339780ce3" y="51.736366"/>
      </g>
     </g>
     <g id="text_15">
      <!-- 1000 -->
      <g transform="translate(37.122 55.535584)scale(0.1 -0.1)">
       <use xlink:href="#DejaVuSans-31"/>
       <use x="63.623047" xlink:href="#DejaVuSans-30"/>
       <use x="127.246094" xlink:href="#DejaVuSans-30"/>
       <use x="190.869141" xlink:href="#DejaVuSans-30"/>
      </g>
     </g>
    </g>
    <g id="text_16">
     <!-- Flux (at.-fr.m/s)$\times10^{-14}$ -->
     <defs>
      <path d="M 9.8125 72.90625  L 51.703125 72.90625  L 51.703125 64.59375  L 19.671875 64.59375  L 19.671875 43.109375  L 48.578125 43.109375  L 48.578125 34.8125  L 19.671875 34.8125  L 19.671875 0  L 9.8125 0  z " id="DejaVuSans-46"/>
      <path d="M 9.421875 75.984375  L 18.40625 75.984375  L 18.40625 0  L 9.421875 0  z " id="DejaVuSans-6c"/>
      <path d="M 8.5 21.578125  L 8.5 54.6875  L 17.484375 54.6875  L 17.484375 21.921875  Q 17.484375 14.15625 20.5 10.265625  Q 23.53125 6.390625 29.59375 6.390625  Q 36.859375 6.390625 41.078125 11.03125  Q 45.3125 15.671875 45.3125 23.6875  L 45.3125 54.6875  L 54.296875 54.6875  L 54.296875 0  L 45.3125 0  L 45.3125 8.40625  Q 42.046875 3.421875 37.71875 1  Q 33.40625 -1.421875 27.6875 -1.421875  Q 18.265625 -1.421875 13.375 4.4375  Q 8.5 10.296875 8.5 21.578125  z M 31.109375 56  z " id="DejaVuSans-75"/>
      <path d="M 54.890625 54.6875  L 35.109375 28.078125  L 55.90625 0  L 45.3125 0  L 29.390625 21.484375  L 13.484375 0  L 2.875 0  L 24.125 28.609375  L 4.6875 54.6875  L 15.28125 54.6875  L 29.78125 35.203125  L 44.28125 54.6875  z " id="DejaVuSans-78"/>
      <path d="M 10.6875 12.40625  L 21 12.40625  L 21 0  L 10.6875 0  z " id="DejaVuSans-2e"/>
      <path d="M 4.890625 31.390625  L 31.203125 31.390625  L 31.203125 23.390625  L 4.890625 23.390625  z " id="DejaVuSans-2d"/>
      <path d="M 37.109375 75.984375  L 37.109375 68.5  L 28.515625 68.5  Q 23.6875 68.5 21.796875 66.546875  Q 19.921875 64.59375 19.921875 59.515625  L 19.921875 54.6875  L 34.71875 54.6875  L 34.71875 47.703125  L 19.921875 47.703125  L 19.921875 0  L 10.890625 0  L 10.890625 47.703125  L 2.296875 47.703125  L 2.296875 54.6875  L 10.890625 54.6875  L 10.890625 58.5  Q 10.890625 67.625 15.140625 71.796875  Q 19.390625 75.984375 28.609375 75.984375  z " id="DejaVuSans-66"/>
      <path d="M 41.109375 46.296875  Q 39.59375 47.171875 37.8125 47.578125  Q 36.03125 48 33.890625 48  Q 26.265625 48 22.1875 43.046875  Q 18.109375 38.09375 18.109375 28.8125  L 18.109375 0  L 9.078125 0  L 9.078125 54.6875  L 18.109375 54.6875  L 18.109375 46.1875  Q 20.953125 51.171875 25.484375 53.578125  Q 30.03125 56 36.53125 56  Q 37.453125 56 38.578125 55.875  Q 39.703125 55.765625 41.0625 55.515625  z " id="DejaVuSans-72"/>
      <path d="M 25.390625 72.90625  L 33.6875 72.90625  L 8.296875 -9.28125  L 0 -9.28125  z " id="DejaVuSans-2f"/>
      <path d="M 70.125 53.71875  L 47.796875 31.296875  L 70.125 8.984375  L 64.3125 3.078125  L 41.890625 25.484375  L 19.484375 3.078125  L 13.71875 8.984375  L 35.984375 31.296875  L 13.71875 53.71875  L 19.484375 59.625  L 41.890625 37.203125  L 64.3125 59.625  z " id="DejaVuSans-d7"/>
     </defs>
     <g transform="translate(22.662625 214.04)rotate(-90)scale(0.1 -0.1)">
      <use transform="translate(0 0.684375)" xlink:href="#DejaVuSans-46"/>
      <use transform="translate(57.519531 0.684375)" xlink:href="#DejaVuSans-6c"/>
      <use transform="translate(85.302734 0.684375)" xlink:href="#DejaVuSans-75"/>
      <use transform="translate(148.681641 0.684375)" xlink:href="#DejaVuSans-78"/>
      <use transform="translate(207.861328 0.684375)" xlink:href="#DejaVuSans-20"/>
      <use transform="translate(239.648438 0.684375)" xlink:href="#DejaVuSans-28"/>
      <use transform="translate(278.662109 0.684375)" xlink:href="#DejaVuSans-61"/>
      <use transform="translate(339.941406 0.684375)" xlink:href="#DejaVuSans-74"/>
      <use transform="translate(379.150391 0.684375)" xlink:href="#DejaVuSans-2e"/>
      <use transform="translate(410.9375 0.684375)" xlink:href="#DejaVuSans-2d"/>
      <use transform="translate(447.021484 0.684375)" xlink:href="#DejaVuSans-66"/>
      <use transform="translate(482.226562 0.684375)" xlink:href="#DejaVuSans-72"/>
      <use transform="translate(523.339844 0.684375)" xlink:href="#DejaVuSans-2e"/>
      <use transform="translate(555.033203 0.684375)" xlink:href="#DejaVuSans-6d"/>
      <use transform="translate(652.445312 0.684375)" xlink:href="#DejaVuSans-2f"/>
      <use transform="translate(686.136719 0.684375)" xlink:href="#DejaVuSans-73"/>
      <use transform="translate(738.236328 0.684375)" xlink:href="#DejaVuSans-29"/>
      <use transform="translate(777.25 0.684375)" xlink:href="#DejaVuSans-d7"/>
      <use transform="translate(861.039062 0.684375)" xlink:href="#DejaVuSans-31"/>
      <use transform="translate(924.662109 0.684375)" xlink:href="#DejaVuSans-30"/>
      <use transform="translate(989.242188 38.965625)scale(0.7)" xlink:href="#DejaVuSans-2212"/>
      <use transform="translate(1047.894531 38.965625)scale(0.7)" xlink:href="#DejaVuSans-31"/>
      <use transform="translate(1092.430664 38.965625)scale(0.7)" xlink:href="#DejaVuSans-34"/>
     </g>
    </g>
   </g>
   <g id="line2d_15">
    <defs>
     <path d="M -0 3  L 3 -3  L -3 -3  z " id="mc796735d41" style="stroke:#e74c3c;stroke-linejoin:miter;"/>
    </defs>
    <g clip-path="url(#pb7063830d1)">
     <use style="fill:#e74c3c;stroke:#e74c3c;stroke-linejoin:miter;" x="69.572" xlink:href="#mc796735d41" y="184.065137"/>
     <use style="fill:#e74c3c;stroke:#e74c3c;stroke-linejoin:miter;" x="98.269345" xlink:href="#mc796735d41" y="184.065137"/>
     <use style="fill:#e74c3c;stroke:#e74c3c;stroke-linejoin:miter;" x="107.835127" xlink:href="#mc796735d41" y="178.244187"/>
     <use style="fill:#e74c3c;stroke:#e74c3c;stroke-linejoin:miter;" x="117.400909" xlink:href="#mc796735d41" y="174.037839"/>
     <use style="fill:#e74c3c;stroke:#e74c3c;stroke-linejoin:miter;" x="126.966691" xlink:href="#mc796735d41" y="180.844649"/>
     <use style="fill:#e74c3c;stroke:#e74c3c;stroke-linejoin:miter;" x="131.860812" xlink:href="#mc796735d41" y="187.634551"/>
     <use style="fill:#e74c3c;stroke:#e74c3c;stroke-linejoin:miter;" x="136.532473" xlink:href="#mc796735d41" y="181.162068"/>
     <use style="fill:#e74c3c;stroke:#e74c3c;stroke-linejoin:miter;" x="141.426593" xlink:href="#mc796735d41" y="191.34803"/>
     <use style="fill:#e74c3c;stroke:#e74c3c;stroke-linejoin:miter;" x="146.098254" xlink:href="#mc796735d41" y="189.819503"/>
     <use style="fill:#e74c3c;stroke:#e74c3c;stroke-linejoin:miter;" x="155.664036" xlink:href="#mc796735d41" y="200.704065"/>
     <use style="fill:#e74c3c;stroke:#e74c3c;stroke-linejoin:miter;" x="160.558157" xlink:href="#mc796735d41" y="208.022275"/>
     <use style="fill:#e74c3c;stroke:#e74c3c;stroke-linejoin:miter;" x="165.229818" xlink:href="#mc796735d41" y="211.525451"/>
     <use style="fill:#e74c3c;stroke:#e74c3c;stroke-linejoin:miter;" x="170.123939" xlink:href="#mc796735d41" y="222.797951"/>
     <use style="fill:#e74c3c;stroke:#e74c3c;stroke-linejoin:miter;" x="174.7956" xlink:href="#mc796735d41" y="227.298183"/>
     <use style="fill:#e74c3c;stroke:#e74c3c;stroke-linejoin:miter;" x="179.689721" xlink:href="#mc796735d41" y="240.145792"/>
     <use style="fill:#e74c3c;stroke:#e74c3c;stroke-linejoin:miter;" x="184.361381" xlink:href="#mc796735d41" y="254.870261"/>
     <use style="fill:#e74c3c;stroke:#e74c3c;stroke-linejoin:miter;" x="189.255502" xlink:href="#mc796735d41" y="265.578779"/>
     <use style="fill:#e74c3c;stroke:#e74c3c;stroke-linejoin:miter;" x="193.927163" xlink:href="#mc796735d41" y="271.450406"/>
     <use style="fill:#e74c3c;stroke:#e74c3c;stroke-linejoin:miter;" x="198.821284" xlink:href="#mc796735d41" y="281.972382"/>
     <use style="fill:#e74c3c;stroke:#e74c3c;stroke-linejoin:miter;" x="203.492945" xlink:href="#mc796735d41" y="287.655417"/>
     <use style="fill:#e74c3c;stroke:#e74c3c;stroke-linejoin:miter;" x="208.387066" xlink:href="#mc796735d41" y="285.716773"/>
     <use style="fill:#e74c3c;stroke:#e74c3c;stroke-linejoin:miter;" x="213.058727" xlink:href="#mc796735d41" y="287.009564"/>
     <use style="fill:#e74c3c;stroke:#e74c3c;stroke-linejoin:miter;" x="217.952848" xlink:href="#mc796735d41" y="285.778111"/>
     <use style="fill:#e74c3c;stroke:#e74c3c;stroke-linejoin:miter;" x="222.624509" xlink:href="#mc796735d41" y="281.966093"/>
     <use style="fill:#e74c3c;stroke:#e74c3c;stroke-linejoin:miter;" x="227.51863" xlink:href="#mc796735d41" y="278.698823"/>
     <use style="fill:#e74c3c;stroke:#e74c3c;stroke-linejoin:miter;" x="232.19029" xlink:href="#mc796735d41" y="275.380552"/>
     <use style="fill:#e74c3c;stroke:#e74c3c;stroke-linejoin:miter;" x="237.084411" xlink:href="#mc796735d41" y="266.05493"/>
     <use style="fill:#e74c3c;stroke:#e74c3c;stroke-linejoin:miter;" x="241.756072" xlink:href="#mc796735d41" y="250.574746"/>
     <use style="fill:#e74c3c;stroke:#e74c3c;stroke-linejoin:miter;" x="246.650193" xlink:href="#mc796735d41" y="256.440991"/>
     <use style="fill:#e74c3c;stroke:#e74c3c;stroke-linejoin:miter;" x="251.321854" xlink:href="#mc796735d41" y="210.056865"/>
     <use style="fill:#e74c3c;stroke:#e74c3c;stroke-linejoin:miter;" x="256.215975" xlink:href="#mc796735d41" y="239.898273"/>
     <use style="fill:#e74c3c;stroke:#e74c3c;stroke-linejoin:miter;" x="260.887636" xlink:href="#mc796735d41" y="219.483729"/>
     <use style="fill:#e74c3c;stroke:#e74c3c;stroke-linejoin:miter;" x="265.781757" xlink:href="#mc796735d41" y="235.217732"/>
     <use style="fill:#e74c3c;stroke:#e74c3c;stroke-linejoin:miter;" x="270.453418" xlink:href="#mc796735d41" y="208.553112"/>
     <use style="fill:#e74c3c;stroke:#e74c3c;stroke-linejoin:miter;" x="275.347539" xlink:href="#mc796735d41" y="212.045263"/>
     <use style="fill:#e74c3c;stroke:#e74c3c;stroke-linejoin:miter;" x="280.019199" xlink:href="#mc796735d41" y="177.693262"/>
     <use style="fill:#e74c3c;stroke:#e74c3c;stroke-linejoin:miter;" x="284.91332" xlink:href="#mc796735d41" y="215.749353"/>
     <use style="fill:#e74c3c;stroke:#e74c3c;stroke-linejoin:miter;" x="289.584981" xlink:href="#mc796735d41" y="191.119401"/>
     <use style="fill:#e74c3c;stroke:#e74c3c;stroke-linejoin:miter;" x="294.479102" xlink:href="#mc796735d41" y="165.877008"/>
     <use style="fill:#e74c3c;stroke:#e74c3c;stroke-linejoin:miter;" x="299.150763" xlink:href="#mc796735d41" y="185.747874"/>
     <use style="fill:#e74c3c;stroke:#e74c3c;stroke-linejoin:miter;" x="304.044884" xlink:href="#mc796735d41" y="155.393773"/>
     <use style="fill:#e74c3c;stroke:#e74c3c;stroke-linejoin:miter;" x="308.716545" xlink:href="#mc796735d41" y="143.897795"/>
     <use style="fill:#e74c3c;stroke:#e74c3c;stroke-linejoin:miter;" x="318.282327" xlink:href="#mc796735d41" y="189.613057"/>
     <use style="fill:#e74c3c;stroke:#e74c3c;stroke-linejoin:miter;" x="323.176447" xlink:href="#mc796735d41" y="155.869959"/>
     <use style="fill:#e74c3c;stroke:#e74c3c;stroke-linejoin:miter;" x="327.848108" xlink:href="#mc796735d41" y="195.283538"/>
     <use style="fill:#e74c3c;stroke:#e74c3c;stroke-linejoin:miter;" x="337.41389" xlink:href="#mc796735d41" y="146.479589"/>
     <use style="fill:#e74c3c;stroke:#e74c3c;stroke-linejoin:miter;" x="342.308011" xlink:href="#mc796735d41" y="148.794783"/>
     <use style="fill:#e74c3c;stroke:#e74c3c;stroke-linejoin:miter;" x="346.979672" xlink:href="#mc796735d41" y="170.230321"/>
     <use style="fill:#e74c3c;stroke:#e74c3c;stroke-linejoin:miter;" x="351.873793" xlink:href="#mc796735d41" y="144.387217"/>
     <use style="fill:#e74c3c;stroke:#e74c3c;stroke-linejoin:miter;" x="356.545454" xlink:href="#mc796735d41" y="113.859858"/>
     <use style="fill:#e74c3c;stroke:#e74c3c;stroke-linejoin:miter;" x="361.439575" xlink:href="#mc796735d41" y="162.273688"/>
     <use style="fill:#e74c3c;stroke:#e74c3c;stroke-linejoin:miter;" x="366.111235" xlink:href="#mc796735d41" y="186.4054"/>
     <use style="fill:#e74c3c;stroke:#e74c3c;stroke-linejoin:miter;" x="371.005356" xlink:href="#mc796735d41" y="100.44937"/>
     <use style="fill:#e74c3c;stroke:#e74c3c;stroke-linejoin:miter;" x="375.677017" xlink:href="#mc796735d41" y="180.192491"/>
     <use style="fill:#e74c3c;stroke:#e74c3c;stroke-linejoin:miter;" x="380.571138" xlink:href="#mc796735d41" y="113.60457"/>
     <use style="fill:#e74c3c;stroke:#e74c3c;stroke-linejoin:miter;" x="385.242799" xlink:href="#mc796735d41" y="144.307638"/>
     <use style="fill:#e74c3c;stroke:#e74c3c;stroke-linejoin:miter;" x="390.13692" xlink:href="#mc796735d41" y="159.291415"/>
     <use style="fill:#e74c3c;stroke:#e74c3c;stroke-linejoin:miter;" x="394.808581" xlink:href="#mc796735d41" y="176.149219"/>
     <use style="fill:#e74c3c;stroke:#e74c3c;stroke-linejoin:miter;" x="399.702702" xlink:href="#mc796735d41" y="216.64697"/>
     <use style="fill:#e74c3c;stroke:#e74c3c;stroke-linejoin:miter;" x="409.268484" xlink:href="#mc796735d41" y="143.643837"/>
     <use style="fill:#e74c3c;stroke:#e74c3c;stroke-linejoin:miter;" x="418.834265" xlink:href="#mc796735d41" y="161.475047"/>
     <use style="fill:#e74c3c;stroke:#e74c3c;stroke-linejoin:miter;" x="428.400047" xlink:href="#mc796735d41" y="128.736439"/>
     <use style="fill:#e74c3c;stroke:#e74c3c;stroke-linejoin:miter;" x="437.965829" xlink:href="#mc796735d41" y="148.52818"/>
     <use style="fill:#e74c3c;stroke:#e74c3c;stroke-linejoin:miter;" x="447.531611" xlink:href="#mc796735d41" y="148.52818"/>
    </g>
   </g>
   <g id="line2d_16">
    <defs>
     <path d="M 0 -3  L -0.673542 -0.927051  L -2.85317 -0.927051  L -1.089814 0.354102  L -1.763356 2.427051  L -0 1.145898  L 1.763356 2.427051  L 1.089814 0.354102  L 2.85317 -0.927051  L 0.673542 -0.927051  z " id="maecc68de81" style="stroke:#808000;stroke-linejoin:bevel;"/>
    </defs>
    <g clip-path="url(#pb7063830d1)">
     <use style="fill:#808000;stroke:#808000;stroke-linejoin:bevel;" x="69.572" xlink:href="#maecc68de81" y="167.137224"/>
     <use style="fill:#808000;stroke:#808000;stroke-linejoin:bevel;" x="98.269345" xlink:href="#maecc68de81" y="167.137224"/>
     <use style="fill:#808000;stroke:#808000;stroke-linejoin:bevel;" x="107.835127" xlink:href="#maecc68de81" y="166.077565"/>
     <use style="fill:#808000;stroke:#808000;stroke-linejoin:bevel;" x="117.400909" xlink:href="#maecc68de81" y="167.022616"/>
     <use style="fill:#808000;stroke:#808000;stroke-linejoin:bevel;" x="126.966691" xlink:href="#maecc68de81" y="162.710912"/>
     <use style="fill:#808000;stroke:#808000;stroke-linejoin:bevel;" x="131.860812" xlink:href="#maecc68de81" y="163.885337"/>
     <use style="fill:#808000;stroke:#808000;stroke-linejoin:bevel;" x="136.532473" xlink:href="#maecc68de81" y="163.728294"/>
     <use style="fill:#808000;stroke:#808000;stroke-linejoin:bevel;" x="141.426593" xlink:href="#maecc68de81" y="166.907027"/>
     <use style="fill:#808000;stroke:#808000;stroke-linejoin:bevel;" x="146.098254" xlink:href="#maecc68de81" y="164.308101"/>
     <use style="fill:#808000;stroke:#808000;stroke-linejoin:bevel;" x="155.664036" xlink:href="#maecc68de81" y="167.194354"/>
     <use style="fill:#808000;stroke:#808000;stroke-linejoin:bevel;" x="160.558157" xlink:href="#maecc68de81" y="167.683046"/>
     <use style="fill:#808000;stroke:#808000;stroke-linejoin:bevel;" x="165.229818" xlink:href="#maecc68de81" y="166.820086"/>
     <use style="fill:#808000;stroke:#808000;stroke-linejoin:bevel;" x="170.123939" xlink:href="#maecc68de81" y="169.815506"/>
     <use style="fill:#808000;stroke:#808000;stroke-linejoin:bevel;" x="174.7956" xlink:href="#maecc68de81" y="170.861281"/>
     <use style="fill:#808000;stroke:#808000;stroke-linejoin:bevel;" x="179.689721" xlink:href="#maecc68de81" y="172.318637"/>
     <use style="fill:#808000;stroke:#808000;stroke-linejoin:bevel;" x="184.361381" xlink:href="#maecc68de81" y="176.402359"/>
     <use style="fill:#808000;stroke:#808000;stroke-linejoin:bevel;" x="189.255502" xlink:href="#maecc68de81" y="178.060813"/>
     <use style="fill:#808000;stroke:#808000;stroke-linejoin:bevel;" x="193.927163" xlink:href="#maecc68de81" y="185.234187"/>
     <use style="fill:#808000;stroke:#808000;stroke-linejoin:bevel;" x="198.821284" xlink:href="#maecc68de81" y="187.00974"/>
     <use style="fill:#808000;stroke:#808000;stroke-linejoin:bevel;" x="203.492945" xlink:href="#maecc68de81" y="191.799608"/>
     <use style="fill:#808000;stroke:#808000;stroke-linejoin:bevel;" x="208.387066" xlink:href="#maecc68de81" y="196.517667"/>
     <use style="fill:#808000;stroke:#808000;stroke-linejoin:bevel;" x="213.058727" xlink:href="#maecc68de81" y="198.883622"/>
     <use style="fill:#808000;stroke:#808000;stroke-linejoin:bevel;" x="217.952848" xlink:href="#maecc68de81" y="198.585872"/>
     <use style="fill:#808000;stroke:#808000;stroke-linejoin:bevel;" x="222.624509" xlink:href="#maecc68de81" y="199.116424"/>
     <use style="fill:#808000;stroke:#808000;stroke-linejoin:bevel;" x="227.51863" xlink:href="#maecc68de81" y="198.927493"/>
     <use style="fill:#808000;stroke:#808000;stroke-linejoin:bevel;" x="232.19029" xlink:href="#maecc68de81" y="198.625929"/>
     <use style="fill:#808000;stroke:#808000;stroke-linejoin:bevel;" x="237.084411" xlink:href="#maecc68de81" y="196.756277"/>
     <use style="fill:#808000;stroke:#808000;stroke-linejoin:bevel;" x="241.756072" xlink:href="#maecc68de81" y="196.169768"/>
     <use style="fill:#808000;stroke:#808000;stroke-linejoin:bevel;" x="246.650193" xlink:href="#maecc68de81" y="197.291464"/>
     <use style="fill:#808000;stroke:#808000;stroke-linejoin:bevel;" x="251.321854" xlink:href="#maecc68de81" y="199.017195"/>
     <use style="fill:#808000;stroke:#808000;stroke-linejoin:bevel;" x="256.215975" xlink:href="#maecc68de81" y="191.944892"/>
     <use style="fill:#808000;stroke:#808000;stroke-linejoin:bevel;" x="260.887636" xlink:href="#maecc68de81" y="188.763065"/>
     <use style="fill:#808000;stroke:#808000;stroke-linejoin:bevel;" x="265.781757" xlink:href="#maecc68de81" y="187.689068"/>
     <use style="fill:#808000;stroke:#808000;stroke-linejoin:bevel;" x="270.453418" xlink:href="#maecc68de81" y="186.882671"/>
     <use style="fill:#808000;stroke:#808000;stroke-linejoin:bevel;" x="275.347539" xlink:href="#maecc68de81" y="186.288599"/>
     <use style="fill:#808000;stroke:#808000;stroke-linejoin:bevel;" x="280.019199" xlink:href="#maecc68de81" y="185.58016"/>
     <use style="fill:#808000;stroke:#808000;stroke-linejoin:bevel;" x="284.91332" xlink:href="#maecc68de81" y="190.248553"/>
     <use style="fill:#808000;stroke:#808000;stroke-linejoin:bevel;" x="289.584981" xlink:href="#maecc68de81" y="184.0235"/>
     <use style="fill:#808000;stroke:#808000;stroke-linejoin:bevel;" x="294.479102" xlink:href="#maecc68de81" y="177.267306"/>
     <use style="fill:#808000;stroke:#808000;stroke-linejoin:bevel;" x="299.150763" xlink:href="#maecc68de81" y="185.12815"/>
     <use style="fill:#808000;stroke:#808000;stroke-linejoin:bevel;" x="304.044884" xlink:href="#maecc68de81" y="180.811671"/>
     <use style="fill:#808000;stroke:#808000;stroke-linejoin:bevel;" x="308.716545" xlink:href="#maecc68de81" y="180.464867"/>
     <use style="fill:#808000;stroke:#808000;stroke-linejoin:bevel;" x="318.282327" xlink:href="#maecc68de81" y="183.60835"/>
     <use style="fill:#808000;stroke:#808000;stroke-linejoin:bevel;" x="323.176447" xlink:href="#maecc68de81" y="187.727598"/>
     <use style="fill:#808000;stroke:#808000;stroke-linejoin:bevel;" x="327.848108" xlink:href="#maecc68de81" y="200.858124"/>
     <use style="fill:#808000;stroke:#808000;stroke-linejoin:bevel;" x="337.41389" xlink:href="#maecc68de81" y="201.368017"/>
     <use style="fill:#808000;stroke:#808000;stroke-linejoin:bevel;" x="342.308011" xlink:href="#maecc68de81" y="168.690594"/>
     <use style="fill:#808000;stroke:#808000;stroke-linejoin:bevel;" x="346.979672" xlink:href="#maecc68de81" y="188.932205"/>
     <use style="fill:#808000;stroke:#808000;stroke-linejoin:bevel;" x="351.873793" xlink:href="#maecc68de81" y="180.705664"/>
     <use style="fill:#808000;stroke:#808000;stroke-linejoin:bevel;" x="356.545454" xlink:href="#maecc68de81" y="188.048663"/>
     <use style="fill:#808000;stroke:#808000;stroke-linejoin:bevel;" x="361.439575" xlink:href="#maecc68de81" y="188.91223"/>
     <use style="fill:#808000;stroke:#808000;stroke-linejoin:bevel;" x="366.111235" xlink:href="#maecc68de81" y="185.249145"/>
     <use style="fill:#808000;stroke:#808000;stroke-linejoin:bevel;" x="371.005356" xlink:href="#maecc68de81" y="177.048564"/>
     <use style="fill:#808000;stroke:#808000;stroke-linejoin:bevel;" x="375.677017" xlink:href="#maecc68de81" y="187.938085"/>
     <use style="fill:#808000;stroke:#808000;stroke-linejoin:bevel;" x="380.571138" xlink:href="#maecc68de81" y="194.82179"/>
     <use style="fill:#808000;stroke:#808000;stroke-linejoin:bevel;" x="385.242799" xlink:href="#maecc68de81" y="185.460143"/>
     <use style="fill:#808000;stroke:#808000;stroke-linejoin:bevel;" x="390.13692" xlink:href="#maecc68de81" y="191.47516"/>
     <use style="fill:#808000;stroke:#808000;stroke-linejoin:bevel;" x="394.808581" xlink:href="#maecc68de81" y="200.710798"/>
     <use style="fill:#808000;stroke:#808000;stroke-linejoin:bevel;" x="399.702702" xlink:href="#maecc68de81" y="211.264059"/>
     <use style="fill:#808000;stroke:#808000;stroke-linejoin:bevel;" x="409.268484" xlink:href="#maecc68de81" y="196.449059"/>
     <use style="fill:#808000;stroke:#808000;stroke-linejoin:bevel;" x="418.834265" xlink:href="#maecc68de81" y="197.600386"/>
     <use style="fill:#808000;stroke:#808000;stroke-linejoin:bevel;" x="428.400047" xlink:href="#maecc68de81" y="208.474516"/>
     <use style="fill:#808000;stroke:#808000;stroke-linejoin:bevel;" x="437.965829" xlink:href="#maecc68de81" y="196.479163"/>
     <use style="fill:#808000;stroke:#808000;stroke-linejoin:bevel;" x="447.531611" xlink:href="#maecc68de81" y="196.479163"/>
    </g>
   </g>
   <g id="line2d_17">
    <defs>
     <path d="M 0 3  C 0.795609 3 1.55874 2.683901 2.12132 2.12132  C 2.683901 1.55874 3 0.795609 3 0  C 3 -0.795609 2.683901 -1.55874 2.12132 -2.12132  C 1.55874 -2.683901 0.795609 -3 0 -3  C -0.795609 -3 -1.55874 -2.683901 -2.12132 -2.12132  C -2.683901 -1.55874 -3 -0.795609 -3 0  C -3 0.795609 -2.683901 1.55874 -2.12132 2.12132  C -1.55874 2.683901 -0.795609 3 0 3  z " id="m05a2291176" style="stroke:#008080;"/>
    </defs>
    <g clip-path="url(#pb7063830d1)">
     <use style="fill:#008080;stroke:#008080;" x="69.572" xlink:href="#m05a2291176" y="161.076279"/>
     <use style="fill:#008080;stroke:#008080;" x="98.269345" xlink:href="#m05a2291176" y="161.076279"/>
     <use style="fill:#008080;stroke:#008080;" x="107.835127" xlink:href="#m05a2291176" y="167.956888"/>
     <use style="fill:#008080;stroke:#008080;" x="117.400909" xlink:href="#m05a2291176" y="171.218185"/>
     <use style="fill:#008080;stroke:#008080;" x="126.966691" xlink:href="#m05a2291176" y="168.723079"/>
     <use style="fill:#008080;stroke:#008080;" x="131.860812" xlink:href="#m05a2291176" y="160.758752"/>
     <use style="fill:#008080;stroke:#008080;" x="136.532473" xlink:href="#m05a2291176" y="167.388278"/>
     <use style="fill:#008080;stroke:#008080;" x="141.426593" xlink:href="#m05a2291176" y="154.023583"/>
     <use style="fill:#008080;stroke:#008080;" x="146.098254" xlink:href="#m05a2291176" y="158.151036"/>
     <use style="fill:#008080;stroke:#008080;" x="155.664036" xlink:href="#m05a2291176" y="144.380221"/>
     <use style="fill:#008080;stroke:#008080;" x="160.558157" xlink:href="#m05a2291176" y="136.573319"/>
     <use style="fill:#008080;stroke:#008080;" x="165.229818" xlink:href="#m05a2291176" y="133.933103"/>
     <use style="fill:#008080;stroke:#008080;" x="170.123939" xlink:href="#m05a2291176" y="119.665183"/>
     <use style="fill:#008080;stroke:#008080;" x="174.7956" xlink:href="#m05a2291176" y="114.119177"/>
     <use style="fill:#008080;stroke:#008080;" x="179.689721" xlink:href="#m05a2291176" y="99.814212"/>
     <use style="fill:#008080;stroke:#008080;" x="184.361381" xlink:href="#m05a2291176" y="81.00602"/>
     <use style="fill:#008080;stroke:#008080;" x="189.255502" xlink:href="#m05a2291176" y="68.639049"/>
     <use style="fill:#008080;stroke:#008080;" x="193.927163" xlink:href="#m05a2291176" y="55.594047"/>
     <use style="fill:#008080;stroke:#008080;" x="198.821284" xlink:href="#m05a2291176" y="43.296518"/>
     <use style="fill:#008080;stroke:#008080;" x="203.492945" xlink:href="#m05a2291176" y="32.823615"/>
     <use style="fill:#008080;stroke:#008080;" x="208.387066" xlink:href="#m05a2291176" y="30.0442"/>
     <use style="fill:#008080;stroke:#008080;" x="213.058727" xlink:href="#m05a2291176" y="26.385455"/>
     <use style="fill:#008080;stroke:#008080;" x="217.952848" xlink:href="#m05a2291176" y="27.914657"/>
     <use style="fill:#008080;stroke:#008080;" x="222.624509" xlink:href="#m05a2291176" y="31.196123"/>
     <use style="fill:#008080;stroke:#008080;" x="227.51863" xlink:href="#m05a2291176" y="34.652324"/>
     <use style="fill:#008080;stroke:#008080;" x="232.19029" xlink:href="#m05a2291176" y="38.272158"/>
     <use style="fill:#008080;stroke:#008080;" x="237.084411" xlink:href="#m05a2291176" y="49.467433"/>
     <use style="fill:#008080;stroke:#008080;" x="241.756072" xlink:href="#m05a2291176" y="65.534126"/>
     <use style="fill:#008080;stroke:#008080;" x="246.650193" xlink:href="#m05a2291176" y="58.546186"/>
     <use style="fill:#008080;stroke:#008080;" x="251.321854" xlink:href="#m05a2291176" y="103.204581"/>
     <use style="fill:#008080;stroke:#008080;" x="256.215975" xlink:href="#m05a2291176" y="80.435475"/>
     <use style="fill:#008080;stroke:#008080;" x="260.887636" xlink:href="#m05a2291176" y="104.031846"/>
     <use style="fill:#008080;stroke:#008080;" x="265.781757" xlink:href="#m05a2291176" y="89.37184"/>
     <use style="fill:#008080;stroke:#008080;" x="270.453418" xlink:href="#m05a2291176" y="116.842858"/>
     <use style="fill:#008080;stroke:#008080;" x="275.347539" xlink:href="#m05a2291176" y="113.944778"/>
     <use style="fill:#008080;stroke:#008080;" x="280.019199" xlink:href="#m05a2291176" y="149.005218"/>
     <use style="fill:#008080;stroke:#008080;" x="284.91332" xlink:href="#m05a2291176" y="106.280734"/>
     <use style="fill:#008080;stroke:#008080;" x="289.584981" xlink:href="#m05a2291176" y="137.13574"/>
     <use style="fill:#008080;stroke:#008080;" x="294.479102" xlink:href="#m05a2291176" y="169.134326"/>
     <use style="fill:#008080;stroke:#008080;" x="299.150763" xlink:href="#m05a2291176" y="141.402616"/>
     <use style="fill:#008080;stroke:#008080;" x="304.044884" xlink:href="#m05a2291176" y="176.073196"/>
     <use style="fill:#008080;stroke:#008080;" x="308.716545" xlink:href="#m05a2291176" y="187.915978"/>
     <use style="fill:#008080;stroke:#008080;" x="318.282327" xlink:href="#m05a2291176" y="139.057233"/>
     <use style="fill:#008080;stroke:#008080;" x="323.176447" xlink:href="#m05a2291176" y="168.681083"/>
     <use style="fill:#008080;stroke:#008080;" x="327.848108" xlink:href="#m05a2291176" y="116.136978"/>
     <use style="fill:#008080;stroke:#008080;" x="337.41389" xlink:href="#m05a2291176" y="164.431034"/>
     <use style="fill:#008080;stroke:#008080;" x="342.308011" xlink:href="#m05a2291176" y="194.793263"/>
     <use style="fill:#008080;stroke:#008080;" x="346.979672" xlink:href="#m05a2291176" y="153.116115"/>
     <use style="fill:#008080;stroke:#008080;" x="351.873793" xlink:href="#m05a2291176" y="187.185759"/>
     <use style="fill:#008080;stroke:#008080;" x="356.545454" xlink:href="#m05a2291176" y="210.370119"/>
     <use style="fill:#008080;stroke:#008080;" x="361.439575" xlink:href="#m05a2291176" y="161.092723"/>
     <use style="fill:#008080;stroke:#008080;" x="366.111235" xlink:href="#m05a2291176" y="140.624095"/>
     <use style="fill:#008080;stroke:#008080;" x="371.005356" xlink:href="#m05a2291176" y="234.780706"/>
     <use style="fill:#008080;stroke:#008080;" x="375.677017" xlink:href="#m05a2291176" y="144.148064"/>
     <use style="fill:#008080;stroke:#008080;" x="380.571138" xlink:href="#m05a2291176" y="203.85228"/>
     <use style="fill:#008080;stroke:#008080;" x="385.242799" xlink:href="#m05a2291176" y="182.510859"/>
     <use style="fill:#008080;stroke:#008080;" x="390.13692" xlink:href="#m05a2291176" y="161.512065"/>
     <use style="fill:#008080;stroke:#008080;" x="394.808581" xlink:href="#m05a2291176" y="135.418624"/>
     <use style="fill:#008080;stroke:#008080;" x="399.702702" xlink:href="#m05a2291176" y="84.367611"/>
     <use style="fill:#008080;stroke:#008080;" x="409.268484" xlink:href="#m05a2291176" y="172.185744"/>
     <use style="fill:#008080;stroke:#008080;" x="418.834265" xlink:href="#m05a2291176" y="153.203208"/>
     <use style="fill:#008080;stroke:#008080;" x="428.400047" xlink:href="#m05a2291176" y="175.067686"/>
     <use style="fill:#008080;stroke:#008080;" x="437.965829" xlink:href="#m05a2291176" y="167.271297"/>
     <use style="fill:#008080;stroke:#008080;" x="447.531611" xlink:href="#m05a2291176" y="167.271297"/>
    </g>
   </g>
   <g id="line2d_18">
    <path clip-path="url(#pb7063830d1)" d="M 68.095797 170.76064  L 96.438897 170.861255  L 107.067559 171.06507  L 114.153334 171.368791  L 119.467666 171.761582  L 124.781997 172.379575  L 128.324884 172.969401  L 131.867772 173.749584  L 135.410659 174.771197  L 138.953547 176.094624  L 142.496434 177.789369  L 146.039322 179.932873  L 149.139348 182.245255  L 151.796514 184.594734  L 154.45368 187.31881  L 157.110845 190.44825  L 159.768011 194.008191  L 162.425177 198.015548  L 165.082342 202.476242  L 167.739508 207.382469  L 170.396673 212.710251  L 173.939561 220.394404  L 178.14674 230.179934  L 190.103985 258.533618  L 193.204012 265.086185  L 195.861177 270.176567  L 198.075482 273.982906  L 200.289787 277.352894  L 202.504091 280.259697  L 204.38625 282.353716  L 206.157694 284.003743  L 207.929138 285.342698  L 209.479151 286.261661  L 211.029164 286.949016  L 212.579178 287.410239  L 214.129191 287.652006  L 215.679204 287.681975  L 217.229218 287.508573  L 219.000661 287.072961  L 220.772105 286.397625  L 222.543549 285.497123  L 224.536423 284.233309  L 226.750728 282.542386  L 229.186463 280.366818  L 231.843628 277.658797  L 234.390079 274.777772  L 237.490105 270.950329  L 241.032993 266.226491  L 245.461602 259.933038  L 251.661655 250.689934  L 264.504623 231.440508  L 269.818954 223.917254  L 274.026133 218.279383  L 278.454742 212.701887  L 282.883351 207.525677  L 286.426239 203.688555  L 289.969126 200.127367  L 293.512014 196.842569  L 297.054901 193.830615  L 300.597789 191.084577  L 304.140676 188.594756  L 307.683564 186.34926  L 311.226451 184.334552  L 314.769339 182.535942  L 317.869366 181.127486  L 321.412253 179.693272  L 324.955141 178.430261  L 330.269472 176.823029  L 335.583803 175.5163  L 340.898134 174.463733  L 346.212465 173.623429  L 353.29824 172.769815  L 360.384015 172.153685  L 369.241234 171.627328  L 379.869897 171.239068  L 394.041447 170.967722  L 415.298772 170.811946  L 448.956203 170.760381  L 448.956203 170.760381  " style="fill:none;stroke:#e74c3c;stroke-linecap:square;stroke-width:2;"/>
   </g>
   <g id="line2d_19">
    <path clip-path="url(#pb7063830d1)" d="M 68.095797 170.759546  L 155.339402 170.868273  L 163.310898 171.125466  L 168.62523 171.520048  L 173.053839 172.089715  L 176.596727 172.767579  L 179.918184 173.626305  L 183.01821 174.646131  L 186.118237 175.882987  L 189.661124 177.540706  L 194.089734 179.876599  L 201.618369 183.877634  L 204.829111 185.302013  L 207.486277 186.244415  L 209.922012 186.881629  L 212.357747 187.281461  L 214.793482 187.43636  L 217.229218 187.350431  L 219.664953 187.03805  L 222.322118 186.465796  L 225.200714 185.615805  L 228.743602 184.319358  L 233.504357 182.313187  L 244.133019 177.75761  L 248.561629 176.125779  L 252.990238 174.736689  L 257.418848 173.601452  L 261.847457 172.707655  L 266.718927 171.971056  L 271.590398 171.448987  L 277.56902 171.033905  L 284.654795 170.765637  L 294.397736 170.626521  L 312.997895 170.635066  L 379.869897 170.753981  L 448.956203 170.759537  L 448.956203 170.759537  " style="fill:none;stroke:#808000;stroke-linecap:square;stroke-width:2;"/>
   </g>
   <g id="line2d_20">
    <path clip-path="url(#pb7063830d1)" d="M 68.095797 170.758453  L 96.438897 170.657873  L 107.067559 170.454116  L 114.153334 170.150451  L 119.467666 169.757673  L 124.781997 169.139553  L 128.324884 168.549419  L 131.867772 167.768523  L 135.410659 166.745405  L 138.953547 165.418974  L 142.496434 163.718466  L 146.039322 161.564259  L 149.139348 159.235474  L 151.796514 156.863726  L 154.45368 154.106076  L 157.110845 150.926765  L 159.768011 147.293891  L 162.425177 143.18161  L 165.082342 138.572561  L 167.739508 133.460397  L 170.396673 127.852304  L 173.053839 121.771333  L 176.596727 113.001245  L 180.361044 103.012337  L 186.561098 85.766358  L 191.875429 71.245253  L 194.975455 63.376665  L 197.632621 57.20649  L 199.846926 52.57265  L 202.06123 48.472729  L 204.16482 45.122624  L 205.936264 42.740262  L 207.486277 40.997234  L 209.03629 39.579097  L 210.586303 38.487918  L 211.914886 37.811859  L 213.243469 37.372189  L 214.572052 37.164445  L 215.900635 37.182681  L 217.229218 37.419636  L 218.5578 37.866909  L 220.107814 38.642004  L 221.657827 39.674389  L 223.429271 41.147099  L 225.200714 42.906326  L 227.193589 45.193588  L 229.407893 48.071489  L 232.065059 51.920444  L 234.83294 56.299822  L 238.375827 62.31342  L 243.247298 71.044318  L 257.418848 96.711116  L 262.290318 104.965907  L 266.718927 112.050156  L 270.704676 118.043685  L 274.911855 123.953039  L 278.454742 128.587643  L 281.99763 132.906965  L 285.540517 136.912254  L 289.083405 140.60802  L 292.626292 144.001545  L 296.16918 147.102473  L 299.712067 149.922423  L 303.254955 152.474636  L 306.797842 154.773628  L 310.34073 156.834852  L 313.883617 158.67438  L 317.869366 160.499103  L 321.412253 161.920991  L 324.955141 163.172249  L 330.269472 164.76348  L 335.583803 166.056467  L 340.898134 167.097571  L 346.212465 167.928514  L 353.29824 168.772462  L 360.384015 169.381536  L 369.241234 169.901826  L 379.869897 170.28559  L 394.041447 170.553789  L 415.298772 170.707756  L 448.956203 170.758722  L 448.956203 170.758722  " style="fill:none;stroke:#008080;stroke-linecap:square;stroke-width:2;"/>
   </g>
   <g id="patch_3">
    <path d="M 69.572 300.76  L 69.572 13.32  " style="fill:none;stroke:#000000;stroke-linecap:square;stroke-linejoin:miter;stroke-width:0.8;"/>
   </g>
   <g id="patch_4">
    <path d="M 447.48 300.76  L 447.48 13.32  " style="fill:none;stroke:#000000;stroke-linecap:square;stroke-linejoin:miter;stroke-width:0.8;"/>
   </g>
   <g id="patch_5">
    <path d="M 69.572 300.76  L 447.48 300.76  " style="fill:none;stroke:#000000;stroke-linecap:square;stroke-linejoin:miter;stroke-width:0.8;"/>
   </g>
   <g id="patch_6">
    <path d="M 69.572 13.32  L 447.48 13.32  " style="fill:none;stroke:#000000;stroke-linecap:square;stroke-linejoin:miter;stroke-width:0.8;"/>
   </g>
   <g id="legend_1">
    <g id="patch_7">
     <path d="M 76.572 109.38875  L 143.918875 109.38875  Q 145.918875 109.38875 145.918875 107.38875  L 145.918875 20.32  Q 145.918875 18.32 143.918875 18.32  L 76.572 18.32  Q 74.572 18.32 74.572 20.32  L 74.572 107.38875  Q 74.572 109.38875 76.572 109.38875  z " style="fill:#ffffff;opacity:0.8;stroke:#cccccc;stroke-linejoin:miter;"/>
    </g>
    <g id="line2d_21"/>
    <g id="line2d_22">
     <g>
      <use style="fill:#e74c3c;stroke:#e74c3c;stroke-linejoin:miter;" x="88.572" xlink:href="#mc796735d41" y="26.418437"/>
     </g>
    </g>
    <g id="text_17">
     <!-- exp-Sn -->
     <defs>
      <path d="M 18.109375 8.203125  L 18.109375 -20.796875  L 9.078125 -20.796875  L 9.078125 54.6875  L 18.109375 54.6875  L 18.109375 46.390625  Q 20.953125 51.265625 25.265625 53.625  Q 29.59375 56 35.59375 56  Q 45.5625 56 51.78125 48.09375  Q 58.015625 40.1875 58.015625 27.296875  Q 58.015625 14.40625 51.78125 6.484375  Q 45.5625 -1.421875 35.59375 -1.421875  Q 29.59375 -1.421875 25.265625 0.953125  Q 20.953125 3.328125 18.109375 8.203125  z M 48.6875 27.296875  Q 48.6875 37.203125 44.609375 42.84375  Q 40.53125 48.484375 33.40625 48.484375  Q 26.265625 48.484375 22.1875 42.84375  Q 18.109375 37.203125 18.109375 27.296875  Q 18.109375 17.390625 22.1875 11.75  Q 26.265625 6.109375 33.40625 6.109375  Q 40.53125 6.109375 44.609375 11.75  Q 48.6875 17.390625 48.6875 27.296875  z " id="DejaVuSans-70"/>
      <path d="M 53.515625 70.515625  L 53.515625 60.890625  Q 47.90625 63.578125 42.921875 64.890625  Q 37.9375 66.21875 33.296875 66.21875  Q 25.25 66.21875 20.875 63.09375  Q 16.5 59.96875 16.5 54.203125  Q 16.5 49.359375 19.40625 46.890625  Q 22.3125 44.4375 30.421875 42.921875  L 36.375 41.703125  Q 47.40625 39.59375 52.65625 34.296875  Q 57.90625 29 57.90625 20.125  Q 57.90625 9.515625 50.796875 4.046875  Q 43.703125 -1.421875 29.984375 -1.421875  Q 24.8125 -1.421875 18.96875 -0.25  Q 13.140625 0.921875 6.890625 3.21875  L 6.890625 13.375  Q 12.890625 10.015625 18.65625 8.296875  Q 24.421875 6.59375 29.984375 6.59375  Q 38.421875 6.59375 43.015625 9.90625  Q 47.609375 13.234375 47.609375 19.390625  Q 47.609375 24.75 44.3125 27.78125  Q 41.015625 30.8125 33.5 32.328125  L 27.484375 33.5  Q 16.453125 35.6875 11.515625 40.375  Q 6.59375 45.0625 6.59375 53.421875  Q 6.59375 63.09375 13.40625 68.65625  Q 20.21875 74.21875 32.171875 74.21875  Q 37.3125 74.21875 42.625 73.28125  Q 47.953125 72.359375 53.515625 70.515625  z " id="DejaVuSans-53"/>
     </defs>
     <g transform="translate(106.572 29.918437)scale(0.1 -0.1)">
      <use xlink:href="#DejaVuSans-65"/>
      <use x="61.507812" xlink:href="#DejaVuSans-78"/>
      <use x="120.6875" xlink:href="#DejaVuSans-70"/>
      <use x="184.164062" xlink:href="#DejaVuSans-2d"/>
      <use x="220.248047" xlink:href="#DejaVuSans-53"/>
      <use x="283.724609" xlink:href="#DejaVuSans-6e"/>
     </g>
    </g>
    <g id="line2d_23"/>
    <g id="line2d_24">
     <g>
      <use style="fill:#808000;stroke:#808000;stroke-linejoin:bevel;" x="88.572" xlink:href="#maecc68de81" y="41.096563"/>
     </g>
    </g>
    <g id="text_18">
     <!-- exp-Ag -->
     <defs>
      <path d="M 34.1875 63.1875  L 20.796875 26.90625  L 47.609375 26.90625  z M 28.609375 72.90625  L 39.796875 72.90625  L 67.578125 0  L 57.328125 0  L 50.6875 18.703125  L 17.828125 18.703125  L 11.1875 0  L 0.78125 0  z " id="DejaVuSans-41"/>
      <path d="M 45.40625 27.984375  Q 45.40625 37.75 41.375 43.109375  Q 37.359375 48.484375 30.078125 48.484375  Q 22.859375 48.484375 18.828125 43.109375  Q 14.796875 37.75 14.796875 27.984375  Q 14.796875 18.265625 18.828125 12.890625  Q 22.859375 7.515625 30.078125 7.515625  Q 37.359375 7.515625 41.375 12.890625  Q 45.40625 18.265625 45.40625 27.984375  z M 54.390625 6.78125  Q 54.390625 -7.171875 48.1875 -13.984375  Q 42 -20.796875 29.203125 -20.796875  Q 24.46875 -20.796875 20.265625 -20.09375  Q 16.0625 -19.390625 12.109375 -17.921875  L 12.109375 -9.1875  Q 16.0625 -11.328125 19.921875 -12.34375  Q 23.78125 -13.375 27.78125 -13.375  Q 36.625 -13.375 41.015625 -8.765625  Q 45.40625 -4.15625 45.40625 5.171875  L 45.40625 9.625  Q 42.625 4.78125 38.28125 2.390625  Q 33.9375 0 27.875 0  Q 17.828125 0 11.671875 7.65625  Q 5.515625 15.328125 5.515625 27.984375  Q 5.515625 40.671875 11.671875 48.328125  Q 17.828125 56 27.875 56  Q 33.9375 56 38.28125 53.609375  Q 42.625 51.21875 45.40625 46.390625  L 45.40625 54.6875  L 54.390625 54.6875  z " id="DejaVuSans-67"/>
     </defs>
     <g transform="translate(106.572 44.596563)scale(0.1 -0.1)">
      <use xlink:href="#DejaVuSans-65"/>
      <use x="61.507812" xlink:href="#DejaVuSans-78"/>
      <use x="120.6875" xlink:href="#DejaVuSans-70"/>
      <use x="184.164062" xlink:href="#DejaVuSans-2d"/>
      <use x="220.216797" xlink:href="#DejaVuSans-41"/>
      <use x="288.625" xlink:href="#DejaVuSans-67"/>
     </g>
    </g>
    <g id="line2d_25"/>
    <g id="line2d_26">
     <g>
      <use style="fill:#008080;stroke:#008080;" x="88.572" xlink:href="#m05a2291176" y="55.774687"/>
     </g>
    </g>
    <g id="text_19">
     <!-- exp-Cu -->
     <defs>
      <path d="M 64.40625 67.28125  L 64.40625 56.890625  Q 59.421875 61.53125 53.78125 63.8125  Q 48.140625 66.109375 41.796875 66.109375  Q 29.296875 66.109375 22.65625 58.46875  Q 16.015625 50.828125 16.015625 36.375  Q 16.015625 21.96875 22.65625 14.328125  Q 29.296875 6.6875 41.796875 6.6875  Q 48.140625 6.6875 53.78125 8.984375  Q 59.421875 11.28125 64.40625 15.921875  L 64.40625 5.609375  Q 59.234375 2.09375 53.4375 0.328125  Q 47.65625 -1.421875 41.21875 -1.421875  Q 24.65625 -1.421875 15.125 8.703125  Q 5.609375 18.84375 5.609375 36.375  Q 5.609375 53.953125 15.125 64.078125  Q 24.65625 74.21875 41.21875 74.21875  Q 47.75 74.21875 53.53125 72.484375  Q 59.328125 70.75 64.40625 67.28125  z " id="DejaVuSans-43"/>
     </defs>
     <g transform="translate(106.572 59.274687)scale(0.1 -0.1)">
      <use xlink:href="#DejaVuSans-65"/>
      <use x="61.507812" xlink:href="#DejaVuSans-78"/>
      <use x="120.6875" xlink:href="#DejaVuSans-70"/>
      <use x="184.164062" xlink:href="#DejaVuSans-2d"/>
      <use x="220.248047" xlink:href="#DejaVuSans-43"/>
      <use x="290.072266" xlink:href="#DejaVuSans-75"/>
     </g>
    </g>
    <g id="line2d_27">
     <path d="M 78.572 70.452812  L 98.572 70.452812  " style="fill:none;stroke:#e74c3c;stroke-linecap:square;stroke-width:2;"/>
    </g>
    <g id="line2d_28"/>
    <g id="text_20">
     <!-- sim-Sn -->
     <g transform="translate(106.572 73.952812)scale(0.1 -0.1)">
      <use xlink:href="#DejaVuSans-73"/>
      <use x="52.099609" xlink:href="#DejaVuSans-69"/>
      <use x="79.882812" xlink:href="#DejaVuSans-6d"/>
      <use x="177.294922" xlink:href="#DejaVuSans-2d"/>
      <use x="213.378906" xlink:href="#DejaVuSans-53"/>
      <use x="276.855469" xlink:href="#DejaVuSans-6e"/>
     </g>
    </g>
    <g id="line2d_29">
     <path d="M 78.572 85.130938  L 98.572 85.130938  " style="fill:none;stroke:#808000;stroke-linecap:square;stroke-width:2;"/>
    </g>
    <g id="line2d_30"/>
    <g id="text_21">
     <!-- sim-Ag -->
     <g transform="translate(106.572 88.630938)scale(0.1 -0.1)">
      <use xlink:href="#DejaVuSans-73"/>
      <use x="52.099609" xlink:href="#DejaVuSans-69"/>
      <use x="79.882812" xlink:href="#DejaVuSans-6d"/>
      <use x="177.294922" xlink:href="#DejaVuSans-2d"/>
      <use x="213.347656" xlink:href="#DejaVuSans-41"/>
      <use x="281.755859" xlink:href="#DejaVuSans-67"/>
     </g>
    </g>
    <g id="line2d_31">
     <path d="M 78.572 99.809062  L 98.572 99.809062  " style="fill:none;stroke:#008080;stroke-linecap:square;stroke-width:2;"/>
    </g>
    <g id="line2d_32"/>
    <g id="text_22">
     <!-- sim-Cu -->
     <g transform="translate(106.572 103.309062)scale(0.1 -0.1)">
      <use xlink:href="#DejaVuSans-73"/>
      <use x="52.099609" xlink:href="#DejaVuSans-69"/>
      <use x="79.882812" xlink:href="#DejaVuSans-6d"/>
      <use x="177.294922" xlink:href="#DejaVuSans-2d"/>
      <use x="213.378906" xlink:href="#DejaVuSans-43"/>
      <use x="283.203125" xlink:href="#DejaVuSans-75"/>
     </g>
    </g>
   </g>
  </g>
 </g>
 <defs>
  <clipPath id="pb7063830d1">
   <rect height="287.44" width="377.908" x="69.572" y="13.32"/>
  </clipPath>
 </defs>
</g>
    <g transform="translate(10, 300) scale(1) ">
      <g transform="translate(0, 0) scale(3.0) "><defs id="defs831"/>
  <sodipodi:namedview xmlns:sodipodi="http://sodipodi.sourceforge.net/DTD/sodipodi-0.dtd" xmlns:inkscape="http://www.inkscape.org/namespaces/inkscape" id="base" pagecolor="#ffffff" bordercolor="#666666" borderopacity="1.0" inkscape:pageopacity="0.0" inkscape:pageshadow="2" inkscape:zoom="1.979899" inkscape:cx="-12.763683" inkscape:cy="-16.680883" inkscape:document-units="mm" inkscape:current-layer="layer1" showgrid="false" inkscape:window-width="1920" inkscape:window-height="1001" inkscape:window-x="-9" inkscape:window-y="-9" inkscape:window-maximized="1" units="pt"/>
  <metadata xmlns:rdf="http://www.w3.org/1999/02/22-rdf-syntax-ns#" xmlns:cc="http://creativecommons.org/ns#" xmlns:dc="http://purl.org/dc/elements/1.1/" id="metadata834">
    <rdf:RDF>
      <cc:Work rdf:about="">
        <dc:format>image/svg+xml</dc:format>
        <dc:type rdf:resource="http://purl.org/dc/dcmitype/StillImage"/>
        <dc:title/>
      </cc:Work>
    </rdf:RDF>
  </metadata>
  <g xmlns:inkscape="http://www.inkscape.org/namespaces/inkscape" xmlns:sodipodi="http://sodipodi.sourceforge.net/DTD/sodipodi-0.dtd" inkscape:label="Layer 1" inkscape:groupmode="layer" id="layer1" transform="translate(0,-288.81557)">
    <g id="g4761" transform="matrix(0.07377843,0,0,0.07377843,-0.76923022,275.45946)">
      <path inkscape:connector-curvature="0" id="path1959-6-7-1-6-5-4-0-3-2-6-0-3-9-6" style="font-style:normal;font-variant:normal;font-weight:bold;font-stretch:normal;font-size:120.99466705px;line-height:1.25;font-family:Aharoni;-inkscape-font-specification:'Aharoni, Bold';font-variant-ligatures:normal;font-variant-caps:normal;font-variant-numeric:normal;font-feature-settings:normal;text-align:start;letter-spacing:0px;word-spacing:0px;writing-mode:lr-tb;text-anchor:start;fill:#000000;fill-opacity:1;stroke:none;stroke-width:2.37649584" d="M 52.937412,287.55677 H 40.587702 V 265.43005 H 22.776041 v 22.12672 h -12.34982 v -53.17432 h 12.34982 v 20.5296 h 17.811661 v -20.5296 h 12.34971 z"/>
      <path inkscape:connector-curvature="0" id="path1961-2-9-7-9-3-1-6-5-1-5-8-7-8-2" style="font-style:normal;font-variant:normal;font-weight:bold;font-stretch:normal;font-size:120.99466705px;line-height:1.25;font-family:Aharoni;-inkscape-font-specification:'Aharoni, Bold';font-variant-ligatures:normal;font-variant-caps:normal;font-variant-numeric:normal;font-feature-settings:normal;text-align:start;letter-spacing:0px;word-spacing:0px;writing-mode:lr-tb;text-anchor:start;fill:#000000;fill-opacity:1;stroke:none;stroke-width:2.37649584" d="m 69.681125,237.49895 q 0,3.0385 -1.87856,5.1421 -1.84375,2.0647 -4.55721,2.0647 -2.67866,0 -4.55722,-2.1036 -1.84375,-2.1036 -1.84375,-5.1032 0,-2.9996 1.84375,-5.0642 1.87856,-2.1036 4.55722,-2.1036 2.67865,0 4.55721,2.1036 1.87856,2.0646 1.87856,5.0642 z m -0.73057,50.05782 h -11.41048 v -36.15072 h 11.41048 z"/>
      <path inkscape:connector-curvature="0" id="path1963-3-1-2-8-3-6-3-3-3-4-7-6-0-8" style="font-style:normal;font-variant:normal;font-weight:bold;font-stretch:normal;font-size:120.99466705px;line-height:1.25;font-family:Aharoni;-inkscape-font-specification:'Aharoni, Bold';font-variant-ligatures:normal;font-variant-caps:normal;font-variant-numeric:normal;font-feature-settings:normal;text-align:start;letter-spacing:0px;word-spacing:0px;writing-mode:lr-tb;text-anchor:start;fill:#000000;fill-opacity:1;stroke:none;stroke-width:2.37649584" d="m 93.369625,261.92405 h -6.50536 v 25.63272 h -11.4104 v -25.63272 h -3.75712 v -10.518 h 3.75712 v -10.8686 h 11.4104 v 10.8686 h 6.50536 z"/>
      <path id="path1967-3-3-6-2-9-6-2-5-3-0-9-8-2-1" style="font-style:normal;font-variant:normal;font-weight:bold;font-stretch:normal;font-size:120.99466705px;line-height:1.25;font-family:Aharoni;-inkscape-font-specification:'Aharoni, Bold';font-variant-ligatures:normal;font-variant-caps:normal;font-variant-numeric:normal;font-feature-settings:normal;text-align:start;letter-spacing:0px;word-spacing:0px;writing-mode:lr-tb;text-anchor:start;fill:#000000;fill-opacity:1;stroke:none;stroke-width:2.37649584" d="m 160.61447,287.55677 h -12.34971 v -53.17432 h 12.34971 z" inkscape:connector-curvature="0"/>
      <path inkscape:connector-curvature="0" id="path1969-8-0-8-5-3-5-6-6-3-9-8-6-2-0" style="font-style:normal;font-variant:normal;font-weight:bold;font-stretch:normal;font-size:120.99466705px;line-height:1.25;font-family:Aharoni;-inkscape-font-specification:'Aharoni, Bold';font-variant-ligatures:normal;font-variant-caps:normal;font-variant-numeric:normal;font-feature-settings:normal;text-align:start;letter-spacing:0px;word-spacing:0px;writing-mode:lr-tb;text-anchor:start;fill:#000000;fill-opacity:1;stroke:none;stroke-width:2.37649584" d="m 201.6896,284.86883 q -6.05314,2.68794 -11.20172,2.68794 -8.97528,0 -16.07201,-6.42764 -9.04489,-8.21959 -9.04489,-21.42558 0,-13.2448 9.04489,-21.4644 7.09673,-6.4277 16.17636,-6.4277 4.93989,0 11.09737,2.6879 v 16.5561 q -1.73941,-2.3763 -3.54836,-3.5839 -3.30489,-2.2204 -7.09679,-2.2204 -4.8007,0 -8.34907,3.2333 -4.48766,4.0903 -4.48766,11.2191 0,7.0899 4.48766,11.1803 3.54837,3.23328 8.34907,3.23328 3.7919,0 7.09679,-2.22049 1.77415,-1.16869 3.54836,-3.58389 z"/>
      <path inkscape:transform-center-y="-13.656107" inkscape:transform-center-x="-3.9758045" sodipodi:nodetypes="csssssc" inkscape:connector-curvature="0" id="rect815-3-0-9-3-5-6-0-4-03-7-3-7-5-3-2-76-3-8-8-5-3-7-8-0-1-3-7-9-2-8-1" d="m 104.61223,181.4353 c 0,0 17.68257,27.27493 22.63096,34.41579 7.92879,11.44185 16.42741,30.36094 17.92806,45.50275 1.21005,12.20999 -1.38345,26.51285 -17.32077,30.11208 -11.70405,2.64313 -26.75007,-5.41371 -30.334975,-20.50903 -3.30533,-13.91816 -2.13088,-34.61412 0.0984,-48.67354 1.22049,-7.69719 5.657305,-36.06774 6.998335,-40.84805 z" style="font-style:normal;font-weight:normal;font-size:242.08590698px;line-height:1.25;font-family:sans-serif;letter-spacing:0px;word-spacing:0px;opacity:1;fill:#00456b;fill-opacity:1;stroke:none;stroke-width:0.6720385;stroke-miterlimit:4;stroke-dasharray:none;stroke-dashoffset:0;stroke-opacity:1;paint-order:markers fill stroke"/>
      <path sodipodi:nodetypes="ccscscsccscccscc" d="m 107.52748,246.32531 6.45576,30.78617 6.82019,-1.47997 c 5.75791,-1.24946 9.70999,-3.40081 11.85576,-6.45394 2.16431,-3.05721 2.68673,-7.25521 1.56721,-12.59398 -1.11209,-5.30332 -3.26743,-8.89247 -6.46601,-10.76744 -3.18372,-1.89669 -7.65528,-2.22015 -13.4127,-0.97081 z m -8.759905,-5.09591 12.713095,-2.78742 c 8.8634,-1.94336 15.73718,-1.59097 20.62135,1.05715 4.88003,2.62843 8.10326,7.71587 9.6697,15.26232 1.57464,7.58584 0.64804,13.61405 -2.77981,18.08462 -3.42783,4.4705 -9.55303,7.67294 -18.37559,9.60735 l -12.71311,2.78742 z" style="font-style:normal;font-weight:normal;font-size:242.08590698px;line-height:1.25;font-family:sans-serif;letter-spacing:0px;word-spacing:0px;fill:#ffffff;fill-opacity:1;stroke:none;stroke-width:1.60286868" id="path1193-3-5-3-2-7-4-5-6-0-0-6-9-2-4-7-0-0" inkscape:connector-curvature="0"/>
    </g>
  </g>
</g>
    </g>
  </g>
</svg>
