<?xml version='1.0' encoding='ASCII' standalone='yes'?>
<svg xmlns:xlink="http://www.w3.org/1999/xlink" xmlns="http://www.w3.org/2000/svg" version="1.1" width="460.8px" viewBox="0 0 460.8px 345.6px" height="345.6px">
  <g>
    <g><defs>
  <style type="text/css">
*{stroke-linecap:butt;stroke-linejoin:round;}
  </style>
 </defs>
 <g id="figure_1">
  <g id="patch_1">
   <path d="M 0 345.6  L 460.8 345.6  L 460.8 0  L 0 0  z " style="fill:#ffffff;"/>
  </g>
  <g id="axes_1">
   <g id="patch_2">
    <path d="M 63.272 300.76  L 447.48 300.76  L 447.48 13.32  L 63.272 13.32  z " style="fill:#ffffff;"/>
   </g>
   <g id="matplotlib.axis_1">
    <g id="xtick_1">
     <g id="line2d_1">
      <defs>
       <path d="M 0 0  L 0 3.5  " id="m389f38a2f9" style="stroke:#000000;stroke-width:0.8;"/>
      </defs>
      <g>
       <use style="stroke:#000000;stroke-width:0.8;" x="63.272" xlink:href="#m389f38a2f9" y="300.76"/>
      </g>
     </g>
     <g id="text_1">
      <!-- 0 -->
      <defs>
       <path d="M 31.78125 66.40625  Q 24.171875 66.40625 20.328125 58.90625  Q 16.5 51.421875 16.5 36.375  Q 16.5 21.390625 20.328125 13.890625  Q 24.171875 6.390625 31.78125 6.390625  Q 39.453125 6.390625 43.28125 13.890625  Q 47.125 21.390625 47.125 36.375  Q 47.125 51.421875 43.28125 58.90625  Q 39.453125 66.40625 31.78125 66.40625  z M 31.78125 74.21875  Q 44.046875 74.21875 50.515625 64.515625  Q 56.984375 54.828125 56.984375 36.375  Q 56.984375 17.96875 50.515625 8.265625  Q 44.046875 -1.421875 31.78125 -1.421875  Q 19.53125 -1.421875 13.0625 8.265625  Q 6.59375 17.96875 6.59375 36.375  Q 6.59375 54.828125 13.0625 64.515625  Q 19.53125 74.21875 31.78125 74.21875  z " id="DejaVuSans-30"/>
      </defs>
      <g transform="translate(60.09075 315.358437)scale(0.1 -0.1)">
       <use xlink:href="#DejaVuSans-30"/>
      </g>
     </g>
    </g>
    <g id="xtick_2">
     <g id="line2d_2">
      <g>
       <use style="stroke:#000000;stroke-width:0.8;" x="115.788215" xlink:href="#m389f38a2f9" y="300.76"/>
      </g>
     </g>
     <g id="text_2">
      <!-- 250 -->
      <defs>
       <path d="M 19.1875 8.296875  L 53.609375 8.296875  L 53.609375 0  L 7.328125 0  L 7.328125 8.296875  Q 12.9375 14.109375 22.625 23.890625  Q 32.328125 33.6875 34.8125 36.53125  Q 39.546875 41.84375 41.421875 45.53125  Q 43.3125 49.21875 43.3125 52.78125  Q 43.3125 58.59375 39.234375 62.25  Q 35.15625 65.921875 28.609375 65.921875  Q 23.96875 65.921875 18.8125 64.3125  Q 13.671875 62.703125 7.8125 59.421875  L 7.8125 69.390625  Q 13.765625 71.78125 18.9375 73  Q 24.125 74.21875 28.421875 74.21875  Q 39.75 74.21875 46.484375 68.546875  Q 53.21875 62.890625 53.21875 53.421875  Q 53.21875 48.921875 51.53125 44.890625  Q 49.859375 40.875 45.40625 35.40625  Q 44.1875 33.984375 37.640625 27.21875  Q 31.109375 20.453125 19.1875 8.296875  z " id="DejaVuSans-32"/>
       <path d="M 10.796875 72.90625  L 49.515625 72.90625  L 49.515625 64.59375  L 19.828125 64.59375  L 19.828125 46.734375  Q 21.96875 47.46875 24.109375 47.828125  Q 26.265625 48.1875 28.421875 48.1875  Q 40.625 48.1875 47.75 41.5  Q 54.890625 34.8125 54.890625 23.390625  Q 54.890625 11.625 47.5625 5.09375  Q 40.234375 -1.421875 26.90625 -1.421875  Q 22.3125 -1.421875 17.546875 -0.640625  Q 12.796875 0.140625 7.71875 1.703125  L 7.71875 11.625  Q 12.109375 9.234375 16.796875 8.0625  Q 21.484375 6.890625 26.703125 6.890625  Q 35.15625 6.890625 40.078125 11.328125  Q 45.015625 15.765625 45.015625 23.390625  Q 45.015625 31 40.078125 35.4375  Q 35.15625 39.890625 26.703125 39.890625  Q 22.75 39.890625 18.8125 39.015625  Q 14.890625 38.140625 10.796875 36.28125  z " id="DejaVuSans-35"/>
      </defs>
      <g transform="translate(106.244465 315.358437)scale(0.1 -0.1)">
       <use xlink:href="#DejaVuSans-32"/>
       <use x="63.623047" xlink:href="#DejaVuSans-35"/>
       <use x="127.246094" xlink:href="#DejaVuSans-30"/>
      </g>
     </g>
    </g>
    <g id="xtick_3">
     <g id="line2d_3">
      <g>
       <use style="stroke:#000000;stroke-width:0.8;" x="168.30443" xlink:href="#m389f38a2f9" y="300.76"/>
      </g>
     </g>
     <g id="text_3">
      <!-- 500 -->
      <g transform="translate(158.76068 315.358437)scale(0.1 -0.1)">
       <use xlink:href="#DejaVuSans-35"/>
       <use x="63.623047" xlink:href="#DejaVuSans-30"/>
       <use x="127.246094" xlink:href="#DejaVuSans-30"/>
      </g>
     </g>
    </g>
    <g id="xtick_4">
     <g id="line2d_4">
      <g>
       <use style="stroke:#000000;stroke-width:0.8;" x="220.820646" xlink:href="#m389f38a2f9" y="300.76"/>
      </g>
     </g>
     <g id="text_4">
      <!-- 750 -->
      <defs>
       <path d="M 8.203125 72.90625  L 55.078125 72.90625  L 55.078125 68.703125  L 28.609375 0  L 18.3125 0  L 43.21875 64.59375  L 8.203125 64.59375  z " id="DejaVuSans-37"/>
      </defs>
      <g transform="translate(211.276896 315.358437)scale(0.1 -0.1)">
       <use xlink:href="#DejaVuSans-37"/>
       <use x="63.623047" xlink:href="#DejaVuSans-35"/>
       <use x="127.246094" xlink:href="#DejaVuSans-30"/>
      </g>
     </g>
    </g>
    <g id="xtick_5">
     <g id="line2d_5">
      <g>
       <use style="stroke:#000000;stroke-width:0.8;" x="273.336861" xlink:href="#m389f38a2f9" y="300.76"/>
      </g>
     </g>
     <g id="text_5">
      <!-- 1000 -->
      <defs>
       <path d="M 12.40625 8.296875  L 28.515625 8.296875  L 28.515625 63.921875  L 10.984375 60.40625  L 10.984375 69.390625  L 28.421875 72.90625  L 38.28125 72.90625  L 38.28125 8.296875  L 54.390625 8.296875  L 54.390625 0  L 12.40625 0  z " id="DejaVuSans-31"/>
      </defs>
      <g transform="translate(260.611861 315.358437)scale(0.1 -0.1)">
       <use xlink:href="#DejaVuSans-31"/>
       <use x="63.623047" xlink:href="#DejaVuSans-30"/>
       <use x="127.246094" xlink:href="#DejaVuSans-30"/>
       <use x="190.869141" xlink:href="#DejaVuSans-30"/>
      </g>
     </g>
    </g>
    <g id="xtick_6">
     <g id="line2d_6">
      <g>
       <use style="stroke:#000000;stroke-width:0.8;" x="325.853076" xlink:href="#m389f38a2f9" y="300.76"/>
      </g>
     </g>
     <g id="text_6">
      <!-- 1250 -->
      <g transform="translate(313.128076 315.358437)scale(0.1 -0.1)">
       <use xlink:href="#DejaVuSans-31"/>
       <use x="63.623047" xlink:href="#DejaVuSans-32"/>
       <use x="127.246094" xlink:href="#DejaVuSans-35"/>
       <use x="190.869141" xlink:href="#DejaVuSans-30"/>
      </g>
     </g>
    </g>
    <g id="xtick_7">
     <g id="line2d_7">
      <g>
       <use style="stroke:#000000;stroke-width:0.8;" x="378.369291" xlink:href="#m389f38a2f9" y="300.76"/>
      </g>
     </g>
     <g id="text_7">
      <!-- 1500 -->
      <g transform="translate(365.644291 315.358437)scale(0.1 -0.1)">
       <use xlink:href="#DejaVuSans-31"/>
       <use x="63.623047" xlink:href="#DejaVuSans-35"/>
       <use x="127.246094" xlink:href="#DejaVuSans-30"/>
       <use x="190.869141" xlink:href="#DejaVuSans-30"/>
      </g>
     </g>
    </g>
    <g id="xtick_8">
     <g id="line2d_8">
      <g>
       <use style="stroke:#000000;stroke-width:0.8;" x="430.885506" xlink:href="#m389f38a2f9" y="300.76"/>
      </g>
     </g>
     <g id="text_8">
      <!-- 1750 -->
      <g transform="translate(418.160506 315.358437)scale(0.1 -0.1)">
       <use xlink:href="#DejaVuSans-31"/>
       <use x="63.623047" xlink:href="#DejaVuSans-37"/>
       <use x="127.246094" xlink:href="#DejaVuSans-35"/>
       <use x="190.869141" xlink:href="#DejaVuSans-30"/>
      </g>
     </g>
    </g>
    <g id="text_9">
     <!-- Distance ($\mu$m) -->
     <defs>
      <path d="M 19.671875 64.796875  L 19.671875 8.109375  L 31.59375 8.109375  Q 46.6875 8.109375 53.6875 14.9375  Q 60.6875 21.78125 60.6875 36.53125  Q 60.6875 51.171875 53.6875 57.984375  Q 46.6875 64.796875 31.59375 64.796875  z M 9.8125 72.90625  L 30.078125 72.90625  Q 51.265625 72.90625 61.171875 64.09375  Q 71.09375 55.28125 71.09375 36.53125  Q 71.09375 17.671875 61.125 8.828125  Q 51.171875 0 30.078125 0  L 9.8125 0  z " id="DejaVuSans-44"/>
      <path d="M 9.421875 54.6875  L 18.40625 54.6875  L 18.40625 0  L 9.421875 0  z M 9.421875 75.984375  L 18.40625 75.984375  L 18.40625 64.59375  L 9.421875 64.59375  z " id="DejaVuSans-69"/>
      <path d="M 44.28125 53.078125  L 44.28125 44.578125  Q 40.484375 46.53125 36.375 47.5  Q 32.28125 48.484375 27.875 48.484375  Q 21.1875 48.484375 17.84375 46.4375  Q 14.5 44.390625 14.5 40.28125  Q 14.5 37.15625 16.890625 35.375  Q 19.28125 33.59375 26.515625 31.984375  L 29.59375 31.296875  Q 39.15625 29.25 43.1875 25.515625  Q 47.21875 21.78125 47.21875 15.09375  Q 47.21875 7.46875 41.1875 3.015625  Q 35.15625 -1.421875 24.609375 -1.421875  Q 20.21875 -1.421875 15.453125 -0.5625  Q 10.6875 0.296875 5.421875 2  L 5.421875 11.28125  Q 10.40625 8.6875 15.234375 7.390625  Q 20.0625 6.109375 24.8125 6.109375  Q 31.15625 6.109375 34.5625 8.28125  Q 37.984375 10.453125 37.984375 14.40625  Q 37.984375 18.0625 35.515625 20.015625  Q 33.0625 21.96875 24.703125 23.78125  L 21.578125 24.515625  Q 13.234375 26.265625 9.515625 29.90625  Q 5.8125 33.546875 5.8125 39.890625  Q 5.8125 47.609375 11.28125 51.796875  Q 16.75 56 26.8125 56  Q 31.78125 56 36.171875 55.265625  Q 40.578125 54.546875 44.28125 53.078125  z " id="DejaVuSans-73"/>
      <path d="M 18.3125 70.21875  L 18.3125 54.6875  L 36.8125 54.6875  L 36.8125 47.703125  L 18.3125 47.703125  L 18.3125 18.015625  Q 18.3125 11.328125 20.140625 9.421875  Q 21.96875 7.515625 27.59375 7.515625  L 36.8125 7.515625  L 36.8125 0  L 27.59375 0  Q 17.1875 0 13.234375 3.875  Q 9.28125 7.765625 9.28125 18.015625  L 9.28125 47.703125  L 2.6875 47.703125  L 2.6875 54.6875  L 9.28125 54.6875  L 9.28125 70.21875  z " id="DejaVuSans-74"/>
      <path d="M 34.28125 27.484375  Q 23.390625 27.484375 19.1875 25  Q 14.984375 22.515625 14.984375 16.5  Q 14.984375 11.71875 18.140625 8.90625  Q 21.296875 6.109375 26.703125 6.109375  Q 34.1875 6.109375 38.703125 11.40625  Q 43.21875 16.703125 43.21875 25.484375  L 43.21875 27.484375  z M 52.203125 31.203125  L 52.203125 0  L 43.21875 0  L 43.21875 8.296875  Q 40.140625 3.328125 35.546875 0.953125  Q 30.953125 -1.421875 24.3125 -1.421875  Q 15.921875 -1.421875 10.953125 3.296875  Q 6 8.015625 6 15.921875  Q 6 25.140625 12.171875 29.828125  Q 18.359375 34.515625 30.609375 34.515625  L 43.21875 34.515625  L 43.21875 35.40625  Q 43.21875 41.609375 39.140625 45  Q 35.0625 48.390625 27.6875 48.390625  Q 23 48.390625 18.546875 47.265625  Q 14.109375 46.140625 10.015625 43.890625  L 10.015625 52.203125  Q 14.9375 54.109375 19.578125 55.046875  Q 24.21875 56 28.609375 56  Q 40.484375 56 46.34375 49.84375  Q 52.203125 43.703125 52.203125 31.203125  z " id="DejaVuSans-61"/>
      <path d="M 54.890625 33.015625  L 54.890625 0  L 45.90625 0  L 45.90625 32.71875  Q 45.90625 40.484375 42.875 44.328125  Q 39.84375 48.1875 33.796875 48.1875  Q 26.515625 48.1875 22.3125 43.546875  Q 18.109375 38.921875 18.109375 30.90625  L 18.109375 0  L 9.078125 0  L 9.078125 54.6875  L 18.109375 54.6875  L 18.109375 46.1875  Q 21.34375 51.125 25.703125 53.5625  Q 30.078125 56 35.796875 56  Q 45.21875 56 50.046875 50.171875  Q 54.890625 44.34375 54.890625 33.015625  z " id="DejaVuSans-6e"/>
      <path d="M 48.78125 52.59375  L 48.78125 44.1875  Q 44.96875 46.296875 41.140625 47.34375  Q 37.3125 48.390625 33.40625 48.390625  Q 24.65625 48.390625 19.8125 42.84375  Q 14.984375 37.3125 14.984375 27.296875  Q 14.984375 17.28125 19.8125 11.734375  Q 24.65625 6.203125 33.40625 6.203125  Q 37.3125 6.203125 41.140625 7.25  Q 44.96875 8.296875 48.78125 10.40625  L 48.78125 2.09375  Q 45.015625 0.34375 40.984375 -0.53125  Q 36.96875 -1.421875 32.421875 -1.421875  Q 20.0625 -1.421875 12.78125 6.34375  Q 5.515625 14.109375 5.515625 27.296875  Q 5.515625 40.671875 12.859375 48.328125  Q 20.21875 56 33.015625 56  Q 37.15625 56 41.109375 55.140625  Q 45.0625 54.296875 48.78125 52.59375  z " id="DejaVuSans-63"/>
      <path d="M 56.203125 29.59375  L 56.203125 25.203125  L 14.890625 25.203125  Q 15.484375 15.921875 20.484375 11.0625  Q 25.484375 6.203125 34.421875 6.203125  Q 39.59375 6.203125 44.453125 7.46875  Q 49.3125 8.734375 54.109375 11.28125  L 54.109375 2.78125  Q 49.265625 0.734375 44.1875 -0.34375  Q 39.109375 -1.421875 33.890625 -1.421875  Q 20.796875 -1.421875 13.15625 6.1875  Q 5.515625 13.8125 5.515625 26.8125  Q 5.515625 40.234375 12.765625 48.109375  Q 20.015625 56 32.328125 56  Q 43.359375 56 49.78125 48.890625  Q 56.203125 41.796875 56.203125 29.59375  z M 47.21875 32.234375  Q 47.125 39.59375 43.09375 43.984375  Q 39.0625 48.390625 32.421875 48.390625  Q 24.90625 48.390625 20.390625 44.140625  Q 15.875 39.890625 15.1875 32.171875  z " id="DejaVuSans-65"/>
      <path id="DejaVuSans-20"/>
      <path d="M 31 75.875  Q 24.46875 64.65625 21.28125 53.65625  Q 18.109375 42.671875 18.109375 31.390625  Q 18.109375 20.125 21.3125 9.0625  Q 24.515625 -2 31 -13.1875  L 23.1875 -13.1875  Q 15.875 -1.703125 12.234375 9.375  Q 8.59375 20.453125 8.59375 31.390625  Q 8.59375 42.28125 12.203125 53.3125  Q 15.828125 64.359375 23.1875 75.875  z " id="DejaVuSans-28"/>
      <path d="M -1.3125 -20.796875  L 13.375 54.6875  L 22.40625 54.6875  L 15.765625 20.65625  Q 15.578125 19.625 15.421875 18.359375  Q 15.28125 17.09375 15.28125 15.828125  Q 15.28125 11.28125 18.140625 8.828125  Q 21 6.390625 26.3125 6.390625  Q 33.546875 6.390625 37.984375 10.484375  Q 42.4375 14.59375 44 22.796875  L 50.203125 54.6875  L 59.1875 54.6875  L 51.03125 12.640625  Q 50.828125 11.71875 50.75 11.03125  Q 50.6875 10.359375 50.6875 9.8125  Q 50.6875 8.296875 51.296875 7.59375  Q 51.90625 6.890625 53.21875 6.890625  Q 53.71875 6.890625 54.5625 7.125  Q 55.421875 7.375 56.984375 8.015625  L 55.609375 0.78125  Q 53.46875 -0.296875 51.515625 -0.859375  Q 49.5625 -1.421875 47.703125 -1.421875  Q 44.484375 -1.421875 42.65625 0.625  Q 40.828125 2.6875 40.828125 6.296875  Q 38.09375 2.390625 34.296875 0.484375  Q 30.515625 -1.421875 25.390625 -1.421875  Q 20.84375 -1.421875 17.453125 0.671875  Q 14.0625 2.78125 12.984375 6.203125  L 7.71875 -20.796875  z " id="DejaVuSans-Oblique-3bc"/>
      <path d="M 52 44.1875  Q 55.375 50.25 60.0625 53.125  Q 64.75 56 71.09375 56  Q 79.640625 56 84.28125 50.015625  Q 88.921875 44.046875 88.921875 33.015625  L 88.921875 0  L 79.890625 0  L 79.890625 32.71875  Q 79.890625 40.578125 77.09375 44.375  Q 74.3125 48.1875 68.609375 48.1875  Q 61.625 48.1875 57.5625 43.546875  Q 53.515625 38.921875 53.515625 30.90625  L 53.515625 0  L 44.484375 0  L 44.484375 32.71875  Q 44.484375 40.625 41.703125 44.40625  Q 38.921875 48.1875 33.109375 48.1875  Q 26.21875 48.1875 22.15625 43.53125  Q 18.109375 38.875 18.109375 30.90625  L 18.109375 0  L 9.078125 0  L 9.078125 54.6875  L 18.109375 54.6875  L 18.109375 46.1875  Q 21.1875 51.21875 25.484375 53.609375  Q 29.78125 56 35.6875 56  Q 41.65625 56 45.828125 52.96875  Q 50 49.953125 52 44.1875  z " id="DejaVuSans-6d"/>
      <path d="M 8.015625 75.875  L 15.828125 75.875  Q 23.140625 64.359375 26.78125 53.3125  Q 30.421875 42.28125 30.421875 31.390625  Q 30.421875 20.453125 26.78125 9.375  Q 23.140625 -1.703125 15.828125 -13.1875  L 8.015625 -13.1875  Q 14.5 -2 17.703125 9.0625  Q 20.90625 20.125 20.90625 31.390625  Q 20.90625 42.671875 17.703125 53.65625  Q 14.5 64.65625 8.015625 75.875  z " id="DejaVuSans-29"/>
     </defs>
     <g transform="translate(219.926 329.038125)scale(0.1 -0.1)">
      <use transform="translate(0 0.015625)" xlink:href="#DejaVuSans-44"/>
      <use transform="translate(77.001953 0.015625)" xlink:href="#DejaVuSans-69"/>
      <use transform="translate(104.785156 0.015625)" xlink:href="#DejaVuSans-73"/>
      <use transform="translate(156.884766 0.015625)" xlink:href="#DejaVuSans-74"/>
      <use transform="translate(196.09375 0.015625)" xlink:href="#DejaVuSans-61"/>
      <use transform="translate(257.373047 0.015625)" xlink:href="#DejaVuSans-6e"/>
      <use transform="translate(320.751953 0.015625)" xlink:href="#DejaVuSans-63"/>
      <use transform="translate(375.732422 0.015625)" xlink:href="#DejaVuSans-65"/>
      <use transform="translate(437.255859 0.015625)" xlink:href="#DejaVuSans-20"/>
      <use transform="translate(469.042969 0.015625)" xlink:href="#DejaVuSans-28"/>
      <use transform="translate(508.056641 0.015625)" xlink:href="#DejaVuSans-Oblique-3bc"/>
      <use transform="translate(571.679688 0.015625)" xlink:href="#DejaVuSans-6d"/>
      <use transform="translate(669.091797 0.015625)" xlink:href="#DejaVuSans-29"/>
     </g>
    </g>
   </g>
   <g id="matplotlib.axis_2">
    <g id="ytick_1">
     <g id="line2d_9">
      <defs>
       <path d="M 0 0  L -3.5 0  " id="m3b49a260dc" style="stroke:#000000;stroke-width:0.8;"/>
      </defs>
      <g>
       <use style="stroke:#000000;stroke-width:0.8;" x="63.272" xlink:href="#m3b49a260dc" y="279.08464"/>
      </g>
     </g>
     <g id="text_10">
      <!-- &#8722;600 -->
      <defs>
       <path d="M 10.59375 35.5  L 73.1875 35.5  L 73.1875 27.203125  L 10.59375 27.203125  z " id="DejaVuSans-2212"/>
       <path d="M 33.015625 40.375  Q 26.375 40.375 22.484375 35.828125  Q 18.609375 31.296875 18.609375 23.390625  Q 18.609375 15.53125 22.484375 10.953125  Q 26.375 6.390625 33.015625 6.390625  Q 39.65625 6.390625 43.53125 10.953125  Q 47.40625 15.53125 47.40625 23.390625  Q 47.40625 31.296875 43.53125 35.828125  Q 39.65625 40.375 33.015625 40.375  z M 52.59375 71.296875  L 52.59375 62.3125  Q 48.875 64.0625 45.09375 64.984375  Q 41.3125 65.921875 37.59375 65.921875  Q 27.828125 65.921875 22.671875 59.328125  Q 17.53125 52.734375 16.796875 39.40625  Q 19.671875 43.65625 24.015625 45.921875  Q 28.375 48.1875 33.59375 48.1875  Q 44.578125 48.1875 50.953125 41.515625  Q 57.328125 34.859375 57.328125 23.390625  Q 57.328125 12.15625 50.6875 5.359375  Q 44.046875 -1.421875 33.015625 -1.421875  Q 20.359375 -1.421875 13.671875 8.265625  Q 6.984375 17.96875 6.984375 36.375  Q 6.984375 53.65625 15.1875 63.9375  Q 23.390625 74.21875 37.203125 74.21875  Q 40.921875 74.21875 44.703125 73.484375  Q 48.484375 72.75 52.59375 71.296875  z " id="DejaVuSans-36"/>
      </defs>
      <g transform="translate(28.804813 282.883858)scale(0.1 -0.1)">
       <use xlink:href="#DejaVuSans-2212"/>
       <use x="83.789062" xlink:href="#DejaVuSans-36"/>
       <use x="147.412109" xlink:href="#DejaVuSans-30"/>
       <use x="211.035156" xlink:href="#DejaVuSans-30"/>
      </g>
     </g>
    </g>
    <g id="ytick_2">
     <g id="line2d_10">
      <g>
       <use style="stroke:#000000;stroke-width:0.8;" x="63.272" xlink:href="#m3b49a260dc" y="245.289272"/>
      </g>
     </g>
     <g id="text_11">
      <!-- &#8722;400 -->
      <defs>
       <path d="M 37.796875 64.3125  L 12.890625 25.390625  L 37.796875 25.390625  z M 35.203125 72.90625  L 47.609375 72.90625  L 47.609375 25.390625  L 58.015625 25.390625  L 58.015625 17.1875  L 47.609375 17.1875  L 47.609375 0  L 37.796875 0  L 37.796875 17.1875  L 4.890625 17.1875  L 4.890625 26.703125  z " id="DejaVuSans-34"/>
      </defs>
      <g transform="translate(28.804813 249.088491)scale(0.1 -0.1)">
       <use xlink:href="#DejaVuSans-2212"/>
       <use x="83.789062" xlink:href="#DejaVuSans-34"/>
       <use x="147.412109" xlink:href="#DejaVuSans-30"/>
       <use x="211.035156" xlink:href="#DejaVuSans-30"/>
      </g>
     </g>
    </g>
    <g id="ytick_3">
     <g id="line2d_11">
      <g>
       <use style="stroke:#000000;stroke-width:0.8;" x="63.272" xlink:href="#m3b49a260dc" y="211.493905"/>
      </g>
     </g>
     <g id="text_12">
      <!-- &#8722;200 -->
      <g transform="translate(28.804813 215.293124)scale(0.1 -0.1)">
       <use xlink:href="#DejaVuSans-2212"/>
       <use x="83.789062" xlink:href="#DejaVuSans-32"/>
       <use x="147.412109" xlink:href="#DejaVuSans-30"/>
       <use x="211.035156" xlink:href="#DejaVuSans-30"/>
      </g>
     </g>
    </g>
    <g id="ytick_4">
     <g id="line2d_12">
      <g>
       <use style="stroke:#000000;stroke-width:0.8;" x="63.272" xlink:href="#m3b49a260dc" y="177.698538"/>
      </g>
     </g>
     <g id="text_13">
      <!-- 0 -->
      <g transform="translate(49.9095 181.497756)scale(0.1 -0.1)">
       <use xlink:href="#DejaVuSans-30"/>
      </g>
     </g>
    </g>
    <g id="ytick_5">
     <g id="line2d_13">
      <g>
       <use style="stroke:#000000;stroke-width:0.8;" x="63.272" xlink:href="#m3b49a260dc" y="143.90317"/>
      </g>
     </g>
     <g id="text_14">
      <!-- 200 -->
      <g transform="translate(37.1845 147.702389)scale(0.1 -0.1)">
       <use xlink:href="#DejaVuSans-32"/>
       <use x="63.623047" xlink:href="#DejaVuSans-30"/>
       <use x="127.246094" xlink:href="#DejaVuSans-30"/>
      </g>
     </g>
    </g>
    <g id="ytick_6">
     <g id="line2d_14">
      <g>
       <use style="stroke:#000000;stroke-width:0.8;" x="63.272" xlink:href="#m3b49a260dc" y="110.107803"/>
      </g>
     </g>
     <g id="text_15">
      <!-- 400 -->
      <g transform="translate(37.1845 113.907022)scale(0.1 -0.1)">
       <use xlink:href="#DejaVuSans-34"/>
       <use x="63.623047" xlink:href="#DejaVuSans-30"/>
       <use x="127.246094" xlink:href="#DejaVuSans-30"/>
      </g>
     </g>
    </g>
    <g id="ytick_7">
     <g id="line2d_15">
      <g>
       <use style="stroke:#000000;stroke-width:0.8;" x="63.272" xlink:href="#m3b49a260dc" y="76.312436"/>
      </g>
     </g>
     <g id="text_16">
      <!-- 600 -->
      <g transform="translate(37.1845 80.111654)scale(0.1 -0.1)">
       <use xlink:href="#DejaVuSans-36"/>
       <use x="63.623047" xlink:href="#DejaVuSans-30"/>
       <use x="127.246094" xlink:href="#DejaVuSans-30"/>
      </g>
     </g>
    </g>
    <g id="ytick_8">
     <g id="line2d_16">
      <g>
       <use style="stroke:#000000;stroke-width:0.8;" x="63.272" xlink:href="#m3b49a260dc" y="42.517068"/>
      </g>
     </g>
     <g id="text_17">
      <!-- 800 -->
      <defs>
       <path d="M 31.78125 34.625  Q 24.75 34.625 20.71875 30.859375  Q 16.703125 27.09375 16.703125 20.515625  Q 16.703125 13.921875 20.71875 10.15625  Q 24.75 6.390625 31.78125 6.390625  Q 38.8125 6.390625 42.859375 10.171875  Q 46.921875 13.96875 46.921875 20.515625  Q 46.921875 27.09375 42.890625 30.859375  Q 38.875 34.625 31.78125 34.625  z M 21.921875 38.8125  Q 15.578125 40.375 12.03125 44.71875  Q 8.5 49.078125 8.5 55.328125  Q 8.5 64.0625 14.71875 69.140625  Q 20.953125 74.21875 31.78125 74.21875  Q 42.671875 74.21875 48.875 69.140625  Q 55.078125 64.0625 55.078125 55.328125  Q 55.078125 49.078125 51.53125 44.71875  Q 48 40.375 41.703125 38.8125  Q 48.828125 37.15625 52.796875 32.3125  Q 56.78125 27.484375 56.78125 20.515625  Q 56.78125 9.90625 50.3125 4.234375  Q 43.84375 -1.421875 31.78125 -1.421875  Q 19.734375 -1.421875 13.25 4.234375  Q 6.78125 9.90625 6.78125 20.515625  Q 6.78125 27.484375 10.78125 32.3125  Q 14.796875 37.15625 21.921875 38.8125  z M 18.3125 54.390625  Q 18.3125 48.734375 21.84375 45.5625  Q 25.390625 42.390625 31.78125 42.390625  Q 38.140625 42.390625 41.71875 45.5625  Q 45.3125 48.734375 45.3125 54.390625  Q 45.3125 60.0625 41.71875 63.234375  Q 38.140625 66.40625 31.78125 66.40625  Q 25.390625 66.40625 21.84375 63.234375  Q 18.3125 60.0625 18.3125 54.390625  z " id="DejaVuSans-38"/>
      </defs>
      <g transform="translate(37.1845 46.316287)scale(0.1 -0.1)">
       <use xlink:href="#DejaVuSans-38"/>
       <use x="63.623047" xlink:href="#DejaVuSans-30"/>
       <use x="127.246094" xlink:href="#DejaVuSans-30"/>
      </g>
     </g>
    </g>
    <g id="text_18">
     <!-- Flux (at.-fr.m/s)$\times10^{-14}$ -->
     <defs>
      <path d="M 9.8125 72.90625  L 51.703125 72.90625  L 51.703125 64.59375  L 19.671875 64.59375  L 19.671875 43.109375  L 48.578125 43.109375  L 48.578125 34.8125  L 19.671875 34.8125  L 19.671875 0  L 9.8125 0  z " id="DejaVuSans-46"/>
      <path d="M 9.421875 75.984375  L 18.40625 75.984375  L 18.40625 0  L 9.421875 0  z " id="DejaVuSans-6c"/>
      <path d="M 8.5 21.578125  L 8.5 54.6875  L 17.484375 54.6875  L 17.484375 21.921875  Q 17.484375 14.15625 20.5 10.265625  Q 23.53125 6.390625 29.59375 6.390625  Q 36.859375 6.390625 41.078125 11.03125  Q 45.3125 15.671875 45.3125 23.6875  L 45.3125 54.6875  L 54.296875 54.6875  L 54.296875 0  L 45.3125 0  L 45.3125 8.40625  Q 42.046875 3.421875 37.71875 1  Q 33.40625 -1.421875 27.6875 -1.421875  Q 18.265625 -1.421875 13.375 4.4375  Q 8.5 10.296875 8.5 21.578125  z M 31.109375 56  z " id="DejaVuSans-75"/>
      <path d="M 54.890625 54.6875  L 35.109375 28.078125  L 55.90625 0  L 45.3125 0  L 29.390625 21.484375  L 13.484375 0  L 2.875 0  L 24.125 28.609375  L 4.6875 54.6875  L 15.28125 54.6875  L 29.78125 35.203125  L 44.28125 54.6875  z " id="DejaVuSans-78"/>
      <path d="M 10.6875 12.40625  L 21 12.40625  L 21 0  L 10.6875 0  z " id="DejaVuSans-2e"/>
      <path d="M 4.890625 31.390625  L 31.203125 31.390625  L 31.203125 23.390625  L 4.890625 23.390625  z " id="DejaVuSans-2d"/>
      <path d="M 37.109375 75.984375  L 37.109375 68.5  L 28.515625 68.5  Q 23.6875 68.5 21.796875 66.546875  Q 19.921875 64.59375 19.921875 59.515625  L 19.921875 54.6875  L 34.71875 54.6875  L 34.71875 47.703125  L 19.921875 47.703125  L 19.921875 0  L 10.890625 0  L 10.890625 47.703125  L 2.296875 47.703125  L 2.296875 54.6875  L 10.890625 54.6875  L 10.890625 58.5  Q 10.890625 67.625 15.140625 71.796875  Q 19.390625 75.984375 28.609375 75.984375  z " id="DejaVuSans-66"/>
      <path d="M 41.109375 46.296875  Q 39.59375 47.171875 37.8125 47.578125  Q 36.03125 48 33.890625 48  Q 26.265625 48 22.1875 43.046875  Q 18.109375 38.09375 18.109375 28.8125  L 18.109375 0  L 9.078125 0  L 9.078125 54.6875  L 18.109375 54.6875  L 18.109375 46.1875  Q 20.953125 51.171875 25.484375 53.578125  Q 30.03125 56 36.53125 56  Q 37.453125 56 38.578125 55.875  Q 39.703125 55.765625 41.0625 55.515625  z " id="DejaVuSans-72"/>
      <path d="M 25.390625 72.90625  L 33.6875 72.90625  L 8.296875 -9.28125  L 0 -9.28125  z " id="DejaVuSans-2f"/>
      <path d="M 70.125 53.71875  L 47.796875 31.296875  L 70.125 8.984375  L 64.3125 3.078125  L 41.890625 25.484375  L 19.484375 3.078125  L 13.71875 8.984375  L 35.984375 31.296875  L 13.71875 53.71875  L 19.484375 59.625  L 41.890625 37.203125  L 64.3125 59.625  z " id="DejaVuSans-d7"/>
     </defs>
     <g transform="translate(22.725125 214.04)rotate(-90)scale(0.1 -0.1)">
      <use transform="translate(0 0.684375)" xlink:href="#DejaVuSans-46"/>
      <use transform="translate(57.519531 0.684375)" xlink:href="#DejaVuSans-6c"/>
      <use transform="translate(85.302734 0.684375)" xlink:href="#DejaVuSans-75"/>
      <use transform="translate(148.681641 0.684375)" xlink:href="#DejaVuSans-78"/>
      <use transform="translate(207.861328 0.684375)" xlink:href="#DejaVuSans-20"/>
      <use transform="translate(239.648438 0.684375)" xlink:href="#DejaVuSans-28"/>
      <use transform="translate(278.662109 0.684375)" xlink:href="#DejaVuSans-61"/>
      <use transform="translate(339.941406 0.684375)" xlink:href="#DejaVuSans-74"/>
      <use transform="translate(379.150391 0.684375)" xlink:href="#DejaVuSans-2e"/>
      <use transform="translate(410.9375 0.684375)" xlink:href="#DejaVuSans-2d"/>
      <use transform="translate(447.021484 0.684375)" xlink:href="#DejaVuSans-66"/>
      <use transform="translate(482.226562 0.684375)" xlink:href="#DejaVuSans-72"/>
      <use transform="translate(523.339844 0.684375)" xlink:href="#DejaVuSans-2e"/>
      <use transform="translate(555.033203 0.684375)" xlink:href="#DejaVuSans-6d"/>
      <use transform="translate(652.445312 0.684375)" xlink:href="#DejaVuSans-2f"/>
      <use transform="translate(686.136719 0.684375)" xlink:href="#DejaVuSans-73"/>
      <use transform="translate(738.236328 0.684375)" xlink:href="#DejaVuSans-29"/>
      <use transform="translate(777.25 0.684375)" xlink:href="#DejaVuSans-d7"/>
      <use transform="translate(861.039062 0.684375)" xlink:href="#DejaVuSans-31"/>
      <use transform="translate(924.662109 0.684375)" xlink:href="#DejaVuSans-30"/>
      <use transform="translate(989.242188 38.965625)scale(0.7)" xlink:href="#DejaVuSans-2212"/>
      <use transform="translate(1047.894531 38.965625)scale(0.7)" xlink:href="#DejaVuSans-31"/>
      <use transform="translate(1092.430664 38.965625)scale(0.7)" xlink:href="#DejaVuSans-34"/>
     </g>
    </g>
   </g>
   <g id="line2d_17">
    <defs>
     <path d="M -0 3  L 3 -3  L -3 -3  z " id="m916c218d15" style="stroke:#e74c3c;stroke-linejoin:miter;"/>
    </defs>
    <g clip-path="url(#p37d5405fc6)">
     <use style="fill:#e74c3c;stroke:#e74c3c;stroke-linejoin:miter;" x="63.272" xlink:href="#m916c218d15" y="167.327469"/>
     <use style="fill:#e74c3c;stroke:#e74c3c;stroke-linejoin:miter;" x="72.934984" xlink:href="#m916c218d15" y="167.327469"/>
     <use style="fill:#e74c3c;stroke:#e74c3c;stroke-linejoin:miter;" x="92.471016" xlink:href="#m916c218d15" y="193.868568"/>
     <use style="fill:#e74c3c;stroke:#e74c3c;stroke-linejoin:miter;" x="112.007048" xlink:href="#m916c218d15" y="197.605218"/>
     <use style="fill:#e74c3c;stroke:#e74c3c;stroke-linejoin:miter;" x="116.838539" xlink:href="#m916c218d15" y="164.99164"/>
     <use style="fill:#e74c3c;stroke:#e74c3c;stroke-linejoin:miter;" x="126.501523" xlink:href="#m916c218d15" y="165.09291"/>
     <use style="fill:#e74c3c;stroke:#e74c3c;stroke-linejoin:miter;" x="131.333015" xlink:href="#m916c218d15" y="185.743549"/>
     <use style="fill:#e74c3c;stroke:#e74c3c;stroke-linejoin:miter;" x="136.164507" xlink:href="#m916c218d15" y="136.136672"/>
     <use style="fill:#e74c3c;stroke:#e74c3c;stroke-linejoin:miter;" x="150.869047" xlink:href="#m916c218d15" y="165.792185"/>
     <use style="fill:#e74c3c;stroke:#e74c3c;stroke-linejoin:miter;" x="155.700539" xlink:href="#m916c218d15" y="129.986769"/>
     <use style="fill:#e74c3c;stroke:#e74c3c;stroke-linejoin:miter;" x="160.53203" xlink:href="#m916c218d15" y="113.022801"/>
     <use style="fill:#e74c3c;stroke:#e74c3c;stroke-linejoin:miter;" x="165.363522" xlink:href="#m916c218d15" y="131.518508"/>
     <use style="fill:#e74c3c;stroke:#e74c3c;stroke-linejoin:miter;" x="170.195014" xlink:href="#m916c218d15" y="139.458426"/>
     <use style="fill:#e74c3c;stroke:#e74c3c;stroke-linejoin:miter;" x="175.026506" xlink:href="#m916c218d15" y="127.152495"/>
     <use style="fill:#e74c3c;stroke:#e74c3c;stroke-linejoin:miter;" x="180.068063" xlink:href="#m916c218d15" y="107.189285"/>
     <use style="fill:#e74c3c;stroke:#e74c3c;stroke-linejoin:miter;" x="184.899554" xlink:href="#m916c218d15" y="96.354798"/>
     <use style="fill:#e74c3c;stroke:#e74c3c;stroke-linejoin:miter;" x="189.731046" xlink:href="#m916c218d15" y="80.73557"/>
     <use style="fill:#e74c3c;stroke:#e74c3c;stroke-linejoin:miter;" x="194.562538" xlink:href="#m916c218d15" y="96.188317"/>
     <use style="fill:#e74c3c;stroke:#e74c3c;stroke-linejoin:miter;" x="199.39403" xlink:href="#m916c218d15" y="78.810283"/>
     <use style="fill:#e74c3c;stroke:#e74c3c;stroke-linejoin:miter;" x="204.225522" xlink:href="#m916c218d15" y="60.693927"/>
     <use style="fill:#e74c3c;stroke:#e74c3c;stroke-linejoin:miter;" x="209.267078" xlink:href="#m916c218d15" y="52.430411"/>
     <use style="fill:#e74c3c;stroke:#e74c3c;stroke-linejoin:miter;" x="214.09857" xlink:href="#m916c218d15" y="38.386751"/>
     <use style="fill:#e74c3c;stroke:#e74c3c;stroke-linejoin:miter;" x="218.930062" xlink:href="#m916c218d15" y="39.661776"/>
     <use style="fill:#e74c3c;stroke:#e74c3c;stroke-linejoin:miter;" x="223.761554" xlink:href="#m916c218d15" y="31.635917"/>
     <use style="fill:#e74c3c;stroke:#e74c3c;stroke-linejoin:miter;" x="228.593045" xlink:href="#m916c218d15" y="27.80397"/>
     <use style="fill:#e74c3c;stroke:#e74c3c;stroke-linejoin:miter;" x="233.424537" xlink:href="#m916c218d15" y="26.385455"/>
     <use style="fill:#e74c3c;stroke:#e74c3c;stroke-linejoin:miter;" x="238.256029" xlink:href="#m916c218d15" y="26.89959"/>
     <use style="fill:#e74c3c;stroke:#e74c3c;stroke-linejoin:miter;" x="243.297586" xlink:href="#m916c218d15" y="30.564795"/>
     <use style="fill:#e74c3c;stroke:#e74c3c;stroke-linejoin:miter;" x="248.129077" xlink:href="#m916c218d15" y="39.20827"/>
     <use style="fill:#e74c3c;stroke:#e74c3c;stroke-linejoin:miter;" x="252.960569" xlink:href="#m916c218d15" y="42.401678"/>
     <use style="fill:#e74c3c;stroke:#e74c3c;stroke-linejoin:miter;" x="257.792061" xlink:href="#m916c218d15" y="44.787099"/>
     <use style="fill:#e74c3c;stroke:#e74c3c;stroke-linejoin:miter;" x="262.623553" xlink:href="#m916c218d15" y="60.380749"/>
     <use style="fill:#e74c3c;stroke:#e74c3c;stroke-linejoin:miter;" x="267.455045" xlink:href="#m916c218d15" y="71.593408"/>
     <use style="fill:#e74c3c;stroke:#e74c3c;stroke-linejoin:miter;" x="272.496601" xlink:href="#m916c218d15" y="85.676673"/>
     <use style="fill:#e74c3c;stroke:#e74c3c;stroke-linejoin:miter;" x="277.328093" xlink:href="#m916c218d15" y="90.814895"/>
     <use style="fill:#e74c3c;stroke:#e74c3c;stroke-linejoin:miter;" x="282.159585" xlink:href="#m916c218d15" y="99.753352"/>
     <use style="fill:#e74c3c;stroke:#e74c3c;stroke-linejoin:miter;" x="286.991077" xlink:href="#m916c218d15" y="116.248579"/>
     <use style="fill:#e74c3c;stroke:#e74c3c;stroke-linejoin:miter;" x="291.822568" xlink:href="#m916c218d15" y="126.533145"/>
     <use style="fill:#e74c3c;stroke:#e74c3c;stroke-linejoin:miter;" x="296.65406" xlink:href="#m916c218d15" y="127.329842"/>
     <use style="fill:#e74c3c;stroke:#e74c3c;stroke-linejoin:miter;" x="301.485552" xlink:href="#m916c218d15" y="135.700442"/>
     <use style="fill:#e74c3c;stroke:#e74c3c;stroke-linejoin:miter;" x="306.527109" xlink:href="#m916c218d15" y="146.175007"/>
     <use style="fill:#e74c3c;stroke:#e74c3c;stroke-linejoin:miter;" x="311.3586" xlink:href="#m916c218d15" y="143.893966"/>
     <use style="fill:#e74c3c;stroke:#e74c3c;stroke-linejoin:miter;" x="316.190092" xlink:href="#m916c218d15" y="148.498071"/>
     <use style="fill:#e74c3c;stroke:#e74c3c;stroke-linejoin:miter;" x="325.853076" xlink:href="#m916c218d15" y="136.223168"/>
     <use style="fill:#e74c3c;stroke:#e74c3c;stroke-linejoin:miter;" x="330.684568" xlink:href="#m916c218d15" y="146.864436"/>
     <use style="fill:#e74c3c;stroke:#e74c3c;stroke-linejoin:miter;" x="340.557616" xlink:href="#m916c218d15" y="143.013011"/>
     <use style="fill:#e74c3c;stroke:#e74c3c;stroke-linejoin:miter;" x="345.389108" xlink:href="#m916c218d15" y="155.182567"/>
     <use style="fill:#e74c3c;stroke:#e74c3c;stroke-linejoin:miter;" x="350.2206" xlink:href="#m916c218d15" y="146.85184"/>
     <use style="fill:#e74c3c;stroke:#e74c3c;stroke-linejoin:miter;" x="355.052091" xlink:href="#m916c218d15" y="149.799749"/>
     <use style="fill:#e74c3c;stroke:#e74c3c;stroke-linejoin:miter;" x="364.715075" xlink:href="#m916c218d15" y="167.077267"/>
     <use style="fill:#e74c3c;stroke:#e74c3c;stroke-linejoin:miter;" x="369.756632" xlink:href="#m916c218d15" y="158.773819"/>
     <use style="fill:#e74c3c;stroke:#e74c3c;stroke-linejoin:miter;" x="374.588124" xlink:href="#m916c218d15" y="153.253024"/>
     <use style="fill:#e74c3c;stroke:#e74c3c;stroke-linejoin:miter;" x="384.251107" xlink:href="#m916c218d15" y="144.473615"/>
     <use style="fill:#e74c3c;stroke:#e74c3c;stroke-linejoin:miter;" x="393.914091" xlink:href="#m916c218d15" y="146.511761"/>
     <use style="fill:#e74c3c;stroke:#e74c3c;stroke-linejoin:miter;" x="427.944598" xlink:href="#m916c218d15" y="138.155731"/>
     <use style="fill:#e74c3c;stroke:#e74c3c;stroke-linejoin:miter;" x="437.817647" xlink:href="#m916c218d15" y="185.240137"/>
     <use style="fill:#e74c3c;stroke:#e74c3c;stroke-linejoin:miter;" x="447.48063" xlink:href="#m916c218d15" y="185.240137"/>
    </g>
   </g>
   <g id="line2d_18">
    <defs>
     <path d="M 0 -3  L -0.673542 -0.927051  L -2.85317 -0.927051  L -1.089814 0.354102  L -1.763356 2.427051  L -0 1.145898  L 1.763356 2.427051  L 1.089814 0.354102  L 2.85317 -0.927051  L 0.673542 -0.927051  z " id="mbf3d843ffc" style="stroke:#808000;stroke-linejoin:bevel;"/>
    </defs>
    <g clip-path="url(#p37d5405fc6)">
     <use style="fill:#808000;stroke:#808000;stroke-linejoin:bevel;" x="63.272" xlink:href="#mbf3d843ffc" y="181.501635"/>
     <use style="fill:#808000;stroke:#808000;stroke-linejoin:bevel;" x="72.934984" xlink:href="#mbf3d843ffc" y="181.501635"/>
     <use style="fill:#808000;stroke:#808000;stroke-linejoin:bevel;" x="92.471016" xlink:href="#mbf3d843ffc" y="183.104601"/>
     <use style="fill:#808000;stroke:#808000;stroke-linejoin:bevel;" x="112.007048" xlink:href="#mbf3d843ffc" y="175.390432"/>
     <use style="fill:#808000;stroke:#808000;stroke-linejoin:bevel;" x="116.838539" xlink:href="#mbf3d843ffc" y="172.299659"/>
     <use style="fill:#808000;stroke:#808000;stroke-linejoin:bevel;" x="126.501523" xlink:href="#mbf3d843ffc" y="179.308365"/>
     <use style="fill:#808000;stroke:#808000;stroke-linejoin:bevel;" x="131.333015" xlink:href="#mbf3d843ffc" y="180.961055"/>
     <use style="fill:#808000;stroke:#808000;stroke-linejoin:bevel;" x="136.164507" xlink:href="#mbf3d843ffc" y="178.412037"/>
     <use style="fill:#808000;stroke:#808000;stroke-linejoin:bevel;" x="150.869047" xlink:href="#mbf3d843ffc" y="180.638593"/>
     <use style="fill:#808000;stroke:#808000;stroke-linejoin:bevel;" x="155.700539" xlink:href="#mbf3d843ffc" y="185.953128"/>
     <use style="fill:#808000;stroke:#808000;stroke-linejoin:bevel;" x="160.53203" xlink:href="#mbf3d843ffc" y="181.297016"/>
     <use style="fill:#808000;stroke:#808000;stroke-linejoin:bevel;" x="165.363522" xlink:href="#mbf3d843ffc" y="183.034984"/>
     <use style="fill:#808000;stroke:#808000;stroke-linejoin:bevel;" x="170.195014" xlink:href="#mbf3d843ffc" y="186.012272"/>
     <use style="fill:#808000;stroke:#808000;stroke-linejoin:bevel;" x="175.026506" xlink:href="#mbf3d843ffc" y="187.38857"/>
     <use style="fill:#808000;stroke:#808000;stroke-linejoin:bevel;" x="180.068063" xlink:href="#mbf3d843ffc" y="187.527356"/>
     <use style="fill:#808000;stroke:#808000;stroke-linejoin:bevel;" x="184.899554" xlink:href="#mbf3d843ffc" y="192.868221"/>
     <use style="fill:#808000;stroke:#808000;stroke-linejoin:bevel;" x="189.731046" xlink:href="#mbf3d843ffc" y="196.586615"/>
     <use style="fill:#808000;stroke:#808000;stroke-linejoin:bevel;" x="194.562538" xlink:href="#mbf3d843ffc" y="201.502079"/>
     <use style="fill:#808000;stroke:#808000;stroke-linejoin:bevel;" x="199.39403" xlink:href="#mbf3d843ffc" y="207.201776"/>
     <use style="fill:#808000;stroke:#808000;stroke-linejoin:bevel;" x="204.225522" xlink:href="#mbf3d843ffc" y="213.204426"/>
     <use style="fill:#808000;stroke:#808000;stroke-linejoin:bevel;" x="209.267078" xlink:href="#mbf3d843ffc" y="217.760688"/>
     <use style="fill:#808000;stroke:#808000;stroke-linejoin:bevel;" x="214.09857" xlink:href="#mbf3d843ffc" y="227.00375"/>
     <use style="fill:#808000;stroke:#808000;stroke-linejoin:bevel;" x="218.930062" xlink:href="#mbf3d843ffc" y="230.514126"/>
     <use style="fill:#808000;stroke:#808000;stroke-linejoin:bevel;" x="223.761554" xlink:href="#mbf3d843ffc" y="233.104431"/>
     <use style="fill:#808000;stroke:#808000;stroke-linejoin:bevel;" x="228.593045" xlink:href="#mbf3d843ffc" y="234.481645"/>
     <use style="fill:#808000;stroke:#808000;stroke-linejoin:bevel;" x="233.424537" xlink:href="#mbf3d843ffc" y="233.503939"/>
     <use style="fill:#808000;stroke:#808000;stroke-linejoin:bevel;" x="238.256029" xlink:href="#mbf3d843ffc" y="229.840483"/>
     <use style="fill:#808000;stroke:#808000;stroke-linejoin:bevel;" x="243.297586" xlink:href="#mbf3d843ffc" y="225.322913"/>
     <use style="fill:#808000;stroke:#808000;stroke-linejoin:bevel;" x="248.129077" xlink:href="#mbf3d843ffc" y="216.067601"/>
     <use style="fill:#808000;stroke:#808000;stroke-linejoin:bevel;" x="252.960569" xlink:href="#mbf3d843ffc" y="213.88349"/>
     <use style="fill:#808000;stroke:#808000;stroke-linejoin:bevel;" x="257.792061" xlink:href="#mbf3d843ffc" y="200.613968"/>
     <use style="fill:#808000;stroke:#808000;stroke-linejoin:bevel;" x="262.623553" xlink:href="#mbf3d843ffc" y="199.082664"/>
     <use style="fill:#808000;stroke:#808000;stroke-linejoin:bevel;" x="267.455045" xlink:href="#mbf3d843ffc" y="174.676586"/>
     <use style="fill:#808000;stroke:#808000;stroke-linejoin:bevel;" x="272.496601" xlink:href="#mbf3d843ffc" y="173.407687"/>
     <use style="fill:#808000;stroke:#808000;stroke-linejoin:bevel;" x="277.328093" xlink:href="#mbf3d843ffc" y="180.136724"/>
     <use style="fill:#808000;stroke:#808000;stroke-linejoin:bevel;" x="282.159585" xlink:href="#mbf3d843ffc" y="170.419542"/>
     <use style="fill:#808000;stroke:#808000;stroke-linejoin:bevel;" x="286.991077" xlink:href="#mbf3d843ffc" y="165.397229"/>
     <use style="fill:#808000;stroke:#808000;stroke-linejoin:bevel;" x="291.822568" xlink:href="#mbf3d843ffc" y="173.102859"/>
     <use style="fill:#808000;stroke:#808000;stroke-linejoin:bevel;" x="296.65406" xlink:href="#mbf3d843ffc" y="162.211092"/>
     <use style="fill:#808000;stroke:#808000;stroke-linejoin:bevel;" x="301.485552" xlink:href="#mbf3d843ffc" y="173.441096"/>
     <use style="fill:#808000;stroke:#808000;stroke-linejoin:bevel;" x="306.527109" xlink:href="#mbf3d843ffc" y="176.45792"/>
     <use style="fill:#808000;stroke:#808000;stroke-linejoin:bevel;" x="311.3586" xlink:href="#mbf3d843ffc" y="173.578526"/>
     <use style="fill:#808000;stroke:#808000;stroke-linejoin:bevel;" x="316.190092" xlink:href="#mbf3d843ffc" y="153.855649"/>
     <use style="fill:#808000;stroke:#808000;stroke-linejoin:bevel;" x="325.853076" xlink:href="#mbf3d843ffc" y="160.130904"/>
     <use style="fill:#808000;stroke:#808000;stroke-linejoin:bevel;" x="330.684568" xlink:href="#mbf3d843ffc" y="172.874821"/>
     <use style="fill:#808000;stroke:#808000;stroke-linejoin:bevel;" x="340.557616" xlink:href="#mbf3d843ffc" y="197.234408"/>
     <use style="fill:#808000;stroke:#808000;stroke-linejoin:bevel;" x="345.389108" xlink:href="#mbf3d843ffc" y="160.769268"/>
     <use style="fill:#808000;stroke:#808000;stroke-linejoin:bevel;" x="350.2206" xlink:href="#mbf3d843ffc" y="194.650837"/>
     <use style="fill:#808000;stroke:#808000;stroke-linejoin:bevel;" x="355.052091" xlink:href="#mbf3d843ffc" y="148.282884"/>
     <use style="fill:#808000;stroke:#808000;stroke-linejoin:bevel;" x="364.715075" xlink:href="#mbf3d843ffc" y="205.912089"/>
     <use style="fill:#808000;stroke:#808000;stroke-linejoin:bevel;" x="369.756632" xlink:href="#mbf3d843ffc" y="163.219214"/>
     <use style="fill:#808000;stroke:#808000;stroke-linejoin:bevel;" x="374.588124" xlink:href="#mbf3d843ffc" y="185.156449"/>
     <use style="fill:#808000;stroke:#808000;stroke-linejoin:bevel;" x="384.251107" xlink:href="#mbf3d843ffc" y="196.918795"/>
     <use style="fill:#808000;stroke:#808000;stroke-linejoin:bevel;" x="393.914091" xlink:href="#mbf3d843ffc" y="187.566402"/>
     <use style="fill:#808000;stroke:#808000;stroke-linejoin:bevel;" x="427.944598" xlink:href="#mbf3d843ffc" y="173.754125"/>
     <use style="fill:#808000;stroke:#808000;stroke-linejoin:bevel;" x="437.817647" xlink:href="#mbf3d843ffc" y="171.573465"/>
     <use style="fill:#808000;stroke:#808000;stroke-linejoin:bevel;" x="447.48063" xlink:href="#mbf3d843ffc" y="171.573465"/>
    </g>
   </g>
   <g id="line2d_19">
    <defs>
     <path d="M 0 3  C 0.795609 3 1.55874 2.683901 2.12132 2.12132  C 2.683901 1.55874 3 0.795609 3 0  C 3 -0.795609 2.683901 -1.55874 2.12132 -2.12132  C 1.55874 -2.683901 0.795609 -3 0 -3  C -0.795609 -3 -1.55874 -2.683901 -2.12132 -2.12132  C -2.683901 -1.55874 -3 -0.795609 -3 0  C -3 0.795609 -2.683901 1.55874 -2.12132 2.12132  C -1.55874 2.683901 -0.795609 3 0 3  z " id="m3d3c88de90" style="stroke:#008080;"/>
    </defs>
    <g clip-path="url(#p37d5405fc6)">
     <use style="fill:#008080;stroke:#008080;" x="63.272" xlink:href="#m3d3c88de90" y="184.26651"/>
     <use style="fill:#008080;stroke:#008080;" x="72.934984" xlink:href="#m3d3c88de90" y="184.26651"/>
     <use style="fill:#008080;stroke:#008080;" x="92.471016" xlink:href="#m3d3c88de90" y="156.122443"/>
     <use style="fill:#008080;stroke:#008080;" x="112.007048" xlink:href="#m3d3c88de90" y="160.099963"/>
     <use style="fill:#008080;stroke:#008080;" x="116.838539" xlink:href="#m3d3c88de90" y="195.804313"/>
     <use style="fill:#008080;stroke:#008080;" x="126.501523" xlink:href="#m3d3c88de90" y="188.694338"/>
     <use style="fill:#008080;stroke:#008080;" x="131.333015" xlink:href="#m3d3c88de90" y="166.391009"/>
     <use style="fill:#008080;stroke:#008080;" x="136.164507" xlink:href="#m3d3c88de90" y="218.546904"/>
     <use style="fill:#008080;stroke:#008080;" x="150.869047" xlink:href="#m3d3c88de90" y="186.664835"/>
     <use style="fill:#008080;stroke:#008080;" x="155.700539" xlink:href="#m3d3c88de90" y="217.155717"/>
     <use style="fill:#008080;stroke:#008080;" x="160.53203" xlink:href="#m3d3c88de90" y="238.775796"/>
     <use style="fill:#008080;stroke:#008080;" x="165.363522" xlink:href="#m3d3c88de90" y="218.54212"/>
     <use style="fill:#008080;stroke:#008080;" x="170.195014" xlink:href="#m3d3c88de90" y="207.624914"/>
     <use style="fill:#008080;stroke:#008080;" x="175.026506" xlink:href="#m3d3c88de90" y="218.554548"/>
     <use style="fill:#008080;stroke:#008080;" x="180.068063" xlink:href="#m3d3c88de90" y="238.378972"/>
     <use style="fill:#008080;stroke:#008080;" x="184.899554" xlink:href="#m3d3c88de90" y="243.872594"/>
     <use style="fill:#008080;stroke:#008080;" x="189.731046" xlink:href="#m3d3c88de90" y="255.773428"/>
     <use style="fill:#008080;stroke:#008080;" x="194.562538" xlink:href="#m3d3c88de90" y="235.405216"/>
     <use style="fill:#008080;stroke:#008080;" x="199.39403" xlink:href="#m3d3c88de90" y="247.083554"/>
     <use style="fill:#008080;stroke:#008080;" x="204.225522" xlink:href="#m3d3c88de90" y="259.197259"/>
     <use style="fill:#008080;stroke:#008080;" x="209.267078" xlink:href="#m3d3c88de90" y="262.904513"/>
     <use style="fill:#008080;stroke:#008080;" x="214.09857" xlink:href="#m3d3c88de90" y="267.705112"/>
     <use style="fill:#008080;stroke:#008080;" x="218.930062" xlink:href="#m3d3c88de90" y="262.919711"/>
     <use style="fill:#008080;stroke:#008080;" x="223.761554" xlink:href="#m3d3c88de90" y="268.355265"/>
     <use style="fill:#008080;stroke:#008080;" x="228.593045" xlink:href="#m3d3c88de90" y="270.809998"/>
     <use style="fill:#008080;stroke:#008080;" x="233.424537" xlink:href="#m3d3c88de90" y="273.206219"/>
     <use style="fill:#008080;stroke:#008080;" x="238.256029" xlink:href="#m3d3c88de90" y="276.35554"/>
     <use style="fill:#008080;stroke:#008080;" x="243.297586" xlink:href="#m3d3c88de90" y="277.207905"/>
     <use style="fill:#008080;stroke:#008080;" x="248.129077" xlink:href="#m3d3c88de90" y="277.819742"/>
     <use style="fill:#008080;stroke:#008080;" x="252.960569" xlink:href="#m3d3c88de90" y="276.810445"/>
     <use style="fill:#008080;stroke:#008080;" x="257.792061" xlink:href="#m3d3c88de90" y="287.694545"/>
     <use style="fill:#008080;stroke:#008080;" x="262.623553" xlink:href="#m3d3c88de90" y="273.6322"/>
     <use style="fill:#008080;stroke:#008080;" x="267.455045" xlink:href="#m3d3c88de90" y="286.825619"/>
     <use style="fill:#008080;stroke:#008080;" x="272.496601" xlink:href="#m3d3c88de90" y="274.011253"/>
     <use style="fill:#008080;stroke:#008080;" x="277.328093" xlink:href="#m3d3c88de90" y="262.143994"/>
     <use style="fill:#008080;stroke:#008080;" x="282.159585" xlink:href="#m3d3c88de90" y="262.922719"/>
     <use style="fill:#008080;stroke:#008080;" x="286.991077" xlink:href="#m3d3c88de90" y="251.449805"/>
     <use style="fill:#008080;stroke:#008080;" x="291.822568" xlink:href="#m3d3c88de90" y="233.459609"/>
     <use style="fill:#008080;stroke:#008080;" x="296.65406" xlink:href="#m3d3c88de90" y="243.554679"/>
     <use style="fill:#008080;stroke:#008080;" x="301.485552" xlink:href="#m3d3c88de90" y="223.954074"/>
     <use style="fill:#008080;stroke:#008080;" x="306.527109" xlink:href="#m3d3c88de90" y="210.462686"/>
     <use style="fill:#008080;stroke:#008080;" x="311.3586" xlink:href="#m3d3c88de90" y="215.623121"/>
     <use style="fill:#008080;stroke:#008080;" x="316.190092" xlink:href="#m3d3c88de90" y="230.741893"/>
     <use style="fill:#008080;stroke:#008080;" x="325.853076" xlink:href="#m3d3c88de90" y="236.74154"/>
     <use style="fill:#008080;stroke:#008080;" x="330.684568" xlink:href="#m3d3c88de90" y="213.356356"/>
     <use style="fill:#008080;stroke:#008080;" x="340.557616" xlink:href="#m3d3c88de90" y="192.848194"/>
     <use style="fill:#008080;stroke:#008080;" x="345.389108" xlink:href="#m3d3c88de90" y="217.143777"/>
     <use style="fill:#008080;stroke:#008080;" x="350.2206" xlink:href="#m3d3c88de90" y="191.592936"/>
     <use style="fill:#008080;stroke:#008080;" x="355.052091" xlink:href="#m3d3c88de90" y="235.01298"/>
     <use style="fill:#008080;stroke:#008080;" x="364.715075" xlink:href="#m3d3c88de90" y="160.106257"/>
     <use style="fill:#008080;stroke:#008080;" x="369.756632" xlink:href="#m3d3c88de90" y="211.10258"/>
     <use style="fill:#008080;stroke:#008080;" x="374.588124" xlink:href="#m3d3c88de90" y="194.686139"/>
     <use style="fill:#008080;stroke:#008080;" x="384.251107" xlink:href="#m3d3c88de90" y="191.703203"/>
     <use style="fill:#008080;stroke:#008080;" x="393.914091" xlink:href="#m3d3c88de90" y="199.017449"/>
     <use style="fill:#008080;stroke:#008080;" x="427.944598" xlink:href="#m3d3c88de90" y="221.185757"/>
     <use style="fill:#008080;stroke:#008080;" x="437.817647" xlink:href="#m3d3c88de90" y="176.282011"/>
     <use style="fill:#008080;stroke:#008080;" x="447.48063" xlink:href="#m3d3c88de90" y="176.282011"/>
    </g>
   </g>
   <g id="line2d_20">
    <path clip-path="url(#p37d5405fc6)" d="M 61.771187 177.696473  L 88.785813 177.593075  L 103.193614 177.347409  L 112.198489 176.999778  L 119.402389 176.518597  L 124.805314 175.975889  L 130.208239 175.214409  L 135.611164 174.160785  L 139.213114 173.252008  L 142.815065 172.14207  L 146.417015 170.796058  L 150.018965 169.175773  L 153.620915 167.240217  L 156.772621 165.252309  L 159.474084 163.307343  L 162.175546 161.120703  L 164.877009 158.674447  L 167.578471 155.95165  L 170.279934 152.936978  L 172.981397 149.617328  L 175.682859 145.982563  L 178.384322 142.026304  L 181.085784 137.746815  L 184.687734 131.545608  L 188.289684 124.805191  L 192.116756 117.112226  L 196.619194 107.497624  L 204.273338 90.45354  L 209.676263 78.701076  L 213.278213 71.426554  L 215.979676 66.436965  L 218.230895 62.664028  L 220.482113 59.296987  L 222.620771 56.516093  L 224.421746 54.514731  L 226.222721 52.841323  L 227.798575 51.655379  L 229.374428 50.734848  L 230.950281 50.082792  L 232.526134 49.700091  L 233.876865 49.585611  L 235.227597 49.666351  L 236.80345 50.003533  L 238.379303 50.596779  L 239.955156 51.438885  L 241.531009 52.521475  L 243.331984 54.041117  L 245.132959 55.847241  L 247.159056 58.200956  L 249.410275 61.186484  L 251.548933 64.352119  L 254.250395 68.758778  L 257.402102 74.392136  L 261.004052 81.346365  L 265.50649 90.573032  L 280.814777 122.428446  L 284.866971 130.094747  L 288.243799 136.038612  L 291.84575 141.877329  L 294.547212 145.897087  L 297.248675 149.601733  L 299.950137 152.991447  L 302.6516 156.071663  L 305.353062 158.85221  L 308.054525 161.346426  L 310.755988 163.570308  L 313.45745 165.541718  L 316.158913 167.27967  L 318.860375 168.803714  L 322.462325 170.536786  L 326.064275 171.969402  L 328.765738 172.872393  L 331.917444 173.76364  L 335.519394 174.599093  L 340.92232 175.554231  L 346.325245 176.232603  L 351.72817 176.707641  L 358.93207 177.120423  L 367.936945 177.411077  L 382.344746 177.609465  L 409.359371 177.690193  L 448.980822 177.698498  L 448.980822 177.698498  " style="fill:none;stroke:#e74c3c;stroke-linecap:square;stroke-width:2;"/>
   </g>
   <g id="line2d_21">
    <path clip-path="url(#p37d5405fc6)" d="M 61.771187 177.698538  L 159.474084 177.804326  L 168.478959 178.047473  L 173.881884 178.386245  L 178.384322 178.879239  L 181.986272 179.485724  L 185.588222 180.357743  L 188.289684 181.238294  L 191.216269 182.465216  L 193.467488 183.636923  L 195.718707 185.033966  L 197.969925 186.679307  L 200.221144 188.591474  L 202.472363 190.781926  L 204.723582 193.252107  L 207.425044 196.568189  L 210.576751 200.854759  L 215.079188 207.466282  L 220.03187 214.668567  L 222.620771 218.045268  L 224.646868 220.360816  L 226.447843 222.114769  L 228.023696 223.379554  L 229.59955 224.368488  L 230.950281 224.9838  L 232.301012 225.377391  L 233.651743 225.546112  L 235.002475 225.490361  L 236.353206 225.213962  L 237.703937 224.723947  L 239.27979 223.895698  L 240.855644 222.810523  L 242.656619 221.286781  L 244.682716 219.260037  L 246.933934 216.69405  L 249.860519 213.006931  L 255.601127 205.300753  L 260.103564 199.461687  L 263.255271 195.73264  L 265.956733 192.848362  L 268.658196 190.282017  L 271.359658 188.041763  L 274.061121 186.120238  L 276.762584 184.498503  L 279.464046 183.149843  L 282.165509 182.043158  L 285.317215 181.014278  L 288.243799 180.269957  L 291.84575 179.57671  L 296.348187 178.970159  L 301.751112 178.504011  L 308.955013 178.149602  L 318.860375 177.913156  L 335.519394 177.764434  L 375.140845 177.701833  L 448.980822 177.698538  L 448.980822 177.698538  " style="fill:none;stroke:#808000;stroke-linecap:square;stroke-width:2;"/>
   </g>
   <g id="line2d_22">
    <path clip-path="url(#p37d5405fc6)" d="M 61.771187 177.700602  L 88.785813 177.803975  L 103.193614 178.049572  L 112.198489 178.397075  L 119.402389 178.877998  L 124.805314 179.420278  L 130.208239 180.18086  L 135.611164 181.232549  L 139.213114 182.138897  L 142.815065 183.244758  L 146.417015 184.583955  L 150.018965 186.192918  L 153.620915 188.10982  L 156.772621 190.071783  L 159.474084 191.983944  L 162.175546 194.123913  L 164.877009 196.504256  L 167.578471 199.134708  L 170.279934 202.021115  L 172.981397 205.164231  L 176.583347 209.743477  L 180.185297 214.732324  L 184.687734 221.439709  L 198.870413 243.154474  L 201.571875 246.728189  L 203.823094 249.407234  L 206.074313 251.767627  L 208.325532 253.776238  L 210.126507 255.116268  L 211.927482 256.215972  L 213.728457 257.080219  L 215.529432 257.721363  L 217.330407 258.158914  L 219.581626 258.459404  L 222.170527 258.541594  L 225.547356 258.389352  L 233.2015 257.962398  L 237.028572 258.027755  L 248.059544 258.431404  L 250.198202 258.21462  L 252.44942 257.766161  L 254.700639 257.050071  L 256.501614 256.262297  L 258.302589 255.270868  L 260.103564 254.069406  L 262.354783 252.270601  L 264.606002 250.149751  L 266.857221 247.725581  L 269.558683 244.456243  L 272.71039 240.225371  L 276.31234 234.984501  L 282.615752 225.313961  L 288.243799 216.787044  L 291.84575 211.641574  L 295.4477 206.855897  L 299.04965 202.490741  L 301.751112 199.512815  L 304.452575 196.79383  L 307.154037 194.331518  L 309.8555 192.118506  L 312.556963 190.143535  L 315.258425 188.392556  L 317.959888 186.84969  L 321.561838 185.086984  L 325.163788 183.623302  L 328.765738 182.418657  L 331.917444 181.548496  L 335.519394 180.732086  L 340.92232 179.797964  L 346.325245 179.134089  L 353.529145 178.548218  L 360.733045 178.19203  L 371.538895 177.909894  L 387.747671 177.753868  L 423.767172 177.700572  L 448.980822 177.698576  L 448.980822 177.698576  " style="fill:none;stroke:#008080;stroke-linecap:square;stroke-width:2;"/>
   </g>
   <g id="patch_3">
    <path d="M 63.272 300.76  L 63.272 13.32  " style="fill:none;stroke:#000000;stroke-linecap:square;stroke-linejoin:miter;stroke-width:0.8;"/>
   </g>
   <g id="patch_4">
    <path d="M 447.48 300.76  L 447.48 13.32  " style="fill:none;stroke:#000000;stroke-linecap:square;stroke-linejoin:miter;stroke-width:0.8;"/>
   </g>
   <g id="patch_5">
    <path d="M 63.272 300.76  L 447.48 300.76  " style="fill:none;stroke:#000000;stroke-linecap:square;stroke-linejoin:miter;stroke-width:0.8;"/>
   </g>
   <g id="patch_6">
    <path d="M 63.272 13.32  L 447.48 13.32  " style="fill:none;stroke:#000000;stroke-linecap:square;stroke-linejoin:miter;stroke-width:0.8;"/>
   </g>
   <g id="legend_1">
    <g id="patch_7">
     <path d="M 373.133125 109.38875  L 440.48 109.38875  Q 442.48 109.38875 442.48 107.38875  L 442.48 20.32  Q 442.48 18.32 440.48 18.32  L 373.133125 18.32  Q 371.133125 18.32 371.133125 20.32  L 371.133125 107.38875  Q 371.133125 109.38875 373.133125 109.38875  z " style="fill:#ffffff;opacity:0.8;stroke:#cccccc;stroke-linejoin:miter;"/>
    </g>
    <g id="line2d_23"/>
    <g id="line2d_24">
     <g>
      <use style="fill:#e74c3c;stroke:#e74c3c;stroke-linejoin:miter;" x="385.133125" xlink:href="#m916c218d15" y="26.418437"/>
     </g>
    </g>
    <g id="text_19">
     <!-- exp-Sn -->
     <defs>
      <path d="M 18.109375 8.203125  L 18.109375 -20.796875  L 9.078125 -20.796875  L 9.078125 54.6875  L 18.109375 54.6875  L 18.109375 46.390625  Q 20.953125 51.265625 25.265625 53.625  Q 29.59375 56 35.59375 56  Q 45.5625 56 51.78125 48.09375  Q 58.015625 40.1875 58.015625 27.296875  Q 58.015625 14.40625 51.78125 6.484375  Q 45.5625 -1.421875 35.59375 -1.421875  Q 29.59375 -1.421875 25.265625 0.953125  Q 20.953125 3.328125 18.109375 8.203125  z M 48.6875 27.296875  Q 48.6875 37.203125 44.609375 42.84375  Q 40.53125 48.484375 33.40625 48.484375  Q 26.265625 48.484375 22.1875 42.84375  Q 18.109375 37.203125 18.109375 27.296875  Q 18.109375 17.390625 22.1875 11.75  Q 26.265625 6.109375 33.40625 6.109375  Q 40.53125 6.109375 44.609375 11.75  Q 48.6875 17.390625 48.6875 27.296875  z " id="DejaVuSans-70"/>
      <path d="M 53.515625 70.515625  L 53.515625 60.890625  Q 47.90625 63.578125 42.921875 64.890625  Q 37.9375 66.21875 33.296875 66.21875  Q 25.25 66.21875 20.875 63.09375  Q 16.5 59.96875 16.5 54.203125  Q 16.5 49.359375 19.40625 46.890625  Q 22.3125 44.4375 30.421875 42.921875  L 36.375 41.703125  Q 47.40625 39.59375 52.65625 34.296875  Q 57.90625 29 57.90625 20.125  Q 57.90625 9.515625 50.796875 4.046875  Q 43.703125 -1.421875 29.984375 -1.421875  Q 24.8125 -1.421875 18.96875 -0.25  Q 13.140625 0.921875 6.890625 3.21875  L 6.890625 13.375  Q 12.890625 10.015625 18.65625 8.296875  Q 24.421875 6.59375 29.984375 6.59375  Q 38.421875 6.59375 43.015625 9.90625  Q 47.609375 13.234375 47.609375 19.390625  Q 47.609375 24.75 44.3125 27.78125  Q 41.015625 30.8125 33.5 32.328125  L 27.484375 33.5  Q 16.453125 35.6875 11.515625 40.375  Q 6.59375 45.0625 6.59375 53.421875  Q 6.59375 63.09375 13.40625 68.65625  Q 20.21875 74.21875 32.171875 74.21875  Q 37.3125 74.21875 42.625 73.28125  Q 47.953125 72.359375 53.515625 70.515625  z " id="DejaVuSans-53"/>
     </defs>
     <g transform="translate(403.133125 29.918437)scale(0.1 -0.1)">
      <use xlink:href="#DejaVuSans-65"/>
      <use x="61.507812" xlink:href="#DejaVuSans-78"/>
      <use x="120.6875" xlink:href="#DejaVuSans-70"/>
      <use x="184.164062" xlink:href="#DejaVuSans-2d"/>
      <use x="220.248047" xlink:href="#DejaVuSans-53"/>
      <use x="283.724609" xlink:href="#DejaVuSans-6e"/>
     </g>
    </g>
    <g id="line2d_25"/>
    <g id="line2d_26">
     <g>
      <use style="fill:#808000;stroke:#808000;stroke-linejoin:bevel;" x="385.133125" xlink:href="#mbf3d843ffc" y="41.096563"/>
     </g>
    </g>
    <g id="text_20">
     <!-- exp-Ag -->
     <defs>
      <path d="M 34.1875 63.1875  L 20.796875 26.90625  L 47.609375 26.90625  z M 28.609375 72.90625  L 39.796875 72.90625  L 67.578125 0  L 57.328125 0  L 50.6875 18.703125  L 17.828125 18.703125  L 11.1875 0  L 0.78125 0  z " id="DejaVuSans-41"/>
      <path d="M 45.40625 27.984375  Q 45.40625 37.75 41.375 43.109375  Q 37.359375 48.484375 30.078125 48.484375  Q 22.859375 48.484375 18.828125 43.109375  Q 14.796875 37.75 14.796875 27.984375  Q 14.796875 18.265625 18.828125 12.890625  Q 22.859375 7.515625 30.078125 7.515625  Q 37.359375 7.515625 41.375 12.890625  Q 45.40625 18.265625 45.40625 27.984375  z M 54.390625 6.78125  Q 54.390625 -7.171875 48.1875 -13.984375  Q 42 -20.796875 29.203125 -20.796875  Q 24.46875 -20.796875 20.265625 -20.09375  Q 16.0625 -19.390625 12.109375 -17.921875  L 12.109375 -9.1875  Q 16.0625 -11.328125 19.921875 -12.34375  Q 23.78125 -13.375 27.78125 -13.375  Q 36.625 -13.375 41.015625 -8.765625  Q 45.40625 -4.15625 45.40625 5.171875  L 45.40625 9.625  Q 42.625 4.78125 38.28125 2.390625  Q 33.9375 0 27.875 0  Q 17.828125 0 11.671875 7.65625  Q 5.515625 15.328125 5.515625 27.984375  Q 5.515625 40.671875 11.671875 48.328125  Q 17.828125 56 27.875 56  Q 33.9375 56 38.28125 53.609375  Q 42.625 51.21875 45.40625 46.390625  L 45.40625 54.6875  L 54.390625 54.6875  z " id="DejaVuSans-67"/>
     </defs>
     <g transform="translate(403.133125 44.596563)scale(0.1 -0.1)">
      <use xlink:href="#DejaVuSans-65"/>
      <use x="61.507812" xlink:href="#DejaVuSans-78"/>
      <use x="120.6875" xlink:href="#DejaVuSans-70"/>
      <use x="184.164062" xlink:href="#DejaVuSans-2d"/>
      <use x="220.216797" xlink:href="#DejaVuSans-41"/>
      <use x="288.625" xlink:href="#DejaVuSans-67"/>
     </g>
    </g>
    <g id="line2d_27"/>
    <g id="line2d_28">
     <g>
      <use style="fill:#008080;stroke:#008080;" x="385.133125" xlink:href="#m3d3c88de90" y="55.774687"/>
     </g>
    </g>
    <g id="text_21">
     <!-- exp-Cu -->
     <defs>
      <path d="M 64.40625 67.28125  L 64.40625 56.890625  Q 59.421875 61.53125 53.78125 63.8125  Q 48.140625 66.109375 41.796875 66.109375  Q 29.296875 66.109375 22.65625 58.46875  Q 16.015625 50.828125 16.015625 36.375  Q 16.015625 21.96875 22.65625 14.328125  Q 29.296875 6.6875 41.796875 6.6875  Q 48.140625 6.6875 53.78125 8.984375  Q 59.421875 11.28125 64.40625 15.921875  L 64.40625 5.609375  Q 59.234375 2.09375 53.4375 0.328125  Q 47.65625 -1.421875 41.21875 -1.421875  Q 24.65625 -1.421875 15.125 8.703125  Q 5.609375 18.84375 5.609375 36.375  Q 5.609375 53.953125 15.125 64.078125  Q 24.65625 74.21875 41.21875 74.21875  Q 47.75 74.21875 53.53125 72.484375  Q 59.328125 70.75 64.40625 67.28125  z " id="DejaVuSans-43"/>
     </defs>
     <g transform="translate(403.133125 59.274687)scale(0.1 -0.1)">
      <use xlink:href="#DejaVuSans-65"/>
      <use x="61.507812" xlink:href="#DejaVuSans-78"/>
      <use x="120.6875" xlink:href="#DejaVuSans-70"/>
      <use x="184.164062" xlink:href="#DejaVuSans-2d"/>
      <use x="220.248047" xlink:href="#DejaVuSans-43"/>
      <use x="290.072266" xlink:href="#DejaVuSans-75"/>
     </g>
    </g>
    <g id="line2d_29">
     <path d="M 375.133125 70.452812  L 395.133125 70.452812  " style="fill:none;stroke:#e74c3c;stroke-linecap:square;stroke-width:2;"/>
    </g>
    <g id="line2d_30"/>
    <g id="text_22">
     <!-- sim-Sn -->
     <g transform="translate(403.133125 73.952812)scale(0.1 -0.1)">
      <use xlink:href="#DejaVuSans-73"/>
      <use x="52.099609" xlink:href="#DejaVuSans-69"/>
      <use x="79.882812" xlink:href="#DejaVuSans-6d"/>
      <use x="177.294922" xlink:href="#DejaVuSans-2d"/>
      <use x="213.378906" xlink:href="#DejaVuSans-53"/>
      <use x="276.855469" xlink:href="#DejaVuSans-6e"/>
     </g>
    </g>
    <g id="line2d_31">
     <path d="M 375.133125 85.130938  L 395.133125 85.130938  " style="fill:none;stroke:#808000;stroke-linecap:square;stroke-width:2;"/>
    </g>
    <g id="line2d_32"/>
    <g id="text_23">
     <!-- sim-Ag -->
     <g transform="translate(403.133125 88.630938)scale(0.1 -0.1)">
      <use xlink:href="#DejaVuSans-73"/>
      <use x="52.099609" xlink:href="#DejaVuSans-69"/>
      <use x="79.882812" xlink:href="#DejaVuSans-6d"/>
      <use x="177.294922" xlink:href="#DejaVuSans-2d"/>
      <use x="213.347656" xlink:href="#DejaVuSans-41"/>
      <use x="281.755859" xlink:href="#DejaVuSans-67"/>
     </g>
    </g>
    <g id="line2d_33">
     <path d="M 375.133125 99.809062  L 395.133125 99.809062  " style="fill:none;stroke:#008080;stroke-linecap:square;stroke-width:2;"/>
    </g>
    <g id="line2d_34"/>
    <g id="text_24">
     <!-- sim-Cu -->
     <g transform="translate(403.133125 103.309062)scale(0.1 -0.1)">
      <use xlink:href="#DejaVuSans-73"/>
      <use x="52.099609" xlink:href="#DejaVuSans-69"/>
      <use x="79.882812" xlink:href="#DejaVuSans-6d"/>
      <use x="177.294922" xlink:href="#DejaVuSans-2d"/>
      <use x="213.378906" xlink:href="#DejaVuSans-43"/>
      <use x="283.203125" xlink:href="#DejaVuSans-75"/>
     </g>
    </g>
   </g>
  </g>
 </g>
 <defs>
  <clipPath id="p37d5405fc6">
   <rect height="287.44" width="384.208" x="63.272" y="13.32"/>
  </clipPath>
 </defs>
</g>
    <g transform="translate(10, 300) scale(1) ">
      <g transform="translate(0, 0) scale(3.0) "><defs id="defs831"/>
  <sodipodi:namedview xmlns:sodipodi="http://sodipodi.sourceforge.net/DTD/sodipodi-0.dtd" xmlns:inkscape="http://www.inkscape.org/namespaces/inkscape" id="base" pagecolor="#ffffff" bordercolor="#666666" borderopacity="1.0" inkscape:pageopacity="0.0" inkscape:pageshadow="2" inkscape:zoom="1.979899" inkscape:cx="-12.763683" inkscape:cy="-16.680883" inkscape:document-units="mm" inkscape:current-layer="layer1" showgrid="false" inkscape:window-width="1920" inkscape:window-height="1001" inkscape:window-x="-9" inkscape:window-y="-9" inkscape:window-maximized="1" units="pt"/>
  <metadata xmlns:rdf="http://www.w3.org/1999/02/22-rdf-syntax-ns#" xmlns:cc="http://creativecommons.org/ns#" xmlns:dc="http://purl.org/dc/elements/1.1/" id="metadata834">
    <rdf:RDF>
      <cc:Work rdf:about="">
        <dc:format>image/svg+xml</dc:format>
        <dc:type rdf:resource="http://purl.org/dc/dcmitype/StillImage"/>
        <dc:title/>
      </cc:Work>
    </rdf:RDF>
  </metadata>
  <g xmlns:inkscape="http://www.inkscape.org/namespaces/inkscape" xmlns:sodipodi="http://sodipodi.sourceforge.net/DTD/sodipodi-0.dtd" inkscape:label="Layer 1" inkscape:groupmode="layer" id="layer1" transform="translate(0,-288.81557)">
    <g id="g4761" transform="matrix(0.07377843,0,0,0.07377843,-0.76923022,275.45946)">
      <path inkscape:connector-curvature="0" id="path1959-6-7-1-6-5-4-0-3-2-6-0-3-9-6" style="font-style:normal;font-variant:normal;font-weight:bold;font-stretch:normal;font-size:120.99466705px;line-height:1.25;font-family:Aharoni;-inkscape-font-specification:'Aharoni, Bold';font-variant-ligatures:normal;font-variant-caps:normal;font-variant-numeric:normal;font-feature-settings:normal;text-align:start;letter-spacing:0px;word-spacing:0px;writing-mode:lr-tb;text-anchor:start;fill:#000000;fill-opacity:1;stroke:none;stroke-width:2.37649584" d="M 52.937412,287.55677 H 40.587702 V 265.43005 H 22.776041 v 22.12672 h -12.34982 v -53.17432 h 12.34982 v 20.5296 h 17.811661 v -20.5296 h 12.34971 z"/>
      <path inkscape:connector-curvature="0" id="path1961-2-9-7-9-3-1-6-5-1-5-8-7-8-2" style="font-style:normal;font-variant:normal;font-weight:bold;font-stretch:normal;font-size:120.99466705px;line-height:1.25;font-family:Aharoni;-inkscape-font-specification:'Aharoni, Bold';font-variant-ligatures:normal;font-variant-caps:normal;font-variant-numeric:normal;font-feature-settings:normal;text-align:start;letter-spacing:0px;word-spacing:0px;writing-mode:lr-tb;text-anchor:start;fill:#000000;fill-opacity:1;stroke:none;stroke-width:2.37649584" d="m 69.681125,237.49895 q 0,3.0385 -1.87856,5.1421 -1.84375,2.0647 -4.55721,2.0647 -2.67866,0 -4.55722,-2.1036 -1.84375,-2.1036 -1.84375,-5.1032 0,-2.9996 1.84375,-5.0642 1.87856,-2.1036 4.55722,-2.1036 2.67865,0 4.55721,2.1036 1.87856,2.0646 1.87856,5.0642 z m -0.73057,50.05782 h -11.41048 v -36.15072 h 11.41048 z"/>
      <path inkscape:connector-curvature="0" id="path1963-3-1-2-8-3-6-3-3-3-4-7-6-0-8" style="font-style:normal;font-variant:normal;font-weight:bold;font-stretch:normal;font-size:120.99466705px;line-height:1.25;font-family:Aharoni;-inkscape-font-specification:'Aharoni, Bold';font-variant-ligatures:normal;font-variant-caps:normal;font-variant-numeric:normal;font-feature-settings:normal;text-align:start;letter-spacing:0px;word-spacing:0px;writing-mode:lr-tb;text-anchor:start;fill:#000000;fill-opacity:1;stroke:none;stroke-width:2.37649584" d="m 93.369625,261.92405 h -6.50536 v 25.63272 h -11.4104 v -25.63272 h -3.75712 v -10.518 h 3.75712 v -10.8686 h 11.4104 v 10.8686 h 6.50536 z"/>
      <path id="path1967-3-3-6-2-9-6-2-5-3-0-9-8-2-1" style="font-style:normal;font-variant:normal;font-weight:bold;font-stretch:normal;font-size:120.99466705px;line-height:1.25;font-family:Aharoni;-inkscape-font-specification:'Aharoni, Bold';font-variant-ligatures:normal;font-variant-caps:normal;font-variant-numeric:normal;font-feature-settings:normal;text-align:start;letter-spacing:0px;word-spacing:0px;writing-mode:lr-tb;text-anchor:start;fill:#000000;fill-opacity:1;stroke:none;stroke-width:2.37649584" d="m 160.61447,287.55677 h -12.34971 v -53.17432 h 12.34971 z" inkscape:connector-curvature="0"/>
      <path inkscape:connector-curvature="0" id="path1969-8-0-8-5-3-5-6-6-3-9-8-6-2-0" style="font-style:normal;font-variant:normal;font-weight:bold;font-stretch:normal;font-size:120.99466705px;line-height:1.25;font-family:Aharoni;-inkscape-font-specification:'Aharoni, Bold';font-variant-ligatures:normal;font-variant-caps:normal;font-variant-numeric:normal;font-feature-settings:normal;text-align:start;letter-spacing:0px;word-spacing:0px;writing-mode:lr-tb;text-anchor:start;fill:#000000;fill-opacity:1;stroke:none;stroke-width:2.37649584" d="m 201.6896,284.86883 q -6.05314,2.68794 -11.20172,2.68794 -8.97528,0 -16.07201,-6.42764 -9.04489,-8.21959 -9.04489,-21.42558 0,-13.2448 9.04489,-21.4644 7.09673,-6.4277 16.17636,-6.4277 4.93989,0 11.09737,2.6879 v 16.5561 q -1.73941,-2.3763 -3.54836,-3.5839 -3.30489,-2.2204 -7.09679,-2.2204 -4.8007,0 -8.34907,3.2333 -4.48766,4.0903 -4.48766,11.2191 0,7.0899 4.48766,11.1803 3.54837,3.23328 8.34907,3.23328 3.7919,0 7.09679,-2.22049 1.77415,-1.16869 3.54836,-3.58389 z"/>
      <path inkscape:transform-center-y="-13.656107" inkscape:transform-center-x="-3.9758045" sodipodi:nodetypes="csssssc" inkscape:connector-curvature="0" id="rect815-3-0-9-3-5-6-0-4-03-7-3-7-5-3-2-76-3-8-8-5-3-7-8-0-1-3-7-9-2-8-1" d="m 104.61223,181.4353 c 0,0 17.68257,27.27493 22.63096,34.41579 7.92879,11.44185 16.42741,30.36094 17.92806,45.50275 1.21005,12.20999 -1.38345,26.51285 -17.32077,30.11208 -11.70405,2.64313 -26.75007,-5.41371 -30.334975,-20.50903 -3.30533,-13.91816 -2.13088,-34.61412 0.0984,-48.67354 1.22049,-7.69719 5.657305,-36.06774 6.998335,-40.84805 z" style="font-style:normal;font-weight:normal;font-size:242.08590698px;line-height:1.25;font-family:sans-serif;letter-spacing:0px;word-spacing:0px;opacity:1;fill:#00456b;fill-opacity:1;stroke:none;stroke-width:0.6720385;stroke-miterlimit:4;stroke-dasharray:none;stroke-dashoffset:0;stroke-opacity:1;paint-order:markers fill stroke"/>
      <path sodipodi:nodetypes="ccscscsccscccscc" d="m 107.52748,246.32531 6.45576,30.78617 6.82019,-1.47997 c 5.75791,-1.24946 9.70999,-3.40081 11.85576,-6.45394 2.16431,-3.05721 2.68673,-7.25521 1.56721,-12.59398 -1.11209,-5.30332 -3.26743,-8.89247 -6.46601,-10.76744 -3.18372,-1.89669 -7.65528,-2.22015 -13.4127,-0.97081 z m -8.759905,-5.09591 12.713095,-2.78742 c 8.8634,-1.94336 15.73718,-1.59097 20.62135,1.05715 4.88003,2.62843 8.10326,7.71587 9.6697,15.26232 1.57464,7.58584 0.64804,13.61405 -2.77981,18.08462 -3.42783,4.4705 -9.55303,7.67294 -18.37559,9.60735 l -12.71311,2.78742 z" style="font-style:normal;font-weight:normal;font-size:242.08590698px;line-height:1.25;font-family:sans-serif;letter-spacing:0px;word-spacing:0px;fill:#ffffff;fill-opacity:1;stroke:none;stroke-width:1.60286868" id="path1193-3-5-3-2-7-4-5-6-0-0-6-9-2-4-7-0-0" inkscape:connector-curvature="0"/>
    </g>
  </g>
</g>
    </g>
  </g>
</svg>
