<?xml version='1.0' encoding='ASCII' standalone='yes'?>
<svg xmlns:xlink="http://www.w3.org/1999/xlink" xmlns="http://www.w3.org/2000/svg" version="1.1" width="460.8px" viewBox="0 0 460.8px 345.6px" height="345.6px">
  <g>
    <g><defs>
  <style type="text/css">
*{stroke-linecap:butt;stroke-linejoin:round;}
  </style>
 </defs>
 <g id="figure_1">
  <g id="patch_1">
   <path d="M 0 345.6  L 460.8 345.6  L 460.8 0  L 0 0  z " style="fill:#ffffff;"/>
  </g>
  <g id="axes_1">
   <g id="patch_2">
    <path d="M 62.12 300.76  L 447.48 300.76  L 447.48 13.32  L 62.12 13.32  z " style="fill:#ffffff;"/>
   </g>
   <g id="matplotlib.axis_1">
    <g id="xtick_1">
     <g id="line2d_1">
      <defs>
       <path d="M 0 0  L 0 3.5  " id="m645b22a5e4" style="stroke:#000000;stroke-width:0.8;"/>
      </defs>
      <g>
       <use style="stroke:#000000;stroke-width:0.8;" x="62.12" xlink:href="#m645b22a5e4" y="300.76"/>
      </g>
     </g>
     <g id="text_1">
      <!-- 0 -->
      <defs>
       <path d="M 31.78125 66.40625  Q 24.171875 66.40625 20.328125 58.90625  Q 16.5 51.421875 16.5 36.375  Q 16.5 21.390625 20.328125 13.890625  Q 24.171875 6.390625 31.78125 6.390625  Q 39.453125 6.390625 43.28125 13.890625  Q 47.125 21.390625 47.125 36.375  Q 47.125 51.421875 43.28125 58.90625  Q 39.453125 66.40625 31.78125 66.40625  z M 31.78125 74.21875  Q 44.046875 74.21875 50.515625 64.515625  Q 56.984375 54.828125 56.984375 36.375  Q 56.984375 17.96875 50.515625 8.265625  Q 44.046875 -1.421875 31.78125 -1.421875  Q 19.53125 -1.421875 13.0625 8.265625  Q 6.59375 17.96875 6.59375 36.375  Q 6.59375 54.828125 13.0625 64.515625  Q 19.53125 74.21875 31.78125 74.21875  z " id="DejaVuSans-30"/>
      </defs>
      <g transform="translate(58.93875 315.358437)scale(0.1 -0.1)">
       <use xlink:href="#DejaVuSans-30"/>
      </g>
     </g>
    </g>
    <g id="xtick_2">
     <g id="line2d_2">
      <g>
       <use style="stroke:#000000;stroke-width:0.8;" x="114.793679" xlink:href="#m645b22a5e4" y="300.76"/>
      </g>
     </g>
     <g id="text_2">
      <!-- 250 -->
      <defs>
       <path d="M 19.1875 8.296875  L 53.609375 8.296875  L 53.609375 0  L 7.328125 0  L 7.328125 8.296875  Q 12.9375 14.109375 22.625 23.890625  Q 32.328125 33.6875 34.8125 36.53125  Q 39.546875 41.84375 41.421875 45.53125  Q 43.3125 49.21875 43.3125 52.78125  Q 43.3125 58.59375 39.234375 62.25  Q 35.15625 65.921875 28.609375 65.921875  Q 23.96875 65.921875 18.8125 64.3125  Q 13.671875 62.703125 7.8125 59.421875  L 7.8125 69.390625  Q 13.765625 71.78125 18.9375 73  Q 24.125 74.21875 28.421875 74.21875  Q 39.75 74.21875 46.484375 68.546875  Q 53.21875 62.890625 53.21875 53.421875  Q 53.21875 48.921875 51.53125 44.890625  Q 49.859375 40.875 45.40625 35.40625  Q 44.1875 33.984375 37.640625 27.21875  Q 31.109375 20.453125 19.1875 8.296875  z " id="DejaVuSans-32"/>
       <path d="M 10.796875 72.90625  L 49.515625 72.90625  L 49.515625 64.59375  L 19.828125 64.59375  L 19.828125 46.734375  Q 21.96875 47.46875 24.109375 47.828125  Q 26.265625 48.1875 28.421875 48.1875  Q 40.625 48.1875 47.75 41.5  Q 54.890625 34.8125 54.890625 23.390625  Q 54.890625 11.625 47.5625 5.09375  Q 40.234375 -1.421875 26.90625 -1.421875  Q 22.3125 -1.421875 17.546875 -0.640625  Q 12.796875 0.140625 7.71875 1.703125  L 7.71875 11.625  Q 12.109375 9.234375 16.796875 8.0625  Q 21.484375 6.890625 26.703125 6.890625  Q 35.15625 6.890625 40.078125 11.328125  Q 45.015625 15.765625 45.015625 23.390625  Q 45.015625 31 40.078125 35.4375  Q 35.15625 39.890625 26.703125 39.890625  Q 22.75 39.890625 18.8125 39.015625  Q 14.890625 38.140625 10.796875 36.28125  z " id="DejaVuSans-35"/>
      </defs>
      <g transform="translate(105.249929 315.358437)scale(0.1 -0.1)">
       <use xlink:href="#DejaVuSans-32"/>
       <use x="63.623047" xlink:href="#DejaVuSans-35"/>
       <use x="127.246094" xlink:href="#DejaVuSans-30"/>
      </g>
     </g>
    </g>
    <g id="xtick_3">
     <g id="line2d_3">
      <g>
       <use style="stroke:#000000;stroke-width:0.8;" x="167.467357" xlink:href="#m645b22a5e4" y="300.76"/>
      </g>
     </g>
     <g id="text_3">
      <!-- 500 -->
      <g transform="translate(157.923607 315.358437)scale(0.1 -0.1)">
       <use xlink:href="#DejaVuSans-35"/>
       <use x="63.623047" xlink:href="#DejaVuSans-30"/>
       <use x="127.246094" xlink:href="#DejaVuSans-30"/>
      </g>
     </g>
    </g>
    <g id="xtick_4">
     <g id="line2d_4">
      <g>
       <use style="stroke:#000000;stroke-width:0.8;" x="220.141036" xlink:href="#m645b22a5e4" y="300.76"/>
      </g>
     </g>
     <g id="text_4">
      <!-- 750 -->
      <defs>
       <path d="M 8.203125 72.90625  L 55.078125 72.90625  L 55.078125 68.703125  L 28.609375 0  L 18.3125 0  L 43.21875 64.59375  L 8.203125 64.59375  z " id="DejaVuSans-37"/>
      </defs>
      <g transform="translate(210.597286 315.358437)scale(0.1 -0.1)">
       <use xlink:href="#DejaVuSans-37"/>
       <use x="63.623047" xlink:href="#DejaVuSans-35"/>
       <use x="127.246094" xlink:href="#DejaVuSans-30"/>
      </g>
     </g>
    </g>
    <g id="xtick_5">
     <g id="line2d_5">
      <g>
       <use style="stroke:#000000;stroke-width:0.8;" x="272.814714" xlink:href="#m645b22a5e4" y="300.76"/>
      </g>
     </g>
     <g id="text_5">
      <!-- 1000 -->
      <defs>
       <path d="M 12.40625 8.296875  L 28.515625 8.296875  L 28.515625 63.921875  L 10.984375 60.40625  L 10.984375 69.390625  L 28.421875 72.90625  L 38.28125 72.90625  L 38.28125 8.296875  L 54.390625 8.296875  L 54.390625 0  L 12.40625 0  z " id="DejaVuSans-31"/>
      </defs>
      <g transform="translate(260.089714 315.358437)scale(0.1 -0.1)">
       <use xlink:href="#DejaVuSans-31"/>
       <use x="63.623047" xlink:href="#DejaVuSans-30"/>
       <use x="127.246094" xlink:href="#DejaVuSans-30"/>
       <use x="190.869141" xlink:href="#DejaVuSans-30"/>
      </g>
     </g>
    </g>
    <g id="xtick_6">
     <g id="line2d_6">
      <g>
       <use style="stroke:#000000;stroke-width:0.8;" x="325.488393" xlink:href="#m645b22a5e4" y="300.76"/>
      </g>
     </g>
     <g id="text_6">
      <!-- 1250 -->
      <g transform="translate(312.763393 315.358437)scale(0.1 -0.1)">
       <use xlink:href="#DejaVuSans-31"/>
       <use x="63.623047" xlink:href="#DejaVuSans-32"/>
       <use x="127.246094" xlink:href="#DejaVuSans-35"/>
       <use x="190.869141" xlink:href="#DejaVuSans-30"/>
      </g>
     </g>
    </g>
    <g id="xtick_7">
     <g id="line2d_7">
      <g>
       <use style="stroke:#000000;stroke-width:0.8;" x="378.162071" xlink:href="#m645b22a5e4" y="300.76"/>
      </g>
     </g>
     <g id="text_7">
      <!-- 1500 -->
      <g transform="translate(365.437071 315.358437)scale(0.1 -0.1)">
       <use xlink:href="#DejaVuSans-31"/>
       <use x="63.623047" xlink:href="#DejaVuSans-35"/>
       <use x="127.246094" xlink:href="#DejaVuSans-30"/>
       <use x="190.869141" xlink:href="#DejaVuSans-30"/>
      </g>
     </g>
    </g>
    <g id="xtick_8">
     <g id="line2d_8">
      <g>
       <use style="stroke:#000000;stroke-width:0.8;" x="430.83575" xlink:href="#m645b22a5e4" y="300.76"/>
      </g>
     </g>
     <g id="text_8">
      <!-- 1750 -->
      <g transform="translate(418.11075 315.358437)scale(0.1 -0.1)">
       <use xlink:href="#DejaVuSans-31"/>
       <use x="63.623047" xlink:href="#DejaVuSans-37"/>
       <use x="127.246094" xlink:href="#DejaVuSans-35"/>
       <use x="190.869141" xlink:href="#DejaVuSans-30"/>
      </g>
     </g>
    </g>
    <g id="text_9">
     <!-- Distance ($\mu$m) -->
     <defs>
      <path d="M 19.671875 64.796875  L 19.671875 8.109375  L 31.59375 8.109375  Q 46.6875 8.109375 53.6875 14.9375  Q 60.6875 21.78125 60.6875 36.53125  Q 60.6875 51.171875 53.6875 57.984375  Q 46.6875 64.796875 31.59375 64.796875  z M 9.8125 72.90625  L 30.078125 72.90625  Q 51.265625 72.90625 61.171875 64.09375  Q 71.09375 55.28125 71.09375 36.53125  Q 71.09375 17.671875 61.125 8.828125  Q 51.171875 0 30.078125 0  L 9.8125 0  z " id="DejaVuSans-44"/>
      <path d="M 9.421875 54.6875  L 18.40625 54.6875  L 18.40625 0  L 9.421875 0  z M 9.421875 75.984375  L 18.40625 75.984375  L 18.40625 64.59375  L 9.421875 64.59375  z " id="DejaVuSans-69"/>
      <path d="M 44.28125 53.078125  L 44.28125 44.578125  Q 40.484375 46.53125 36.375 47.5  Q 32.28125 48.484375 27.875 48.484375  Q 21.1875 48.484375 17.84375 46.4375  Q 14.5 44.390625 14.5 40.28125  Q 14.5 37.15625 16.890625 35.375  Q 19.28125 33.59375 26.515625 31.984375  L 29.59375 31.296875  Q 39.15625 29.25 43.1875 25.515625  Q 47.21875 21.78125 47.21875 15.09375  Q 47.21875 7.46875 41.1875 3.015625  Q 35.15625 -1.421875 24.609375 -1.421875  Q 20.21875 -1.421875 15.453125 -0.5625  Q 10.6875 0.296875 5.421875 2  L 5.421875 11.28125  Q 10.40625 8.6875 15.234375 7.390625  Q 20.0625 6.109375 24.8125 6.109375  Q 31.15625 6.109375 34.5625 8.28125  Q 37.984375 10.453125 37.984375 14.40625  Q 37.984375 18.0625 35.515625 20.015625  Q 33.0625 21.96875 24.703125 23.78125  L 21.578125 24.515625  Q 13.234375 26.265625 9.515625 29.90625  Q 5.8125 33.546875 5.8125 39.890625  Q 5.8125 47.609375 11.28125 51.796875  Q 16.75 56 26.8125 56  Q 31.78125 56 36.171875 55.265625  Q 40.578125 54.546875 44.28125 53.078125  z " id="DejaVuSans-73"/>
      <path d="M 18.3125 70.21875  L 18.3125 54.6875  L 36.8125 54.6875  L 36.8125 47.703125  L 18.3125 47.703125  L 18.3125 18.015625  Q 18.3125 11.328125 20.140625 9.421875  Q 21.96875 7.515625 27.59375 7.515625  L 36.8125 7.515625  L 36.8125 0  L 27.59375 0  Q 17.1875 0 13.234375 3.875  Q 9.28125 7.765625 9.28125 18.015625  L 9.28125 47.703125  L 2.6875 47.703125  L 2.6875 54.6875  L 9.28125 54.6875  L 9.28125 70.21875  z " id="DejaVuSans-74"/>
      <path d="M 34.28125 27.484375  Q 23.390625 27.484375 19.1875 25  Q 14.984375 22.515625 14.984375 16.5  Q 14.984375 11.71875 18.140625 8.90625  Q 21.296875 6.109375 26.703125 6.109375  Q 34.1875 6.109375 38.703125 11.40625  Q 43.21875 16.703125 43.21875 25.484375  L 43.21875 27.484375  z M 52.203125 31.203125  L 52.203125 0  L 43.21875 0  L 43.21875 8.296875  Q 40.140625 3.328125 35.546875 0.953125  Q 30.953125 -1.421875 24.3125 -1.421875  Q 15.921875 -1.421875 10.953125 3.296875  Q 6 8.015625 6 15.921875  Q 6 25.140625 12.171875 29.828125  Q 18.359375 34.515625 30.609375 34.515625  L 43.21875 34.515625  L 43.21875 35.40625  Q 43.21875 41.609375 39.140625 45  Q 35.0625 48.390625 27.6875 48.390625  Q 23 48.390625 18.546875 47.265625  Q 14.109375 46.140625 10.015625 43.890625  L 10.015625 52.203125  Q 14.9375 54.109375 19.578125 55.046875  Q 24.21875 56 28.609375 56  Q 40.484375 56 46.34375 49.84375  Q 52.203125 43.703125 52.203125 31.203125  z " id="DejaVuSans-61"/>
      <path d="M 54.890625 33.015625  L 54.890625 0  L 45.90625 0  L 45.90625 32.71875  Q 45.90625 40.484375 42.875 44.328125  Q 39.84375 48.1875 33.796875 48.1875  Q 26.515625 48.1875 22.3125 43.546875  Q 18.109375 38.921875 18.109375 30.90625  L 18.109375 0  L 9.078125 0  L 9.078125 54.6875  L 18.109375 54.6875  L 18.109375 46.1875  Q 21.34375 51.125 25.703125 53.5625  Q 30.078125 56 35.796875 56  Q 45.21875 56 50.046875 50.171875  Q 54.890625 44.34375 54.890625 33.015625  z " id="DejaVuSans-6e"/>
      <path d="M 48.78125 52.59375  L 48.78125 44.1875  Q 44.96875 46.296875 41.140625 47.34375  Q 37.3125 48.390625 33.40625 48.390625  Q 24.65625 48.390625 19.8125 42.84375  Q 14.984375 37.3125 14.984375 27.296875  Q 14.984375 17.28125 19.8125 11.734375  Q 24.65625 6.203125 33.40625 6.203125  Q 37.3125 6.203125 41.140625 7.25  Q 44.96875 8.296875 48.78125 10.40625  L 48.78125 2.09375  Q 45.015625 0.34375 40.984375 -0.53125  Q 36.96875 -1.421875 32.421875 -1.421875  Q 20.0625 -1.421875 12.78125 6.34375  Q 5.515625 14.109375 5.515625 27.296875  Q 5.515625 40.671875 12.859375 48.328125  Q 20.21875 56 33.015625 56  Q 37.15625 56 41.109375 55.140625  Q 45.0625 54.296875 48.78125 52.59375  z " id="DejaVuSans-63"/>
      <path d="M 56.203125 29.59375  L 56.203125 25.203125  L 14.890625 25.203125  Q 15.484375 15.921875 20.484375 11.0625  Q 25.484375 6.203125 34.421875 6.203125  Q 39.59375 6.203125 44.453125 7.46875  Q 49.3125 8.734375 54.109375 11.28125  L 54.109375 2.78125  Q 49.265625 0.734375 44.1875 -0.34375  Q 39.109375 -1.421875 33.890625 -1.421875  Q 20.796875 -1.421875 13.15625 6.1875  Q 5.515625 13.8125 5.515625 26.8125  Q 5.515625 40.234375 12.765625 48.109375  Q 20.015625 56 32.328125 56  Q 43.359375 56 49.78125 48.890625  Q 56.203125 41.796875 56.203125 29.59375  z M 47.21875 32.234375  Q 47.125 39.59375 43.09375 43.984375  Q 39.0625 48.390625 32.421875 48.390625  Q 24.90625 48.390625 20.390625 44.140625  Q 15.875 39.890625 15.1875 32.171875  z " id="DejaVuSans-65"/>
      <path id="DejaVuSans-20"/>
      <path d="M 31 75.875  Q 24.46875 64.65625 21.28125 53.65625  Q 18.109375 42.671875 18.109375 31.390625  Q 18.109375 20.125 21.3125 9.0625  Q 24.515625 -2 31 -13.1875  L 23.1875 -13.1875  Q 15.875 -1.703125 12.234375 9.375  Q 8.59375 20.453125 8.59375 31.390625  Q 8.59375 42.28125 12.203125 53.3125  Q 15.828125 64.359375 23.1875 75.875  z " id="DejaVuSans-28"/>
      <path d="M -1.3125 -20.796875  L 13.375 54.6875  L 22.40625 54.6875  L 15.765625 20.65625  Q 15.578125 19.625 15.421875 18.359375  Q 15.28125 17.09375 15.28125 15.828125  Q 15.28125 11.28125 18.140625 8.828125  Q 21 6.390625 26.3125 6.390625  Q 33.546875 6.390625 37.984375 10.484375  Q 42.4375 14.59375 44 22.796875  L 50.203125 54.6875  L 59.1875 54.6875  L 51.03125 12.640625  Q 50.828125 11.71875 50.75 11.03125  Q 50.6875 10.359375 50.6875 9.8125  Q 50.6875 8.296875 51.296875 7.59375  Q 51.90625 6.890625 53.21875 6.890625  Q 53.71875 6.890625 54.5625 7.125  Q 55.421875 7.375 56.984375 8.015625  L 55.609375 0.78125  Q 53.46875 -0.296875 51.515625 -0.859375  Q 49.5625 -1.421875 47.703125 -1.421875  Q 44.484375 -1.421875 42.65625 0.625  Q 40.828125 2.6875 40.828125 6.296875  Q 38.09375 2.390625 34.296875 0.484375  Q 30.515625 -1.421875 25.390625 -1.421875  Q 20.84375 -1.421875 17.453125 0.671875  Q 14.0625 2.78125 12.984375 6.203125  L 7.71875 -20.796875  z " id="DejaVuSans-Oblique-3bc"/>
      <path d="M 52 44.1875  Q 55.375 50.25 60.0625 53.125  Q 64.75 56 71.09375 56  Q 79.640625 56 84.28125 50.015625  Q 88.921875 44.046875 88.921875 33.015625  L 88.921875 0  L 79.890625 0  L 79.890625 32.71875  Q 79.890625 40.578125 77.09375 44.375  Q 74.3125 48.1875 68.609375 48.1875  Q 61.625 48.1875 57.5625 43.546875  Q 53.515625 38.921875 53.515625 30.90625  L 53.515625 0  L 44.484375 0  L 44.484375 32.71875  Q 44.484375 40.625 41.703125 44.40625  Q 38.921875 48.1875 33.109375 48.1875  Q 26.21875 48.1875 22.15625 43.53125  Q 18.109375 38.875 18.109375 30.90625  L 18.109375 0  L 9.078125 0  L 9.078125 54.6875  L 18.109375 54.6875  L 18.109375 46.1875  Q 21.1875 51.21875 25.484375 53.609375  Q 29.78125 56 35.6875 56  Q 41.65625 56 45.828125 52.96875  Q 50 49.953125 52 44.1875  z " id="DejaVuSans-6d"/>
      <path d="M 8.015625 75.875  L 15.828125 75.875  Q 23.140625 64.359375 26.78125 53.3125  Q 30.421875 42.28125 30.421875 31.390625  Q 30.421875 20.453125 26.78125 9.375  Q 23.140625 -1.703125 15.828125 -13.1875  L 8.015625 -13.1875  Q 14.5 -2 17.703125 9.0625  Q 20.90625 20.125 20.90625 31.390625  Q 20.90625 42.671875 17.703125 53.65625  Q 14.5 64.65625 8.015625 75.875  z " id="DejaVuSans-29"/>
     </defs>
     <g transform="translate(219.35 329.038125)scale(0.1 -0.1)">
      <use transform="translate(0 0.015625)" xlink:href="#DejaVuSans-44"/>
      <use transform="translate(77.001953 0.015625)" xlink:href="#DejaVuSans-69"/>
      <use transform="translate(104.785156 0.015625)" xlink:href="#DejaVuSans-73"/>
      <use transform="translate(156.884766 0.015625)" xlink:href="#DejaVuSans-74"/>
      <use transform="translate(196.09375 0.015625)" xlink:href="#DejaVuSans-61"/>
      <use transform="translate(257.373047 0.015625)" xlink:href="#DejaVuSans-6e"/>
      <use transform="translate(320.751953 0.015625)" xlink:href="#DejaVuSans-63"/>
      <use transform="translate(375.732422 0.015625)" xlink:href="#DejaVuSans-65"/>
      <use transform="translate(437.255859 0.015625)" xlink:href="#DejaVuSans-20"/>
      <use transform="translate(469.042969 0.015625)" xlink:href="#DejaVuSans-28"/>
      <use transform="translate(508.056641 0.015625)" xlink:href="#DejaVuSans-Oblique-3bc"/>
      <use transform="translate(571.679688 0.015625)" xlink:href="#DejaVuSans-6d"/>
      <use transform="translate(669.091797 0.015625)" xlink:href="#DejaVuSans-29"/>
     </g>
    </g>
   </g>
   <g id="matplotlib.axis_2">
    <g id="ytick_1">
     <g id="line2d_9">
      <defs>
       <path d="M 0 0  L -3.5 0  " id="mce1f868d7e" style="stroke:#000000;stroke-width:0.8;"/>
      </defs>
      <g>
       <use style="stroke:#000000;stroke-width:0.8;" x="62.12" xlink:href="#mce1f868d7e" y="290.821829"/>
      </g>
     </g>
     <g id="text_10">
      <!-- &#8722;100 -->
      <defs>
       <path d="M 10.59375 35.5  L 73.1875 35.5  L 73.1875 27.203125  L 10.59375 27.203125  z " id="DejaVuSans-2212"/>
      </defs>
      <g transform="translate(27.652813 294.621048)scale(0.1 -0.1)">
       <use xlink:href="#DejaVuSans-2212"/>
       <use x="83.789062" xlink:href="#DejaVuSans-31"/>
       <use x="147.412109" xlink:href="#DejaVuSans-30"/>
       <use x="211.035156" xlink:href="#DejaVuSans-30"/>
      </g>
     </g>
    </g>
    <g id="ytick_2">
     <g id="line2d_10">
      <g>
       <use style="stroke:#000000;stroke-width:0.8;" x="62.12" xlink:href="#mce1f868d7e" y="254.796749"/>
      </g>
     </g>
     <g id="text_11">
      <!-- &#8722;75 -->
      <g transform="translate(34.015313 258.595968)scale(0.1 -0.1)">
       <use xlink:href="#DejaVuSans-2212"/>
       <use x="83.789062" xlink:href="#DejaVuSans-37"/>
       <use x="147.412109" xlink:href="#DejaVuSans-35"/>
      </g>
     </g>
    </g>
    <g id="ytick_3">
     <g id="line2d_11">
      <g>
       <use style="stroke:#000000;stroke-width:0.8;" x="62.12" xlink:href="#mce1f868d7e" y="218.77167"/>
      </g>
     </g>
     <g id="text_12">
      <!-- &#8722;50 -->
      <g transform="translate(34.015313 222.570889)scale(0.1 -0.1)">
       <use xlink:href="#DejaVuSans-2212"/>
       <use x="83.789062" xlink:href="#DejaVuSans-35"/>
       <use x="147.412109" xlink:href="#DejaVuSans-30"/>
      </g>
     </g>
    </g>
    <g id="ytick_4">
     <g id="line2d_12">
      <g>
       <use style="stroke:#000000;stroke-width:0.8;" x="62.12" xlink:href="#mce1f868d7e" y="182.74659"/>
      </g>
     </g>
     <g id="text_13">
      <!-- &#8722;25 -->
      <g transform="translate(34.015313 186.545809)scale(0.1 -0.1)">
       <use xlink:href="#DejaVuSans-2212"/>
       <use x="83.789062" xlink:href="#DejaVuSans-32"/>
       <use x="147.412109" xlink:href="#DejaVuSans-35"/>
      </g>
     </g>
    </g>
    <g id="ytick_5">
     <g id="line2d_13">
      <g>
       <use style="stroke:#000000;stroke-width:0.8;" x="62.12" xlink:href="#mce1f868d7e" y="146.721511"/>
      </g>
     </g>
     <g id="text_14">
      <!-- 0 -->
      <g transform="translate(48.7575 150.52073)scale(0.1 -0.1)">
       <use xlink:href="#DejaVuSans-30"/>
      </g>
     </g>
    </g>
    <g id="ytick_6">
     <g id="line2d_14">
      <g>
       <use style="stroke:#000000;stroke-width:0.8;" x="62.12" xlink:href="#mce1f868d7e" y="110.696431"/>
      </g>
     </g>
     <g id="text_15">
      <!-- 25 -->
      <g transform="translate(42.395 114.49565)scale(0.1 -0.1)">
       <use xlink:href="#DejaVuSans-32"/>
       <use x="63.623047" xlink:href="#DejaVuSans-35"/>
      </g>
     </g>
    </g>
    <g id="ytick_7">
     <g id="line2d_15">
      <g>
       <use style="stroke:#000000;stroke-width:0.8;" x="62.12" xlink:href="#mce1f868d7e" y="74.671352"/>
      </g>
     </g>
     <g id="text_16">
      <!-- 50 -->
      <g transform="translate(42.395 78.470571)scale(0.1 -0.1)">
       <use xlink:href="#DejaVuSans-35"/>
       <use x="63.623047" xlink:href="#DejaVuSans-30"/>
      </g>
     </g>
    </g>
    <g id="ytick_8">
     <g id="line2d_16">
      <g>
       <use style="stroke:#000000;stroke-width:0.8;" x="62.12" xlink:href="#mce1f868d7e" y="38.646272"/>
      </g>
     </g>
     <g id="text_17">
      <!-- 75 -->
      <g transform="translate(42.395 42.445491)scale(0.1 -0.1)">
       <use xlink:href="#DejaVuSans-37"/>
       <use x="63.623047" xlink:href="#DejaVuSans-35"/>
      </g>
     </g>
    </g>
    <g id="text_18">
     <!-- Slope, at. / $\mu m$ -->
     <defs>
      <path d="M 53.515625 70.515625  L 53.515625 60.890625  Q 47.90625 63.578125 42.921875 64.890625  Q 37.9375 66.21875 33.296875 66.21875  Q 25.25 66.21875 20.875 63.09375  Q 16.5 59.96875 16.5 54.203125  Q 16.5 49.359375 19.40625 46.890625  Q 22.3125 44.4375 30.421875 42.921875  L 36.375 41.703125  Q 47.40625 39.59375 52.65625 34.296875  Q 57.90625 29 57.90625 20.125  Q 57.90625 9.515625 50.796875 4.046875  Q 43.703125 -1.421875 29.984375 -1.421875  Q 24.8125 -1.421875 18.96875 -0.25  Q 13.140625 0.921875 6.890625 3.21875  L 6.890625 13.375  Q 12.890625 10.015625 18.65625 8.296875  Q 24.421875 6.59375 29.984375 6.59375  Q 38.421875 6.59375 43.015625 9.90625  Q 47.609375 13.234375 47.609375 19.390625  Q 47.609375 24.75 44.3125 27.78125  Q 41.015625 30.8125 33.5 32.328125  L 27.484375 33.5  Q 16.453125 35.6875 11.515625 40.375  Q 6.59375 45.0625 6.59375 53.421875  Q 6.59375 63.09375 13.40625 68.65625  Q 20.21875 74.21875 32.171875 74.21875  Q 37.3125 74.21875 42.625 73.28125  Q 47.953125 72.359375 53.515625 70.515625  z " id="DejaVuSans-53"/>
      <path d="M 9.421875 75.984375  L 18.40625 75.984375  L 18.40625 0  L 9.421875 0  z " id="DejaVuSans-6c"/>
      <path d="M 30.609375 48.390625  Q 23.390625 48.390625 19.1875 42.75  Q 14.984375 37.109375 14.984375 27.296875  Q 14.984375 17.484375 19.15625 11.84375  Q 23.34375 6.203125 30.609375 6.203125  Q 37.796875 6.203125 41.984375 11.859375  Q 46.1875 17.53125 46.1875 27.296875  Q 46.1875 37.015625 41.984375 42.703125  Q 37.796875 48.390625 30.609375 48.390625  z M 30.609375 56  Q 42.328125 56 49.015625 48.375  Q 55.71875 40.765625 55.71875 27.296875  Q 55.71875 13.875 49.015625 6.21875  Q 42.328125 -1.421875 30.609375 -1.421875  Q 18.84375 -1.421875 12.171875 6.21875  Q 5.515625 13.875 5.515625 27.296875  Q 5.515625 40.765625 12.171875 48.375  Q 18.84375 56 30.609375 56  z " id="DejaVuSans-6f"/>
      <path d="M 18.109375 8.203125  L 18.109375 -20.796875  L 9.078125 -20.796875  L 9.078125 54.6875  L 18.109375 54.6875  L 18.109375 46.390625  Q 20.953125 51.265625 25.265625 53.625  Q 29.59375 56 35.59375 56  Q 45.5625 56 51.78125 48.09375  Q 58.015625 40.1875 58.015625 27.296875  Q 58.015625 14.40625 51.78125 6.484375  Q 45.5625 -1.421875 35.59375 -1.421875  Q 29.59375 -1.421875 25.265625 0.953125  Q 20.953125 3.328125 18.109375 8.203125  z M 48.6875 27.296875  Q 48.6875 37.203125 44.609375 42.84375  Q 40.53125 48.484375 33.40625 48.484375  Q 26.265625 48.484375 22.1875 42.84375  Q 18.109375 37.203125 18.109375 27.296875  Q 18.109375 17.390625 22.1875 11.75  Q 26.265625 6.109375 33.40625 6.109375  Q 40.53125 6.109375 44.609375 11.75  Q 48.6875 17.390625 48.6875 27.296875  z " id="DejaVuSans-70"/>
      <path d="M 11.71875 12.40625  L 22.015625 12.40625  L 22.015625 4  L 14.015625 -11.625  L 7.71875 -11.625  L 11.71875 4  z " id="DejaVuSans-2c"/>
      <path d="M 10.6875 12.40625  L 21 12.40625  L 21 0  L 10.6875 0  z " id="DejaVuSans-2e"/>
      <path d="M 25.390625 72.90625  L 33.6875 72.90625  L 8.296875 -9.28125  L 0 -9.28125  z " id="DejaVuSans-2f"/>
      <path d="M 89.796875 33.015625  L 83.40625 0  L 74.421875 0  L 80.71875 32.71875  Q 81.109375 34.8125 81.296875 36.328125  Q 81.5 37.84375 81.5 38.921875  Q 81.5 43.3125 79.046875 45.75  Q 76.609375 48.1875 72.21875 48.1875  Q 65.671875 48.1875 60.546875 43.28125  Q 55.421875 38.375 53.90625 30.515625  L 47.90625 0  L 38.921875 0  L 45.3125 32.71875  Q 45.703125 34.515625 45.890625 36.046875  Q 46.09375 37.59375 46.09375 38.8125  Q 46.09375 43.265625 43.65625 45.71875  Q 41.21875 48.1875 36.921875 48.1875  Q 30.28125 48.1875 25.140625 43.28125  Q 20.015625 38.375 18.5 30.515625  L 12.5 0  L 3.515625 0  L 14.203125 54.6875  L 23.1875 54.6875  L 21.484375 46.1875  Q 25.140625 50.984375 30.046875 53.484375  Q 34.96875 56 40.578125 56  Q 46.53125 56 50.359375 52.875  Q 54.203125 49.75 54.984375 44.1875  Q 59.078125 49.953125 64.46875 52.96875  Q 69.875 56 75.875 56  Q 82.90625 56 86.734375 51.953125  Q 90.578125 47.90625 90.578125 40.484375  Q 90.578125 38.875 90.375 36.9375  Q 90.1875 35.015625 89.796875 33.015625  z " id="DejaVuSans-Oblique-6d"/>
     </defs>
     <g transform="translate(21.552813 193.64)rotate(-90)scale(0.1 -0.1)">
      <use transform="translate(0 0.015625)" xlink:href="#DejaVuSans-53"/>
      <use transform="translate(63.476562 0.015625)" xlink:href="#DejaVuSans-6c"/>
      <use transform="translate(91.259766 0.015625)" xlink:href="#DejaVuSans-6f"/>
      <use transform="translate(152.441406 0.015625)" xlink:href="#DejaVuSans-70"/>
      <use transform="translate(215.917969 0.015625)" xlink:href="#DejaVuSans-65"/>
      <use transform="translate(277.441406 0.015625)" xlink:href="#DejaVuSans-2c"/>
      <use transform="translate(309.228516 0.015625)" xlink:href="#DejaVuSans-20"/>
      <use transform="translate(341.015625 0.015625)" xlink:href="#DejaVuSans-61"/>
      <use transform="translate(402.294922 0.015625)" xlink:href="#DejaVuSans-74"/>
      <use transform="translate(441.503906 0.015625)" xlink:href="#DejaVuSans-2e"/>
      <use transform="translate(473.291016 0.015625)" xlink:href="#DejaVuSans-20"/>
      <use transform="translate(505.078125 0.015625)" xlink:href="#DejaVuSans-2f"/>
      <use transform="translate(538.769531 0.015625)" xlink:href="#DejaVuSans-20"/>
      <use transform="translate(570.556641 0.015625)" xlink:href="#DejaVuSans-Oblique-3bc"/>
      <use transform="translate(634.179688 0.015625)" xlink:href="#DejaVuSans-Oblique-6d"/>
     </g>
    </g>
   </g>
   <g id="line2d_17">
    <defs>
     <path d="M -0 3  L 3 -3  L -3 -3  z " id="md5be4a2043" style="stroke:#e74c3c;stroke-linejoin:miter;"/>
    </defs>
    <g clip-path="url(#pc7e900350d)">
     <use style="fill:#e74c3c;stroke:#e74c3c;stroke-linejoin:miter;" x="62.12" xlink:href="#md5be4a2043" y="142.813178"/>
     <use style="fill:#e74c3c;stroke:#e74c3c;stroke-linejoin:miter;" x="71.811957" xlink:href="#md5be4a2043" y="142.813178"/>
     <use style="fill:#e74c3c;stroke:#e74c3c;stroke-linejoin:miter;" x="91.406565" xlink:href="#md5be4a2043" y="141.972398"/>
     <use style="fill:#e74c3c;stroke:#e74c3c;stroke-linejoin:miter;" x="111.001174" xlink:href="#md5be4a2043" y="157.094249"/>
     <use style="fill:#e74c3c;stroke:#e74c3c;stroke-linejoin:miter;" x="115.847152" xlink:href="#md5be4a2043" y="164.326811"/>
     <use style="fill:#e74c3c;stroke:#e74c3c;stroke-linejoin:miter;" x="125.539109" xlink:href="#md5be4a2043" y="133.146843"/>
     <use style="fill:#e74c3c;stroke:#e74c3c;stroke-linejoin:miter;" x="130.385087" xlink:href="#md5be4a2043" y="176.794621"/>
     <use style="fill:#e74c3c;stroke:#e74c3c;stroke-linejoin:miter;" x="135.231066" xlink:href="#md5be4a2043" y="154.685765"/>
     <use style="fill:#e74c3c;stroke:#e74c3c;stroke-linejoin:miter;" x="149.979696" xlink:href="#md5be4a2043" y="152.144641"/>
     <use style="fill:#e74c3c;stroke:#e74c3c;stroke-linejoin:miter;" x="154.825674" xlink:href="#md5be4a2043" y="213.070309"/>
     <use style="fill:#e74c3c;stroke:#e74c3c;stroke-linejoin:miter;" x="159.671653" xlink:href="#md5be4a2043" y="142.649111"/>
     <use style="fill:#e74c3c;stroke:#e74c3c;stroke-linejoin:miter;" x="164.517631" xlink:href="#md5be4a2043" y="108.973493"/>
     <use style="fill:#e74c3c;stroke:#e74c3c;stroke-linejoin:miter;" x="169.363609" xlink:href="#md5be4a2043" y="155.116921"/>
     <use style="fill:#e74c3c;stroke:#e74c3c;stroke-linejoin:miter;" x="174.209588" xlink:href="#md5be4a2043" y="200.559842"/>
     <use style="fill:#e74c3c;stroke:#e74c3c;stroke-linejoin:miter;" x="179.266261" xlink:href="#md5be4a2043" y="201.540951"/>
     <use style="fill:#e74c3c;stroke:#e74c3c;stroke-linejoin:miter;" x="184.112239" xlink:href="#md5be4a2043" y="200.383216"/>
     <use style="fill:#e74c3c;stroke:#e74c3c;stroke-linejoin:miter;" x="188.958218" xlink:href="#md5be4a2043" y="142.89972"/>
     <use style="fill:#e74c3c;stroke:#e74c3c;stroke-linejoin:miter;" x="193.804196" xlink:href="#md5be4a2043" y="157.466382"/>
     <use style="fill:#e74c3c;stroke:#e74c3c;stroke-linejoin:miter;" x="198.650175" xlink:href="#md5be4a2043" y="248.124278"/>
     <use style="fill:#e74c3c;stroke:#e74c3c;stroke-linejoin:miter;" x="203.496153" xlink:href="#md5be4a2043" y="229.655843"/>
     <use style="fill:#e74c3c;stroke:#e74c3c;stroke-linejoin:miter;" x="208.552826" xlink:href="#md5be4a2043" y="234.898642"/>
     <use style="fill:#e74c3c;stroke:#e74c3c;stroke-linejoin:miter;" x="213.398805" xlink:href="#md5be4a2043" y="199.913324"/>
     <use style="fill:#e74c3c;stroke:#e74c3c;stroke-linejoin:miter;" x="218.244783" xlink:href="#md5be4a2043" y="200.226585"/>
     <use style="fill:#e74c3c;stroke:#e74c3c;stroke-linejoin:miter;" x="223.090762" xlink:href="#md5be4a2043" y="250.787001"/>
     <use style="fill:#e74c3c;stroke:#e74c3c;stroke-linejoin:miter;" x="227.93674" xlink:href="#md5be4a2043" y="223.752529"/>
     <use style="fill:#e74c3c;stroke:#e74c3c;stroke-linejoin:miter;" x="232.782718" xlink:href="#md5be4a2043" y="224.786292"/>
     <use style="fill:#e74c3c;stroke:#e74c3c;stroke-linejoin:miter;" x="237.628697" xlink:href="#md5be4a2043" y="251.393529"/>
     <use style="fill:#e74c3c;stroke:#e74c3c;stroke-linejoin:miter;" x="242.68537" xlink:href="#md5be4a2043" y="287.694545"/>
     <use style="fill:#e74c3c;stroke:#e74c3c;stroke-linejoin:miter;" x="247.531348" xlink:href="#md5be4a2043" y="251.037611"/>
     <use style="fill:#e74c3c;stroke:#e74c3c;stroke-linejoin:miter;" x="252.377327" xlink:href="#md5be4a2043" y="179.989889"/>
     <use style="fill:#e74c3c;stroke:#e74c3c;stroke-linejoin:miter;" x="257.223305" xlink:href="#md5be4a2043" y="220.024716"/>
     <use style="fill:#e74c3c;stroke:#e74c3c;stroke-linejoin:miter;" x="262.069284" xlink:href="#md5be4a2043" y="246.714601"/>
     <use style="fill:#e74c3c;stroke:#e74c3c;stroke-linejoin:miter;" x="266.915262" xlink:href="#md5be4a2043" y="223.707872"/>
     <use style="fill:#e74c3c;stroke:#e74c3c;stroke-linejoin:miter;" x="271.971935" xlink:href="#md5be4a2043" y="199.486755"/>
     <use style="fill:#e74c3c;stroke:#e74c3c;stroke-linejoin:miter;" x="276.817914" xlink:href="#md5be4a2043" y="179.833258"/>
     <use style="fill:#e74c3c;stroke:#e74c3c;stroke-linejoin:miter;" x="281.663892" xlink:href="#md5be4a2043" y="200.320564"/>
     <use style="fill:#e74c3c;stroke:#e74c3c;stroke-linejoin:miter;" x="286.509871" xlink:href="#md5be4a2043" y="199.53741"/>
     <use style="fill:#e74c3c;stroke:#e74c3c;stroke-linejoin:miter;" x="291.355849" xlink:href="#md5be4a2043" y="167.302795"/>
     <use style="fill:#e74c3c;stroke:#e74c3c;stroke-linejoin:miter;" x="296.201827" xlink:href="#md5be4a2043" y="161.225521"/>
     <use style="fill:#e74c3c;stroke:#e74c3c;stroke-linejoin:miter;" x="301.047806" xlink:href="#md5be4a2043" y="174.621785"/>
     <use style="fill:#e74c3c;stroke:#e74c3c;stroke-linejoin:miter;" x="306.104479" xlink:href="#md5be4a2043" y="158.77075"/>
     <use style="fill:#e74c3c;stroke:#e74c3c;stroke-linejoin:miter;" x="310.950457" xlink:href="#md5be4a2043" y="149.540865"/>
     <use style="fill:#e74c3c;stroke:#e74c3c;stroke-linejoin:miter;" x="315.796436" xlink:href="#md5be4a2043" y="140.978382"/>
     <use style="fill:#e74c3c;stroke:#e74c3c;stroke-linejoin:miter;" x="325.488393" xlink:href="#md5be4a2043" y="144.737521"/>
     <use style="fill:#e74c3c;stroke:#e74c3c;stroke-linejoin:miter;" x="330.334371" xlink:href="#md5be4a2043" y="151.744436"/>
     <use style="fill:#e74c3c;stroke:#e74c3c;stroke-linejoin:miter;" x="340.237023" xlink:href="#md5be4a2043" y="151.662093"/>
     <use style="fill:#e74c3c;stroke:#e74c3c;stroke-linejoin:miter;" x="345.083001" xlink:href="#md5be4a2043" y="150.699933"/>
     <use style="fill:#e74c3c;stroke:#e74c3c;stroke-linejoin:miter;" x="349.928979" xlink:href="#md5be4a2043" y="141.771978"/>
     <use style="fill:#e74c3c;stroke:#e74c3c;stroke-linejoin:miter;" x="354.774958" xlink:href="#md5be4a2043" y="157.769202"/>
     <use style="fill:#e74c3c;stroke:#e74c3c;stroke-linejoin:miter;" x="364.466915" xlink:href="#md5be4a2043" y="151.826779"/>
     <use style="fill:#e74c3c;stroke:#e74c3c;stroke-linejoin:miter;" x="369.523588" xlink:href="#md5be4a2043" y="136.54251"/>
     <use style="fill:#e74c3c;stroke:#e74c3c;stroke-linejoin:miter;" x="374.369566" xlink:href="#md5be4a2043" y="139.913293"/>
     <use style="fill:#e74c3c;stroke:#e74c3c;stroke-linejoin:miter;" x="384.061523" xlink:href="#md5be4a2043" y="144.309397"/>
     <use style="fill:#e74c3c;stroke:#e74c3c;stroke-linejoin:miter;" x="393.75348" xlink:href="#md5be4a2043" y="145.654614"/>
     <use style="fill:#e74c3c;stroke:#e74c3c;stroke-linejoin:miter;" x="427.886024" xlink:href="#md5be4a2043" y="150.672204"/>
     <use style="fill:#e74c3c;stroke:#e74c3c;stroke-linejoin:miter;" x="437.788675" xlink:href="#md5be4a2043" y="156.870512"/>
     <use style="fill:#e74c3c;stroke:#e74c3c;stroke-linejoin:miter;" x="447.480632" xlink:href="#md5be4a2043" y="156.870512"/>
    </g>
   </g>
   <g id="line2d_18">
    <defs>
     <path d="M 0 -3  L -0.673542 -0.927051  L -2.85317 -0.927051  L -1.089814 0.354102  L -1.763356 2.427051  L -0 1.145898  L 1.763356 2.427051  L 1.089814 0.354102  L 2.85317 -0.927051  L 0.673542 -0.927051  z " id="m99a3820c77" style="stroke:#808000;stroke-linejoin:bevel;"/>
    </defs>
    <g clip-path="url(#pc7e900350d)">
     <use style="fill:#808000;stroke:#808000;stroke-linejoin:bevel;" x="62.12" xlink:href="#m99a3820c77" y="145.581149"/>
     <use style="fill:#808000;stroke:#808000;stroke-linejoin:bevel;" x="71.811957" xlink:href="#m99a3820c77" y="145.581149"/>
     <use style="fill:#808000;stroke:#808000;stroke-linejoin:bevel;" x="91.406565" xlink:href="#m99a3820c77" y="148.023062"/>
     <use style="fill:#808000;stroke:#808000;stroke-linejoin:bevel;" x="111.001174" xlink:href="#m99a3820c77" y="150.311596"/>
     <use style="fill:#808000;stroke:#808000;stroke-linejoin:bevel;" x="115.847152" xlink:href="#m99a3820c77" y="144.090114"/>
     <use style="fill:#808000;stroke:#808000;stroke-linejoin:bevel;" x="125.539109" xlink:href="#m99a3820c77" y="141.166339"/>
     <use style="fill:#808000;stroke:#808000;stroke-linejoin:bevel;" x="130.385087" xlink:href="#m99a3820c77" y="147.7866"/>
     <use style="fill:#808000;stroke:#808000;stroke-linejoin:bevel;" x="135.231066" xlink:href="#m99a3820c77" y="146.489091"/>
     <use style="fill:#808000;stroke:#808000;stroke-linejoin:bevel;" x="149.979696" xlink:href="#m99a3820c77" y="141.670252"/>
     <use style="fill:#808000;stroke:#808000;stroke-linejoin:bevel;" x="154.825674" xlink:href="#m99a3820c77" y="146.345597"/>
     <use style="fill:#808000;stroke:#808000;stroke-linejoin:bevel;" x="159.671653" xlink:href="#m99a3820c77" y="150.605954"/>
     <use style="fill:#808000;stroke:#808000;stroke-linejoin:bevel;" x="164.517631" xlink:href="#m99a3820c77" y="139.077929"/>
     <use style="fill:#808000;stroke:#808000;stroke-linejoin:bevel;" x="169.363609" xlink:href="#m99a3820c77" y="139.422516"/>
     <use style="fill:#808000;stroke:#808000;stroke-linejoin:bevel;" x="174.209588" xlink:href="#m99a3820c77" y="143.962143"/>
     <use style="fill:#808000;stroke:#808000;stroke-linejoin:bevel;" x="179.266261" xlink:href="#m99a3820c77" y="134.948208"/>
     <use style="fill:#808000;stroke:#808000;stroke-linejoin:bevel;" x="184.112239" xlink:href="#m99a3820c77" y="125.889617"/>
     <use style="fill:#808000;stroke:#808000;stroke-linejoin:bevel;" x="188.958218" xlink:href="#m99a3820c77" y="124.041374"/>
     <use style="fill:#808000;stroke:#808000;stroke-linejoin:bevel;" x="193.804196" xlink:href="#m99a3820c77" y="115.050767"/>
     <use style="fill:#808000;stroke:#808000;stroke-linejoin:bevel;" x="198.650175" xlink:href="#m99a3820c77" y="106.154139"/>
     <use style="fill:#808000;stroke:#808000;stroke-linejoin:bevel;" x="203.496153" xlink:href="#m99a3820c77" y="103.430096"/>
     <use style="fill:#808000;stroke:#808000;stroke-linejoin:bevel;" x="208.552826" xlink:href="#m99a3820c77" y="71.36011"/>
     <use style="fill:#808000;stroke:#808000;stroke-linejoin:bevel;" x="213.398805" xlink:href="#m99a3820c77" y="65.179526"/>
     <use style="fill:#808000;stroke:#808000;stroke-linejoin:bevel;" x="218.244783" xlink:href="#m99a3820c77" y="81.406475"/>
     <use style="fill:#808000;stroke:#808000;stroke-linejoin:bevel;" x="223.090762" xlink:href="#m99a3820c77" y="53.400892"/>
     <use style="fill:#808000;stroke:#808000;stroke-linejoin:bevel;" x="227.93674" xlink:href="#m99a3820c77" y="53.08763"/>
     <use style="fill:#808000;stroke:#808000;stroke-linejoin:bevel;" x="232.782718" xlink:href="#m99a3820c77" y="52.022541"/>
     <use style="fill:#808000;stroke:#808000;stroke-linejoin:bevel;" x="237.628697" xlink:href="#m99a3820c77" y="57.440633"/>
     <use style="fill:#808000;stroke:#808000;stroke-linejoin:bevel;" x="242.68537" xlink:href="#m99a3820c77" y="57.226015"/>
     <use style="fill:#808000;stroke:#808000;stroke-linejoin:bevel;" x="247.531348" xlink:href="#m99a3820c77" y="80.623321"/>
     <use style="fill:#808000;stroke:#808000;stroke-linejoin:bevel;" x="252.377327" xlink:href="#m99a3820c77" y="86.26203"/>
     <use style="fill:#808000;stroke:#808000;stroke-linejoin:bevel;" x="257.223305" xlink:href="#m99a3820c77" y="91.806759"/>
     <use style="fill:#808000;stroke:#808000;stroke-linejoin:bevel;" x="262.069284" xlink:href="#m99a3820c77" y="74.232786"/>
     <use style="fill:#808000;stroke:#808000;stroke-linejoin:bevel;" x="266.915262" xlink:href="#m99a3820c77" y="76.725548"/>
     <use style="fill:#808000;stroke:#808000;stroke-linejoin:bevel;" x="271.971935" xlink:href="#m99a3820c77" y="157.483045"/>
     <use style="fill:#808000;stroke:#808000;stroke-linejoin:bevel;" x="276.817914" xlink:href="#m99a3820c77" y="142.555132"/>
     <use style="fill:#808000;stroke:#808000;stroke-linejoin:bevel;" x="281.663892" xlink:href="#m99a3820c77" y="118.37134"/>
     <use style="fill:#808000;stroke:#808000;stroke-linejoin:bevel;" x="286.509871" xlink:href="#m99a3820c77" y="150.324019"/>
     <use style="fill:#808000;stroke:#808000;stroke-linejoin:bevel;" x="291.355849" xlink:href="#m99a3820c77" y="142.837067"/>
     <use style="fill:#808000;stroke:#808000;stroke-linejoin:bevel;" x="296.201827" xlink:href="#m99a3820c77" y="145.938357"/>
     <use style="fill:#808000;stroke:#808000;stroke-linejoin:bevel;" x="301.047806" xlink:href="#m99a3820c77" y="166.435661"/>
     <use style="fill:#808000;stroke:#808000;stroke-linejoin:bevel;" x="306.104479" xlink:href="#m99a3820c77" y="147.304044"/>
     <use style="fill:#808000;stroke:#808000;stroke-linejoin:bevel;" x="310.950457" xlink:href="#m99a3820c77" y="119.781017"/>
     <use style="fill:#808000;stroke:#808000;stroke-linejoin:bevel;" x="315.796436" xlink:href="#m99a3820c77" y="135.381442"/>
     <use style="fill:#808000;stroke:#808000;stroke-linejoin:bevel;" x="325.488393" xlink:href="#m99a3820c77" y="159.544351"/>
     <use style="fill:#808000;stroke:#808000;stroke-linejoin:bevel;" x="330.334371" xlink:href="#m99a3820c77" y="170.80685"/>
     <use style="fill:#808000;stroke:#808000;stroke-linejoin:bevel;" x="340.237023" xlink:href="#m99a3820c77" y="141.101598"/>
     <use style="fill:#808000;stroke:#808000;stroke-linejoin:bevel;" x="345.083001" xlink:href="#m99a3820c77" y="143.119003"/>
     <use style="fill:#808000;stroke:#808000;stroke-linejoin:bevel;" x="349.928979" xlink:href="#m99a3820c77" y="137.793556"/>
     <use style="fill:#808000;stroke:#808000;stroke-linejoin:bevel;" x="354.774958" xlink:href="#m99a3820c77" y="151.04452"/>
     <use style="fill:#808000;stroke:#808000;stroke-linejoin:bevel;" x="364.466915" xlink:href="#m99a3820c77" y="155.326358"/>
     <use style="fill:#808000;stroke:#808000;stroke-linejoin:bevel;" x="369.523588" xlink:href="#m99a3820c77" y="131.299711"/>
     <use style="fill:#808000;stroke:#808000;stroke-linejoin:bevel;" x="374.369566" xlink:href="#m99a3820c77" y="162.363705"/>
     <use style="fill:#808000;stroke:#808000;stroke-linejoin:bevel;" x="384.061523" xlink:href="#m99a3820c77" y="147.849252"/>
     <use style="fill:#808000;stroke:#808000;stroke-linejoin:bevel;" x="393.75348" xlink:href="#m99a3820c77" y="143.700946"/>
     <use style="fill:#808000;stroke:#808000;stroke-linejoin:bevel;" x="427.886024" xlink:href="#m99a3820c77" y="144.770296"/>
     <use style="fill:#808000;stroke:#808000;stroke-linejoin:bevel;" x="437.788675" xlink:href="#m99a3820c77" y="147.604706"/>
     <use style="fill:#808000;stroke:#808000;stroke-linejoin:bevel;" x="447.480632" xlink:href="#m99a3820c77" y="147.604706"/>
    </g>
   </g>
   <g id="line2d_19">
    <defs>
     <path d="M 0 3  C 0.795609 3 1.55874 2.683901 2.12132 2.12132  C 2.683901 1.55874 3 0.795609 3 0  C 3 -0.795609 2.683901 -1.55874 2.12132 -2.12132  C 1.55874 -2.683901 0.795609 -3 0 -3  C -0.795609 -3 -1.55874 -2.683901 -2.12132 -2.12132  C -2.683901 -1.55874 -3 -0.795609 -3 0  C -3 0.795609 -2.683901 1.55874 -2.12132 2.12132  C -1.55874 2.683901 -0.795609 3 0 3  z " id="m3fc2d34dee" style="stroke:#008080;"/>
    </defs>
    <g clip-path="url(#pc7e900350d)">
     <use style="fill:#008080;stroke:#008080;" x="62.12" xlink:href="#m3fc2d34dee" y="151.770205"/>
     <use style="fill:#008080;stroke:#008080;" x="71.811957" xlink:href="#m3fc2d34dee" y="151.770205"/>
     <use style="fill:#008080;stroke:#008080;" x="91.406565" xlink:href="#m3fc2d34dee" y="150.169072"/>
     <use style="fill:#008080;stroke:#008080;" x="111.001174" xlink:href="#m3fc2d34dee" y="132.758687"/>
     <use style="fill:#008080;stroke:#008080;" x="115.847152" xlink:href="#m3fc2d34dee" y="131.747608"/>
     <use style="fill:#008080;stroke:#008080;" x="125.539109" xlink:href="#m3fc2d34dee" y="165.85135"/>
     <use style="fill:#008080;stroke:#008080;" x="130.385087" xlink:href="#m3fc2d34dee" y="115.583312"/>
     <use style="fill:#008080;stroke:#008080;" x="135.231066" xlink:href="#m3fc2d34dee" y="138.989677"/>
     <use style="fill:#008080;stroke:#008080;" x="149.979696" xlink:href="#m3fc2d34dee" y="146.349639"/>
     <use style="fill:#008080;stroke:#008080;" x="154.825674" xlink:href="#m3fc2d34dee" y="80.748626"/>
     <use style="fill:#008080;stroke:#008080;" x="159.671653" xlink:href="#m3fc2d34dee" y="146.909468"/>
     <use style="fill:#008080;stroke:#008080;" x="164.517631" xlink:href="#m3fc2d34dee" y="192.113111"/>
     <use style="fill:#008080;stroke:#008080;" x="169.363609" xlink:href="#m3fc2d34dee" y="145.625095"/>
     <use style="fill:#008080;stroke:#008080;" x="174.209588" xlink:href="#m3fc2d34dee" y="95.642547"/>
     <use style="fill:#008080;stroke:#008080;" x="179.266261" xlink:href="#m3fc2d34dee" y="103.675373"/>
     <use style="fill:#008080;stroke:#008080;" x="184.112239" xlink:href="#m3fc2d34dee" y="113.891699"/>
     <use style="fill:#008080;stroke:#008080;" x="188.958218" xlink:href="#m3fc2d34dee" y="173.223439"/>
     <use style="fill:#008080;stroke:#008080;" x="193.804196" xlink:href="#m3fc2d34dee" y="167.647383"/>
     <use style="fill:#008080;stroke:#008080;" x="198.650175" xlink:href="#m3fc2d34dee" y="85.886116"/>
     <use style="fill:#008080;stroke:#008080;" x="203.496153" xlink:href="#m3fc2d34dee" y="107.078594"/>
     <use style="fill:#008080;stroke:#008080;" x="208.552826" xlink:href="#m3fc2d34dee" y="133.90578"/>
     <use style="fill:#008080;stroke:#008080;" x="213.398805" xlink:href="#m3fc2d34dee" y="175.071682"/>
     <use style="fill:#008080;stroke:#008080;" x="218.244783" xlink:href="#m3fc2d34dee" y="158.531472"/>
     <use style="fill:#008080;stroke:#008080;" x="223.090762" xlink:href="#m3fc2d34dee" y="135.976639"/>
     <use style="fill:#008080;stroke:#008080;" x="227.93674" xlink:href="#m3fc2d34dee" y="163.324374"/>
     <use style="fill:#008080;stroke:#008080;" x="232.782718" xlink:href="#m3fc2d34dee" y="163.3557"/>
     <use style="fill:#008080;stroke:#008080;" x="237.628697" xlink:href="#m3fc2d34dee" y="131.33037"/>
     <use style="fill:#008080;stroke:#008080;" x="242.68537" xlink:href="#m3fc2d34dee" y="95.243972"/>
     <use style="fill:#008080;stroke:#008080;" x="247.531348" xlink:href="#m3fc2d34dee" y="108.5036"/>
     <use style="fill:#008080;stroke:#008080;" x="252.377327" xlink:href="#m3fc2d34dee" y="173.912614"/>
     <use style="fill:#008080;stroke:#008080;" x="257.223305" xlink:href="#m3fc2d34dee" y="128.333057"/>
     <use style="fill:#008080;stroke:#008080;" x="262.069284" xlink:href="#m3fc2d34dee" y="119.217146"/>
     <use style="fill:#008080;stroke:#008080;" x="266.915262" xlink:href="#m3fc2d34dee" y="139.731112"/>
     <use style="fill:#008080;stroke:#008080;" x="271.971935" xlink:href="#m3fc2d34dee" y="83.194732"/>
     <use style="fill:#008080;stroke:#008080;" x="276.817914" xlink:href="#m3fc2d34dee" y="117.776143"/>
     <use style="fill:#008080;stroke:#008080;" x="281.663892" xlink:href="#m3fc2d34dee" y="121.472629"/>
     <use style="fill:#008080;stroke:#008080;" x="286.509871" xlink:href="#m3fc2d34dee" y="90.303104"/>
     <use style="fill:#008080;stroke:#008080;" x="291.355849" xlink:href="#m3fc2d34dee" y="130.02467"/>
     <use style="fill:#008080;stroke:#008080;" x="296.201827" xlink:href="#m3fc2d34dee" y="133.000654"/>
     <use style="fill:#008080;stroke:#008080;" x="301.047806" xlink:href="#m3fc2d34dee" y="99.107087"/>
     <use style="fill:#008080;stroke:#008080;" x="306.104479" xlink:href="#m3fc2d34dee" y="134.089738"/>
     <use style="fill:#008080;stroke:#008080;" x="310.950457" xlink:href="#m3fc2d34dee" y="170.842651"/>
     <use style="fill:#008080;stroke:#008080;" x="315.796436" xlink:href="#m3fc2d34dee" y="163.804708"/>
     <use style="fill:#008080;stroke:#008080;" x="325.488393" xlink:href="#m3fc2d34dee" y="135.882661"/>
     <use style="fill:#008080;stroke:#008080;" x="330.334371" xlink:href="#m3fc2d34dee" y="117.613247"/>
     <use style="fill:#008080;stroke:#008080;" x="340.237023" xlink:href="#m3fc2d34dee" y="147.400841"/>
     <use style="fill:#008080;stroke:#008080;" x="345.083001" xlink:href="#m3fc2d34dee" y="146.345597"/>
     <use style="fill:#008080;stroke:#008080;" x="349.928979" xlink:href="#m3fc2d34dee" y="160.598998"/>
     <use style="fill:#008080;stroke:#008080;" x="354.774958" xlink:href="#m3fc2d34dee" y="131.35081"/>
     <use style="fill:#008080;stroke:#008080;" x="364.466915" xlink:href="#m3fc2d34dee" y="133.011395"/>
     <use style="fill:#008080;stroke:#008080;" x="369.523588" xlink:href="#m3fc2d34dee" y="172.322312"/>
     <use style="fill:#008080;stroke:#008080;" x="374.369566" xlink:href="#m3fc2d34dee" y="137.887535"/>
     <use style="fill:#008080;stroke:#008080;" x="384.061523" xlink:href="#m3fc2d34dee" y="148.005883"/>
     <use style="fill:#008080;stroke:#008080;" x="393.75348" xlink:href="#m3fc2d34dee" y="150.808972"/>
     <use style="fill:#008080;stroke:#008080;" x="427.886024" xlink:href="#m3fc2d34dee" y="144.722033"/>
     <use style="fill:#008080;stroke:#008080;" x="437.788675" xlink:href="#m3fc2d34dee" y="135.689314"/>
     <use style="fill:#008080;stroke:#008080;" x="447.480632" xlink:href="#m3fc2d34dee" y="135.689314"/>
    </g>
   </g>
   <g id="line2d_20">
    <path clip-path="url(#pc7e900350d)" d="M 60.614687 146.728615  L 94.935813 146.837203  L 109.386814 147.084703  L 118.418689 147.438385  L 125.644189 147.930692  L 131.063314 148.487874  L 136.482439 149.271525  L 140.095189 149.95667  L 143.70794 150.802917  L 147.32069 151.840958  L 152.739815 153.738564  L 154.094596 154.324407  L 155.900971 155.282895  L 158.610534 156.720003  L 161.320096 158.35712  L 164.029659 160.21373  L 166.739221 162.309596  L 169.448784 164.664383  L 172.158347 167.297177  L 174.867909 170.225869  L 177.577472 173.466366  L 180.287034 177.031602  L 182.996597 180.930268  L 185.706159 185.165235  L 189.9963 192.33793  L 190.899488 194.19549  L 194.512238 201.118703  L 199.028175 210.330264  L 208.963238 230.9058  L 211.672801 235.984848  L 213.93077 239.840938  L 216.188738 243.268566  L 217.995113 245.654478  L 219.349895 247.216422  L 222.623949 250.129374  L 224.204528 251.082384  L 225.559309 251.662757  L 226.91409 252.027501  L 228.268871 252.181617  L 229.623653 252.132179  L 231.204231 251.829069  L 232.784809 251.277253  L 234.365387 250.494767  L 236.171762 249.342429  L 238.203934 247.751309  L 240.461903 245.66385  L 242.945669 243.037314  L 245.655231 239.844734  L 248.816388 235.771689  L 252.316239 230.91865  L 256.832177 224.252103  L 262.251302 215.83739  L 279.863459 188.127019  L 283.927803 182.302647  L 287.76635 177.193532  L 291.3791 172.786867  L 294.99185 168.800538  L 297.701412 166.095099  L 300.410975 163.633343  L 303.120537 161.41044  L 305.8301 159.417877  L 308.539663 157.644221  L 311.249225 156.075884  L 314.861975 154.27805  L 318.474725 152.780817  L 322.087475 151.546217  L 325.700225 150.537586  L 329.764569 149.585908  L 336.99007 148.483076  L 342.409195 147.913064  L 349.634695 147.416215  L 358.66657 147.065946  L 371.311195 146.844693  L 392.987696 146.74046  L 448.985322 146.72162  L 448.985322 146.72162  " style="fill:none;stroke:#e74c3c;stroke-linecap:square;stroke-width:2;"/>
   </g>
   <g id="line2d_21">
    <path clip-path="url(#pc7e900350d)" d="M 60.614687 146.721509  L 154.094596 146.626448  L 163.126471 146.362437  L 168.545596 145.96627  L 172.158347 145.50197  L 174.867909 144.990825  L 177.577472 144.286207  L 180.287034 143.325243  L 182.093409 142.504201  L 183.899784 141.507456  L 185.706159 140.304298  L 187.512534 138.860717  L 189.9963 136.539689  L 191.351081 134.823656  L 193.157456 132.381226  L 194.963832 129.53518  L 196.770207 126.246736  L 198.576582 122.481569  L 200.382957 118.212757  L 202.189332 113.424178  L 204.447301 106.70674  L 206.705269 99.213877  L 209.414832 89.333749  L 213.027582 75.136361  L 217.995113 55.516456  L 219.801488 49.144157  L 222.172356 41.22819  L 223.752934 36.817683  L 225.107715 33.588697  L 226.462496 30.919382  L 227.591481 29.149389  L 228.720465 27.809004  L 229.623653 27.052524  L 230.52684 26.57926  L 231.430028 26.389027  L 232.333215 26.479387  L 233.236403 26.845763  L 234.13959 27.481577  L 235.042778 28.378409  L 236.171762 29.850999  L 237.300747 31.69268  L 238.655528 34.353283  L 240.236106 38.016022  L 242.042481 42.835687  L 244.074653 48.909705  L 246.784216 57.771668  L 251.413052 73.830296  L 255.928989 89.195579  L 259.090146 99.125075  L 261.799708 106.861944  L 264.057677 112.689902  L 266.315646 117.927071  L 268.573615 122.570531  L 270.831583 126.635247  L 273.089552 130.150143  L 274.895927 132.592209  L 276.702302 134.73051  L 278.508677 136.589965  L 280.766646 138.561319  L 283.024615 140.187177  L 285.282584 141.515774  L 287.76635 142.687865  L 290.475912 143.682212  L 293.185475 144.439238  L 296.798225 145.167491  L 300.410975 145.662206  L 304.926912 146.060286  L 311.249225 146.370474  L 320.2811 146.568947  L 336.99007 146.682546  L 389.374946 146.720978  L 448.985322 146.721509  L 448.985322 146.721509  " style="fill:none;stroke:#808000;stroke-linecap:square;stroke-width:2;"/>
   </g>
   <g id="line2d_22">
    <path clip-path="url(#pc7e900350d)" d="M 60.614687 146.714408  L 94.935813 146.60585  L 109.386814 146.358464  L 118.418689 146.005104  L 125.644189 145.513646  L 131.063314 144.958121  L 136.482439 144.178321  L 141.901565 143.100889  L 145.514315 142.174361  L 149.127065 141.047511  L 154.094596 139.213677  L 155.900971 138.28811  L 159.513721 136.415978  L 163.126471 134.232841  L 166.739221 131.724755  L 170.351972 128.894218  L 173.964722 125.768797  L 178.480659 121.548466  L 185.706159 114.695  L 188.415722 112.395619  L 193.157456 109.315732  L 194.963832 108.613657  L 196.318613 108.309492  L 197.673394 108.221495  L 199.028175 108.371844  L 200.382957 108.781196  L 201.737738 109.46787  L 203.092519 110.446947  L 204.447301 111.729314  L 205.802082 113.320695  L 207.156863 115.220714  L 208.963238 118.220424  L 210.769613 121.716184  L 213.027582 126.682592  L 215.737145 133.268539  L 221.946559 148.624631  L 223.978731 152.957516  L 225.559309 155.867086  L 226.91409 157.976357  L 228.268871 159.690042  L 229.397856 160.795198  L 230.52684 161.594846  L 231.655825 162.083055  L 232.559012 162.248563  L 233.4622 162.215724  L 234.365387 161.988084  L 235.494372 161.43779  L 236.623356 160.605244  L 237.75234 159.50762  L 239.107122 157.869005  L 240.6877 155.563926  L 242.494075 152.494761  L 244.752044 148.164724  L 248.138997 141.082018  L 253.219427 130.456771  L 255.928989 125.353492  L 258.186958 121.601859  L 259.993333 118.988849  L 261.799708 116.751651  L 263.606083 114.906231  L 264.960865 113.782818  L 266.315646 112.88157  L 267.670427 112.198356  L 269.025208 111.726595  L 270.37999 111.457579  L 271.734771 111.380792  L 273.089552 111.48424  L 274.895927 111.879667  L 276.702302 112.538602  L 278.508677 113.426121  L 280.766646 114.803165  L 283.476209 116.759222  L 285.734178 118.567732  L 286.863162 119.608928  L 288.669537 121.061443  L 297.701412 128.759588  L 301.314162 131.539993  L 304.926912 134.047121  L 308.539663 136.257177  L 312.152413 138.168564  L 315.765163 139.794891  L 319.377913 141.159198  L 322.990663 142.289514  L 326.603413 143.215623  L 329.764569 143.92489  L 336.99007 144.99891  L 342.409195 145.555507  L 349.634695 146.041349  L 358.66657 146.384182  L 371.311195 146.600851  L 392.987696 146.702949  L 448.985322 146.721404  L 448.985322 146.721404  " style="fill:none;stroke:#008080;stroke-linecap:square;stroke-width:2;"/>
   </g>
   <g id="patch_3">
    <path d="M 62.12 300.76  L 62.12 13.32  " style="fill:none;stroke:#000000;stroke-linecap:square;stroke-linejoin:miter;stroke-width:0.8;"/>
   </g>
   <g id="patch_4">
    <path d="M 447.48 300.76  L 447.48 13.32  " style="fill:none;stroke:#000000;stroke-linecap:square;stroke-linejoin:miter;stroke-width:0.8;"/>
   </g>
   <g id="patch_5">
    <path d="M 62.12 300.76  L 447.48 300.76  " style="fill:none;stroke:#000000;stroke-linecap:square;stroke-linejoin:miter;stroke-width:0.8;"/>
   </g>
   <g id="patch_6">
    <path d="M 62.12 13.32  L 447.48 13.32  " style="fill:none;stroke:#000000;stroke-linecap:square;stroke-linejoin:miter;stroke-width:0.8;"/>
   </g>
   <g id="legend_1">
    <g id="patch_7">
     <path d="M 373.133125 109.38875  L 440.48 109.38875  Q 442.48 109.38875 442.48 107.38875  L 442.48 20.32  Q 442.48 18.32 440.48 18.32  L 373.133125 18.32  Q 371.133125 18.32 371.133125 20.32  L 371.133125 107.38875  Q 371.133125 109.38875 373.133125 109.38875  z " style="fill:#ffffff;opacity:0.8;stroke:#cccccc;stroke-linejoin:miter;"/>
    </g>
    <g id="line2d_23"/>
    <g id="line2d_24">
     <g>
      <use style="fill:#e74c3c;stroke:#e74c3c;stroke-linejoin:miter;" x="385.133125" xlink:href="#md5be4a2043" y="26.418437"/>
     </g>
    </g>
    <g id="text_19">
     <!-- exp-Sn -->
     <defs>
      <path d="M 54.890625 54.6875  L 35.109375 28.078125  L 55.90625 0  L 45.3125 0  L 29.390625 21.484375  L 13.484375 0  L 2.875 0  L 24.125 28.609375  L 4.6875 54.6875  L 15.28125 54.6875  L 29.78125 35.203125  L 44.28125 54.6875  z " id="DejaVuSans-78"/>
      <path d="M 4.890625 31.390625  L 31.203125 31.390625  L 31.203125 23.390625  L 4.890625 23.390625  z " id="DejaVuSans-2d"/>
     </defs>
     <g transform="translate(403.133125 29.918437)scale(0.1 -0.1)">
      <use xlink:href="#DejaVuSans-65"/>
      <use x="61.507812" xlink:href="#DejaVuSans-78"/>
      <use x="120.6875" xlink:href="#DejaVuSans-70"/>
      <use x="184.164062" xlink:href="#DejaVuSans-2d"/>
      <use x="220.248047" xlink:href="#DejaVuSans-53"/>
      <use x="283.724609" xlink:href="#DejaVuSans-6e"/>
     </g>
    </g>
    <g id="line2d_25"/>
    <g id="line2d_26">
     <g>
      <use style="fill:#808000;stroke:#808000;stroke-linejoin:bevel;" x="385.133125" xlink:href="#m99a3820c77" y="41.096563"/>
     </g>
    </g>
    <g id="text_20">
     <!-- exp-Ag -->
     <defs>
      <path d="M 34.1875 63.1875  L 20.796875 26.90625  L 47.609375 26.90625  z M 28.609375 72.90625  L 39.796875 72.90625  L 67.578125 0  L 57.328125 0  L 50.6875 18.703125  L 17.828125 18.703125  L 11.1875 0  L 0.78125 0  z " id="DejaVuSans-41"/>
      <path d="M 45.40625 27.984375  Q 45.40625 37.75 41.375 43.109375  Q 37.359375 48.484375 30.078125 48.484375  Q 22.859375 48.484375 18.828125 43.109375  Q 14.796875 37.75 14.796875 27.984375  Q 14.796875 18.265625 18.828125 12.890625  Q 22.859375 7.515625 30.078125 7.515625  Q 37.359375 7.515625 41.375 12.890625  Q 45.40625 18.265625 45.40625 27.984375  z M 54.390625 6.78125  Q 54.390625 -7.171875 48.1875 -13.984375  Q 42 -20.796875 29.203125 -20.796875  Q 24.46875 -20.796875 20.265625 -20.09375  Q 16.0625 -19.390625 12.109375 -17.921875  L 12.109375 -9.1875  Q 16.0625 -11.328125 19.921875 -12.34375  Q 23.78125 -13.375 27.78125 -13.375  Q 36.625 -13.375 41.015625 -8.765625  Q 45.40625 -4.15625 45.40625 5.171875  L 45.40625 9.625  Q 42.625 4.78125 38.28125 2.390625  Q 33.9375 0 27.875 0  Q 17.828125 0 11.671875 7.65625  Q 5.515625 15.328125 5.515625 27.984375  Q 5.515625 40.671875 11.671875 48.328125  Q 17.828125 56 27.875 56  Q 33.9375 56 38.28125 53.609375  Q 42.625 51.21875 45.40625 46.390625  L 45.40625 54.6875  L 54.390625 54.6875  z " id="DejaVuSans-67"/>
     </defs>
     <g transform="translate(403.133125 44.596563)scale(0.1 -0.1)">
      <use xlink:href="#DejaVuSans-65"/>
      <use x="61.507812" xlink:href="#DejaVuSans-78"/>
      <use x="120.6875" xlink:href="#DejaVuSans-70"/>
      <use x="184.164062" xlink:href="#DejaVuSans-2d"/>
      <use x="220.216797" xlink:href="#DejaVuSans-41"/>
      <use x="288.625" xlink:href="#DejaVuSans-67"/>
     </g>
    </g>
    <g id="line2d_27"/>
    <g id="line2d_28">
     <g>
      <use style="fill:#008080;stroke:#008080;" x="385.133125" xlink:href="#m3fc2d34dee" y="55.774687"/>
     </g>
    </g>
    <g id="text_21">
     <!-- exp-Cu -->
     <defs>
      <path d="M 64.40625 67.28125  L 64.40625 56.890625  Q 59.421875 61.53125 53.78125 63.8125  Q 48.140625 66.109375 41.796875 66.109375  Q 29.296875 66.109375 22.65625 58.46875  Q 16.015625 50.828125 16.015625 36.375  Q 16.015625 21.96875 22.65625 14.328125  Q 29.296875 6.6875 41.796875 6.6875  Q 48.140625 6.6875 53.78125 8.984375  Q 59.421875 11.28125 64.40625 15.921875  L 64.40625 5.609375  Q 59.234375 2.09375 53.4375 0.328125  Q 47.65625 -1.421875 41.21875 -1.421875  Q 24.65625 -1.421875 15.125 8.703125  Q 5.609375 18.84375 5.609375 36.375  Q 5.609375 53.953125 15.125 64.078125  Q 24.65625 74.21875 41.21875 74.21875  Q 47.75 74.21875 53.53125 72.484375  Q 59.328125 70.75 64.40625 67.28125  z " id="DejaVuSans-43"/>
      <path d="M 8.5 21.578125  L 8.5 54.6875  L 17.484375 54.6875  L 17.484375 21.921875  Q 17.484375 14.15625 20.5 10.265625  Q 23.53125 6.390625 29.59375 6.390625  Q 36.859375 6.390625 41.078125 11.03125  Q 45.3125 15.671875 45.3125 23.6875  L 45.3125 54.6875  L 54.296875 54.6875  L 54.296875 0  L 45.3125 0  L 45.3125 8.40625  Q 42.046875 3.421875 37.71875 1  Q 33.40625 -1.421875 27.6875 -1.421875  Q 18.265625 -1.421875 13.375 4.4375  Q 8.5 10.296875 8.5 21.578125  z M 31.109375 56  z " id="DejaVuSans-75"/>
     </defs>
     <g transform="translate(403.133125 59.274687)scale(0.1 -0.1)">
      <use xlink:href="#DejaVuSans-65"/>
      <use x="61.507812" xlink:href="#DejaVuSans-78"/>
      <use x="120.6875" xlink:href="#DejaVuSans-70"/>
      <use x="184.164062" xlink:href="#DejaVuSans-2d"/>
      <use x="220.248047" xlink:href="#DejaVuSans-43"/>
      <use x="290.072266" xlink:href="#DejaVuSans-75"/>
     </g>
    </g>
    <g id="line2d_29">
     <path d="M 375.133125 70.452812  L 395.133125 70.452812  " style="fill:none;stroke:#e74c3c;stroke-linecap:square;stroke-width:2;"/>
    </g>
    <g id="line2d_30"/>
    <g id="text_22">
     <!-- sim-Sn -->
     <g transform="translate(403.133125 73.952812)scale(0.1 -0.1)">
      <use xlink:href="#DejaVuSans-73"/>
      <use x="52.099609" xlink:href="#DejaVuSans-69"/>
      <use x="79.882812" xlink:href="#DejaVuSans-6d"/>
      <use x="177.294922" xlink:href="#DejaVuSans-2d"/>
      <use x="213.378906" xlink:href="#DejaVuSans-53"/>
      <use x="276.855469" xlink:href="#DejaVuSans-6e"/>
     </g>
    </g>
    <g id="line2d_31">
     <path d="M 375.133125 85.130938  L 395.133125 85.130938  " style="fill:none;stroke:#808000;stroke-linecap:square;stroke-width:2;"/>
    </g>
    <g id="line2d_32"/>
    <g id="text_23">
     <!-- sim-Ag -->
     <g transform="translate(403.133125 88.630938)scale(0.1 -0.1)">
      <use xlink:href="#DejaVuSans-73"/>
      <use x="52.099609" xlink:href="#DejaVuSans-69"/>
      <use x="79.882812" xlink:href="#DejaVuSans-6d"/>
      <use x="177.294922" xlink:href="#DejaVuSans-2d"/>
      <use x="213.347656" xlink:href="#DejaVuSans-41"/>
      <use x="281.755859" xlink:href="#DejaVuSans-67"/>
     </g>
    </g>
    <g id="line2d_33">
     <path d="M 375.133125 99.809062  L 395.133125 99.809062  " style="fill:none;stroke:#008080;stroke-linecap:square;stroke-width:2;"/>
    </g>
    <g id="line2d_34"/>
    <g id="text_24">
     <!-- sim-Cu -->
     <g transform="translate(403.133125 103.309062)scale(0.1 -0.1)">
      <use xlink:href="#DejaVuSans-73"/>
      <use x="52.099609" xlink:href="#DejaVuSans-69"/>
      <use x="79.882812" xlink:href="#DejaVuSans-6d"/>
      <use x="177.294922" xlink:href="#DejaVuSans-2d"/>
      <use x="213.378906" xlink:href="#DejaVuSans-43"/>
      <use x="283.203125" xlink:href="#DejaVuSans-75"/>
     </g>
    </g>
   </g>
  </g>
 </g>
 <defs>
  <clipPath id="pc7e900350d">
   <rect height="287.44" width="385.36" x="62.12" y="13.32"/>
  </clipPath>
 </defs>
</g>
    <g transform="translate(10, 300) scale(1) ">
      <g transform="translate(0, 0) scale(3.0) "><defs id="defs831"/>
  <sodipodi:namedview xmlns:sodipodi="http://sodipodi.sourceforge.net/DTD/sodipodi-0.dtd" xmlns:inkscape="http://www.inkscape.org/namespaces/inkscape" id="base" pagecolor="#ffffff" bordercolor="#666666" borderopacity="1.0" inkscape:pageopacity="0.0" inkscape:pageshadow="2" inkscape:zoom="1.979899" inkscape:cx="-12.763683" inkscape:cy="-16.680883" inkscape:document-units="mm" inkscape:current-layer="layer1" showgrid="false" inkscape:window-width="1920" inkscape:window-height="1001" inkscape:window-x="-9" inkscape:window-y="-9" inkscape:window-maximized="1" units="pt"/>
  <metadata xmlns:rdf="http://www.w3.org/1999/02/22-rdf-syntax-ns#" xmlns:cc="http://creativecommons.org/ns#" xmlns:dc="http://purl.org/dc/elements/1.1/" id="metadata834">
    <rdf:RDF>
      <cc:Work rdf:about="">
        <dc:format>image/svg+xml</dc:format>
        <dc:type rdf:resource="http://purl.org/dc/dcmitype/StillImage"/>
        <dc:title/>
      </cc:Work>
    </rdf:RDF>
  </metadata>
  <g xmlns:inkscape="http://www.inkscape.org/namespaces/inkscape" xmlns:sodipodi="http://sodipodi.sourceforge.net/DTD/sodipodi-0.dtd" inkscape:label="Layer 1" inkscape:groupmode="layer" id="layer1" transform="translate(0,-288.81557)">
    <g id="g4761" transform="matrix(0.07377843,0,0,0.07377843,-0.76923022,275.45946)">
      <path inkscape:connector-curvature="0" id="path1959-6-7-1-6-5-4-0-3-2-6-0-3-9-6" style="font-style:normal;font-variant:normal;font-weight:bold;font-stretch:normal;font-size:120.99466705px;line-height:1.25;font-family:Aharoni;-inkscape-font-specification:'Aharoni, Bold';font-variant-ligatures:normal;font-variant-caps:normal;font-variant-numeric:normal;font-feature-settings:normal;text-align:start;letter-spacing:0px;word-spacing:0px;writing-mode:lr-tb;text-anchor:start;fill:#000000;fill-opacity:1;stroke:none;stroke-width:2.37649584" d="M 52.937412,287.55677 H 40.587702 V 265.43005 H 22.776041 v 22.12672 h -12.34982 v -53.17432 h 12.34982 v 20.5296 h 17.811661 v -20.5296 h 12.34971 z"/>
      <path inkscape:connector-curvature="0" id="path1961-2-9-7-9-3-1-6-5-1-5-8-7-8-2" style="font-style:normal;font-variant:normal;font-weight:bold;font-stretch:normal;font-size:120.99466705px;line-height:1.25;font-family:Aharoni;-inkscape-font-specification:'Aharoni, Bold';font-variant-ligatures:normal;font-variant-caps:normal;font-variant-numeric:normal;font-feature-settings:normal;text-align:start;letter-spacing:0px;word-spacing:0px;writing-mode:lr-tb;text-anchor:start;fill:#000000;fill-opacity:1;stroke:none;stroke-width:2.37649584" d="m 69.681125,237.49895 q 0,3.0385 -1.87856,5.1421 -1.84375,2.0647 -4.55721,2.0647 -2.67866,0 -4.55722,-2.1036 -1.84375,-2.1036 -1.84375,-5.1032 0,-2.9996 1.84375,-5.0642 1.87856,-2.1036 4.55722,-2.1036 2.67865,0 4.55721,2.1036 1.87856,2.0646 1.87856,5.0642 z m -0.73057,50.05782 h -11.41048 v -36.15072 h 11.41048 z"/>
      <path inkscape:connector-curvature="0" id="path1963-3-1-2-8-3-6-3-3-3-4-7-6-0-8" style="font-style:normal;font-variant:normal;font-weight:bold;font-stretch:normal;font-size:120.99466705px;line-height:1.25;font-family:Aharoni;-inkscape-font-specification:'Aharoni, Bold';font-variant-ligatures:normal;font-variant-caps:normal;font-variant-numeric:normal;font-feature-settings:normal;text-align:start;letter-spacing:0px;word-spacing:0px;writing-mode:lr-tb;text-anchor:start;fill:#000000;fill-opacity:1;stroke:none;stroke-width:2.37649584" d="m 93.369625,261.92405 h -6.50536 v 25.63272 h -11.4104 v -25.63272 h -3.75712 v -10.518 h 3.75712 v -10.8686 h 11.4104 v 10.8686 h 6.50536 z"/>
      <path id="path1967-3-3-6-2-9-6-2-5-3-0-9-8-2-1" style="font-style:normal;font-variant:normal;font-weight:bold;font-stretch:normal;font-size:120.99466705px;line-height:1.25;font-family:Aharoni;-inkscape-font-specification:'Aharoni, Bold';font-variant-ligatures:normal;font-variant-caps:normal;font-variant-numeric:normal;font-feature-settings:normal;text-align:start;letter-spacing:0px;word-spacing:0px;writing-mode:lr-tb;text-anchor:start;fill:#000000;fill-opacity:1;stroke:none;stroke-width:2.37649584" d="m 160.61447,287.55677 h -12.34971 v -53.17432 h 12.34971 z" inkscape:connector-curvature="0"/>
      <path inkscape:connector-curvature="0" id="path1969-8-0-8-5-3-5-6-6-3-9-8-6-2-0" style="font-style:normal;font-variant:normal;font-weight:bold;font-stretch:normal;font-size:120.99466705px;line-height:1.25;font-family:Aharoni;-inkscape-font-specification:'Aharoni, Bold';font-variant-ligatures:normal;font-variant-caps:normal;font-variant-numeric:normal;font-feature-settings:normal;text-align:start;letter-spacing:0px;word-spacing:0px;writing-mode:lr-tb;text-anchor:start;fill:#000000;fill-opacity:1;stroke:none;stroke-width:2.37649584" d="m 201.6896,284.86883 q -6.05314,2.68794 -11.20172,2.68794 -8.97528,0 -16.07201,-6.42764 -9.04489,-8.21959 -9.04489,-21.42558 0,-13.2448 9.04489,-21.4644 7.09673,-6.4277 16.17636,-6.4277 4.93989,0 11.09737,2.6879 v 16.5561 q -1.73941,-2.3763 -3.54836,-3.5839 -3.30489,-2.2204 -7.09679,-2.2204 -4.8007,0 -8.34907,3.2333 -4.48766,4.0903 -4.48766,11.2191 0,7.0899 4.48766,11.1803 3.54837,3.23328 8.34907,3.23328 3.7919,0 7.09679,-2.22049 1.77415,-1.16869 3.54836,-3.58389 z"/>
      <path inkscape:transform-center-y="-13.656107" inkscape:transform-center-x="-3.9758045" sodipodi:nodetypes="csssssc" inkscape:connector-curvature="0" id="rect815-3-0-9-3-5-6-0-4-03-7-3-7-5-3-2-76-3-8-8-5-3-7-8-0-1-3-7-9-2-8-1" d="m 104.61223,181.4353 c 0,0 17.68257,27.27493 22.63096,34.41579 7.92879,11.44185 16.42741,30.36094 17.92806,45.50275 1.21005,12.20999 -1.38345,26.51285 -17.32077,30.11208 -11.70405,2.64313 -26.75007,-5.41371 -30.334975,-20.50903 -3.30533,-13.91816 -2.13088,-34.61412 0.0984,-48.67354 1.22049,-7.69719 5.657305,-36.06774 6.998335,-40.84805 z" style="font-style:normal;font-weight:normal;font-size:242.08590698px;line-height:1.25;font-family:sans-serif;letter-spacing:0px;word-spacing:0px;opacity:1;fill:#00456b;fill-opacity:1;stroke:none;stroke-width:0.6720385;stroke-miterlimit:4;stroke-dasharray:none;stroke-dashoffset:0;stroke-opacity:1;paint-order:markers fill stroke"/>
      <path sodipodi:nodetypes="ccscscsccscccscc" d="m 107.52748,246.32531 6.45576,30.78617 6.82019,-1.47997 c 5.75791,-1.24946 9.70999,-3.40081 11.85576,-6.45394 2.16431,-3.05721 2.68673,-7.25521 1.56721,-12.59398 -1.11209,-5.30332 -3.26743,-8.89247 -6.46601,-10.76744 -3.18372,-1.89669 -7.65528,-2.22015 -13.4127,-0.97081 z m -8.759905,-5.09591 12.713095,-2.78742 c 8.8634,-1.94336 15.73718,-1.59097 20.62135,1.05715 4.88003,2.62843 8.10326,7.71587 9.6697,15.26232 1.57464,7.58584 0.64804,13.61405 -2.77981,18.08462 -3.42783,4.4705 -9.55303,7.67294 -18.37559,9.60735 l -12.71311,2.78742 z" style="font-style:normal;font-weight:normal;font-size:242.08590698px;line-height:1.25;font-family:sans-serif;letter-spacing:0px;word-spacing:0px;fill:#ffffff;fill-opacity:1;stroke:none;stroke-width:1.60286868" id="path1193-3-5-3-2-7-4-5-6-0-0-6-9-2-4-7-0-0" inkscape:connector-curvature="0"/>
    </g>
  </g>
</g>
    </g>
  </g>
</svg>
