<?xml version='1.0' encoding='ASCII' standalone='yes'?>
<svg xmlns:xlink="http://www.w3.org/1999/xlink" xmlns="http://www.w3.org/2000/svg" version="1.1" width="460.8px" viewBox="0 0 460.8px 345.6px" height="345.6px">
  <g>
    <g><defs>
  <style type="text/css">
*{stroke-linecap:butt;stroke-linejoin:round;}
  </style>
 </defs>
 <g id="figure_1">
  <g id="patch_1">
   <path d="M 0 345.6  L 460.8 345.6  L 460.8 0  L 0 0  z " style="fill:#ffffff;"/>
  </g>
  <g id="axes_1">
   <g id="patch_2">
    <path d="M 62.12 300.76  L 437.4 300.76  L 437.4 13.32  L 62.12 13.32  z " style="fill:#ffffff;"/>
   </g>
   <g id="matplotlib.axis_1">
    <g id="xtick_1">
     <g id="line2d_1">
      <defs>
       <path d="M 0 0  L 0 3.5  " id="m4b7e601ed9" style="stroke:#000000;stroke-width:0.8;"/>
      </defs>
      <g>
       <use style="stroke:#000000;stroke-width:0.8;" x="62.12" xlink:href="#m4b7e601ed9" y="300.76"/>
      </g>
     </g>
     <g id="text_1">
      <!-- 0 -->
      <defs>
       <path d="M 31.78125 66.40625  Q 24.171875 66.40625 20.328125 58.90625  Q 16.5 51.421875 16.5 36.375  Q 16.5 21.390625 20.328125 13.890625  Q 24.171875 6.390625 31.78125 6.390625  Q 39.453125 6.390625 43.28125 13.890625  Q 47.125 21.390625 47.125 36.375  Q 47.125 51.421875 43.28125 58.90625  Q 39.453125 66.40625 31.78125 66.40625  z M 31.78125 74.21875  Q 44.046875 74.21875 50.515625 64.515625  Q 56.984375 54.828125 56.984375 36.375  Q 56.984375 17.96875 50.515625 8.265625  Q 44.046875 -1.421875 31.78125 -1.421875  Q 19.53125 -1.421875 13.0625 8.265625  Q 6.59375 17.96875 6.59375 36.375  Q 6.59375 54.828125 13.0625 64.515625  Q 19.53125 74.21875 31.78125 74.21875  z " id="DejaVuSans-30"/>
      </defs>
      <g transform="translate(58.93875 315.358437)scale(0.1 -0.1)">
       <use xlink:href="#DejaVuSans-30"/>
      </g>
     </g>
    </g>
    <g id="xtick_2">
     <g id="line2d_2">
      <g>
       <use style="stroke:#000000;stroke-width:0.8;" x="109.03" xlink:href="#m4b7e601ed9" y="300.76"/>
      </g>
     </g>
     <g id="text_2">
      <!-- 250 -->
      <defs>
       <path d="M 19.1875 8.296875  L 53.609375 8.296875  L 53.609375 0  L 7.328125 0  L 7.328125 8.296875  Q 12.9375 14.109375 22.625 23.890625  Q 32.328125 33.6875 34.8125 36.53125  Q 39.546875 41.84375 41.421875 45.53125  Q 43.3125 49.21875 43.3125 52.78125  Q 43.3125 58.59375 39.234375 62.25  Q 35.15625 65.921875 28.609375 65.921875  Q 23.96875 65.921875 18.8125 64.3125  Q 13.671875 62.703125 7.8125 59.421875  L 7.8125 69.390625  Q 13.765625 71.78125 18.9375 73  Q 24.125 74.21875 28.421875 74.21875  Q 39.75 74.21875 46.484375 68.546875  Q 53.21875 62.890625 53.21875 53.421875  Q 53.21875 48.921875 51.53125 44.890625  Q 49.859375 40.875 45.40625 35.40625  Q 44.1875 33.984375 37.640625 27.21875  Q 31.109375 20.453125 19.1875 8.296875  z " id="DejaVuSans-32"/>
       <path d="M 10.796875 72.90625  L 49.515625 72.90625  L 49.515625 64.59375  L 19.828125 64.59375  L 19.828125 46.734375  Q 21.96875 47.46875 24.109375 47.828125  Q 26.265625 48.1875 28.421875 48.1875  Q 40.625 48.1875 47.75 41.5  Q 54.890625 34.8125 54.890625 23.390625  Q 54.890625 11.625 47.5625 5.09375  Q 40.234375 -1.421875 26.90625 -1.421875  Q 22.3125 -1.421875 17.546875 -0.640625  Q 12.796875 0.140625 7.71875 1.703125  L 7.71875 11.625  Q 12.109375 9.234375 16.796875 8.0625  Q 21.484375 6.890625 26.703125 6.890625  Q 35.15625 6.890625 40.078125 11.328125  Q 45.015625 15.765625 45.015625 23.390625  Q 45.015625 31 40.078125 35.4375  Q 35.15625 39.890625 26.703125 39.890625  Q 22.75 39.890625 18.8125 39.015625  Q 14.890625 38.140625 10.796875 36.28125  z " id="DejaVuSans-35"/>
      </defs>
      <g transform="translate(99.48625 315.358437)scale(0.1 -0.1)">
       <use xlink:href="#DejaVuSans-32"/>
       <use x="63.623047" xlink:href="#DejaVuSans-35"/>
       <use x="127.246094" xlink:href="#DejaVuSans-30"/>
      </g>
     </g>
    </g>
    <g id="xtick_3">
     <g id="line2d_3">
      <g>
       <use style="stroke:#000000;stroke-width:0.8;" x="155.94" xlink:href="#m4b7e601ed9" y="300.76"/>
      </g>
     </g>
     <g id="text_3">
      <!-- 500 -->
      <g transform="translate(146.39625 315.358437)scale(0.1 -0.1)">
       <use xlink:href="#DejaVuSans-35"/>
       <use x="63.623047" xlink:href="#DejaVuSans-30"/>
       <use x="127.246094" xlink:href="#DejaVuSans-30"/>
      </g>
     </g>
    </g>
    <g id="xtick_4">
     <g id="line2d_4">
      <g>
       <use style="stroke:#000000;stroke-width:0.8;" x="202.85" xlink:href="#m4b7e601ed9" y="300.76"/>
      </g>
     </g>
     <g id="text_4">
      <!-- 750 -->
      <defs>
       <path d="M 8.203125 72.90625  L 55.078125 72.90625  L 55.078125 68.703125  L 28.609375 0  L 18.3125 0  L 43.21875 64.59375  L 8.203125 64.59375  z " id="DejaVuSans-37"/>
      </defs>
      <g transform="translate(193.30625 315.358437)scale(0.1 -0.1)">
       <use xlink:href="#DejaVuSans-37"/>
       <use x="63.623047" xlink:href="#DejaVuSans-35"/>
       <use x="127.246094" xlink:href="#DejaVuSans-30"/>
      </g>
     </g>
    </g>
    <g id="xtick_5">
     <g id="line2d_5">
      <g>
       <use style="stroke:#000000;stroke-width:0.8;" x="249.76" xlink:href="#m4b7e601ed9" y="300.76"/>
      </g>
     </g>
     <g id="text_5">
      <!-- 1000 -->
      <defs>
       <path d="M 12.40625 8.296875  L 28.515625 8.296875  L 28.515625 63.921875  L 10.984375 60.40625  L 10.984375 69.390625  L 28.421875 72.90625  L 38.28125 72.90625  L 38.28125 8.296875  L 54.390625 8.296875  L 54.390625 0  L 12.40625 0  z " id="DejaVuSans-31"/>
      </defs>
      <g transform="translate(237.035 315.358437)scale(0.1 -0.1)">
       <use xlink:href="#DejaVuSans-31"/>
       <use x="63.623047" xlink:href="#DejaVuSans-30"/>
       <use x="127.246094" xlink:href="#DejaVuSans-30"/>
       <use x="190.869141" xlink:href="#DejaVuSans-30"/>
      </g>
     </g>
    </g>
    <g id="xtick_6">
     <g id="line2d_6">
      <g>
       <use style="stroke:#000000;stroke-width:0.8;" x="296.67" xlink:href="#m4b7e601ed9" y="300.76"/>
      </g>
     </g>
     <g id="text_6">
      <!-- 1250 -->
      <g transform="translate(283.945 315.358437)scale(0.1 -0.1)">
       <use xlink:href="#DejaVuSans-31"/>
       <use x="63.623047" xlink:href="#DejaVuSans-32"/>
       <use x="127.246094" xlink:href="#DejaVuSans-35"/>
       <use x="190.869141" xlink:href="#DejaVuSans-30"/>
      </g>
     </g>
    </g>
    <g id="xtick_7">
     <g id="line2d_7">
      <g>
       <use style="stroke:#000000;stroke-width:0.8;" x="343.58" xlink:href="#m4b7e601ed9" y="300.76"/>
      </g>
     </g>
     <g id="text_7">
      <!-- 1500 -->
      <g transform="translate(330.855 315.358437)scale(0.1 -0.1)">
       <use xlink:href="#DejaVuSans-31"/>
       <use x="63.623047" xlink:href="#DejaVuSans-35"/>
       <use x="127.246094" xlink:href="#DejaVuSans-30"/>
       <use x="190.869141" xlink:href="#DejaVuSans-30"/>
      </g>
     </g>
    </g>
    <g id="xtick_8">
     <g id="line2d_8">
      <g>
       <use style="stroke:#000000;stroke-width:0.8;" x="390.49" xlink:href="#m4b7e601ed9" y="300.76"/>
      </g>
     </g>
     <g id="text_8">
      <!-- 1750 -->
      <g transform="translate(377.765 315.358437)scale(0.1 -0.1)">
       <use xlink:href="#DejaVuSans-31"/>
       <use x="63.623047" xlink:href="#DejaVuSans-37"/>
       <use x="127.246094" xlink:href="#DejaVuSans-35"/>
       <use x="190.869141" xlink:href="#DejaVuSans-30"/>
      </g>
     </g>
    </g>
    <g id="xtick_9">
     <g id="line2d_9">
      <g>
       <use style="stroke:#000000;stroke-width:0.8;" x="437.4" xlink:href="#m4b7e601ed9" y="300.76"/>
      </g>
     </g>
     <g id="text_9">
      <!-- 2000 -->
      <g transform="translate(424.675 315.358437)scale(0.1 -0.1)">
       <use xlink:href="#DejaVuSans-32"/>
       <use x="63.623047" xlink:href="#DejaVuSans-30"/>
       <use x="127.246094" xlink:href="#DejaVuSans-30"/>
       <use x="190.869141" xlink:href="#DejaVuSans-30"/>
      </g>
     </g>
    </g>
    <g id="text_10">
     <!-- Distance ($\mu$m) -->
     <defs>
      <path d="M 19.671875 64.796875  L 19.671875 8.109375  L 31.59375 8.109375  Q 46.6875 8.109375 53.6875 14.9375  Q 60.6875 21.78125 60.6875 36.53125  Q 60.6875 51.171875 53.6875 57.984375  Q 46.6875 64.796875 31.59375 64.796875  z M 9.8125 72.90625  L 30.078125 72.90625  Q 51.265625 72.90625 61.171875 64.09375  Q 71.09375 55.28125 71.09375 36.53125  Q 71.09375 17.671875 61.125 8.828125  Q 51.171875 0 30.078125 0  L 9.8125 0  z " id="DejaVuSans-44"/>
      <path d="M 9.421875 54.6875  L 18.40625 54.6875  L 18.40625 0  L 9.421875 0  z M 9.421875 75.984375  L 18.40625 75.984375  L 18.40625 64.59375  L 9.421875 64.59375  z " id="DejaVuSans-69"/>
      <path d="M 44.28125 53.078125  L 44.28125 44.578125  Q 40.484375 46.53125 36.375 47.5  Q 32.28125 48.484375 27.875 48.484375  Q 21.1875 48.484375 17.84375 46.4375  Q 14.5 44.390625 14.5 40.28125  Q 14.5 37.15625 16.890625 35.375  Q 19.28125 33.59375 26.515625 31.984375  L 29.59375 31.296875  Q 39.15625 29.25 43.1875 25.515625  Q 47.21875 21.78125 47.21875 15.09375  Q 47.21875 7.46875 41.1875 3.015625  Q 35.15625 -1.421875 24.609375 -1.421875  Q 20.21875 -1.421875 15.453125 -0.5625  Q 10.6875 0.296875 5.421875 2  L 5.421875 11.28125  Q 10.40625 8.6875 15.234375 7.390625  Q 20.0625 6.109375 24.8125 6.109375  Q 31.15625 6.109375 34.5625 8.28125  Q 37.984375 10.453125 37.984375 14.40625  Q 37.984375 18.0625 35.515625 20.015625  Q 33.0625 21.96875 24.703125 23.78125  L 21.578125 24.515625  Q 13.234375 26.265625 9.515625 29.90625  Q 5.8125 33.546875 5.8125 39.890625  Q 5.8125 47.609375 11.28125 51.796875  Q 16.75 56 26.8125 56  Q 31.78125 56 36.171875 55.265625  Q 40.578125 54.546875 44.28125 53.078125  z " id="DejaVuSans-73"/>
      <path d="M 18.3125 70.21875  L 18.3125 54.6875  L 36.8125 54.6875  L 36.8125 47.703125  L 18.3125 47.703125  L 18.3125 18.015625  Q 18.3125 11.328125 20.140625 9.421875  Q 21.96875 7.515625 27.59375 7.515625  L 36.8125 7.515625  L 36.8125 0  L 27.59375 0  Q 17.1875 0 13.234375 3.875  Q 9.28125 7.765625 9.28125 18.015625  L 9.28125 47.703125  L 2.6875 47.703125  L 2.6875 54.6875  L 9.28125 54.6875  L 9.28125 70.21875  z " id="DejaVuSans-74"/>
      <path d="M 34.28125 27.484375  Q 23.390625 27.484375 19.1875 25  Q 14.984375 22.515625 14.984375 16.5  Q 14.984375 11.71875 18.140625 8.90625  Q 21.296875 6.109375 26.703125 6.109375  Q 34.1875 6.109375 38.703125 11.40625  Q 43.21875 16.703125 43.21875 25.484375  L 43.21875 27.484375  z M 52.203125 31.203125  L 52.203125 0  L 43.21875 0  L 43.21875 8.296875  Q 40.140625 3.328125 35.546875 0.953125  Q 30.953125 -1.421875 24.3125 -1.421875  Q 15.921875 -1.421875 10.953125 3.296875  Q 6 8.015625 6 15.921875  Q 6 25.140625 12.171875 29.828125  Q 18.359375 34.515625 30.609375 34.515625  L 43.21875 34.515625  L 43.21875 35.40625  Q 43.21875 41.609375 39.140625 45  Q 35.0625 48.390625 27.6875 48.390625  Q 23 48.390625 18.546875 47.265625  Q 14.109375 46.140625 10.015625 43.890625  L 10.015625 52.203125  Q 14.9375 54.109375 19.578125 55.046875  Q 24.21875 56 28.609375 56  Q 40.484375 56 46.34375 49.84375  Q 52.203125 43.703125 52.203125 31.203125  z " id="DejaVuSans-61"/>
      <path d="M 54.890625 33.015625  L 54.890625 0  L 45.90625 0  L 45.90625 32.71875  Q 45.90625 40.484375 42.875 44.328125  Q 39.84375 48.1875 33.796875 48.1875  Q 26.515625 48.1875 22.3125 43.546875  Q 18.109375 38.921875 18.109375 30.90625  L 18.109375 0  L 9.078125 0  L 9.078125 54.6875  L 18.109375 54.6875  L 18.109375 46.1875  Q 21.34375 51.125 25.703125 53.5625  Q 30.078125 56 35.796875 56  Q 45.21875 56 50.046875 50.171875  Q 54.890625 44.34375 54.890625 33.015625  z " id="DejaVuSans-6e"/>
      <path d="M 48.78125 52.59375  L 48.78125 44.1875  Q 44.96875 46.296875 41.140625 47.34375  Q 37.3125 48.390625 33.40625 48.390625  Q 24.65625 48.390625 19.8125 42.84375  Q 14.984375 37.3125 14.984375 27.296875  Q 14.984375 17.28125 19.8125 11.734375  Q 24.65625 6.203125 33.40625 6.203125  Q 37.3125 6.203125 41.140625 7.25  Q 44.96875 8.296875 48.78125 10.40625  L 48.78125 2.09375  Q 45.015625 0.34375 40.984375 -0.53125  Q 36.96875 -1.421875 32.421875 -1.421875  Q 20.0625 -1.421875 12.78125 6.34375  Q 5.515625 14.109375 5.515625 27.296875  Q 5.515625 40.671875 12.859375 48.328125  Q 20.21875 56 33.015625 56  Q 37.15625 56 41.109375 55.140625  Q 45.0625 54.296875 48.78125 52.59375  z " id="DejaVuSans-63"/>
      <path d="M 56.203125 29.59375  L 56.203125 25.203125  L 14.890625 25.203125  Q 15.484375 15.921875 20.484375 11.0625  Q 25.484375 6.203125 34.421875 6.203125  Q 39.59375 6.203125 44.453125 7.46875  Q 49.3125 8.734375 54.109375 11.28125  L 54.109375 2.78125  Q 49.265625 0.734375 44.1875 -0.34375  Q 39.109375 -1.421875 33.890625 -1.421875  Q 20.796875 -1.421875 13.15625 6.1875  Q 5.515625 13.8125 5.515625 26.8125  Q 5.515625 40.234375 12.765625 48.109375  Q 20.015625 56 32.328125 56  Q 43.359375 56 49.78125 48.890625  Q 56.203125 41.796875 56.203125 29.59375  z M 47.21875 32.234375  Q 47.125 39.59375 43.09375 43.984375  Q 39.0625 48.390625 32.421875 48.390625  Q 24.90625 48.390625 20.390625 44.140625  Q 15.875 39.890625 15.1875 32.171875  z " id="DejaVuSans-65"/>
      <path id="DejaVuSans-20"/>
      <path d="M 31 75.875  Q 24.46875 64.65625 21.28125 53.65625  Q 18.109375 42.671875 18.109375 31.390625  Q 18.109375 20.125 21.3125 9.0625  Q 24.515625 -2 31 -13.1875  L 23.1875 -13.1875  Q 15.875 -1.703125 12.234375 9.375  Q 8.59375 20.453125 8.59375 31.390625  Q 8.59375 42.28125 12.203125 53.3125  Q 15.828125 64.359375 23.1875 75.875  z " id="DejaVuSans-28"/>
      <path d="M -1.3125 -20.796875  L 13.375 54.6875  L 22.40625 54.6875  L 15.765625 20.65625  Q 15.578125 19.625 15.421875 18.359375  Q 15.28125 17.09375 15.28125 15.828125  Q 15.28125 11.28125 18.140625 8.828125  Q 21 6.390625 26.3125 6.390625  Q 33.546875 6.390625 37.984375 10.484375  Q 42.4375 14.59375 44 22.796875  L 50.203125 54.6875  L 59.1875 54.6875  L 51.03125 12.640625  Q 50.828125 11.71875 50.75 11.03125  Q 50.6875 10.359375 50.6875 9.8125  Q 50.6875 8.296875 51.296875 7.59375  Q 51.90625 6.890625 53.21875 6.890625  Q 53.71875 6.890625 54.5625 7.125  Q 55.421875 7.375 56.984375 8.015625  L 55.609375 0.78125  Q 53.46875 -0.296875 51.515625 -0.859375  Q 49.5625 -1.421875 47.703125 -1.421875  Q 44.484375 -1.421875 42.65625 0.625  Q 40.828125 2.6875 40.828125 6.296875  Q 38.09375 2.390625 34.296875 0.484375  Q 30.515625 -1.421875 25.390625 -1.421875  Q 20.84375 -1.421875 17.453125 0.671875  Q 14.0625 2.78125 12.984375 6.203125  L 7.71875 -20.796875  z " id="DejaVuSans-Oblique-3bc"/>
      <path d="M 52 44.1875  Q 55.375 50.25 60.0625 53.125  Q 64.75 56 71.09375 56  Q 79.640625 56 84.28125 50.015625  Q 88.921875 44.046875 88.921875 33.015625  L 88.921875 0  L 79.890625 0  L 79.890625 32.71875  Q 79.890625 40.578125 77.09375 44.375  Q 74.3125 48.1875 68.609375 48.1875  Q 61.625 48.1875 57.5625 43.546875  Q 53.515625 38.921875 53.515625 30.90625  L 53.515625 0  L 44.484375 0  L 44.484375 32.71875  Q 44.484375 40.625 41.703125 44.40625  Q 38.921875 48.1875 33.109375 48.1875  Q 26.21875 48.1875 22.15625 43.53125  Q 18.109375 38.875 18.109375 30.90625  L 18.109375 0  L 9.078125 0  L 9.078125 54.6875  L 18.109375 54.6875  L 18.109375 46.1875  Q 21.1875 51.21875 25.484375 53.609375  Q 29.78125 56 35.6875 56  Q 41.65625 56 45.828125 52.96875  Q 50 49.953125 52 44.1875  z " id="DejaVuSans-6d"/>
      <path d="M 8.015625 75.875  L 15.828125 75.875  Q 23.140625 64.359375 26.78125 53.3125  Q 30.421875 42.28125 30.421875 31.390625  Q 30.421875 20.453125 26.78125 9.375  Q 23.140625 -1.703125 15.828125 -13.1875  L 8.015625 -13.1875  Q 14.5 -2 17.703125 9.0625  Q 20.90625 20.125 20.90625 31.390625  Q 20.90625 42.671875 17.703125 53.65625  Q 14.5 64.65625 8.015625 75.875  z " id="DejaVuSans-29"/>
     </defs>
     <g transform="translate(214.31 329.038125)scale(0.1 -0.1)">
      <use transform="translate(0 0.015625)" xlink:href="#DejaVuSans-44"/>
      <use transform="translate(77.001953 0.015625)" xlink:href="#DejaVuSans-69"/>
      <use transform="translate(104.785156 0.015625)" xlink:href="#DejaVuSans-73"/>
      <use transform="translate(156.884766 0.015625)" xlink:href="#DejaVuSans-74"/>
      <use transform="translate(196.09375 0.015625)" xlink:href="#DejaVuSans-61"/>
      <use transform="translate(257.373047 0.015625)" xlink:href="#DejaVuSans-6e"/>
      <use transform="translate(320.751953 0.015625)" xlink:href="#DejaVuSans-63"/>
      <use transform="translate(375.732422 0.015625)" xlink:href="#DejaVuSans-65"/>
      <use transform="translate(437.255859 0.015625)" xlink:href="#DejaVuSans-20"/>
      <use transform="translate(469.042969 0.015625)" xlink:href="#DejaVuSans-28"/>
      <use transform="translate(508.056641 0.015625)" xlink:href="#DejaVuSans-Oblique-3bc"/>
      <use transform="translate(571.679688 0.015625)" xlink:href="#DejaVuSans-6d"/>
      <use transform="translate(669.091797 0.015625)" xlink:href="#DejaVuSans-29"/>
     </g>
    </g>
   </g>
   <g id="matplotlib.axis_2">
    <g id="ytick_1">
     <g id="line2d_10">
      <defs>
       <path d="M 0 0  L -3.5 0  " id="m8e4903364b" style="stroke:#000000;stroke-width:0.8;"/>
      </defs>
      <g>
       <use style="stroke:#000000;stroke-width:0.8;" x="62.12" xlink:href="#m8e4903364b" y="270.757145"/>
      </g>
     </g>
     <g id="text_11">
      <!-- &#8722;200 -->
      <defs>
       <path d="M 10.59375 35.5  L 73.1875 35.5  L 73.1875 27.203125  L 10.59375 27.203125  z " id="DejaVuSans-2212"/>
      </defs>
      <g transform="translate(27.652813 274.556364)scale(0.1 -0.1)">
       <use xlink:href="#DejaVuSans-2212"/>
       <use x="83.789062" xlink:href="#DejaVuSans-32"/>
       <use x="147.412109" xlink:href="#DejaVuSans-30"/>
       <use x="211.035156" xlink:href="#DejaVuSans-30"/>
      </g>
     </g>
    </g>
    <g id="ytick_2">
     <g id="line2d_11">
      <g>
       <use style="stroke:#000000;stroke-width:0.8;" x="62.12" xlink:href="#m8e4903364b" y="215.667386"/>
      </g>
     </g>
     <g id="text_12">
      <!-- &#8722;100 -->
      <g transform="translate(27.652813 219.466605)scale(0.1 -0.1)">
       <use xlink:href="#DejaVuSans-2212"/>
       <use x="83.789062" xlink:href="#DejaVuSans-31"/>
       <use x="147.412109" xlink:href="#DejaVuSans-30"/>
       <use x="211.035156" xlink:href="#DejaVuSans-30"/>
      </g>
     </g>
    </g>
    <g id="ytick_3">
     <g id="line2d_12">
      <g>
       <use style="stroke:#000000;stroke-width:0.8;" x="62.12" xlink:href="#m8e4903364b" y="160.577627"/>
      </g>
     </g>
     <g id="text_13">
      <!-- 0 -->
      <g transform="translate(48.7575 164.376845)scale(0.1 -0.1)">
       <use xlink:href="#DejaVuSans-30"/>
      </g>
     </g>
    </g>
    <g id="ytick_4">
     <g id="line2d_13">
      <g>
       <use style="stroke:#000000;stroke-width:0.8;" x="62.12" xlink:href="#m8e4903364b" y="105.487868"/>
      </g>
     </g>
     <g id="text_14">
      <!-- 100 -->
      <g transform="translate(36.0325 109.287086)scale(0.1 -0.1)">
       <use xlink:href="#DejaVuSans-31"/>
       <use x="63.623047" xlink:href="#DejaVuSans-30"/>
       <use x="127.246094" xlink:href="#DejaVuSans-30"/>
      </g>
     </g>
    </g>
    <g id="ytick_5">
     <g id="line2d_14">
      <g>
       <use style="stroke:#000000;stroke-width:0.8;" x="62.12" xlink:href="#m8e4903364b" y="50.398108"/>
      </g>
     </g>
     <g id="text_15">
      <!-- 200 -->
      <g transform="translate(36.0325 54.197327)scale(0.1 -0.1)">
       <use xlink:href="#DejaVuSans-32"/>
       <use x="63.623047" xlink:href="#DejaVuSans-30"/>
       <use x="127.246094" xlink:href="#DejaVuSans-30"/>
      </g>
     </g>
    </g>
    <g id="text_16">
     <!-- Slope, at. / $\mu m$ -->
     <defs>
      <path d="M 53.515625 70.515625  L 53.515625 60.890625  Q 47.90625 63.578125 42.921875 64.890625  Q 37.9375 66.21875 33.296875 66.21875  Q 25.25 66.21875 20.875 63.09375  Q 16.5 59.96875 16.5 54.203125  Q 16.5 49.359375 19.40625 46.890625  Q 22.3125 44.4375 30.421875 42.921875  L 36.375 41.703125  Q 47.40625 39.59375 52.65625 34.296875  Q 57.90625 29 57.90625 20.125  Q 57.90625 9.515625 50.796875 4.046875  Q 43.703125 -1.421875 29.984375 -1.421875  Q 24.8125 -1.421875 18.96875 -0.25  Q 13.140625 0.921875 6.890625 3.21875  L 6.890625 13.375  Q 12.890625 10.015625 18.65625 8.296875  Q 24.421875 6.59375 29.984375 6.59375  Q 38.421875 6.59375 43.015625 9.90625  Q 47.609375 13.234375 47.609375 19.390625  Q 47.609375 24.75 44.3125 27.78125  Q 41.015625 30.8125 33.5 32.328125  L 27.484375 33.5  Q 16.453125 35.6875 11.515625 40.375  Q 6.59375 45.0625 6.59375 53.421875  Q 6.59375 63.09375 13.40625 68.65625  Q 20.21875 74.21875 32.171875 74.21875  Q 37.3125 74.21875 42.625 73.28125  Q 47.953125 72.359375 53.515625 70.515625  z " id="DejaVuSans-53"/>
      <path d="M 9.421875 75.984375  L 18.40625 75.984375  L 18.40625 0  L 9.421875 0  z " id="DejaVuSans-6c"/>
      <path d="M 30.609375 48.390625  Q 23.390625 48.390625 19.1875 42.75  Q 14.984375 37.109375 14.984375 27.296875  Q 14.984375 17.484375 19.15625 11.84375  Q 23.34375 6.203125 30.609375 6.203125  Q 37.796875 6.203125 41.984375 11.859375  Q 46.1875 17.53125 46.1875 27.296875  Q 46.1875 37.015625 41.984375 42.703125  Q 37.796875 48.390625 30.609375 48.390625  z M 30.609375 56  Q 42.328125 56 49.015625 48.375  Q 55.71875 40.765625 55.71875 27.296875  Q 55.71875 13.875 49.015625 6.21875  Q 42.328125 -1.421875 30.609375 -1.421875  Q 18.84375 -1.421875 12.171875 6.21875  Q 5.515625 13.875 5.515625 27.296875  Q 5.515625 40.765625 12.171875 48.375  Q 18.84375 56 30.609375 56  z " id="DejaVuSans-6f"/>
      <path d="M 18.109375 8.203125  L 18.109375 -20.796875  L 9.078125 -20.796875  L 9.078125 54.6875  L 18.109375 54.6875  L 18.109375 46.390625  Q 20.953125 51.265625 25.265625 53.625  Q 29.59375 56 35.59375 56  Q 45.5625 56 51.78125 48.09375  Q 58.015625 40.1875 58.015625 27.296875  Q 58.015625 14.40625 51.78125 6.484375  Q 45.5625 -1.421875 35.59375 -1.421875  Q 29.59375 -1.421875 25.265625 0.953125  Q 20.953125 3.328125 18.109375 8.203125  z M 48.6875 27.296875  Q 48.6875 37.203125 44.609375 42.84375  Q 40.53125 48.484375 33.40625 48.484375  Q 26.265625 48.484375 22.1875 42.84375  Q 18.109375 37.203125 18.109375 27.296875  Q 18.109375 17.390625 22.1875 11.75  Q 26.265625 6.109375 33.40625 6.109375  Q 40.53125 6.109375 44.609375 11.75  Q 48.6875 17.390625 48.6875 27.296875  z " id="DejaVuSans-70"/>
      <path d="M 11.71875 12.40625  L 22.015625 12.40625  L 22.015625 4  L 14.015625 -11.625  L 7.71875 -11.625  L 11.71875 4  z " id="DejaVuSans-2c"/>
      <path d="M 10.6875 12.40625  L 21 12.40625  L 21 0  L 10.6875 0  z " id="DejaVuSans-2e"/>
      <path d="M 25.390625 72.90625  L 33.6875 72.90625  L 8.296875 -9.28125  L 0 -9.28125  z " id="DejaVuSans-2f"/>
      <path d="M 89.796875 33.015625  L 83.40625 0  L 74.421875 0  L 80.71875 32.71875  Q 81.109375 34.8125 81.296875 36.328125  Q 81.5 37.84375 81.5 38.921875  Q 81.5 43.3125 79.046875 45.75  Q 76.609375 48.1875 72.21875 48.1875  Q 65.671875 48.1875 60.546875 43.28125  Q 55.421875 38.375 53.90625 30.515625  L 47.90625 0  L 38.921875 0  L 45.3125 32.71875  Q 45.703125 34.515625 45.890625 36.046875  Q 46.09375 37.59375 46.09375 38.8125  Q 46.09375 43.265625 43.65625 45.71875  Q 41.21875 48.1875 36.921875 48.1875  Q 30.28125 48.1875 25.140625 43.28125  Q 20.015625 38.375 18.5 30.515625  L 12.5 0  L 3.515625 0  L 14.203125 54.6875  L 23.1875 54.6875  L 21.484375 46.1875  Q 25.140625 50.984375 30.046875 53.484375  Q 34.96875 56 40.578125 56  Q 46.53125 56 50.359375 52.875  Q 54.203125 49.75 54.984375 44.1875  Q 59.078125 49.953125 64.46875 52.96875  Q 69.875 56 75.875 56  Q 82.90625 56 86.734375 51.953125  Q 90.578125 47.90625 90.578125 40.484375  Q 90.578125 38.875 90.375 36.9375  Q 90.1875 35.015625 89.796875 33.015625  z " id="DejaVuSans-Oblique-6d"/>
     </defs>
     <g transform="translate(21.552813 193.64)rotate(-90)scale(0.1 -0.1)">
      <use transform="translate(0 0.015625)" xlink:href="#DejaVuSans-53"/>
      <use transform="translate(63.476562 0.015625)" xlink:href="#DejaVuSans-6c"/>
      <use transform="translate(91.259766 0.015625)" xlink:href="#DejaVuSans-6f"/>
      <use transform="translate(152.441406 0.015625)" xlink:href="#DejaVuSans-70"/>
      <use transform="translate(215.917969 0.015625)" xlink:href="#DejaVuSans-65"/>
      <use transform="translate(277.441406 0.015625)" xlink:href="#DejaVuSans-2c"/>
      <use transform="translate(309.228516 0.015625)" xlink:href="#DejaVuSans-20"/>
      <use transform="translate(341.015625 0.015625)" xlink:href="#DejaVuSans-61"/>
      <use transform="translate(402.294922 0.015625)" xlink:href="#DejaVuSans-74"/>
      <use transform="translate(441.503906 0.015625)" xlink:href="#DejaVuSans-2e"/>
      <use transform="translate(473.291016 0.015625)" xlink:href="#DejaVuSans-20"/>
      <use transform="translate(505.078125 0.015625)" xlink:href="#DejaVuSans-2f"/>
      <use transform="translate(538.769531 0.015625)" xlink:href="#DejaVuSans-20"/>
      <use transform="translate(570.556641 0.015625)" xlink:href="#DejaVuSans-Oblique-3bc"/>
      <use transform="translate(634.179688 0.015625)" xlink:href="#DejaVuSans-Oblique-6d"/>
     </g>
    </g>
   </g>
   <g id="line2d_15">
    <defs>
     <path d="M -0 3  L 3 -3  L -3 -3  z " id="md92afa8535" style="stroke:#e74c3c;stroke-linejoin:miter;"/>
    </defs>
    <g clip-path="url(#p6aad167b5b)">
     <use style="fill:#e74c3c;stroke:#e74c3c;stroke-linejoin:miter;" x="62.12" xlink:href="#md92afa8535" y="164.514924"/>
     <use style="fill:#e74c3c;stroke:#e74c3c;stroke-linejoin:miter;" x="71.68964" xlink:href="#md92afa8535" y="164.514924"/>
     <use style="fill:#e74c3c;stroke:#e74c3c;stroke-linejoin:miter;" x="81.25928" xlink:href="#md92afa8535" y="152.784046"/>
     <use style="fill:#e74c3c;stroke:#e74c3c;stroke-linejoin:miter;" x="90.82892" xlink:href="#md92afa8535" y="158.314626"/>
     <use style="fill:#e74c3c;stroke:#e74c3c;stroke-linejoin:miter;" x="100.39856" xlink:href="#md92afa8535" y="168.268589"/>
     <use style="fill:#e74c3c;stroke:#e74c3c;stroke-linejoin:miter;" x="109.9682" xlink:href="#md92afa8535" y="159.01675"/>
     <use style="fill:#e74c3c;stroke:#e74c3c;stroke-linejoin:miter;" x="119.53784" xlink:href="#md92afa8535" y="157.742124"/>
     <use style="fill:#e74c3c;stroke:#e74c3c;stroke-linejoin:miter;" x="129.10748" xlink:href="#md92afa8535" y="165.579197"/>
     <use style="fill:#e74c3c;stroke:#e74c3c;stroke-linejoin:miter;" x="133.79848" xlink:href="#md92afa8535" y="158.741301"/>
     <use style="fill:#e74c3c;stroke:#e74c3c;stroke-linejoin:miter;" x="138.67712" xlink:href="#md92afa8535" y="152.681428"/>
     <use style="fill:#e74c3c;stroke:#e74c3c;stroke-linejoin:miter;" x="143.36812" xlink:href="#md92afa8535" y="161.194632"/>
     <use style="fill:#e74c3c;stroke:#e74c3c;stroke-linejoin:miter;" x="148.05912" xlink:href="#md92afa8535" y="159.648662"/>
     <use style="fill:#e74c3c;stroke:#e74c3c;stroke-linejoin:miter;" x="152.93776" xlink:href="#md92afa8535" y="164.876788"/>
     <use style="fill:#e74c3c;stroke:#e74c3c;stroke-linejoin:miter;" x="157.62876" xlink:href="#md92afa8535" y="166.021791"/>
     <use style="fill:#e74c3c;stroke:#e74c3c;stroke-linejoin:miter;" x="162.5074" xlink:href="#md92afa8535" y="164.741554"/>
     <use style="fill:#e74c3c;stroke:#e74c3c;stroke-linejoin:miter;" x="172.07704" xlink:href="#md92afa8535" y="161.925876"/>
     <use style="fill:#e74c3c;stroke:#e74c3c;stroke-linejoin:miter;" x="176.76804" xlink:href="#md92afa8535" y="168.257787"/>
     <use style="fill:#e74c3c;stroke:#e74c3c;stroke-linejoin:miter;" x="181.64668" xlink:href="#md92afa8535" y="165.287261"/>
     <use style="fill:#e74c3c;stroke:#e74c3c;stroke-linejoin:miter;" x="186.33768" xlink:href="#md92afa8535" y="174.026009"/>
     <use style="fill:#e74c3c;stroke:#e74c3c;stroke-linejoin:miter;" x="191.21632" xlink:href="#md92afa8535" y="182.537917"/>
     <use style="fill:#e74c3c;stroke:#e74c3c;stroke-linejoin:miter;" x="195.90732" xlink:href="#md92afa8535" y="157.121014"/>
     <use style="fill:#e74c3c;stroke:#e74c3c;stroke-linejoin:miter;" x="200.78596" xlink:href="#md92afa8535" y="205.340756"/>
     <use style="fill:#e74c3c;stroke:#e74c3c;stroke-linejoin:miter;" x="205.47696" xlink:href="#md92afa8535" y="186.350992"/>
     <use style="fill:#e74c3c;stroke:#e74c3c;stroke-linejoin:miter;" x="210.3556" xlink:href="#md92afa8535" y="144.558389"/>
     <use style="fill:#e74c3c;stroke:#e74c3c;stroke-linejoin:miter;" x="215.0466" xlink:href="#md92afa8535" y="180.69079"/>
     <use style="fill:#e74c3c;stroke:#e74c3c;stroke-linejoin:miter;" x="219.92524" xlink:href="#md92afa8535" y="174.792945"/>
     <use style="fill:#e74c3c;stroke:#e74c3c;stroke-linejoin:miter;" x="224.61624" xlink:href="#md92afa8535" y="186.106221"/>
     <use style="fill:#e74c3c;stroke:#e74c3c;stroke-linejoin:miter;" x="229.30724" xlink:href="#md92afa8535" y="186.459012"/>
     <use style="fill:#e74c3c;stroke:#e74c3c;stroke-linejoin:miter;" x="234.18588" xlink:href="#md92afa8535" y="178.595219"/>
     <use style="fill:#e74c3c;stroke:#e74c3c;stroke-linejoin:miter;" x="238.87688" xlink:href="#md92afa8535" y="178.238755"/>
     <use style="fill:#e74c3c;stroke:#e74c3c;stroke-linejoin:miter;" x="243.75552" xlink:href="#md92afa8535" y="163.764191"/>
     <use style="fill:#e74c3c;stroke:#e74c3c;stroke-linejoin:miter;" x="248.44652" xlink:href="#md92afa8535" y="177.957906"/>
     <use style="fill:#e74c3c;stroke:#e74c3c;stroke-linejoin:miter;" x="253.32516" xlink:href="#md92afa8535" y="169.500007"/>
     <use style="fill:#e74c3c;stroke:#e74c3c;stroke-linejoin:miter;" x="258.01616" xlink:href="#md92afa8535" y="162.230319"/>
     <use style="fill:#e74c3c;stroke:#e74c3c;stroke-linejoin:miter;" x="262.8948" xlink:href="#md92afa8535" y="185.389622"/>
     <use style="fill:#e74c3c;stroke:#e74c3c;stroke-linejoin:miter;" x="267.5858" xlink:href="#md92afa8535" y="174.27758"/>
     <use style="fill:#e74c3c;stroke:#e74c3c;stroke-linejoin:miter;" x="277.15544" xlink:href="#md92afa8535" y="173.70616"/>
     <use style="fill:#e74c3c;stroke:#e74c3c;stroke-linejoin:miter;" x="282.03408" xlink:href="#md92afa8535" y="176.542855"/>
     <use style="fill:#e74c3c;stroke:#e74c3c;stroke-linejoin:miter;" x="286.72508" xlink:href="#md92afa8535" y="168.095759"/>
     <use style="fill:#e74c3c;stroke:#e74c3c;stroke-linejoin:miter;" x="291.60372" xlink:href="#md92afa8535" y="167.858116"/>
     <use style="fill:#e74c3c;stroke:#e74c3c;stroke-linejoin:miter;" x="296.29472" xlink:href="#md92afa8535" y="163.915418"/>
     <use style="fill:#e74c3c;stroke:#e74c3c;stroke-linejoin:miter;" x="301.17336" xlink:href="#md92afa8535" y="158.935736"/>
     <use style="fill:#e74c3c;stroke:#e74c3c;stroke-linejoin:miter;" x="305.86436" xlink:href="#md92afa8535" y="166.328998"/>
     <use style="fill:#e74c3c;stroke:#e74c3c;stroke-linejoin:miter;" x="310.55536" xlink:href="#md92afa8535" y="167.70689"/>
     <use style="fill:#e74c3c;stroke:#e74c3c;stroke-linejoin:miter;" x="315.434" xlink:href="#md92afa8535" y="169.62963"/>
     <use style="fill:#e74c3c;stroke:#e74c3c;stroke-linejoin:miter;" x="320.125" xlink:href="#md92afa8535" y="168.94911"/>
     <use style="fill:#e74c3c;stroke:#e74c3c;stroke-linejoin:miter;" x="325.00364" xlink:href="#md92afa8535" y="150.099771"/>
     <use style="fill:#e74c3c;stroke:#e74c3c;stroke-linejoin:miter;" x="329.69464" xlink:href="#md92afa8535" y="160.610032"/>
     <use style="fill:#e74c3c;stroke:#e74c3c;stroke-linejoin:miter;" x="334.57328" xlink:href="#md92afa8535" y="171.174304"/>
     <use style="fill:#e74c3c;stroke:#e74c3c;stroke-linejoin:miter;" x="339.26428" xlink:href="#md92afa8535" y="165.881366"/>
     <use style="fill:#e74c3c;stroke:#e74c3c;stroke-linejoin:miter;" x="344.14292" xlink:href="#md92afa8535" y="165.146836"/>
     <use style="fill:#e74c3c;stroke:#e74c3c;stroke-linejoin:miter;" x="348.83392" xlink:href="#md92afa8535" y="161.733431"/>
     <use style="fill:#e74c3c;stroke:#e74c3c;stroke-linejoin:miter;" x="353.71256" xlink:href="#md92afa8535" y="157.682714"/>
     <use style="fill:#e74c3c;stroke:#e74c3c;stroke-linejoin:miter;" x="358.40356" xlink:href="#md92afa8535" y="162.089895"/>
     <use style="fill:#e74c3c;stroke:#e74c3c;stroke-linejoin:miter;" x="363.2822" xlink:href="#md92afa8535" y="162.673198"/>
     <use style="fill:#e74c3c;stroke:#e74c3c;stroke-linejoin:miter;" x="367.9732" xlink:href="#md92afa8535" y="156.256861"/>
     <use style="fill:#e74c3c;stroke:#e74c3c;stroke-linejoin:miter;" x="372.85184" xlink:href="#md92afa8535" y="158.633282"/>
     <use style="fill:#e74c3c;stroke:#e74c3c;stroke-linejoin:miter;" x="377.54284" xlink:href="#md92afa8535" y="166.842737"/>
     <use style="fill:#e74c3c;stroke:#e74c3c;stroke-linejoin:miter;" x="382.42148" xlink:href="#md92afa8535" y="162.208716"/>
     <use style="fill:#e74c3c;stroke:#e74c3c;stroke-linejoin:miter;" x="387.11248" xlink:href="#md92afa8535" y="157.459546"/>
     <use style="fill:#e74c3c;stroke:#e74c3c;stroke-linejoin:miter;" x="391.80348" xlink:href="#md92afa8535" y="158.968426"/>
     <use style="fill:#e74c3c;stroke:#e74c3c;stroke-linejoin:miter;" x="401.37312" xlink:href="#md92afa8535" y="157.617902"/>
     <use style="fill:#e74c3c;stroke:#e74c3c;stroke-linejoin:miter;" x="410.94276" xlink:href="#md92afa8535" y="161.89546"/>
     <use style="fill:#e74c3c;stroke:#e74c3c;stroke-linejoin:miter;" x="420.5124" xlink:href="#md92afa8535" y="161.89546"/>
    </g>
   </g>
   <g id="line2d_16">
    <defs>
     <path d="M 0 -3  L -0.673542 -0.927051  L -2.85317 -0.927051  L -1.089814 0.354102  L -1.763356 2.427051  L -0 1.145898  L 1.763356 2.427051  L 1.089814 0.354102  L 2.85317 -0.927051  L 0.673542 -0.927051  z " id="md3904bbdcb" style="stroke:#808000;stroke-linejoin:bevel;"/>
    </defs>
    <g clip-path="url(#p6aad167b5b)">
     <use style="fill:#808000;stroke:#808000;stroke-linejoin:bevel;" x="62.12" xlink:href="#md3904bbdcb" y="159.821493"/>
     <use style="fill:#808000;stroke:#808000;stroke-linejoin:bevel;" x="71.68964" xlink:href="#md3904bbdcb" y="159.821493"/>
     <use style="fill:#808000;stroke:#808000;stroke-linejoin:bevel;" x="81.25928" xlink:href="#md3904bbdcb" y="159.389416"/>
     <use style="fill:#808000;stroke:#808000;stroke-linejoin:bevel;" x="90.82892" xlink:href="#md3904bbdcb" y="160.231965"/>
     <use style="fill:#808000;stroke:#808000;stroke-linejoin:bevel;" x="100.39856" xlink:href="#md3904bbdcb" y="160.285975"/>
     <use style="fill:#808000;stroke:#808000;stroke-linejoin:bevel;" x="109.9682" xlink:href="#md3904bbdcb" y="160.755858"/>
     <use style="fill:#808000;stroke:#808000;stroke-linejoin:bevel;" x="119.53784" xlink:href="#md3904bbdcb" y="161.992677"/>
     <use style="fill:#808000;stroke:#808000;stroke-linejoin:bevel;" x="129.10748" xlink:href="#md3904bbdcb" y="159.142393"/>
     <use style="fill:#808000;stroke:#808000;stroke-linejoin:bevel;" x="133.79848" xlink:href="#md3904bbdcb" y="157.974366"/>
     <use style="fill:#808000;stroke:#808000;stroke-linejoin:bevel;" x="138.67712" xlink:href="#md3904bbdcb" y="163.386124"/>
     <use style="fill:#808000;stroke:#808000;stroke-linejoin:bevel;" x="143.36812" xlink:href="#md3904bbdcb" y="162.626966"/>
     <use style="fill:#808000;stroke:#808000;stroke-linejoin:bevel;" x="148.05912" xlink:href="#md3904bbdcb" y="160.448004"/>
     <use style="fill:#808000;stroke:#808000;stroke-linejoin:bevel;" x="152.93776" xlink:href="#md3904bbdcb" y="158.44965"/>
     <use style="fill:#808000;stroke:#808000;stroke-linejoin:bevel;" x="157.62876" xlink:href="#md3904bbdcb" y="154.431338"/>
     <use style="fill:#808000;stroke:#808000;stroke-linejoin:bevel;" x="162.5074" xlink:href="#md3904bbdcb" y="162.244628"/>
     <use style="fill:#808000;stroke:#808000;stroke-linejoin:bevel;" x="172.07704" xlink:href="#md3904bbdcb" y="163.984493"/>
     <use style="fill:#808000;stroke:#808000;stroke-linejoin:bevel;" x="176.76804" xlink:href="#md3904bbdcb" y="155.716766"/>
     <use style="fill:#808000;stroke:#808000;stroke-linejoin:bevel;" x="181.64668" xlink:href="#md3904bbdcb" y="158.179602"/>
     <use style="fill:#808000;stroke:#808000;stroke-linejoin:bevel;" x="186.33768" xlink:href="#md3904bbdcb" y="162.100697"/>
     <use style="fill:#808000;stroke:#808000;stroke-linejoin:bevel;" x="191.21632" xlink:href="#md3904bbdcb" y="159.702672"/>
     <use style="fill:#808000;stroke:#808000;stroke-linejoin:bevel;" x="195.90732" xlink:href="#md3904bbdcb" y="157.682714"/>
     <use style="fill:#808000;stroke:#808000;stroke-linejoin:bevel;" x="200.78596" xlink:href="#md3904bbdcb" y="157.110212"/>
     <use style="fill:#808000;stroke:#808000;stroke-linejoin:bevel;" x="205.47696" xlink:href="#md3904bbdcb" y="147.734151"/>
     <use style="fill:#808000;stroke:#808000;stroke-linejoin:bevel;" x="210.3556" xlink:href="#md3904bbdcb" y="139.902764"/>
     <use style="fill:#808000;stroke:#808000;stroke-linejoin:bevel;" x="215.0466" xlink:href="#md3904bbdcb" y="136.176104"/>
     <use style="fill:#808000;stroke:#808000;stroke-linejoin:bevel;" x="219.92524" xlink:href="#md3904bbdcb" y="113.762133"/>
     <use style="fill:#808000;stroke:#808000;stroke-linejoin:bevel;" x="224.61624" xlink:href="#md3904bbdcb" y="101.455297"/>
     <use style="fill:#808000;stroke:#808000;stroke-linejoin:bevel;" x="229.30724" xlink:href="#md3904bbdcb" y="95.90657"/>
     <use style="fill:#808000;stroke:#808000;stroke-linejoin:bevel;" x="234.18588" xlink:href="#md3904bbdcb" y="65.283145"/>
     <use style="fill:#808000;stroke:#808000;stroke-linejoin:bevel;" x="238.87688" xlink:href="#md3904bbdcb" y="59.136856"/>
     <use style="fill:#808000;stroke:#808000;stroke-linejoin:bevel;" x="243.75552" xlink:href="#md3904bbdcb" y="42.890778"/>
     <use style="fill:#808000;stroke:#808000;stroke-linejoin:bevel;" x="248.44652" xlink:href="#md3904bbdcb" y="71.116179"/>
     <use style="fill:#808000;stroke:#808000;stroke-linejoin:bevel;" x="253.32516" xlink:href="#md3904bbdcb" y="131.488073"/>
     <use style="fill:#808000;stroke:#808000;stroke-linejoin:bevel;" x="258.01616" xlink:href="#md3904bbdcb" y="145.379334"/>
     <use style="fill:#808000;stroke:#808000;stroke-linejoin:bevel;" x="262.8948" xlink:href="#md3904bbdcb" y="155.846389"/>
     <use style="fill:#808000;stroke:#808000;stroke-linejoin:bevel;" x="267.5858" xlink:href="#md3904bbdcb" y="143.159115"/>
     <use style="fill:#808000;stroke:#808000;stroke-linejoin:bevel;" x="277.15544" xlink:href="#md3904bbdcb" y="144.315416"/>
     <use style="fill:#808000;stroke:#808000;stroke-linejoin:bevel;" x="282.03408" xlink:href="#md3904bbdcb" y="149.721704"/>
     <use style="fill:#808000;stroke:#808000;stroke-linejoin:bevel;" x="286.72508" xlink:href="#md3904bbdcb" y="156.796957"/>
     <use style="fill:#808000;stroke:#808000;stroke-linejoin:bevel;" x="291.60372" xlink:href="#md3904bbdcb" y="155.468322"/>
     <use style="fill:#808000;stroke:#808000;stroke-linejoin:bevel;" x="296.29472" xlink:href="#md3904bbdcb" y="144.850041"/>
     <use style="fill:#808000;stroke:#808000;stroke-linejoin:bevel;" x="301.17336" xlink:href="#md3904bbdcb" y="153.42676"/>
     <use style="fill:#808000;stroke:#808000;stroke-linejoin:bevel;" x="305.86436" xlink:href="#md3904bbdcb" y="152.237037"/>
     <use style="fill:#808000;stroke:#808000;stroke-linejoin:bevel;" x="310.55536" xlink:href="#md3904bbdcb" y="154.550159"/>
     <use style="fill:#808000;stroke:#808000;stroke-linejoin:bevel;" x="315.434" xlink:href="#md3904bbdcb" y="164.919996"/>
     <use style="fill:#808000;stroke:#808000;stroke-linejoin:bevel;" x="320.125" xlink:href="#md3904bbdcb" y="174.285255"/>
     <use style="fill:#808000;stroke:#808000;stroke-linejoin:bevel;" x="325.00364" xlink:href="#md3904bbdcb" y="169.726847"/>
     <use style="fill:#808000;stroke:#808000;stroke-linejoin:bevel;" x="329.69464" xlink:href="#md3904bbdcb" y="160.944892"/>
     <use style="fill:#808000;stroke:#808000;stroke-linejoin:bevel;" x="334.57328" xlink:href="#md3904bbdcb" y="150.877508"/>
     <use style="fill:#808000;stroke:#808000;stroke-linejoin:bevel;" x="339.26428" xlink:href="#md3904bbdcb" y="159.843097"/>
     <use style="fill:#808000;stroke:#808000;stroke-linejoin:bevel;" x="344.14292" xlink:href="#md3904bbdcb" y="166.010989"/>
     <use style="fill:#808000;stroke:#808000;stroke-linejoin:bevel;" x="348.83392" xlink:href="#md3904bbdcb" y="161.225742"/>
     <use style="fill:#808000;stroke:#808000;stroke-linejoin:bevel;" x="353.71256" xlink:href="#md3904bbdcb" y="165.95698"/>
     <use style="fill:#808000;stroke:#808000;stroke-linejoin:bevel;" x="358.40356" xlink:href="#md3904bbdcb" y="159.151774"/>
     <use style="fill:#808000;stroke:#808000;stroke-linejoin:bevel;" x="363.2822" xlink:href="#md3904bbdcb" y="160.988099"/>
     <use style="fill:#808000;stroke:#808000;stroke-linejoin:bevel;" x="367.9732" xlink:href="#md3904bbdcb" y="173.194262"/>
     <use style="fill:#808000;stroke:#808000;stroke-linejoin:bevel;" x="372.85184" xlink:href="#md3904bbdcb" y="167.901324"/>
     <use style="fill:#808000;stroke:#808000;stroke-linejoin:bevel;" x="377.54284" xlink:href="#md3904bbdcb" y="156.41889"/>
     <use style="fill:#808000;stroke:#808000;stroke-linejoin:bevel;" x="382.42148" xlink:href="#md3904bbdcb" y="155.414312"/>
     <use style="fill:#808000;stroke:#808000;stroke-linejoin:bevel;" x="387.11248" xlink:href="#md3904bbdcb" y="149.713926"/>
     <use style="fill:#808000;stroke:#808000;stroke-linejoin:bevel;" x="391.80348" xlink:href="#md3904bbdcb" y="157.627425"/>
     <use style="fill:#808000;stroke:#808000;stroke-linejoin:bevel;" x="401.37312" xlink:href="#md3904bbdcb" y="157.914955"/>
     <use style="fill:#808000;stroke:#808000;stroke-linejoin:bevel;" x="410.94276" xlink:href="#md3904bbdcb" y="161.620011"/>
     <use style="fill:#808000;stroke:#808000;stroke-linejoin:bevel;" x="420.5124" xlink:href="#md3904bbdcb" y="161.620011"/>
    </g>
   </g>
   <g id="line2d_17">
    <defs>
     <path d="M 0 3  C 0.795609 3 1.55874 2.683901 2.12132 2.12132  C 2.683901 1.55874 3 0.795609 3 0  C 3 -0.795609 2.683901 -1.55874 2.12132 -2.12132  C 1.55874 -2.683901 0.795609 -3 0 -3  C -0.795609 -3 -1.55874 -2.683901 -2.12132 -2.12132  C -2.683901 -1.55874 -3 -0.795609 -3 0  C -3 0.795609 -2.683901 1.55874 -2.12132 2.12132  C -1.55874 2.683901 -0.795609 3 0 3  z " id="m97dbfd486b" style="stroke:#008080;"/>
    </defs>
    <g clip-path="url(#p6aad167b5b)">
     <use style="fill:#008080;stroke:#008080;" x="81.25928" xlink:href="#m97dbfd486b" y="163.186289"/>
     <use style="fill:#008080;stroke:#008080;" x="90.82892" xlink:href="#m97dbfd486b" y="163.186289"/>
     <use style="fill:#008080;stroke:#008080;" x="100.39856" xlink:href="#m97dbfd486b" y="153.178316"/>
     <use style="fill:#008080;stroke:#008080;" x="109.9682" xlink:href="#m97dbfd486b" y="161.960272"/>
     <use style="fill:#008080;stroke:#008080;" x="119.53784" xlink:href="#m97dbfd486b" y="161.998078"/>
     <use style="fill:#008080;stroke:#008080;" x="129.10748" xlink:href="#m97dbfd486b" y="157.01129"/>
     <use style="fill:#008080;stroke:#008080;" x="133.79848" xlink:href="#m97dbfd486b" y="165.017213"/>
     <use style="fill:#008080;stroke:#008080;" x="138.67712" xlink:href="#m97dbfd486b" y="165.665328"/>
     <use style="fill:#008080;stroke:#008080;" x="143.36812" xlink:href="#m97dbfd486b" y="157.911282"/>
     <use style="fill:#008080;stroke:#008080;" x="148.05912" xlink:href="#m97dbfd486b" y="161.636214"/>
     <use style="fill:#008080;stroke:#008080;" x="152.93776" xlink:href="#m97dbfd486b" y="158.406442"/>
     <use style="fill:#008080;stroke:#008080;" x="157.62876" xlink:href="#m97dbfd486b" y="161.279751"/>
     <use style="fill:#008080;stroke:#008080;" x="162.5074" xlink:href="#m97dbfd486b" y="154.746698"/>
     <use style="fill:#008080;stroke:#008080;" x="172.07704" xlink:href="#m97dbfd486b" y="155.822511"/>
     <use style="fill:#008080;stroke:#008080;" x="176.76804" xlink:href="#m97dbfd486b" y="157.758327"/>
     <use style="fill:#008080;stroke:#008080;" x="181.64668" xlink:href="#m97dbfd486b" y="158.266017"/>
     <use style="fill:#008080;stroke:#008080;" x="186.33768" xlink:href="#m97dbfd486b" y="145.606174"/>
     <use style="fill:#008080;stroke:#008080;" x="191.21632" xlink:href="#m97dbfd486b" y="139.492291"/>
     <use style="fill:#008080;stroke:#008080;" x="195.90732" xlink:href="#m97dbfd486b" y="166.929152"/>
     <use style="fill:#008080;stroke:#008080;" x="200.78596" xlink:href="#m97dbfd486b" y="119.281911"/>
     <use style="fill:#008080;stroke:#008080;" x="205.47696" xlink:href="#m97dbfd486b" y="147.647736"/>
     <use style="fill:#008080;stroke:#008080;" x="210.3556" xlink:href="#m97dbfd486b" y="197.271727"/>
     <use style="fill:#008080;stroke:#008080;" x="215.0466" xlink:href="#m97dbfd486b" y="164.865986"/>
     <use style="fill:#008080;stroke:#008080;" x="219.92524" xlink:href="#m97dbfd486b" y="193.177802"/>
     <use style="fill:#008080;stroke:#008080;" x="224.61624" xlink:href="#m97dbfd486b" y="194.171362"/>
     <use style="fill:#008080;stroke:#008080;" x="229.30724" xlink:href="#m97dbfd486b" y="199.367298"/>
     <use style="fill:#008080;stroke:#008080;" x="234.18588" xlink:href="#m97dbfd486b" y="237.854516"/>
     <use style="fill:#008080;stroke:#008080;" x="238.87688" xlink:href="#m97dbfd486b" y="244.357268"/>
     <use style="fill:#008080;stroke:#008080;" x="243.75552" xlink:href="#m97dbfd486b" y="275.07791"/>
     <use style="fill:#008080;stroke:#008080;" x="248.44652" xlink:href="#m97dbfd486b" y="232.658796"/>
     <use style="fill:#008080;stroke:#008080;" x="253.32516" xlink:href="#m97dbfd486b" y="180.744799"/>
     <use style="fill:#008080;stroke:#008080;" x="258.01616" xlink:href="#m97dbfd486b" y="174.123226"/>
     <use style="fill:#008080;stroke:#008080;" x="262.8948" xlink:href="#m97dbfd486b" y="140.496869"/>
     <use style="fill:#008080;stroke:#008080;" x="267.5858" xlink:href="#m97dbfd486b" y="164.296185"/>
     <use style="fill:#008080;stroke:#008080;" x="277.15544" xlink:href="#m97dbfd486b" y="163.711304"/>
     <use style="fill:#008080;stroke:#008080;" x="282.03408" xlink:href="#m97dbfd486b" y="155.468322"/>
     <use style="fill:#008080;stroke:#008080;" x="286.72508" xlink:href="#m97dbfd486b" y="156.840165"/>
     <use style="fill:#008080;stroke:#008080;" x="291.60372" xlink:href="#m97dbfd486b" y="158.406442"/>
     <use style="fill:#008080;stroke:#008080;" x="296.29472" xlink:href="#m97dbfd486b" y="172.967422"/>
     <use style="fill:#008080;stroke:#008080;" x="301.17336" xlink:href="#m97dbfd486b" y="169.370384"/>
     <use style="fill:#008080;stroke:#008080;" x="305.86436" xlink:href="#m97dbfd486b" y="163.166845"/>
     <use style="fill:#008080;stroke:#008080;" x="310.55536" xlink:href="#m97dbfd486b" y="159.475832"/>
     <use style="fill:#008080;stroke:#008080;" x="315.434" xlink:href="#m97dbfd486b" y="147.183254"/>
     <use style="fill:#008080;stroke:#008080;" x="320.125" xlink:href="#m97dbfd486b" y="127.696602"/>
     <use style="fill:#008080;stroke:#008080;" x="325.00364" xlink:href="#m97dbfd486b" y="161.906262"/>
     <use style="fill:#008080;stroke:#008080;" x="329.69464" xlink:href="#m97dbfd486b" y="278.999005"/>
     <use style="fill:#008080;stroke:#008080;" x="334.57328" xlink:href="#m97dbfd486b" y="181.284895"/>
     <use style="fill:#008080;stroke:#008080;" x="339.26428" xlink:href="#m97dbfd486b" y="26.385455"/>
     <use style="fill:#008080;stroke:#008080;" x="344.14292" xlink:href="#m97dbfd486b" y="96.565487"/>
     <use style="fill:#008080;stroke:#008080;" x="348.83392" xlink:href="#m97dbfd486b" y="126.367966"/>
     <use style="fill:#008080;stroke:#008080;" x="353.71256" xlink:href="#m97dbfd486b" y="71.677878"/>
     <use style="fill:#008080;stroke:#008080;" x="358.40356" xlink:href="#m97dbfd486b" y="225.302693"/>
     <use style="fill:#008080;stroke:#008080;" x="363.2822" xlink:href="#m97dbfd486b" y="287.694545"/>
     <use style="fill:#008080;stroke:#008080;" x="367.9732" xlink:href="#m97dbfd486b" y="152.281757"/>
     <use style="fill:#008080;stroke:#008080;" x="372.85184" xlink:href="#m97dbfd486b" y="155.198274"/>
     <use style="fill:#008080;stroke:#008080;" x="377.54284" xlink:href="#m97dbfd486b" y="158.471254"/>
     <use style="fill:#008080;stroke:#008080;" x="382.42148" xlink:href="#m97dbfd486b" y="164.109852"/>
     <use style="fill:#008080;stroke:#008080;" x="387.11248" xlink:href="#m97dbfd486b" y="174.559408"/>
     <use style="fill:#008080;stroke:#008080;" x="391.80348" xlink:href="#m97dbfd486b" y="150.639724"/>
     <use style="fill:#008080;stroke:#008080;" x="401.37312" xlink:href="#m97dbfd486b" y="107.378202"/>
     <use style="fill:#008080;stroke:#008080;" x="410.94276" xlink:href="#m97dbfd486b" y="169.019322"/>
     <use style="fill:#008080;stroke:#008080;" x="420.5124" xlink:href="#m97dbfd486b" y="205.621606"/>
     <use style="fill:#008080;stroke:#008080;" x="430.08204" xlink:href="#m97dbfd486b" y="157.461995"/>
     <use style="fill:#008080;stroke:#008080;" x="437.4" xlink:href="#m97dbfd486b" y="157.461995"/>
    </g>
   </g>
   <g id="line2d_18">
    <path clip-path="url(#p6aad167b5b)" d="M 60.654062 160.57765  L 138.055566 160.682848  L 150.369442 160.907968  L 158.725286 161.248194  L 167.520911 161.976925  L 172.798287 162.675472  L 177.196099 163.472655  L 181.593912 164.51485  L 185.112162 165.558018  L 188.630412 166.813818  L 192.148662 168.303147  L 195.886803 170.156123  L 199.405053 172.153754  L 203.363085 174.662975  L 209.520023 178.888868  L 213.917835 181.810407  L 216.996304 183.5862  L 219.195211 184.633244  L 221.394117 185.44915  L 223.593023 186.006209  L 225.681984 186.281536  L 227.441109 186.334338  L 229.640016 186.171517  L 231.838922 185.789641  L 234.47761 185.096715  L 237.775969 183.973059  L 242.613563 182.050521  L 253.388204 177.716443  L 259.655088 175.479541  L 266.251807 173.363859  L 273.728088 171.197994  L 282.083932 169.008742  L 289.780105 167.202044  L 297.696167 165.581234  L 304.732668 164.366304  L 311.769168 163.371133  L 318.805668 162.585727  L 326.721731 161.90846  L 335.077575 161.43402  L 345.632326 161.041981  L 359.705327 160.770361  L 380.814828 160.623457  L 430.07033 160.578668  L 438.865955 160.578209  L 438.865955 160.578209  " style="fill:none;stroke:#e74c3c;stroke-linecap:square;stroke-width:2;"/>
   </g>
   <g id="line2d_19">
    <path clip-path="url(#p6aad167b5b)" d="M 60.654062 160.577627  L 173.677849 160.48213  L 180.714349 160.246695  L 185.112162 159.883866  L 188.630412 159.351093  L 191.2691 158.723427  L 193.907788 157.856085  L 195.447022 157.105746  L 197.206147 156.104683  L 198.965272 154.854167  L 200.724397 153.307083  L 202.483522 151.413173  L 204.242647 149.121303  L 206.001772 146.382856  L 207.760898 143.156377  L 209.520023 139.413408  L 211.279148 135.145242  L 213.478054 129.102057  L 215.67696 122.37797  L 219.195211 110.737107  L 223.153242 97.784769  L 224.912367 92.623924  L 225.901875 89.983319  L 227.441109 86.340806  L 228.760453 83.721435  L 230.079797 81.607796  L 231.17925 80.250272  L 232.278703 79.266331  L 233.158266 78.747584  L 234.037828 78.463784  L 234.917391 78.409112  L 235.796954 78.575725  L 236.676516 78.954064  L 237.775969 79.707894  L 238.875422 80.751498  L 240.194766 82.350077  L 241.734001 84.633802  L 243.493126 87.704808  L 245.472142 91.6185  L 248.110829 97.354811  L 253.168314 109.036301  L 257.456181 118.716944  L 260.53465 125.174571  L 263.173338 130.263044  L 265.812025 134.888202  L 268.450713 139.027876  L 270.649619 142.104672  L 272.848526 144.849733  L 275.047432 147.276221  L 277.246338 149.401852  L 279.445245 151.247627  L 281.644151 152.836695  L 284.282839 154.438968  L 286.921526 155.749  L 289.780105 156.886352  L 292.418792 157.717656  L 295.937042 158.561397  L 299.455293 159.168562  L 303.853105 159.684762  L 309.13048 160.06351  L 316.166981 160.328524  L 326.721731 160.488572  L 350.909701 160.56358  L 438.865955 160.577604  L 438.865955 160.577604  " style="fill:none;stroke:#808000;stroke-linecap:square;stroke-width:2;"/>
   </g>
   <g id="line2d_20">
    <path clip-path="url(#p6aad167b5b)" d="M 60.654062 160.577603  L 138.055566 160.472482  L 150.369442 160.248318  L 159.604848 159.848589  L 165.761786 159.382125  L 171.918724 158.683269  L 177.196099 157.861898  L 183.353037 156.661741  L 191.2691 155.101439  L 193.907788 154.791057  L 196.326584 154.706639  L 198.08571 154.842649  L 199.844835 155.192255  L 201.60396 155.808741  L 202.923304 156.480834  L 204.242647 157.360648  L 205.561991 158.473205  L 206.881335 159.84227  L 208.200679 161.489041  L 209.520023 163.430604  L 211.279148 166.496333  L 213.038273 170.110173  L 214.797398 174.245935  L 216.996304 180.050434  L 220.074773 188.966346  L 224.472586 201.717622  L 226.561547 207.052547  L 228.100781 210.452378  L 229.640016 213.306987  L 230.95936 215.274582  L 232.058813 216.558837  L 233.158266 217.514076  L 234.257719 218.141326  L 235.137282 218.411274  L 236.016844 218.481168  L 236.896407 218.358427  L 237.99586 217.947746  L 239.095313 217.269876  L 240.194766 216.346742  L 241.51411 214.948061  L 243.053345 212.967597  L 244.81247 210.324961  L 247.011376 206.591012  L 250.089845 200.860123  L 258.775525 184.406737  L 261.853994 179.209011  L 264.492681 175.190521  L 267.131369 171.61608  L 269.330275 168.988006  L 271.529182 166.677866  L 273.728088 164.677234  L 275.926995 162.971918  L 278.125901 161.543315  L 280.324807 160.369649  L 282.523714 159.427099  L 285.162401 158.566063  L 287.801089 157.958802  L 288.900542 157.753529  L 292.418792 157.381885  L 295.937042 157.252582  L 300.334855 157.342275  L 306.491793 157.735744  L 329.8002 159.503388  L 340.354951 159.973471  L 352.668826 160.288346  L 370.260077 160.485817  L 401.924329 160.568328  L 438.865955 160.577067  L 438.865955 160.577067  " style="fill:none;stroke:#008080;stroke-linecap:square;stroke-width:2;"/>
   </g>
   <g id="patch_3">
    <path d="M 62.12 300.76  L 62.12 13.32  " style="fill:none;stroke:#000000;stroke-linecap:square;stroke-linejoin:miter;stroke-width:0.8;"/>
   </g>
   <g id="patch_4">
    <path d="M 437.4 300.76  L 437.4 13.32  " style="fill:none;stroke:#000000;stroke-linecap:square;stroke-linejoin:miter;stroke-width:0.8;"/>
   </g>
   <g id="patch_5">
    <path d="M 62.12 300.76  L 437.4 300.76  " style="fill:none;stroke:#000000;stroke-linecap:square;stroke-linejoin:miter;stroke-width:0.8;"/>
   </g>
   <g id="patch_6">
    <path d="M 62.12 13.32  L 437.4 13.32  " style="fill:none;stroke:#000000;stroke-linecap:square;stroke-linejoin:miter;stroke-width:0.8;"/>
   </g>
   <g id="legend_1">
    <g id="patch_7">
     <path d="M 69.12 109.38875  L 136.466875 109.38875  Q 138.466875 109.38875 138.466875 107.38875  L 138.466875 20.32  Q 138.466875 18.32 136.466875 18.32  L 69.12 18.32  Q 67.12 18.32 67.12 20.32  L 67.12 107.38875  Q 67.12 109.38875 69.12 109.38875  z " style="fill:#ffffff;opacity:0.8;stroke:#cccccc;stroke-linejoin:miter;"/>
    </g>
    <g id="line2d_21"/>
    <g id="line2d_22">
     <g>
      <use style="fill:#e74c3c;stroke:#e74c3c;stroke-linejoin:miter;" x="81.12" xlink:href="#md92afa8535" y="26.418437"/>
     </g>
    </g>
    <g id="text_17">
     <!-- exp-Sn -->
     <defs>
      <path d="M 54.890625 54.6875  L 35.109375 28.078125  L 55.90625 0  L 45.3125 0  L 29.390625 21.484375  L 13.484375 0  L 2.875 0  L 24.125 28.609375  L 4.6875 54.6875  L 15.28125 54.6875  L 29.78125 35.203125  L 44.28125 54.6875  z " id="DejaVuSans-78"/>
      <path d="M 4.890625 31.390625  L 31.203125 31.390625  L 31.203125 23.390625  L 4.890625 23.390625  z " id="DejaVuSans-2d"/>
     </defs>
     <g transform="translate(99.12 29.918437)scale(0.1 -0.1)">
      <use xlink:href="#DejaVuSans-65"/>
      <use x="61.507812" xlink:href="#DejaVuSans-78"/>
      <use x="120.6875" xlink:href="#DejaVuSans-70"/>
      <use x="184.164062" xlink:href="#DejaVuSans-2d"/>
      <use x="220.248047" xlink:href="#DejaVuSans-53"/>
      <use x="283.724609" xlink:href="#DejaVuSans-6e"/>
     </g>
    </g>
    <g id="line2d_23"/>
    <g id="line2d_24">
     <g>
      <use style="fill:#808000;stroke:#808000;stroke-linejoin:bevel;" x="81.12" xlink:href="#md3904bbdcb" y="41.096563"/>
     </g>
    </g>
    <g id="text_18">
     <!-- exp-Ag -->
     <defs>
      <path d="M 34.1875 63.1875  L 20.796875 26.90625  L 47.609375 26.90625  z M 28.609375 72.90625  L 39.796875 72.90625  L 67.578125 0  L 57.328125 0  L 50.6875 18.703125  L 17.828125 18.703125  L 11.1875 0  L 0.78125 0  z " id="DejaVuSans-41"/>
      <path d="M 45.40625 27.984375  Q 45.40625 37.75 41.375 43.109375  Q 37.359375 48.484375 30.078125 48.484375  Q 22.859375 48.484375 18.828125 43.109375  Q 14.796875 37.75 14.796875 27.984375  Q 14.796875 18.265625 18.828125 12.890625  Q 22.859375 7.515625 30.078125 7.515625  Q 37.359375 7.515625 41.375 12.890625  Q 45.40625 18.265625 45.40625 27.984375  z M 54.390625 6.78125  Q 54.390625 -7.171875 48.1875 -13.984375  Q 42 -20.796875 29.203125 -20.796875  Q 24.46875 -20.796875 20.265625 -20.09375  Q 16.0625 -19.390625 12.109375 -17.921875  L 12.109375 -9.1875  Q 16.0625 -11.328125 19.921875 -12.34375  Q 23.78125 -13.375 27.78125 -13.375  Q 36.625 -13.375 41.015625 -8.765625  Q 45.40625 -4.15625 45.40625 5.171875  L 45.40625 9.625  Q 42.625 4.78125 38.28125 2.390625  Q 33.9375 0 27.875 0  Q 17.828125 0 11.671875 7.65625  Q 5.515625 15.328125 5.515625 27.984375  Q 5.515625 40.671875 11.671875 48.328125  Q 17.828125 56 27.875 56  Q 33.9375 56 38.28125 53.609375  Q 42.625 51.21875 45.40625 46.390625  L 45.40625 54.6875  L 54.390625 54.6875  z " id="DejaVuSans-67"/>
     </defs>
     <g transform="translate(99.12 44.596563)scale(0.1 -0.1)">
      <use xlink:href="#DejaVuSans-65"/>
      <use x="61.507812" xlink:href="#DejaVuSans-78"/>
      <use x="120.6875" xlink:href="#DejaVuSans-70"/>
      <use x="184.164062" xlink:href="#DejaVuSans-2d"/>
      <use x="220.216797" xlink:href="#DejaVuSans-41"/>
      <use x="288.625" xlink:href="#DejaVuSans-67"/>
     </g>
    </g>
    <g id="line2d_25"/>
    <g id="line2d_26">
     <g>
      <use style="fill:#008080;stroke:#008080;" x="81.12" xlink:href="#m97dbfd486b" y="55.774687"/>
     </g>
    </g>
    <g id="text_19">
     <!-- exp-Cu -->
     <defs>
      <path d="M 64.40625 67.28125  L 64.40625 56.890625  Q 59.421875 61.53125 53.78125 63.8125  Q 48.140625 66.109375 41.796875 66.109375  Q 29.296875 66.109375 22.65625 58.46875  Q 16.015625 50.828125 16.015625 36.375  Q 16.015625 21.96875 22.65625 14.328125  Q 29.296875 6.6875 41.796875 6.6875  Q 48.140625 6.6875 53.78125 8.984375  Q 59.421875 11.28125 64.40625 15.921875  L 64.40625 5.609375  Q 59.234375 2.09375 53.4375 0.328125  Q 47.65625 -1.421875 41.21875 -1.421875  Q 24.65625 -1.421875 15.125 8.703125  Q 5.609375 18.84375 5.609375 36.375  Q 5.609375 53.953125 15.125 64.078125  Q 24.65625 74.21875 41.21875 74.21875  Q 47.75 74.21875 53.53125 72.484375  Q 59.328125 70.75 64.40625 67.28125  z " id="DejaVuSans-43"/>
      <path d="M 8.5 21.578125  L 8.5 54.6875  L 17.484375 54.6875  L 17.484375 21.921875  Q 17.484375 14.15625 20.5 10.265625  Q 23.53125 6.390625 29.59375 6.390625  Q 36.859375 6.390625 41.078125 11.03125  Q 45.3125 15.671875 45.3125 23.6875  L 45.3125 54.6875  L 54.296875 54.6875  L 54.296875 0  L 45.3125 0  L 45.3125 8.40625  Q 42.046875 3.421875 37.71875 1  Q 33.40625 -1.421875 27.6875 -1.421875  Q 18.265625 -1.421875 13.375 4.4375  Q 8.5 10.296875 8.5 21.578125  z M 31.109375 56  z " id="DejaVuSans-75"/>
     </defs>
     <g transform="translate(99.12 59.274687)scale(0.1 -0.1)">
      <use xlink:href="#DejaVuSans-65"/>
      <use x="61.507812" xlink:href="#DejaVuSans-78"/>
      <use x="120.6875" xlink:href="#DejaVuSans-70"/>
      <use x="184.164062" xlink:href="#DejaVuSans-2d"/>
      <use x="220.248047" xlink:href="#DejaVuSans-43"/>
      <use x="290.072266" xlink:href="#DejaVuSans-75"/>
     </g>
    </g>
    <g id="line2d_27">
     <path d="M 71.12 70.452812  L 91.12 70.452812  " style="fill:none;stroke:#e74c3c;stroke-linecap:square;stroke-width:2;"/>
    </g>
    <g id="line2d_28"/>
    <g id="text_20">
     <!-- sim-Sn -->
     <g transform="translate(99.12 73.952812)scale(0.1 -0.1)">
      <use xlink:href="#DejaVuSans-73"/>
      <use x="52.099609" xlink:href="#DejaVuSans-69"/>
      <use x="79.882812" xlink:href="#DejaVuSans-6d"/>
      <use x="177.294922" xlink:href="#DejaVuSans-2d"/>
      <use x="213.378906" xlink:href="#DejaVuSans-53"/>
      <use x="276.855469" xlink:href="#DejaVuSans-6e"/>
     </g>
    </g>
    <g id="line2d_29">
     <path d="M 71.12 85.130938  L 91.12 85.130938  " style="fill:none;stroke:#808000;stroke-linecap:square;stroke-width:2;"/>
    </g>
    <g id="line2d_30"/>
    <g id="text_21">
     <!-- sim-Ag -->
     <g transform="translate(99.12 88.630938)scale(0.1 -0.1)">
      <use xlink:href="#DejaVuSans-73"/>
      <use x="52.099609" xlink:href="#DejaVuSans-69"/>
      <use x="79.882812" xlink:href="#DejaVuSans-6d"/>
      <use x="177.294922" xlink:href="#DejaVuSans-2d"/>
      <use x="213.347656" xlink:href="#DejaVuSans-41"/>
      <use x="281.755859" xlink:href="#DejaVuSans-67"/>
     </g>
    </g>
    <g id="line2d_31">
     <path d="M 71.12 99.809062  L 91.12 99.809062  " style="fill:none;stroke:#008080;stroke-linecap:square;stroke-width:2;"/>
    </g>
    <g id="line2d_32"/>
    <g id="text_22">
     <!-- sim-Cu -->
     <g transform="translate(99.12 103.309062)scale(0.1 -0.1)">
      <use xlink:href="#DejaVuSans-73"/>
      <use x="52.099609" xlink:href="#DejaVuSans-69"/>
      <use x="79.882812" xlink:href="#DejaVuSans-6d"/>
      <use x="177.294922" xlink:href="#DejaVuSans-2d"/>
      <use x="213.378906" xlink:href="#DejaVuSans-43"/>
      <use x="283.203125" xlink:href="#DejaVuSans-75"/>
     </g>
    </g>
   </g>
  </g>
 </g>
 <defs>
  <clipPath id="p6aad167b5b">
   <rect height="287.44" width="375.28" x="62.12" y="13.32"/>
  </clipPath>
 </defs>
</g>
    <g transform="translate(10, 300) scale(1) ">
      <g transform="translate(0, 0) scale(3.0) "><defs id="defs831"/>
  <sodipodi:namedview xmlns:sodipodi="http://sodipodi.sourceforge.net/DTD/sodipodi-0.dtd" xmlns:inkscape="http://www.inkscape.org/namespaces/inkscape" id="base" pagecolor="#ffffff" bordercolor="#666666" borderopacity="1.0" inkscape:pageopacity="0.0" inkscape:pageshadow="2" inkscape:zoom="1.979899" inkscape:cx="-12.763683" inkscape:cy="-16.680883" inkscape:document-units="mm" inkscape:current-layer="layer1" showgrid="false" inkscape:window-width="1920" inkscape:window-height="1001" inkscape:window-x="-9" inkscape:window-y="-9" inkscape:window-maximized="1" units="pt"/>
  <metadata xmlns:rdf="http://www.w3.org/1999/02/22-rdf-syntax-ns#" xmlns:cc="http://creativecommons.org/ns#" xmlns:dc="http://purl.org/dc/elements/1.1/" id="metadata834">
    <rdf:RDF>
      <cc:Work rdf:about="">
        <dc:format>image/svg+xml</dc:format>
        <dc:type rdf:resource="http://purl.org/dc/dcmitype/StillImage"/>
        <dc:title/>
      </cc:Work>
    </rdf:RDF>
  </metadata>
  <g xmlns:inkscape="http://www.inkscape.org/namespaces/inkscape" xmlns:sodipodi="http://sodipodi.sourceforge.net/DTD/sodipodi-0.dtd" inkscape:label="Layer 1" inkscape:groupmode="layer" id="layer1" transform="translate(0,-288.81557)">
    <g id="g4761" transform="matrix(0.07377843,0,0,0.07377843,-0.76923022,275.45946)">
      <path inkscape:connector-curvature="0" id="path1959-6-7-1-6-5-4-0-3-2-6-0-3-9-6" style="font-style:normal;font-variant:normal;font-weight:bold;font-stretch:normal;font-size:120.99466705px;line-height:1.25;font-family:Aharoni;-inkscape-font-specification:'Aharoni, Bold';font-variant-ligatures:normal;font-variant-caps:normal;font-variant-numeric:normal;font-feature-settings:normal;text-align:start;letter-spacing:0px;word-spacing:0px;writing-mode:lr-tb;text-anchor:start;fill:#000000;fill-opacity:1;stroke:none;stroke-width:2.37649584" d="M 52.937412,287.55677 H 40.587702 V 265.43005 H 22.776041 v 22.12672 h -12.34982 v -53.17432 h 12.34982 v 20.5296 h 17.811661 v -20.5296 h 12.34971 z"/>
      <path inkscape:connector-curvature="0" id="path1961-2-9-7-9-3-1-6-5-1-5-8-7-8-2" style="font-style:normal;font-variant:normal;font-weight:bold;font-stretch:normal;font-size:120.99466705px;line-height:1.25;font-family:Aharoni;-inkscape-font-specification:'Aharoni, Bold';font-variant-ligatures:normal;font-variant-caps:normal;font-variant-numeric:normal;font-feature-settings:normal;text-align:start;letter-spacing:0px;word-spacing:0px;writing-mode:lr-tb;text-anchor:start;fill:#000000;fill-opacity:1;stroke:none;stroke-width:2.37649584" d="m 69.681125,237.49895 q 0,3.0385 -1.87856,5.1421 -1.84375,2.0647 -4.55721,2.0647 -2.67866,0 -4.55722,-2.1036 -1.84375,-2.1036 -1.84375,-5.1032 0,-2.9996 1.84375,-5.0642 1.87856,-2.1036 4.55722,-2.1036 2.67865,0 4.55721,2.1036 1.87856,2.0646 1.87856,5.0642 z m -0.73057,50.05782 h -11.41048 v -36.15072 h 11.41048 z"/>
      <path inkscape:connector-curvature="0" id="path1963-3-1-2-8-3-6-3-3-3-4-7-6-0-8" style="font-style:normal;font-variant:normal;font-weight:bold;font-stretch:normal;font-size:120.99466705px;line-height:1.25;font-family:Aharoni;-inkscape-font-specification:'Aharoni, Bold';font-variant-ligatures:normal;font-variant-caps:normal;font-variant-numeric:normal;font-feature-settings:normal;text-align:start;letter-spacing:0px;word-spacing:0px;writing-mode:lr-tb;text-anchor:start;fill:#000000;fill-opacity:1;stroke:none;stroke-width:2.37649584" d="m 93.369625,261.92405 h -6.50536 v 25.63272 h -11.4104 v -25.63272 h -3.75712 v -10.518 h 3.75712 v -10.8686 h 11.4104 v 10.8686 h 6.50536 z"/>
      <path id="path1967-3-3-6-2-9-6-2-5-3-0-9-8-2-1" style="font-style:normal;font-variant:normal;font-weight:bold;font-stretch:normal;font-size:120.99466705px;line-height:1.25;font-family:Aharoni;-inkscape-font-specification:'Aharoni, Bold';font-variant-ligatures:normal;font-variant-caps:normal;font-variant-numeric:normal;font-feature-settings:normal;text-align:start;letter-spacing:0px;word-spacing:0px;writing-mode:lr-tb;text-anchor:start;fill:#000000;fill-opacity:1;stroke:none;stroke-width:2.37649584" d="m 160.61447,287.55677 h -12.34971 v -53.17432 h 12.34971 z" inkscape:connector-curvature="0"/>
      <path inkscape:connector-curvature="0" id="path1969-8-0-8-5-3-5-6-6-3-9-8-6-2-0" style="font-style:normal;font-variant:normal;font-weight:bold;font-stretch:normal;font-size:120.99466705px;line-height:1.25;font-family:Aharoni;-inkscape-font-specification:'Aharoni, Bold';font-variant-ligatures:normal;font-variant-caps:normal;font-variant-numeric:normal;font-feature-settings:normal;text-align:start;letter-spacing:0px;word-spacing:0px;writing-mode:lr-tb;text-anchor:start;fill:#000000;fill-opacity:1;stroke:none;stroke-width:2.37649584" d="m 201.6896,284.86883 q -6.05314,2.68794 -11.20172,2.68794 -8.97528,0 -16.07201,-6.42764 -9.04489,-8.21959 -9.04489,-21.42558 0,-13.2448 9.04489,-21.4644 7.09673,-6.4277 16.17636,-6.4277 4.93989,0 11.09737,2.6879 v 16.5561 q -1.73941,-2.3763 -3.54836,-3.5839 -3.30489,-2.2204 -7.09679,-2.2204 -4.8007,0 -8.34907,3.2333 -4.48766,4.0903 -4.48766,11.2191 0,7.0899 4.48766,11.1803 3.54837,3.23328 8.34907,3.23328 3.7919,0 7.09679,-2.22049 1.77415,-1.16869 3.54836,-3.58389 z"/>
      <path inkscape:transform-center-y="-13.656107" inkscape:transform-center-x="-3.9758045" sodipodi:nodetypes="csssssc" inkscape:connector-curvature="0" id="rect815-3-0-9-3-5-6-0-4-03-7-3-7-5-3-2-76-3-8-8-5-3-7-8-0-1-3-7-9-2-8-1" d="m 104.61223,181.4353 c 0,0 17.68257,27.27493 22.63096,34.41579 7.92879,11.44185 16.42741,30.36094 17.92806,45.50275 1.21005,12.20999 -1.38345,26.51285 -17.32077,30.11208 -11.70405,2.64313 -26.75007,-5.41371 -30.334975,-20.50903 -3.30533,-13.91816 -2.13088,-34.61412 0.0984,-48.67354 1.22049,-7.69719 5.657305,-36.06774 6.998335,-40.84805 z" style="font-style:normal;font-weight:normal;font-size:242.08590698px;line-height:1.25;font-family:sans-serif;letter-spacing:0px;word-spacing:0px;opacity:1;fill:#00456b;fill-opacity:1;stroke:none;stroke-width:0.6720385;stroke-miterlimit:4;stroke-dasharray:none;stroke-dashoffset:0;stroke-opacity:1;paint-order:markers fill stroke"/>
      <path sodipodi:nodetypes="ccscscsccscccscc" d="m 107.52748,246.32531 6.45576,30.78617 6.82019,-1.47997 c 5.75791,-1.24946 9.70999,-3.40081 11.85576,-6.45394 2.16431,-3.05721 2.68673,-7.25521 1.56721,-12.59398 -1.11209,-5.30332 -3.26743,-8.89247 -6.46601,-10.76744 -3.18372,-1.89669 -7.65528,-2.22015 -13.4127,-0.97081 z m -8.759905,-5.09591 12.713095,-2.78742 c 8.8634,-1.94336 15.73718,-1.59097 20.62135,1.05715 4.88003,2.62843 8.10326,7.71587 9.6697,15.26232 1.57464,7.58584 0.64804,13.61405 -2.77981,18.08462 -3.42783,4.4705 -9.55303,7.67294 -18.37559,9.60735 l -12.71311,2.78742 z" style="font-style:normal;font-weight:normal;font-size:242.08590698px;line-height:1.25;font-family:sans-serif;letter-spacing:0px;word-spacing:0px;fill:#ffffff;fill-opacity:1;stroke:none;stroke-width:1.60286868" id="path1193-3-5-3-2-7-4-5-6-0-0-6-9-2-4-7-0-0" inkscape:connector-curvature="0"/>
    </g>
  </g>
</g>
    </g>
  </g>
</svg>
