<?xml version='1.0' encoding='ASCII' standalone='yes'?>
<svg xmlns:xlink="http://www.w3.org/1999/xlink" xmlns="http://www.w3.org/2000/svg" version="1.1" width="460.8px" viewBox="0 0 460.8px 345.6px" height="345.6px">
  <g>
    <g><defs>
  <style type="text/css">
*{stroke-linecap:butt;stroke-linejoin:round;}
  </style>
 </defs>
 <g id="figure_1">
  <g id="patch_1">
   <path d="M 0 345.6  L 460.8 345.6  L 460.8 0  L 0 0  z " style="fill:#ffffff;"/>
  </g>
  <g id="axes_1">
   <g id="patch_2">
    <path d="M 60.41 303.64  L 447.48 303.64  L 447.48 13.32  L 60.41 13.32  z " style="fill:#ffffff;"/>
   </g>
   <g id="matplotlib.axis_1">
    <g id="xtick_1">
     <g id="line2d_1">
      <defs>
       <path d="M 0 0  L 0 3.5  " id="m2f0d42f08a" style="stroke:#000000;stroke-width:0.8;"/>
      </defs>
      <g>
       <use style="stroke:#000000;stroke-width:0.8;" x="60.41" xlink:href="#m2f0d42f08a" y="303.64"/>
      </g>
     </g>
     <g id="text_1">
      <!-- 0 -->
      <defs>
       <path d="M 31.78125 66.40625  Q 24.171875 66.40625 20.328125 58.90625  Q 16.5 51.421875 16.5 36.375  Q 16.5 21.390625 20.328125 13.890625  Q 24.171875 6.390625 31.78125 6.390625  Q 39.453125 6.390625 43.28125 13.890625  Q 47.125 21.390625 47.125 36.375  Q 47.125 51.421875 43.28125 58.90625  Q 39.453125 66.40625 31.78125 66.40625  z M 31.78125 74.21875  Q 44.046875 74.21875 50.515625 64.515625  Q 56.984375 54.828125 56.984375 36.375  Q 56.984375 17.96875 50.515625 8.265625  Q 44.046875 -1.421875 31.78125 -1.421875  Q 19.53125 -1.421875 13.0625 8.265625  Q 6.59375 17.96875 6.59375 36.375  Q 6.59375 54.828125 13.0625 64.515625  Q 19.53125 74.21875 31.78125 74.21875  z " id="DejaVuSans-30"/>
      </defs>
      <g transform="translate(57.22875 318.238437)scale(0.1 -0.1)">
       <use xlink:href="#DejaVuSans-30"/>
      </g>
     </g>
    </g>
    <g id="xtick_2">
     <g id="line2d_2">
      <g>
       <use style="stroke:#000000;stroke-width:0.8;" x="118.863144" xlink:href="#m2f0d42f08a" y="303.64"/>
      </g>
     </g>
     <g id="text_2">
      <!-- 200 -->
      <defs>
       <path d="M 19.1875 8.296875  L 53.609375 8.296875  L 53.609375 0  L 7.328125 0  L 7.328125 8.296875  Q 12.9375 14.109375 22.625 23.890625  Q 32.328125 33.6875 34.8125 36.53125  Q 39.546875 41.84375 41.421875 45.53125  Q 43.3125 49.21875 43.3125 52.78125  Q 43.3125 58.59375 39.234375 62.25  Q 35.15625 65.921875 28.609375 65.921875  Q 23.96875 65.921875 18.8125 64.3125  Q 13.671875 62.703125 7.8125 59.421875  L 7.8125 69.390625  Q 13.765625 71.78125 18.9375 73  Q 24.125 74.21875 28.421875 74.21875  Q 39.75 74.21875 46.484375 68.546875  Q 53.21875 62.890625 53.21875 53.421875  Q 53.21875 48.921875 51.53125 44.890625  Q 49.859375 40.875 45.40625 35.40625  Q 44.1875 33.984375 37.640625 27.21875  Q 31.109375 20.453125 19.1875 8.296875  z " id="DejaVuSans-32"/>
      </defs>
      <g transform="translate(109.319394 318.238437)scale(0.1 -0.1)">
       <use xlink:href="#DejaVuSans-32"/>
       <use x="63.623047" xlink:href="#DejaVuSans-30"/>
       <use x="127.246094" xlink:href="#DejaVuSans-30"/>
      </g>
     </g>
    </g>
    <g id="xtick_3">
     <g id="line2d_3">
      <g>
       <use style="stroke:#000000;stroke-width:0.8;" x="177.316289" xlink:href="#m2f0d42f08a" y="303.64"/>
      </g>
     </g>
     <g id="text_3">
      <!-- 400 -->
      <defs>
       <path d="M 37.796875 64.3125  L 12.890625 25.390625  L 37.796875 25.390625  z M 35.203125 72.90625  L 47.609375 72.90625  L 47.609375 25.390625  L 58.015625 25.390625  L 58.015625 17.1875  L 47.609375 17.1875  L 47.609375 0  L 37.796875 0  L 37.796875 17.1875  L 4.890625 17.1875  L 4.890625 26.703125  z " id="DejaVuSans-34"/>
      </defs>
      <g transform="translate(167.772539 318.238437)scale(0.1 -0.1)">
       <use xlink:href="#DejaVuSans-34"/>
       <use x="63.623047" xlink:href="#DejaVuSans-30"/>
       <use x="127.246094" xlink:href="#DejaVuSans-30"/>
      </g>
     </g>
    </g>
    <g id="xtick_4">
     <g id="line2d_4">
      <g>
       <use style="stroke:#000000;stroke-width:0.8;" x="235.769433" xlink:href="#m2f0d42f08a" y="303.64"/>
      </g>
     </g>
     <g id="text_4">
      <!-- 600 -->
      <defs>
       <path d="M 33.015625 40.375  Q 26.375 40.375 22.484375 35.828125  Q 18.609375 31.296875 18.609375 23.390625  Q 18.609375 15.53125 22.484375 10.953125  Q 26.375 6.390625 33.015625 6.390625  Q 39.65625 6.390625 43.53125 10.953125  Q 47.40625 15.53125 47.40625 23.390625  Q 47.40625 31.296875 43.53125 35.828125  Q 39.65625 40.375 33.015625 40.375  z M 52.59375 71.296875  L 52.59375 62.3125  Q 48.875 64.0625 45.09375 64.984375  Q 41.3125 65.921875 37.59375 65.921875  Q 27.828125 65.921875 22.671875 59.328125  Q 17.53125 52.734375 16.796875 39.40625  Q 19.671875 43.65625 24.015625 45.921875  Q 28.375 48.1875 33.59375 48.1875  Q 44.578125 48.1875 50.953125 41.515625  Q 57.328125 34.859375 57.328125 23.390625  Q 57.328125 12.15625 50.6875 5.359375  Q 44.046875 -1.421875 33.015625 -1.421875  Q 20.359375 -1.421875 13.671875 8.265625  Q 6.984375 17.96875 6.984375 36.375  Q 6.984375 53.65625 15.1875 63.9375  Q 23.390625 74.21875 37.203125 74.21875  Q 40.921875 74.21875 44.703125 73.484375  Q 48.484375 72.75 52.59375 71.296875  z " id="DejaVuSans-36"/>
      </defs>
      <g transform="translate(226.225683 318.238437)scale(0.1 -0.1)">
       <use xlink:href="#DejaVuSans-36"/>
       <use x="63.623047" xlink:href="#DejaVuSans-30"/>
       <use x="127.246094" xlink:href="#DejaVuSans-30"/>
      </g>
     </g>
    </g>
    <g id="xtick_5">
     <g id="line2d_5">
      <g>
       <use style="stroke:#000000;stroke-width:0.8;" x="294.222578" xlink:href="#m2f0d42f08a" y="303.64"/>
      </g>
     </g>
     <g id="text_5">
      <!-- 800 -->
      <defs>
       <path d="M 31.78125 34.625  Q 24.75 34.625 20.71875 30.859375  Q 16.703125 27.09375 16.703125 20.515625  Q 16.703125 13.921875 20.71875 10.15625  Q 24.75 6.390625 31.78125 6.390625  Q 38.8125 6.390625 42.859375 10.171875  Q 46.921875 13.96875 46.921875 20.515625  Q 46.921875 27.09375 42.890625 30.859375  Q 38.875 34.625 31.78125 34.625  z M 21.921875 38.8125  Q 15.578125 40.375 12.03125 44.71875  Q 8.5 49.078125 8.5 55.328125  Q 8.5 64.0625 14.71875 69.140625  Q 20.953125 74.21875 31.78125 74.21875  Q 42.671875 74.21875 48.875 69.140625  Q 55.078125 64.0625 55.078125 55.328125  Q 55.078125 49.078125 51.53125 44.71875  Q 48 40.375 41.703125 38.8125  Q 48.828125 37.15625 52.796875 32.3125  Q 56.78125 27.484375 56.78125 20.515625  Q 56.78125 9.90625 50.3125 4.234375  Q 43.84375 -1.421875 31.78125 -1.421875  Q 19.734375 -1.421875 13.25 4.234375  Q 6.78125 9.90625 6.78125 20.515625  Q 6.78125 27.484375 10.78125 32.3125  Q 14.796875 37.15625 21.921875 38.8125  z M 18.3125 54.390625  Q 18.3125 48.734375 21.84375 45.5625  Q 25.390625 42.390625 31.78125 42.390625  Q 38.140625 42.390625 41.71875 45.5625  Q 45.3125 48.734375 45.3125 54.390625  Q 45.3125 60.0625 41.71875 63.234375  Q 38.140625 66.40625 31.78125 66.40625  Q 25.390625 66.40625 21.84375 63.234375  Q 18.3125 60.0625 18.3125 54.390625  z " id="DejaVuSans-38"/>
      </defs>
      <g transform="translate(284.678828 318.238437)scale(0.1 -0.1)">
       <use xlink:href="#DejaVuSans-38"/>
       <use x="63.623047" xlink:href="#DejaVuSans-30"/>
       <use x="127.246094" xlink:href="#DejaVuSans-30"/>
      </g>
     </g>
    </g>
    <g id="xtick_6">
     <g id="line2d_6">
      <g>
       <use style="stroke:#000000;stroke-width:0.8;" x="352.675722" xlink:href="#m2f0d42f08a" y="303.64"/>
      </g>
     </g>
     <g id="text_6">
      <!-- 1000 -->
      <defs>
       <path d="M 12.40625 8.296875  L 28.515625 8.296875  L 28.515625 63.921875  L 10.984375 60.40625  L 10.984375 69.390625  L 28.421875 72.90625  L 38.28125 72.90625  L 38.28125 8.296875  L 54.390625 8.296875  L 54.390625 0  L 12.40625 0  z " id="DejaVuSans-31"/>
      </defs>
      <g transform="translate(339.950722 318.238437)scale(0.1 -0.1)">
       <use xlink:href="#DejaVuSans-31"/>
       <use x="63.623047" xlink:href="#DejaVuSans-30"/>
       <use x="127.246094" xlink:href="#DejaVuSans-30"/>
       <use x="190.869141" xlink:href="#DejaVuSans-30"/>
      </g>
     </g>
    </g>
    <g id="xtick_7">
     <g id="line2d_7">
      <g>
       <use style="stroke:#000000;stroke-width:0.8;" x="411.128866" xlink:href="#m2f0d42f08a" y="303.64"/>
      </g>
     </g>
     <g id="text_7">
      <!-- 1200 -->
      <g transform="translate(398.403866 318.238437)scale(0.1 -0.1)">
       <use xlink:href="#DejaVuSans-31"/>
       <use x="63.623047" xlink:href="#DejaVuSans-32"/>
       <use x="127.246094" xlink:href="#DejaVuSans-30"/>
       <use x="190.869141" xlink:href="#DejaVuSans-30"/>
      </g>
     </g>
    </g>
    <g id="text_8">
     <!-- Distance (&#181;m) -->
     <defs>
      <path d="M 19.671875 64.796875  L 19.671875 8.109375  L 31.59375 8.109375  Q 46.6875 8.109375 53.6875 14.9375  Q 60.6875 21.78125 60.6875 36.53125  Q 60.6875 51.171875 53.6875 57.984375  Q 46.6875 64.796875 31.59375 64.796875  z M 9.8125 72.90625  L 30.078125 72.90625  Q 51.265625 72.90625 61.171875 64.09375  Q 71.09375 55.28125 71.09375 36.53125  Q 71.09375 17.671875 61.125 8.828125  Q 51.171875 0 30.078125 0  L 9.8125 0  z " id="DejaVuSans-44"/>
      <path d="M 9.421875 54.6875  L 18.40625 54.6875  L 18.40625 0  L 9.421875 0  z M 9.421875 75.984375  L 18.40625 75.984375  L 18.40625 64.59375  L 9.421875 64.59375  z " id="DejaVuSans-69"/>
      <path d="M 44.28125 53.078125  L 44.28125 44.578125  Q 40.484375 46.53125 36.375 47.5  Q 32.28125 48.484375 27.875 48.484375  Q 21.1875 48.484375 17.84375 46.4375  Q 14.5 44.390625 14.5 40.28125  Q 14.5 37.15625 16.890625 35.375  Q 19.28125 33.59375 26.515625 31.984375  L 29.59375 31.296875  Q 39.15625 29.25 43.1875 25.515625  Q 47.21875 21.78125 47.21875 15.09375  Q 47.21875 7.46875 41.1875 3.015625  Q 35.15625 -1.421875 24.609375 -1.421875  Q 20.21875 -1.421875 15.453125 -0.5625  Q 10.6875 0.296875 5.421875 2  L 5.421875 11.28125  Q 10.40625 8.6875 15.234375 7.390625  Q 20.0625 6.109375 24.8125 6.109375  Q 31.15625 6.109375 34.5625 8.28125  Q 37.984375 10.453125 37.984375 14.40625  Q 37.984375 18.0625 35.515625 20.015625  Q 33.0625 21.96875 24.703125 23.78125  L 21.578125 24.515625  Q 13.234375 26.265625 9.515625 29.90625  Q 5.8125 33.546875 5.8125 39.890625  Q 5.8125 47.609375 11.28125 51.796875  Q 16.75 56 26.8125 56  Q 31.78125 56 36.171875 55.265625  Q 40.578125 54.546875 44.28125 53.078125  z " id="DejaVuSans-73"/>
      <path d="M 18.3125 70.21875  L 18.3125 54.6875  L 36.8125 54.6875  L 36.8125 47.703125  L 18.3125 47.703125  L 18.3125 18.015625  Q 18.3125 11.328125 20.140625 9.421875  Q 21.96875 7.515625 27.59375 7.515625  L 36.8125 7.515625  L 36.8125 0  L 27.59375 0  Q 17.1875 0 13.234375 3.875  Q 9.28125 7.765625 9.28125 18.015625  L 9.28125 47.703125  L 2.6875 47.703125  L 2.6875 54.6875  L 9.28125 54.6875  L 9.28125 70.21875  z " id="DejaVuSans-74"/>
      <path d="M 34.28125 27.484375  Q 23.390625 27.484375 19.1875 25  Q 14.984375 22.515625 14.984375 16.5  Q 14.984375 11.71875 18.140625 8.90625  Q 21.296875 6.109375 26.703125 6.109375  Q 34.1875 6.109375 38.703125 11.40625  Q 43.21875 16.703125 43.21875 25.484375  L 43.21875 27.484375  z M 52.203125 31.203125  L 52.203125 0  L 43.21875 0  L 43.21875 8.296875  Q 40.140625 3.328125 35.546875 0.953125  Q 30.953125 -1.421875 24.3125 -1.421875  Q 15.921875 -1.421875 10.953125 3.296875  Q 6 8.015625 6 15.921875  Q 6 25.140625 12.171875 29.828125  Q 18.359375 34.515625 30.609375 34.515625  L 43.21875 34.515625  L 43.21875 35.40625  Q 43.21875 41.609375 39.140625 45  Q 35.0625 48.390625 27.6875 48.390625  Q 23 48.390625 18.546875 47.265625  Q 14.109375 46.140625 10.015625 43.890625  L 10.015625 52.203125  Q 14.9375 54.109375 19.578125 55.046875  Q 24.21875 56 28.609375 56  Q 40.484375 56 46.34375 49.84375  Q 52.203125 43.703125 52.203125 31.203125  z " id="DejaVuSans-61"/>
      <path d="M 54.890625 33.015625  L 54.890625 0  L 45.90625 0  L 45.90625 32.71875  Q 45.90625 40.484375 42.875 44.328125  Q 39.84375 48.1875 33.796875 48.1875  Q 26.515625 48.1875 22.3125 43.546875  Q 18.109375 38.921875 18.109375 30.90625  L 18.109375 0  L 9.078125 0  L 9.078125 54.6875  L 18.109375 54.6875  L 18.109375 46.1875  Q 21.34375 51.125 25.703125 53.5625  Q 30.078125 56 35.796875 56  Q 45.21875 56 50.046875 50.171875  Q 54.890625 44.34375 54.890625 33.015625  z " id="DejaVuSans-6e"/>
      <path d="M 48.78125 52.59375  L 48.78125 44.1875  Q 44.96875 46.296875 41.140625 47.34375  Q 37.3125 48.390625 33.40625 48.390625  Q 24.65625 48.390625 19.8125 42.84375  Q 14.984375 37.3125 14.984375 27.296875  Q 14.984375 17.28125 19.8125 11.734375  Q 24.65625 6.203125 33.40625 6.203125  Q 37.3125 6.203125 41.140625 7.25  Q 44.96875 8.296875 48.78125 10.40625  L 48.78125 2.09375  Q 45.015625 0.34375 40.984375 -0.53125  Q 36.96875 -1.421875 32.421875 -1.421875  Q 20.0625 -1.421875 12.78125 6.34375  Q 5.515625 14.109375 5.515625 27.296875  Q 5.515625 40.671875 12.859375 48.328125  Q 20.21875 56 33.015625 56  Q 37.15625 56 41.109375 55.140625  Q 45.0625 54.296875 48.78125 52.59375  z " id="DejaVuSans-63"/>
      <path d="M 56.203125 29.59375  L 56.203125 25.203125  L 14.890625 25.203125  Q 15.484375 15.921875 20.484375 11.0625  Q 25.484375 6.203125 34.421875 6.203125  Q 39.59375 6.203125 44.453125 7.46875  Q 49.3125 8.734375 54.109375 11.28125  L 54.109375 2.78125  Q 49.265625 0.734375 44.1875 -0.34375  Q 39.109375 -1.421875 33.890625 -1.421875  Q 20.796875 -1.421875 13.15625 6.1875  Q 5.515625 13.8125 5.515625 26.8125  Q 5.515625 40.234375 12.765625 48.109375  Q 20.015625 56 32.328125 56  Q 43.359375 56 49.78125 48.890625  Q 56.203125 41.796875 56.203125 29.59375  z M 47.21875 32.234375  Q 47.125 39.59375 43.09375 43.984375  Q 39.0625 48.390625 32.421875 48.390625  Q 24.90625 48.390625 20.390625 44.140625  Q 15.875 39.890625 15.1875 32.171875  z " id="DejaVuSans-65"/>
      <path id="DejaVuSans-20"/>
      <path d="M 31 75.875  Q 24.46875 64.65625 21.28125 53.65625  Q 18.109375 42.671875 18.109375 31.390625  Q 18.109375 20.125 21.3125 9.0625  Q 24.515625 -2 31 -13.1875  L 23.1875 -13.1875  Q 15.875 -1.703125 12.234375 9.375  Q 8.59375 20.453125 8.59375 31.390625  Q 8.59375 42.28125 12.203125 53.3125  Q 15.828125 64.359375 23.1875 75.875  z " id="DejaVuSans-28"/>
      <path d="M 8.5 -20.796875  L 8.5 54.6875  L 17.484375 54.6875  L 17.484375 20.703125  Q 17.484375 13.625 20.84375 10  Q 24.21875 6.390625 30.8125 6.390625  Q 38.03125 6.390625 41.671875 10.484375  Q 45.3125 14.59375 45.3125 22.796875  L 45.3125 54.6875  L 54.296875 54.6875  L 54.296875 12.59375  Q 54.296875 9.671875 55.140625 8.28125  Q 56 6.890625 57.8125 6.890625  Q 58.25 6.890625 59.03125 7.15625  Q 59.8125 7.421875 61.1875 8.015625  L 61.1875 0.78125  Q 59.1875 -0.34375 57.390625 -0.875  Q 55.609375 -1.421875 53.90625 -1.421875  Q 50.53125 -1.421875 48.53125 0.484375  Q 46.53125 2.390625 45.796875 6.296875  Q 43.359375 2.4375 39.8125 0.5  Q 36.28125 -1.421875 31.5 -1.421875  Q 26.515625 -1.421875 23.015625 0.484375  Q 19.53125 2.390625 17.484375 6.203125  L 17.484375 -20.796875  z " id="DejaVuSans-b5"/>
      <path d="M 52 44.1875  Q 55.375 50.25 60.0625 53.125  Q 64.75 56 71.09375 56  Q 79.640625 56 84.28125 50.015625  Q 88.921875 44.046875 88.921875 33.015625  L 88.921875 0  L 79.890625 0  L 79.890625 32.71875  Q 79.890625 40.578125 77.09375 44.375  Q 74.3125 48.1875 68.609375 48.1875  Q 61.625 48.1875 57.5625 43.546875  Q 53.515625 38.921875 53.515625 30.90625  L 53.515625 0  L 44.484375 0  L 44.484375 32.71875  Q 44.484375 40.625 41.703125 44.40625  Q 38.921875 48.1875 33.109375 48.1875  Q 26.21875 48.1875 22.15625 43.53125  Q 18.109375 38.875 18.109375 30.90625  L 18.109375 0  L 9.078125 0  L 9.078125 54.6875  L 18.109375 54.6875  L 18.109375 46.1875  Q 21.1875 51.21875 25.484375 53.609375  Q 29.78125 56 35.6875 56  Q 41.65625 56 45.828125 52.96875  Q 50 49.953125 52 44.1875  z " id="DejaVuSans-6d"/>
      <path d="M 8.015625 75.875  L 15.828125 75.875  Q 23.140625 64.359375 26.78125 53.3125  Q 30.421875 42.28125 30.421875 31.390625  Q 30.421875 20.453125 26.78125 9.375  Q 23.140625 -1.703125 15.828125 -13.1875  L 8.015625 -13.1875  Q 14.5 -2 17.703125 9.0625  Q 20.90625 20.125 20.90625 31.390625  Q 20.90625 42.671875 17.703125 53.65625  Q 14.5 64.65625 8.015625 75.875  z " id="DejaVuSans-29"/>
     </defs>
     <g transform="translate(218.540313 331.916562)scale(0.1 -0.1)">
      <use xlink:href="#DejaVuSans-44"/>
      <use x="77.001953" xlink:href="#DejaVuSans-69"/>
      <use x="104.785156" xlink:href="#DejaVuSans-73"/>
      <use x="156.884766" xlink:href="#DejaVuSans-74"/>
      <use x="196.09375" xlink:href="#DejaVuSans-61"/>
      <use x="257.373047" xlink:href="#DejaVuSans-6e"/>
      <use x="320.751953" xlink:href="#DejaVuSans-63"/>
      <use x="375.732422" xlink:href="#DejaVuSans-65"/>
      <use x="437.255859" xlink:href="#DejaVuSans-20"/>
      <use x="469.042969" xlink:href="#DejaVuSans-28"/>
      <use x="508.056641" xlink:href="#DejaVuSans-b5"/>
      <use x="571.679688" xlink:href="#DejaVuSans-6d"/>
      <use x="669.091797" xlink:href="#DejaVuSans-29"/>
     </g>
    </g>
   </g>
   <g id="matplotlib.axis_2">
    <g id="ytick_1">
     <g id="line2d_8">
      <defs>
       <path d="M 0 0  L -3.5 0  " id="m9df27b176d" style="stroke:#000000;stroke-width:0.8;"/>
      </defs>
      <g>
       <use style="stroke:#000000;stroke-width:0.8;" x="60.41" xlink:href="#m9df27b176d" y="303.765889"/>
      </g>
     </g>
     <g id="text_9">
      <!-- 0.000 -->
      <defs>
       <path d="M 10.6875 12.40625  L 21 12.40625  L 21 0  L 10.6875 0  z " id="DejaVuSans-2e"/>
      </defs>
      <g transform="translate(24.781875 307.565107)scale(0.1 -0.1)">
       <use xlink:href="#DejaVuSans-30"/>
       <use x="63.623047" xlink:href="#DejaVuSans-2e"/>
       <use x="95.410156" xlink:href="#DejaVuSans-30"/>
       <use x="159.033203" xlink:href="#DejaVuSans-30"/>
       <use x="222.65625" xlink:href="#DejaVuSans-30"/>
      </g>
     </g>
    </g>
    <g id="ytick_2">
     <g id="line2d_9">
      <g>
       <use style="stroke:#000000;stroke-width:0.8;" x="60.41" xlink:href="#m9df27b176d" y="251.312322"/>
      </g>
     </g>
     <g id="text_10">
      <!-- 0.005 -->
      <defs>
       <path d="M 10.796875 72.90625  L 49.515625 72.90625  L 49.515625 64.59375  L 19.828125 64.59375  L 19.828125 46.734375  Q 21.96875 47.46875 24.109375 47.828125  Q 26.265625 48.1875 28.421875 48.1875  Q 40.625 48.1875 47.75 41.5  Q 54.890625 34.8125 54.890625 23.390625  Q 54.890625 11.625 47.5625 5.09375  Q 40.234375 -1.421875 26.90625 -1.421875  Q 22.3125 -1.421875 17.546875 -0.640625  Q 12.796875 0.140625 7.71875 1.703125  L 7.71875 11.625  Q 12.109375 9.234375 16.796875 8.0625  Q 21.484375 6.890625 26.703125 6.890625  Q 35.15625 6.890625 40.078125 11.328125  Q 45.015625 15.765625 45.015625 23.390625  Q 45.015625 31 40.078125 35.4375  Q 35.15625 39.890625 26.703125 39.890625  Q 22.75 39.890625 18.8125 39.015625  Q 14.890625 38.140625 10.796875 36.28125  z " id="DejaVuSans-35"/>
      </defs>
      <g transform="translate(24.781875 255.111541)scale(0.1 -0.1)">
       <use xlink:href="#DejaVuSans-30"/>
       <use x="63.623047" xlink:href="#DejaVuSans-2e"/>
       <use x="95.410156" xlink:href="#DejaVuSans-30"/>
       <use x="159.033203" xlink:href="#DejaVuSans-30"/>
       <use x="222.65625" xlink:href="#DejaVuSans-35"/>
      </g>
     </g>
    </g>
    <g id="ytick_3">
     <g id="line2d_10">
      <g>
       <use style="stroke:#000000;stroke-width:0.8;" x="60.41" xlink:href="#m9df27b176d" y="198.858756"/>
      </g>
     </g>
     <g id="text_11">
      <!-- 0.010 -->
      <g transform="translate(24.781875 202.657974)scale(0.1 -0.1)">
       <use xlink:href="#DejaVuSans-30"/>
       <use x="63.623047" xlink:href="#DejaVuSans-2e"/>
       <use x="95.410156" xlink:href="#DejaVuSans-30"/>
       <use x="159.033203" xlink:href="#DejaVuSans-31"/>
       <use x="222.65625" xlink:href="#DejaVuSans-30"/>
      </g>
     </g>
    </g>
    <g id="ytick_4">
     <g id="line2d_11">
      <g>
       <use style="stroke:#000000;stroke-width:0.8;" x="60.41" xlink:href="#m9df27b176d" y="146.405189"/>
      </g>
     </g>
     <g id="text_12">
      <!-- 0.015 -->
      <g transform="translate(24.781875 150.204408)scale(0.1 -0.1)">
       <use xlink:href="#DejaVuSans-30"/>
       <use x="63.623047" xlink:href="#DejaVuSans-2e"/>
       <use x="95.410156" xlink:href="#DejaVuSans-30"/>
       <use x="159.033203" xlink:href="#DejaVuSans-31"/>
       <use x="222.65625" xlink:href="#DejaVuSans-35"/>
      </g>
     </g>
    </g>
    <g id="ytick_5">
     <g id="line2d_12">
      <g>
       <use style="stroke:#000000;stroke-width:0.8;" x="60.41" xlink:href="#m9df27b176d" y="93.951622"/>
      </g>
     </g>
     <g id="text_13">
      <!-- 0.020 -->
      <g transform="translate(24.781875 97.750841)scale(0.1 -0.1)">
       <use xlink:href="#DejaVuSans-30"/>
       <use x="63.623047" xlink:href="#DejaVuSans-2e"/>
       <use x="95.410156" xlink:href="#DejaVuSans-30"/>
       <use x="159.033203" xlink:href="#DejaVuSans-32"/>
       <use x="222.65625" xlink:href="#DejaVuSans-30"/>
      </g>
     </g>
    </g>
    <g id="ytick_6">
     <g id="line2d_13">
      <g>
       <use style="stroke:#000000;stroke-width:0.8;" x="60.41" xlink:href="#m9df27b176d" y="41.498056"/>
      </g>
     </g>
     <g id="text_14">
      <!-- 0.025 -->
      <g transform="translate(24.781875 45.297275)scale(0.1 -0.1)">
       <use xlink:href="#DejaVuSans-30"/>
       <use x="63.623047" xlink:href="#DejaVuSans-2e"/>
       <use x="95.410156" xlink:href="#DejaVuSans-30"/>
       <use x="159.033203" xlink:href="#DejaVuSans-32"/>
       <use x="222.65625" xlink:href="#DejaVuSans-35"/>
      </g>
     </g>
    </g>
    <g id="text_15">
     <!-- Mole Fraction (Sn,Ag) -->
     <defs>
      <path d="M 9.8125 72.90625  L 24.515625 72.90625  L 43.109375 23.296875  L 61.8125 72.90625  L 76.515625 72.90625  L 76.515625 0  L 66.890625 0  L 66.890625 64.015625  L 48.09375 14.015625  L 38.1875 14.015625  L 19.390625 64.015625  L 19.390625 0  L 9.8125 0  z " id="DejaVuSans-4d"/>
      <path d="M 30.609375 48.390625  Q 23.390625 48.390625 19.1875 42.75  Q 14.984375 37.109375 14.984375 27.296875  Q 14.984375 17.484375 19.15625 11.84375  Q 23.34375 6.203125 30.609375 6.203125  Q 37.796875 6.203125 41.984375 11.859375  Q 46.1875 17.53125 46.1875 27.296875  Q 46.1875 37.015625 41.984375 42.703125  Q 37.796875 48.390625 30.609375 48.390625  z M 30.609375 56  Q 42.328125 56 49.015625 48.375  Q 55.71875 40.765625 55.71875 27.296875  Q 55.71875 13.875 49.015625 6.21875  Q 42.328125 -1.421875 30.609375 -1.421875  Q 18.84375 -1.421875 12.171875 6.21875  Q 5.515625 13.875 5.515625 27.296875  Q 5.515625 40.765625 12.171875 48.375  Q 18.84375 56 30.609375 56  z " id="DejaVuSans-6f"/>
      <path d="M 9.421875 75.984375  L 18.40625 75.984375  L 18.40625 0  L 9.421875 0  z " id="DejaVuSans-6c"/>
      <path d="M 9.8125 72.90625  L 51.703125 72.90625  L 51.703125 64.59375  L 19.671875 64.59375  L 19.671875 43.109375  L 48.578125 43.109375  L 48.578125 34.8125  L 19.671875 34.8125  L 19.671875 0  L 9.8125 0  z " id="DejaVuSans-46"/>
      <path d="M 41.109375 46.296875  Q 39.59375 47.171875 37.8125 47.578125  Q 36.03125 48 33.890625 48  Q 26.265625 48 22.1875 43.046875  Q 18.109375 38.09375 18.109375 28.8125  L 18.109375 0  L 9.078125 0  L 9.078125 54.6875  L 18.109375 54.6875  L 18.109375 46.1875  Q 20.953125 51.171875 25.484375 53.578125  Q 30.03125 56 36.53125 56  Q 37.453125 56 38.578125 55.875  Q 39.703125 55.765625 41.0625 55.515625  z " id="DejaVuSans-72"/>
      <path d="M 53.515625 70.515625  L 53.515625 60.890625  Q 47.90625 63.578125 42.921875 64.890625  Q 37.9375 66.21875 33.296875 66.21875  Q 25.25 66.21875 20.875 63.09375  Q 16.5 59.96875 16.5 54.203125  Q 16.5 49.359375 19.40625 46.890625  Q 22.3125 44.4375 30.421875 42.921875  L 36.375 41.703125  Q 47.40625 39.59375 52.65625 34.296875  Q 57.90625 29 57.90625 20.125  Q 57.90625 9.515625 50.796875 4.046875  Q 43.703125 -1.421875 29.984375 -1.421875  Q 24.8125 -1.421875 18.96875 -0.25  Q 13.140625 0.921875 6.890625 3.21875  L 6.890625 13.375  Q 12.890625 10.015625 18.65625 8.296875  Q 24.421875 6.59375 29.984375 6.59375  Q 38.421875 6.59375 43.015625 9.90625  Q 47.609375 13.234375 47.609375 19.390625  Q 47.609375 24.75 44.3125 27.78125  Q 41.015625 30.8125 33.5 32.328125  L 27.484375 33.5  Q 16.453125 35.6875 11.515625 40.375  Q 6.59375 45.0625 6.59375 53.421875  Q 6.59375 63.09375 13.40625 68.65625  Q 20.21875 74.21875 32.171875 74.21875  Q 37.3125 74.21875 42.625 73.28125  Q 47.953125 72.359375 53.515625 70.515625  z " id="DejaVuSans-53"/>
      <path d="M 11.71875 12.40625  L 22.015625 12.40625  L 22.015625 4  L 14.015625 -11.625  L 7.71875 -11.625  L 11.71875 4  z " id="DejaVuSans-2c"/>
      <path d="M 34.1875 63.1875  L 20.796875 26.90625  L 47.609375 26.90625  z M 28.609375 72.90625  L 39.796875 72.90625  L 67.578125 0  L 57.328125 0  L 50.6875 18.703125  L 17.828125 18.703125  L 11.1875 0  L 0.78125 0  z " id="DejaVuSans-41"/>
      <path d="M 45.40625 27.984375  Q 45.40625 37.75 41.375 43.109375  Q 37.359375 48.484375 30.078125 48.484375  Q 22.859375 48.484375 18.828125 43.109375  Q 14.796875 37.75 14.796875 27.984375  Q 14.796875 18.265625 18.828125 12.890625  Q 22.859375 7.515625 30.078125 7.515625  Q 37.359375 7.515625 41.375 12.890625  Q 45.40625 18.265625 45.40625 27.984375  z M 54.390625 6.78125  Q 54.390625 -7.171875 48.1875 -13.984375  Q 42 -20.796875 29.203125 -20.796875  Q 24.46875 -20.796875 20.265625 -20.09375  Q 16.0625 -19.390625 12.109375 -17.921875  L 12.109375 -9.1875  Q 16.0625 -11.328125 19.921875 -12.34375  Q 23.78125 -13.375 27.78125 -13.375  Q 36.625 -13.375 41.015625 -8.765625  Q 45.40625 -4.15625 45.40625 5.171875  L 45.40625 9.625  Q 42.625 4.78125 38.28125 2.390625  Q 33.9375 0 27.875 0  Q 17.828125 0 11.671875 7.65625  Q 5.515625 15.328125 5.515625 27.984375  Q 5.515625 40.671875 11.671875 48.328125  Q 17.828125 56 27.875 56  Q 33.9375 56 38.28125 53.609375  Q 42.625 51.21875 45.40625 46.390625  L 45.40625 54.6875  L 54.390625 54.6875  z " id="DejaVuSans-67"/>
     </defs>
     <g transform="translate(18.702188 212.241719)rotate(-90)scale(0.1 -0.1)">
      <use xlink:href="#DejaVuSans-4d"/>
      <use x="86.279297" xlink:href="#DejaVuSans-6f"/>
      <use x="147.460938" xlink:href="#DejaVuSans-6c"/>
      <use x="175.244141" xlink:href="#DejaVuSans-65"/>
      <use x="236.767578" xlink:href="#DejaVuSans-20"/>
      <use x="268.554688" xlink:href="#DejaVuSans-46"/>
      <use x="325.964844" xlink:href="#DejaVuSans-72"/>
      <use x="367.078125" xlink:href="#DejaVuSans-61"/>
      <use x="428.357422" xlink:href="#DejaVuSans-63"/>
      <use x="483.337891" xlink:href="#DejaVuSans-74"/>
      <use x="522.546875" xlink:href="#DejaVuSans-69"/>
      <use x="550.330078" xlink:href="#DejaVuSans-6f"/>
      <use x="611.511719" xlink:href="#DejaVuSans-6e"/>
      <use x="674.890625" xlink:href="#DejaVuSans-20"/>
      <use x="706.677734" xlink:href="#DejaVuSans-28"/>
      <use x="745.691406" xlink:href="#DejaVuSans-53"/>
      <use x="809.167969" xlink:href="#DejaVuSans-6e"/>
      <use x="872.546875" xlink:href="#DejaVuSans-2c"/>
      <use x="904.333984" xlink:href="#DejaVuSans-41"/>
      <use x="972.742188" xlink:href="#DejaVuSans-67"/>
      <use x="1036.21875" xlink:href="#DejaVuSans-29"/>
     </g>
    </g>
   </g>
   <g id="line2d_14">
    <defs>
     <path d="M 0 3  C 0.795609 3 1.55874 2.683901 2.12132 2.12132  C 2.683901 1.55874 3 0.795609 3 0  C 3 -0.795609 2.683901 -1.55874 2.12132 -2.12132  C 1.55874 -2.683901 0.795609 -3 0 -3  C -0.795609 -3 -1.55874 -2.683901 -2.12132 -2.12132  C -2.683901 -1.55874 -3 -0.795609 -3 0  C -3 0.795609 -2.683901 1.55874 -2.12132 2.12132  C -1.55874 2.683901 -0.795609 3 0 3  z " id="ma1b6ce2e18" style="stroke:#008080;"/>
    </defs>
    <g clip-path="url(#pb13cfe080f)">
     <use style="fill:#008080;stroke:#008080;" x="60.41" xlink:href="#ma1b6ce2e18" y="297.817654"/>
     <use style="fill:#008080;stroke:#008080;" x="72.977426" xlink:href="#ma1b6ce2e18" y="300.639656"/>
     <use style="fill:#008080;stroke:#008080;" x="123.831662" xlink:href="#ma1b6ce2e18" y="291.061635"/>
     <use style="fill:#008080;stroke:#008080;" x="130.261508" xlink:href="#ma1b6ce2e18" y="298.908688"/>
     <use style="fill:#008080;stroke:#008080;" x="136.691353" xlink:href="#ma1b6ce2e18" y="300.461314"/>
     <use style="fill:#008080;stroke:#008080;" x="149.258779" xlink:href="#ma1b6ce2e18" y="301.825107"/>
     <use style="fill:#008080;stroke:#008080;" x="155.688625" xlink:href="#ma1b6ce2e18" y="298.510041"/>
     <use style="fill:#008080;stroke:#008080;" x="168.256051" xlink:href="#ma1b6ce2e18" y="297.828145"/>
     <use style="fill:#008080;stroke:#008080;" x="174.685897" xlink:href="#ma1b6ce2e18" y="300.817998"/>
     <use style="fill:#008080;stroke:#008080;" x="181.115743" xlink:href="#ma1b6ce2e18" y="297.975015"/>
     <use style="fill:#008080;stroke:#008080;" x="193.683169" xlink:href="#ma1b6ce2e18" y="297.125267"/>
     <use style="fill:#008080;stroke:#008080;" x="200.113015" xlink:href="#ma1b6ce2e18" y="292.624751"/>
     <use style="fill:#008080;stroke:#008080;" x="206.250595" xlink:href="#ma1b6ce2e18" y="288.900548"/>
     <use style="fill:#008080;stroke:#008080;" x="212.680441" xlink:href="#ma1b6ce2e18" y="291.73304"/>
     <use style="fill:#008080;stroke:#008080;" x="219.110287" xlink:href="#ma1b6ce2e18" y="286.193944"/>
     <use style="fill:#008080;stroke:#008080;" x="225.247867" xlink:href="#ma1b6ce2e18" y="280.119821"/>
     <use style="fill:#008080;stroke:#008080;" x="231.677713" xlink:href="#ma1b6ce2e18" y="267.111336"/>
     <use style="fill:#008080;stroke:#008080;" x="238.107559" xlink:href="#ma1b6ce2e18" y="264.729944"/>
     <use style="fill:#008080;stroke:#008080;" x="244.537405" xlink:href="#ma1b6ce2e18" y="256.631114"/>
     <use style="fill:#008080;stroke:#008080;" x="250.674985" xlink:href="#ma1b6ce2e18" y="247.283888"/>
     <use style="fill:#008080;stroke:#008080;" x="257.104831" xlink:href="#ma1b6ce2e18" y="239.824991"/>
     <use style="fill:#008080;stroke:#008080;" x="263.534677" xlink:href="#ma1b6ce2e18" y="224.004995"/>
     <use style="fill:#008080;stroke:#008080;" x="269.672257" xlink:href="#ma1b6ce2e18" y="212.905821"/>
     <use style="fill:#008080;stroke:#008080;" x="276.102103" xlink:href="#ma1b6ce2e18" y="204.943369"/>
     <use style="fill:#008080;stroke:#008080;" x="282.531949" xlink:href="#ma1b6ce2e18" y="194.756887"/>
     <use style="fill:#008080;stroke:#008080;" x="288.961795" xlink:href="#ma1b6ce2e18" y="187.130138"/>
     <use style="fill:#008080;stroke:#008080;" x="301.529221" xlink:href="#ma1b6ce2e18" y="165.487796"/>
     <use style="fill:#008080;stroke:#008080;" x="307.959066" xlink:href="#ma1b6ce2e18" y="162.393036"/>
     <use style="fill:#008080;stroke:#008080;" x="314.096647" xlink:href="#ma1b6ce2e18" y="159.340238"/>
     <use style="fill:#008080;stroke:#008080;" x="320.526493" xlink:href="#ma1b6ce2e18" y="153.423476"/>
     <use style="fill:#008080;stroke:#008080;" x="326.956338" xlink:href="#ma1b6ce2e18" y="138.232923"/>
     <use style="fill:#008080;stroke:#008080;" x="333.386184" xlink:href="#ma1b6ce2e18" y="137.530046"/>
     <use style="fill:#008080;stroke:#008080;" x="339.523764" xlink:href="#ma1b6ce2e18" y="145.555441"/>
     <use style="fill:#008080;stroke:#008080;" x="345.95361" xlink:href="#ma1b6ce2e18" y="134.445776"/>
     <use style="fill:#008080;stroke:#008080;" x="352.383456" xlink:href="#ma1b6ce2e18" y="133.795352"/>
     <use style="fill:#008080;stroke:#008080;" x="358.521036" xlink:href="#ma1b6ce2e18" y="136.606863"/>
     <use style="fill:#008080;stroke:#008080;" x="364.950882" xlink:href="#ma1b6ce2e18" y="118.846085"/>
     <use style="fill:#008080;stroke:#008080;" x="371.380728" xlink:href="#ma1b6ce2e18" y="127.710738"/>
     <use style="fill:#008080;stroke:#008080;" x="377.810574" xlink:href="#ma1b6ce2e18" y="130.291453"/>
     <use style="fill:#008080;stroke:#008080;" x="383.948154" xlink:href="#ma1b6ce2e18" y="118.489401"/>
     <use style="fill:#008080;stroke:#008080;" x="390.378" xlink:href="#ma1b6ce2e18" y="123.577397"/>
     <use style="fill:#008080;stroke:#008080;" x="396.807846" xlink:href="#ma1b6ce2e18" y="114.523911"/>
     <use style="fill:#008080;stroke:#008080;" x="402.945426" xlink:href="#ma1b6ce2e18" y="115.68838"/>
     <use style="fill:#008080;stroke:#008080;" x="409.375272" xlink:href="#ma1b6ce2e18" y="129.787899"/>
     <use style="fill:#008080;stroke:#008080;" x="415.805118" xlink:href="#ma1b6ce2e18" y="105.438954"/>
     <use style="fill:#008080;stroke:#008080;" x="422.234964" xlink:href="#ma1b6ce2e18" y="123.545925"/>
     <use style="fill:#008080;stroke:#008080;" x="428.372544" xlink:href="#ma1b6ce2e18" y="118.311059"/>
     <use style="fill:#008080;stroke:#008080;" x="434.80239" xlink:href="#ma1b6ce2e18" y="124.05997"/>
     <use style="fill:#008080;stroke:#008080;" x="447.369816" xlink:href="#ma1b6ce2e18" y="132.609901"/>
    </g>
   </g>
   <g id="line2d_15">
    <defs>
     <path d="M -0 3  L 3 -3  L -3 -3  z " id="m76b6c611e5" style="stroke:#e74c3c;stroke-linejoin:miter;"/>
    </defs>
    <g clip-path="url(#pb13cfe080f)">
     <use style="fill:#e74c3c;stroke:#e74c3c;stroke-linejoin:miter;" x="60.41" xlink:href="#m76b6c611e5" y="300.83898"/>
     <use style="fill:#e74c3c;stroke:#e74c3c;stroke-linejoin:miter;" x="72.977426" xlink:href="#m76b6c611e5" y="302.034921"/>
     <use style="fill:#e74c3c;stroke:#e74c3c;stroke-linejoin:miter;" x="123.831662" xlink:href="#m76b6c611e5" y="302.559457"/>
     <use style="fill:#e74c3c;stroke:#e74c3c;stroke-linejoin:miter;" x="130.261508" xlink:href="#m76b6c611e5" y="303.19939"/>
     <use style="fill:#e74c3c;stroke:#e74c3c;stroke-linejoin:miter;" x="136.691353" xlink:href="#m76b6c611e5" y="302.412587"/>
     <use style="fill:#e74c3c;stroke:#e74c3c;stroke-linejoin:miter;" x="149.258779" xlink:href="#m76b6c611e5" y="302.286698"/>
     <use style="fill:#e74c3c;stroke:#e74c3c;stroke-linejoin:miter;" x="155.688625" xlink:href="#m76b6c611e5" y="301.185173"/>
     <use style="fill:#e74c3c;stroke:#e74c3c;stroke-linejoin:miter;" x="168.256051" xlink:href="#m76b6c611e5" y="299.055558"/>
     <use style="fill:#e74c3c;stroke:#e74c3c;stroke-linejoin:miter;" x="174.685897" xlink:href="#m76b6c611e5" y="301.615292"/>
     <use style="fill:#e74c3c;stroke:#e74c3c;stroke-linejoin:miter;" x="181.115743" xlink:href="#m76b6c611e5" y="301.216645"/>
     <use style="fill:#e74c3c;stroke:#e74c3c;stroke-linejoin:miter;" x="193.683169" xlink:href="#m76b6c611e5" y="303.64"/>
     <use style="fill:#e74c3c;stroke:#e74c3c;stroke-linejoin:miter;" x="200.113015" xlink:href="#m76b6c611e5" y="302.748289"/>
     <use style="fill:#e74c3c;stroke:#e74c3c;stroke-linejoin:miter;" x="206.250595" xlink:href="#m76b6c611e5" y="301.741181"/>
     <use style="fill:#e74c3c;stroke:#e74c3c;stroke-linejoin:miter;" x="212.680441" xlink:href="#m76b6c611e5" y="299.632548"/>
     <use style="fill:#e74c3c;stroke:#e74c3c;stroke-linejoin:miter;" x="219.110287" xlink:href="#m76b6c611e5" y="296.925943"/>
     <use style="fill:#e74c3c;stroke:#e74c3c;stroke-linejoin:miter;" x="225.247867" xlink:href="#m76b6c611e5" y="298.468078"/>
     <use style="fill:#e74c3c;stroke:#e74c3c;stroke-linejoin:miter;" x="231.677713" xlink:href="#m76b6c611e5" y="291.42881"/>
     <use style="fill:#e74c3c;stroke:#e74c3c;stroke-linejoin:miter;" x="238.107559" xlink:href="#m76b6c611e5" y="282.910351"/>
     <use style="fill:#e74c3c;stroke:#e74c3c;stroke-linejoin:miter;" x="244.537405" xlink:href="#m76b6c611e5" y="268.307278"/>
     <use style="fill:#e74c3c;stroke:#e74c3c;stroke-linejoin:miter;" x="250.674985" xlink:href="#m76b6c611e5" y="250.913675"/>
     <use style="fill:#e74c3c;stroke:#e74c3c;stroke-linejoin:miter;" x="257.104831" xlink:href="#m76b6c611e5" y="226.302462"/>
     <use style="fill:#e74c3c;stroke:#e74c3c;stroke-linejoin:miter;" x="263.534677" xlink:href="#m76b6c611e5" y="207.419178"/>
     <use style="fill:#e74c3c;stroke:#e74c3c;stroke-linejoin:miter;" x="269.672257" xlink:href="#m76b6c611e5" y="173.92233"/>
     <use style="fill:#e74c3c;stroke:#e74c3c;stroke-linejoin:miter;" x="276.102103" xlink:href="#m76b6c611e5" y="142.911781"/>
     <use style="fill:#e74c3c;stroke:#e74c3c;stroke-linejoin:miter;" x="282.531949" xlink:href="#m76b6c611e5" y="114.460967"/>
     <use style="fill:#e74c3c;stroke:#e74c3c;stroke-linejoin:miter;" x="288.961795" xlink:href="#m76b6c611e5" y="89.325218"/>
     <use style="fill:#e74c3c;stroke:#e74c3c;stroke-linejoin:miter;" x="301.529221" xlink:href="#m76b6c611e5" y="69.802"/>
     <use style="fill:#e74c3c;stroke:#e74c3c;stroke-linejoin:miter;" x="307.959066" xlink:href="#m76b6c611e5" y="61.335995"/>
     <use style="fill:#e74c3c;stroke:#e74c3c;stroke-linejoin:miter;" x="314.096647" xlink:href="#m76b6c611e5" y="47.44629"/>
     <use style="fill:#e74c3c;stroke:#e74c3c;stroke-linejoin:miter;" x="320.526493" xlink:href="#m76b6c611e5" y="41.225297"/>
     <use style="fill:#e74c3c;stroke:#e74c3c;stroke-linejoin:miter;" x="326.956338" xlink:href="#m76b6c611e5" y="35.518349"/>
     <use style="fill:#e74c3c;stroke:#e74c3c;stroke-linejoin:miter;" x="333.386184" xlink:href="#m76b6c611e5" y="27.471972"/>
     <use style="fill:#e74c3c;stroke:#e74c3c;stroke-linejoin:miter;" x="339.523764" xlink:href="#m76b6c611e5" y="24.912238"/>
     <use style="fill:#e74c3c;stroke:#e74c3c;stroke-linejoin:miter;" x="345.95361" xlink:href="#m76b6c611e5" y="28.646932"/>
     <use style="fill:#e74c3c;stroke:#e74c3c;stroke-linejoin:miter;" x="352.383456" xlink:href="#m76b6c611e5" y="21.229998"/>
     <use style="fill:#e74c3c;stroke:#e74c3c;stroke-linejoin:miter;" x="358.521036" xlink:href="#m76b6c611e5" y="19.457067"/>
     <use style="fill:#e74c3c;stroke:#e74c3c;stroke-linejoin:miter;" x="364.950882" xlink:href="#m76b6c611e5" y="25.793458"/>
     <use style="fill:#e74c3c;stroke:#e74c3c;stroke-linejoin:miter;" x="371.380728" xlink:href="#m76b6c611e5" y="26.632715"/>
     <use style="fill:#e74c3c;stroke:#e74c3c;stroke-linejoin:miter;" x="377.810574" xlink:href="#m76b6c611e5" y="20.243871"/>
     <use style="fill:#e74c3c;stroke:#e74c3c;stroke-linejoin:miter;" x="383.948154" xlink:href="#m76b6c611e5" y="22.016801"/>
     <use style="fill:#e74c3c;stroke:#e74c3c;stroke-linejoin:miter;" x="390.378" xlink:href="#m76b6c611e5" y="16.614084"/>
     <use style="fill:#e74c3c;stroke:#e74c3c;stroke-linejoin:miter;" x="396.807846" xlink:href="#m76b6c611e5" y="18.145728"/>
     <use style="fill:#e74c3c;stroke:#e74c3c;stroke-linejoin:miter;" x="402.945426" xlink:href="#m76b6c611e5" y="19.719335"/>
     <use style="fill:#e74c3c;stroke:#e74c3c;stroke-linejoin:miter;" x="409.375272" xlink:href="#m76b6c611e5" y="22.814096"/>
     <use style="fill:#e74c3c;stroke:#e74c3c;stroke-linejoin:miter;" x="415.805118" xlink:href="#m76b6c611e5" y="20.516629"/>
     <use style="fill:#e74c3c;stroke:#e74c3c;stroke-linejoin:miter;" x="422.234964" xlink:href="#m76b6c611e5" y="13.561286"/>
     <use style="fill:#e74c3c;stroke:#e74c3c;stroke-linejoin:miter;" x="428.372544" xlink:href="#m76b6c611e5" y="20.978221"/>
     <use style="fill:#e74c3c;stroke:#e74c3c;stroke-linejoin:miter;" x="434.80239" xlink:href="#m76b6c611e5" y="13.32"/>
     <use style="fill:#e74c3c;stroke:#e74c3c;stroke-linejoin:miter;" x="447.369816" xlink:href="#m76b6c611e5" y="15.481087"/>
    </g>
   </g>
   <g id="line2d_16">
    <path clip-path="url(#pb13cfe080f)" d="M 58.898008 297.817588  L 144.174369 297.706569  L 158.689494 297.482468  L 167.761447 297.169797  L 175.01901 296.740643  L 181.822975 296.111228  L 187.266147 295.380728  L 191.802123 294.566965  L 196.3381 293.517589  L 199.966881 292.472636  L 203.595663 291.21223  L 207.224444 289.703766  L 210.853225 287.913325  L 214.482007 285.806882  L 217.203593 284.000019  L 219.925179 281.984603  L 223.327161 279.155941  L 226.502345 276.193068  L 229.677528 272.912321  L 232.852712 269.315238  L 236.481493 264.830919  L 240.110275 259.979127  L 244.192654 254.142763  L 249.182228 246.597553  L 258.254181 232.349588  L 265.625143 220.959145  L 270.841516 213.289143  L 275.604292 206.667853  L 280.140268 200.734879  L 284.676245 195.174213  L 289.212222 189.979389  L 293.634799 185.252383  L 298.170776 180.732144  L 302.706752 176.523944  L 307.242729 172.608069  L 311.778705 168.966271  L 316.76828 165.257316  L 321.531055 161.990053  L 326.067032 159.112549  L 331.510204 155.944809  L 336.953376 153.071265  L 342.396548 150.475059  L 347.83972 148.139947  L 353.282892 146.049872  L 358.272466 144.335539  L 363.715638 142.670117  L 369.15881 141.202354  L 374.601982 139.915878  L 381.859545 138.454623  L 389.117107 137.249567  L 396.37467 136.265285  L 405.446623 135.295597  L 414.518576 134.562208  L 425.40492 133.924993  L 438.105655 133.429665  L 448.991999 133.157282  L 448.991999 133.157282  " style="fill:none;stroke:#008080;stroke-linecap:square;stroke-width:2;"/>
   </g>
   <g id="line2d_17">
    <path clip-path="url(#pb13cfe080f)" d="M 58.898008 300.83898  L 192.709319 300.730991  L 201.781272 300.484112  L 207.224444 300.138063  L 211.760421 299.628423  L 215.389202 298.991841  L 218.110788 298.325914  L 220.832374 297.447765  L 223.327161 296.408988  L 225.595149 295.227064  L 227.863138 293.776237  L 230.131126 292.010612  L 231.945517 290.338662  L 233.759907 288.408088  L 235.574298 286.192885  L 237.388689 283.667624  L 239.203079 280.808251  L 241.01747 277.59297  L 242.831861 274.003157  L 245.099849 268.96752  L 247.367837 263.306986  L 249.635826 257.018373  L 251.903814 250.114089  L 254.6254 241.057502  L 257.346986 231.234849  L 260.522169 218.950843  L 264.491149 202.653469  L 271.068315 174.495835  L 277.645481 146.642448  L 281.954659 129.359047  L 285.58344 115.692546  L 288.985423 103.744147  L 291.820408 94.477183  L 294.995592 84.871289  L 297.717178 77.294853  L 300.438764 70.320528  L 303.16035 63.93571  L 305.881936 58.12142  L 308.603522 52.853707  L 311.325108 48.104884  L 314.046694 43.844611  L 316.76828 40.040824  L 319.489866 36.660538  L 321.531055 34.383284  L 324.252641 31.664673  L 326.974227 29.279185  L 329.695813 27.195479  L 332.417399 25.38358  L 335.138985 23.815107  L 337.860571 22.463438  L 341.489352 20.955958  L 345.118134 19.736773  L 348.746915 18.758624  L 353.282892 17.812467  L 358.272466 17.051758  L 363.715638 16.473019  L 370.973201 15.985609  L 380.045154 15.662883  L 392.745889 15.48615  L 416.332967 15.441898  L 448.991999 15.465166  L 448.991999 15.465166  " style="fill:none;stroke:#e74c3c;stroke-linecap:square;stroke-width:2;"/>
   </g>
   <g id="patch_3">
    <path d="M 60.41 303.64  L 60.41 13.32  " style="fill:none;stroke:#000000;stroke-linecap:square;stroke-linejoin:miter;stroke-width:0.8;"/>
   </g>
   <g id="patch_4">
    <path d="M 447.48 303.64  L 447.48 13.32  " style="fill:none;stroke:#000000;stroke-linecap:square;stroke-linejoin:miter;stroke-width:0.8;"/>
   </g>
   <g id="patch_5">
    <path d="M 60.41 303.64  L 447.48 303.64  " style="fill:none;stroke:#000000;stroke-linecap:square;stroke-linejoin:miter;stroke-width:0.8;"/>
   </g>
   <g id="patch_6">
    <path d="M 60.41 13.32  L 447.48 13.32  " style="fill:none;stroke:#000000;stroke-linecap:square;stroke-linejoin:miter;stroke-width:0.8;"/>
   </g>
  </g>
 </g>
 <defs>
  <clipPath id="pb13cfe080f">
   <rect height="290.32" width="387.07" x="60.41" y="13.32"/>
  </clipPath>
 </defs>
</g>
    <g transform="translate(10, 300) scale(1) ">
      <g transform="translate(0, 0) scale(3.0) "><defs id="defs831"/>
  <sodipodi:namedview xmlns:sodipodi="http://sodipodi.sourceforge.net/DTD/sodipodi-0.dtd" xmlns:inkscape="http://www.inkscape.org/namespaces/inkscape" id="base" pagecolor="#ffffff" bordercolor="#666666" borderopacity="1.0" inkscape:pageopacity="0.0" inkscape:pageshadow="2" inkscape:zoom="1.979899" inkscape:cx="-12.763683" inkscape:cy="-16.680883" inkscape:document-units="mm" inkscape:current-layer="layer1" showgrid="false" inkscape:window-width="1920" inkscape:window-height="1001" inkscape:window-x="-9" inkscape:window-y="-9" inkscape:window-maximized="1" units="pt"/>
  <metadata xmlns:rdf="http://www.w3.org/1999/02/22-rdf-syntax-ns#" xmlns:cc="http://creativecommons.org/ns#" xmlns:dc="http://purl.org/dc/elements/1.1/" id="metadata834">
    <rdf:RDF>
      <cc:Work rdf:about="">
        <dc:format>image/svg+xml</dc:format>
        <dc:type rdf:resource="http://purl.org/dc/dcmitype/StillImage"/>
        <dc:title/>
      </cc:Work>
    </rdf:RDF>
  </metadata>
  <g xmlns:inkscape="http://www.inkscape.org/namespaces/inkscape" xmlns:sodipodi="http://sodipodi.sourceforge.net/DTD/sodipodi-0.dtd" inkscape:label="Layer 1" inkscape:groupmode="layer" id="layer1" transform="translate(0,-288.81557)">
    <g id="g4761" transform="matrix(0.07377843,0,0,0.07377843,-0.76923022,275.45946)">
      <path inkscape:connector-curvature="0" id="path1959-6-7-1-6-5-4-0-3-2-6-0-3-9-6" style="font-style:normal;font-variant:normal;font-weight:bold;font-stretch:normal;font-size:120.99466705px;line-height:1.25;font-family:Aharoni;-inkscape-font-specification:'Aharoni, Bold';font-variant-ligatures:normal;font-variant-caps:normal;font-variant-numeric:normal;font-feature-settings:normal;text-align:start;letter-spacing:0px;word-spacing:0px;writing-mode:lr-tb;text-anchor:start;fill:#000000;fill-opacity:1;stroke:none;stroke-width:2.37649584" d="M 52.937412,287.55677 H 40.587702 V 265.43005 H 22.776041 v 22.12672 h -12.34982 v -53.17432 h 12.34982 v 20.5296 h 17.811661 v -20.5296 h 12.34971 z"/>
      <path inkscape:connector-curvature="0" id="path1961-2-9-7-9-3-1-6-5-1-5-8-7-8-2" style="font-style:normal;font-variant:normal;font-weight:bold;font-stretch:normal;font-size:120.99466705px;line-height:1.25;font-family:Aharoni;-inkscape-font-specification:'Aharoni, Bold';font-variant-ligatures:normal;font-variant-caps:normal;font-variant-numeric:normal;font-feature-settings:normal;text-align:start;letter-spacing:0px;word-spacing:0px;writing-mode:lr-tb;text-anchor:start;fill:#000000;fill-opacity:1;stroke:none;stroke-width:2.37649584" d="m 69.681125,237.49895 q 0,3.0385 -1.87856,5.1421 -1.84375,2.0647 -4.55721,2.0647 -2.67866,0 -4.55722,-2.1036 -1.84375,-2.1036 -1.84375,-5.1032 0,-2.9996 1.84375,-5.0642 1.87856,-2.1036 4.55722,-2.1036 2.67865,0 4.55721,2.1036 1.87856,2.0646 1.87856,5.0642 z m -0.73057,50.05782 h -11.41048 v -36.15072 h 11.41048 z"/>
      <path inkscape:connector-curvature="0" id="path1963-3-1-2-8-3-6-3-3-3-4-7-6-0-8" style="font-style:normal;font-variant:normal;font-weight:bold;font-stretch:normal;font-size:120.99466705px;line-height:1.25;font-family:Aharoni;-inkscape-font-specification:'Aharoni, Bold';font-variant-ligatures:normal;font-variant-caps:normal;font-variant-numeric:normal;font-feature-settings:normal;text-align:start;letter-spacing:0px;word-spacing:0px;writing-mode:lr-tb;text-anchor:start;fill:#000000;fill-opacity:1;stroke:none;stroke-width:2.37649584" d="m 93.369625,261.92405 h -6.50536 v 25.63272 h -11.4104 v -25.63272 h -3.75712 v -10.518 h 3.75712 v -10.8686 h 11.4104 v 10.8686 h 6.50536 z"/>
      <path id="path1967-3-3-6-2-9-6-2-5-3-0-9-8-2-1" style="font-style:normal;font-variant:normal;font-weight:bold;font-stretch:normal;font-size:120.99466705px;line-height:1.25;font-family:Aharoni;-inkscape-font-specification:'Aharoni, Bold';font-variant-ligatures:normal;font-variant-caps:normal;font-variant-numeric:normal;font-feature-settings:normal;text-align:start;letter-spacing:0px;word-spacing:0px;writing-mode:lr-tb;text-anchor:start;fill:#000000;fill-opacity:1;stroke:none;stroke-width:2.37649584" d="m 160.61447,287.55677 h -12.34971 v -53.17432 h 12.34971 z" inkscape:connector-curvature="0"/>
      <path inkscape:connector-curvature="0" id="path1969-8-0-8-5-3-5-6-6-3-9-8-6-2-0" style="font-style:normal;font-variant:normal;font-weight:bold;font-stretch:normal;font-size:120.99466705px;line-height:1.25;font-family:Aharoni;-inkscape-font-specification:'Aharoni, Bold';font-variant-ligatures:normal;font-variant-caps:normal;font-variant-numeric:normal;font-feature-settings:normal;text-align:start;letter-spacing:0px;word-spacing:0px;writing-mode:lr-tb;text-anchor:start;fill:#000000;fill-opacity:1;stroke:none;stroke-width:2.37649584" d="m 201.6896,284.86883 q -6.05314,2.68794 -11.20172,2.68794 -8.97528,0 -16.07201,-6.42764 -9.04489,-8.21959 -9.04489,-21.42558 0,-13.2448 9.04489,-21.4644 7.09673,-6.4277 16.17636,-6.4277 4.93989,0 11.09737,2.6879 v 16.5561 q -1.73941,-2.3763 -3.54836,-3.5839 -3.30489,-2.2204 -7.09679,-2.2204 -4.8007,0 -8.34907,3.2333 -4.48766,4.0903 -4.48766,11.2191 0,7.0899 4.48766,11.1803 3.54837,3.23328 8.34907,3.23328 3.7919,0 7.09679,-2.22049 1.77415,-1.16869 3.54836,-3.58389 z"/>
      <path inkscape:transform-center-y="-13.656107" inkscape:transform-center-x="-3.9758045" sodipodi:nodetypes="csssssc" inkscape:connector-curvature="0" id="rect815-3-0-9-3-5-6-0-4-03-7-3-7-5-3-2-76-3-8-8-5-3-7-8-0-1-3-7-9-2-8-1" d="m 104.61223,181.4353 c 0,0 17.68257,27.27493 22.63096,34.41579 7.92879,11.44185 16.42741,30.36094 17.92806,45.50275 1.21005,12.20999 -1.38345,26.51285 -17.32077,30.11208 -11.70405,2.64313 -26.75007,-5.41371 -30.334975,-20.50903 -3.30533,-13.91816 -2.13088,-34.61412 0.0984,-48.67354 1.22049,-7.69719 5.657305,-36.06774 6.998335,-40.84805 z" style="font-style:normal;font-weight:normal;font-size:242.08590698px;line-height:1.25;font-family:sans-serif;letter-spacing:0px;word-spacing:0px;opacity:1;fill:#00456b;fill-opacity:1;stroke:none;stroke-width:0.6720385;stroke-miterlimit:4;stroke-dasharray:none;stroke-dashoffset:0;stroke-opacity:1;paint-order:markers fill stroke"/>
      <path sodipodi:nodetypes="ccscscsccscccscc" d="m 107.52748,246.32531 6.45576,30.78617 6.82019,-1.47997 c 5.75791,-1.24946 9.70999,-3.40081 11.85576,-6.45394 2.16431,-3.05721 2.68673,-7.25521 1.56721,-12.59398 -1.11209,-5.30332 -3.26743,-8.89247 -6.46601,-10.76744 -3.18372,-1.89669 -7.65528,-2.22015 -13.4127,-0.97081 z m -8.759905,-5.09591 12.713095,-2.78742 c 8.8634,-1.94336 15.73718,-1.59097 20.62135,1.05715 4.88003,2.62843 8.10326,7.71587 9.6697,15.26232 1.57464,7.58584 0.64804,13.61405 -2.77981,18.08462 -3.42783,4.4705 -9.55303,7.67294 -18.37559,9.60735 l -12.71311,2.78742 z" style="font-style:normal;font-weight:normal;font-size:242.08590698px;line-height:1.25;font-family:sans-serif;letter-spacing:0px;word-spacing:0px;fill:#ffffff;fill-opacity:1;stroke:none;stroke-width:1.60286868" id="path1193-3-5-3-2-7-4-5-6-0-0-6-9-2-4-7-0-0" inkscape:connector-curvature="0"/>
    </g>
  </g>
</g>
    </g>
  </g>
</svg>
