<?xml version='1.0' encoding='ASCII' standalone='yes'?>
<svg xmlns:xlink="http://www.w3.org/1999/xlink" xmlns="http://www.w3.org/2000/svg" version="1.1" width="460.8px" viewBox="0 0 460.8px 345.6px" height="345.6px">
  <g>
    <g><defs>
  <style type="text/css">
*{stroke-linecap:butt;stroke-linejoin:round;}
  </style>
 </defs>
 <g id="figure_1">
  <g id="patch_1">
   <path d="M 0 345.6  L 460.8 345.6  L 460.8 0  L 0 0  z " style="fill:#ffffff;"/>
  </g>
  <g id="axes_1">
   <g id="patch_2">
    <path d="M 62.21 300.76  L 447.48 300.76  L 447.48 13.32  L 62.21 13.32  z " style="fill:#ffffff;"/>
   </g>
   <g id="matplotlib.axis_1">
    <g id="xtick_1">
     <g id="line2d_1">
      <defs>
       <path d="M 0 0  L 0 3.5  " id="md949f6d969" style="stroke:#000000;stroke-width:0.8;"/>
      </defs>
      <g>
       <use style="stroke:#000000;stroke-width:0.8;" x="62.21" xlink:href="#md949f6d969" y="300.76"/>
      </g>
     </g>
     <g id="text_1">
      <!-- 0 -->
      <defs>
       <path d="M 31.78125 66.40625  Q 24.171875 66.40625 20.328125 58.90625  Q 16.5 51.421875 16.5 36.375  Q 16.5 21.390625 20.328125 13.890625  Q 24.171875 6.390625 31.78125 6.390625  Q 39.453125 6.390625 43.28125 13.890625  Q 47.125 21.390625 47.125 36.375  Q 47.125 51.421875 43.28125 58.90625  Q 39.453125 66.40625 31.78125 66.40625  z M 31.78125 74.21875  Q 44.046875 74.21875 50.515625 64.515625  Q 56.984375 54.828125 56.984375 36.375  Q 56.984375 17.96875 50.515625 8.265625  Q 44.046875 -1.421875 31.78125 -1.421875  Q 19.53125 -1.421875 13.0625 8.265625  Q 6.59375 17.96875 6.59375 36.375  Q 6.59375 54.828125 13.0625 64.515625  Q 19.53125 74.21875 31.78125 74.21875  z " id="DejaVuSans-30"/>
      </defs>
      <g transform="translate(59.02875 315.358437)scale(0.1 -0.1)">
       <use xlink:href="#DejaVuSans-30"/>
      </g>
     </g>
    </g>
    <g id="xtick_2">
     <g id="line2d_2">
      <g>
       <use style="stroke:#000000;stroke-width:0.8;" x="107.568754" xlink:href="#md949f6d969" y="300.76"/>
      </g>
     </g>
     <g id="text_2">
      <!-- 200 -->
      <defs>
       <path d="M 19.1875 8.296875  L 53.609375 8.296875  L 53.609375 0  L 7.328125 0  L 7.328125 8.296875  Q 12.9375 14.109375 22.625 23.890625  Q 32.328125 33.6875 34.8125 36.53125  Q 39.546875 41.84375 41.421875 45.53125  Q 43.3125 49.21875 43.3125 52.78125  Q 43.3125 58.59375 39.234375 62.25  Q 35.15625 65.921875 28.609375 65.921875  Q 23.96875 65.921875 18.8125 64.3125  Q 13.671875 62.703125 7.8125 59.421875  L 7.8125 69.390625  Q 13.765625 71.78125 18.9375 73  Q 24.125 74.21875 28.421875 74.21875  Q 39.75 74.21875 46.484375 68.546875  Q 53.21875 62.890625 53.21875 53.421875  Q 53.21875 48.921875 51.53125 44.890625  Q 49.859375 40.875 45.40625 35.40625  Q 44.1875 33.984375 37.640625 27.21875  Q 31.109375 20.453125 19.1875 8.296875  z " id="DejaVuSans-32"/>
      </defs>
      <g transform="translate(98.025004 315.358437)scale(0.1 -0.1)">
       <use xlink:href="#DejaVuSans-32"/>
       <use x="63.623047" xlink:href="#DejaVuSans-30"/>
       <use x="127.246094" xlink:href="#DejaVuSans-30"/>
      </g>
     </g>
    </g>
    <g id="xtick_3">
     <g id="line2d_3">
      <g>
       <use style="stroke:#000000;stroke-width:0.8;" x="152.927508" xlink:href="#md949f6d969" y="300.76"/>
      </g>
     </g>
     <g id="text_3">
      <!-- 400 -->
      <defs>
       <path d="M 37.796875 64.3125  L 12.890625 25.390625  L 37.796875 25.390625  z M 35.203125 72.90625  L 47.609375 72.90625  L 47.609375 25.390625  L 58.015625 25.390625  L 58.015625 17.1875  L 47.609375 17.1875  L 47.609375 0  L 37.796875 0  L 37.796875 17.1875  L 4.890625 17.1875  L 4.890625 26.703125  z " id="DejaVuSans-34"/>
      </defs>
      <g transform="translate(143.383758 315.358437)scale(0.1 -0.1)">
       <use xlink:href="#DejaVuSans-34"/>
       <use x="63.623047" xlink:href="#DejaVuSans-30"/>
       <use x="127.246094" xlink:href="#DejaVuSans-30"/>
      </g>
     </g>
    </g>
    <g id="xtick_4">
     <g id="line2d_4">
      <g>
       <use style="stroke:#000000;stroke-width:0.8;" x="198.286262" xlink:href="#md949f6d969" y="300.76"/>
      </g>
     </g>
     <g id="text_4">
      <!-- 600 -->
      <defs>
       <path d="M 33.015625 40.375  Q 26.375 40.375 22.484375 35.828125  Q 18.609375 31.296875 18.609375 23.390625  Q 18.609375 15.53125 22.484375 10.953125  Q 26.375 6.390625 33.015625 6.390625  Q 39.65625 6.390625 43.53125 10.953125  Q 47.40625 15.53125 47.40625 23.390625  Q 47.40625 31.296875 43.53125 35.828125  Q 39.65625 40.375 33.015625 40.375  z M 52.59375 71.296875  L 52.59375 62.3125  Q 48.875 64.0625 45.09375 64.984375  Q 41.3125 65.921875 37.59375 65.921875  Q 27.828125 65.921875 22.671875 59.328125  Q 17.53125 52.734375 16.796875 39.40625  Q 19.671875 43.65625 24.015625 45.921875  Q 28.375 48.1875 33.59375 48.1875  Q 44.578125 48.1875 50.953125 41.515625  Q 57.328125 34.859375 57.328125 23.390625  Q 57.328125 12.15625 50.6875 5.359375  Q 44.046875 -1.421875 33.015625 -1.421875  Q 20.359375 -1.421875 13.671875 8.265625  Q 6.984375 17.96875 6.984375 36.375  Q 6.984375 53.65625 15.1875 63.9375  Q 23.390625 74.21875 37.203125 74.21875  Q 40.921875 74.21875 44.703125 73.484375  Q 48.484375 72.75 52.59375 71.296875  z " id="DejaVuSans-36"/>
      </defs>
      <g transform="translate(188.742512 315.358437)scale(0.1 -0.1)">
       <use xlink:href="#DejaVuSans-36"/>
       <use x="63.623047" xlink:href="#DejaVuSans-30"/>
       <use x="127.246094" xlink:href="#DejaVuSans-30"/>
      </g>
     </g>
    </g>
    <g id="xtick_5">
     <g id="line2d_5">
      <g>
       <use style="stroke:#000000;stroke-width:0.8;" x="243.645016" xlink:href="#md949f6d969" y="300.76"/>
      </g>
     </g>
     <g id="text_5">
      <!-- 800 -->
      <defs>
       <path d="M 31.78125 34.625  Q 24.75 34.625 20.71875 30.859375  Q 16.703125 27.09375 16.703125 20.515625  Q 16.703125 13.921875 20.71875 10.15625  Q 24.75 6.390625 31.78125 6.390625  Q 38.8125 6.390625 42.859375 10.171875  Q 46.921875 13.96875 46.921875 20.515625  Q 46.921875 27.09375 42.890625 30.859375  Q 38.875 34.625 31.78125 34.625  z M 21.921875 38.8125  Q 15.578125 40.375 12.03125 44.71875  Q 8.5 49.078125 8.5 55.328125  Q 8.5 64.0625 14.71875 69.140625  Q 20.953125 74.21875 31.78125 74.21875  Q 42.671875 74.21875 48.875 69.140625  Q 55.078125 64.0625 55.078125 55.328125  Q 55.078125 49.078125 51.53125 44.71875  Q 48 40.375 41.703125 38.8125  Q 48.828125 37.15625 52.796875 32.3125  Q 56.78125 27.484375 56.78125 20.515625  Q 56.78125 9.90625 50.3125 4.234375  Q 43.84375 -1.421875 31.78125 -1.421875  Q 19.734375 -1.421875 13.25 4.234375  Q 6.78125 9.90625 6.78125 20.515625  Q 6.78125 27.484375 10.78125 32.3125  Q 14.796875 37.15625 21.921875 38.8125  z M 18.3125 54.390625  Q 18.3125 48.734375 21.84375 45.5625  Q 25.390625 42.390625 31.78125 42.390625  Q 38.140625 42.390625 41.71875 45.5625  Q 45.3125 48.734375 45.3125 54.390625  Q 45.3125 60.0625 41.71875 63.234375  Q 38.140625 66.40625 31.78125 66.40625  Q 25.390625 66.40625 21.84375 63.234375  Q 18.3125 60.0625 18.3125 54.390625  z " id="DejaVuSans-38"/>
      </defs>
      <g transform="translate(234.101266 315.358437)scale(0.1 -0.1)">
       <use xlink:href="#DejaVuSans-38"/>
       <use x="63.623047" xlink:href="#DejaVuSans-30"/>
       <use x="127.246094" xlink:href="#DejaVuSans-30"/>
      </g>
     </g>
    </g>
    <g id="xtick_6">
     <g id="line2d_6">
      <g>
       <use style="stroke:#000000;stroke-width:0.8;" x="289.003771" xlink:href="#md949f6d969" y="300.76"/>
      </g>
     </g>
     <g id="text_6">
      <!-- 1000 -->
      <defs>
       <path d="M 12.40625 8.296875  L 28.515625 8.296875  L 28.515625 63.921875  L 10.984375 60.40625  L 10.984375 69.390625  L 28.421875 72.90625  L 38.28125 72.90625  L 38.28125 8.296875  L 54.390625 8.296875  L 54.390625 0  L 12.40625 0  z " id="DejaVuSans-31"/>
      </defs>
      <g transform="translate(276.278771 315.358437)scale(0.1 -0.1)">
       <use xlink:href="#DejaVuSans-31"/>
       <use x="63.623047" xlink:href="#DejaVuSans-30"/>
       <use x="127.246094" xlink:href="#DejaVuSans-30"/>
       <use x="190.869141" xlink:href="#DejaVuSans-30"/>
      </g>
     </g>
    </g>
    <g id="xtick_7">
     <g id="line2d_7">
      <g>
       <use style="stroke:#000000;stroke-width:0.8;" x="334.362525" xlink:href="#md949f6d969" y="300.76"/>
      </g>
     </g>
     <g id="text_7">
      <!-- 1200 -->
      <g transform="translate(321.637525 315.358437)scale(0.1 -0.1)">
       <use xlink:href="#DejaVuSans-31"/>
       <use x="63.623047" xlink:href="#DejaVuSans-32"/>
       <use x="127.246094" xlink:href="#DejaVuSans-30"/>
       <use x="190.869141" xlink:href="#DejaVuSans-30"/>
      </g>
     </g>
    </g>
    <g id="xtick_8">
     <g id="line2d_8">
      <g>
       <use style="stroke:#000000;stroke-width:0.8;" x="379.721279" xlink:href="#md949f6d969" y="300.76"/>
      </g>
     </g>
     <g id="text_8">
      <!-- 1400 -->
      <g transform="translate(366.996279 315.358437)scale(0.1 -0.1)">
       <use xlink:href="#DejaVuSans-31"/>
       <use x="63.623047" xlink:href="#DejaVuSans-34"/>
       <use x="127.246094" xlink:href="#DejaVuSans-30"/>
       <use x="190.869141" xlink:href="#DejaVuSans-30"/>
      </g>
     </g>
    </g>
    <g id="xtick_9">
     <g id="line2d_9">
      <g>
       <use style="stroke:#000000;stroke-width:0.8;" x="425.080033" xlink:href="#md949f6d969" y="300.76"/>
      </g>
     </g>
     <g id="text_9">
      <!-- 1600 -->
      <g transform="translate(412.355033 315.358437)scale(0.1 -0.1)">
       <use xlink:href="#DejaVuSans-31"/>
       <use x="63.623047" xlink:href="#DejaVuSans-36"/>
       <use x="127.246094" xlink:href="#DejaVuSans-30"/>
       <use x="190.869141" xlink:href="#DejaVuSans-30"/>
      </g>
     </g>
    </g>
    <g id="text_10">
     <!-- Distance ($\mu$m) -->
     <defs>
      <path d="M 19.671875 64.796875  L 19.671875 8.109375  L 31.59375 8.109375  Q 46.6875 8.109375 53.6875 14.9375  Q 60.6875 21.78125 60.6875 36.53125  Q 60.6875 51.171875 53.6875 57.984375  Q 46.6875 64.796875 31.59375 64.796875  z M 9.8125 72.90625  L 30.078125 72.90625  Q 51.265625 72.90625 61.171875 64.09375  Q 71.09375 55.28125 71.09375 36.53125  Q 71.09375 17.671875 61.125 8.828125  Q 51.171875 0 30.078125 0  L 9.8125 0  z " id="DejaVuSans-44"/>
      <path d="M 9.421875 54.6875  L 18.40625 54.6875  L 18.40625 0  L 9.421875 0  z M 9.421875 75.984375  L 18.40625 75.984375  L 18.40625 64.59375  L 9.421875 64.59375  z " id="DejaVuSans-69"/>
      <path d="M 44.28125 53.078125  L 44.28125 44.578125  Q 40.484375 46.53125 36.375 47.5  Q 32.28125 48.484375 27.875 48.484375  Q 21.1875 48.484375 17.84375 46.4375  Q 14.5 44.390625 14.5 40.28125  Q 14.5 37.15625 16.890625 35.375  Q 19.28125 33.59375 26.515625 31.984375  L 29.59375 31.296875  Q 39.15625 29.25 43.1875 25.515625  Q 47.21875 21.78125 47.21875 15.09375  Q 47.21875 7.46875 41.1875 3.015625  Q 35.15625 -1.421875 24.609375 -1.421875  Q 20.21875 -1.421875 15.453125 -0.5625  Q 10.6875 0.296875 5.421875 2  L 5.421875 11.28125  Q 10.40625 8.6875 15.234375 7.390625  Q 20.0625 6.109375 24.8125 6.109375  Q 31.15625 6.109375 34.5625 8.28125  Q 37.984375 10.453125 37.984375 14.40625  Q 37.984375 18.0625 35.515625 20.015625  Q 33.0625 21.96875 24.703125 23.78125  L 21.578125 24.515625  Q 13.234375 26.265625 9.515625 29.90625  Q 5.8125 33.546875 5.8125 39.890625  Q 5.8125 47.609375 11.28125 51.796875  Q 16.75 56 26.8125 56  Q 31.78125 56 36.171875 55.265625  Q 40.578125 54.546875 44.28125 53.078125  z " id="DejaVuSans-73"/>
      <path d="M 18.3125 70.21875  L 18.3125 54.6875  L 36.8125 54.6875  L 36.8125 47.703125  L 18.3125 47.703125  L 18.3125 18.015625  Q 18.3125 11.328125 20.140625 9.421875  Q 21.96875 7.515625 27.59375 7.515625  L 36.8125 7.515625  L 36.8125 0  L 27.59375 0  Q 17.1875 0 13.234375 3.875  Q 9.28125 7.765625 9.28125 18.015625  L 9.28125 47.703125  L 2.6875 47.703125  L 2.6875 54.6875  L 9.28125 54.6875  L 9.28125 70.21875  z " id="DejaVuSans-74"/>
      <path d="M 34.28125 27.484375  Q 23.390625 27.484375 19.1875 25  Q 14.984375 22.515625 14.984375 16.5  Q 14.984375 11.71875 18.140625 8.90625  Q 21.296875 6.109375 26.703125 6.109375  Q 34.1875 6.109375 38.703125 11.40625  Q 43.21875 16.703125 43.21875 25.484375  L 43.21875 27.484375  z M 52.203125 31.203125  L 52.203125 0  L 43.21875 0  L 43.21875 8.296875  Q 40.140625 3.328125 35.546875 0.953125  Q 30.953125 -1.421875 24.3125 -1.421875  Q 15.921875 -1.421875 10.953125 3.296875  Q 6 8.015625 6 15.921875  Q 6 25.140625 12.171875 29.828125  Q 18.359375 34.515625 30.609375 34.515625  L 43.21875 34.515625  L 43.21875 35.40625  Q 43.21875 41.609375 39.140625 45  Q 35.0625 48.390625 27.6875 48.390625  Q 23 48.390625 18.546875 47.265625  Q 14.109375 46.140625 10.015625 43.890625  L 10.015625 52.203125  Q 14.9375 54.109375 19.578125 55.046875  Q 24.21875 56 28.609375 56  Q 40.484375 56 46.34375 49.84375  Q 52.203125 43.703125 52.203125 31.203125  z " id="DejaVuSans-61"/>
      <path d="M 54.890625 33.015625  L 54.890625 0  L 45.90625 0  L 45.90625 32.71875  Q 45.90625 40.484375 42.875 44.328125  Q 39.84375 48.1875 33.796875 48.1875  Q 26.515625 48.1875 22.3125 43.546875  Q 18.109375 38.921875 18.109375 30.90625  L 18.109375 0  L 9.078125 0  L 9.078125 54.6875  L 18.109375 54.6875  L 18.109375 46.1875  Q 21.34375 51.125 25.703125 53.5625  Q 30.078125 56 35.796875 56  Q 45.21875 56 50.046875 50.171875  Q 54.890625 44.34375 54.890625 33.015625  z " id="DejaVuSans-6e"/>
      <path d="M 48.78125 52.59375  L 48.78125 44.1875  Q 44.96875 46.296875 41.140625 47.34375  Q 37.3125 48.390625 33.40625 48.390625  Q 24.65625 48.390625 19.8125 42.84375  Q 14.984375 37.3125 14.984375 27.296875  Q 14.984375 17.28125 19.8125 11.734375  Q 24.65625 6.203125 33.40625 6.203125  Q 37.3125 6.203125 41.140625 7.25  Q 44.96875 8.296875 48.78125 10.40625  L 48.78125 2.09375  Q 45.015625 0.34375 40.984375 -0.53125  Q 36.96875 -1.421875 32.421875 -1.421875  Q 20.0625 -1.421875 12.78125 6.34375  Q 5.515625 14.109375 5.515625 27.296875  Q 5.515625 40.671875 12.859375 48.328125  Q 20.21875 56 33.015625 56  Q 37.15625 56 41.109375 55.140625  Q 45.0625 54.296875 48.78125 52.59375  z " id="DejaVuSans-63"/>
      <path d="M 56.203125 29.59375  L 56.203125 25.203125  L 14.890625 25.203125  Q 15.484375 15.921875 20.484375 11.0625  Q 25.484375 6.203125 34.421875 6.203125  Q 39.59375 6.203125 44.453125 7.46875  Q 49.3125 8.734375 54.109375 11.28125  L 54.109375 2.78125  Q 49.265625 0.734375 44.1875 -0.34375  Q 39.109375 -1.421875 33.890625 -1.421875  Q 20.796875 -1.421875 13.15625 6.1875  Q 5.515625 13.8125 5.515625 26.8125  Q 5.515625 40.234375 12.765625 48.109375  Q 20.015625 56 32.328125 56  Q 43.359375 56 49.78125 48.890625  Q 56.203125 41.796875 56.203125 29.59375  z M 47.21875 32.234375  Q 47.125 39.59375 43.09375 43.984375  Q 39.0625 48.390625 32.421875 48.390625  Q 24.90625 48.390625 20.390625 44.140625  Q 15.875 39.890625 15.1875 32.171875  z " id="DejaVuSans-65"/>
      <path id="DejaVuSans-20"/>
      <path d="M 31 75.875  Q 24.46875 64.65625 21.28125 53.65625  Q 18.109375 42.671875 18.109375 31.390625  Q 18.109375 20.125 21.3125 9.0625  Q 24.515625 -2 31 -13.1875  L 23.1875 -13.1875  Q 15.875 -1.703125 12.234375 9.375  Q 8.59375 20.453125 8.59375 31.390625  Q 8.59375 42.28125 12.203125 53.3125  Q 15.828125 64.359375 23.1875 75.875  z " id="DejaVuSans-28"/>
      <path d="M -1.3125 -20.796875  L 13.375 54.6875  L 22.40625 54.6875  L 15.765625 20.65625  Q 15.578125 19.625 15.421875 18.359375  Q 15.28125 17.09375 15.28125 15.828125  Q 15.28125 11.28125 18.140625 8.828125  Q 21 6.390625 26.3125 6.390625  Q 33.546875 6.390625 37.984375 10.484375  Q 42.4375 14.59375 44 22.796875  L 50.203125 54.6875  L 59.1875 54.6875  L 51.03125 12.640625  Q 50.828125 11.71875 50.75 11.03125  Q 50.6875 10.359375 50.6875 9.8125  Q 50.6875 8.296875 51.296875 7.59375  Q 51.90625 6.890625 53.21875 6.890625  Q 53.71875 6.890625 54.5625 7.125  Q 55.421875 7.375 56.984375 8.015625  L 55.609375 0.78125  Q 53.46875 -0.296875 51.515625 -0.859375  Q 49.5625 -1.421875 47.703125 -1.421875  Q 44.484375 -1.421875 42.65625 0.625  Q 40.828125 2.6875 40.828125 6.296875  Q 38.09375 2.390625 34.296875 0.484375  Q 30.515625 -1.421875 25.390625 -1.421875  Q 20.84375 -1.421875 17.453125 0.671875  Q 14.0625 2.78125 12.984375 6.203125  L 7.71875 -20.796875  z " id="DejaVuSans-Oblique-3bc"/>
      <path d="M 52 44.1875  Q 55.375 50.25 60.0625 53.125  Q 64.75 56 71.09375 56  Q 79.640625 56 84.28125 50.015625  Q 88.921875 44.046875 88.921875 33.015625  L 88.921875 0  L 79.890625 0  L 79.890625 32.71875  Q 79.890625 40.578125 77.09375 44.375  Q 74.3125 48.1875 68.609375 48.1875  Q 61.625 48.1875 57.5625 43.546875  Q 53.515625 38.921875 53.515625 30.90625  L 53.515625 0  L 44.484375 0  L 44.484375 32.71875  Q 44.484375 40.625 41.703125 44.40625  Q 38.921875 48.1875 33.109375 48.1875  Q 26.21875 48.1875 22.15625 43.53125  Q 18.109375 38.875 18.109375 30.90625  L 18.109375 0  L 9.078125 0  L 9.078125 54.6875  L 18.109375 54.6875  L 18.109375 46.1875  Q 21.1875 51.21875 25.484375 53.609375  Q 29.78125 56 35.6875 56  Q 41.65625 56 45.828125 52.96875  Q 50 49.953125 52 44.1875  z " id="DejaVuSans-6d"/>
      <path d="M 8.015625 75.875  L 15.828125 75.875  Q 23.140625 64.359375 26.78125 53.3125  Q 30.421875 42.28125 30.421875 31.390625  Q 30.421875 20.453125 26.78125 9.375  Q 23.140625 -1.703125 15.828125 -13.1875  L 8.015625 -13.1875  Q 14.5 -2 17.703125 9.0625  Q 20.90625 20.125 20.90625 31.390625  Q 20.90625 42.671875 17.703125 53.65625  Q 14.5 64.65625 8.015625 75.875  z " id="DejaVuSans-29"/>
     </defs>
     <g transform="translate(219.395 329.038125)scale(0.1 -0.1)">
      <use transform="translate(0 0.015625)" xlink:href="#DejaVuSans-44"/>
      <use transform="translate(77.001953 0.015625)" xlink:href="#DejaVuSans-69"/>
      <use transform="translate(104.785156 0.015625)" xlink:href="#DejaVuSans-73"/>
      <use transform="translate(156.884766 0.015625)" xlink:href="#DejaVuSans-74"/>
      <use transform="translate(196.09375 0.015625)" xlink:href="#DejaVuSans-61"/>
      <use transform="translate(257.373047 0.015625)" xlink:href="#DejaVuSans-6e"/>
      <use transform="translate(320.751953 0.015625)" xlink:href="#DejaVuSans-63"/>
      <use transform="translate(375.732422 0.015625)" xlink:href="#DejaVuSans-65"/>
      <use transform="translate(437.255859 0.015625)" xlink:href="#DejaVuSans-20"/>
      <use transform="translate(469.042969 0.015625)" xlink:href="#DejaVuSans-28"/>
      <use transform="translate(508.056641 0.015625)" xlink:href="#DejaVuSans-Oblique-3bc"/>
      <use transform="translate(571.679688 0.015625)" xlink:href="#DejaVuSans-6d"/>
      <use transform="translate(669.091797 0.015625)" xlink:href="#DejaVuSans-29"/>
     </g>
    </g>
   </g>
   <g id="matplotlib.axis_2">
    <g id="ytick_1">
     <g id="line2d_10">
      <defs>
       <path d="M 0 0  L -3.5 0  " id="m3ad60499d9" style="stroke:#000000;stroke-width:0.8;"/>
      </defs>
      <g>
       <use style="stroke:#000000;stroke-width:0.8;" x="62.21" xlink:href="#m3ad60499d9" y="281.781791"/>
      </g>
     </g>
     <g id="text_11">
      <!-- &#8722;150 -->
      <defs>
       <path d="M 10.59375 35.5  L 73.1875 35.5  L 73.1875 27.203125  L 10.59375 27.203125  z " id="DejaVuSans-2212"/>
       <path d="M 10.796875 72.90625  L 49.515625 72.90625  L 49.515625 64.59375  L 19.828125 64.59375  L 19.828125 46.734375  Q 21.96875 47.46875 24.109375 47.828125  Q 26.265625 48.1875 28.421875 48.1875  Q 40.625 48.1875 47.75 41.5  Q 54.890625 34.8125 54.890625 23.390625  Q 54.890625 11.625 47.5625 5.09375  Q 40.234375 -1.421875 26.90625 -1.421875  Q 22.3125 -1.421875 17.546875 -0.640625  Q 12.796875 0.140625 7.71875 1.703125  L 7.71875 11.625  Q 12.109375 9.234375 16.796875 8.0625  Q 21.484375 6.890625 26.703125 6.890625  Q 35.15625 6.890625 40.078125 11.328125  Q 45.015625 15.765625 45.015625 23.390625  Q 45.015625 31 40.078125 35.4375  Q 35.15625 39.890625 26.703125 39.890625  Q 22.75 39.890625 18.8125 39.015625  Q 14.890625 38.140625 10.796875 36.28125  z " id="DejaVuSans-35"/>
      </defs>
      <g transform="translate(27.742813 285.58101)scale(0.1 -0.1)">
       <use xlink:href="#DejaVuSans-2212"/>
       <use x="83.789062" xlink:href="#DejaVuSans-31"/>
       <use x="147.412109" xlink:href="#DejaVuSans-35"/>
       <use x="211.035156" xlink:href="#DejaVuSans-30"/>
      </g>
     </g>
    </g>
    <g id="ytick_2">
     <g id="line2d_11">
      <g>
       <use style="stroke:#000000;stroke-width:0.8;" x="62.21" xlink:href="#m3ad60499d9" y="235.216143"/>
      </g>
     </g>
     <g id="text_12">
      <!-- &#8722;100 -->
      <g transform="translate(27.742813 239.015362)scale(0.1 -0.1)">
       <use xlink:href="#DejaVuSans-2212"/>
       <use x="83.789062" xlink:href="#DejaVuSans-31"/>
       <use x="147.412109" xlink:href="#DejaVuSans-30"/>
       <use x="211.035156" xlink:href="#DejaVuSans-30"/>
      </g>
     </g>
    </g>
    <g id="ytick_3">
     <g id="line2d_12">
      <g>
       <use style="stroke:#000000;stroke-width:0.8;" x="62.21" xlink:href="#m3ad60499d9" y="188.650495"/>
      </g>
     </g>
     <g id="text_13">
      <!-- &#8722;50 -->
      <g transform="translate(34.105313 192.449713)scale(0.1 -0.1)">
       <use xlink:href="#DejaVuSans-2212"/>
       <use x="83.789062" xlink:href="#DejaVuSans-35"/>
       <use x="147.412109" xlink:href="#DejaVuSans-30"/>
      </g>
     </g>
    </g>
    <g id="ytick_4">
     <g id="line2d_13">
      <g>
       <use style="stroke:#000000;stroke-width:0.8;" x="62.21" xlink:href="#m3ad60499d9" y="142.084846"/>
      </g>
     </g>
     <g id="text_14">
      <!-- 0 -->
      <g transform="translate(48.8475 145.884065)scale(0.1 -0.1)">
       <use xlink:href="#DejaVuSans-30"/>
      </g>
     </g>
    </g>
    <g id="ytick_5">
     <g id="line2d_14">
      <g>
       <use style="stroke:#000000;stroke-width:0.8;" x="62.21" xlink:href="#m3ad60499d9" y="95.519198"/>
      </g>
     </g>
     <g id="text_15">
      <!-- 50 -->
      <g transform="translate(42.485 99.318417)scale(0.1 -0.1)">
       <use xlink:href="#DejaVuSans-35"/>
       <use x="63.623047" xlink:href="#DejaVuSans-30"/>
      </g>
     </g>
    </g>
    <g id="ytick_6">
     <g id="line2d_15">
      <g>
       <use style="stroke:#000000;stroke-width:0.8;" x="62.21" xlink:href="#m3ad60499d9" y="48.95355"/>
      </g>
     </g>
     <g id="text_16">
      <!-- 100 -->
      <g transform="translate(36.1225 52.752769)scale(0.1 -0.1)">
       <use xlink:href="#DejaVuSans-31"/>
       <use x="63.623047" xlink:href="#DejaVuSans-30"/>
       <use x="127.246094" xlink:href="#DejaVuSans-30"/>
      </g>
     </g>
    </g>
    <g id="text_17">
     <!-- Slope, at. / $\mu m$ -->
     <defs>
      <path d="M 53.515625 70.515625  L 53.515625 60.890625  Q 47.90625 63.578125 42.921875 64.890625  Q 37.9375 66.21875 33.296875 66.21875  Q 25.25 66.21875 20.875 63.09375  Q 16.5 59.96875 16.5 54.203125  Q 16.5 49.359375 19.40625 46.890625  Q 22.3125 44.4375 30.421875 42.921875  L 36.375 41.703125  Q 47.40625 39.59375 52.65625 34.296875  Q 57.90625 29 57.90625 20.125  Q 57.90625 9.515625 50.796875 4.046875  Q 43.703125 -1.421875 29.984375 -1.421875  Q 24.8125 -1.421875 18.96875 -0.25  Q 13.140625 0.921875 6.890625 3.21875  L 6.890625 13.375  Q 12.890625 10.015625 18.65625 8.296875  Q 24.421875 6.59375 29.984375 6.59375  Q 38.421875 6.59375 43.015625 9.90625  Q 47.609375 13.234375 47.609375 19.390625  Q 47.609375 24.75 44.3125 27.78125  Q 41.015625 30.8125 33.5 32.328125  L 27.484375 33.5  Q 16.453125 35.6875 11.515625 40.375  Q 6.59375 45.0625 6.59375 53.421875  Q 6.59375 63.09375 13.40625 68.65625  Q 20.21875 74.21875 32.171875 74.21875  Q 37.3125 74.21875 42.625 73.28125  Q 47.953125 72.359375 53.515625 70.515625  z " id="DejaVuSans-53"/>
      <path d="M 9.421875 75.984375  L 18.40625 75.984375  L 18.40625 0  L 9.421875 0  z " id="DejaVuSans-6c"/>
      <path d="M 30.609375 48.390625  Q 23.390625 48.390625 19.1875 42.75  Q 14.984375 37.109375 14.984375 27.296875  Q 14.984375 17.484375 19.15625 11.84375  Q 23.34375 6.203125 30.609375 6.203125  Q 37.796875 6.203125 41.984375 11.859375  Q 46.1875 17.53125 46.1875 27.296875  Q 46.1875 37.015625 41.984375 42.703125  Q 37.796875 48.390625 30.609375 48.390625  z M 30.609375 56  Q 42.328125 56 49.015625 48.375  Q 55.71875 40.765625 55.71875 27.296875  Q 55.71875 13.875 49.015625 6.21875  Q 42.328125 -1.421875 30.609375 -1.421875  Q 18.84375 -1.421875 12.171875 6.21875  Q 5.515625 13.875 5.515625 27.296875  Q 5.515625 40.765625 12.171875 48.375  Q 18.84375 56 30.609375 56  z " id="DejaVuSans-6f"/>
      <path d="M 18.109375 8.203125  L 18.109375 -20.796875  L 9.078125 -20.796875  L 9.078125 54.6875  L 18.109375 54.6875  L 18.109375 46.390625  Q 20.953125 51.265625 25.265625 53.625  Q 29.59375 56 35.59375 56  Q 45.5625 56 51.78125 48.09375  Q 58.015625 40.1875 58.015625 27.296875  Q 58.015625 14.40625 51.78125 6.484375  Q 45.5625 -1.421875 35.59375 -1.421875  Q 29.59375 -1.421875 25.265625 0.953125  Q 20.953125 3.328125 18.109375 8.203125  z M 48.6875 27.296875  Q 48.6875 37.203125 44.609375 42.84375  Q 40.53125 48.484375 33.40625 48.484375  Q 26.265625 48.484375 22.1875 42.84375  Q 18.109375 37.203125 18.109375 27.296875  Q 18.109375 17.390625 22.1875 11.75  Q 26.265625 6.109375 33.40625 6.109375  Q 40.53125 6.109375 44.609375 11.75  Q 48.6875 17.390625 48.6875 27.296875  z " id="DejaVuSans-70"/>
      <path d="M 11.71875 12.40625  L 22.015625 12.40625  L 22.015625 4  L 14.015625 -11.625  L 7.71875 -11.625  L 11.71875 4  z " id="DejaVuSans-2c"/>
      <path d="M 10.6875 12.40625  L 21 12.40625  L 21 0  L 10.6875 0  z " id="DejaVuSans-2e"/>
      <path d="M 25.390625 72.90625  L 33.6875 72.90625  L 8.296875 -9.28125  L 0 -9.28125  z " id="DejaVuSans-2f"/>
      <path d="M 89.796875 33.015625  L 83.40625 0  L 74.421875 0  L 80.71875 32.71875  Q 81.109375 34.8125 81.296875 36.328125  Q 81.5 37.84375 81.5 38.921875  Q 81.5 43.3125 79.046875 45.75  Q 76.609375 48.1875 72.21875 48.1875  Q 65.671875 48.1875 60.546875 43.28125  Q 55.421875 38.375 53.90625 30.515625  L 47.90625 0  L 38.921875 0  L 45.3125 32.71875  Q 45.703125 34.515625 45.890625 36.046875  Q 46.09375 37.59375 46.09375 38.8125  Q 46.09375 43.265625 43.65625 45.71875  Q 41.21875 48.1875 36.921875 48.1875  Q 30.28125 48.1875 25.140625 43.28125  Q 20.015625 38.375 18.5 30.515625  L 12.5 0  L 3.515625 0  L 14.203125 54.6875  L 23.1875 54.6875  L 21.484375 46.1875  Q 25.140625 50.984375 30.046875 53.484375  Q 34.96875 56 40.578125 56  Q 46.53125 56 50.359375 52.875  Q 54.203125 49.75 54.984375 44.1875  Q 59.078125 49.953125 64.46875 52.96875  Q 69.875 56 75.875 56  Q 82.90625 56 86.734375 51.953125  Q 90.578125 47.90625 90.578125 40.484375  Q 90.578125 38.875 90.375 36.9375  Q 90.1875 35.015625 89.796875 33.015625  z " id="DejaVuSans-Oblique-6d"/>
     </defs>
     <g transform="translate(21.642813 193.64)rotate(-90)scale(0.1 -0.1)">
      <use transform="translate(0 0.015625)" xlink:href="#DejaVuSans-53"/>
      <use transform="translate(63.476562 0.015625)" xlink:href="#DejaVuSans-6c"/>
      <use transform="translate(91.259766 0.015625)" xlink:href="#DejaVuSans-6f"/>
      <use transform="translate(152.441406 0.015625)" xlink:href="#DejaVuSans-70"/>
      <use transform="translate(215.917969 0.015625)" xlink:href="#DejaVuSans-65"/>
      <use transform="translate(277.441406 0.015625)" xlink:href="#DejaVuSans-2c"/>
      <use transform="translate(309.228516 0.015625)" xlink:href="#DejaVuSans-20"/>
      <use transform="translate(341.015625 0.015625)" xlink:href="#DejaVuSans-61"/>
      <use transform="translate(402.294922 0.015625)" xlink:href="#DejaVuSans-74"/>
      <use transform="translate(441.503906 0.015625)" xlink:href="#DejaVuSans-2e"/>
      <use transform="translate(473.291016 0.015625)" xlink:href="#DejaVuSans-20"/>
      <use transform="translate(505.078125 0.015625)" xlink:href="#DejaVuSans-2f"/>
      <use transform="translate(538.769531 0.015625)" xlink:href="#DejaVuSans-20"/>
      <use transform="translate(570.556641 0.015625)" xlink:href="#DejaVuSans-Oblique-3bc"/>
      <use transform="translate(634.179688 0.015625)" xlink:href="#DejaVuSans-Oblique-6d"/>
     </g>
    </g>
   </g>
   <g id="line2d_16">
    <defs>
     <path d="M -0 3  L 3 -3  L -3 -3  z " id="mcfefd6d65f" style="stroke:#e74c3c;stroke-linejoin:miter;"/>
    </defs>
    <g clip-path="url(#p6f2f3f4c90)">
     <use style="fill:#e74c3c;stroke:#e74c3c;stroke-linejoin:miter;" x="62.21" xlink:href="#mcfefd6d65f" y="140.909876"/>
     <use style="fill:#e74c3c;stroke:#e74c3c;stroke-linejoin:miter;" x="91.466396" xlink:href="#mcfefd6d65f" y="140.909876"/>
     <use style="fill:#e74c3c;stroke:#e74c3c;stroke-linejoin:miter;" x="101.218529" xlink:href="#mcfefd6d65f" y="147.055459"/>
     <use style="fill:#e74c3c;stroke:#e74c3c;stroke-linejoin:miter;" x="110.970661" xlink:href="#mcfefd6d65f" y="140.189733"/>
     <use style="fill:#e74c3c;stroke:#e74c3c;stroke-linejoin:miter;" x="120.722793" xlink:href="#mcfefd6d65f" y="131.152665"/>
     <use style="fill:#e74c3c;stroke:#e74c3c;stroke-linejoin:miter;" x="125.712256" xlink:href="#mcfefd6d65f" y="142.323089"/>
     <use style="fill:#e74c3c;stroke:#e74c3c;stroke-linejoin:miter;" x="130.474925" xlink:href="#mcfefd6d65f" y="135.955508"/>
     <use style="fill:#e74c3c;stroke:#e74c3c;stroke-linejoin:miter;" x="135.464388" xlink:href="#mcfefd6d65f" y="129.977778"/>
     <use style="fill:#e74c3c;stroke:#e74c3c;stroke-linejoin:miter;" x="140.227057" xlink:href="#mcfefd6d65f" y="130.763573"/>
     <use style="fill:#e74c3c;stroke:#e74c3c;stroke-linejoin:miter;" x="149.979189" xlink:href="#mcfefd6d65f" y="120.249139"/>
     <use style="fill:#e74c3c;stroke:#e74c3c;stroke-linejoin:miter;" x="154.968652" xlink:href="#mcfefd6d65f" y="120.92455"/>
     <use style="fill:#e74c3c;stroke:#e74c3c;stroke-linejoin:miter;" x="159.731321" xlink:href="#mcfefd6d65f" y="107.821193"/>
     <use style="fill:#e74c3c;stroke:#e74c3c;stroke-linejoin:miter;" x="164.720784" xlink:href="#mcfefd6d65f" y="104.290867"/>
     <use style="fill:#e74c3c;stroke:#e74c3c;stroke-linejoin:miter;" x="169.483453" xlink:href="#mcfefd6d65f" y="92.205457"/>
     <use style="fill:#e74c3c;stroke:#e74c3c;stroke-linejoin:miter;" x="174.472916" xlink:href="#mcfefd6d65f" y="52.180658"/>
     <use style="fill:#e74c3c;stroke:#e74c3c;stroke-linejoin:miter;" x="179.235586" xlink:href="#mcfefd6d65f" y="47.589068"/>
     <use style="fill:#e74c3c;stroke:#e74c3c;stroke-linejoin:miter;" x="184.225049" xlink:href="#mcfefd6d65f" y="68.619415"/>
     <use style="fill:#e74c3c;stroke:#e74c3c;stroke-linejoin:miter;" x="188.987718" xlink:href="#mcfefd6d65f" y="43.647232"/>
     <use style="fill:#e74c3c;stroke:#e74c3c;stroke-linejoin:miter;" x="193.977181" xlink:href="#mcfefd6d65f" y="26.385455"/>
     <use style="fill:#e74c3c;stroke:#e74c3c;stroke-linejoin:miter;" x="198.73985" xlink:href="#mcfefd6d65f" y="118.607096"/>
     <use style="fill:#e74c3c;stroke:#e74c3c;stroke-linejoin:miter;" x="203.729313" xlink:href="#mcfefd6d65f" y="91.923897"/>
     <use style="fill:#e74c3c;stroke:#e74c3c;stroke-linejoin:miter;" x="208.491982" xlink:href="#mcfefd6d65f" y="29.764171"/>
     <use style="fill:#e74c3c;stroke:#e74c3c;stroke-linejoin:miter;" x="213.481445" xlink:href="#mcfefd6d65f" y="49.430036"/>
     <use style="fill:#e74c3c;stroke:#e74c3c;stroke-linejoin:miter;" x="218.244114" xlink:href="#mcfefd6d65f" y="59.501211"/>
     <use style="fill:#e74c3c;stroke:#e74c3c;stroke-linejoin:miter;" x="223.233577" xlink:href="#mcfefd6d65f" y="94.652861"/>
     <use style="fill:#e74c3c;stroke:#e74c3c;stroke-linejoin:miter;" x="227.996246" xlink:href="#mcfefd6d65f" y="78.798882"/>
     <use style="fill:#e74c3c;stroke:#e74c3c;stroke-linejoin:miter;" x="232.985709" xlink:href="#mcfefd6d65f" y="37.257992"/>
     <use style="fill:#e74c3c;stroke:#e74c3c;stroke-linejoin:miter;" x="237.748378" xlink:href="#mcfefd6d65f" y="101.237027"/>
     <use style="fill:#e74c3c;stroke:#e74c3c;stroke-linejoin:miter;" x="242.737841" xlink:href="#mcfefd6d65f" y="28.39969"/>
     <use style="fill:#e74c3c;stroke:#e74c3c;stroke-linejoin:miter;" x="247.500511" xlink:href="#mcfefd6d65f" y="83.585397"/>
     <use style="fill:#e74c3c;stroke:#e74c3c;stroke-linejoin:miter;" x="252.489973" xlink:href="#mcfefd6d65f" y="171.085499"/>
     <use style="fill:#e74c3c;stroke:#e74c3c;stroke-linejoin:miter;" x="257.252643" xlink:href="#mcfefd6d65f" y="128.396712"/>
     <use style="fill:#e74c3c;stroke:#e74c3c;stroke-linejoin:miter;" x="262.242106" xlink:href="#mcfefd6d65f" y="124.303266"/>
     <use style="fill:#e74c3c;stroke:#e74c3c;stroke-linejoin:miter;" x="267.004775" xlink:href="#mcfefd6d65f" y="97.988261"/>
     <use style="fill:#e74c3c;stroke:#e74c3c;stroke-linejoin:miter;" x="271.994238" xlink:href="#mcfefd6d65f" y="92.703601"/>
     <use style="fill:#e74c3c;stroke:#e74c3c;stroke-linejoin:miter;" x="276.756907" xlink:href="#mcfefd6d65f" y="143.470987"/>
     <use style="fill:#e74c3c;stroke:#e74c3c;stroke-linejoin:miter;" x="281.74637" xlink:href="#mcfefd6d65f" y="164.847868"/>
     <use style="fill:#e74c3c;stroke:#e74c3c;stroke-linejoin:miter;" x="286.509039" xlink:href="#mcfefd6d65f" y="74.272268"/>
     <use style="fill:#e74c3c;stroke:#e74c3c;stroke-linejoin:miter;" x="291.498502" xlink:href="#mcfefd6d65f" y="133.183227"/>
     <use style="fill:#e74c3c;stroke:#e74c3c;stroke-linejoin:miter;" x="296.261171" xlink:href="#mcfefd6d65f" y="131.298943"/>
     <use style="fill:#e74c3c;stroke:#e74c3c;stroke-linejoin:miter;" x="301.250634" xlink:href="#mcfefd6d65f" y="93.439988"/>
     <use style="fill:#e74c3c;stroke:#e74c3c;stroke-linejoin:miter;" x="306.013303" xlink:href="#mcfefd6d65f" y="165.629602"/>
     <use style="fill:#e74c3c;stroke:#e74c3c;stroke-linejoin:miter;" x="315.765435" xlink:href="#mcfefd6d65f" y="152.200338"/>
     <use style="fill:#e74c3c;stroke:#e74c3c;stroke-linejoin:miter;" x="320.754898" xlink:href="#mcfefd6d65f" y="145.766781"/>
     <use style="fill:#e74c3c;stroke:#e74c3c;stroke-linejoin:miter;" x="325.517568" xlink:href="#mcfefd6d65f" y="138.417802"/>
     <use style="fill:#e74c3c;stroke:#e74c3c;stroke-linejoin:miter;" x="335.2697" xlink:href="#mcfefd6d65f" y="115.506607"/>
     <use style="fill:#e74c3c;stroke:#e74c3c;stroke-linejoin:miter;" x="340.259163" xlink:href="#mcfefd6d65f" y="160.949349"/>
     <use style="fill:#e74c3c;stroke:#e74c3c;stroke-linejoin:miter;" x="345.021832" xlink:href="#mcfefd6d65f" y="139.464175"/>
     <use style="fill:#e74c3c;stroke:#e74c3c;stroke-linejoin:miter;" x="350.011295" xlink:href="#mcfefd6d65f" y="99.677619"/>
     <use style="fill:#e74c3c;stroke:#e74c3c;stroke-linejoin:miter;" x="354.773964" xlink:href="#mcfefd6d65f" y="153.910355"/>
     <use style="fill:#e74c3c;stroke:#e74c3c;stroke-linejoin:miter;" x="359.763427" xlink:href="#mcfefd6d65f" y="193.566961"/>
     <use style="fill:#e74c3c;stroke:#e74c3c;stroke-linejoin:miter;" x="364.526096" xlink:href="#mcfefd6d65f" y="101.150393"/>
     <use style="fill:#e74c3c;stroke:#e74c3c;stroke-linejoin:miter;" x="369.515559" xlink:href="#mcfefd6d65f" y="136.215409"/>
     <use style="fill:#e74c3c;stroke:#e74c3c;stroke-linejoin:miter;" x="374.278228" xlink:href="#mcfefd6d65f" y="151.982754"/>
     <use style="fill:#e74c3c;stroke:#e74c3c;stroke-linejoin:miter;" x="379.267691" xlink:href="#mcfefd6d65f" y="118.823681"/>
     <use style="fill:#e74c3c;stroke:#e74c3c;stroke-linejoin:miter;" x="384.03036" xlink:href="#mcfefd6d65f" y="169.894285"/>
     <use style="fill:#e74c3c;stroke:#e74c3c;stroke-linejoin:miter;" x="389.019823" xlink:href="#mcfefd6d65f" y="160.862715"/>
     <use style="fill:#e74c3c;stroke:#e74c3c;stroke-linejoin:miter;" x="393.782493" xlink:href="#mcfefd6d65f" y="174.875726"/>
     <use style="fill:#e74c3c;stroke:#e74c3c;stroke-linejoin:miter;" x="398.771955" xlink:href="#mcfefd6d65f" y="131.023714"/>
     <use style="fill:#e74c3c;stroke:#e74c3c;stroke-linejoin:miter;" x="408.524088" xlink:href="#mcfefd6d65f" y="126.826475"/>
     <use style="fill:#e74c3c;stroke:#e74c3c;stroke-linejoin:miter;" x="418.27622" xlink:href="#mcfefd6d65f" y="138.543691"/>
     <use style="fill:#e74c3c;stroke:#e74c3c;stroke-linejoin:miter;" x="428.028352" xlink:href="#mcfefd6d65f" y="138.630325"/>
     <use style="fill:#e74c3c;stroke:#e74c3c;stroke-linejoin:miter;" x="437.780484" xlink:href="#mcfefd6d65f" y="151.841974"/>
     <use style="fill:#e74c3c;stroke:#e74c3c;stroke-linejoin:miter;" x="447.532616" xlink:href="#mcfefd6d65f" y="151.841974"/>
    </g>
   </g>
   <g id="line2d_17">
    <defs>
     <path d="M 0 -3  L -0.673542 -0.927051  L -2.85317 -0.927051  L -1.089814 0.354102  L -1.763356 2.427051  L -0 1.145898  L 1.763356 2.427051  L 1.089814 0.354102  L 2.85317 -0.927051  L 0.673542 -0.927051  z " id="m3da46cf98b" style="stroke:#808000;stroke-linejoin:bevel;"/>
    </defs>
    <g clip-path="url(#p6f2f3f4c90)">
     <use style="fill:#808000;stroke:#808000;stroke-linejoin:bevel;" x="62.21" xlink:href="#m3da46cf98b" y="143.00533"/>
     <use style="fill:#808000;stroke:#808000;stroke-linejoin:bevel;" x="91.466396" xlink:href="#m3da46cf98b" y="143.00533"/>
     <use style="fill:#808000;stroke:#808000;stroke-linejoin:bevel;" x="101.218529" xlink:href="#m3da46cf98b" y="142.106505"/>
     <use style="fill:#808000;stroke:#808000;stroke-linejoin:bevel;" x="110.970661" xlink:href="#m3da46cf98b" y="143.893326"/>
     <use style="fill:#808000;stroke:#808000;stroke-linejoin:bevel;" x="120.722793" xlink:href="#m3da46cf98b" y="144.162391"/>
     <use style="fill:#808000;stroke:#808000;stroke-linejoin:bevel;" x="125.712256" xlink:href="#m3da46cf98b" y="140.915291"/>
     <use style="fill:#808000;stroke:#808000;stroke-linejoin:bevel;" x="130.474925" xlink:href="#m3da46cf98b" y="138.294619"/>
     <use style="fill:#808000;stroke:#808000;stroke-linejoin:bevel;" x="135.464388" xlink:href="#m3da46cf98b" y="141.586702"/>
     <use style="fill:#808000;stroke:#808000;stroke-linejoin:bevel;" x="140.227057" xlink:href="#m3da46cf98b" y="141.502776"/>
     <use style="fill:#808000;stroke:#808000;stroke-linejoin:bevel;" x="149.979189" xlink:href="#m3da46cf98b" y="138.73212"/>
     <use style="fill:#808000;stroke:#808000;stroke-linejoin:bevel;" x="154.968652" xlink:href="#m3da46cf98b" y="142.799575"/>
     <use style="fill:#808000;stroke:#808000;stroke-linejoin:bevel;" x="159.731321" xlink:href="#m3da46cf98b" y="137.883109"/>
     <use style="fill:#808000;stroke:#808000;stroke-linejoin:bevel;" x="164.720784" xlink:href="#m3da46cf98b" y="134.266149"/>
     <use style="fill:#808000;stroke:#808000;stroke-linejoin:bevel;" x="169.483453" xlink:href="#m3da46cf98b" y="136.540286"/>
     <use style="fill:#808000;stroke:#808000;stroke-linejoin:bevel;" x="174.472916" xlink:href="#m3da46cf98b" y="128.266761"/>
     <use style="fill:#808000;stroke:#808000;stroke-linejoin:bevel;" x="179.235586" xlink:href="#m3da46cf98b" y="126.858962"/>
     <use style="fill:#808000;stroke:#808000;stroke-linejoin:bevel;" x="184.225049" xlink:href="#m3da46cf98b" y="113.409071"/>
     <use style="fill:#808000;stroke:#808000;stroke-linejoin:bevel;" x="188.987718" xlink:href="#m3da46cf98b" y="111.243226"/>
     <use style="fill:#808000;stroke:#808000;stroke-linejoin:bevel;" x="193.977181" xlink:href="#m3da46cf98b" y="112.174539"/>
     <use style="fill:#808000;stroke:#808000;stroke-linejoin:bevel;" x="198.73985" xlink:href="#m3da46cf98b" y="90.364489"/>
     <use style="fill:#808000;stroke:#808000;stroke-linejoin:bevel;" x="203.729313" xlink:href="#m3da46cf98b" y="94.133058"/>
     <use style="fill:#808000;stroke:#808000;stroke-linejoin:bevel;" x="208.491982" xlink:href="#m3da46cf98b" y="126.46911"/>
     <use style="fill:#808000;stroke:#808000;stroke-linejoin:bevel;" x="213.481445" xlink:href="#m3da46cf98b" y="125.472822"/>
     <use style="fill:#808000;stroke:#808000;stroke-linejoin:bevel;" x="218.244114" xlink:href="#m3da46cf98b" y="106.110176"/>
     <use style="fill:#808000;stroke:#808000;stroke-linejoin:bevel;" x="223.233577" xlink:href="#m3da46cf98b" y="122.787176"/>
     <use style="fill:#808000;stroke:#808000;stroke-linejoin:bevel;" x="227.996246" xlink:href="#m3da46cf98b" y="121.33606"/>
     <use style="fill:#808000;stroke:#808000;stroke-linejoin:bevel;" x="232.985709" xlink:href="#m3da46cf98b" y="120.599673"/>
     <use style="fill:#808000;stroke:#808000;stroke-linejoin:bevel;" x="237.748378" xlink:href="#m3da46cf98b" y="143.276061"/>
     <use style="fill:#808000;stroke:#808000;stroke-linejoin:bevel;" x="242.737841" xlink:href="#m3da46cf98b" y="154.841668"/>
     <use style="fill:#808000;stroke:#808000;stroke-linejoin:bevel;" x="247.500511" xlink:href="#m3da46cf98b" y="125.386188"/>
     <use style="fill:#808000;stroke:#808000;stroke-linejoin:bevel;" x="252.489973" xlink:href="#m3da46cf98b" y="108.362654"/>
     <use style="fill:#808000;stroke:#808000;stroke-linejoin:bevel;" x="257.252643" xlink:href="#m3da46cf98b" y="129.609584"/>
     <use style="fill:#808000;stroke:#808000;stroke-linejoin:bevel;" x="262.242106" xlink:href="#m3da46cf98b" y="137.384965"/>
     <use style="fill:#808000;stroke:#808000;stroke-linejoin:bevel;" x="267.004775" xlink:href="#m3da46cf98b" y="138.944373"/>
     <use style="fill:#808000;stroke:#808000;stroke-linejoin:bevel;" x="271.994238" xlink:href="#m3da46cf98b" y="139.420858"/>
     <use style="fill:#808000;stroke:#808000;stroke-linejoin:bevel;" x="276.756907" xlink:href="#m3da46cf98b" y="148.950572"/>
     <use style="fill:#808000;stroke:#808000;stroke-linejoin:bevel;" x="281.74637" xlink:href="#m3da46cf98b" y="140.287196"/>
     <use style="fill:#808000;stroke:#808000;stroke-linejoin:bevel;" x="286.509039" xlink:href="#m3da46cf98b" y="121.574303"/>
     <use style="fill:#808000;stroke:#808000;stroke-linejoin:bevel;" x="291.498502" xlink:href="#m3da46cf98b" y="142.86455"/>
     <use style="fill:#808000;stroke:#808000;stroke-linejoin:bevel;" x="296.261171" xlink:href="#m3da46cf98b" y="147.564432"/>
     <use style="fill:#808000;stroke:#808000;stroke-linejoin:bevel;" x="301.250634" xlink:href="#m3da46cf98b" y="135.890532"/>
     <use style="fill:#808000;stroke:#808000;stroke-linejoin:bevel;" x="306.013303" xlink:href="#m3da46cf98b" y="144.223956"/>
     <use style="fill:#808000;stroke:#808000;stroke-linejoin:bevel;" x="315.765435" xlink:href="#m3da46cf98b" y="147.414822"/>
     <use style="fill:#808000;stroke:#808000;stroke-linejoin:bevel;" x="320.754898" xlink:href="#m3da46cf98b" y="159.931402"/>
     <use style="fill:#808000;stroke:#808000;stroke-linejoin:bevel;" x="325.517568" xlink:href="#m3da46cf98b" y="151.907288"/>
     <use style="fill:#808000;stroke:#808000;stroke-linejoin:bevel;" x="335.2697" xlink:href="#m3da46cf98b" y="123.343964"/>
     <use style="fill:#808000;stroke:#808000;stroke-linejoin:bevel;" x="340.259163" xlink:href="#m3da46cf98b" y="130.021095"/>
     <use style="fill:#808000;stroke:#808000;stroke-linejoin:bevel;" x="345.021832" xlink:href="#m3da46cf98b" y="152.740799"/>
     <use style="fill:#808000;stroke:#808000;stroke-linejoin:bevel;" x="350.011295" xlink:href="#m3da46cf98b" y="141.153534"/>
     <use style="fill:#808000;stroke:#808000;stroke-linejoin:bevel;" x="354.773964" xlink:href="#m3da46cf98b" y="148.625696"/>
     <use style="fill:#808000;stroke:#808000;stroke-linejoin:bevel;" x="359.763427" xlink:href="#m3da46cf98b" y="140.048953"/>
     <use style="fill:#808000;stroke:#808000;stroke-linejoin:bevel;" x="364.526096" xlink:href="#m3da46cf98b" y="133.42147"/>
     <use style="fill:#808000;stroke:#808000;stroke-linejoin:bevel;" x="369.515559" xlink:href="#m3da46cf98b" y="143.730888"/>
     <use style="fill:#808000;stroke:#808000;stroke-linejoin:bevel;" x="374.278228" xlink:href="#m3da46cf98b" y="154.386841"/>
     <use style="fill:#808000;stroke:#808000;stroke-linejoin:bevel;" x="379.267691" xlink:href="#m3da46cf98b" y="140.633731"/>
     <use style="fill:#808000;stroke:#808000;stroke-linejoin:bevel;" x="384.03036" xlink:href="#m3da46cf98b" y="139.724076"/>
     <use style="fill:#808000;stroke:#808000;stroke-linejoin:bevel;" x="389.019823" xlink:href="#m3da46cf98b" y="151.636219"/>
     <use style="fill:#808000;stroke:#808000;stroke-linejoin:bevel;" x="393.782493" xlink:href="#m3da46cf98b" y="154.191915"/>
     <use style="fill:#808000;stroke:#808000;stroke-linejoin:bevel;" x="398.771955" xlink:href="#m3da46cf98b" y="140.652057"/>
     <use style="fill:#808000;stroke:#808000;stroke-linejoin:bevel;" x="408.524088" xlink:href="#m3da46cf98b" y="138.110523"/>
     <use style="fill:#808000;stroke:#808000;stroke-linejoin:bevel;" x="418.27622" xlink:href="#m3da46cf98b" y="145.246979"/>
     <use style="fill:#808000;stroke:#808000;stroke-linejoin:bevel;" x="428.028352" xlink:href="#m3da46cf98b" y="141.954896"/>
     <use style="fill:#808000;stroke:#808000;stroke-linejoin:bevel;" x="437.780484" xlink:href="#m3da46cf98b" y="132.955814"/>
     <use style="fill:#808000;stroke:#808000;stroke-linejoin:bevel;" x="447.532616" xlink:href="#m3da46cf98b" y="132.955814"/>
    </g>
   </g>
   <g id="line2d_18">
    <defs>
     <path d="M 0 3  C 0.795609 3 1.55874 2.683901 2.12132 2.12132  C 2.683901 1.55874 3 0.795609 3 0  C 3 -0.795609 2.683901 -1.55874 2.12132 -2.12132  C 1.55874 -2.683901 0.795609 -3 0 -3  C -0.795609 -3 -1.55874 -2.683901 -2.12132 -2.12132  C -2.683901 -1.55874 -3 -0.795609 -3 0  C -3 0.795609 -2.683901 1.55874 -2.12132 2.12132  C -1.55874 2.683901 -0.795609 3 0 3  z " id="m328da71d25" style="stroke:#008080;"/>
    </defs>
    <g clip-path="url(#p6f2f3f4c90)">
     <use style="fill:#008080;stroke:#008080;" x="62.21" xlink:href="#m328da71d25" y="142.339333"/>
     <use style="fill:#008080;stroke:#008080;" x="91.466396" xlink:href="#m328da71d25" y="142.339333"/>
     <use style="fill:#008080;stroke:#008080;" x="101.218529" xlink:href="#m328da71d25" y="137.092576"/>
     <use style="fill:#008080;stroke:#008080;" x="110.970661" xlink:href="#m328da71d25" y="142.17148"/>
     <use style="fill:#008080;stroke:#008080;" x="120.722793" xlink:href="#m328da71d25" y="150.939484"/>
     <use style="fill:#008080;stroke:#008080;" x="125.712256" xlink:href="#m328da71d25" y="143.016159"/>
     <use style="fill:#008080;stroke:#008080;" x="130.474925" xlink:href="#m328da71d25" y="152.004412"/>
     <use style="fill:#008080;stroke:#008080;" x="135.464388" xlink:href="#m328da71d25" y="154.690059"/>
     <use style="fill:#008080;stroke:#008080;" x="140.227057" xlink:href="#m328da71d25" y="153.98819"/>
     <use style="fill:#008080;stroke:#008080;" x="149.979189" xlink:href="#m328da71d25" y="167.27328"/>
     <use style="fill:#008080;stroke:#008080;" x="154.968652" xlink:href="#m328da71d25" y="162.530415"/>
     <use style="fill:#008080;stroke:#008080;" x="159.731321" xlink:href="#m328da71d25" y="180.550238"/>
     <use style="fill:#008080;stroke:#008080;" x="164.720784" xlink:href="#m328da71d25" y="187.697523"/>
     <use style="fill:#008080;stroke:#008080;" x="169.483453" xlink:href="#m328da71d25" y="197.508797"/>
     <use style="fill:#008080;stroke:#008080;" x="174.472916" xlink:href="#m328da71d25" y="245.807121"/>
     <use style="fill:#008080;stroke:#008080;" x="179.235586" xlink:href="#m328da71d25" y="251.806509"/>
     <use style="fill:#008080;stroke:#008080;" x="184.225049" xlink:href="#m328da71d25" y="244.226054"/>
     <use style="fill:#008080;stroke:#008080;" x="188.987718" xlink:href="#m328da71d25" y="271.364081"/>
     <use style="fill:#008080;stroke:#008080;" x="193.977181" xlink:href="#m328da71d25" y="287.694545"/>
     <use style="fill:#008080;stroke:#008080;" x="198.73985" xlink:href="#m328da71d25" y="217.282954"/>
     <use style="fill:#008080;stroke:#008080;" x="203.729313" xlink:href="#m328da71d25" y="240.197584"/>
     <use style="fill:#008080;stroke:#008080;" x="208.491982" xlink:href="#m328da71d25" y="270.021258"/>
     <use style="fill:#008080;stroke:#008080;" x="213.481445" xlink:href="#m328da71d25" y="251.351681"/>
     <use style="fill:#008080;stroke:#008080;" x="218.244114" xlink:href="#m328da71d25" y="260.643153"/>
     <use style="fill:#008080;stroke:#008080;" x="223.233577" xlink:href="#m328da71d25" y="208.814503"/>
     <use style="fill:#008080;stroke:#008080;" x="227.996246" xlink:href="#m328da71d25" y="226.119598"/>
     <use style="fill:#008080;stroke:#008080;" x="232.985709" xlink:href="#m328da71d25" y="268.396875"/>
     <use style="fill:#008080;stroke:#008080;" x="237.748378" xlink:href="#m328da71d25" y="181.741452"/>
     <use style="fill:#008080;stroke:#008080;" x="242.737841" xlink:href="#m328da71d25" y="243.013182"/>
     <use style="fill:#008080;stroke:#008080;" x="247.500511" xlink:href="#m328da71d25" y="217.282954"/>
     <use style="fill:#008080;stroke:#008080;" x="252.489973" xlink:href="#m328da71d25" y="146.806387"/>
     <use style="fill:#008080;stroke:#008080;" x="257.252643" xlink:href="#m328da71d25" y="168.248243"/>
     <use style="fill:#008080;stroke:#008080;" x="262.242106" xlink:href="#m328da71d25" y="164.566308"/>
     <use style="fill:#008080;stroke:#008080;" x="267.004775" xlink:href="#m328da71d25" y="189.321906"/>
     <use style="fill:#008080;stroke:#008080;" x="271.994238" xlink:href="#m328da71d25" y="194.13008"/>
     <use style="fill:#008080;stroke:#008080;" x="276.756907" xlink:href="#m328da71d25" y="133.83298"/>
     <use style="fill:#008080;stroke:#008080;" x="281.74637" xlink:href="#m328da71d25" y="121.119476"/>
     <use style="fill:#008080;stroke:#008080;" x="286.509039" xlink:href="#m328da71d25" y="230.407969"/>
     <use style="fill:#008080;stroke:#008080;" x="291.498502" xlink:href="#m328da71d25" y="150.206762"/>
     <use style="fill:#008080;stroke:#008080;" x="296.261171" xlink:href="#m328da71d25" y="147.391165"/>
     <use style="fill:#008080;stroke:#008080;" x="301.250634" xlink:href="#m328da71d25" y="196.924019"/>
     <use style="fill:#008080;stroke:#008080;" x="306.013303" xlink:href="#m328da71d25" y="116.400981"/>
     <use style="fill:#008080;stroke:#008080;" x="315.765435" xlink:href="#m328da71d25" y="126.639379"/>
     <use style="fill:#008080;stroke:#008080;" x="320.754898" xlink:href="#m328da71d25" y="120.556356"/>
     <use style="fill:#008080;stroke:#008080;" x="325.517568" xlink:href="#m328da71d25" y="135.92945"/>
     <use style="fill:#008080;stroke:#008080;" x="335.2697" xlink:href="#m328da71d25" y="187.403968"/>
     <use style="fill:#008080;stroke:#008080;" x="340.259163" xlink:href="#m328da71d25" y="135.284096"/>
     <use style="fill:#008080;stroke:#008080;" x="345.021832" xlink:href="#m328da71d25" y="134.049565"/>
     <use style="fill:#008080;stroke:#008080;" x="350.011295" xlink:href="#m328da71d25" y="185.423387"/>
     <use style="fill:#008080;stroke:#008080;" x="354.773964" xlink:href="#m328da71d25" y="123.718488"/>
     <use style="fill:#008080;stroke:#008080;" x="359.763427" xlink:href="#m328da71d25" y="92.638626"/>
     <use style="fill:#008080;stroke:#008080;" x="364.526096" xlink:href="#m328da71d25" y="191.682676"/>
     <use style="fill:#008080;stroke:#008080;" x="369.515559" xlink:href="#m328da71d25" y="146.308242"/>
     <use style="fill:#008080;stroke:#008080;" x="374.278228" xlink:href="#m328da71d25" y="119.884944"/>
     <use style="fill:#008080;stroke:#008080;" x="379.267691" xlink:href="#m328da71d25" y="166.797128"/>
     <use style="fill:#008080;stroke:#008080;" x="384.03036" xlink:href="#m328da71d25" y="116.636178"/>
     <use style="fill:#008080;stroke:#008080;" x="389.019823" xlink:href="#m328da71d25" y="113.755606"/>
     <use style="fill:#008080;stroke:#008080;" x="393.782493" xlink:href="#m328da71d25" y="97.186898"/>
     <use style="fill:#008080;stroke:#008080;" x="398.771955" xlink:href="#m328da71d25" y="154.578768"/>
     <use style="fill:#008080;stroke:#008080;" x="408.524088" xlink:href="#m328da71d25" y="161.317542"/>
     <use style="fill:#008080;stroke:#008080;" x="418.27622" xlink:href="#m328da71d25" y="142.463869"/>
     <use style="fill:#008080;stroke:#008080;" x="428.028352" xlink:href="#m328da71d25" y="145.669318"/>
     <use style="fill:#008080;stroke:#008080;" x="437.780484" xlink:href="#m328da71d25" y="141.456752"/>
     <use style="fill:#008080;stroke:#008080;" x="447.532616" xlink:href="#m328da71d25" y="141.456752"/>
    </g>
   </g>
   <g id="line2d_19">
    <path clip-path="url(#p6f2f3f4c90)" d="M 60.705039 142.080117  L 91.406242 141.972058  L 102.241961 141.744408  L 109.465773 141.395155  L 114.883633 140.934155  L 120.301492 140.196243  L 123.913398 139.482592  L 127.525305 138.529105  L 131.137211 137.269191  L 134.749117 135.624288  L 136.55507 134.629855  L 140.166977 132.404538  L 141.521441 131.367065  L 143.327394 129.636225  L 146.036324 126.978604  L 148.745254 123.884275  L 151.454184 120.322077  L 154.163113 116.271673  L 156.872043 111.728024  L 159.580973 106.706063  L 162.289902 101.245077  L 165.901809 93.401159  L 171.9969 79.644874  L 172.899877 77.304689  L 176.963271 68.268341  L 179.672201 62.743927  L 181.929643 58.593165  L 184.187084 54.948592  L 185.993037 52.446387  L 187.79899 50.342308  L 189.604943 48.654924  L 190.959408 47.6686  L 192.313873 46.922146  L 193.668338 46.412882  L 195.022803 46.1354  L 196.377268 46.081826  L 197.731732 46.242134  L 199.424813 46.724404  L 201.005022 47.437077  L 202.810976 48.530695  L 204.616929 49.887561  L 206.648626 51.683606  L 209.131811 54.196034  L 212.066485 57.506402  L 215.904136 62.201722  L 222.902204 71.207982  L 230.690377 81.112634  L 236.108236 87.657832  L 241.074607 93.333771  L 246.040978 98.674513  L 251.00735 103.667369  L 255.522232 107.897814  L 260.037115 111.830312  L 264.551998 115.462719  L 268.841137 118.715222  L 271.550066 120.500644  L 276.064949 123.375152  L 280.579832 125.963405  L 285.094715 128.276315  L 289.609598 130.327543  L 294.12448 132.133012  L 298.639363 133.710343  L 303.154246 135.078256  L 308.572105 136.470437  L 315.34443 137.91735  L 326.180148 139.497226  L 333.403961 140.244764  L 342.433726 140.904519  L 351.463492 141.341913  L 364.105164 141.707718  L 380.358742 141.934419  L 407.448039 142.055577  L 448.984961 142.082684  L 448.984961 142.082684  " style="fill:none;stroke:#e74c3c;stroke-linecap:square;stroke-width:2;"/>
   </g>
   <g id="line2d_20">
    <path clip-path="url(#p6f2f3f4c90)" d="M 60.705039 142.084848  L 143.327394 141.981903  L 150.551207 141.744532  L 155.06609 141.400505  L 158.677996 140.922827  L 161.386926 140.387873  L 164.095855 139.647939  L 166.804785 138.647154  L 169.513715 137.326037  L 171.9969 135.862005  L 173.351365 134.796011  L 175.608807 132.903921  L 177.866248 130.698241  L 180.123689 128.186918  L 182.832619 124.812055  L 185.993037 120.500056  L 193.668338 109.849353  L 195.925779 107.143325  L 197.731732 105.253927  L 199.650558 103.567771  L 201.230767 102.456882  L 202.810976 101.613306  L 204.391185 101.045582  L 205.745649 100.780093  L 207.100114 100.716196  L 208.454579 100.848246  L 210.034788 101.23862  L 211.614997 101.866863  L 213.42095 102.849415  L 215.226903 104.080694  L 217.484345 105.912609  L 220.193274 108.441873  L 223.805181 112.171755  L 233.850795 122.778791  L 237.462701 126.171623  L 240.623119 128.83812  L 243.783537 131.198786  L 246.943955 133.250262  L 250.104373 135.003021  L 253.264791 136.47714  L 256.425209 137.698701  L 259.585627 138.69685  L 263.197533 139.602411  L 267.260928 140.372733  L 271.550066 140.959895  L 276.967926 141.455214  L 283.288762 141.795494  L 292.318527 142.023263  L 306.766152 142.116311  L 369.523023 142.088076  L 448.984961 142.084872  L 448.984961 142.084872  " style="fill:none;stroke:#808000;stroke-linecap:square;stroke-width:2;"/>
   </g>
   <g id="line2d_21">
    <path clip-path="url(#p6f2f3f4c90)" d="M 60.705039 142.089574  L 91.406242 142.1976  L 102.241961 142.42521  L 109.465773 142.77449  L 114.883633 143.235708  L 120.301492 143.974438  L 123.913398 144.689481  L 127.525305 145.645834  L 131.137211 146.911454  L 134.749117 148.56741  L 136.55507 149.570669  L 140.166977 151.822115  L 141.521441 152.874964  L 143.327394 154.636411  L 146.036324 157.354009  L 148.745254 160.540004  L 151.454184 164.240186  L 154.163113 168.495021  L 156.872043 173.336455  L 159.580973 178.784375  L 162.289902 184.842821  L 164.998832 191.496096  L 167.707762 198.704884  L 171.9969 210.74766  L 172.899877 213.812497  L 179.220713 233.400447  L 183.284107 245.697068  L 185.993037 253.308096  L 188.250478 259.082237  L 190.50792 264.191436  L 192.313873 267.715103  L 194.119826 270.677787  L 195.474291 272.504921  L 196.828756 273.97796  L 198.183221 275.087586  L 199.876302 275.95805  L 201.005022 276.217964  L 202.133743 276.225349  L 203.262464 275.985141  L 204.391185 275.504159  L 205.519905 274.790941  L 206.87437 273.64279  L 208.228835 272.194614  L 209.809044 270.155344  L 211.614997 267.409904  L 213.646694 263.863144  L 215.904136 259.453839  L 218.613065 253.668532  L 222.450716 244.89109  L 233.399307 219.494428  L 237.011213 211.773909  L 240.623119 204.585043  L 243.783537 198.766326  L 246.943955 193.395824  L 250.104373 188.465674  L 253.264791 183.957774  L 256.425209 179.847593  L 259.585627 176.107142  L 262.746045 172.707191  L 265.906463 169.61883  L 268.841137 166.910293  L 271.550066 164.794001  L 275.161973 162.115704  L 278.773879 159.718801  L 282.385785 157.575041  L 285.997691 155.659545  L 290.512574 153.552968  L 295.027457 151.731343  L 299.54234 150.161831  L 304.057223 148.815324  L 309.475082 147.457277  L 315.34443 146.218084  L 326.180148 144.646394  L 333.403961 143.905186  L 342.433726 143.251982  L 353.269445 142.752881  L 365.911117 142.42229  L 383.970648 142.205247  L 414.671851 142.103174  L 448.984961 142.086984  L 448.984961 142.086984  " style="fill:none;stroke:#008080;stroke-linecap:square;stroke-width:2;"/>
   </g>
   <g id="patch_3">
    <path d="M 62.21 300.76  L 62.21 13.32  " style="fill:none;stroke:#000000;stroke-linecap:square;stroke-linejoin:miter;stroke-width:0.8;"/>
   </g>
   <g id="patch_4">
    <path d="M 447.48 300.76  L 447.48 13.32  " style="fill:none;stroke:#000000;stroke-linecap:square;stroke-linejoin:miter;stroke-width:0.8;"/>
   </g>
   <g id="patch_5">
    <path d="M 62.21 300.76  L 447.48 300.76  " style="fill:none;stroke:#000000;stroke-linecap:square;stroke-linejoin:miter;stroke-width:0.8;"/>
   </g>
   <g id="patch_6">
    <path d="M 62.21 13.32  L 447.48 13.32  " style="fill:none;stroke:#000000;stroke-linecap:square;stroke-linejoin:miter;stroke-width:0.8;"/>
   </g>
   <g id="legend_1">
    <g id="patch_7">
     <path d="M 69.21 109.38875  L 136.556875 109.38875  Q 138.556875 109.38875 138.556875 107.38875  L 138.556875 20.32  Q 138.556875 18.32 136.556875 18.32  L 69.21 18.32  Q 67.21 18.32 67.21 20.32  L 67.21 107.38875  Q 67.21 109.38875 69.21 109.38875  z " style="fill:#ffffff;opacity:0.8;stroke:#cccccc;stroke-linejoin:miter;"/>
    </g>
    <g id="line2d_22"/>
    <g id="line2d_23">
     <g>
      <use style="fill:#e74c3c;stroke:#e74c3c;stroke-linejoin:miter;" x="81.21" xlink:href="#mcfefd6d65f" y="26.418437"/>
     </g>
    </g>
    <g id="text_18">
     <!-- exp-Sn -->
     <defs>
      <path d="M 54.890625 54.6875  L 35.109375 28.078125  L 55.90625 0  L 45.3125 0  L 29.390625 21.484375  L 13.484375 0  L 2.875 0  L 24.125 28.609375  L 4.6875 54.6875  L 15.28125 54.6875  L 29.78125 35.203125  L 44.28125 54.6875  z " id="DejaVuSans-78"/>
      <path d="M 4.890625 31.390625  L 31.203125 31.390625  L 31.203125 23.390625  L 4.890625 23.390625  z " id="DejaVuSans-2d"/>
     </defs>
     <g transform="translate(99.21 29.918437)scale(0.1 -0.1)">
      <use xlink:href="#DejaVuSans-65"/>
      <use x="61.507812" xlink:href="#DejaVuSans-78"/>
      <use x="120.6875" xlink:href="#DejaVuSans-70"/>
      <use x="184.164062" xlink:href="#DejaVuSans-2d"/>
      <use x="220.248047" xlink:href="#DejaVuSans-53"/>
      <use x="283.724609" xlink:href="#DejaVuSans-6e"/>
     </g>
    </g>
    <g id="line2d_24"/>
    <g id="line2d_25">
     <g>
      <use style="fill:#808000;stroke:#808000;stroke-linejoin:bevel;" x="81.21" xlink:href="#m3da46cf98b" y="41.096563"/>
     </g>
    </g>
    <g id="text_19">
     <!-- exp-Ag -->
     <defs>
      <path d="M 34.1875 63.1875  L 20.796875 26.90625  L 47.609375 26.90625  z M 28.609375 72.90625  L 39.796875 72.90625  L 67.578125 0  L 57.328125 0  L 50.6875 18.703125  L 17.828125 18.703125  L 11.1875 0  L 0.78125 0  z " id="DejaVuSans-41"/>
      <path d="M 45.40625 27.984375  Q 45.40625 37.75 41.375 43.109375  Q 37.359375 48.484375 30.078125 48.484375  Q 22.859375 48.484375 18.828125 43.109375  Q 14.796875 37.75 14.796875 27.984375  Q 14.796875 18.265625 18.828125 12.890625  Q 22.859375 7.515625 30.078125 7.515625  Q 37.359375 7.515625 41.375 12.890625  Q 45.40625 18.265625 45.40625 27.984375  z M 54.390625 6.78125  Q 54.390625 -7.171875 48.1875 -13.984375  Q 42 -20.796875 29.203125 -20.796875  Q 24.46875 -20.796875 20.265625 -20.09375  Q 16.0625 -19.390625 12.109375 -17.921875  L 12.109375 -9.1875  Q 16.0625 -11.328125 19.921875 -12.34375  Q 23.78125 -13.375 27.78125 -13.375  Q 36.625 -13.375 41.015625 -8.765625  Q 45.40625 -4.15625 45.40625 5.171875  L 45.40625 9.625  Q 42.625 4.78125 38.28125 2.390625  Q 33.9375 0 27.875 0  Q 17.828125 0 11.671875 7.65625  Q 5.515625 15.328125 5.515625 27.984375  Q 5.515625 40.671875 11.671875 48.328125  Q 17.828125 56 27.875 56  Q 33.9375 56 38.28125 53.609375  Q 42.625 51.21875 45.40625 46.390625  L 45.40625 54.6875  L 54.390625 54.6875  z " id="DejaVuSans-67"/>
     </defs>
     <g transform="translate(99.21 44.596563)scale(0.1 -0.1)">
      <use xlink:href="#DejaVuSans-65"/>
      <use x="61.507812" xlink:href="#DejaVuSans-78"/>
      <use x="120.6875" xlink:href="#DejaVuSans-70"/>
      <use x="184.164062" xlink:href="#DejaVuSans-2d"/>
      <use x="220.216797" xlink:href="#DejaVuSans-41"/>
      <use x="288.625" xlink:href="#DejaVuSans-67"/>
     </g>
    </g>
    <g id="line2d_26"/>
    <g id="line2d_27">
     <g>
      <use style="fill:#008080;stroke:#008080;" x="81.21" xlink:href="#m328da71d25" y="55.774687"/>
     </g>
    </g>
    <g id="text_20">
     <!-- exp-Cu -->
     <defs>
      <path d="M 64.40625 67.28125  L 64.40625 56.890625  Q 59.421875 61.53125 53.78125 63.8125  Q 48.140625 66.109375 41.796875 66.109375  Q 29.296875 66.109375 22.65625 58.46875  Q 16.015625 50.828125 16.015625 36.375  Q 16.015625 21.96875 22.65625 14.328125  Q 29.296875 6.6875 41.796875 6.6875  Q 48.140625 6.6875 53.78125 8.984375  Q 59.421875 11.28125 64.40625 15.921875  L 64.40625 5.609375  Q 59.234375 2.09375 53.4375 0.328125  Q 47.65625 -1.421875 41.21875 -1.421875  Q 24.65625 -1.421875 15.125 8.703125  Q 5.609375 18.84375 5.609375 36.375  Q 5.609375 53.953125 15.125 64.078125  Q 24.65625 74.21875 41.21875 74.21875  Q 47.75 74.21875 53.53125 72.484375  Q 59.328125 70.75 64.40625 67.28125  z " id="DejaVuSans-43"/>
      <path d="M 8.5 21.578125  L 8.5 54.6875  L 17.484375 54.6875  L 17.484375 21.921875  Q 17.484375 14.15625 20.5 10.265625  Q 23.53125 6.390625 29.59375 6.390625  Q 36.859375 6.390625 41.078125 11.03125  Q 45.3125 15.671875 45.3125 23.6875  L 45.3125 54.6875  L 54.296875 54.6875  L 54.296875 0  L 45.3125 0  L 45.3125 8.40625  Q 42.046875 3.421875 37.71875 1  Q 33.40625 -1.421875 27.6875 -1.421875  Q 18.265625 -1.421875 13.375 4.4375  Q 8.5 10.296875 8.5 21.578125  z M 31.109375 56  z " id="DejaVuSans-75"/>
     </defs>
     <g transform="translate(99.21 59.274687)scale(0.1 -0.1)">
      <use xlink:href="#DejaVuSans-65"/>
      <use x="61.507812" xlink:href="#DejaVuSans-78"/>
      <use x="120.6875" xlink:href="#DejaVuSans-70"/>
      <use x="184.164062" xlink:href="#DejaVuSans-2d"/>
      <use x="220.248047" xlink:href="#DejaVuSans-43"/>
      <use x="290.072266" xlink:href="#DejaVuSans-75"/>
     </g>
    </g>
    <g id="line2d_28">
     <path d="M 71.21 70.452812  L 91.21 70.452812  " style="fill:none;stroke:#e74c3c;stroke-linecap:square;stroke-width:2;"/>
    </g>
    <g id="line2d_29"/>
    <g id="text_21">
     <!-- sim-Sn -->
     <g transform="translate(99.21 73.952812)scale(0.1 -0.1)">
      <use xlink:href="#DejaVuSans-73"/>
      <use x="52.099609" xlink:href="#DejaVuSans-69"/>
      <use x="79.882812" xlink:href="#DejaVuSans-6d"/>
      <use x="177.294922" xlink:href="#DejaVuSans-2d"/>
      <use x="213.378906" xlink:href="#DejaVuSans-53"/>
      <use x="276.855469" xlink:href="#DejaVuSans-6e"/>
     </g>
    </g>
    <g id="line2d_30">
     <path d="M 71.21 85.130938  L 91.21 85.130938  " style="fill:none;stroke:#808000;stroke-linecap:square;stroke-width:2;"/>
    </g>
    <g id="line2d_31"/>
    <g id="text_22">
     <!-- sim-Ag -->
     <g transform="translate(99.21 88.630938)scale(0.1 -0.1)">
      <use xlink:href="#DejaVuSans-73"/>
      <use x="52.099609" xlink:href="#DejaVuSans-69"/>
      <use x="79.882812" xlink:href="#DejaVuSans-6d"/>
      <use x="177.294922" xlink:href="#DejaVuSans-2d"/>
      <use x="213.347656" xlink:href="#DejaVuSans-41"/>
      <use x="281.755859" xlink:href="#DejaVuSans-67"/>
     </g>
    </g>
    <g id="line2d_32">
     <path d="M 71.21 99.809062  L 91.21 99.809062  " style="fill:none;stroke:#008080;stroke-linecap:square;stroke-width:2;"/>
    </g>
    <g id="line2d_33"/>
    <g id="text_23">
     <!-- sim-Cu -->
     <g transform="translate(99.21 103.309062)scale(0.1 -0.1)">
      <use xlink:href="#DejaVuSans-73"/>
      <use x="52.099609" xlink:href="#DejaVuSans-69"/>
      <use x="79.882812" xlink:href="#DejaVuSans-6d"/>
      <use x="177.294922" xlink:href="#DejaVuSans-2d"/>
      <use x="213.378906" xlink:href="#DejaVuSans-43"/>
      <use x="283.203125" xlink:href="#DejaVuSans-75"/>
     </g>
    </g>
   </g>
  </g>
 </g>
 <defs>
  <clipPath id="p6f2f3f4c90">
   <rect height="287.44" width="385.27" x="62.21" y="13.32"/>
  </clipPath>
 </defs>
</g>
    <g transform="translate(10, 300) scale(1) ">
      <g transform="translate(0, 0) scale(3.0) "><defs id="defs831"/>
  <sodipodi:namedview xmlns:sodipodi="http://sodipodi.sourceforge.net/DTD/sodipodi-0.dtd" xmlns:inkscape="http://www.inkscape.org/namespaces/inkscape" id="base" pagecolor="#ffffff" bordercolor="#666666" borderopacity="1.0" inkscape:pageopacity="0.0" inkscape:pageshadow="2" inkscape:zoom="1.979899" inkscape:cx="-12.763683" inkscape:cy="-16.680883" inkscape:document-units="mm" inkscape:current-layer="layer1" showgrid="false" inkscape:window-width="1920" inkscape:window-height="1001" inkscape:window-x="-9" inkscape:window-y="-9" inkscape:window-maximized="1" units="pt"/>
  <metadata xmlns:rdf="http://www.w3.org/1999/02/22-rdf-syntax-ns#" xmlns:cc="http://creativecommons.org/ns#" xmlns:dc="http://purl.org/dc/elements/1.1/" id="metadata834">
    <rdf:RDF>
      <cc:Work rdf:about="">
        <dc:format>image/svg+xml</dc:format>
        <dc:type rdf:resource="http://purl.org/dc/dcmitype/StillImage"/>
        <dc:title/>
      </cc:Work>
    </rdf:RDF>
  </metadata>
  <g xmlns:inkscape="http://www.inkscape.org/namespaces/inkscape" xmlns:sodipodi="http://sodipodi.sourceforge.net/DTD/sodipodi-0.dtd" inkscape:label="Layer 1" inkscape:groupmode="layer" id="layer1" transform="translate(0,-288.81557)">
    <g id="g4761" transform="matrix(0.07377843,0,0,0.07377843,-0.76923022,275.45946)">
      <path inkscape:connector-curvature="0" id="path1959-6-7-1-6-5-4-0-3-2-6-0-3-9-6" style="font-style:normal;font-variant:normal;font-weight:bold;font-stretch:normal;font-size:120.99466705px;line-height:1.25;font-family:Aharoni;-inkscape-font-specification:'Aharoni, Bold';font-variant-ligatures:normal;font-variant-caps:normal;font-variant-numeric:normal;font-feature-settings:normal;text-align:start;letter-spacing:0px;word-spacing:0px;writing-mode:lr-tb;text-anchor:start;fill:#000000;fill-opacity:1;stroke:none;stroke-width:2.37649584" d="M 52.937412,287.55677 H 40.587702 V 265.43005 H 22.776041 v 22.12672 h -12.34982 v -53.17432 h 12.34982 v 20.5296 h 17.811661 v -20.5296 h 12.34971 z"/>
      <path inkscape:connector-curvature="0" id="path1961-2-9-7-9-3-1-6-5-1-5-8-7-8-2" style="font-style:normal;font-variant:normal;font-weight:bold;font-stretch:normal;font-size:120.99466705px;line-height:1.25;font-family:Aharoni;-inkscape-font-specification:'Aharoni, Bold';font-variant-ligatures:normal;font-variant-caps:normal;font-variant-numeric:normal;font-feature-settings:normal;text-align:start;letter-spacing:0px;word-spacing:0px;writing-mode:lr-tb;text-anchor:start;fill:#000000;fill-opacity:1;stroke:none;stroke-width:2.37649584" d="m 69.681125,237.49895 q 0,3.0385 -1.87856,5.1421 -1.84375,2.0647 -4.55721,2.0647 -2.67866,0 -4.55722,-2.1036 -1.84375,-2.1036 -1.84375,-5.1032 0,-2.9996 1.84375,-5.0642 1.87856,-2.1036 4.55722,-2.1036 2.67865,0 4.55721,2.1036 1.87856,2.0646 1.87856,5.0642 z m -0.73057,50.05782 h -11.41048 v -36.15072 h 11.41048 z"/>
      <path inkscape:connector-curvature="0" id="path1963-3-1-2-8-3-6-3-3-3-4-7-6-0-8" style="font-style:normal;font-variant:normal;font-weight:bold;font-stretch:normal;font-size:120.99466705px;line-height:1.25;font-family:Aharoni;-inkscape-font-specification:'Aharoni, Bold';font-variant-ligatures:normal;font-variant-caps:normal;font-variant-numeric:normal;font-feature-settings:normal;text-align:start;letter-spacing:0px;word-spacing:0px;writing-mode:lr-tb;text-anchor:start;fill:#000000;fill-opacity:1;stroke:none;stroke-width:2.37649584" d="m 93.369625,261.92405 h -6.50536 v 25.63272 h -11.4104 v -25.63272 h -3.75712 v -10.518 h 3.75712 v -10.8686 h 11.4104 v 10.8686 h 6.50536 z"/>
      <path id="path1967-3-3-6-2-9-6-2-5-3-0-9-8-2-1" style="font-style:normal;font-variant:normal;font-weight:bold;font-stretch:normal;font-size:120.99466705px;line-height:1.25;font-family:Aharoni;-inkscape-font-specification:'Aharoni, Bold';font-variant-ligatures:normal;font-variant-caps:normal;font-variant-numeric:normal;font-feature-settings:normal;text-align:start;letter-spacing:0px;word-spacing:0px;writing-mode:lr-tb;text-anchor:start;fill:#000000;fill-opacity:1;stroke:none;stroke-width:2.37649584" d="m 160.61447,287.55677 h -12.34971 v -53.17432 h 12.34971 z" inkscape:connector-curvature="0"/>
      <path inkscape:connector-curvature="0" id="path1969-8-0-8-5-3-5-6-6-3-9-8-6-2-0" style="font-style:normal;font-variant:normal;font-weight:bold;font-stretch:normal;font-size:120.99466705px;line-height:1.25;font-family:Aharoni;-inkscape-font-specification:'Aharoni, Bold';font-variant-ligatures:normal;font-variant-caps:normal;font-variant-numeric:normal;font-feature-settings:normal;text-align:start;letter-spacing:0px;word-spacing:0px;writing-mode:lr-tb;text-anchor:start;fill:#000000;fill-opacity:1;stroke:none;stroke-width:2.37649584" d="m 201.6896,284.86883 q -6.05314,2.68794 -11.20172,2.68794 -8.97528,0 -16.07201,-6.42764 -9.04489,-8.21959 -9.04489,-21.42558 0,-13.2448 9.04489,-21.4644 7.09673,-6.4277 16.17636,-6.4277 4.93989,0 11.09737,2.6879 v 16.5561 q -1.73941,-2.3763 -3.54836,-3.5839 -3.30489,-2.2204 -7.09679,-2.2204 -4.8007,0 -8.34907,3.2333 -4.48766,4.0903 -4.48766,11.2191 0,7.0899 4.48766,11.1803 3.54837,3.23328 8.34907,3.23328 3.7919,0 7.09679,-2.22049 1.77415,-1.16869 3.54836,-3.58389 z"/>
      <path inkscape:transform-center-y="-13.656107" inkscape:transform-center-x="-3.9758045" sodipodi:nodetypes="csssssc" inkscape:connector-curvature="0" id="rect815-3-0-9-3-5-6-0-4-03-7-3-7-5-3-2-76-3-8-8-5-3-7-8-0-1-3-7-9-2-8-1" d="m 104.61223,181.4353 c 0,0 17.68257,27.27493 22.63096,34.41579 7.92879,11.44185 16.42741,30.36094 17.92806,45.50275 1.21005,12.20999 -1.38345,26.51285 -17.32077,30.11208 -11.70405,2.64313 -26.75007,-5.41371 -30.334975,-20.50903 -3.30533,-13.91816 -2.13088,-34.61412 0.0984,-48.67354 1.22049,-7.69719 5.657305,-36.06774 6.998335,-40.84805 z" style="font-style:normal;font-weight:normal;font-size:242.08590698px;line-height:1.25;font-family:sans-serif;letter-spacing:0px;word-spacing:0px;opacity:1;fill:#00456b;fill-opacity:1;stroke:none;stroke-width:0.6720385;stroke-miterlimit:4;stroke-dasharray:none;stroke-dashoffset:0;stroke-opacity:1;paint-order:markers fill stroke"/>
      <path sodipodi:nodetypes="ccscscsccscccscc" d="m 107.52748,246.32531 6.45576,30.78617 6.82019,-1.47997 c 5.75791,-1.24946 9.70999,-3.40081 11.85576,-6.45394 2.16431,-3.05721 2.68673,-7.25521 1.56721,-12.59398 -1.11209,-5.30332 -3.26743,-8.89247 -6.46601,-10.76744 -3.18372,-1.89669 -7.65528,-2.22015 -13.4127,-0.97081 z m -8.759905,-5.09591 12.713095,-2.78742 c 8.8634,-1.94336 15.73718,-1.59097 20.62135,1.05715 4.88003,2.62843 8.10326,7.71587 9.6697,15.26232 1.57464,7.58584 0.64804,13.61405 -2.77981,18.08462 -3.42783,4.4705 -9.55303,7.67294 -18.37559,9.60735 l -12.71311,2.78742 z" style="font-style:normal;font-weight:normal;font-size:242.08590698px;line-height:1.25;font-family:sans-serif;letter-spacing:0px;word-spacing:0px;fill:#ffffff;fill-opacity:1;stroke:none;stroke-width:1.60286868" id="path1193-3-5-3-2-7-4-5-6-0-0-6-9-2-4-7-0-0" inkscape:connector-curvature="0"/>
    </g>
  </g>
</g>
    </g>
  </g>
</svg>
