<?xml version='1.0' encoding='ASCII' standalone='yes'?>
<svg xmlns:xlink="http://www.w3.org/1999/xlink" xmlns="http://www.w3.org/2000/svg" version="1.1" width="460.8px" viewBox="0 0 460.8px 345.6px" height="345.6px">
  <g>
    <g><defs>
  <style type="text/css">
*{stroke-linecap:butt;stroke-linejoin:round;}
  </style>
 </defs>
 <g id="figure_1">
  <g id="patch_1">
   <path d="M 0 345.6  L 460.8 345.6  L 460.8 0  L 0 0  z " style="fill:#ffffff;"/>
  </g>
  <g id="axes_1">
   <g id="patch_2">
    <path d="M 63.182 300.76  L 447.48 300.76  L 447.48 13.32  L 63.182 13.32  z " style="fill:#ffffff;"/>
   </g>
   <g id="matplotlib.axis_1">
    <g id="xtick_1">
     <g id="line2d_1">
      <defs>
       <path d="M 0 0  L 0 3.5  " id="m1f27ef627b" style="stroke:#000000;stroke-width:0.8;"/>
      </defs>
      <g>
       <use style="stroke:#000000;stroke-width:0.8;" x="63.182" xlink:href="#m1f27ef627b" y="300.76"/>
      </g>
     </g>
     <g id="text_1">
      <!-- 0 -->
      <defs>
       <path d="M 31.78125 66.40625  Q 24.171875 66.40625 20.328125 58.90625  Q 16.5 51.421875 16.5 36.375  Q 16.5 21.390625 20.328125 13.890625  Q 24.171875 6.390625 31.78125 6.390625  Q 39.453125 6.390625 43.28125 13.890625  Q 47.125 21.390625 47.125 36.375  Q 47.125 51.421875 43.28125 58.90625  Q 39.453125 66.40625 31.78125 66.40625  z M 31.78125 74.21875  Q 44.046875 74.21875 50.515625 64.515625  Q 56.984375 54.828125 56.984375 36.375  Q 56.984375 17.96875 50.515625 8.265625  Q 44.046875 -1.421875 31.78125 -1.421875  Q 19.53125 -1.421875 13.0625 8.265625  Q 6.59375 17.96875 6.59375 36.375  Q 6.59375 54.828125 13.0625 64.515625  Q 19.53125 74.21875 31.78125 74.21875  z " id="DejaVuSans-30"/>
      </defs>
      <g transform="translate(60.00075 315.358437)scale(0.1 -0.1)">
       <use xlink:href="#DejaVuSans-30"/>
      </g>
     </g>
    </g>
    <g id="xtick_2">
     <g id="line2d_2">
      <g>
       <use style="stroke:#000000;stroke-width:0.8;" x="121.216532" xlink:href="#m1f27ef627b" y="300.76"/>
      </g>
     </g>
     <g id="text_2">
      <!-- 200 -->
      <defs>
       <path d="M 19.1875 8.296875  L 53.609375 8.296875  L 53.609375 0  L 7.328125 0  L 7.328125 8.296875  Q 12.9375 14.109375 22.625 23.890625  Q 32.328125 33.6875 34.8125 36.53125  Q 39.546875 41.84375 41.421875 45.53125  Q 43.3125 49.21875 43.3125 52.78125  Q 43.3125 58.59375 39.234375 62.25  Q 35.15625 65.921875 28.609375 65.921875  Q 23.96875 65.921875 18.8125 64.3125  Q 13.671875 62.703125 7.8125 59.421875  L 7.8125 69.390625  Q 13.765625 71.78125 18.9375 73  Q 24.125 74.21875 28.421875 74.21875  Q 39.75 74.21875 46.484375 68.546875  Q 53.21875 62.890625 53.21875 53.421875  Q 53.21875 48.921875 51.53125 44.890625  Q 49.859375 40.875 45.40625 35.40625  Q 44.1875 33.984375 37.640625 27.21875  Q 31.109375 20.453125 19.1875 8.296875  z " id="DejaVuSans-32"/>
      </defs>
      <g transform="translate(111.672782 315.358437)scale(0.1 -0.1)">
       <use xlink:href="#DejaVuSans-32"/>
       <use x="63.623047" xlink:href="#DejaVuSans-30"/>
       <use x="127.246094" xlink:href="#DejaVuSans-30"/>
      </g>
     </g>
    </g>
    <g id="xtick_3">
     <g id="line2d_3">
      <g>
       <use style="stroke:#000000;stroke-width:0.8;" x="179.251065" xlink:href="#m1f27ef627b" y="300.76"/>
      </g>
     </g>
     <g id="text_3">
      <!-- 400 -->
      <defs>
       <path d="M 37.796875 64.3125  L 12.890625 25.390625  L 37.796875 25.390625  z M 35.203125 72.90625  L 47.609375 72.90625  L 47.609375 25.390625  L 58.015625 25.390625  L 58.015625 17.1875  L 47.609375 17.1875  L 47.609375 0  L 37.796875 0  L 37.796875 17.1875  L 4.890625 17.1875  L 4.890625 26.703125  z " id="DejaVuSans-34"/>
      </defs>
      <g transform="translate(169.707315 315.358437)scale(0.1 -0.1)">
       <use xlink:href="#DejaVuSans-34"/>
       <use x="63.623047" xlink:href="#DejaVuSans-30"/>
       <use x="127.246094" xlink:href="#DejaVuSans-30"/>
      </g>
     </g>
    </g>
    <g id="xtick_4">
     <g id="line2d_4">
      <g>
       <use style="stroke:#000000;stroke-width:0.8;" x="237.285597" xlink:href="#m1f27ef627b" y="300.76"/>
      </g>
     </g>
     <g id="text_4">
      <!-- 600 -->
      <defs>
       <path d="M 33.015625 40.375  Q 26.375 40.375 22.484375 35.828125  Q 18.609375 31.296875 18.609375 23.390625  Q 18.609375 15.53125 22.484375 10.953125  Q 26.375 6.390625 33.015625 6.390625  Q 39.65625 6.390625 43.53125 10.953125  Q 47.40625 15.53125 47.40625 23.390625  Q 47.40625 31.296875 43.53125 35.828125  Q 39.65625 40.375 33.015625 40.375  z M 52.59375 71.296875  L 52.59375 62.3125  Q 48.875 64.0625 45.09375 64.984375  Q 41.3125 65.921875 37.59375 65.921875  Q 27.828125 65.921875 22.671875 59.328125  Q 17.53125 52.734375 16.796875 39.40625  Q 19.671875 43.65625 24.015625 45.921875  Q 28.375 48.1875 33.59375 48.1875  Q 44.578125 48.1875 50.953125 41.515625  Q 57.328125 34.859375 57.328125 23.390625  Q 57.328125 12.15625 50.6875 5.359375  Q 44.046875 -1.421875 33.015625 -1.421875  Q 20.359375 -1.421875 13.671875 8.265625  Q 6.984375 17.96875 6.984375 36.375  Q 6.984375 53.65625 15.1875 63.9375  Q 23.390625 74.21875 37.203125 74.21875  Q 40.921875 74.21875 44.703125 73.484375  Q 48.484375 72.75 52.59375 71.296875  z " id="DejaVuSans-36"/>
      </defs>
      <g transform="translate(227.741847 315.358437)scale(0.1 -0.1)">
       <use xlink:href="#DejaVuSans-36"/>
       <use x="63.623047" xlink:href="#DejaVuSans-30"/>
       <use x="127.246094" xlink:href="#DejaVuSans-30"/>
      </g>
     </g>
    </g>
    <g id="xtick_5">
     <g id="line2d_5">
      <g>
       <use style="stroke:#000000;stroke-width:0.8;" x="295.32013" xlink:href="#m1f27ef627b" y="300.76"/>
      </g>
     </g>
     <g id="text_5">
      <!-- 800 -->
      <defs>
       <path d="M 31.78125 34.625  Q 24.75 34.625 20.71875 30.859375  Q 16.703125 27.09375 16.703125 20.515625  Q 16.703125 13.921875 20.71875 10.15625  Q 24.75 6.390625 31.78125 6.390625  Q 38.8125 6.390625 42.859375 10.171875  Q 46.921875 13.96875 46.921875 20.515625  Q 46.921875 27.09375 42.890625 30.859375  Q 38.875 34.625 31.78125 34.625  z M 21.921875 38.8125  Q 15.578125 40.375 12.03125 44.71875  Q 8.5 49.078125 8.5 55.328125  Q 8.5 64.0625 14.71875 69.140625  Q 20.953125 74.21875 31.78125 74.21875  Q 42.671875 74.21875 48.875 69.140625  Q 55.078125 64.0625 55.078125 55.328125  Q 55.078125 49.078125 51.53125 44.71875  Q 48 40.375 41.703125 38.8125  Q 48.828125 37.15625 52.796875 32.3125  Q 56.78125 27.484375 56.78125 20.515625  Q 56.78125 9.90625 50.3125 4.234375  Q 43.84375 -1.421875 31.78125 -1.421875  Q 19.734375 -1.421875 13.25 4.234375  Q 6.78125 9.90625 6.78125 20.515625  Q 6.78125 27.484375 10.78125 32.3125  Q 14.796875 37.15625 21.921875 38.8125  z M 18.3125 54.390625  Q 18.3125 48.734375 21.84375 45.5625  Q 25.390625 42.390625 31.78125 42.390625  Q 38.140625 42.390625 41.71875 45.5625  Q 45.3125 48.734375 45.3125 54.390625  Q 45.3125 60.0625 41.71875 63.234375  Q 38.140625 66.40625 31.78125 66.40625  Q 25.390625 66.40625 21.84375 63.234375  Q 18.3125 60.0625 18.3125 54.390625  z " id="DejaVuSans-38"/>
      </defs>
      <g transform="translate(285.77638 315.358437)scale(0.1 -0.1)">
       <use xlink:href="#DejaVuSans-38"/>
       <use x="63.623047" xlink:href="#DejaVuSans-30"/>
       <use x="127.246094" xlink:href="#DejaVuSans-30"/>
      </g>
     </g>
    </g>
    <g id="xtick_6">
     <g id="line2d_6">
      <g>
       <use style="stroke:#000000;stroke-width:0.8;" x="353.354662" xlink:href="#m1f27ef627b" y="300.76"/>
      </g>
     </g>
     <g id="text_6">
      <!-- 1000 -->
      <defs>
       <path d="M 12.40625 8.296875  L 28.515625 8.296875  L 28.515625 63.921875  L 10.984375 60.40625  L 10.984375 69.390625  L 28.421875 72.90625  L 38.28125 72.90625  L 38.28125 8.296875  L 54.390625 8.296875  L 54.390625 0  L 12.40625 0  z " id="DejaVuSans-31"/>
      </defs>
      <g transform="translate(340.629662 315.358437)scale(0.1 -0.1)">
       <use xlink:href="#DejaVuSans-31"/>
       <use x="63.623047" xlink:href="#DejaVuSans-30"/>
       <use x="127.246094" xlink:href="#DejaVuSans-30"/>
       <use x="190.869141" xlink:href="#DejaVuSans-30"/>
      </g>
     </g>
    </g>
    <g id="xtick_7">
     <g id="line2d_7">
      <g>
       <use style="stroke:#000000;stroke-width:0.8;" x="411.389195" xlink:href="#m1f27ef627b" y="300.76"/>
      </g>
     </g>
     <g id="text_7">
      <!-- 1200 -->
      <g transform="translate(398.664195 315.358437)scale(0.1 -0.1)">
       <use xlink:href="#DejaVuSans-31"/>
       <use x="63.623047" xlink:href="#DejaVuSans-32"/>
       <use x="127.246094" xlink:href="#DejaVuSans-30"/>
       <use x="190.869141" xlink:href="#DejaVuSans-30"/>
      </g>
     </g>
    </g>
    <g id="text_8">
     <!-- Distance ($\mu$m) -->
     <defs>
      <path d="M 19.671875 64.796875  L 19.671875 8.109375  L 31.59375 8.109375  Q 46.6875 8.109375 53.6875 14.9375  Q 60.6875 21.78125 60.6875 36.53125  Q 60.6875 51.171875 53.6875 57.984375  Q 46.6875 64.796875 31.59375 64.796875  z M 9.8125 72.90625  L 30.078125 72.90625  Q 51.265625 72.90625 61.171875 64.09375  Q 71.09375 55.28125 71.09375 36.53125  Q 71.09375 17.671875 61.125 8.828125  Q 51.171875 0 30.078125 0  L 9.8125 0  z " id="DejaVuSans-44"/>
      <path d="M 9.421875 54.6875  L 18.40625 54.6875  L 18.40625 0  L 9.421875 0  z M 9.421875 75.984375  L 18.40625 75.984375  L 18.40625 64.59375  L 9.421875 64.59375  z " id="DejaVuSans-69"/>
      <path d="M 44.28125 53.078125  L 44.28125 44.578125  Q 40.484375 46.53125 36.375 47.5  Q 32.28125 48.484375 27.875 48.484375  Q 21.1875 48.484375 17.84375 46.4375  Q 14.5 44.390625 14.5 40.28125  Q 14.5 37.15625 16.890625 35.375  Q 19.28125 33.59375 26.515625 31.984375  L 29.59375 31.296875  Q 39.15625 29.25 43.1875 25.515625  Q 47.21875 21.78125 47.21875 15.09375  Q 47.21875 7.46875 41.1875 3.015625  Q 35.15625 -1.421875 24.609375 -1.421875  Q 20.21875 -1.421875 15.453125 -0.5625  Q 10.6875 0.296875 5.421875 2  L 5.421875 11.28125  Q 10.40625 8.6875 15.234375 7.390625  Q 20.0625 6.109375 24.8125 6.109375  Q 31.15625 6.109375 34.5625 8.28125  Q 37.984375 10.453125 37.984375 14.40625  Q 37.984375 18.0625 35.515625 20.015625  Q 33.0625 21.96875 24.703125 23.78125  L 21.578125 24.515625  Q 13.234375 26.265625 9.515625 29.90625  Q 5.8125 33.546875 5.8125 39.890625  Q 5.8125 47.609375 11.28125 51.796875  Q 16.75 56 26.8125 56  Q 31.78125 56 36.171875 55.265625  Q 40.578125 54.546875 44.28125 53.078125  z " id="DejaVuSans-73"/>
      <path d="M 18.3125 70.21875  L 18.3125 54.6875  L 36.8125 54.6875  L 36.8125 47.703125  L 18.3125 47.703125  L 18.3125 18.015625  Q 18.3125 11.328125 20.140625 9.421875  Q 21.96875 7.515625 27.59375 7.515625  L 36.8125 7.515625  L 36.8125 0  L 27.59375 0  Q 17.1875 0 13.234375 3.875  Q 9.28125 7.765625 9.28125 18.015625  L 9.28125 47.703125  L 2.6875 47.703125  L 2.6875 54.6875  L 9.28125 54.6875  L 9.28125 70.21875  z " id="DejaVuSans-74"/>
      <path d="M 34.28125 27.484375  Q 23.390625 27.484375 19.1875 25  Q 14.984375 22.515625 14.984375 16.5  Q 14.984375 11.71875 18.140625 8.90625  Q 21.296875 6.109375 26.703125 6.109375  Q 34.1875 6.109375 38.703125 11.40625  Q 43.21875 16.703125 43.21875 25.484375  L 43.21875 27.484375  z M 52.203125 31.203125  L 52.203125 0  L 43.21875 0  L 43.21875 8.296875  Q 40.140625 3.328125 35.546875 0.953125  Q 30.953125 -1.421875 24.3125 -1.421875  Q 15.921875 -1.421875 10.953125 3.296875  Q 6 8.015625 6 15.921875  Q 6 25.140625 12.171875 29.828125  Q 18.359375 34.515625 30.609375 34.515625  L 43.21875 34.515625  L 43.21875 35.40625  Q 43.21875 41.609375 39.140625 45  Q 35.0625 48.390625 27.6875 48.390625  Q 23 48.390625 18.546875 47.265625  Q 14.109375 46.140625 10.015625 43.890625  L 10.015625 52.203125  Q 14.9375 54.109375 19.578125 55.046875  Q 24.21875 56 28.609375 56  Q 40.484375 56 46.34375 49.84375  Q 52.203125 43.703125 52.203125 31.203125  z " id="DejaVuSans-61"/>
      <path d="M 54.890625 33.015625  L 54.890625 0  L 45.90625 0  L 45.90625 32.71875  Q 45.90625 40.484375 42.875 44.328125  Q 39.84375 48.1875 33.796875 48.1875  Q 26.515625 48.1875 22.3125 43.546875  Q 18.109375 38.921875 18.109375 30.90625  L 18.109375 0  L 9.078125 0  L 9.078125 54.6875  L 18.109375 54.6875  L 18.109375 46.1875  Q 21.34375 51.125 25.703125 53.5625  Q 30.078125 56 35.796875 56  Q 45.21875 56 50.046875 50.171875  Q 54.890625 44.34375 54.890625 33.015625  z " id="DejaVuSans-6e"/>
      <path d="M 48.78125 52.59375  L 48.78125 44.1875  Q 44.96875 46.296875 41.140625 47.34375  Q 37.3125 48.390625 33.40625 48.390625  Q 24.65625 48.390625 19.8125 42.84375  Q 14.984375 37.3125 14.984375 27.296875  Q 14.984375 17.28125 19.8125 11.734375  Q 24.65625 6.203125 33.40625 6.203125  Q 37.3125 6.203125 41.140625 7.25  Q 44.96875 8.296875 48.78125 10.40625  L 48.78125 2.09375  Q 45.015625 0.34375 40.984375 -0.53125  Q 36.96875 -1.421875 32.421875 -1.421875  Q 20.0625 -1.421875 12.78125 6.34375  Q 5.515625 14.109375 5.515625 27.296875  Q 5.515625 40.671875 12.859375 48.328125  Q 20.21875 56 33.015625 56  Q 37.15625 56 41.109375 55.140625  Q 45.0625 54.296875 48.78125 52.59375  z " id="DejaVuSans-63"/>
      <path d="M 56.203125 29.59375  L 56.203125 25.203125  L 14.890625 25.203125  Q 15.484375 15.921875 20.484375 11.0625  Q 25.484375 6.203125 34.421875 6.203125  Q 39.59375 6.203125 44.453125 7.46875  Q 49.3125 8.734375 54.109375 11.28125  L 54.109375 2.78125  Q 49.265625 0.734375 44.1875 -0.34375  Q 39.109375 -1.421875 33.890625 -1.421875  Q 20.796875 -1.421875 13.15625 6.1875  Q 5.515625 13.8125 5.515625 26.8125  Q 5.515625 40.234375 12.765625 48.109375  Q 20.015625 56 32.328125 56  Q 43.359375 56 49.78125 48.890625  Q 56.203125 41.796875 56.203125 29.59375  z M 47.21875 32.234375  Q 47.125 39.59375 43.09375 43.984375  Q 39.0625 48.390625 32.421875 48.390625  Q 24.90625 48.390625 20.390625 44.140625  Q 15.875 39.890625 15.1875 32.171875  z " id="DejaVuSans-65"/>
      <path id="DejaVuSans-20"/>
      <path d="M 31 75.875  Q 24.46875 64.65625 21.28125 53.65625  Q 18.109375 42.671875 18.109375 31.390625  Q 18.109375 20.125 21.3125 9.0625  Q 24.515625 -2 31 -13.1875  L 23.1875 -13.1875  Q 15.875 -1.703125 12.234375 9.375  Q 8.59375 20.453125 8.59375 31.390625  Q 8.59375 42.28125 12.203125 53.3125  Q 15.828125 64.359375 23.1875 75.875  z " id="DejaVuSans-28"/>
      <path d="M -1.3125 -20.796875  L 13.375 54.6875  L 22.40625 54.6875  L 15.765625 20.65625  Q 15.578125 19.625 15.421875 18.359375  Q 15.28125 17.09375 15.28125 15.828125  Q 15.28125 11.28125 18.140625 8.828125  Q 21 6.390625 26.3125 6.390625  Q 33.546875 6.390625 37.984375 10.484375  Q 42.4375 14.59375 44 22.796875  L 50.203125 54.6875  L 59.1875 54.6875  L 51.03125 12.640625  Q 50.828125 11.71875 50.75 11.03125  Q 50.6875 10.359375 50.6875 9.8125  Q 50.6875 8.296875 51.296875 7.59375  Q 51.90625 6.890625 53.21875 6.890625  Q 53.71875 6.890625 54.5625 7.125  Q 55.421875 7.375 56.984375 8.015625  L 55.609375 0.78125  Q 53.46875 -0.296875 51.515625 -0.859375  Q 49.5625 -1.421875 47.703125 -1.421875  Q 44.484375 -1.421875 42.65625 0.625  Q 40.828125 2.6875 40.828125 6.296875  Q 38.09375 2.390625 34.296875 0.484375  Q 30.515625 -1.421875 25.390625 -1.421875  Q 20.84375 -1.421875 17.453125 0.671875  Q 14.0625 2.78125 12.984375 6.203125  L 7.71875 -20.796875  z " id="DejaVuSans-Oblique-3bc"/>
      <path d="M 52 44.1875  Q 55.375 50.25 60.0625 53.125  Q 64.75 56 71.09375 56  Q 79.640625 56 84.28125 50.015625  Q 88.921875 44.046875 88.921875 33.015625  L 88.921875 0  L 79.890625 0  L 79.890625 32.71875  Q 79.890625 40.578125 77.09375 44.375  Q 74.3125 48.1875 68.609375 48.1875  Q 61.625 48.1875 57.5625 43.546875  Q 53.515625 38.921875 53.515625 30.90625  L 53.515625 0  L 44.484375 0  L 44.484375 32.71875  Q 44.484375 40.625 41.703125 44.40625  Q 38.921875 48.1875 33.109375 48.1875  Q 26.21875 48.1875 22.15625 43.53125  Q 18.109375 38.875 18.109375 30.90625  L 18.109375 0  L 9.078125 0  L 9.078125 54.6875  L 18.109375 54.6875  L 18.109375 46.1875  Q 21.1875 51.21875 25.484375 53.609375  Q 29.78125 56 35.6875 56  Q 41.65625 56 45.828125 52.96875  Q 50 49.953125 52 44.1875  z " id="DejaVuSans-6d"/>
      <path d="M 8.015625 75.875  L 15.828125 75.875  Q 23.140625 64.359375 26.78125 53.3125  Q 30.421875 42.28125 30.421875 31.390625  Q 30.421875 20.453125 26.78125 9.375  Q 23.140625 -1.703125 15.828125 -13.1875  L 8.015625 -13.1875  Q 14.5 -2 17.703125 9.0625  Q 20.90625 20.125 20.90625 31.390625  Q 20.90625 42.671875 17.703125 53.65625  Q 14.5 64.65625 8.015625 75.875  z " id="DejaVuSans-29"/>
     </defs>
     <g transform="translate(219.881 329.038125)scale(0.1 -0.1)">
      <use transform="translate(0 0.015625)" xlink:href="#DejaVuSans-44"/>
      <use transform="translate(77.001953 0.015625)" xlink:href="#DejaVuSans-69"/>
      <use transform="translate(104.785156 0.015625)" xlink:href="#DejaVuSans-73"/>
      <use transform="translate(156.884766 0.015625)" xlink:href="#DejaVuSans-74"/>
      <use transform="translate(196.09375 0.015625)" xlink:href="#DejaVuSans-61"/>
      <use transform="translate(257.373047 0.015625)" xlink:href="#DejaVuSans-6e"/>
      <use transform="translate(320.751953 0.015625)" xlink:href="#DejaVuSans-63"/>
      <use transform="translate(375.732422 0.015625)" xlink:href="#DejaVuSans-65"/>
      <use transform="translate(437.255859 0.015625)" xlink:href="#DejaVuSans-20"/>
      <use transform="translate(469.042969 0.015625)" xlink:href="#DejaVuSans-28"/>
      <use transform="translate(508.056641 0.015625)" xlink:href="#DejaVuSans-Oblique-3bc"/>
      <use transform="translate(571.679688 0.015625)" xlink:href="#DejaVuSans-6d"/>
      <use transform="translate(669.091797 0.015625)" xlink:href="#DejaVuSans-29"/>
     </g>
    </g>
   </g>
   <g id="matplotlib.axis_2">
    <g id="ytick_1">
     <g id="line2d_8">
      <defs>
       <path d="M 0 0  L -3.5 0  " id="ma07bba8f74" style="stroke:#000000;stroke-width:0.8;"/>
      </defs>
      <g>
       <use style="stroke:#000000;stroke-width:0.8;" x="63.182" xlink:href="#ma07bba8f74" y="272.767187"/>
      </g>
     </g>
     <g id="text_9">
      <!-- &#8722;400 -->
      <defs>
       <path d="M 10.59375 35.5  L 73.1875 35.5  L 73.1875 27.203125  L 10.59375 27.203125  z " id="DejaVuSans-2212"/>
      </defs>
      <g transform="translate(28.714813 276.566406)scale(0.1 -0.1)">
       <use xlink:href="#DejaVuSans-2212"/>
       <use x="83.789062" xlink:href="#DejaVuSans-34"/>
       <use x="147.412109" xlink:href="#DejaVuSans-30"/>
       <use x="211.035156" xlink:href="#DejaVuSans-30"/>
      </g>
     </g>
    </g>
    <g id="ytick_2">
     <g id="line2d_9">
      <g>
       <use style="stroke:#000000;stroke-width:0.8;" x="63.182" xlink:href="#ma07bba8f74" y="231.486575"/>
      </g>
     </g>
     <g id="text_10">
      <!-- &#8722;200 -->
      <g transform="translate(28.714813 235.285794)scale(0.1 -0.1)">
       <use xlink:href="#DejaVuSans-2212"/>
       <use x="83.789062" xlink:href="#DejaVuSans-32"/>
       <use x="147.412109" xlink:href="#DejaVuSans-30"/>
       <use x="211.035156" xlink:href="#DejaVuSans-30"/>
      </g>
     </g>
    </g>
    <g id="ytick_3">
     <g id="line2d_10">
      <g>
       <use style="stroke:#000000;stroke-width:0.8;" x="63.182" xlink:href="#ma07bba8f74" y="190.205963"/>
      </g>
     </g>
     <g id="text_11">
      <!-- 0 -->
      <g transform="translate(49.8195 194.005182)scale(0.1 -0.1)">
       <use xlink:href="#DejaVuSans-30"/>
      </g>
     </g>
    </g>
    <g id="ytick_4">
     <g id="line2d_11">
      <g>
       <use style="stroke:#000000;stroke-width:0.8;" x="63.182" xlink:href="#ma07bba8f74" y="148.925351"/>
      </g>
     </g>
     <g id="text_12">
      <!-- 200 -->
      <g transform="translate(37.0945 152.72457)scale(0.1 -0.1)">
       <use xlink:href="#DejaVuSans-32"/>
       <use x="63.623047" xlink:href="#DejaVuSans-30"/>
       <use x="127.246094" xlink:href="#DejaVuSans-30"/>
      </g>
     </g>
    </g>
    <g id="ytick_5">
     <g id="line2d_12">
      <g>
       <use style="stroke:#000000;stroke-width:0.8;" x="63.182" xlink:href="#ma07bba8f74" y="107.644739"/>
      </g>
     </g>
     <g id="text_13">
      <!-- 400 -->
      <g transform="translate(37.0945 111.443958)scale(0.1 -0.1)">
       <use xlink:href="#DejaVuSans-34"/>
       <use x="63.623047" xlink:href="#DejaVuSans-30"/>
       <use x="127.246094" xlink:href="#DejaVuSans-30"/>
      </g>
     </g>
    </g>
    <g id="ytick_6">
     <g id="line2d_13">
      <g>
       <use style="stroke:#000000;stroke-width:0.8;" x="63.182" xlink:href="#ma07bba8f74" y="66.364127"/>
      </g>
     </g>
     <g id="text_14">
      <!-- 600 -->
      <g transform="translate(37.0945 70.163346)scale(0.1 -0.1)">
       <use xlink:href="#DejaVuSans-36"/>
       <use x="63.623047" xlink:href="#DejaVuSans-30"/>
       <use x="127.246094" xlink:href="#DejaVuSans-30"/>
      </g>
     </g>
    </g>
    <g id="ytick_7">
     <g id="line2d_14">
      <g>
       <use style="stroke:#000000;stroke-width:0.8;" x="63.182" xlink:href="#ma07bba8f74" y="25.083516"/>
      </g>
     </g>
     <g id="text_15">
      <!-- 800 -->
      <g transform="translate(37.0945 28.882734)scale(0.1 -0.1)">
       <use xlink:href="#DejaVuSans-38"/>
       <use x="63.623047" xlink:href="#DejaVuSans-30"/>
       <use x="127.246094" xlink:href="#DejaVuSans-30"/>
      </g>
     </g>
    </g>
    <g id="text_16">
     <!-- Flux (at.-fr.m/s)$\times10^{-14}$ -->
     <defs>
      <path d="M 9.8125 72.90625  L 51.703125 72.90625  L 51.703125 64.59375  L 19.671875 64.59375  L 19.671875 43.109375  L 48.578125 43.109375  L 48.578125 34.8125  L 19.671875 34.8125  L 19.671875 0  L 9.8125 0  z " id="DejaVuSans-46"/>
      <path d="M 9.421875 75.984375  L 18.40625 75.984375  L 18.40625 0  L 9.421875 0  z " id="DejaVuSans-6c"/>
      <path d="M 8.5 21.578125  L 8.5 54.6875  L 17.484375 54.6875  L 17.484375 21.921875  Q 17.484375 14.15625 20.5 10.265625  Q 23.53125 6.390625 29.59375 6.390625  Q 36.859375 6.390625 41.078125 11.03125  Q 45.3125 15.671875 45.3125 23.6875  L 45.3125 54.6875  L 54.296875 54.6875  L 54.296875 0  L 45.3125 0  L 45.3125 8.40625  Q 42.046875 3.421875 37.71875 1  Q 33.40625 -1.421875 27.6875 -1.421875  Q 18.265625 -1.421875 13.375 4.4375  Q 8.5 10.296875 8.5 21.578125  z M 31.109375 56  z " id="DejaVuSans-75"/>
      <path d="M 54.890625 54.6875  L 35.109375 28.078125  L 55.90625 0  L 45.3125 0  L 29.390625 21.484375  L 13.484375 0  L 2.875 0  L 24.125 28.609375  L 4.6875 54.6875  L 15.28125 54.6875  L 29.78125 35.203125  L 44.28125 54.6875  z " id="DejaVuSans-78"/>
      <path d="M 10.6875 12.40625  L 21 12.40625  L 21 0  L 10.6875 0  z " id="DejaVuSans-2e"/>
      <path d="M 4.890625 31.390625  L 31.203125 31.390625  L 31.203125 23.390625  L 4.890625 23.390625  z " id="DejaVuSans-2d"/>
      <path d="M 37.109375 75.984375  L 37.109375 68.5  L 28.515625 68.5  Q 23.6875 68.5 21.796875 66.546875  Q 19.921875 64.59375 19.921875 59.515625  L 19.921875 54.6875  L 34.71875 54.6875  L 34.71875 47.703125  L 19.921875 47.703125  L 19.921875 0  L 10.890625 0  L 10.890625 47.703125  L 2.296875 47.703125  L 2.296875 54.6875  L 10.890625 54.6875  L 10.890625 58.5  Q 10.890625 67.625 15.140625 71.796875  Q 19.390625 75.984375 28.609375 75.984375  z " id="DejaVuSans-66"/>
      <path d="M 41.109375 46.296875  Q 39.59375 47.171875 37.8125 47.578125  Q 36.03125 48 33.890625 48  Q 26.265625 48 22.1875 43.046875  Q 18.109375 38.09375 18.109375 28.8125  L 18.109375 0  L 9.078125 0  L 9.078125 54.6875  L 18.109375 54.6875  L 18.109375 46.1875  Q 20.953125 51.171875 25.484375 53.578125  Q 30.03125 56 36.53125 56  Q 37.453125 56 38.578125 55.875  Q 39.703125 55.765625 41.0625 55.515625  z " id="DejaVuSans-72"/>
      <path d="M 25.390625 72.90625  L 33.6875 72.90625  L 8.296875 -9.28125  L 0 -9.28125  z " id="DejaVuSans-2f"/>
      <path d="M 70.125 53.71875  L 47.796875 31.296875  L 70.125 8.984375  L 64.3125 3.078125  L 41.890625 25.484375  L 19.484375 3.078125  L 13.71875 8.984375  L 35.984375 31.296875  L 13.71875 53.71875  L 19.484375 59.625  L 41.890625 37.203125  L 64.3125 59.625  z " id="DejaVuSans-d7"/>
     </defs>
     <g transform="translate(22.635125 214.04)rotate(-90)scale(0.1 -0.1)">
      <use transform="translate(0 0.684375)" xlink:href="#DejaVuSans-46"/>
      <use transform="translate(57.519531 0.684375)" xlink:href="#DejaVuSans-6c"/>
      <use transform="translate(85.302734 0.684375)" xlink:href="#DejaVuSans-75"/>
      <use transform="translate(148.681641 0.684375)" xlink:href="#DejaVuSans-78"/>
      <use transform="translate(207.861328 0.684375)" xlink:href="#DejaVuSans-20"/>
      <use transform="translate(239.648438 0.684375)" xlink:href="#DejaVuSans-28"/>
      <use transform="translate(278.662109 0.684375)" xlink:href="#DejaVuSans-61"/>
      <use transform="translate(339.941406 0.684375)" xlink:href="#DejaVuSans-74"/>
      <use transform="translate(379.150391 0.684375)" xlink:href="#DejaVuSans-2e"/>
      <use transform="translate(410.9375 0.684375)" xlink:href="#DejaVuSans-2d"/>
      <use transform="translate(447.021484 0.684375)" xlink:href="#DejaVuSans-66"/>
      <use transform="translate(482.226562 0.684375)" xlink:href="#DejaVuSans-72"/>
      <use transform="translate(523.339844 0.684375)" xlink:href="#DejaVuSans-2e"/>
      <use transform="translate(555.033203 0.684375)" xlink:href="#DejaVuSans-6d"/>
      <use transform="translate(652.445312 0.684375)" xlink:href="#DejaVuSans-2f"/>
      <use transform="translate(686.136719 0.684375)" xlink:href="#DejaVuSans-73"/>
      <use transform="translate(738.236328 0.684375)" xlink:href="#DejaVuSans-29"/>
      <use transform="translate(777.25 0.684375)" xlink:href="#DejaVuSans-d7"/>
      <use transform="translate(861.039062 0.684375)" xlink:href="#DejaVuSans-31"/>
      <use transform="translate(924.662109 0.684375)" xlink:href="#DejaVuSans-30"/>
      <use transform="translate(989.242188 38.965625)scale(0.7)" xlink:href="#DejaVuSans-2212"/>
      <use transform="translate(1047.894531 38.965625)scale(0.7)" xlink:href="#DejaVuSans-31"/>
      <use transform="translate(1092.430664 38.965625)scale(0.7)" xlink:href="#DejaVuSans-34"/>
     </g>
    </g>
   </g>
   <g id="line2d_15">
    <defs>
     <path d="M -0 3  L 3 -3  L -3 -3  z " id="mb9e34f26ab" style="stroke:#e74c3c;stroke-linejoin:miter;"/>
    </defs>
    <g clip-path="url(#p4b53669af4)">
     <use style="fill:#e74c3c;stroke:#e74c3c;stroke-linejoin:miter;" x="63.182" xlink:href="#mb9e34f26ab" y="175.598045"/>
     <use style="fill:#e74c3c;stroke:#e74c3c;stroke-linejoin:miter;" x="75.659424" xlink:href="#mb9e34f26ab" y="175.598045"/>
     <use style="fill:#e74c3c;stroke:#e74c3c;stroke-linejoin:miter;" x="126.149468" xlink:href="#mb9e34f26ab" y="224.064535"/>
     <use style="fill:#e74c3c;stroke:#e74c3c;stroke-linejoin:miter;" x="132.533266" xlink:href="#mb9e34f26ab" y="196.224907"/>
     <use style="fill:#e74c3c;stroke:#e74c3c;stroke-linejoin:miter;" x="138.917065" xlink:href="#mb9e34f26ab" y="190.927842"/>
     <use style="fill:#e74c3c;stroke:#e74c3c;stroke-linejoin:miter;" x="151.394489" xlink:href="#mb9e34f26ab" y="186.501657"/>
     <use style="fill:#e74c3c;stroke:#e74c3c;stroke-linejoin:miter;" x="157.778288" xlink:href="#mb9e34f26ab" y="196.055876"/>
     <use style="fill:#e74c3c;stroke:#e74c3c;stroke-linejoin:miter;" x="170.255712" xlink:href="#mb9e34f26ab" y="198.218987"/>
     <use style="fill:#e74c3c;stroke:#e74c3c;stroke-linejoin:miter;" x="176.639511" xlink:href="#mb9e34f26ab" y="190.993119"/>
     <use style="fill:#e74c3c;stroke:#e74c3c;stroke-linejoin:miter;" x="183.02331" xlink:href="#mb9e34f26ab" y="197.305734"/>
     <use style="fill:#e74c3c;stroke:#e74c3c;stroke-linejoin:miter;" x="195.500734" xlink:href="#mb9e34f26ab" y="199.013824"/>
     <use style="fill:#e74c3c;stroke:#e74c3c;stroke-linejoin:miter;" x="201.884533" xlink:href="#mb9e34f26ab" y="206.774748"/>
     <use style="fill:#e74c3c;stroke:#e74c3c;stroke-linejoin:miter;" x="207.978158" xlink:href="#mb9e34f26ab" y="212.713546"/>
     <use style="fill:#e74c3c;stroke:#e74c3c;stroke-linejoin:miter;" x="214.361957" xlink:href="#mb9e34f26ab" y="208.714294"/>
     <use style="fill:#e74c3c;stroke:#e74c3c;stroke-linejoin:miter;" x="220.745756" xlink:href="#mb9e34f26ab" y="215.521042"/>
     <use style="fill:#e74c3c;stroke:#e74c3c;stroke-linejoin:miter;" x="226.839382" xlink:href="#mb9e34f26ab" y="222.020699"/>
     <use style="fill:#e74c3c;stroke:#e74c3c;stroke-linejoin:miter;" x="233.22318" xlink:href="#mb9e34f26ab" y="234.012987"/>
     <use style="fill:#e74c3c;stroke:#e74c3c;stroke-linejoin:miter;" x="239.606979" xlink:href="#mb9e34f26ab" y="235.867283"/>
     <use style="fill:#e74c3c;stroke:#e74c3c;stroke-linejoin:miter;" x="245.990777" xlink:href="#mb9e34f26ab" y="240.483255"/>
     <use style="fill:#e74c3c;stroke:#e74c3c;stroke-linejoin:miter;" x="252.084403" xlink:href="#mb9e34f26ab" y="244.43449"/>
     <use style="fill:#e74c3c;stroke:#e74c3c;stroke-linejoin:miter;" x="258.468202" xlink:href="#mb9e34f26ab" y="246.308964"/>
     <use style="fill:#e74c3c;stroke:#e74c3c;stroke-linejoin:miter;" x="264.852" xlink:href="#mb9e34f26ab" y="247.689967"/>
     <use style="fill:#e74c3c;stroke:#e74c3c;stroke-linejoin:miter;" x="270.945626" xlink:href="#mb9e34f26ab" y="246.971551"/>
     <use style="fill:#e74c3c;stroke:#e74c3c;stroke-linejoin:miter;" x="277.329425" xlink:href="#mb9e34f26ab" y="245.069274"/>
     <use style="fill:#e74c3c;stroke:#e74c3c;stroke-linejoin:miter;" x="283.713223" xlink:href="#mb9e34f26ab" y="240.989709"/>
     <use style="fill:#e74c3c;stroke:#e74c3c;stroke-linejoin:miter;" x="290.097022" xlink:href="#mb9e34f26ab" y="236.594276"/>
     <use style="fill:#e74c3c;stroke:#e74c3c;stroke-linejoin:miter;" x="302.574446" xlink:href="#mb9e34f26ab" y="219.08723"/>
     <use style="fill:#e74c3c;stroke:#e74c3c;stroke-linejoin:miter;" x="308.958245" xlink:href="#mb9e34f26ab" y="215.858311"/>
     <use style="fill:#e74c3c;stroke:#e74c3c;stroke-linejoin:miter;" x="315.051871" xlink:href="#mb9e34f26ab" y="212.085017"/>
     <use style="fill:#e74c3c;stroke:#e74c3c;stroke-linejoin:miter;" x="321.435669" xlink:href="#mb9e34f26ab" y="203.772827"/>
     <use style="fill:#e74c3c;stroke:#e74c3c;stroke-linejoin:miter;" x="327.819468" xlink:href="#mb9e34f26ab" y="180.103178"/>
     <use style="fill:#e74c3c;stroke:#e74c3c;stroke-linejoin:miter;" x="334.203267" xlink:href="#mb9e34f26ab" y="179.216176"/>
     <use style="fill:#e74c3c;stroke:#e74c3c;stroke-linejoin:miter;" x="340.296893" xlink:href="#mb9e34f26ab" y="194.184757"/>
     <use style="fill:#e74c3c;stroke:#e74c3c;stroke-linejoin:miter;" x="346.680691" xlink:href="#mb9e34f26ab" y="171.28797"/>
     <use style="fill:#e74c3c;stroke:#e74c3c;stroke-linejoin:miter;" x="353.06449" xlink:href="#mb9e34f26ab" y="170.093136"/>
     <use style="fill:#e74c3c;stroke:#e74c3c;stroke-linejoin:miter;" x="359.158116" xlink:href="#mb9e34f26ab" y="176.557958"/>
     <use style="fill:#e74c3c;stroke:#e74c3c;stroke-linejoin:miter;" x="365.541914" xlink:href="#mb9e34f26ab" y="131.472045"/>
     <use style="fill:#e74c3c;stroke:#e74c3c;stroke-linejoin:miter;" x="371.925713" xlink:href="#mb9e34f26ab" y="155.726848"/>
     <use style="fill:#e74c3c;stroke:#e74c3c;stroke-linejoin:miter;" x="378.309511" xlink:href="#mb9e34f26ab" y="162.847953"/>
     <use style="fill:#e74c3c;stroke:#e74c3c;stroke-linejoin:miter;" x="384.403137" xlink:href="#mb9e34f26ab" y="127.021719"/>
     <use style="fill:#e74c3c;stroke:#e74c3c;stroke-linejoin:miter;" x="390.786936" xlink:href="#mb9e34f26ab" y="143.418651"/>
     <use style="fill:#e74c3c;stroke:#e74c3c;stroke-linejoin:miter;" x="397.170734" xlink:href="#mb9e34f26ab" y="112.782187"/>
     <use style="fill:#e74c3c;stroke:#e74c3c;stroke-linejoin:miter;" x="403.26436" xlink:href="#mb9e34f26ab" y="117.105062"/>
     <use style="fill:#e74c3c;stroke:#e74c3c;stroke-linejoin:miter;" x="409.648159" xlink:href="#mb9e34f26ab" y="168.930549"/>
     <use style="fill:#e74c3c;stroke:#e74c3c;stroke-linejoin:miter;" x="416.031957" xlink:href="#mb9e34f26ab" y="75.052985"/>
     <use style="fill:#e74c3c;stroke:#e74c3c;stroke-linejoin:miter;" x="422.415756" xlink:href="#mb9e34f26ab" y="148.090646"/>
     <use style="fill:#e74c3c;stroke:#e74c3c;stroke-linejoin:miter;" x="428.509382" xlink:href="#mb9e34f26ab" y="126.117707"/>
     <use style="fill:#e74c3c;stroke:#e74c3c;stroke-linejoin:miter;" x="434.89318" xlink:href="#mb9e34f26ab" y="151.155501"/>
     <use style="fill:#e74c3c;stroke:#e74c3c;stroke-linejoin:miter;" x="447.370605" xlink:href="#mb9e34f26ab" y="151.155501"/>
    </g>
   </g>
   <g id="line2d_16">
    <defs>
     <path d="M 0 -3  L -0.673542 -0.927051  L -2.85317 -0.927051  L -1.089814 0.354102  L -1.763356 2.427051  L -0 1.145898  L 1.763356 2.427051  L 1.089814 0.354102  L 2.85317 -0.927051  L 0.673542 -0.927051  z " id="m5bbb4a2872" style="stroke:#808000;stroke-linejoin:bevel;"/>
    </defs>
    <g clip-path="url(#p4b53669af4)">
     <use style="fill:#808000;stroke:#808000;stroke-linejoin:bevel;" x="63.182" xlink:href="#m5bbb4a2872" y="183.61254"/>
     <use style="fill:#808000;stroke:#808000;stroke-linejoin:bevel;" x="75.659424" xlink:href="#m5bbb4a2872" y="183.61254"/>
     <use style="fill:#808000;stroke:#808000;stroke-linejoin:bevel;" x="126.149468" xlink:href="#m5bbb4a2872" y="181.634821"/>
     <use style="fill:#808000;stroke:#808000;stroke-linejoin:bevel;" x="132.533266" xlink:href="#m5bbb4a2872" y="179.099754"/>
     <use style="fill:#808000;stroke:#808000;stroke-linejoin:bevel;" x="138.917065" xlink:href="#m5bbb4a2872" y="182.05848"/>
     <use style="fill:#808000;stroke:#808000;stroke-linejoin:bevel;" x="151.394489" xlink:href="#m5bbb4a2872" y="182.511116"/>
     <use style="fill:#808000;stroke:#808000;stroke-linejoin:bevel;" x="157.778288" xlink:href="#m5bbb4a2872" y="186.097631"/>
     <use style="fill:#808000;stroke:#808000;stroke-linejoin:bevel;" x="170.255712" xlink:href="#m5bbb4a2872" y="192.737968"/>
     <use style="fill:#808000;stroke:#808000;stroke-linejoin:bevel;" x="176.639511" xlink:href="#m5bbb4a2872" y="185.618414"/>
     <use style="fill:#808000;stroke:#808000;stroke-linejoin:bevel;" x="183.02331" xlink:href="#m5bbb4a2872" y="186.638437"/>
     <use style="fill:#808000;stroke:#808000;stroke-linejoin:bevel;" x="195.500734" xlink:href="#m5bbb4a2872" y="180.932619"/>
     <use style="fill:#808000;stroke:#808000;stroke-linejoin:bevel;" x="201.884533" xlink:href="#m5bbb4a2872" y="182.798766"/>
     <use style="fill:#808000;stroke:#808000;stroke-linejoin:bevel;" x="207.978158" xlink:href="#m5bbb4a2872" y="184.766628"/>
     <use style="fill:#808000;stroke:#808000;stroke-linejoin:bevel;" x="214.361957" xlink:href="#m5bbb4a2872" y="188.510043"/>
     <use style="fill:#808000;stroke:#808000;stroke-linejoin:bevel;" x="220.745756" xlink:href="#m5bbb4a2872" y="192.959851"/>
     <use style="fill:#808000;stroke:#808000;stroke-linejoin:bevel;" x="226.839382" xlink:href="#m5bbb4a2872" y="190.675863"/>
     <use style="fill:#808000;stroke:#808000;stroke-linejoin:bevel;" x="233.22318" xlink:href="#m5bbb4a2872" y="199.716617"/>
     <use style="fill:#808000;stroke:#808000;stroke-linejoin:bevel;" x="239.606979" xlink:href="#m5bbb4a2872" y="209.304475"/>
     <use style="fill:#808000;stroke:#808000;stroke-linejoin:bevel;" x="245.990777" xlink:href="#m5bbb4a2872" y="223.297728"/>
     <use style="fill:#808000;stroke:#808000;stroke-linejoin:bevel;" x="252.084403" xlink:href="#m5bbb4a2872" y="237.124004"/>
     <use style="fill:#808000;stroke:#808000;stroke-linejoin:bevel;" x="258.468202" xlink:href="#m5bbb4a2872" y="252.826419"/>
     <use style="fill:#808000;stroke:#808000;stroke-linejoin:bevel;" x="264.852" xlink:href="#m5bbb4a2872" y="261.604942"/>
     <use style="fill:#808000;stroke:#808000;stroke-linejoin:bevel;" x="270.945626" xlink:href="#m5bbb4a2872" y="271.758897"/>
     <use style="fill:#808000;stroke:#808000;stroke-linejoin:bevel;" x="277.329425" xlink:href="#m5bbb4a2872" y="276.285984"/>
     <use style="fill:#808000;stroke:#808000;stroke-linejoin:bevel;" x="283.713223" xlink:href="#m5bbb4a2872" y="275.624623"/>
     <use style="fill:#808000;stroke:#808000;stroke-linejoin:bevel;" x="290.097022" xlink:href="#m5bbb4a2872" y="270.950039"/>
     <use style="fill:#808000;stroke:#808000;stroke-linejoin:bevel;" x="302.574446" xlink:href="#m5bbb4a2872" y="263.164704"/>
     <use style="fill:#808000;stroke:#808000;stroke-linejoin:bevel;" x="308.958245" xlink:href="#m5bbb4a2872" y="257.232201"/>
     <use style="fill:#808000;stroke:#808000;stroke-linejoin:bevel;" x="315.051871" xlink:href="#m5bbb4a2872" y="245.514588"/>
     <use style="fill:#808000;stroke:#808000;stroke-linejoin:bevel;" x="321.435669" xlink:href="#m5bbb4a2872" y="239.31275"/>
     <use style="fill:#808000;stroke:#808000;stroke-linejoin:bevel;" x="327.819468" xlink:href="#m5bbb4a2872" y="232.549221"/>
     <use style="fill:#808000;stroke:#808000;stroke-linejoin:bevel;" x="334.203267" xlink:href="#m5bbb4a2872" y="221.726721"/>
     <use style="fill:#808000;stroke:#808000;stroke-linejoin:bevel;" x="340.296893" xlink:href="#m5bbb4a2872" y="218.017068"/>
     <use style="fill:#808000;stroke:#808000;stroke-linejoin:bevel;" x="346.680691" xlink:href="#m5bbb4a2872" y="224.182907"/>
     <use style="fill:#808000;stroke:#808000;stroke-linejoin:bevel;" x="353.06449" xlink:href="#m5bbb4a2872" y="210.466274"/>
     <use style="fill:#808000;stroke:#808000;stroke-linejoin:bevel;" x="359.158116" xlink:href="#m5bbb4a2872" y="207.069817"/>
     <use style="fill:#808000;stroke:#808000;stroke-linejoin:bevel;" x="365.541914" xlink:href="#m5bbb4a2872" y="220.788168"/>
     <use style="fill:#808000;stroke:#808000;stroke-linejoin:bevel;" x="371.925713" xlink:href="#m5bbb4a2872" y="222.613464"/>
     <use style="fill:#808000;stroke:#808000;stroke-linejoin:bevel;" x="378.309511" xlink:href="#m5bbb4a2872" y="206.702313"/>
     <use style="fill:#808000;stroke:#808000;stroke-linejoin:bevel;" x="384.403137" xlink:href="#m5bbb4a2872" y="211.428284"/>
     <use style="fill:#808000;stroke:#808000;stroke-linejoin:bevel;" x="390.786936" xlink:href="#m5bbb4a2872" y="196.129893"/>
     <use style="fill:#808000;stroke:#808000;stroke-linejoin:bevel;" x="397.170734" xlink:href="#m5bbb4a2872" y="200.801467"/>
     <use style="fill:#808000;stroke:#808000;stroke-linejoin:bevel;" x="403.26436" xlink:href="#m5bbb4a2872" y="205.765581"/>
     <use style="fill:#808000;stroke:#808000;stroke-linejoin:bevel;" x="409.648159" xlink:href="#m5bbb4a2872" y="216.013645"/>
     <use style="fill:#808000;stroke:#808000;stroke-linejoin:bevel;" x="416.031957" xlink:href="#m5bbb4a2872" y="207.870359"/>
     <use style="fill:#808000;stroke:#808000;stroke-linejoin:bevel;" x="422.415756" xlink:href="#m5bbb4a2872" y="182.618087"/>
     <use style="fill:#808000;stroke:#808000;stroke-linejoin:bevel;" x="428.509382" xlink:href="#m5bbb4a2872" y="210.933154"/>
     <use style="fill:#808000;stroke:#808000;stroke-linejoin:bevel;" x="434.89318" xlink:href="#m5bbb4a2872" y="180.304103"/>
     <use style="fill:#808000;stroke:#808000;stroke-linejoin:bevel;" x="447.370605" xlink:href="#m5bbb4a2872" y="180.304103"/>
    </g>
   </g>
   <g id="line2d_17">
    <defs>
     <path d="M 0 3  C 0.795609 3 1.55874 2.683901 2.12132 2.12132  C 2.683901 1.55874 3 0.795609 3 0  C 3 -0.795609 2.683901 -1.55874 2.12132 -2.12132  C 1.55874 -2.683901 0.795609 -3 0 -3  C -0.795609 -3 -1.55874 -2.683901 -2.12132 -2.12132  C -2.683901 -1.55874 -3 -0.795609 -3 0  C -3 0.795609 -2.683901 1.55874 -2.12132 2.12132  C -1.55874 2.683901 -0.795609 3 0 3  z " id="m04260ceb3d" style="stroke:#008080;"/>
    </defs>
    <g clip-path="url(#p4b53669af4)">
     <use style="fill:#008080;stroke:#008080;" x="63.182" xlink:href="#m04260ceb3d" y="211.407305"/>
     <use style="fill:#008080;stroke:#008080;" x="75.659424" xlink:href="#m04260ceb3d" y="211.407305"/>
     <use style="fill:#008080;stroke:#008080;" x="126.149468" xlink:href="#m04260ceb3d" y="164.918534"/>
     <use style="fill:#008080;stroke:#008080;" x="132.533266" xlink:href="#m04260ceb3d" y="195.293229"/>
     <use style="fill:#008080;stroke:#008080;" x="138.917065" xlink:href="#m04260ceb3d" y="197.631568"/>
     <use style="fill:#008080;stroke:#008080;" x="151.394489" xlink:href="#m04260ceb3d" y="201.605117"/>
     <use style="fill:#008080;stroke:#008080;" x="157.778288" xlink:href="#m04260ceb3d" y="188.464383"/>
     <use style="fill:#008080;stroke:#008080;" x="170.255712" xlink:href="#m04260ceb3d" y="179.660935"/>
     <use style="fill:#008080;stroke:#008080;" x="176.639511" xlink:href="#m04260ceb3d" y="194.006357"/>
     <use style="fill:#008080;stroke:#008080;" x="183.02331" xlink:href="#m04260ceb3d" y="186.673718"/>
     <use style="fill:#008080;stroke:#008080;" x="195.500734" xlink:href="#m04260ceb3d" y="190.671447"/>
     <use style="fill:#008080;stroke:#008080;" x="201.884533" xlink:href="#m04260ceb3d" y="181.044375"/>
     <use style="fill:#008080;stroke:#008080;" x="207.978158" xlink:href="#m04260ceb3d" y="173.137716"/>
     <use style="fill:#008080;stroke:#008080;" x="214.361957" xlink:href="#m04260ceb3d" y="173.393552"/>
     <use style="fill:#008080;stroke:#008080;" x="220.745756" xlink:href="#m04260ceb3d" y="162.136996"/>
     <use style="fill:#008080;stroke:#008080;" x="226.839382" xlink:href="#m04260ceb3d" y="157.921328"/>
     <use style="fill:#008080;stroke:#008080;" x="233.22318" xlink:href="#m04260ceb3d" y="136.888285"/>
     <use style="fill:#008080;stroke:#008080;" x="239.606979" xlink:href="#m04260ceb3d" y="125.446131"/>
     <use style="fill:#008080;stroke:#008080;" x="245.990777" xlink:href="#m04260ceb3d" y="106.836906"/>
     <use style="fill:#008080;stroke:#008080;" x="252.084403" xlink:href="#m04260ceb3d" y="89.059396"/>
     <use style="fill:#008080;stroke:#008080;" x="258.468202" xlink:href="#m04260ceb3d" y="71.482506"/>
     <use style="fill:#008080;stroke:#008080;" x="264.852" xlink:href="#m04260ceb3d" y="61.32298"/>
     <use style="fill:#008080;stroke:#008080;" x="270.945626" xlink:href="#m04260ceb3d" y="51.887442"/>
     <use style="fill:#008080;stroke:#008080;" x="277.329425" xlink:href="#m04260ceb3d" y="49.262632"/>
     <use style="fill:#008080;stroke:#008080;" x="283.713223" xlink:href="#m04260ceb3d" y="54.003558"/>
     <use style="fill:#008080;stroke:#008080;" x="290.097022" xlink:href="#m04260ceb3d" y="63.073575"/>
     <use style="fill:#008080;stroke:#008080;" x="302.574446" xlink:href="#m04260ceb3d" y="88.365956"/>
     <use style="fill:#008080;stroke:#008080;" x="308.958245" xlink:href="#m04260ceb3d" y="97.527378"/>
     <use style="fill:#008080;stroke:#008080;" x="315.051871" xlink:href="#m04260ceb3d" y="113.018285"/>
     <use style="fill:#008080;stroke:#008080;" x="321.435669" xlink:href="#m04260ceb3d" y="127.532313"/>
     <use style="fill:#008080;stroke:#008080;" x="327.819468" xlink:href="#m04260ceb3d" y="157.965491"/>
     <use style="fill:#008080;stroke:#008080;" x="334.203267" xlink:href="#m04260ceb3d" y="169.674993"/>
     <use style="fill:#008080;stroke:#008080;" x="340.296893" xlink:href="#m04260ceb3d" y="158.416065"/>
     <use style="fill:#008080;stroke:#008080;" x="346.680691" xlink:href="#m04260ceb3d" y="175.147013"/>
     <use style="fill:#008080;stroke:#008080;" x="353.06449" xlink:href="#m04260ceb3d" y="190.05848"/>
     <use style="fill:#008080;stroke:#008080;" x="359.158116" xlink:href="#m04260ceb3d" y="186.990114"/>
     <use style="fill:#008080;stroke:#008080;" x="365.541914" xlink:href="#m04260ceb3d" y="218.357676"/>
     <use style="fill:#008080;stroke:#008080;" x="371.925713" xlink:href="#m04260ceb3d" y="192.277577"/>
     <use style="fill:#008080;stroke:#008080;" x="378.309511" xlink:href="#m04260ceb3d" y="201.067624"/>
     <use style="fill:#008080;stroke:#008080;" x="384.403137" xlink:href="#m04260ceb3d" y="232.167886"/>
     <use style="fill:#008080;stroke:#008080;" x="390.786936" xlink:href="#m04260ceb3d" y="231.069346"/>
     <use style="fill:#008080;stroke:#008080;" x="397.170734" xlink:href="#m04260ceb3d" y="257.034236"/>
     <use style="fill:#008080;stroke:#008080;" x="403.26436" xlink:href="#m04260ceb3d" y="247.747247"/>
     <use style="fill:#008080;stroke:#008080;" x="409.648159" xlink:href="#m04260ceb3d" y="185.673695"/>
     <use style="fill:#008080;stroke:#008080;" x="416.031957" xlink:href="#m04260ceb3d" y="287.694545"/>
     <use style="fill:#008080;stroke:#008080;" x="422.415756" xlink:href="#m04260ceb3d" y="239.909157"/>
     <use style="fill:#008080;stroke:#008080;" x="428.509382" xlink:href="#m04260ceb3d" y="233.567029"/>
     <use style="fill:#008080;stroke:#008080;" x="434.89318" xlink:href="#m04260ceb3d" y="239.158286"/>
     <use style="fill:#008080;stroke:#008080;" x="447.370605" xlink:href="#m04260ceb3d" y="239.158286"/>
    </g>
   </g>
   <g id="line2d_18">
    <path clip-path="url(#p4b53669af4)" d="M 61.680836 190.206032  L 128.332521 190.31448  L 142.743697 190.526921  L 153.552078 190.90038  L 160.757666 191.343089  L 167.963253 192.034305  L 173.367444 192.783588  L 178.771635 193.79829  L 183.725476 195.024556  L 187.32827 196.133148  L 190.931064 197.453552  L 194.533858 199.013774  L 198.136652 200.841896  L 201.739445 202.964843  L 205.342239 205.406797  L 208.945033 208.187275  L 212.547827 211.318887  L 216.150621 214.804841  L 219.753414 218.636319  L 223.356208 222.789944  L 227.634526 228.084571  L 233.038717 235.180026  L 244.747796 250.72698  L 248.80094 255.642676  L 251.953384 259.137363  L 255.105829 262.281304  L 257.807924 264.663518  L 260.510019 266.737015  L 263.099527 268.424455  L 265.576448 269.761289  L 268.053369 270.829371  L 270.53029 271.634991  L 273.00721 272.187568  L 275.484131 272.498828  L 277.961052 272.582057  L 280.437973 272.451452  L 283.140068 272.082235  L 285.842163 271.494785  L 288.769433 270.63346  L 291.584116 269.604979  L 294.736561 268.243449  L 298.339354 266.446658  L 302.392497 264.158687  L 306.89599 261.336889  L 311.849831 257.955962  L 317.704371 253.673489  L 325.135133 247.936783  L 351.255389 227.446496  L 357.109928 223.190497  L 362.514119 219.464564  L 367.91831 215.958401  L 373.322501 212.689586  L 378.726691 209.669028  L 384.130882 206.901535  L 389.535073 204.386523  L 394.939263 202.118822  L 400.343454 200.089515  L 405.747645 198.286773  L 411.151836 196.696659  L 416.556026 195.303857  L 421.960217 194.092328  L 429.165805 192.73098  L 436.371392 191.625824  L 443.57698 190.742143  L 447.179774 190.373524  L 448.981171 190.373524  L 448.981171 190.373524  " style="fill:none;stroke:#e74c3c;stroke-linecap:square;stroke-width:2;"/>
   </g>
   <g id="line2d_19">
    <path clip-path="url(#p4b53669af4)" d="M 61.680836 190.205963  L 187.32827 190.307783  L 196.335255 190.527075  L 202.640144 190.892787  L 207.143636 191.360598  L 210.74643 191.929198  L 214.349224 192.741244  L 217.051319 193.559303  L 219.753414 194.601774  L 222.45551 195.914449  L 224.932431 197.397182  L 227.184177 199.01146  L 229.435923 200.907607  L 231.687669 203.111253  L 233.939415 205.643504  L 236.191161 208.518718  L 238.442907 211.742185  L 241.145003 216.060648  L 243.847098 220.835418  L 246.999543 226.892697  L 251.503035 236.14137  L 257.807924 249.135528  L 260.960369 255.093937  L 263.549877 259.487663  L 265.801623 262.845603  L 267.828194 265.447022  L 269.629591 267.396437  L 271.205814 268.808109  L 272.782036 269.937861  L 274.358258 270.782366  L 275.709306 271.279214  L 277.060353 271.568529  L 278.411401 271.653894  L 279.762449 271.540341  L 281.338671 271.16496  L 282.914893 270.539464  L 284.491116 269.677583  L 286.292513 268.422612  L 288.09391 266.90305  L 290.120481 264.909217  L 292.484814 262.251026  L 295.18691 258.849003  L 298.339354 254.50234  L 302.392497 248.520581  L 315.902974 228.253593  L 319.956117 222.736119  L 323.333736 218.480514  L 326.93653 214.32195  L 330.539324 210.574586  L 333.241419 208.036506  L 335.943515 205.72859  L 338.64561 203.644183  L 341.347706 201.774003  L 344.950499 199.593932  L 348.553293 197.743935  L 352.156087 196.190967  L 355.758881 194.901177  L 358.911325 193.963422  L 362.514119 193.080199  L 366.116913 192.369092  L 371.521104 191.566543  L 376.925294 191.011441  L 384.130882 190.546389  L 393.137867 190.250393  L 405.747645 190.115869  L 430.967202 190.15324  L 448.981171 190.201527  L 448.981171 190.201527  " style="fill:none;stroke:#808000;stroke-linecap:square;stroke-width:2;"/>
   </g>
   <g id="line2d_20">
    <path clip-path="url(#p4b53669af4)" d="M 61.680836 190.205894  L 128.332521 190.097458  L 142.743697 189.884923  L 153.552078 189.510847  L 160.757666 189.066557  L 167.963253 188.37078  L 173.367444 187.613323  L 178.771635 186.581552  L 183.725476 185.324358  L 187.32827 184.176958  L 190.931064 182.795779  L 194.533858 181.141471  L 197.235953 179.694918  L 199.938048 178.0489  L 202.640144 176.180537  L 205.342239 174.064818  L 208.044335 171.674479  L 210.74643 168.979954  L 213.448525 165.94945  L 216.150621 162.54923  L 218.852716 158.744219  L 221.554811 154.499047  L 224.256907 149.779677  L 227.184177 144.095201  L 229.886272 138.296753  L 232.588367 131.957025  L 235.290463 125.080089  L 238.442907 116.412331  L 242.045701 105.762371  L 246.549193 91.654761  L 255.105829 64.671711  L 258.258273 55.567175  L 260.960369 48.472235  L 263.324702 42.933811  L 265.351274 38.755151  L 267.15267 35.51954  L 268.954067 32.758905  L 270.53029 30.745593  L 272.106512 29.114183  L 273.45756 28.021365  L 274.808607 27.209558  L 276.159655 26.675767  L 277.510703 26.415211  L 278.86175 26.42149  L 280.212798 26.686765  L 281.563846 27.201938  L 282.914893 27.956829  L 284.491116 29.125684  L 286.067338 30.58686  L 287.868735 32.5892  L 289.670132 34.91662  L 291.584116 37.710568  L 293.835862 41.370782  L 296.537958 46.213991  L 299.690402 52.358137  L 303.743545 60.807964  L 310.048434 74.563803  L 318.15472 92.147192  L 322.433038 100.983778  L 326.93653 109.781859  L 330.539324 116.394684  L 334.142118 122.604361  L 337.744912 128.402786  L 341.347706 133.792724  L 344.950499 138.785148  L 348.553293 143.396879  L 352.156087 147.648576  L 355.758881 151.563074  L 358.911325 154.728994  L 362.514119 158.073127  L 366.116913 161.147321  L 369.719707 163.973187  L 373.322501 166.570797  L 376.925294 168.958567  L 380.528088 171.153241  L 385.932279 174.115924  L 391.33647 176.722942  L 396.74066 179.013063  L 402.144851 181.01994  L 407.549042 182.773152  L 412.953233 184.299045  L 418.357423 185.62136  L 423.761614 186.76165  L 430.967202 188.032565  L 438.172789 189.056238  L 445.378377 189.86891  L 447.179774 190.042839  L 448.981171 190.042839  L 448.981171 190.042839  " style="fill:none;stroke:#008080;stroke-linecap:square;stroke-width:2;"/>
   </g>
   <g id="patch_3">
    <path d="M 63.182 300.76  L 63.182 13.32  " style="fill:none;stroke:#000000;stroke-linecap:square;stroke-linejoin:miter;stroke-width:0.8;"/>
   </g>
   <g id="patch_4">
    <path d="M 447.48 300.76  L 447.48 13.32  " style="fill:none;stroke:#000000;stroke-linecap:square;stroke-linejoin:miter;stroke-width:0.8;"/>
   </g>
   <g id="patch_5">
    <path d="M 63.182 300.76  L 447.48 300.76  " style="fill:none;stroke:#000000;stroke-linecap:square;stroke-linejoin:miter;stroke-width:0.8;"/>
   </g>
   <g id="patch_6">
    <path d="M 63.182 13.32  L 447.48 13.32  " style="fill:none;stroke:#000000;stroke-linecap:square;stroke-linejoin:miter;stroke-width:0.8;"/>
   </g>
   <g id="legend_1">
    <g id="patch_7">
     <path d="M 70.182 109.38875  L 137.528875 109.38875  Q 139.528875 109.38875 139.528875 107.38875  L 139.528875 20.32  Q 139.528875 18.32 137.528875 18.32  L 70.182 18.32  Q 68.182 18.32 68.182 20.32  L 68.182 107.38875  Q 68.182 109.38875 70.182 109.38875  z " style="fill:#ffffff;opacity:0.8;stroke:#cccccc;stroke-linejoin:miter;"/>
    </g>
    <g id="line2d_21"/>
    <g id="line2d_22">
     <g>
      <use style="fill:#e74c3c;stroke:#e74c3c;stroke-linejoin:miter;" x="82.182" xlink:href="#mb9e34f26ab" y="26.418437"/>
     </g>
    </g>
    <g id="text_17">
     <!-- exp-Sn -->
     <defs>
      <path d="M 18.109375 8.203125  L 18.109375 -20.796875  L 9.078125 -20.796875  L 9.078125 54.6875  L 18.109375 54.6875  L 18.109375 46.390625  Q 20.953125 51.265625 25.265625 53.625  Q 29.59375 56 35.59375 56  Q 45.5625 56 51.78125 48.09375  Q 58.015625 40.1875 58.015625 27.296875  Q 58.015625 14.40625 51.78125 6.484375  Q 45.5625 -1.421875 35.59375 -1.421875  Q 29.59375 -1.421875 25.265625 0.953125  Q 20.953125 3.328125 18.109375 8.203125  z M 48.6875 27.296875  Q 48.6875 37.203125 44.609375 42.84375  Q 40.53125 48.484375 33.40625 48.484375  Q 26.265625 48.484375 22.1875 42.84375  Q 18.109375 37.203125 18.109375 27.296875  Q 18.109375 17.390625 22.1875 11.75  Q 26.265625 6.109375 33.40625 6.109375  Q 40.53125 6.109375 44.609375 11.75  Q 48.6875 17.390625 48.6875 27.296875  z " id="DejaVuSans-70"/>
      <path d="M 53.515625 70.515625  L 53.515625 60.890625  Q 47.90625 63.578125 42.921875 64.890625  Q 37.9375 66.21875 33.296875 66.21875  Q 25.25 66.21875 20.875 63.09375  Q 16.5 59.96875 16.5 54.203125  Q 16.5 49.359375 19.40625 46.890625  Q 22.3125 44.4375 30.421875 42.921875  L 36.375 41.703125  Q 47.40625 39.59375 52.65625 34.296875  Q 57.90625 29 57.90625 20.125  Q 57.90625 9.515625 50.796875 4.046875  Q 43.703125 -1.421875 29.984375 -1.421875  Q 24.8125 -1.421875 18.96875 -0.25  Q 13.140625 0.921875 6.890625 3.21875  L 6.890625 13.375  Q 12.890625 10.015625 18.65625 8.296875  Q 24.421875 6.59375 29.984375 6.59375  Q 38.421875 6.59375 43.015625 9.90625  Q 47.609375 13.234375 47.609375 19.390625  Q 47.609375 24.75 44.3125 27.78125  Q 41.015625 30.8125 33.5 32.328125  L 27.484375 33.5  Q 16.453125 35.6875 11.515625 40.375  Q 6.59375 45.0625 6.59375 53.421875  Q 6.59375 63.09375 13.40625 68.65625  Q 20.21875 74.21875 32.171875 74.21875  Q 37.3125 74.21875 42.625 73.28125  Q 47.953125 72.359375 53.515625 70.515625  z " id="DejaVuSans-53"/>
     </defs>
     <g transform="translate(100.182 29.918437)scale(0.1 -0.1)">
      <use xlink:href="#DejaVuSans-65"/>
      <use x="61.507812" xlink:href="#DejaVuSans-78"/>
      <use x="120.6875" xlink:href="#DejaVuSans-70"/>
      <use x="184.164062" xlink:href="#DejaVuSans-2d"/>
      <use x="220.248047" xlink:href="#DejaVuSans-53"/>
      <use x="283.724609" xlink:href="#DejaVuSans-6e"/>
     </g>
    </g>
    <g id="line2d_23"/>
    <g id="line2d_24">
     <g>
      <use style="fill:#808000;stroke:#808000;stroke-linejoin:bevel;" x="82.182" xlink:href="#m5bbb4a2872" y="41.096563"/>
     </g>
    </g>
    <g id="text_18">
     <!-- exp-Ag -->
     <defs>
      <path d="M 34.1875 63.1875  L 20.796875 26.90625  L 47.609375 26.90625  z M 28.609375 72.90625  L 39.796875 72.90625  L 67.578125 0  L 57.328125 0  L 50.6875 18.703125  L 17.828125 18.703125  L 11.1875 0  L 0.78125 0  z " id="DejaVuSans-41"/>
      <path d="M 45.40625 27.984375  Q 45.40625 37.75 41.375 43.109375  Q 37.359375 48.484375 30.078125 48.484375  Q 22.859375 48.484375 18.828125 43.109375  Q 14.796875 37.75 14.796875 27.984375  Q 14.796875 18.265625 18.828125 12.890625  Q 22.859375 7.515625 30.078125 7.515625  Q 37.359375 7.515625 41.375 12.890625  Q 45.40625 18.265625 45.40625 27.984375  z M 54.390625 6.78125  Q 54.390625 -7.171875 48.1875 -13.984375  Q 42 -20.796875 29.203125 -20.796875  Q 24.46875 -20.796875 20.265625 -20.09375  Q 16.0625 -19.390625 12.109375 -17.921875  L 12.109375 -9.1875  Q 16.0625 -11.328125 19.921875 -12.34375  Q 23.78125 -13.375 27.78125 -13.375  Q 36.625 -13.375 41.015625 -8.765625  Q 45.40625 -4.15625 45.40625 5.171875  L 45.40625 9.625  Q 42.625 4.78125 38.28125 2.390625  Q 33.9375 0 27.875 0  Q 17.828125 0 11.671875 7.65625  Q 5.515625 15.328125 5.515625 27.984375  Q 5.515625 40.671875 11.671875 48.328125  Q 17.828125 56 27.875 56  Q 33.9375 56 38.28125 53.609375  Q 42.625 51.21875 45.40625 46.390625  L 45.40625 54.6875  L 54.390625 54.6875  z " id="DejaVuSans-67"/>
     </defs>
     <g transform="translate(100.182 44.596563)scale(0.1 -0.1)">
      <use xlink:href="#DejaVuSans-65"/>
      <use x="61.507812" xlink:href="#DejaVuSans-78"/>
      <use x="120.6875" xlink:href="#DejaVuSans-70"/>
      <use x="184.164062" xlink:href="#DejaVuSans-2d"/>
      <use x="220.216797" xlink:href="#DejaVuSans-41"/>
      <use x="288.625" xlink:href="#DejaVuSans-67"/>
     </g>
    </g>
    <g id="line2d_25"/>
    <g id="line2d_26">
     <g>
      <use style="fill:#008080;stroke:#008080;" x="82.182" xlink:href="#m04260ceb3d" y="55.774687"/>
     </g>
    </g>
    <g id="text_19">
     <!-- exp-Cu -->
     <defs>
      <path d="M 64.40625 67.28125  L 64.40625 56.890625  Q 59.421875 61.53125 53.78125 63.8125  Q 48.140625 66.109375 41.796875 66.109375  Q 29.296875 66.109375 22.65625 58.46875  Q 16.015625 50.828125 16.015625 36.375  Q 16.015625 21.96875 22.65625 14.328125  Q 29.296875 6.6875 41.796875 6.6875  Q 48.140625 6.6875 53.78125 8.984375  Q 59.421875 11.28125 64.40625 15.921875  L 64.40625 5.609375  Q 59.234375 2.09375 53.4375 0.328125  Q 47.65625 -1.421875 41.21875 -1.421875  Q 24.65625 -1.421875 15.125 8.703125  Q 5.609375 18.84375 5.609375 36.375  Q 5.609375 53.953125 15.125 64.078125  Q 24.65625 74.21875 41.21875 74.21875  Q 47.75 74.21875 53.53125 72.484375  Q 59.328125 70.75 64.40625 67.28125  z " id="DejaVuSans-43"/>
     </defs>
     <g transform="translate(100.182 59.274687)scale(0.1 -0.1)">
      <use xlink:href="#DejaVuSans-65"/>
      <use x="61.507812" xlink:href="#DejaVuSans-78"/>
      <use x="120.6875" xlink:href="#DejaVuSans-70"/>
      <use x="184.164062" xlink:href="#DejaVuSans-2d"/>
      <use x="220.248047" xlink:href="#DejaVuSans-43"/>
      <use x="290.072266" xlink:href="#DejaVuSans-75"/>
     </g>
    </g>
    <g id="line2d_27">
     <path d="M 72.182 70.452812  L 92.182 70.452812  " style="fill:none;stroke:#e74c3c;stroke-linecap:square;stroke-width:2;"/>
    </g>
    <g id="line2d_28"/>
    <g id="text_20">
     <!-- sim-Sn -->
     <g transform="translate(100.182 73.952812)scale(0.1 -0.1)">
      <use xlink:href="#DejaVuSans-73"/>
      <use x="52.099609" xlink:href="#DejaVuSans-69"/>
      <use x="79.882812" xlink:href="#DejaVuSans-6d"/>
      <use x="177.294922" xlink:href="#DejaVuSans-2d"/>
      <use x="213.378906" xlink:href="#DejaVuSans-53"/>
      <use x="276.855469" xlink:href="#DejaVuSans-6e"/>
     </g>
    </g>
    <g id="line2d_29">
     <path d="M 72.182 85.130938  L 92.182 85.130938  " style="fill:none;stroke:#808000;stroke-linecap:square;stroke-width:2;"/>
    </g>
    <g id="line2d_30"/>
    <g id="text_21">
     <!-- sim-Ag -->
     <g transform="translate(100.182 88.630938)scale(0.1 -0.1)">
      <use xlink:href="#DejaVuSans-73"/>
      <use x="52.099609" xlink:href="#DejaVuSans-69"/>
      <use x="79.882812" xlink:href="#DejaVuSans-6d"/>
      <use x="177.294922" xlink:href="#DejaVuSans-2d"/>
      <use x="213.347656" xlink:href="#DejaVuSans-41"/>
      <use x="281.755859" xlink:href="#DejaVuSans-67"/>
     </g>
    </g>
    <g id="line2d_31">
     <path d="M 72.182 99.809062  L 92.182 99.809062  " style="fill:none;stroke:#008080;stroke-linecap:square;stroke-width:2;"/>
    </g>
    <g id="line2d_32"/>
    <g id="text_22">
     <!-- sim-Cu -->
     <g transform="translate(100.182 103.309062)scale(0.1 -0.1)">
      <use xlink:href="#DejaVuSans-73"/>
      <use x="52.099609" xlink:href="#DejaVuSans-69"/>
      <use x="79.882812" xlink:href="#DejaVuSans-6d"/>
      <use x="177.294922" xlink:href="#DejaVuSans-2d"/>
      <use x="213.378906" xlink:href="#DejaVuSans-43"/>
      <use x="283.203125" xlink:href="#DejaVuSans-75"/>
     </g>
    </g>
   </g>
  </g>
 </g>
 <defs>
  <clipPath id="p4b53669af4">
   <rect height="287.44" width="384.298" x="63.182" y="13.32"/>
  </clipPath>
 </defs>
</g>
    <g transform="translate(10, 300) scale(1) ">
      <g transform="translate(0, 0) scale(3.0) "><defs id="defs831"/>
  <sodipodi:namedview xmlns:sodipodi="http://sodipodi.sourceforge.net/DTD/sodipodi-0.dtd" xmlns:inkscape="http://www.inkscape.org/namespaces/inkscape" id="base" pagecolor="#ffffff" bordercolor="#666666" borderopacity="1.0" inkscape:pageopacity="0.0" inkscape:pageshadow="2" inkscape:zoom="1.979899" inkscape:cx="-12.763683" inkscape:cy="-16.680883" inkscape:document-units="mm" inkscape:current-layer="layer1" showgrid="false" inkscape:window-width="1920" inkscape:window-height="1001" inkscape:window-x="-9" inkscape:window-y="-9" inkscape:window-maximized="1" units="pt"/>
  <metadata xmlns:rdf="http://www.w3.org/1999/02/22-rdf-syntax-ns#" xmlns:cc="http://creativecommons.org/ns#" xmlns:dc="http://purl.org/dc/elements/1.1/" id="metadata834">
    <rdf:RDF>
      <cc:Work rdf:about="">
        <dc:format>image/svg+xml</dc:format>
        <dc:type rdf:resource="http://purl.org/dc/dcmitype/StillImage"/>
        <dc:title/>
      </cc:Work>
    </rdf:RDF>
  </metadata>
  <g xmlns:inkscape="http://www.inkscape.org/namespaces/inkscape" xmlns:sodipodi="http://sodipodi.sourceforge.net/DTD/sodipodi-0.dtd" inkscape:label="Layer 1" inkscape:groupmode="layer" id="layer1" transform="translate(0,-288.81557)">
    <g id="g4761" transform="matrix(0.07377843,0,0,0.07377843,-0.76923022,275.45946)">
      <path inkscape:connector-curvature="0" id="path1959-6-7-1-6-5-4-0-3-2-6-0-3-9-6" style="font-style:normal;font-variant:normal;font-weight:bold;font-stretch:normal;font-size:120.99466705px;line-height:1.25;font-family:Aharoni;-inkscape-font-specification:'Aharoni, Bold';font-variant-ligatures:normal;font-variant-caps:normal;font-variant-numeric:normal;font-feature-settings:normal;text-align:start;letter-spacing:0px;word-spacing:0px;writing-mode:lr-tb;text-anchor:start;fill:#000000;fill-opacity:1;stroke:none;stroke-width:2.37649584" d="M 52.937412,287.55677 H 40.587702 V 265.43005 H 22.776041 v 22.12672 h -12.34982 v -53.17432 h 12.34982 v 20.5296 h 17.811661 v -20.5296 h 12.34971 z"/>
      <path inkscape:connector-curvature="0" id="path1961-2-9-7-9-3-1-6-5-1-5-8-7-8-2" style="font-style:normal;font-variant:normal;font-weight:bold;font-stretch:normal;font-size:120.99466705px;line-height:1.25;font-family:Aharoni;-inkscape-font-specification:'Aharoni, Bold';font-variant-ligatures:normal;font-variant-caps:normal;font-variant-numeric:normal;font-feature-settings:normal;text-align:start;letter-spacing:0px;word-spacing:0px;writing-mode:lr-tb;text-anchor:start;fill:#000000;fill-opacity:1;stroke:none;stroke-width:2.37649584" d="m 69.681125,237.49895 q 0,3.0385 -1.87856,5.1421 -1.84375,2.0647 -4.55721,2.0647 -2.67866,0 -4.55722,-2.1036 -1.84375,-2.1036 -1.84375,-5.1032 0,-2.9996 1.84375,-5.0642 1.87856,-2.1036 4.55722,-2.1036 2.67865,0 4.55721,2.1036 1.87856,2.0646 1.87856,5.0642 z m -0.73057,50.05782 h -11.41048 v -36.15072 h 11.41048 z"/>
      <path inkscape:connector-curvature="0" id="path1963-3-1-2-8-3-6-3-3-3-4-7-6-0-8" style="font-style:normal;font-variant:normal;font-weight:bold;font-stretch:normal;font-size:120.99466705px;line-height:1.25;font-family:Aharoni;-inkscape-font-specification:'Aharoni, Bold';font-variant-ligatures:normal;font-variant-caps:normal;font-variant-numeric:normal;font-feature-settings:normal;text-align:start;letter-spacing:0px;word-spacing:0px;writing-mode:lr-tb;text-anchor:start;fill:#000000;fill-opacity:1;stroke:none;stroke-width:2.37649584" d="m 93.369625,261.92405 h -6.50536 v 25.63272 h -11.4104 v -25.63272 h -3.75712 v -10.518 h 3.75712 v -10.8686 h 11.4104 v 10.8686 h 6.50536 z"/>
      <path id="path1967-3-3-6-2-9-6-2-5-3-0-9-8-2-1" style="font-style:normal;font-variant:normal;font-weight:bold;font-stretch:normal;font-size:120.99466705px;line-height:1.25;font-family:Aharoni;-inkscape-font-specification:'Aharoni, Bold';font-variant-ligatures:normal;font-variant-caps:normal;font-variant-numeric:normal;font-feature-settings:normal;text-align:start;letter-spacing:0px;word-spacing:0px;writing-mode:lr-tb;text-anchor:start;fill:#000000;fill-opacity:1;stroke:none;stroke-width:2.37649584" d="m 160.61447,287.55677 h -12.34971 v -53.17432 h 12.34971 z" inkscape:connector-curvature="0"/>
      <path inkscape:connector-curvature="0" id="path1969-8-0-8-5-3-5-6-6-3-9-8-6-2-0" style="font-style:normal;font-variant:normal;font-weight:bold;font-stretch:normal;font-size:120.99466705px;line-height:1.25;font-family:Aharoni;-inkscape-font-specification:'Aharoni, Bold';font-variant-ligatures:normal;font-variant-caps:normal;font-variant-numeric:normal;font-feature-settings:normal;text-align:start;letter-spacing:0px;word-spacing:0px;writing-mode:lr-tb;text-anchor:start;fill:#000000;fill-opacity:1;stroke:none;stroke-width:2.37649584" d="m 201.6896,284.86883 q -6.05314,2.68794 -11.20172,2.68794 -8.97528,0 -16.07201,-6.42764 -9.04489,-8.21959 -9.04489,-21.42558 0,-13.2448 9.04489,-21.4644 7.09673,-6.4277 16.17636,-6.4277 4.93989,0 11.09737,2.6879 v 16.5561 q -1.73941,-2.3763 -3.54836,-3.5839 -3.30489,-2.2204 -7.09679,-2.2204 -4.8007,0 -8.34907,3.2333 -4.48766,4.0903 -4.48766,11.2191 0,7.0899 4.48766,11.1803 3.54837,3.23328 8.34907,3.23328 3.7919,0 7.09679,-2.22049 1.77415,-1.16869 3.54836,-3.58389 z"/>
      <path inkscape:transform-center-y="-13.656107" inkscape:transform-center-x="-3.9758045" sodipodi:nodetypes="csssssc" inkscape:connector-curvature="0" id="rect815-3-0-9-3-5-6-0-4-03-7-3-7-5-3-2-76-3-8-8-5-3-7-8-0-1-3-7-9-2-8-1" d="m 104.61223,181.4353 c 0,0 17.68257,27.27493 22.63096,34.41579 7.92879,11.44185 16.42741,30.36094 17.92806,45.50275 1.21005,12.20999 -1.38345,26.51285 -17.32077,30.11208 -11.70405,2.64313 -26.75007,-5.41371 -30.334975,-20.50903 -3.30533,-13.91816 -2.13088,-34.61412 0.0984,-48.67354 1.22049,-7.69719 5.657305,-36.06774 6.998335,-40.84805 z" style="font-style:normal;font-weight:normal;font-size:242.08590698px;line-height:1.25;font-family:sans-serif;letter-spacing:0px;word-spacing:0px;opacity:1;fill:#00456b;fill-opacity:1;stroke:none;stroke-width:0.6720385;stroke-miterlimit:4;stroke-dasharray:none;stroke-dashoffset:0;stroke-opacity:1;paint-order:markers fill stroke"/>
      <path sodipodi:nodetypes="ccscscsccscccscc" d="m 107.52748,246.32531 6.45576,30.78617 6.82019,-1.47997 c 5.75791,-1.24946 9.70999,-3.40081 11.85576,-6.45394 2.16431,-3.05721 2.68673,-7.25521 1.56721,-12.59398 -1.11209,-5.30332 -3.26743,-8.89247 -6.46601,-10.76744 -3.18372,-1.89669 -7.65528,-2.22015 -13.4127,-0.97081 z m -8.759905,-5.09591 12.713095,-2.78742 c 8.8634,-1.94336 15.73718,-1.59097 20.62135,1.05715 4.88003,2.62843 8.10326,7.71587 9.6697,15.26232 1.57464,7.58584 0.64804,13.61405 -2.77981,18.08462 -3.42783,4.4705 -9.55303,7.67294 -18.37559,9.60735 l -12.71311,2.78742 z" style="font-style:normal;font-weight:normal;font-size:242.08590698px;line-height:1.25;font-family:sans-serif;letter-spacing:0px;word-spacing:0px;fill:#ffffff;fill-opacity:1;stroke:none;stroke-width:1.60286868" id="path1193-3-5-3-2-7-4-5-6-0-0-6-9-2-4-7-0-0" inkscape:connector-curvature="0"/>
    </g>
  </g>
</g>
    </g>
  </g>
</svg>
