<?xml version='1.0' encoding='ASCII' standalone='yes'?>
<svg xmlns:xlink="http://www.w3.org/1999/xlink" xmlns="http://www.w3.org/2000/svg" version="1.1" width="460.8px" viewBox="0 0 460.8px 345.6px" height="345.6px">
  <g>
    <g><defs>
  <style type="text/css">
*{stroke-linecap:butt;stroke-linejoin:round;}
  </style>
 </defs>
 <g id="figure_1">
  <g id="patch_1">
   <path d="M 0 345.6  L 460.8 345.6  L 460.8 0  L 0 0  z " style="fill:#ffffff;"/>
  </g>
  <g id="axes_1">
   <g id="patch_2">
    <path d="M 63.272 300.76  L 437.4 300.76  L 437.4 13.32  L 63.272 13.32  z " style="fill:#ffffff;"/>
   </g>
   <g id="matplotlib.axis_1">
    <g id="xtick_1">
     <g id="line2d_1">
      <defs>
       <path d="M 0 0  L 0 3.5  " id="m3b5fa5c386" style="stroke:#000000;stroke-width:0.8;"/>
      </defs>
      <g>
       <use style="stroke:#000000;stroke-width:0.8;" x="63.272" xlink:href="#m3b5fa5c386" y="300.76"/>
      </g>
     </g>
     <g id="text_1">
      <!-- 0 -->
      <defs>
       <path d="M 31.78125 66.40625  Q 24.171875 66.40625 20.328125 58.90625  Q 16.5 51.421875 16.5 36.375  Q 16.5 21.390625 20.328125 13.890625  Q 24.171875 6.390625 31.78125 6.390625  Q 39.453125 6.390625 43.28125 13.890625  Q 47.125 21.390625 47.125 36.375  Q 47.125 51.421875 43.28125 58.90625  Q 39.453125 66.40625 31.78125 66.40625  z M 31.78125 74.21875  Q 44.046875 74.21875 50.515625 64.515625  Q 56.984375 54.828125 56.984375 36.375  Q 56.984375 17.96875 50.515625 8.265625  Q 44.046875 -1.421875 31.78125 -1.421875  Q 19.53125 -1.421875 13.0625 8.265625  Q 6.59375 17.96875 6.59375 36.375  Q 6.59375 54.828125 13.0625 64.515625  Q 19.53125 74.21875 31.78125 74.21875  z " id="DejaVuSans-30"/>
      </defs>
      <g transform="translate(60.09075 315.358437)scale(0.1 -0.1)">
       <use xlink:href="#DejaVuSans-30"/>
      </g>
     </g>
    </g>
    <g id="xtick_2">
     <g id="line2d_2">
      <g>
       <use style="stroke:#000000;stroke-width:0.8;" x="110.038" xlink:href="#m3b5fa5c386" y="300.76"/>
      </g>
     </g>
     <g id="text_2">
      <!-- 250 -->
      <defs>
       <path d="M 19.1875 8.296875  L 53.609375 8.296875  L 53.609375 0  L 7.328125 0  L 7.328125 8.296875  Q 12.9375 14.109375 22.625 23.890625  Q 32.328125 33.6875 34.8125 36.53125  Q 39.546875 41.84375 41.421875 45.53125  Q 43.3125 49.21875 43.3125 52.78125  Q 43.3125 58.59375 39.234375 62.25  Q 35.15625 65.921875 28.609375 65.921875  Q 23.96875 65.921875 18.8125 64.3125  Q 13.671875 62.703125 7.8125 59.421875  L 7.8125 69.390625  Q 13.765625 71.78125 18.9375 73  Q 24.125 74.21875 28.421875 74.21875  Q 39.75 74.21875 46.484375 68.546875  Q 53.21875 62.890625 53.21875 53.421875  Q 53.21875 48.921875 51.53125 44.890625  Q 49.859375 40.875 45.40625 35.40625  Q 44.1875 33.984375 37.640625 27.21875  Q 31.109375 20.453125 19.1875 8.296875  z " id="DejaVuSans-32"/>
       <path d="M 10.796875 72.90625  L 49.515625 72.90625  L 49.515625 64.59375  L 19.828125 64.59375  L 19.828125 46.734375  Q 21.96875 47.46875 24.109375 47.828125  Q 26.265625 48.1875 28.421875 48.1875  Q 40.625 48.1875 47.75 41.5  Q 54.890625 34.8125 54.890625 23.390625  Q 54.890625 11.625 47.5625 5.09375  Q 40.234375 -1.421875 26.90625 -1.421875  Q 22.3125 -1.421875 17.546875 -0.640625  Q 12.796875 0.140625 7.71875 1.703125  L 7.71875 11.625  Q 12.109375 9.234375 16.796875 8.0625  Q 21.484375 6.890625 26.703125 6.890625  Q 35.15625 6.890625 40.078125 11.328125  Q 45.015625 15.765625 45.015625 23.390625  Q 45.015625 31 40.078125 35.4375  Q 35.15625 39.890625 26.703125 39.890625  Q 22.75 39.890625 18.8125 39.015625  Q 14.890625 38.140625 10.796875 36.28125  z " id="DejaVuSans-35"/>
      </defs>
      <g transform="translate(100.49425 315.358437)scale(0.1 -0.1)">
       <use xlink:href="#DejaVuSans-32"/>
       <use x="63.623047" xlink:href="#DejaVuSans-35"/>
       <use x="127.246094" xlink:href="#DejaVuSans-30"/>
      </g>
     </g>
    </g>
    <g id="xtick_3">
     <g id="line2d_3">
      <g>
       <use style="stroke:#000000;stroke-width:0.8;" x="156.804" xlink:href="#m3b5fa5c386" y="300.76"/>
      </g>
     </g>
     <g id="text_3">
      <!-- 500 -->
      <g transform="translate(147.26025 315.358437)scale(0.1 -0.1)">
       <use xlink:href="#DejaVuSans-35"/>
       <use x="63.623047" xlink:href="#DejaVuSans-30"/>
       <use x="127.246094" xlink:href="#DejaVuSans-30"/>
      </g>
     </g>
    </g>
    <g id="xtick_4">
     <g id="line2d_4">
      <g>
       <use style="stroke:#000000;stroke-width:0.8;" x="203.57" xlink:href="#m3b5fa5c386" y="300.76"/>
      </g>
     </g>
     <g id="text_4">
      <!-- 750 -->
      <defs>
       <path d="M 8.203125 72.90625  L 55.078125 72.90625  L 55.078125 68.703125  L 28.609375 0  L 18.3125 0  L 43.21875 64.59375  L 8.203125 64.59375  z " id="DejaVuSans-37"/>
      </defs>
      <g transform="translate(194.02625 315.358437)scale(0.1 -0.1)">
       <use xlink:href="#DejaVuSans-37"/>
       <use x="63.623047" xlink:href="#DejaVuSans-35"/>
       <use x="127.246094" xlink:href="#DejaVuSans-30"/>
      </g>
     </g>
    </g>
    <g id="xtick_5">
     <g id="line2d_5">
      <g>
       <use style="stroke:#000000;stroke-width:0.8;" x="250.336" xlink:href="#m3b5fa5c386" y="300.76"/>
      </g>
     </g>
     <g id="text_5">
      <!-- 1000 -->
      <defs>
       <path d="M 12.40625 8.296875  L 28.515625 8.296875  L 28.515625 63.921875  L 10.984375 60.40625  L 10.984375 69.390625  L 28.421875 72.90625  L 38.28125 72.90625  L 38.28125 8.296875  L 54.390625 8.296875  L 54.390625 0  L 12.40625 0  z " id="DejaVuSans-31"/>
      </defs>
      <g transform="translate(237.611 315.358437)scale(0.1 -0.1)">
       <use xlink:href="#DejaVuSans-31"/>
       <use x="63.623047" xlink:href="#DejaVuSans-30"/>
       <use x="127.246094" xlink:href="#DejaVuSans-30"/>
       <use x="190.869141" xlink:href="#DejaVuSans-30"/>
      </g>
     </g>
    </g>
    <g id="xtick_6">
     <g id="line2d_6">
      <g>
       <use style="stroke:#000000;stroke-width:0.8;" x="297.102" xlink:href="#m3b5fa5c386" y="300.76"/>
      </g>
     </g>
     <g id="text_6">
      <!-- 1250 -->
      <g transform="translate(284.377 315.358437)scale(0.1 -0.1)">
       <use xlink:href="#DejaVuSans-31"/>
       <use x="63.623047" xlink:href="#DejaVuSans-32"/>
       <use x="127.246094" xlink:href="#DejaVuSans-35"/>
       <use x="190.869141" xlink:href="#DejaVuSans-30"/>
      </g>
     </g>
    </g>
    <g id="xtick_7">
     <g id="line2d_7">
      <g>
       <use style="stroke:#000000;stroke-width:0.8;" x="343.868" xlink:href="#m3b5fa5c386" y="300.76"/>
      </g>
     </g>
     <g id="text_7">
      <!-- 1500 -->
      <g transform="translate(331.143 315.358437)scale(0.1 -0.1)">
       <use xlink:href="#DejaVuSans-31"/>
       <use x="63.623047" xlink:href="#DejaVuSans-35"/>
       <use x="127.246094" xlink:href="#DejaVuSans-30"/>
       <use x="190.869141" xlink:href="#DejaVuSans-30"/>
      </g>
     </g>
    </g>
    <g id="xtick_8">
     <g id="line2d_8">
      <g>
       <use style="stroke:#000000;stroke-width:0.8;" x="390.634" xlink:href="#m3b5fa5c386" y="300.76"/>
      </g>
     </g>
     <g id="text_8">
      <!-- 1750 -->
      <g transform="translate(377.909 315.358437)scale(0.1 -0.1)">
       <use xlink:href="#DejaVuSans-31"/>
       <use x="63.623047" xlink:href="#DejaVuSans-37"/>
       <use x="127.246094" xlink:href="#DejaVuSans-35"/>
       <use x="190.869141" xlink:href="#DejaVuSans-30"/>
      </g>
     </g>
    </g>
    <g id="xtick_9">
     <g id="line2d_9">
      <g>
       <use style="stroke:#000000;stroke-width:0.8;" x="437.4" xlink:href="#m3b5fa5c386" y="300.76"/>
      </g>
     </g>
     <g id="text_9">
      <!-- 2000 -->
      <g transform="translate(424.675 315.358437)scale(0.1 -0.1)">
       <use xlink:href="#DejaVuSans-32"/>
       <use x="63.623047" xlink:href="#DejaVuSans-30"/>
       <use x="127.246094" xlink:href="#DejaVuSans-30"/>
       <use x="190.869141" xlink:href="#DejaVuSans-30"/>
      </g>
     </g>
    </g>
    <g id="text_10">
     <!-- Distance ($\mu$m) -->
     <defs>
      <path d="M 19.671875 64.796875  L 19.671875 8.109375  L 31.59375 8.109375  Q 46.6875 8.109375 53.6875 14.9375  Q 60.6875 21.78125 60.6875 36.53125  Q 60.6875 51.171875 53.6875 57.984375  Q 46.6875 64.796875 31.59375 64.796875  z M 9.8125 72.90625  L 30.078125 72.90625  Q 51.265625 72.90625 61.171875 64.09375  Q 71.09375 55.28125 71.09375 36.53125  Q 71.09375 17.671875 61.125 8.828125  Q 51.171875 0 30.078125 0  L 9.8125 0  z " id="DejaVuSans-44"/>
      <path d="M 9.421875 54.6875  L 18.40625 54.6875  L 18.40625 0  L 9.421875 0  z M 9.421875 75.984375  L 18.40625 75.984375  L 18.40625 64.59375  L 9.421875 64.59375  z " id="DejaVuSans-69"/>
      <path d="M 44.28125 53.078125  L 44.28125 44.578125  Q 40.484375 46.53125 36.375 47.5  Q 32.28125 48.484375 27.875 48.484375  Q 21.1875 48.484375 17.84375 46.4375  Q 14.5 44.390625 14.5 40.28125  Q 14.5 37.15625 16.890625 35.375  Q 19.28125 33.59375 26.515625 31.984375  L 29.59375 31.296875  Q 39.15625 29.25 43.1875 25.515625  Q 47.21875 21.78125 47.21875 15.09375  Q 47.21875 7.46875 41.1875 3.015625  Q 35.15625 -1.421875 24.609375 -1.421875  Q 20.21875 -1.421875 15.453125 -0.5625  Q 10.6875 0.296875 5.421875 2  L 5.421875 11.28125  Q 10.40625 8.6875 15.234375 7.390625  Q 20.0625 6.109375 24.8125 6.109375  Q 31.15625 6.109375 34.5625 8.28125  Q 37.984375 10.453125 37.984375 14.40625  Q 37.984375 18.0625 35.515625 20.015625  Q 33.0625 21.96875 24.703125 23.78125  L 21.578125 24.515625  Q 13.234375 26.265625 9.515625 29.90625  Q 5.8125 33.546875 5.8125 39.890625  Q 5.8125 47.609375 11.28125 51.796875  Q 16.75 56 26.8125 56  Q 31.78125 56 36.171875 55.265625  Q 40.578125 54.546875 44.28125 53.078125  z " id="DejaVuSans-73"/>
      <path d="M 18.3125 70.21875  L 18.3125 54.6875  L 36.8125 54.6875  L 36.8125 47.703125  L 18.3125 47.703125  L 18.3125 18.015625  Q 18.3125 11.328125 20.140625 9.421875  Q 21.96875 7.515625 27.59375 7.515625  L 36.8125 7.515625  L 36.8125 0  L 27.59375 0  Q 17.1875 0 13.234375 3.875  Q 9.28125 7.765625 9.28125 18.015625  L 9.28125 47.703125  L 2.6875 47.703125  L 2.6875 54.6875  L 9.28125 54.6875  L 9.28125 70.21875  z " id="DejaVuSans-74"/>
      <path d="M 34.28125 27.484375  Q 23.390625 27.484375 19.1875 25  Q 14.984375 22.515625 14.984375 16.5  Q 14.984375 11.71875 18.140625 8.90625  Q 21.296875 6.109375 26.703125 6.109375  Q 34.1875 6.109375 38.703125 11.40625  Q 43.21875 16.703125 43.21875 25.484375  L 43.21875 27.484375  z M 52.203125 31.203125  L 52.203125 0  L 43.21875 0  L 43.21875 8.296875  Q 40.140625 3.328125 35.546875 0.953125  Q 30.953125 -1.421875 24.3125 -1.421875  Q 15.921875 -1.421875 10.953125 3.296875  Q 6 8.015625 6 15.921875  Q 6 25.140625 12.171875 29.828125  Q 18.359375 34.515625 30.609375 34.515625  L 43.21875 34.515625  L 43.21875 35.40625  Q 43.21875 41.609375 39.140625 45  Q 35.0625 48.390625 27.6875 48.390625  Q 23 48.390625 18.546875 47.265625  Q 14.109375 46.140625 10.015625 43.890625  L 10.015625 52.203125  Q 14.9375 54.109375 19.578125 55.046875  Q 24.21875 56 28.609375 56  Q 40.484375 56 46.34375 49.84375  Q 52.203125 43.703125 52.203125 31.203125  z " id="DejaVuSans-61"/>
      <path d="M 54.890625 33.015625  L 54.890625 0  L 45.90625 0  L 45.90625 32.71875  Q 45.90625 40.484375 42.875 44.328125  Q 39.84375 48.1875 33.796875 48.1875  Q 26.515625 48.1875 22.3125 43.546875  Q 18.109375 38.921875 18.109375 30.90625  L 18.109375 0  L 9.078125 0  L 9.078125 54.6875  L 18.109375 54.6875  L 18.109375 46.1875  Q 21.34375 51.125 25.703125 53.5625  Q 30.078125 56 35.796875 56  Q 45.21875 56 50.046875 50.171875  Q 54.890625 44.34375 54.890625 33.015625  z " id="DejaVuSans-6e"/>
      <path d="M 48.78125 52.59375  L 48.78125 44.1875  Q 44.96875 46.296875 41.140625 47.34375  Q 37.3125 48.390625 33.40625 48.390625  Q 24.65625 48.390625 19.8125 42.84375  Q 14.984375 37.3125 14.984375 27.296875  Q 14.984375 17.28125 19.8125 11.734375  Q 24.65625 6.203125 33.40625 6.203125  Q 37.3125 6.203125 41.140625 7.25  Q 44.96875 8.296875 48.78125 10.40625  L 48.78125 2.09375  Q 45.015625 0.34375 40.984375 -0.53125  Q 36.96875 -1.421875 32.421875 -1.421875  Q 20.0625 -1.421875 12.78125 6.34375  Q 5.515625 14.109375 5.515625 27.296875  Q 5.515625 40.671875 12.859375 48.328125  Q 20.21875 56 33.015625 56  Q 37.15625 56 41.109375 55.140625  Q 45.0625 54.296875 48.78125 52.59375  z " id="DejaVuSans-63"/>
      <path d="M 56.203125 29.59375  L 56.203125 25.203125  L 14.890625 25.203125  Q 15.484375 15.921875 20.484375 11.0625  Q 25.484375 6.203125 34.421875 6.203125  Q 39.59375 6.203125 44.453125 7.46875  Q 49.3125 8.734375 54.109375 11.28125  L 54.109375 2.78125  Q 49.265625 0.734375 44.1875 -0.34375  Q 39.109375 -1.421875 33.890625 -1.421875  Q 20.796875 -1.421875 13.15625 6.1875  Q 5.515625 13.8125 5.515625 26.8125  Q 5.515625 40.234375 12.765625 48.109375  Q 20.015625 56 32.328125 56  Q 43.359375 56 49.78125 48.890625  Q 56.203125 41.796875 56.203125 29.59375  z M 47.21875 32.234375  Q 47.125 39.59375 43.09375 43.984375  Q 39.0625 48.390625 32.421875 48.390625  Q 24.90625 48.390625 20.390625 44.140625  Q 15.875 39.890625 15.1875 32.171875  z " id="DejaVuSans-65"/>
      <path id="DejaVuSans-20"/>
      <path d="M 31 75.875  Q 24.46875 64.65625 21.28125 53.65625  Q 18.109375 42.671875 18.109375 31.390625  Q 18.109375 20.125 21.3125 9.0625  Q 24.515625 -2 31 -13.1875  L 23.1875 -13.1875  Q 15.875 -1.703125 12.234375 9.375  Q 8.59375 20.453125 8.59375 31.390625  Q 8.59375 42.28125 12.203125 53.3125  Q 15.828125 64.359375 23.1875 75.875  z " id="DejaVuSans-28"/>
      <path d="M -1.3125 -20.796875  L 13.375 54.6875  L 22.40625 54.6875  L 15.765625 20.65625  Q 15.578125 19.625 15.421875 18.359375  Q 15.28125 17.09375 15.28125 15.828125  Q 15.28125 11.28125 18.140625 8.828125  Q 21 6.390625 26.3125 6.390625  Q 33.546875 6.390625 37.984375 10.484375  Q 42.4375 14.59375 44 22.796875  L 50.203125 54.6875  L 59.1875 54.6875  L 51.03125 12.640625  Q 50.828125 11.71875 50.75 11.03125  Q 50.6875 10.359375 50.6875 9.8125  Q 50.6875 8.296875 51.296875 7.59375  Q 51.90625 6.890625 53.21875 6.890625  Q 53.71875 6.890625 54.5625 7.125  Q 55.421875 7.375 56.984375 8.015625  L 55.609375 0.78125  Q 53.46875 -0.296875 51.515625 -0.859375  Q 49.5625 -1.421875 47.703125 -1.421875  Q 44.484375 -1.421875 42.65625 0.625  Q 40.828125 2.6875 40.828125 6.296875  Q 38.09375 2.390625 34.296875 0.484375  Q 30.515625 -1.421875 25.390625 -1.421875  Q 20.84375 -1.421875 17.453125 0.671875  Q 14.0625 2.78125 12.984375 6.203125  L 7.71875 -20.796875  z " id="DejaVuSans-Oblique-3bc"/>
      <path d="M 52 44.1875  Q 55.375 50.25 60.0625 53.125  Q 64.75 56 71.09375 56  Q 79.640625 56 84.28125 50.015625  Q 88.921875 44.046875 88.921875 33.015625  L 88.921875 0  L 79.890625 0  L 79.890625 32.71875  Q 79.890625 40.578125 77.09375 44.375  Q 74.3125 48.1875 68.609375 48.1875  Q 61.625 48.1875 57.5625 43.546875  Q 53.515625 38.921875 53.515625 30.90625  L 53.515625 0  L 44.484375 0  L 44.484375 32.71875  Q 44.484375 40.625 41.703125 44.40625  Q 38.921875 48.1875 33.109375 48.1875  Q 26.21875 48.1875 22.15625 43.53125  Q 18.109375 38.875 18.109375 30.90625  L 18.109375 0  L 9.078125 0  L 9.078125 54.6875  L 18.109375 54.6875  L 18.109375 46.1875  Q 21.1875 51.21875 25.484375 53.609375  Q 29.78125 56 35.6875 56  Q 41.65625 56 45.828125 52.96875  Q 50 49.953125 52 44.1875  z " id="DejaVuSans-6d"/>
      <path d="M 8.015625 75.875  L 15.828125 75.875  Q 23.140625 64.359375 26.78125 53.3125  Q 30.421875 42.28125 30.421875 31.390625  Q 30.421875 20.453125 26.78125 9.375  Q 23.140625 -1.703125 15.828125 -13.1875  L 8.015625 -13.1875  Q 14.5 -2 17.703125 9.0625  Q 20.90625 20.125 20.90625 31.390625  Q 20.90625 42.671875 17.703125 53.65625  Q 14.5 64.65625 8.015625 75.875  z " id="DejaVuSans-29"/>
     </defs>
     <g transform="translate(214.886 329.038125)scale(0.1 -0.1)">
      <use transform="translate(0 0.015625)" xlink:href="#DejaVuSans-44"/>
      <use transform="translate(77.001953 0.015625)" xlink:href="#DejaVuSans-69"/>
      <use transform="translate(104.785156 0.015625)" xlink:href="#DejaVuSans-73"/>
      <use transform="translate(156.884766 0.015625)" xlink:href="#DejaVuSans-74"/>
      <use transform="translate(196.09375 0.015625)" xlink:href="#DejaVuSans-61"/>
      <use transform="translate(257.373047 0.015625)" xlink:href="#DejaVuSans-6e"/>
      <use transform="translate(320.751953 0.015625)" xlink:href="#DejaVuSans-63"/>
      <use transform="translate(375.732422 0.015625)" xlink:href="#DejaVuSans-65"/>
      <use transform="translate(437.255859 0.015625)" xlink:href="#DejaVuSans-20"/>
      <use transform="translate(469.042969 0.015625)" xlink:href="#DejaVuSans-28"/>
      <use transform="translate(508.056641 0.015625)" xlink:href="#DejaVuSans-Oblique-3bc"/>
      <use transform="translate(571.679688 0.015625)" xlink:href="#DejaVuSans-6d"/>
      <use transform="translate(669.091797 0.015625)" xlink:href="#DejaVuSans-29"/>
     </g>
    </g>
   </g>
   <g id="matplotlib.axis_2">
    <g id="ytick_1">
     <g id="line2d_10">
      <defs>
       <path d="M 0 0  L -3.5 0  " id="m47725b0587" style="stroke:#000000;stroke-width:0.8;"/>
      </defs>
      <g>
       <use style="stroke:#000000;stroke-width:0.8;" x="63.272" xlink:href="#m47725b0587" y="292.30286"/>
      </g>
     </g>
     <g id="text_11">
      <!-- &#8722;600 -->
      <defs>
       <path d="M 10.59375 35.5  L 73.1875 35.5  L 73.1875 27.203125  L 10.59375 27.203125  z " id="DejaVuSans-2212"/>
       <path d="M 33.015625 40.375  Q 26.375 40.375 22.484375 35.828125  Q 18.609375 31.296875 18.609375 23.390625  Q 18.609375 15.53125 22.484375 10.953125  Q 26.375 6.390625 33.015625 6.390625  Q 39.65625 6.390625 43.53125 10.953125  Q 47.40625 15.53125 47.40625 23.390625  Q 47.40625 31.296875 43.53125 35.828125  Q 39.65625 40.375 33.015625 40.375  z M 52.59375 71.296875  L 52.59375 62.3125  Q 48.875 64.0625 45.09375 64.984375  Q 41.3125 65.921875 37.59375 65.921875  Q 27.828125 65.921875 22.671875 59.328125  Q 17.53125 52.734375 16.796875 39.40625  Q 19.671875 43.65625 24.015625 45.921875  Q 28.375 48.1875 33.59375 48.1875  Q 44.578125 48.1875 50.953125 41.515625  Q 57.328125 34.859375 57.328125 23.390625  Q 57.328125 12.15625 50.6875 5.359375  Q 44.046875 -1.421875 33.015625 -1.421875  Q 20.359375 -1.421875 13.671875 8.265625  Q 6.984375 17.96875 6.984375 36.375  Q 6.984375 53.65625 15.1875 63.9375  Q 23.390625 74.21875 37.203125 74.21875  Q 40.921875 74.21875 44.703125 73.484375  Q 48.484375 72.75 52.59375 71.296875  z " id="DejaVuSans-36"/>
      </defs>
      <g transform="translate(28.804813 296.102079)scale(0.1 -0.1)">
       <use xlink:href="#DejaVuSans-2212"/>
       <use x="83.789062" xlink:href="#DejaVuSans-36"/>
       <use x="147.412109" xlink:href="#DejaVuSans-30"/>
       <use x="211.035156" xlink:href="#DejaVuSans-30"/>
      </g>
     </g>
    </g>
    <g id="ytick_2">
     <g id="line2d_11">
      <g>
       <use style="stroke:#000000;stroke-width:0.8;" x="63.272" xlink:href="#m47725b0587" y="251.286193"/>
      </g>
     </g>
     <g id="text_12">
      <!-- &#8722;400 -->
      <defs>
       <path d="M 37.796875 64.3125  L 12.890625 25.390625  L 37.796875 25.390625  z M 35.203125 72.90625  L 47.609375 72.90625  L 47.609375 25.390625  L 58.015625 25.390625  L 58.015625 17.1875  L 47.609375 17.1875  L 47.609375 0  L 37.796875 0  L 37.796875 17.1875  L 4.890625 17.1875  L 4.890625 26.703125  z " id="DejaVuSans-34"/>
      </defs>
      <g transform="translate(28.804813 255.085412)scale(0.1 -0.1)">
       <use xlink:href="#DejaVuSans-2212"/>
       <use x="83.789062" xlink:href="#DejaVuSans-34"/>
       <use x="147.412109" xlink:href="#DejaVuSans-30"/>
       <use x="211.035156" xlink:href="#DejaVuSans-30"/>
      </g>
     </g>
    </g>
    <g id="ytick_3">
     <g id="line2d_12">
      <g>
       <use style="stroke:#000000;stroke-width:0.8;" x="63.272" xlink:href="#m47725b0587" y="210.269527"/>
      </g>
     </g>
     <g id="text_13">
      <!-- &#8722;200 -->
      <g transform="translate(28.804813 214.068745)scale(0.1 -0.1)">
       <use xlink:href="#DejaVuSans-2212"/>
       <use x="83.789062" xlink:href="#DejaVuSans-32"/>
       <use x="147.412109" xlink:href="#DejaVuSans-30"/>
       <use x="211.035156" xlink:href="#DejaVuSans-30"/>
      </g>
     </g>
    </g>
    <g id="ytick_4">
     <g id="line2d_13">
      <g>
       <use style="stroke:#000000;stroke-width:0.8;" x="63.272" xlink:href="#m47725b0587" y="169.25286"/>
      </g>
     </g>
     <g id="text_14">
      <!-- 0 -->
      <g transform="translate(49.9095 173.052079)scale(0.1 -0.1)">
       <use xlink:href="#DejaVuSans-30"/>
      </g>
     </g>
    </g>
    <g id="ytick_5">
     <g id="line2d_14">
      <g>
       <use style="stroke:#000000;stroke-width:0.8;" x="63.272" xlink:href="#m47725b0587" y="128.236193"/>
      </g>
     </g>
     <g id="text_15">
      <!-- 200 -->
      <g transform="translate(37.1845 132.035412)scale(0.1 -0.1)">
       <use xlink:href="#DejaVuSans-32"/>
       <use x="63.623047" xlink:href="#DejaVuSans-30"/>
       <use x="127.246094" xlink:href="#DejaVuSans-30"/>
      </g>
     </g>
    </g>
    <g id="ytick_6">
     <g id="line2d_15">
      <g>
       <use style="stroke:#000000;stroke-width:0.8;" x="63.272" xlink:href="#m47725b0587" y="87.219526"/>
      </g>
     </g>
     <g id="text_16">
      <!-- 400 -->
      <g transform="translate(37.1845 91.018745)scale(0.1 -0.1)">
       <use xlink:href="#DejaVuSans-34"/>
       <use x="63.623047" xlink:href="#DejaVuSans-30"/>
       <use x="127.246094" xlink:href="#DejaVuSans-30"/>
      </g>
     </g>
    </g>
    <g id="ytick_7">
     <g id="line2d_16">
      <g>
       <use style="stroke:#000000;stroke-width:0.8;" x="63.272" xlink:href="#m47725b0587" y="46.20286"/>
      </g>
     </g>
     <g id="text_17">
      <!-- 600 -->
      <g transform="translate(37.1845 50.002078)scale(0.1 -0.1)">
       <use xlink:href="#DejaVuSans-36"/>
       <use x="63.623047" xlink:href="#DejaVuSans-30"/>
       <use x="127.246094" xlink:href="#DejaVuSans-30"/>
      </g>
     </g>
    </g>
    <g id="text_18">
     <!-- Flux (at.-fr.m/s)$\times10^{-14}$ -->
     <defs>
      <path d="M 9.8125 72.90625  L 51.703125 72.90625  L 51.703125 64.59375  L 19.671875 64.59375  L 19.671875 43.109375  L 48.578125 43.109375  L 48.578125 34.8125  L 19.671875 34.8125  L 19.671875 0  L 9.8125 0  z " id="DejaVuSans-46"/>
      <path d="M 9.421875 75.984375  L 18.40625 75.984375  L 18.40625 0  L 9.421875 0  z " id="DejaVuSans-6c"/>
      <path d="M 8.5 21.578125  L 8.5 54.6875  L 17.484375 54.6875  L 17.484375 21.921875  Q 17.484375 14.15625 20.5 10.265625  Q 23.53125 6.390625 29.59375 6.390625  Q 36.859375 6.390625 41.078125 11.03125  Q 45.3125 15.671875 45.3125 23.6875  L 45.3125 54.6875  L 54.296875 54.6875  L 54.296875 0  L 45.3125 0  L 45.3125 8.40625  Q 42.046875 3.421875 37.71875 1  Q 33.40625 -1.421875 27.6875 -1.421875  Q 18.265625 -1.421875 13.375 4.4375  Q 8.5 10.296875 8.5 21.578125  z M 31.109375 56  z " id="DejaVuSans-75"/>
      <path d="M 54.890625 54.6875  L 35.109375 28.078125  L 55.90625 0  L 45.3125 0  L 29.390625 21.484375  L 13.484375 0  L 2.875 0  L 24.125 28.609375  L 4.6875 54.6875  L 15.28125 54.6875  L 29.78125 35.203125  L 44.28125 54.6875  z " id="DejaVuSans-78"/>
      <path d="M 10.6875 12.40625  L 21 12.40625  L 21 0  L 10.6875 0  z " id="DejaVuSans-2e"/>
      <path d="M 4.890625 31.390625  L 31.203125 31.390625  L 31.203125 23.390625  L 4.890625 23.390625  z " id="DejaVuSans-2d"/>
      <path d="M 37.109375 75.984375  L 37.109375 68.5  L 28.515625 68.5  Q 23.6875 68.5 21.796875 66.546875  Q 19.921875 64.59375 19.921875 59.515625  L 19.921875 54.6875  L 34.71875 54.6875  L 34.71875 47.703125  L 19.921875 47.703125  L 19.921875 0  L 10.890625 0  L 10.890625 47.703125  L 2.296875 47.703125  L 2.296875 54.6875  L 10.890625 54.6875  L 10.890625 58.5  Q 10.890625 67.625 15.140625 71.796875  Q 19.390625 75.984375 28.609375 75.984375  z " id="DejaVuSans-66"/>
      <path d="M 41.109375 46.296875  Q 39.59375 47.171875 37.8125 47.578125  Q 36.03125 48 33.890625 48  Q 26.265625 48 22.1875 43.046875  Q 18.109375 38.09375 18.109375 28.8125  L 18.109375 0  L 9.078125 0  L 9.078125 54.6875  L 18.109375 54.6875  L 18.109375 46.1875  Q 20.953125 51.171875 25.484375 53.578125  Q 30.03125 56 36.53125 56  Q 37.453125 56 38.578125 55.875  Q 39.703125 55.765625 41.0625 55.515625  z " id="DejaVuSans-72"/>
      <path d="M 25.390625 72.90625  L 33.6875 72.90625  L 8.296875 -9.28125  L 0 -9.28125  z " id="DejaVuSans-2f"/>
      <path d="M 70.125 53.71875  L 47.796875 31.296875  L 70.125 8.984375  L 64.3125 3.078125  L 41.890625 25.484375  L 19.484375 3.078125  L 13.71875 8.984375  L 35.984375 31.296875  L 13.71875 53.71875  L 19.484375 59.625  L 41.890625 37.203125  L 64.3125 59.625  z " id="DejaVuSans-d7"/>
     </defs>
     <g transform="translate(22.725125 214.04)rotate(-90)scale(0.1 -0.1)">
      <use transform="translate(0 0.684375)" xlink:href="#DejaVuSans-46"/>
      <use transform="translate(57.519531 0.684375)" xlink:href="#DejaVuSans-6c"/>
      <use transform="translate(85.302734 0.684375)" xlink:href="#DejaVuSans-75"/>
      <use transform="translate(148.681641 0.684375)" xlink:href="#DejaVuSans-78"/>
      <use transform="translate(207.861328 0.684375)" xlink:href="#DejaVuSans-20"/>
      <use transform="translate(239.648438 0.684375)" xlink:href="#DejaVuSans-28"/>
      <use transform="translate(278.662109 0.684375)" xlink:href="#DejaVuSans-61"/>
      <use transform="translate(339.941406 0.684375)" xlink:href="#DejaVuSans-74"/>
      <use transform="translate(379.150391 0.684375)" xlink:href="#DejaVuSans-2e"/>
      <use transform="translate(410.9375 0.684375)" xlink:href="#DejaVuSans-2d"/>
      <use transform="translate(447.021484 0.684375)" xlink:href="#DejaVuSans-66"/>
      <use transform="translate(482.226562 0.684375)" xlink:href="#DejaVuSans-72"/>
      <use transform="translate(523.339844 0.684375)" xlink:href="#DejaVuSans-2e"/>
      <use transform="translate(555.033203 0.684375)" xlink:href="#DejaVuSans-6d"/>
      <use transform="translate(652.445312 0.684375)" xlink:href="#DejaVuSans-2f"/>
      <use transform="translate(686.136719 0.684375)" xlink:href="#DejaVuSans-73"/>
      <use transform="translate(738.236328 0.684375)" xlink:href="#DejaVuSans-29"/>
      <use transform="translate(777.25 0.684375)" xlink:href="#DejaVuSans-d7"/>
      <use transform="translate(861.039062 0.684375)" xlink:href="#DejaVuSans-31"/>
      <use transform="translate(924.662109 0.684375)" xlink:href="#DejaVuSans-30"/>
      <use transform="translate(989.242188 38.965625)scale(0.7)" xlink:href="#DejaVuSans-2212"/>
      <use transform="translate(1047.894531 38.965625)scale(0.7)" xlink:href="#DejaVuSans-31"/>
      <use transform="translate(1092.430664 38.965625)scale(0.7)" xlink:href="#DejaVuSans-34"/>
     </g>
    </g>
   </g>
   <g id="line2d_17">
    <defs>
     <path d="M -0 3  L 3 -3  L -3 -3  z " id="m4d993a4dff" style="stroke:#e74c3c;stroke-linejoin:miter;"/>
    </defs>
    <g clip-path="url(#pf22e23c7b9)">
     <use style="fill:#e74c3c;stroke:#e74c3c;stroke-linejoin:miter;" x="63.272" xlink:href="#m4d993a4dff" y="131.001409"/>
     <use style="fill:#e74c3c;stroke:#e74c3c;stroke-linejoin:miter;" x="72.812264" xlink:href="#m4d993a4dff" y="131.001409"/>
     <use style="fill:#e74c3c;stroke:#e74c3c;stroke-linejoin:miter;" x="82.352528" xlink:href="#m4d993a4dff" y="116.728826"/>
     <use style="fill:#e74c3c;stroke:#e74c3c;stroke-linejoin:miter;" x="91.892792" xlink:href="#m4d993a4dff" y="222.677604"/>
     <use style="fill:#e74c3c;stroke:#e74c3c;stroke-linejoin:miter;" x="101.433056" xlink:href="#m4d993a4dff" y="149.451057"/>
     <use style="fill:#e74c3c;stroke:#e74c3c;stroke-linejoin:miter;" x="110.97332" xlink:href="#m4d993a4dff" y="137.576869"/>
     <use style="fill:#e74c3c;stroke:#e74c3c;stroke-linejoin:miter;" x="120.513584" xlink:href="#m4d993a4dff" y="163.055733"/>
     <use style="fill:#e74c3c;stroke:#e74c3c;stroke-linejoin:miter;" x="130.053848" xlink:href="#m4d993a4dff" y="165.56237"/>
     <use style="fill:#e74c3c;stroke:#e74c3c;stroke-linejoin:miter;" x="134.730448" xlink:href="#m4d993a4dff" y="132.614869"/>
     <use style="fill:#e74c3c;stroke:#e74c3c;stroke-linejoin:miter;" x="139.594112" xlink:href="#m4d993a4dff" y="171.198546"/>
     <use style="fill:#e74c3c;stroke:#e74c3c;stroke-linejoin:miter;" x="144.270712" xlink:href="#m4d993a4dff" y="164.585062"/>
     <use style="fill:#e74c3c;stroke:#e74c3c;stroke-linejoin:miter;" x="148.947312" xlink:href="#m4d993a4dff" y="168.748277"/>
     <use style="fill:#e74c3c;stroke:#e74c3c;stroke-linejoin:miter;" x="153.810976" xlink:href="#m4d993a4dff" y="168.014268"/>
     <use style="fill:#e74c3c;stroke:#e74c3c;stroke-linejoin:miter;" x="158.487576" xlink:href="#m4d993a4dff" y="154.794754"/>
     <use style="fill:#e74c3c;stroke:#e74c3c;stroke-linejoin:miter;" x="163.35124" xlink:href="#m4d993a4dff" y="150.567876"/>
     <use style="fill:#e74c3c;stroke:#e74c3c;stroke-linejoin:miter;" x="172.891504" xlink:href="#m4d993a4dff" y="136.492498"/>
     <use style="fill:#e74c3c;stroke:#e74c3c;stroke-linejoin:miter;" x="177.568104" xlink:href="#m4d993a4dff" y="143.883114"/>
     <use style="fill:#e74c3c;stroke:#e74c3c;stroke-linejoin:miter;" x="182.431768" xlink:href="#m4d993a4dff" y="119.265835"/>
     <use style="fill:#e74c3c;stroke:#e74c3c;stroke-linejoin:miter;" x="187.108368" xlink:href="#m4d993a4dff" y="131.834023"/>
     <use style="fill:#e74c3c;stroke:#e74c3c;stroke-linejoin:miter;" x="191.972032" xlink:href="#m4d993a4dff" y="94.446502"/>
     <use style="fill:#e74c3c;stroke:#e74c3c;stroke-linejoin:miter;" x="196.648632" xlink:href="#m4d993a4dff" y="89.325015"/>
     <use style="fill:#e74c3c;stroke:#e74c3c;stroke-linejoin:miter;" x="201.512296" xlink:href="#m4d993a4dff" y="99.719954"/>
     <use style="fill:#e74c3c;stroke:#e74c3c;stroke-linejoin:miter;" x="206.188896" xlink:href="#m4d993a4dff" y="28.957905"/>
     <use style="fill:#e74c3c;stroke:#e74c3c;stroke-linejoin:miter;" x="211.05256" xlink:href="#m4d993a4dff" y="58.453384"/>
     <use style="fill:#e74c3c;stroke:#e74c3c;stroke-linejoin:miter;" x="215.72916" xlink:href="#m4d993a4dff" y="49.846219"/>
     <use style="fill:#e74c3c;stroke:#e74c3c;stroke-linejoin:miter;" x="220.592824" xlink:href="#m4d993a4dff" y="40.452339"/>
     <use style="fill:#e74c3c;stroke:#e74c3c;stroke-linejoin:miter;" x="225.269424" xlink:href="#m4d993a4dff" y="38.620996"/>
     <use style="fill:#e74c3c;stroke:#e74c3c;stroke-linejoin:miter;" x="229.946024" xlink:href="#m4d993a4dff" y="28.663365"/>
     <use style="fill:#e74c3c;stroke:#e74c3c;stroke-linejoin:miter;" x="234.809688" xlink:href="#m4d993a4dff" y="27.433953"/>
     <use style="fill:#e74c3c;stroke:#e74c3c;stroke-linejoin:miter;" x="239.486288" xlink:href="#m4d993a4dff" y="26.385455"/>
     <use style="fill:#e74c3c;stroke:#e74c3c;stroke-linejoin:miter;" x="244.349952" xlink:href="#m4d993a4dff" y="26.49811"/>
     <use style="fill:#e74c3c;stroke:#e74c3c;stroke-linejoin:miter;" x="249.026552" xlink:href="#m4d993a4dff" y="26.593716"/>
     <use style="fill:#e74c3c;stroke:#e74c3c;stroke-linejoin:miter;" x="253.890216" xlink:href="#m4d993a4dff" y="34.979715"/>
     <use style="fill:#e74c3c;stroke:#e74c3c;stroke-linejoin:miter;" x="258.566816" xlink:href="#m4d993a4dff" y="28.92425"/>
     <use style="fill:#e74c3c;stroke:#e74c3c;stroke-linejoin:miter;" x="263.43048" xlink:href="#m4d993a4dff" y="38.307836"/>
     <use style="fill:#e74c3c;stroke:#e74c3c;stroke-linejoin:miter;" x="268.10708" xlink:href="#m4d993a4dff" y="52.963969"/>
     <use style="fill:#e74c3c;stroke:#e74c3c;stroke-linejoin:miter;" x="277.647344" xlink:href="#m4d993a4dff" y="61.239422"/>
     <use style="fill:#e74c3c;stroke:#e74c3c;stroke-linejoin:miter;" x="282.511008" xlink:href="#m4d993a4dff" y="82.998516"/>
     <use style="fill:#e74c3c;stroke:#e74c3c;stroke-linejoin:miter;" x="287.187608" xlink:href="#m4d993a4dff" y="87.060704"/>
     <use style="fill:#e74c3c;stroke:#e74c3c;stroke-linejoin:miter;" x="292.051272" xlink:href="#m4d993a4dff" y="97.334558"/>
     <use style="fill:#e74c3c;stroke:#e74c3c;stroke-linejoin:miter;" x="296.727872" xlink:href="#m4d993a4dff" y="101.821411"/>
     <use style="fill:#e74c3c;stroke:#e74c3c;stroke-linejoin:miter;" x="301.591536" xlink:href="#m4d993a4dff" y="104.64595"/>
     <use style="fill:#e74c3c;stroke:#e74c3c;stroke-linejoin:miter;" x="306.268136" xlink:href="#m4d993a4dff" y="97.512922"/>
     <use style="fill:#e74c3c;stroke:#e74c3c;stroke-linejoin:miter;" x="310.944736" xlink:href="#m4d993a4dff" y="120.484277"/>
     <use style="fill:#e74c3c;stroke:#e74c3c;stroke-linejoin:miter;" x="315.8084" xlink:href="#m4d993a4dff" y="116.684334"/>
     <use style="fill:#e74c3c;stroke:#e74c3c;stroke-linejoin:miter;" x="320.485" xlink:href="#m4d993a4dff" y="148.883367"/>
     <use style="fill:#e74c3c;stroke:#e74c3c;stroke-linejoin:miter;" x="325.348664" xlink:href="#m4d993a4dff" y="141.775444"/>
     <use style="fill:#e74c3c;stroke:#e74c3c;stroke-linejoin:miter;" x="330.025264" xlink:href="#m4d993a4dff" y="112.894456"/>
     <use style="fill:#e74c3c;stroke:#e74c3c;stroke-linejoin:miter;" x="334.888928" xlink:href="#m4d993a4dff" y="143.795422"/>
     <use style="fill:#e74c3c;stroke:#e74c3c;stroke-linejoin:miter;" x="339.565528" xlink:href="#m4d993a4dff" y="151.911562"/>
     <use style="fill:#e74c3c;stroke:#e74c3c;stroke-linejoin:miter;" x="344.429192" xlink:href="#m4d993a4dff" y="164.652868"/>
     <use style="fill:#e74c3c;stroke:#e74c3c;stroke-linejoin:miter;" x="349.105792" xlink:href="#m4d993a4dff" y="170.577519"/>
     <use style="fill:#e74c3c;stroke:#e74c3c;stroke-linejoin:miter;" x="353.969456" xlink:href="#m4d993a4dff" y="169.378663"/>
     <use style="fill:#e74c3c;stroke:#e74c3c;stroke-linejoin:miter;" x="358.646056" xlink:href="#m4d993a4dff" y="157.346947"/>
     <use style="fill:#e74c3c;stroke:#e74c3c;stroke-linejoin:miter;" x="363.50972" xlink:href="#m4d993a4dff" y="177.167129"/>
     <use style="fill:#e74c3c;stroke:#e74c3c;stroke-linejoin:miter;" x="368.18632" xlink:href="#m4d993a4dff" y="166.906721"/>
     <use style="fill:#e74c3c;stroke:#e74c3c;stroke-linejoin:miter;" x="373.049984" xlink:href="#m4d993a4dff" y="155.255133"/>
     <use style="fill:#e74c3c;stroke:#e74c3c;stroke-linejoin:miter;" x="377.726584" xlink:href="#m4d993a4dff" y="157.070004"/>
     <use style="fill:#e74c3c;stroke:#e74c3c;stroke-linejoin:miter;" x="382.590248" xlink:href="#m4d993a4dff" y="189.77003"/>
     <use style="fill:#e74c3c;stroke:#e74c3c;stroke-linejoin:miter;" x="387.266848" xlink:href="#m4d993a4dff" y="165.163547"/>
     <use style="fill:#e74c3c;stroke:#e74c3c;stroke-linejoin:miter;" x="391.943448" xlink:href="#m4d993a4dff" y="172.601968"/>
     <use style="fill:#e74c3c;stroke:#e74c3c;stroke-linejoin:miter;" x="401.483712" xlink:href="#m4d993a4dff" y="149.762003"/>
     <use style="fill:#e74c3c;stroke:#e74c3c;stroke-linejoin:miter;" x="411.023976" xlink:href="#m4d993a4dff" y="135.23396"/>
     <use style="fill:#e74c3c;stroke:#e74c3c;stroke-linejoin:miter;" x="420.56424" xlink:href="#m4d993a4dff" y="135.23396"/>
    </g>
   </g>
   <g id="line2d_18">
    <defs>
     <path d="M 0 -3  L -0.673542 -0.927051  L -2.85317 -0.927051  L -1.089814 0.354102  L -1.763356 2.427051  L -0 1.145898  L 1.763356 2.427051  L 1.089814 0.354102  L 2.85317 -0.927051  L 0.673542 -0.927051  z " id="m85df11f288" style="stroke:#808000;stroke-linejoin:bevel;"/>
    </defs>
    <g clip-path="url(#pf22e23c7b9)">
     <use style="fill:#808000;stroke:#808000;stroke-linejoin:bevel;" x="63.272" xlink:href="#m85df11f288" y="169.21305"/>
     <use style="fill:#808000;stroke:#808000;stroke-linejoin:bevel;" x="72.812264" xlink:href="#m85df11f288" y="169.21305"/>
     <use style="fill:#808000;stroke:#808000;stroke-linejoin:bevel;" x="82.352528" xlink:href="#m85df11f288" y="178.656198"/>
     <use style="fill:#808000;stroke:#808000;stroke-linejoin:bevel;" x="91.892792" xlink:href="#m85df11f288" y="183.802194"/>
     <use style="fill:#808000;stroke:#808000;stroke-linejoin:bevel;" x="101.433056" xlink:href="#m85df11f288" y="182.834803"/>
     <use style="fill:#808000;stroke:#808000;stroke-linejoin:bevel;" x="110.97332" xlink:href="#m85df11f288" y="186.706671"/>
     <use style="fill:#808000;stroke:#808000;stroke-linejoin:bevel;" x="120.513584" xlink:href="#m85df11f288" y="181.545315"/>
     <use style="fill:#808000;stroke:#808000;stroke-linejoin:bevel;" x="130.053848" xlink:href="#m85df11f288" y="173.679285"/>
     <use style="fill:#808000;stroke:#808000;stroke-linejoin:bevel;" x="134.730448" xlink:href="#m85df11f288" y="189.582187"/>
     <use style="fill:#808000;stroke:#808000;stroke-linejoin:bevel;" x="139.594112" xlink:href="#m85df11f288" y="184.708712"/>
     <use style="fill:#808000;stroke:#808000;stroke-linejoin:bevel;" x="144.270712" xlink:href="#m85df11f288" y="178.873683"/>
     <use style="fill:#808000;stroke:#808000;stroke-linejoin:bevel;" x="148.947312" xlink:href="#m85df11f288" y="177.241375"/>
     <use style="fill:#808000;stroke:#808000;stroke-linejoin:bevel;" x="153.810976" xlink:href="#m85df11f288" y="179.201183"/>
     <use style="fill:#808000;stroke:#808000;stroke-linejoin:bevel;" x="158.487576" xlink:href="#m85df11f288" y="184.076343"/>
     <use style="fill:#808000;stroke:#808000;stroke-linejoin:bevel;" x="163.35124" xlink:href="#m85df11f288" y="197.889253"/>
     <use style="fill:#808000;stroke:#808000;stroke-linejoin:bevel;" x="172.891504" xlink:href="#m85df11f288" y="178.738265"/>
     <use style="fill:#808000;stroke:#808000;stroke-linejoin:bevel;" x="177.568104" xlink:href="#m85df11f288" y="183.639358"/>
     <use style="fill:#808000;stroke:#808000;stroke-linejoin:bevel;" x="182.431768" xlink:href="#m85df11f288" y="190.031064"/>
     <use style="fill:#808000;stroke:#808000;stroke-linejoin:bevel;" x="187.108368" xlink:href="#m85df11f288" y="189.20104"/>
     <use style="fill:#808000;stroke:#808000;stroke-linejoin:bevel;" x="191.972032" xlink:href="#m85df11f288" y="187.095548"/>
     <use style="fill:#808000;stroke:#808000;stroke-linejoin:bevel;" x="196.648632" xlink:href="#m85df11f288" y="190.41739"/>
     <use style="fill:#808000;stroke:#808000;stroke-linejoin:bevel;" x="201.512296" xlink:href="#m85df11f288" y="191.818521"/>
     <use style="fill:#808000;stroke:#808000;stroke-linejoin:bevel;" x="206.188896" xlink:href="#m85df11f288" y="195.088083"/>
     <use style="fill:#808000;stroke:#808000;stroke-linejoin:bevel;" x="211.05256" xlink:href="#m85df11f288" y="206.639646"/>
     <use style="fill:#808000;stroke:#808000;stroke-linejoin:bevel;" x="215.72916" xlink:href="#m85df11f288" y="216.470691"/>
     <use style="fill:#808000;stroke:#808000;stroke-linejoin:bevel;" x="220.592824" xlink:href="#m85df11f288" y="226.800326"/>
     <use style="fill:#808000;stroke:#808000;stroke-linejoin:bevel;" x="225.269424" xlink:href="#m85df11f288" y="245.406572"/>
     <use style="fill:#808000;stroke:#808000;stroke-linejoin:bevel;" x="229.946024" xlink:href="#m85df11f288" y="255.197399"/>
     <use style="fill:#808000;stroke:#808000;stroke-linejoin:bevel;" x="234.809688" xlink:href="#m85df11f288" y="262.640532"/>
     <use style="fill:#808000;stroke:#808000;stroke-linejoin:bevel;" x="239.486288" xlink:href="#m85df11f288" y="263.468996"/>
     <use style="fill:#808000;stroke:#808000;stroke-linejoin:bevel;" x="244.349952" xlink:href="#m85df11f288" y="255.250445"/>
     <use style="fill:#808000;stroke:#808000;stroke-linejoin:bevel;" x="249.026552" xlink:href="#m85df11f288" y="229.480043"/>
     <use style="fill:#808000;stroke:#808000;stroke-linejoin:bevel;" x="253.890216" xlink:href="#m85df11f288" y="220.650832"/>
     <use style="fill:#808000;stroke:#808000;stroke-linejoin:bevel;" x="258.566816" xlink:href="#m85df11f288" y="212.039487"/>
     <use style="fill:#808000;stroke:#808000;stroke-linejoin:bevel;" x="263.43048" xlink:href="#m85df11f288" y="208.955631"/>
     <use style="fill:#808000;stroke:#808000;stroke-linejoin:bevel;" x="268.10708" xlink:href="#m85df11f288" y="207.513597"/>
     <use style="fill:#808000;stroke:#808000;stroke-linejoin:bevel;" x="277.647344" xlink:href="#m85df11f288" y="173.498634"/>
     <use style="fill:#808000;stroke:#808000;stroke-linejoin:bevel;" x="282.511008" xlink:href="#m85df11f288" y="173.760599"/>
     <use style="fill:#808000;stroke:#808000;stroke-linejoin:bevel;" x="287.187608" xlink:href="#m85df11f288" y="153.337883"/>
     <use style="fill:#808000;stroke:#808000;stroke-linejoin:bevel;" x="292.051272" xlink:href="#m85df11f288" y="168.201429"/>
     <use style="fill:#808000;stroke:#808000;stroke-linejoin:bevel;" x="296.727872" xlink:href="#m85df11f288" y="140.434738"/>
     <use style="fill:#808000;stroke:#808000;stroke-linejoin:bevel;" x="301.591536" xlink:href="#m85df11f288" y="132.545106"/>
     <use style="fill:#808000;stroke:#808000;stroke-linejoin:bevel;" x="306.268136" xlink:href="#m85df11f288" y="122.551113"/>
     <use style="fill:#808000;stroke:#808000;stroke-linejoin:bevel;" x="310.944736" xlink:href="#m85df11f288" y="110.448258"/>
     <use style="fill:#808000;stroke:#808000;stroke-linejoin:bevel;" x="315.8084" xlink:href="#m85df11f288" y="105.540045"/>
     <use style="fill:#808000;stroke:#808000;stroke-linejoin:bevel;" x="320.485" xlink:href="#m85df11f288" y="124.678103"/>
     <use style="fill:#808000;stroke:#808000;stroke-linejoin:bevel;" x="325.348664" xlink:href="#m85df11f288" y="150.337669"/>
     <use style="fill:#808000;stroke:#808000;stroke-linejoin:bevel;" x="330.025264" xlink:href="#m85df11f288" y="155.407984"/>
     <use style="fill:#808000;stroke:#808000;stroke-linejoin:bevel;" x="334.888928" xlink:href="#m85df11f288" y="151.248033"/>
     <use style="fill:#808000;stroke:#808000;stroke-linejoin:bevel;" x="339.565528" xlink:href="#m85df11f288" y="117.685396"/>
     <use style="fill:#808000;stroke:#808000;stroke-linejoin:bevel;" x="344.429192" xlink:href="#m85df11f288" y="150.034205"/>
     <use style="fill:#808000;stroke:#808000;stroke-linejoin:bevel;" x="349.105792" xlink:href="#m85df11f288" y="139.470117"/>
     <use style="fill:#808000;stroke:#808000;stroke-linejoin:bevel;" x="353.969456" xlink:href="#m85df11f288" y="153.396628"/>
     <use style="fill:#808000;stroke:#808000;stroke-linejoin:bevel;" x="358.646056" xlink:href="#m85df11f288" y="163.911341"/>
     <use style="fill:#808000;stroke:#808000;stroke-linejoin:bevel;" x="363.50972" xlink:href="#m85df11f288" y="145.99472"/>
     <use style="fill:#808000;stroke:#808000;stroke-linejoin:bevel;" x="368.18632" xlink:href="#m85df11f288" y="166.824872"/>
     <use style="fill:#808000;stroke:#808000;stroke-linejoin:bevel;" x="373.049984" xlink:href="#m85df11f288" y="211.058358"/>
     <use style="fill:#808000;stroke:#808000;stroke-linejoin:bevel;" x="377.726584" xlink:href="#m85df11f288" y="204.558453"/>
     <use style="fill:#808000;stroke:#808000;stroke-linejoin:bevel;" x="382.590248" xlink:href="#m85df11f288" y="188.004481"/>
     <use style="fill:#808000;stroke:#808000;stroke-linejoin:bevel;" x="387.266848" xlink:href="#m85df11f288" y="175.301744"/>
     <use style="fill:#808000;stroke:#808000;stroke-linejoin:bevel;" x="391.943448" xlink:href="#m85df11f288" y="124.913376"/>
     <use style="fill:#808000;stroke:#808000;stroke-linejoin:bevel;" x="401.483712" xlink:href="#m85df11f288" y="150.583165"/>
     <use style="fill:#808000;stroke:#808000;stroke-linejoin:bevel;" x="411.023976" xlink:href="#m85df11f288" y="88.395739"/>
     <use style="fill:#808000;stroke:#808000;stroke-linejoin:bevel;" x="420.56424" xlink:href="#m85df11f288" y="88.395739"/>
    </g>
   </g>
   <g id="line2d_19">
    <defs>
     <path d="M 0 3  C 0.795609 3 1.55874 2.683901 2.12132 2.12132  C 2.683901 1.55874 3 0.795609 3 0  C 3 -0.795609 2.683901 -1.55874 2.12132 -2.12132  C 1.55874 -2.683901 0.795609 -3 0 -3  C -0.795609 -3 -1.55874 -2.683901 -2.12132 -2.12132  C -2.683901 -1.55874 -3 -0.795609 -3 0  C -3 0.795609 -2.683901 1.55874 -2.12132 2.12132  C -1.55874 2.683901 -0.795609 3 0 3  z " id="maf84a4e040" style="stroke:#008080;"/>
    </defs>
    <g clip-path="url(#pf22e23c7b9)">
     <use style="fill:#008080;stroke:#008080;" x="82.352528" xlink:href="#maf84a4e040" y="207.544121"/>
     <use style="fill:#008080;stroke:#008080;" x="91.892792" xlink:href="#maf84a4e040" y="207.544121"/>
     <use style="fill:#008080;stroke:#008080;" x="101.433056" xlink:href="#maf84a4e040" y="212.373555"/>
     <use style="fill:#008080;stroke:#008080;" x="110.97332" xlink:href="#maf84a4e040" y="101.278782"/>
     <use style="fill:#008080;stroke:#008080;" x="120.513584" xlink:href="#maf84a4e040" y="175.47272"/>
     <use style="fill:#008080;stroke:#008080;" x="130.053848" xlink:href="#maf84a4e040" y="183.47504"/>
     <use style="fill:#008080;stroke:#008080;" x="134.730448" xlink:href="#maf84a4e040" y="163.157532"/>
     <use style="fill:#008080;stroke:#008080;" x="139.594112" xlink:href="#maf84a4e040" y="168.516925"/>
     <use style="fill:#008080;stroke:#008080;" x="144.270712" xlink:href="#maf84a4e040" y="185.561524"/>
     <use style="fill:#008080;stroke:#008080;" x="148.947312" xlink:href="#maf84a4e040" y="151.851322"/>
     <use style="fill:#008080;stroke:#008080;" x="153.810976" xlink:href="#maf84a4e040" y="164.299835"/>
     <use style="fill:#008080;stroke:#008080;" x="158.487576" xlink:href="#maf84a4e040" y="161.768928"/>
     <use style="fill:#008080;stroke:#008080;" x="163.35124" xlink:href="#maf84a4e040" y="160.543129"/>
     <use style="fill:#008080;stroke:#008080;" x="172.891504" xlink:href="#maf84a4e040" y="168.887483"/>
     <use style="fill:#008080;stroke:#008080;" x="177.568104" xlink:href="#maf84a4e040" y="159.301451"/>
     <use style="fill:#008080;stroke:#008080;" x="182.431768" xlink:href="#maf84a4e040" y="192.527817"/>
     <use style="fill:#008080;stroke:#008080;" x="187.108368" xlink:href="#maf84a4e040" y="180.236108"/>
     <use style="fill:#008080;stroke:#008080;" x="191.972032" xlink:href="#maf84a4e040" y="198.461681"/>
     <use style="fill:#008080;stroke:#008080;" x="196.648632" xlink:href="#maf84a4e040" y="186.723516"/>
     <use style="fill:#008080;stroke:#008080;" x="201.512296" xlink:href="#maf84a4e040" y="226.21653"/>
     <use style="fill:#008080;stroke:#008080;" x="206.188896" xlink:href="#maf84a4e040" y="228.016175"/>
     <use style="fill:#008080;stroke:#008080;" x="211.05256" xlink:href="#maf84a4e040" y="216.220105"/>
     <use style="fill:#008080;stroke:#008080;" x="215.72916" xlink:href="#maf84a4e040" y="283.712592"/>
     <use style="fill:#008080;stroke:#008080;" x="220.592824" xlink:href="#maf84a4e040" y="242.665549"/>
     <use style="fill:#008080;stroke:#008080;" x="225.269424" xlink:href="#maf84a4e040" y="241.441671"/>
     <use style="fill:#008080;stroke:#008080;" x="229.946024" xlink:href="#maf84a4e040" y="240.505915"/>
     <use style="fill:#008080;stroke:#008080;" x="234.809688" xlink:href="#maf84a4e040" y="223.731012"/>
     <use style="fill:#008080;stroke:#008080;" x="239.486288" xlink:href="#maf84a4e040" y="223.897816"/>
     <use style="fill:#008080;stroke:#008080;" x="244.349952" xlink:href="#maf84a4e040" y="217.684095"/>
     <use style="fill:#008080;stroke:#008080;" x="249.026552" xlink:href="#maf84a4e040" y="217.90413"/>
     <use style="fill:#008080;stroke:#008080;" x="253.890216" xlink:href="#maf84a4e040" y="226.010025"/>
     <use style="fill:#008080;stroke:#008080;" x="258.566816" xlink:href="#maf84a4e040" y="251.684821"/>
     <use style="fill:#008080;stroke:#008080;" x="263.43048" xlink:href="#maf84a4e040" y="252.128033"/>
     <use style="fill:#008080;stroke:#008080;" x="268.10708" xlink:href="#maf84a4e040" y="266.794842"/>
     <use style="fill:#008080;stroke:#008080;" x="277.647344" xlink:href="#maf84a4e040" y="260.495113"/>
     <use style="fill:#008080;stroke:#008080;" x="282.511008" xlink:href="#maf84a4e040" y="247.281014"/>
     <use style="fill:#008080;stroke:#008080;" x="287.187608" xlink:href="#maf84a4e040" y="273.020523"/>
     <use style="fill:#008080;stroke:#008080;" x="292.051272" xlink:href="#maf84a4e040" y="250.999465"/>
     <use style="fill:#008080;stroke:#008080;" x="296.727872" xlink:href="#maf84a4e040" y="267.359993"/>
     <use style="fill:#008080;stroke:#008080;" x="301.591536" xlink:href="#maf84a4e040" y="242.222592"/>
     <use style="fill:#008080;stroke:#008080;" x="306.268136" xlink:href="#maf84a4e040" y="265.502431"/>
     <use style="fill:#008080;stroke:#008080;" x="310.944736" xlink:href="#maf84a4e040" y="270.567523"/>
     <use style="fill:#008080;stroke:#008080;" x="315.8084" xlink:href="#maf84a4e040" y="287.694545"/>
     <use style="fill:#008080;stroke:#008080;" x="320.485" xlink:href="#maf84a4e040" y="276.826045"/>
     <use style="fill:#008080;stroke:#008080;" x="325.348664" xlink:href="#maf84a4e040" y="285.534201"/>
     <use style="fill:#008080;stroke:#008080;" x="330.025264" xlink:href="#maf84a4e040" y="234.19711"/>
     <use style="fill:#008080;stroke:#008080;" x="334.888928" xlink:href="#maf84a4e040" y="215.645466"/>
     <use style="fill:#008080;stroke:#008080;" x="339.565528" xlink:href="#maf84a4e040" y="239.45614"/>
     <use style="fill:#008080;stroke:#008080;" x="344.429192" xlink:href="#maf84a4e040" y="212.715125"/>
     <use style="fill:#008080;stroke:#008080;" x="349.105792" xlink:href="#maf84a4e040" y="238.161622"/>
     <use style="fill:#008080;stroke:#008080;" x="353.969456" xlink:href="#maf84a4e040" y="193.071507"/>
     <use style="fill:#008080;stroke:#008080;" x="358.646056" xlink:href="#maf84a4e040" y="197.710944"/>
     <use style="fill:#008080;stroke:#008080;" x="363.50972" xlink:href="#maf84a4e040" y="184.983289"/>
     <use style="fill:#008080;stroke:#008080;" x="368.18632" xlink:href="#maf84a4e040" y="186.500292"/>
     <use style="fill:#008080;stroke:#008080;" x="373.049984" xlink:href="#maf84a4e040" y="184.596731"/>
     <use style="fill:#008080;stroke:#008080;" x="377.726584" xlink:href="#maf84a4e040" y="174.026987"/>
     <use style="fill:#008080;stroke:#008080;" x="382.590248" xlink:href="#maf84a4e040" y="141.445089"/>
     <use style="fill:#008080;stroke:#008080;" x="387.266848" xlink:href="#maf84a4e040" y="146.130123"/>
     <use style="fill:#008080;stroke:#008080;" x="391.943448" xlink:href="#maf84a4e040" y="129.984068"/>
     <use style="fill:#008080;stroke:#008080;" x="401.483712" xlink:href="#maf84a4e040" y="167.293288"/>
     <use style="fill:#008080;stroke:#008080;" x="411.023976" xlink:href="#maf84a4e040" y="210.243236"/>
     <use style="fill:#008080;stroke:#008080;" x="420.56424" xlink:href="#maf84a4e040" y="207.413412"/>
     <use style="fill:#008080;stroke:#008080;" x="430.104504" xlink:href="#maf84a4e040" y="284.128881"/>
     <use style="fill:#008080;stroke:#008080;" x="437.4" xlink:href="#maf84a4e040" y="284.128881"/>
    </g>
   </g>
   <g id="line2d_20">
    <path clip-path="url(#pf22e23c7b9)" d="M 61.810562 169.252833  L 123.19094 169.1499  L 135.467016 168.913992  L 142.481916 168.605568  L 147.743092 168.219226  L 153.004267 167.628164  L 156.511717 167.076622  L 160.457598 166.256204  L 163.965049 165.303554  L 167.472499 164.092007  L 170.103086 162.981036  L 172.733674 161.669036  L 175.364262 160.129541  L 177.994849 158.335108  L 180.625437 156.25796  L 183.256024 153.870844  L 185.886612 151.148094  L 188.5172 148.066954  L 191.147787 144.609154  L 193.778375 140.762785  L 196.628178 136.153136  L 199.697197 130.686685  L 202.766216 124.737661  L 206.273666 117.439526  L 211.09641 106.841518  L 217.234448 93.374375  L 220.303467 87.138433  L 222.934054 82.285549  L 225.126211 78.682846  L 227.208759 75.68724  L 229.1817 73.265044  L 230.935425 71.466351  L 232.68915 70.006552  L 234.22366 69.006329  L 235.758169 68.260368  L 237.292679 67.761794  L 238.827188 67.501692  L 240.361697 67.469634  L 241.896207 67.654163  L 243.430716 68.043201  L 245.184441 68.722381  L 246.938167 69.634089  L 248.911107 70.915188  L 251.103264 72.626742  L 253.514636 74.822469  L 255.8164 77.188427  L 258.885419 80.696269  L 261.954438 84.542297  L 265.900319 89.877833  L 270.723063 96.819684  L 279.491688 109.953966  L 286.506589 120.281176  L 291.110117 126.704471  L 295.49443 132.44122  L 299.00188 136.715076  L 302.50933 140.681452  L 306.01678 144.325568  L 309.52423 147.641465  L 313.031681 150.63101  L 316.539131 153.302692  L 320.046581 155.670329  L 323.554031 157.751769  L 327.061481 159.567672  L 330.1305 160.955339  L 333.63795 162.332777  L 337.145401 163.510406  L 340.652851 164.510765  L 345.914026 165.725525  L 351.175201 166.655757  L 356.436376 167.35936  L 363.451277 168.028506  L 370.466177 168.473984  L 379.234803 168.820228  L 391.510878 169.071069  L 410.801854 169.212421  L 438.861455 169.252091  L 438.861455 169.252091  " style="fill:none;stroke:#e74c3c;stroke-linecap:square;stroke-width:2;"/>
   </g>
   <g id="line2d_21">
    <path clip-path="url(#pf22e23c7b9)" d="M 61.810562 169.25286  L 172.733674 169.36029  L 179.748574 169.611877  L 184.132887 169.988707  L 187.640337 170.530923  L 190.270925 171.160103  L 192.901512 172.063671  L 195.312884 173.217714  L 197.066609 174.308974  L 198.820335 175.658187  L 200.57406 177.312072  L 202.327785 179.320886  L 204.08151 181.736879  L 205.835235 184.611966  L 207.58896 187.994548  L 209.342685 191.925446  L 211.09641 196.43305  L 212.850135 201.527938  L 215.042292 208.700488  L 217.234448 216.681302  L 219.865036 227.086898  L 227.647191 258.532023  L 229.620131 265.347761  L 231.373856 270.617162  L 232.908366 274.512444  L 234.22366 277.267679  L 235.319738 279.130294  L 236.415816 280.588105  L 237.511894 281.636754  L 238.388757 282.181469  L 239.265619 282.467417  L 240.142482 282.499078  L 241.019344 282.282588  L 241.896207 281.82557  L 242.773069 281.136959  L 243.869148 279.965954  L 244.965226 278.470632  L 246.28052 276.281461  L 247.815029 273.238035  L 249.568754 269.202338  L 251.541695 264.081174  L 254.172283 256.549449  L 258.008556 244.765733  L 264.146594 225.910262  L 267.215613 217.18641  L 269.8462 210.305211  L 272.476788 204.055172  L 274.668944 199.356721  L 276.861101 195.127481  L 279.053257 191.359471  L 281.245413 188.034739  L 283.43757 185.127817  L 285.629726 182.607982  L 287.821883 180.441273  L 289.356392 179.115879  L 291.98698 177.172024  L 294.617567 175.58955  L 297.248155 174.312057  L 299.878742 173.288252  L 302.50933 172.472717  L 306.01678 171.64227  L 309.52423 171.036137  L 313.908543 170.50427  L 319.169718 170.088145  L 326.184619 169.758281  L 337.145401 169.499399  L 356.436376 169.327117  L 396.772053 169.257594  L 438.861455 169.252889  L 438.861455 169.252889  " style="fill:none;stroke:#808000;stroke-linecap:square;stroke-width:2;"/>
   </g>
   <g id="line2d_22">
    <path clip-path="url(#pf22e23c7b9)" d="M 61.810562 169.252887  L 123.19094 169.355815  L 135.467016 169.591657  L 142.481916 169.899843  L 147.743092 170.285586  L 153.004267 170.874948  L 156.511717 171.423905  L 161.334461 172.452946  L 164.841911 173.453178  L 168.349361 174.714396  L 170.979949 175.859766  L 173.610536 177.197851  L 176.241124 178.746545  L 178.871712 180.520283  L 181.502299 182.527625  L 184.132887 184.768122  L 187.640337 188.092596  L 192.02465 192.661652  L 198.381903 199.372931  L 201.012491 201.7867  L 202.766216 203.136263  L 204.519941 204.200887  L 205.835235 204.770408  L 207.150529 205.110839  L 208.465823 205.19363  L 209.781116 204.992358  L 211.09641 204.484011  L 212.411704 203.650372  L 213.726998 202.479441  L 215.042292 200.966821  L 216.357585 199.116936  L 217.672879 196.943991  L 219.426604 193.58814  L 221.618761 188.783967  L 224.68778 181.357512  L 228.743269 171.568314  L 230.71621 167.348182  L 232.469935 164.115936  L 234.004444 161.777713  L 235.319738 160.180373  L 236.415816 159.153594  L 237.511894 158.41156  L 238.607972 157.956879  L 239.704051 157.787727  L 240.800129 157.898223  L 241.896207 158.278847  L 242.992285 158.916905  L 244.088363 159.796999  L 245.403657 161.147648  L 246.938167 163.086538  L 248.691892 165.710057  L 250.664832 169.072879  L 253.29542 174.017199  L 261.954438 190.715473  L 264.585025 195.076824  L 266.777182 198.257351  L 268.530907 200.468246  L 270.284632 202.365472  L 272.038357 203.94135  L 273.792082 205.195138  L 275.545807 206.132217  L 277.299532 206.763229  L 279.053257 207.103202  L 280.806982 207.170688  L 282.560707 206.986923  L 284.314432 206.575046  L 286.068157 205.959367  L 288.260314 204.941015  L 290.233255 203.82469  L 292.863842 202.103026  L 296.371292 199.513948  L 302.50933 194.60441  L 308.647368 189.74512  L 313.031681 186.533024  L 317.415993 183.63002  L 320.923443 181.555074  L 324.430894 179.704983  L 328.376775 177.885882  L 331.884225 176.489986  L 335.391675 175.285077  L 338.899126 174.253531  L 344.160301 172.991181  L 349.421476 172.017202  L 354.682651 171.276035  L 361.697552 170.567124  L 368.712452 170.09252  L 377.481077 169.721673  L 389.757153 169.451379  L 409.048129 169.297915  L 438.861455 169.2536  L 438.861455 169.2536  " style="fill:none;stroke:#008080;stroke-linecap:square;stroke-width:2;"/>
   </g>
   <g id="patch_3">
    <path d="M 63.272 300.76  L 63.272 13.32  " style="fill:none;stroke:#000000;stroke-linecap:square;stroke-linejoin:miter;stroke-width:0.8;"/>
   </g>
   <g id="patch_4">
    <path d="M 437.4 300.76  L 437.4 13.32  " style="fill:none;stroke:#000000;stroke-linecap:square;stroke-linejoin:miter;stroke-width:0.8;"/>
   </g>
   <g id="patch_5">
    <path d="M 63.272 300.76  L 437.4 300.76  " style="fill:none;stroke:#000000;stroke-linecap:square;stroke-linejoin:miter;stroke-width:0.8;"/>
   </g>
   <g id="patch_6">
    <path d="M 63.272 13.32  L 437.4 13.32  " style="fill:none;stroke:#000000;stroke-linecap:square;stroke-linejoin:miter;stroke-width:0.8;"/>
   </g>
   <g id="legend_1">
    <g id="patch_7">
     <path d="M 70.272 109.38875  L 137.618875 109.38875  Q 139.618875 109.38875 139.618875 107.38875  L 139.618875 20.32  Q 139.618875 18.32 137.618875 18.32  L 70.272 18.32  Q 68.272 18.32 68.272 20.32  L 68.272 107.38875  Q 68.272 109.38875 70.272 109.38875  z " style="fill:#ffffff;opacity:0.8;stroke:#cccccc;stroke-linejoin:miter;"/>
    </g>
    <g id="line2d_23"/>
    <g id="line2d_24">
     <g>
      <use style="fill:#e74c3c;stroke:#e74c3c;stroke-linejoin:miter;" x="82.272" xlink:href="#m4d993a4dff" y="26.418437"/>
     </g>
    </g>
    <g id="text_19">
     <!-- exp-Sn -->
     <defs>
      <path d="M 18.109375 8.203125  L 18.109375 -20.796875  L 9.078125 -20.796875  L 9.078125 54.6875  L 18.109375 54.6875  L 18.109375 46.390625  Q 20.953125 51.265625 25.265625 53.625  Q 29.59375 56 35.59375 56  Q 45.5625 56 51.78125 48.09375  Q 58.015625 40.1875 58.015625 27.296875  Q 58.015625 14.40625 51.78125 6.484375  Q 45.5625 -1.421875 35.59375 -1.421875  Q 29.59375 -1.421875 25.265625 0.953125  Q 20.953125 3.328125 18.109375 8.203125  z M 48.6875 27.296875  Q 48.6875 37.203125 44.609375 42.84375  Q 40.53125 48.484375 33.40625 48.484375  Q 26.265625 48.484375 22.1875 42.84375  Q 18.109375 37.203125 18.109375 27.296875  Q 18.109375 17.390625 22.1875 11.75  Q 26.265625 6.109375 33.40625 6.109375  Q 40.53125 6.109375 44.609375 11.75  Q 48.6875 17.390625 48.6875 27.296875  z " id="DejaVuSans-70"/>
      <path d="M 53.515625 70.515625  L 53.515625 60.890625  Q 47.90625 63.578125 42.921875 64.890625  Q 37.9375 66.21875 33.296875 66.21875  Q 25.25 66.21875 20.875 63.09375  Q 16.5 59.96875 16.5 54.203125  Q 16.5 49.359375 19.40625 46.890625  Q 22.3125 44.4375 30.421875 42.921875  L 36.375 41.703125  Q 47.40625 39.59375 52.65625 34.296875  Q 57.90625 29 57.90625 20.125  Q 57.90625 9.515625 50.796875 4.046875  Q 43.703125 -1.421875 29.984375 -1.421875  Q 24.8125 -1.421875 18.96875 -0.25  Q 13.140625 0.921875 6.890625 3.21875  L 6.890625 13.375  Q 12.890625 10.015625 18.65625 8.296875  Q 24.421875 6.59375 29.984375 6.59375  Q 38.421875 6.59375 43.015625 9.90625  Q 47.609375 13.234375 47.609375 19.390625  Q 47.609375 24.75 44.3125 27.78125  Q 41.015625 30.8125 33.5 32.328125  L 27.484375 33.5  Q 16.453125 35.6875 11.515625 40.375  Q 6.59375 45.0625 6.59375 53.421875  Q 6.59375 63.09375 13.40625 68.65625  Q 20.21875 74.21875 32.171875 74.21875  Q 37.3125 74.21875 42.625 73.28125  Q 47.953125 72.359375 53.515625 70.515625  z " id="DejaVuSans-53"/>
     </defs>
     <g transform="translate(100.272 29.918437)scale(0.1 -0.1)">
      <use xlink:href="#DejaVuSans-65"/>
      <use x="61.507812" xlink:href="#DejaVuSans-78"/>
      <use x="120.6875" xlink:href="#DejaVuSans-70"/>
      <use x="184.164062" xlink:href="#DejaVuSans-2d"/>
      <use x="220.248047" xlink:href="#DejaVuSans-53"/>
      <use x="283.724609" xlink:href="#DejaVuSans-6e"/>
     </g>
    </g>
    <g id="line2d_25"/>
    <g id="line2d_26">
     <g>
      <use style="fill:#808000;stroke:#808000;stroke-linejoin:bevel;" x="82.272" xlink:href="#m85df11f288" y="41.096563"/>
     </g>
    </g>
    <g id="text_20">
     <!-- exp-Ag -->
     <defs>
      <path d="M 34.1875 63.1875  L 20.796875 26.90625  L 47.609375 26.90625  z M 28.609375 72.90625  L 39.796875 72.90625  L 67.578125 0  L 57.328125 0  L 50.6875 18.703125  L 17.828125 18.703125  L 11.1875 0  L 0.78125 0  z " id="DejaVuSans-41"/>
      <path d="M 45.40625 27.984375  Q 45.40625 37.75 41.375 43.109375  Q 37.359375 48.484375 30.078125 48.484375  Q 22.859375 48.484375 18.828125 43.109375  Q 14.796875 37.75 14.796875 27.984375  Q 14.796875 18.265625 18.828125 12.890625  Q 22.859375 7.515625 30.078125 7.515625  Q 37.359375 7.515625 41.375 12.890625  Q 45.40625 18.265625 45.40625 27.984375  z M 54.390625 6.78125  Q 54.390625 -7.171875 48.1875 -13.984375  Q 42 -20.796875 29.203125 -20.796875  Q 24.46875 -20.796875 20.265625 -20.09375  Q 16.0625 -19.390625 12.109375 -17.921875  L 12.109375 -9.1875  Q 16.0625 -11.328125 19.921875 -12.34375  Q 23.78125 -13.375 27.78125 -13.375  Q 36.625 -13.375 41.015625 -8.765625  Q 45.40625 -4.15625 45.40625 5.171875  L 45.40625 9.625  Q 42.625 4.78125 38.28125 2.390625  Q 33.9375 0 27.875 0  Q 17.828125 0 11.671875 7.65625  Q 5.515625 15.328125 5.515625 27.984375  Q 5.515625 40.671875 11.671875 48.328125  Q 17.828125 56 27.875 56  Q 33.9375 56 38.28125 53.609375  Q 42.625 51.21875 45.40625 46.390625  L 45.40625 54.6875  L 54.390625 54.6875  z " id="DejaVuSans-67"/>
     </defs>
     <g transform="translate(100.272 44.596563)scale(0.1 -0.1)">
      <use xlink:href="#DejaVuSans-65"/>
      <use x="61.507812" xlink:href="#DejaVuSans-78"/>
      <use x="120.6875" xlink:href="#DejaVuSans-70"/>
      <use x="184.164062" xlink:href="#DejaVuSans-2d"/>
      <use x="220.216797" xlink:href="#DejaVuSans-41"/>
      <use x="288.625" xlink:href="#DejaVuSans-67"/>
     </g>
    </g>
    <g id="line2d_27"/>
    <g id="line2d_28">
     <g>
      <use style="fill:#008080;stroke:#008080;" x="82.272" xlink:href="#maf84a4e040" y="55.774687"/>
     </g>
    </g>
    <g id="text_21">
     <!-- exp-Cu -->
     <defs>
      <path d="M 64.40625 67.28125  L 64.40625 56.890625  Q 59.421875 61.53125 53.78125 63.8125  Q 48.140625 66.109375 41.796875 66.109375  Q 29.296875 66.109375 22.65625 58.46875  Q 16.015625 50.828125 16.015625 36.375  Q 16.015625 21.96875 22.65625 14.328125  Q 29.296875 6.6875 41.796875 6.6875  Q 48.140625 6.6875 53.78125 8.984375  Q 59.421875 11.28125 64.40625 15.921875  L 64.40625 5.609375  Q 59.234375 2.09375 53.4375 0.328125  Q 47.65625 -1.421875 41.21875 -1.421875  Q 24.65625 -1.421875 15.125 8.703125  Q 5.609375 18.84375 5.609375 36.375  Q 5.609375 53.953125 15.125 64.078125  Q 24.65625 74.21875 41.21875 74.21875  Q 47.75 74.21875 53.53125 72.484375  Q 59.328125 70.75 64.40625 67.28125  z " id="DejaVuSans-43"/>
     </defs>
     <g transform="translate(100.272 59.274687)scale(0.1 -0.1)">
      <use xlink:href="#DejaVuSans-65"/>
      <use x="61.507812" xlink:href="#DejaVuSans-78"/>
      <use x="120.6875" xlink:href="#DejaVuSans-70"/>
      <use x="184.164062" xlink:href="#DejaVuSans-2d"/>
      <use x="220.248047" xlink:href="#DejaVuSans-43"/>
      <use x="290.072266" xlink:href="#DejaVuSans-75"/>
     </g>
    </g>
    <g id="line2d_29">
     <path d="M 72.272 70.452812  L 92.272 70.452812  " style="fill:none;stroke:#e74c3c;stroke-linecap:square;stroke-width:2;"/>
    </g>
    <g id="line2d_30"/>
    <g id="text_22">
     <!-- sim-Sn -->
     <g transform="translate(100.272 73.952812)scale(0.1 -0.1)">
      <use xlink:href="#DejaVuSans-73"/>
      <use x="52.099609" xlink:href="#DejaVuSans-69"/>
      <use x="79.882812" xlink:href="#DejaVuSans-6d"/>
      <use x="177.294922" xlink:href="#DejaVuSans-2d"/>
      <use x="213.378906" xlink:href="#DejaVuSans-53"/>
      <use x="276.855469" xlink:href="#DejaVuSans-6e"/>
     </g>
    </g>
    <g id="line2d_31">
     <path d="M 72.272 85.130938  L 92.272 85.130938  " style="fill:none;stroke:#808000;stroke-linecap:square;stroke-width:2;"/>
    </g>
    <g id="line2d_32"/>
    <g id="text_23">
     <!-- sim-Ag -->
     <g transform="translate(100.272 88.630938)scale(0.1 -0.1)">
      <use xlink:href="#DejaVuSans-73"/>
      <use x="52.099609" xlink:href="#DejaVuSans-69"/>
      <use x="79.882812" xlink:href="#DejaVuSans-6d"/>
      <use x="177.294922" xlink:href="#DejaVuSans-2d"/>
      <use x="213.347656" xlink:href="#DejaVuSans-41"/>
      <use x="281.755859" xlink:href="#DejaVuSans-67"/>
     </g>
    </g>
    <g id="line2d_33">
     <path d="M 72.272 99.809062  L 92.272 99.809062  " style="fill:none;stroke:#008080;stroke-linecap:square;stroke-width:2;"/>
    </g>
    <g id="line2d_34"/>
    <g id="text_24">
     <!-- sim-Cu -->
     <g transform="translate(100.272 103.309062)scale(0.1 -0.1)">
      <use xlink:href="#DejaVuSans-73"/>
      <use x="52.099609" xlink:href="#DejaVuSans-69"/>
      <use x="79.882812" xlink:href="#DejaVuSans-6d"/>
      <use x="177.294922" xlink:href="#DejaVuSans-2d"/>
      <use x="213.378906" xlink:href="#DejaVuSans-43"/>
      <use x="283.203125" xlink:href="#DejaVuSans-75"/>
     </g>
    </g>
   </g>
  </g>
 </g>
 <defs>
  <clipPath id="pf22e23c7b9">
   <rect height="287.44" width="374.128" x="63.272" y="13.32"/>
  </clipPath>
 </defs>
</g>
    <g transform="translate(10, 300) scale(1) ">
      <g transform="translate(0, 0) scale(3.0) "><defs id="defs831"/>
  <sodipodi:namedview xmlns:sodipodi="http://sodipodi.sourceforge.net/DTD/sodipodi-0.dtd" xmlns:inkscape="http://www.inkscape.org/namespaces/inkscape" id="base" pagecolor="#ffffff" bordercolor="#666666" borderopacity="1.0" inkscape:pageopacity="0.0" inkscape:pageshadow="2" inkscape:zoom="1.979899" inkscape:cx="-12.763683" inkscape:cy="-16.680883" inkscape:document-units="mm" inkscape:current-layer="layer1" showgrid="false" inkscape:window-width="1920" inkscape:window-height="1001" inkscape:window-x="-9" inkscape:window-y="-9" inkscape:window-maximized="1" units="pt"/>
  <metadata xmlns:rdf="http://www.w3.org/1999/02/22-rdf-syntax-ns#" xmlns:cc="http://creativecommons.org/ns#" xmlns:dc="http://purl.org/dc/elements/1.1/" id="metadata834">
    <rdf:RDF>
      <cc:Work rdf:about="">
        <dc:format>image/svg+xml</dc:format>
        <dc:type rdf:resource="http://purl.org/dc/dcmitype/StillImage"/>
        <dc:title/>
      </cc:Work>
    </rdf:RDF>
  </metadata>
  <g xmlns:inkscape="http://www.inkscape.org/namespaces/inkscape" xmlns:sodipodi="http://sodipodi.sourceforge.net/DTD/sodipodi-0.dtd" inkscape:label="Layer 1" inkscape:groupmode="layer" id="layer1" transform="translate(0,-288.81557)">
    <g id="g4761" transform="matrix(0.07377843,0,0,0.07377843,-0.76923022,275.45946)">
      <path inkscape:connector-curvature="0" id="path1959-6-7-1-6-5-4-0-3-2-6-0-3-9-6" style="font-style:normal;font-variant:normal;font-weight:bold;font-stretch:normal;font-size:120.99466705px;line-height:1.25;font-family:Aharoni;-inkscape-font-specification:'Aharoni, Bold';font-variant-ligatures:normal;font-variant-caps:normal;font-variant-numeric:normal;font-feature-settings:normal;text-align:start;letter-spacing:0px;word-spacing:0px;writing-mode:lr-tb;text-anchor:start;fill:#000000;fill-opacity:1;stroke:none;stroke-width:2.37649584" d="M 52.937412,287.55677 H 40.587702 V 265.43005 H 22.776041 v 22.12672 h -12.34982 v -53.17432 h 12.34982 v 20.5296 h 17.811661 v -20.5296 h 12.34971 z"/>
      <path inkscape:connector-curvature="0" id="path1961-2-9-7-9-3-1-6-5-1-5-8-7-8-2" style="font-style:normal;font-variant:normal;font-weight:bold;font-stretch:normal;font-size:120.99466705px;line-height:1.25;font-family:Aharoni;-inkscape-font-specification:'Aharoni, Bold';font-variant-ligatures:normal;font-variant-caps:normal;font-variant-numeric:normal;font-feature-settings:normal;text-align:start;letter-spacing:0px;word-spacing:0px;writing-mode:lr-tb;text-anchor:start;fill:#000000;fill-opacity:1;stroke:none;stroke-width:2.37649584" d="m 69.681125,237.49895 q 0,3.0385 -1.87856,5.1421 -1.84375,2.0647 -4.55721,2.0647 -2.67866,0 -4.55722,-2.1036 -1.84375,-2.1036 -1.84375,-5.1032 0,-2.9996 1.84375,-5.0642 1.87856,-2.1036 4.55722,-2.1036 2.67865,0 4.55721,2.1036 1.87856,2.0646 1.87856,5.0642 z m -0.73057,50.05782 h -11.41048 v -36.15072 h 11.41048 z"/>
      <path inkscape:connector-curvature="0" id="path1963-3-1-2-8-3-6-3-3-3-4-7-6-0-8" style="font-style:normal;font-variant:normal;font-weight:bold;font-stretch:normal;font-size:120.99466705px;line-height:1.25;font-family:Aharoni;-inkscape-font-specification:'Aharoni, Bold';font-variant-ligatures:normal;font-variant-caps:normal;font-variant-numeric:normal;font-feature-settings:normal;text-align:start;letter-spacing:0px;word-spacing:0px;writing-mode:lr-tb;text-anchor:start;fill:#000000;fill-opacity:1;stroke:none;stroke-width:2.37649584" d="m 93.369625,261.92405 h -6.50536 v 25.63272 h -11.4104 v -25.63272 h -3.75712 v -10.518 h 3.75712 v -10.8686 h 11.4104 v 10.8686 h 6.50536 z"/>
      <path id="path1967-3-3-6-2-9-6-2-5-3-0-9-8-2-1" style="font-style:normal;font-variant:normal;font-weight:bold;font-stretch:normal;font-size:120.99466705px;line-height:1.25;font-family:Aharoni;-inkscape-font-specification:'Aharoni, Bold';font-variant-ligatures:normal;font-variant-caps:normal;font-variant-numeric:normal;font-feature-settings:normal;text-align:start;letter-spacing:0px;word-spacing:0px;writing-mode:lr-tb;text-anchor:start;fill:#000000;fill-opacity:1;stroke:none;stroke-width:2.37649584" d="m 160.61447,287.55677 h -12.34971 v -53.17432 h 12.34971 z" inkscape:connector-curvature="0"/>
      <path inkscape:connector-curvature="0" id="path1969-8-0-8-5-3-5-6-6-3-9-8-6-2-0" style="font-style:normal;font-variant:normal;font-weight:bold;font-stretch:normal;font-size:120.99466705px;line-height:1.25;font-family:Aharoni;-inkscape-font-specification:'Aharoni, Bold';font-variant-ligatures:normal;font-variant-caps:normal;font-variant-numeric:normal;font-feature-settings:normal;text-align:start;letter-spacing:0px;word-spacing:0px;writing-mode:lr-tb;text-anchor:start;fill:#000000;fill-opacity:1;stroke:none;stroke-width:2.37649584" d="m 201.6896,284.86883 q -6.05314,2.68794 -11.20172,2.68794 -8.97528,0 -16.07201,-6.42764 -9.04489,-8.21959 -9.04489,-21.42558 0,-13.2448 9.04489,-21.4644 7.09673,-6.4277 16.17636,-6.4277 4.93989,0 11.09737,2.6879 v 16.5561 q -1.73941,-2.3763 -3.54836,-3.5839 -3.30489,-2.2204 -7.09679,-2.2204 -4.8007,0 -8.34907,3.2333 -4.48766,4.0903 -4.48766,11.2191 0,7.0899 4.48766,11.1803 3.54837,3.23328 8.34907,3.23328 3.7919,0 7.09679,-2.22049 1.77415,-1.16869 3.54836,-3.58389 z"/>
      <path inkscape:transform-center-y="-13.656107" inkscape:transform-center-x="-3.9758045" sodipodi:nodetypes="csssssc" inkscape:connector-curvature="0" id="rect815-3-0-9-3-5-6-0-4-03-7-3-7-5-3-2-76-3-8-8-5-3-7-8-0-1-3-7-9-2-8-1" d="m 104.61223,181.4353 c 0,0 17.68257,27.27493 22.63096,34.41579 7.92879,11.44185 16.42741,30.36094 17.92806,45.50275 1.21005,12.20999 -1.38345,26.51285 -17.32077,30.11208 -11.70405,2.64313 -26.75007,-5.41371 -30.334975,-20.50903 -3.30533,-13.91816 -2.13088,-34.61412 0.0984,-48.67354 1.22049,-7.69719 5.657305,-36.06774 6.998335,-40.84805 z" style="font-style:normal;font-weight:normal;font-size:242.08590698px;line-height:1.25;font-family:sans-serif;letter-spacing:0px;word-spacing:0px;opacity:1;fill:#00456b;fill-opacity:1;stroke:none;stroke-width:0.6720385;stroke-miterlimit:4;stroke-dasharray:none;stroke-dashoffset:0;stroke-opacity:1;paint-order:markers fill stroke"/>
      <path sodipodi:nodetypes="ccscscsccscccscc" d="m 107.52748,246.32531 6.45576,30.78617 6.82019,-1.47997 c 5.75791,-1.24946 9.70999,-3.40081 11.85576,-6.45394 2.16431,-3.05721 2.68673,-7.25521 1.56721,-12.59398 -1.11209,-5.30332 -3.26743,-8.89247 -6.46601,-10.76744 -3.18372,-1.89669 -7.65528,-2.22015 -13.4127,-0.97081 z m -8.759905,-5.09591 12.713095,-2.78742 c 8.8634,-1.94336 15.73718,-1.59097 20.62135,1.05715 4.88003,2.62843 8.10326,7.71587 9.6697,15.26232 1.57464,7.58584 0.64804,13.61405 -2.77981,18.08462 -3.42783,4.4705 -9.55303,7.67294 -18.37559,9.60735 l -12.71311,2.78742 z" style="font-style:normal;font-weight:normal;font-size:242.08590698px;line-height:1.25;font-family:sans-serif;letter-spacing:0px;word-spacing:0px;fill:#ffffff;fill-opacity:1;stroke:none;stroke-width:1.60286868" id="path1193-3-5-3-2-7-4-5-6-0-0-6-9-2-4-7-0-0" inkscape:connector-curvature="0"/>
    </g>
  </g>
</g>
    </g>
  </g>
</svg>
