<?xml version="1.0" encoding="utf-8" standalone="no"?>
<!DOCTYPE svg PUBLIC "-//W3C//DTD SVG 1.1//EN"
  "http://www.w3.org/Graphics/SVG/1.1/DTD/svg11.dtd">
<!-- Created with matplotlib (http://matplotlib.org/) -->
<svg height="432pt" version="1.1" viewBox="0 0 720 432" width="720pt" xmlns="http://www.w3.org/2000/svg" xmlns:xlink="http://www.w3.org/1999/xlink">
 <defs>
  <style type="text/css">
*{stroke-linecap:butt;stroke-linejoin:round;}
  </style>
 </defs>
 <g id="figure_1">
  <g id="patch_1">
   <path d="M 0 432 
L 720 432 
L 720 0 
L 0 0 
z
" style="fill:#ffffff;"/>
  </g>
  <g id="axes_1">
   <g id="patch_2">
    <path d="M 93.85 375.86 
L 566.93 375.86 
L 566.93 17.28 
L 93.85 17.28 
z
" style="fill:#ffffff;"/>
   </g>
   <g id="matplotlib.axis_1">
    <g id="xtick_1">
     <g id="line2d_1">
      <defs>
       <path d="M 0 0 
L 0 4 
" id="m6883bd1554" style="stroke:#000000;stroke-width:1.5;"/>
      </defs>
      <g>
       <use style="stroke:#000000;stroke-width:1.5;" x="115.353636" xlink:href="#m6883bd1554" y="375.86"/>
      </g>
     </g>
     <g id="text_1">
      <!-- 0 -->
      <defs>
       <path d="M 31.78125 66.40625 
Q 24.171875 66.40625 20.328125 58.90625 
Q 16.5 51.421875 16.5 36.375 
Q 16.5 21.390625 20.328125 13.890625 
Q 24.171875 6.390625 31.78125 6.390625 
Q 39.453125 6.390625 43.28125 13.890625 
Q 47.125 21.390625 47.125 36.375 
Q 47.125 51.421875 43.28125 58.90625 
Q 39.453125 66.40625 31.78125 66.40625 
z
M 31.78125 74.21875 
Q 44.046875 74.21875 50.515625 64.515625 
Q 56.984375 54.828125 56.984375 36.375 
Q 56.984375 17.96875 50.515625 8.265625 
Q 44.046875 -1.421875 31.78125 -1.421875 
Q 19.53125 -1.421875 13.0625 8.265625 
Q 6.59375 17.96875 6.59375 36.375 
Q 6.59375 54.828125 13.0625 64.515625 
Q 19.53125 74.21875 31.78125 74.21875 
z
" id="DejaVuSans-30"/>
      </defs>
      <g transform="translate(110.263636 395.5175)scale(0.16 -0.16)">
       <use xlink:href="#DejaVuSans-30"/>
      </g>
     </g>
    </g>
    <g id="xtick_2">
     <g id="line2d_2">
      <g>
       <use style="stroke:#000000;stroke-width:1.5;" x="180.086032" xlink:href="#m6883bd1554" y="375.86"/>
      </g>
     </g>
     <g id="text_2">
      <!-- 1 -->
      <defs>
       <path d="M 12.40625 8.296875 
L 28.515625 8.296875 
L 28.515625 63.921875 
L 10.984375 60.40625 
L 10.984375 69.390625 
L 28.421875 72.90625 
L 38.28125 72.90625 
L 38.28125 8.296875 
L 54.390625 8.296875 
L 54.390625 0 
L 12.40625 0 
z
" id="DejaVuSans-31"/>
      </defs>
      <g transform="translate(174.996032 395.5175)scale(0.16 -0.16)">
       <use xlink:href="#DejaVuSans-31"/>
      </g>
     </g>
    </g>
    <g id="xtick_3">
     <g id="line2d_3">
      <g>
       <use style="stroke:#000000;stroke-width:1.5;" x="244.818428" xlink:href="#m6883bd1554" y="375.86"/>
      </g>
     </g>
     <g id="text_3">
      <!-- 2 -->
      <defs>
       <path d="M 19.1875 8.296875 
L 53.609375 8.296875 
L 53.609375 0 
L 7.328125 0 
L 7.328125 8.296875 
Q 12.9375 14.109375 22.625 23.890625 
Q 32.328125 33.6875 34.8125 36.53125 
Q 39.546875 41.84375 41.421875 45.53125 
Q 43.3125 49.21875 43.3125 52.78125 
Q 43.3125 58.59375 39.234375 62.25 
Q 35.15625 65.921875 28.609375 65.921875 
Q 23.96875 65.921875 18.8125 64.3125 
Q 13.671875 62.703125 7.8125 59.421875 
L 7.8125 69.390625 
Q 13.765625 71.78125 18.9375 73 
Q 24.125 74.21875 28.421875 74.21875 
Q 39.75 74.21875 46.484375 68.546875 
Q 53.21875 62.890625 53.21875 53.421875 
Q 53.21875 48.921875 51.53125 44.890625 
Q 49.859375 40.875 45.40625 35.40625 
Q 44.1875 33.984375 37.640625 27.21875 
Q 31.109375 20.453125 19.1875 8.296875 
z
" id="DejaVuSans-32"/>
      </defs>
      <g transform="translate(239.728428 395.5175)scale(0.16 -0.16)">
       <use xlink:href="#DejaVuSans-32"/>
      </g>
     </g>
    </g>
    <g id="xtick_4">
     <g id="line2d_4">
      <g>
       <use style="stroke:#000000;stroke-width:1.5;" x="309.550823" xlink:href="#m6883bd1554" y="375.86"/>
      </g>
     </g>
     <g id="text_4">
      <!-- 3 -->
      <defs>
       <path d="M 40.578125 39.3125 
Q 47.65625 37.796875 51.625 33 
Q 55.609375 28.21875 55.609375 21.1875 
Q 55.609375 10.40625 48.1875 4.484375 
Q 40.765625 -1.421875 27.09375 -1.421875 
Q 22.515625 -1.421875 17.65625 -0.515625 
Q 12.796875 0.390625 7.625 2.203125 
L 7.625 11.71875 
Q 11.71875 9.328125 16.59375 8.109375 
Q 21.484375 6.890625 26.8125 6.890625 
Q 36.078125 6.890625 40.9375 10.546875 
Q 45.796875 14.203125 45.796875 21.1875 
Q 45.796875 27.640625 41.28125 31.265625 
Q 36.765625 34.90625 28.71875 34.90625 
L 20.21875 34.90625 
L 20.21875 43.015625 
L 29.109375 43.015625 
Q 36.375 43.015625 40.234375 45.921875 
Q 44.09375 48.828125 44.09375 54.296875 
Q 44.09375 59.90625 40.109375 62.90625 
Q 36.140625 65.921875 28.71875 65.921875 
Q 24.65625 65.921875 20.015625 65.03125 
Q 15.375 64.15625 9.8125 62.3125 
L 9.8125 71.09375 
Q 15.4375 72.65625 20.34375 73.4375 
Q 25.25 74.21875 29.59375 74.21875 
Q 40.828125 74.21875 47.359375 69.109375 
Q 53.90625 64.015625 53.90625 55.328125 
Q 53.90625 49.265625 50.4375 45.09375 
Q 46.96875 40.921875 40.578125 39.3125 
z
" id="DejaVuSans-33"/>
      </defs>
      <g transform="translate(304.460823 395.5175)scale(0.16 -0.16)">
       <use xlink:href="#DejaVuSans-33"/>
      </g>
     </g>
    </g>
    <g id="xtick_5">
     <g id="line2d_5">
      <g>
       <use style="stroke:#000000;stroke-width:1.5;" x="374.283219" xlink:href="#m6883bd1554" y="375.86"/>
      </g>
     </g>
     <g id="text_5">
      <!-- 4 -->
      <defs>
       <path d="M 37.796875 64.3125 
L 12.890625 25.390625 
L 37.796875 25.390625 
z
M 35.203125 72.90625 
L 47.609375 72.90625 
L 47.609375 25.390625 
L 58.015625 25.390625 
L 58.015625 17.1875 
L 47.609375 17.1875 
L 47.609375 0 
L 37.796875 0 
L 37.796875 17.1875 
L 4.890625 17.1875 
L 4.890625 26.703125 
z
" id="DejaVuSans-34"/>
      </defs>
      <g transform="translate(369.193219 395.5175)scale(0.16 -0.16)">
       <use xlink:href="#DejaVuSans-34"/>
      </g>
     </g>
    </g>
    <g id="xtick_6">
     <g id="line2d_6">
      <g>
       <use style="stroke:#000000;stroke-width:1.5;" x="439.015614" xlink:href="#m6883bd1554" y="375.86"/>
      </g>
     </g>
     <g id="text_6">
      <!-- 5 -->
      <defs>
       <path d="M 10.796875 72.90625 
L 49.515625 72.90625 
L 49.515625 64.59375 
L 19.828125 64.59375 
L 19.828125 46.734375 
Q 21.96875 47.46875 24.109375 47.828125 
Q 26.265625 48.1875 28.421875 48.1875 
Q 40.625 48.1875 47.75 41.5 
Q 54.890625 34.8125 54.890625 23.390625 
Q 54.890625 11.625 47.5625 5.09375 
Q 40.234375 -1.421875 26.90625 -1.421875 
Q 22.3125 -1.421875 17.546875 -0.640625 
Q 12.796875 0.140625 7.71875 1.703125 
L 7.71875 11.625 
Q 12.109375 9.234375 16.796875 8.0625 
Q 21.484375 6.890625 26.703125 6.890625 
Q 35.15625 6.890625 40.078125 11.328125 
Q 45.015625 15.765625 45.015625 23.390625 
Q 45.015625 31 40.078125 35.4375 
Q 35.15625 39.890625 26.703125 39.890625 
Q 22.75 39.890625 18.8125 39.015625 
Q 14.890625 38.140625 10.796875 36.28125 
z
" id="DejaVuSans-35"/>
      </defs>
      <g transform="translate(433.925614 395.5175)scale(0.16 -0.16)">
       <use xlink:href="#DejaVuSans-35"/>
      </g>
     </g>
    </g>
    <g id="xtick_7">
     <g id="line2d_7">
      <g>
       <use style="stroke:#000000;stroke-width:1.5;" x="503.74801" xlink:href="#m6883bd1554" y="375.86"/>
      </g>
     </g>
     <g id="text_7">
      <!-- 6 -->
      <defs>
       <path d="M 33.015625 40.375 
Q 26.375 40.375 22.484375 35.828125 
Q 18.609375 31.296875 18.609375 23.390625 
Q 18.609375 15.53125 22.484375 10.953125 
Q 26.375 6.390625 33.015625 6.390625 
Q 39.65625 6.390625 43.53125 10.953125 
Q 47.40625 15.53125 47.40625 23.390625 
Q 47.40625 31.296875 43.53125 35.828125 
Q 39.65625 40.375 33.015625 40.375 
z
M 52.59375 71.296875 
L 52.59375 62.3125 
Q 48.875 64.0625 45.09375 64.984375 
Q 41.3125 65.921875 37.59375 65.921875 
Q 27.828125 65.921875 22.671875 59.328125 
Q 17.53125 52.734375 16.796875 39.40625 
Q 19.671875 43.65625 24.015625 45.921875 
Q 28.375 48.1875 33.59375 48.1875 
Q 44.578125 48.1875 50.953125 41.515625 
Q 57.328125 34.859375 57.328125 23.390625 
Q 57.328125 12.15625 50.6875 5.359375 
Q 44.046875 -1.421875 33.015625 -1.421875 
Q 20.359375 -1.421875 13.671875 8.265625 
Q 6.984375 17.96875 6.984375 36.375 
Q 6.984375 53.65625 15.1875 63.9375 
Q 23.390625 74.21875 37.203125 74.21875 
Q 40.921875 74.21875 44.703125 73.484375 
Q 48.484375 72.75 52.59375 71.296875 
z
" id="DejaVuSans-36"/>
      </defs>
      <g transform="translate(498.65801 395.5175)scale(0.16 -0.16)">
       <use xlink:href="#DejaVuSans-36"/>
      </g>
     </g>
    </g>
    <g id="text_8">
     <!-- 2^N, Iterations -->
     <defs>
      <path d="M 46.6875 72.90625 
L 73.1875 45.703125 
L 63.375 45.703125 
L 41.890625 64.984375 
L 20.40625 45.703125 
L 10.59375 45.703125 
L 37.109375 72.90625 
z
" id="DejaVuSans-5e"/>
      <path d="M 9.8125 72.90625 
L 23.09375 72.90625 
L 55.421875 11.921875 
L 55.421875 72.90625 
L 64.984375 72.90625 
L 64.984375 0 
L 51.703125 0 
L 19.390625 60.984375 
L 19.390625 0 
L 9.8125 0 
z
" id="DejaVuSans-4e"/>
      <path d="M 11.71875 12.40625 
L 22.015625 12.40625 
L 22.015625 4 
L 14.015625 -11.625 
L 7.71875 -11.625 
L 11.71875 4 
z
" id="DejaVuSans-2c"/>
      <path id="DejaVuSans-20"/>
      <path d="M 9.8125 72.90625 
L 19.671875 72.90625 
L 19.671875 0 
L 9.8125 0 
z
" id="DejaVuSans-49"/>
      <path d="M 18.3125 70.21875 
L 18.3125 54.6875 
L 36.8125 54.6875 
L 36.8125 47.703125 
L 18.3125 47.703125 
L 18.3125 18.015625 
Q 18.3125 11.328125 20.140625 9.421875 
Q 21.96875 7.515625 27.59375 7.515625 
L 36.8125 7.515625 
L 36.8125 0 
L 27.59375 0 
Q 17.1875 0 13.234375 3.875 
Q 9.28125 7.765625 9.28125 18.015625 
L 9.28125 47.703125 
L 2.6875 47.703125 
L 2.6875 54.6875 
L 9.28125 54.6875 
L 9.28125 70.21875 
z
" id="DejaVuSans-74"/>
      <path d="M 56.203125 29.59375 
L 56.203125 25.203125 
L 14.890625 25.203125 
Q 15.484375 15.921875 20.484375 11.0625 
Q 25.484375 6.203125 34.421875 6.203125 
Q 39.59375 6.203125 44.453125 7.46875 
Q 49.3125 8.734375 54.109375 11.28125 
L 54.109375 2.78125 
Q 49.265625 0.734375 44.1875 -0.34375 
Q 39.109375 -1.421875 33.890625 -1.421875 
Q 20.796875 -1.421875 13.15625 6.1875 
Q 5.515625 13.8125 5.515625 26.8125 
Q 5.515625 40.234375 12.765625 48.109375 
Q 20.015625 56 32.328125 56 
Q 43.359375 56 49.78125 48.890625 
Q 56.203125 41.796875 56.203125 29.59375 
z
M 47.21875 32.234375 
Q 47.125 39.59375 43.09375 43.984375 
Q 39.0625 48.390625 32.421875 48.390625 
Q 24.90625 48.390625 20.390625 44.140625 
Q 15.875 39.890625 15.1875 32.171875 
z
" id="DejaVuSans-65"/>
      <path d="M 41.109375 46.296875 
Q 39.59375 47.171875 37.8125 47.578125 
Q 36.03125 48 33.890625 48 
Q 26.265625 48 22.1875 43.046875 
Q 18.109375 38.09375 18.109375 28.8125 
L 18.109375 0 
L 9.078125 0 
L 9.078125 54.6875 
L 18.109375 54.6875 
L 18.109375 46.1875 
Q 20.953125 51.171875 25.484375 53.578125 
Q 30.03125 56 36.53125 56 
Q 37.453125 56 38.578125 55.875 
Q 39.703125 55.765625 41.0625 55.515625 
z
" id="DejaVuSans-72"/>
      <path d="M 34.28125 27.484375 
Q 23.390625 27.484375 19.1875 25 
Q 14.984375 22.515625 14.984375 16.5 
Q 14.984375 11.71875 18.140625 8.90625 
Q 21.296875 6.109375 26.703125 6.109375 
Q 34.1875 6.109375 38.703125 11.40625 
Q 43.21875 16.703125 43.21875 25.484375 
L 43.21875 27.484375 
z
M 52.203125 31.203125 
L 52.203125 0 
L 43.21875 0 
L 43.21875 8.296875 
Q 40.140625 3.328125 35.546875 0.953125 
Q 30.953125 -1.421875 24.3125 -1.421875 
Q 15.921875 -1.421875 10.953125 3.296875 
Q 6 8.015625 6 15.921875 
Q 6 25.140625 12.171875 29.828125 
Q 18.359375 34.515625 30.609375 34.515625 
L 43.21875 34.515625 
L 43.21875 35.40625 
Q 43.21875 41.609375 39.140625 45 
Q 35.0625 48.390625 27.6875 48.390625 
Q 23 48.390625 18.546875 47.265625 
Q 14.109375 46.140625 10.015625 43.890625 
L 10.015625 52.203125 
Q 14.9375 54.109375 19.578125 55.046875 
Q 24.21875 56 28.609375 56 
Q 40.484375 56 46.34375 49.84375 
Q 52.203125 43.703125 52.203125 31.203125 
z
" id="DejaVuSans-61"/>
      <path d="M 9.421875 54.6875 
L 18.40625 54.6875 
L 18.40625 0 
L 9.421875 0 
z
M 9.421875 75.984375 
L 18.40625 75.984375 
L 18.40625 64.59375 
L 9.421875 64.59375 
z
" id="DejaVuSans-69"/>
      <path d="M 30.609375 48.390625 
Q 23.390625 48.390625 19.1875 42.75 
Q 14.984375 37.109375 14.984375 27.296875 
Q 14.984375 17.484375 19.15625 11.84375 
Q 23.34375 6.203125 30.609375 6.203125 
Q 37.796875 6.203125 41.984375 11.859375 
Q 46.1875 17.53125 46.1875 27.296875 
Q 46.1875 37.015625 41.984375 42.703125 
Q 37.796875 48.390625 30.609375 48.390625 
z
M 30.609375 56 
Q 42.328125 56 49.015625 48.375 
Q 55.71875 40.765625 55.71875 27.296875 
Q 55.71875 13.875 49.015625 6.21875 
Q 42.328125 -1.421875 30.609375 -1.421875 
Q 18.84375 -1.421875 12.171875 6.21875 
Q 5.515625 13.875 5.515625 27.296875 
Q 5.515625 40.765625 12.171875 48.375 
Q 18.84375 56 30.609375 56 
z
" id="DejaVuSans-6f"/>
      <path d="M 54.890625 33.015625 
L 54.890625 0 
L 45.90625 0 
L 45.90625 32.71875 
Q 45.90625 40.484375 42.875 44.328125 
Q 39.84375 48.1875 33.796875 48.1875 
Q 26.515625 48.1875 22.3125 43.546875 
Q 18.109375 38.921875 18.109375 30.90625 
L 18.109375 0 
L 9.078125 0 
L 9.078125 54.6875 
L 18.109375 54.6875 
L 18.109375 46.1875 
Q 21.34375 51.125 25.703125 53.5625 
Q 30.078125 56 35.796875 56 
Q 45.21875 56 50.046875 50.171875 
Q 54.890625 44.34375 54.890625 33.015625 
z
" id="DejaVuSans-6e"/>
      <path d="M 44.28125 53.078125 
L 44.28125 44.578125 
Q 40.484375 46.53125 36.375 47.5 
Q 32.28125 48.484375 27.875 48.484375 
Q 21.1875 48.484375 17.84375 46.4375 
Q 14.5 44.390625 14.5 40.28125 
Q 14.5 37.15625 16.890625 35.375 
Q 19.28125 33.59375 26.515625 31.984375 
L 29.59375 31.296875 
Q 39.15625 29.25 43.1875 25.515625 
Q 47.21875 21.78125 47.21875 15.09375 
Q 47.21875 7.46875 41.1875 3.015625 
Q 35.15625 -1.421875 24.609375 -1.421875 
Q 20.21875 -1.421875 15.453125 -0.5625 
Q 10.6875 0.296875 5.421875 2 
L 5.421875 11.28125 
Q 10.40625 8.6875 15.234375 7.390625 
Q 20.0625 6.109375 24.8125 6.109375 
Q 31.15625 6.109375 34.5625 8.28125 
Q 37.984375 10.453125 37.984375 14.40625 
Q 37.984375 18.0625 35.515625 20.015625 
Q 33.0625 21.96875 24.703125 23.78125 
L 21.578125 24.515625 
Q 13.234375 26.265625 9.515625 29.90625 
Q 5.8125 33.546875 5.8125 39.890625 
Q 5.8125 47.609375 11.28125 51.796875 
Q 16.75 56 26.8125 56 
Q 31.78125 56 36.171875 55.265625 
Q 40.578125 54.546875 44.28125 53.078125 
z
" id="DejaVuSans-73"/>
     </defs>
     <g transform="translate(261.804375 416.522187)scale(0.18 -0.18)">
      <use xlink:href="#DejaVuSans-32"/>
      <use x="63.623047" xlink:href="#DejaVuSans-5e"/>
      <use x="147.412109" xlink:href="#DejaVuSans-4e"/>
      <use x="222.216797" xlink:href="#DejaVuSans-2c"/>
      <use x="254.003906" xlink:href="#DejaVuSans-20"/>
      <use x="285.791016" xlink:href="#DejaVuSans-49"/>
      <use x="315.283203" xlink:href="#DejaVuSans-74"/>
      <use x="354.492188" xlink:href="#DejaVuSans-65"/>
      <use x="416.015625" xlink:href="#DejaVuSans-72"/>
      <use x="457.128906" xlink:href="#DejaVuSans-61"/>
      <use x="518.408203" xlink:href="#DejaVuSans-74"/>
      <use x="557.617188" xlink:href="#DejaVuSans-69"/>
      <use x="585.400391" xlink:href="#DejaVuSans-6f"/>
      <use x="646.582031" xlink:href="#DejaVuSans-6e"/>
      <use x="709.960938" xlink:href="#DejaVuSans-73"/>
     </g>
    </g>
   </g>
   <g id="matplotlib.axis_2">
    <g id="ytick_1">
     <g id="line2d_8">
      <defs>
       <path d="M 0 0 
L -4 0 
" id="m96a565781b" style="stroke:#074bb6;stroke-width:1.5;"/>
      </defs>
      <g>
       <use style="fill:#074bb6;stroke:#074bb6;stroke-width:1.5;" x="93.85" xlink:href="#m96a565781b" y="313.312103"/>
      </g>
     </g>
     <g id="text_9">
      <!-- −3780 -->
      <defs>
       <path d="M 10.59375 35.5 
L 73.1875 35.5 
L 73.1875 27.203125 
L 10.59375 27.203125 
z
" id="DejaVuSans-2212"/>
       <path d="M 8.203125 72.90625 
L 55.078125 72.90625 
L 55.078125 68.703125 
L 28.609375 0 
L 18.3125 0 
L 43.21875 64.59375 
L 8.203125 64.59375 
z
" id="DejaVuSans-37"/>
       <path d="M 31.78125 34.625 
Q 24.75 34.625 20.71875 30.859375 
Q 16.703125 27.09375 16.703125 20.515625 
Q 16.703125 13.921875 20.71875 10.15625 
Q 24.75 6.390625 31.78125 6.390625 
Q 38.8125 6.390625 42.859375 10.171875 
Q 46.921875 13.96875 46.921875 20.515625 
Q 46.921875 27.09375 42.890625 30.859375 
Q 38.875 34.625 31.78125 34.625 
z
M 21.921875 38.8125 
Q 15.578125 40.375 12.03125 44.71875 
Q 8.5 49.078125 8.5 55.328125 
Q 8.5 64.0625 14.71875 69.140625 
Q 20.953125 74.21875 31.78125 74.21875 
Q 42.671875 74.21875 48.875 69.140625 
Q 55.078125 64.0625 55.078125 55.328125 
Q 55.078125 49.078125 51.53125 44.71875 
Q 48 40.375 41.703125 38.8125 
Q 48.828125 37.15625 52.796875 32.3125 
Q 56.78125 27.484375 56.78125 20.515625 
Q 56.78125 9.90625 50.3125 4.234375 
Q 43.84375 -1.421875 31.78125 -1.421875 
Q 19.734375 -1.421875 13.25 4.234375 
Q 6.78125 9.90625 6.78125 20.515625 
Q 6.78125 27.484375 10.78125 32.3125 
Q 14.796875 37.15625 21.921875 38.8125 
z
M 18.3125 54.390625 
Q 18.3125 48.734375 21.84375 45.5625 
Q 25.390625 42.390625 31.78125 42.390625 
Q 38.140625 42.390625 41.71875 45.5625 
Q 45.3125 48.734375 45.3125 54.390625 
Q 45.3125 60.0625 41.71875 63.234375 
Q 38.140625 66.40625 31.78125 66.40625 
Q 25.390625 66.40625 21.84375 63.234375 
Q 18.3125 60.0625 18.3125 54.390625 
z
" id="DejaVuSans-38"/>
      </defs>
      <g style="fill:#074bb6;" transform="translate(32.2225 319.390853)scale(0.16 -0.16)">
       <use xlink:href="#DejaVuSans-2212"/>
       <use x="83.789062" xlink:href="#DejaVuSans-33"/>
       <use x="147.412109" xlink:href="#DejaVuSans-37"/>
       <use x="211.035156" xlink:href="#DejaVuSans-38"/>
       <use x="274.658203" xlink:href="#DejaVuSans-30"/>
      </g>
     </g>
    </g>
    <g id="ytick_2">
     <g id="line2d_9">
      <g>
       <use style="fill:#074bb6;stroke:#074bb6;stroke-width:1.5;" x="93.85" xlink:href="#m96a565781b" y="241.048344"/>
      </g>
     </g>
     <g id="text_10">
      <!-- −3760 -->
      <g style="fill:#074bb6;" transform="translate(32.2225 247.127094)scale(0.16 -0.16)">
       <use xlink:href="#DejaVuSans-2212"/>
       <use x="83.789062" xlink:href="#DejaVuSans-33"/>
       <use x="147.412109" xlink:href="#DejaVuSans-37"/>
       <use x="211.035156" xlink:href="#DejaVuSans-36"/>
       <use x="274.658203" xlink:href="#DejaVuSans-30"/>
      </g>
     </g>
    </g>
    <g id="ytick_3">
     <g id="line2d_10">
      <g>
       <use style="fill:#074bb6;stroke:#074bb6;stroke-width:1.5;" x="93.85" xlink:href="#m96a565781b" y="168.784585"/>
      </g>
     </g>
     <g id="text_11">
      <!-- −3740 -->
      <g style="fill:#074bb6;" transform="translate(32.2225 174.863335)scale(0.16 -0.16)">
       <use xlink:href="#DejaVuSans-2212"/>
       <use x="83.789062" xlink:href="#DejaVuSans-33"/>
       <use x="147.412109" xlink:href="#DejaVuSans-37"/>
       <use x="211.035156" xlink:href="#DejaVuSans-34"/>
       <use x="274.658203" xlink:href="#DejaVuSans-30"/>
      </g>
     </g>
    </g>
    <g id="ytick_4">
     <g id="line2d_11">
      <g>
       <use style="fill:#074bb6;stroke:#074bb6;stroke-width:1.5;" x="93.85" xlink:href="#m96a565781b" y="96.520825"/>
      </g>
     </g>
     <g id="text_12">
      <!-- −3720 -->
      <g style="fill:#074bb6;" transform="translate(32.2225 102.599575)scale(0.16 -0.16)">
       <use xlink:href="#DejaVuSans-2212"/>
       <use x="83.789062" xlink:href="#DejaVuSans-33"/>
       <use x="147.412109" xlink:href="#DejaVuSans-37"/>
       <use x="211.035156" xlink:href="#DejaVuSans-32"/>
       <use x="274.658203" xlink:href="#DejaVuSans-30"/>
      </g>
     </g>
    </g>
    <g id="ytick_5">
     <g id="line2d_12">
      <g>
       <use style="fill:#074bb6;stroke:#074bb6;stroke-width:1.5;" x="93.85" xlink:href="#m96a565781b" y="24.257066"/>
      </g>
     </g>
     <g id="text_13">
      <!-- −3700 -->
      <g style="fill:#074bb6;" transform="translate(32.2225 30.335816)scale(0.16 -0.16)">
       <use xlink:href="#DejaVuSans-2212"/>
       <use x="83.789062" xlink:href="#DejaVuSans-33"/>
       <use x="147.412109" xlink:href="#DejaVuSans-37"/>
       <use x="211.035156" xlink:href="#DejaVuSans-30"/>
       <use x="274.658203" xlink:href="#DejaVuSans-30"/>
      </g>
     </g>
    </g>
    <g id="text_14">
     <!-- AICc -->
     <defs>
      <path d="M 34.1875 63.1875 
L 20.796875 26.90625 
L 47.609375 26.90625 
z
M 28.609375 72.90625 
L 39.796875 72.90625 
L 67.578125 0 
L 57.328125 0 
L 50.6875 18.703125 
L 17.828125 18.703125 
L 11.1875 0 
L 0.78125 0 
z
" id="DejaVuSans-41"/>
      <path d="M 64.40625 67.28125 
L 64.40625 56.890625 
Q 59.421875 61.53125 53.78125 63.8125 
Q 48.140625 66.109375 41.796875 66.109375 
Q 29.296875 66.109375 22.65625 58.46875 
Q 16.015625 50.828125 16.015625 36.375 
Q 16.015625 21.96875 22.65625 14.328125 
Q 29.296875 6.6875 41.796875 6.6875 
Q 48.140625 6.6875 53.78125 8.984375 
Q 59.421875 11.28125 64.40625 15.921875 
L 64.40625 5.609375 
Q 59.234375 2.09375 53.4375 0.328125 
Q 47.65625 -1.421875 41.21875 -1.421875 
Q 24.65625 -1.421875 15.125 8.703125 
Q 5.609375 18.84375 5.609375 36.375 
Q 5.609375 53.953125 15.125 64.078125 
Q 24.65625 74.21875 41.21875 74.21875 
Q 47.75 74.21875 53.53125 72.484375 
Q 59.328125 70.75 64.40625 67.28125 
z
" id="DejaVuSans-43"/>
      <path d="M 48.78125 52.59375 
L 48.78125 44.1875 
Q 44.96875 46.296875 41.140625 47.34375 
Q 37.3125 48.390625 33.40625 48.390625 
Q 24.65625 48.390625 19.8125 42.84375 
Q 14.984375 37.3125 14.984375 27.296875 
Q 14.984375 17.28125 19.8125 11.734375 
Q 24.65625 6.203125 33.40625 6.203125 
Q 37.3125 6.203125 41.140625 7.25 
Q 44.96875 8.296875 48.78125 10.40625 
L 48.78125 2.09375 
Q 45.015625 0.34375 40.984375 -0.53125 
Q 36.96875 -1.421875 32.421875 -1.421875 
Q 20.0625 -1.421875 12.78125 6.34375 
Q 5.515625 14.109375 5.515625 27.296875 
Q 5.515625 40.671875 12.859375 48.328125 
Q 20.21875 56 33.015625 56 
Q 37.15625 56 41.109375 55.140625 
Q 45.0625 54.296875 48.78125 52.59375 
z
" id="DejaVuSans-63"/>
     </defs>
     <g style="fill:#074bb6;" transform="translate(24.479063 216.614688)rotate(-90)scale(0.18 -0.18)">
      <use xlink:href="#DejaVuSans-41"/>
      <use x="68.408203" xlink:href="#DejaVuSans-49"/>
      <use x="97.900391" xlink:href="#DejaVuSans-43"/>
      <use x="167.724609" xlink:href="#DejaVuSans-63"/>
     </g>
    </g>
   </g>
   <g id="line2d_13">
    <path clip-path="url(#p926fbdeffb)" d="M 115.353636 33.579091 
L 180.086032 139.337103 
L 217.952056 139.337103 
L 244.818428 139.337103 
L 265.657604 171.38608 
L 282.684452 172.108717 
L 297.080446 181.683666 
L 309.550823 345.722399 
L 320.550476 345.722399 
L 330.39 345.722399 
L 339.290932 354.863765 
L 347.416847 354.863765 
L 354.891964 354.863765 
L 361.812841 355.441875 
L 368.256024 355.478007 
L 374.283219 355.478007 
L 379.944898 358.838271 
L 385.282871 358.838271 
L 390.332161 358.838271 
L 395.122396 358.910535 
L 399.678865 358.910535 
L 404.023328 358.910535 
L 408.174638 358.910535 
L 412.149243 358.910535 
L 415.961572 358.910535 
L 419.62436 358.910535 
L 423.148895 358.910535 
L 426.545237 358.910535 
L 429.822384 358.910535 
L 432.98842 359.452513 
L 436.050632 359.452513 
L 439.015614 359.452513 
L 441.889352 359.452513 
L 444.677294 359.452513 
L 447.384414 359.452513 
L 450.015267 359.452513 
L 452.574033 359.452513 
L 455.064556 359.452513 
L 457.490384 359.452513 
L 459.854791 359.452513 
L 462.160812 359.452513 
L 464.411261 359.452513 
L 466.608753 359.452513 
L 468.755724 359.452513 
L 470.854444 359.452513 
L 472.907034 359.452513 
L 474.915479 359.488645 
L 476.881638 359.488645 
L 478.807255 359.488645 
L 480.693968 359.488645 
L 482.543318 359.488645 
L 484.356755 359.488645 
L 486.135649 359.488645 
L 487.881291 359.488645 
L 489.594901 359.488645 
L 491.277633 359.488645 
L 492.93058 359.488645 
L 494.55478 359.488645 
L 496.151213 359.488645 
L 497.720815 359.488645 
L 499.264472 359.488645 
L 500.783027 359.524777 
L 502.277285 359.524777 
L 503.74801 359.524777 
L 505.195932 359.524777 
L 506.621748 359.524777 
L 508.026122 359.524777 
L 509.409689 359.524777 
L 510.773058 359.524777 
L 512.116809 359.524777 
L 513.4415 359.524777 
L 514.747662 359.524777 
L 516.035808 359.524777 
L 517.306428 359.524777 
L 518.559992 359.524777 
L 519.796952 359.524777 
L 521.017742 359.524777 
L 522.222779 359.524777 
L 523.412466 359.524777 
L 524.587187 359.524777 
L 525.747315 359.524777 
L 526.893208 359.524777 
L 528.025211 359.524777 
L 529.143657 359.524777 
L 530.248866 359.524777 
L 531.341149 359.524777 
L 532.420804 359.560909 
L 533.488119 359.560909 
L 534.543375 359.560909 
L 535.586839 359.560909 
L 536.618774 359.560909 
L 537.63943 359.560909 
L 538.649052 359.560909 
L 539.647875 359.560909 
L 540.636129 359.560909 
L 541.614034 359.560909 
L 542.581805 359.560909 
L 543.539651 359.560909 
L 544.487772 359.560909 
L 545.426364 359.560909 
" style="fill:none;stroke:#074bb6;stroke-linecap:square;stroke-width:3;"/>
   </g>
   <g id="patch_3">
    <path d="M 93.85 375.86 
L 93.85 17.28 
" style="fill:none;stroke:#000000;stroke-linecap:square;stroke-linejoin:miter;stroke-width:0.8;"/>
   </g>
   <g id="patch_4">
    <path d="M 566.93 375.86 
L 566.93 17.28 
" style="fill:none;stroke:#000000;stroke-linecap:square;stroke-linejoin:miter;stroke-width:0.8;"/>
   </g>
   <g id="patch_5">
    <path d="M 93.85 375.86 
L 566.93 375.86 
" style="fill:none;stroke:#000000;stroke-linecap:square;stroke-linejoin:miter;stroke-width:0.8;"/>
   </g>
   <g id="patch_6">
    <path d="M 93.85 17.28 
L 566.93 17.28 
" style="fill:none;stroke:#000000;stroke-linecap:square;stroke-linejoin:miter;stroke-width:0.8;"/>
   </g>
   <g id="legend_1">
    <g id="patch_7">
     <path d="M 361.451562 110.98125 
L 554.33 110.98125 
Q 557.93 110.98125 557.93 107.38125 
L 557.93 29.88 
Q 557.93 26.28 554.33 26.28 
L 361.451562 26.28 
Q 357.851562 26.28 357.851562 29.88 
L 357.851562 107.38125 
Q 357.851562 110.98125 361.451562 110.98125 
z
" style="fill:#ffffff;opacity:0.8;stroke:#cccccc;stroke-linejoin:miter;"/>
    </g>
    <g id="line2d_14">
     <path d="M 365.051562 40.857188 
L 401.051562 40.857188 
" style="fill:none;stroke:#074bb6;stroke-linecap:square;stroke-width:3;"/>
    </g>
    <g id="line2d_15"/>
    <g id="text_15">
     <!-- AICc -->
     <g transform="translate(415.451562 47.157188)scale(0.18 -0.18)">
      <use xlink:href="#DejaVuSans-41"/>
      <use x="68.408203" xlink:href="#DejaVuSans-49"/>
      <use x="97.900391" xlink:href="#DejaVuSans-43"/>
      <use x="167.724609" xlink:href="#DejaVuSans-63"/>
     </g>
    </g>
    <g id="line2d_16">
     <path d="M 365.051562 67.280625 
L 401.051562 67.280625 
" style="fill:none;stroke:#808080;stroke-dasharray:11.1,4.8;stroke-dashoffset:0;stroke-width:3;"/>
    </g>
    <g id="line2d_17"/>
    <g id="text_16">
     <!-- $\log_{10}$RSS -->
     <defs>
      <path d="M 9.421875 75.984375 
L 18.40625 75.984375 
L 18.40625 0 
L 9.421875 0 
z
" id="DejaVuSans-6c"/>
      <path d="M 45.40625 27.984375 
Q 45.40625 37.75 41.375 43.109375 
Q 37.359375 48.484375 30.078125 48.484375 
Q 22.859375 48.484375 18.828125 43.109375 
Q 14.796875 37.75 14.796875 27.984375 
Q 14.796875 18.265625 18.828125 12.890625 
Q 22.859375 7.515625 30.078125 7.515625 
Q 37.359375 7.515625 41.375 12.890625 
Q 45.40625 18.265625 45.40625 27.984375 
z
M 54.390625 6.78125 
Q 54.390625 -7.171875 48.1875 -13.984375 
Q 42 -20.796875 29.203125 -20.796875 
Q 24.46875 -20.796875 20.265625 -20.09375 
Q 16.0625 -19.390625 12.109375 -17.921875 
L 12.109375 -9.1875 
Q 16.0625 -11.328125 19.921875 -12.34375 
Q 23.78125 -13.375 27.78125 -13.375 
Q 36.625 -13.375 41.015625 -8.765625 
Q 45.40625 -4.15625 45.40625 5.171875 
L 45.40625 9.625 
Q 42.625 4.78125 38.28125 2.390625 
Q 33.9375 0 27.875 0 
Q 17.828125 0 11.671875 7.65625 
Q 5.515625 15.328125 5.515625 27.984375 
Q 5.515625 40.671875 11.671875 48.328125 
Q 17.828125 56 27.875 56 
Q 33.9375 56 38.28125 53.609375 
Q 42.625 51.21875 45.40625 46.390625 
L 45.40625 54.6875 
L 54.390625 54.6875 
z
" id="DejaVuSans-67"/>
      <path d="M 44.390625 34.1875 
Q 47.5625 33.109375 50.5625 29.59375 
Q 53.5625 26.078125 56.59375 19.921875 
L 66.609375 0 
L 56 0 
L 46.6875 18.703125 
Q 43.0625 26.03125 39.671875 28.421875 
Q 36.28125 30.8125 30.421875 30.8125 
L 19.671875 30.8125 
L 19.671875 0 
L 9.8125 0 
L 9.8125 72.90625 
L 32.078125 72.90625 
Q 44.578125 72.90625 50.734375 67.671875 
Q 56.890625 62.453125 56.890625 51.90625 
Q 56.890625 45.015625 53.6875 40.46875 
Q 50.484375 35.9375 44.390625 34.1875 
z
M 19.671875 64.796875 
L 19.671875 38.921875 
L 32.078125 38.921875 
Q 39.203125 38.921875 42.84375 42.21875 
Q 46.484375 45.515625 46.484375 51.90625 
Q 46.484375 58.296875 42.84375 61.546875 
Q 39.203125 64.796875 32.078125 64.796875 
z
" id="DejaVuSans-52"/>
      <path d="M 53.515625 70.515625 
L 53.515625 60.890625 
Q 47.90625 63.578125 42.921875 64.890625 
Q 37.9375 66.21875 33.296875 66.21875 
Q 25.25 66.21875 20.875 63.09375 
Q 16.5 59.96875 16.5 54.203125 
Q 16.5 49.359375 19.40625 46.890625 
Q 22.3125 44.4375 30.421875 42.921875 
L 36.375 41.703125 
Q 47.40625 39.59375 52.65625 34.296875 
Q 57.90625 29 57.90625 20.125 
Q 57.90625 9.515625 50.796875 4.046875 
Q 43.703125 -1.421875 29.984375 -1.421875 
Q 24.8125 -1.421875 18.96875 -0.25 
Q 13.140625 0.921875 6.890625 3.21875 
L 6.890625 13.375 
Q 12.890625 10.015625 18.65625 8.296875 
Q 24.421875 6.59375 29.984375 6.59375 
Q 38.421875 6.59375 43.015625 9.90625 
Q 47.609375 13.234375 47.609375 19.390625 
Q 47.609375 24.75 44.3125 27.78125 
Q 41.015625 30.8125 33.5 32.328125 
L 27.484375 33.5 
Q 16.453125 35.6875 11.515625 40.375 
Q 6.59375 45.0625 6.59375 53.421875 
Q 6.59375 63.09375 13.40625 68.65625 
Q 20.21875 74.21875 32.171875 74.21875 
Q 37.3125 74.21875 42.625 73.28125 
Q 47.953125 72.359375 53.515625 70.515625 
z
" id="DejaVuSans-53"/>
     </defs>
     <g transform="translate(415.451562 73.580625)scale(0.18 -0.18)">
      <use transform="translate(0 0.015625)" xlink:href="#DejaVuSans-6c"/>
      <use transform="translate(27.783203 0.015625)" xlink:href="#DejaVuSans-6f"/>
      <use transform="translate(88.964844 0.015625)" xlink:href="#DejaVuSans-67"/>
      <use transform="translate(153.398438 -16.390625)scale(0.7)" xlink:href="#DejaVuSans-31"/>
      <use transform="translate(197.93457 -16.390625)scale(0.7)" xlink:href="#DejaVuSans-30"/>
      <use transform="translate(245.205078 0.015625)" xlink:href="#DejaVuSans-52"/>
      <use transform="translate(314.6875 0.015625)" xlink:href="#DejaVuSans-53"/>
      <use transform="translate(378.164062 0.015625)" xlink:href="#DejaVuSans-53"/>
     </g>
    </g>
    <g id="line2d_18">
     <path d="M 365.051562 93.737813 
L 401.051562 93.737813 
" style="fill:none;stroke:#ff1a85;stroke-linecap:square;stroke-width:3;"/>
    </g>
    <g id="line2d_19"/>
    <g id="text_17">
     <!-- Selection Ratio -->
     <g transform="translate(415.451562 100.037813)scale(0.18 -0.18)">
      <use xlink:href="#DejaVuSans-53"/>
      <use x="63.476562" xlink:href="#DejaVuSans-65"/>
      <use x="125" xlink:href="#DejaVuSans-6c"/>
      <use x="152.783203" xlink:href="#DejaVuSans-65"/>
      <use x="214.306641" xlink:href="#DejaVuSans-63"/>
      <use x="269.287109" xlink:href="#DejaVuSans-74"/>
      <use x="308.496094" xlink:href="#DejaVuSans-69"/>
      <use x="336.279297" xlink:href="#DejaVuSans-6f"/>
      <use x="397.460938" xlink:href="#DejaVuSans-6e"/>
      <use x="460.839844" xlink:href="#DejaVuSans-20"/>
      <use x="492.626953" xlink:href="#DejaVuSans-52"/>
      <use x="562.078125" xlink:href="#DejaVuSans-61"/>
      <use x="623.357422" xlink:href="#DejaVuSans-74"/>
      <use x="662.566406" xlink:href="#DejaVuSans-69"/>
      <use x="690.349609" xlink:href="#DejaVuSans-6f"/>
     </g>
    </g>
   </g>
  </g>
  <g id="axes_2">
   <g id="matplotlib.axis_3">
    <g id="ytick_6">
     <g id="line2d_20">
      <defs>
       <path d="M 0 0 
L 4 0 
" id="m65ad5172a4" style="stroke:#808080;stroke-width:1.5;"/>
      </defs>
      <g>
       <use style="fill:#808080;stroke:#808080;stroke-width:1.5;" x="566.93" xlink:href="#m65ad5172a4" y="332.953082"/>
      </g>
     </g>
     <g id="text_18">
      <!-- −2.98 -->
      <defs>
       <path d="M 10.6875 12.40625 
L 21 12.40625 
L 21 0 
L 10.6875 0 
z
" id="DejaVuSans-2e"/>
       <path d="M 10.984375 1.515625 
L 10.984375 10.5 
Q 14.703125 8.734375 18.5 7.8125 
Q 22.3125 6.890625 25.984375 6.890625 
Q 35.75 6.890625 40.890625 13.453125 
Q 46.046875 20.015625 46.78125 33.40625 
Q 43.953125 29.203125 39.59375 26.953125 
Q 35.25 24.703125 29.984375 24.703125 
Q 19.046875 24.703125 12.671875 31.3125 
Q 6.296875 37.9375 6.296875 49.421875 
Q 6.296875 60.640625 12.9375 67.421875 
Q 19.578125 74.21875 30.609375 74.21875 
Q 43.265625 74.21875 49.921875 64.515625 
Q 56.59375 54.828125 56.59375 36.375 
Q 56.59375 19.140625 48.40625 8.859375 
Q 40.234375 -1.421875 26.421875 -1.421875 
Q 22.703125 -1.421875 18.890625 -0.6875 
Q 15.09375 0.046875 10.984375 1.515625 
z
M 30.609375 32.421875 
Q 37.25 32.421875 41.125 36.953125 
Q 45.015625 41.5 45.015625 49.421875 
Q 45.015625 57.28125 41.125 61.84375 
Q 37.25 66.40625 30.609375 66.40625 
Q 23.96875 66.40625 20.09375 61.84375 
Q 16.21875 57.28125 16.21875 49.421875 
Q 16.21875 41.5 20.09375 36.953125 
Q 23.96875 32.421875 30.609375 32.421875 
z
" id="DejaVuSans-39"/>
      </defs>
      <g style="fill:#808080;" transform="translate(574.43 339.031832)scale(0.16 -0.16)">
       <use xlink:href="#DejaVuSans-2212"/>
       <use x="83.789062" xlink:href="#DejaVuSans-32"/>
       <use x="147.412109" xlink:href="#DejaVuSans-2e"/>
       <use x="179.199219" xlink:href="#DejaVuSans-39"/>
       <use x="242.822266" xlink:href="#DejaVuSans-38"/>
      </g>
     </g>
    </g>
    <g id="ytick_7">
     <g id="line2d_21">
      <g>
       <use style="fill:#808080;stroke:#808080;stroke-width:1.5;" x="566.93" xlink:href="#m65ad5172a4" y="267.047141"/>
      </g>
     </g>
     <g id="text_19">
      <!-- −2.96 -->
      <g style="fill:#808080;" transform="translate(574.43 273.125891)scale(0.16 -0.16)">
       <use xlink:href="#DejaVuSans-2212"/>
       <use x="83.789062" xlink:href="#DejaVuSans-32"/>
       <use x="147.412109" xlink:href="#DejaVuSans-2e"/>
       <use x="179.199219" xlink:href="#DejaVuSans-39"/>
       <use x="242.822266" xlink:href="#DejaVuSans-36"/>
      </g>
     </g>
    </g>
    <g id="ytick_8">
     <g id="line2d_22">
      <g>
       <use style="fill:#808080;stroke:#808080;stroke-width:1.5;" x="566.93" xlink:href="#m65ad5172a4" y="201.1412"/>
      </g>
     </g>
     <g id="text_20">
      <!-- −2.94 -->
      <g style="fill:#808080;" transform="translate(574.43 207.21995)scale(0.16 -0.16)">
       <use xlink:href="#DejaVuSans-2212"/>
       <use x="83.789062" xlink:href="#DejaVuSans-32"/>
       <use x="147.412109" xlink:href="#DejaVuSans-2e"/>
       <use x="179.199219" xlink:href="#DejaVuSans-39"/>
       <use x="242.822266" xlink:href="#DejaVuSans-34"/>
      </g>
     </g>
    </g>
    <g id="ytick_9">
     <g id="line2d_23">
      <g>
       <use style="fill:#808080;stroke:#808080;stroke-width:1.5;" x="566.93" xlink:href="#m65ad5172a4" y="135.235258"/>
      </g>
     </g>
     <g id="text_21">
      <!-- −2.92 -->
      <g style="fill:#808080;" transform="translate(574.43 141.314008)scale(0.16 -0.16)">
       <use xlink:href="#DejaVuSans-2212"/>
       <use x="83.789062" xlink:href="#DejaVuSans-32"/>
       <use x="147.412109" xlink:href="#DejaVuSans-2e"/>
       <use x="179.199219" xlink:href="#DejaVuSans-39"/>
       <use x="242.822266" xlink:href="#DejaVuSans-32"/>
      </g>
     </g>
    </g>
    <g id="ytick_10">
     <g id="line2d_24">
      <g>
       <use style="fill:#808080;stroke:#808080;stroke-width:1.5;" x="566.93" xlink:href="#m65ad5172a4" y="69.329317"/>
      </g>
     </g>
     <g id="text_22">
      <!-- −2.90 -->
      <g style="fill:#808080;" transform="translate(574.43 75.408067)scale(0.16 -0.16)">
       <use xlink:href="#DejaVuSans-2212"/>
       <use x="83.789062" xlink:href="#DejaVuSans-32"/>
       <use x="147.412109" xlink:href="#DejaVuSans-2e"/>
       <use x="179.199219" xlink:href="#DejaVuSans-39"/>
       <use x="242.822266" xlink:href="#DejaVuSans-30"/>
      </g>
     </g>
    </g>
    <g id="text_23">
     <!-- $\log_{10}$RSS -->
     <g style="fill:#808080;" transform="translate(641.1425 236.35)rotate(-90)scale(0.18 -0.18)">
      <use transform="translate(0 0.015625)" xlink:href="#DejaVuSans-6c"/>
      <use transform="translate(27.783203 0.015625)" xlink:href="#DejaVuSans-6f"/>
      <use transform="translate(88.964844 0.015625)" xlink:href="#DejaVuSans-67"/>
      <use transform="translate(153.398438 -16.390625)scale(0.7)" xlink:href="#DejaVuSans-31"/>
      <use transform="translate(197.93457 -16.390625)scale(0.7)" xlink:href="#DejaVuSans-30"/>
      <use transform="translate(245.205078 0.015625)" xlink:href="#DejaVuSans-52"/>
      <use transform="translate(314.6875 0.015625)" xlink:href="#DejaVuSans-53"/>
      <use transform="translate(378.164062 0.015625)" xlink:href="#DejaVuSans-53"/>
     </g>
    </g>
   </g>
   <g id="line2d_25">
    <path clip-path="url(#p926fbdeffb)" d="M 115.353636 33.579091 
L 180.086032 107.560171 
L 217.952056 107.560171 
L 244.818428 107.560171 
L 265.657604 285.118026 
L 282.684452 73.627603 
L 297.080446 292.366547 
L 309.550823 350.60821 
L 320.550476 350.60821 
L 330.39 350.60821 
L 339.290932 338.346115 
L 347.416847 338.346115 
L 354.891964 338.346115 
L 361.812841 336.755621 
L 368.256024 336.865253 
L 374.283219 336.865253 
L 379.944898 359.560909 
L 385.282871 359.560909 
L 390.332161 359.560909 
L 395.122396 359.449524 
L 399.678865 359.449524 
L 404.023328 359.449524 
L 408.174638 359.449524 
L 412.149243 359.449524 
L 415.961572 359.449524 
L 419.62436 359.449524 
L 423.148895 359.379913 
L 426.545237 359.379913 
L 429.822384 359.379913 
L 432.98842 358.336151 
L 436.050632 358.336151 
L 439.015614 358.336151 
L 441.889352 358.336151 
L 444.677294 358.336151 
L 447.384414 358.336151 
L 450.015267 358.336151 
L 452.574033 358.336151 
L 455.064556 358.336151 
L 457.490384 358.336151 
L 459.854791 358.336151 
L 462.160812 358.336151 
L 464.411261 358.336151 
L 466.608753 358.336151 
L 468.755724 358.336151 
L 470.854444 358.085762 
L 472.907034 358.085762 
L 474.915479 358.197041 
L 476.881638 358.197041 
L 478.807255 358.197041 
L 480.693968 358.197041 
L 482.543318 358.197041 
L 484.356755 358.197041 
L 486.135649 358.197041 
L 487.881291 358.197041 
L 489.594901 358.197041 
L 491.277633 358.197041 
L 492.93058 358.197041 
L 494.55478 358.197041 
L 496.151213 358.197041 
L 497.720815 358.197041 
L 499.264472 358.197041 
L 500.783027 357.946675 
L 502.277285 357.946675 
L 503.74801 357.946675 
L 505.195932 357.946675 
L 506.621748 357.946675 
L 508.026122 357.946675 
L 509.409689 357.946675 
L 510.773058 357.946675 
L 512.116809 357.946675 
L 513.4415 357.946675 
L 514.747662 357.946675 
L 516.035808 357.946675 
L 517.306428 357.946675 
L 518.559992 357.877137 
L 519.796952 357.877137 
L 521.017742 357.877137 
L 522.222779 357.877137 
L 523.412466 357.877137 
L 524.587187 357.877137 
L 525.747315 357.877137 
L 526.893208 357.877137 
L 528.025211 357.877137 
L 529.143657 357.877137 
L 530.248866 357.877137 
L 531.341149 357.877137 
L 532.420804 356.834471 
L 533.488119 356.834471 
L 534.543375 356.834471 
L 535.586839 356.834471 
L 536.618774 356.834471 
L 537.63943 356.834471 
L 538.649052 356.834471 
L 539.647875 356.834471 
L 540.636129 356.834471 
L 541.614034 356.834471 
L 542.581805 356.834471 
L 543.539651 356.834471 
L 544.487772 356.834471 
L 545.426364 356.834471 
" style="fill:none;stroke:#808080;stroke-dasharray:11.1,4.8;stroke-dashoffset:0;stroke-width:3;"/>
   </g>
   <g id="patch_8">
    <path d="M 93.85 375.86 
L 93.85 17.28 
" style="fill:none;stroke:#000000;stroke-linecap:square;stroke-linejoin:miter;stroke-width:0.8;"/>
   </g>
   <g id="patch_9">
    <path d="M 566.93 375.86 
L 566.93 17.28 
" style="fill:none;stroke:#000000;stroke-linecap:square;stroke-linejoin:miter;stroke-width:0.8;"/>
   </g>
   <g id="patch_10">
    <path d="M 93.85 375.86 
L 566.93 375.86 
" style="fill:none;stroke:#000000;stroke-linecap:square;stroke-linejoin:miter;stroke-width:0.8;"/>
   </g>
   <g id="patch_11">
    <path d="M 93.85 17.28 
L 566.93 17.28 
" style="fill:none;stroke:#000000;stroke-linecap:square;stroke-linejoin:miter;stroke-width:0.8;"/>
   </g>
  </g>
  <g id="axes_3">
   <g id="matplotlib.axis_4">
    <g id="ytick_11">
     <g id="line2d_26">
      <defs>
       <path d="M 0 0 
L 4 0 
" id="m12eac7aec4" style="stroke:#ff1a85;stroke-width:1.5;"/>
      </defs>
      <g>
       <use style="fill:#ff1a85;stroke:#ff1a85;stroke-width:1.5;" x="661.546" xlink:href="#m12eac7aec4" y="375.86"/>
      </g>
     </g>
     <g id="text_24">
      <!-- 0 -->
      <g style="fill:#ff1a85;" transform="translate(669.046 381.93875)scale(0.16 -0.16)">
       <use xlink:href="#DejaVuSans-30"/>
      </g>
     </g>
    </g>
    <g id="ytick_12">
     <g id="line2d_27">
      <g>
       <use style="fill:#ff1a85;stroke:#ff1a85;stroke-width:1.5;" x="661.546" xlink:href="#m12eac7aec4" y="304.144"/>
      </g>
     </g>
     <g id="text_25">
      <!-- 20 -->
      <g style="fill:#ff1a85;" transform="translate(669.046 310.22275)scale(0.16 -0.16)">
       <use xlink:href="#DejaVuSans-32"/>
       <use x="63.623047" xlink:href="#DejaVuSans-30"/>
      </g>
     </g>
    </g>
    <g id="ytick_13">
     <g id="line2d_28">
      <g>
       <use style="fill:#ff1a85;stroke:#ff1a85;stroke-width:1.5;" x="661.546" xlink:href="#m12eac7aec4" y="232.428"/>
      </g>
     </g>
     <g id="text_26">
      <!-- 40 -->
      <g style="fill:#ff1a85;" transform="translate(669.046 238.50675)scale(0.16 -0.16)">
       <use xlink:href="#DejaVuSans-34"/>
       <use x="63.623047" xlink:href="#DejaVuSans-30"/>
      </g>
     </g>
    </g>
    <g id="ytick_14">
     <g id="line2d_29">
      <g>
       <use style="fill:#ff1a85;stroke:#ff1a85;stroke-width:1.5;" x="661.546" xlink:href="#m12eac7aec4" y="160.712"/>
      </g>
     </g>
     <g id="text_27">
      <!-- 60 -->
      <g style="fill:#ff1a85;" transform="translate(669.046 166.79075)scale(0.16 -0.16)">
       <use xlink:href="#DejaVuSans-36"/>
       <use x="63.623047" xlink:href="#DejaVuSans-30"/>
      </g>
     </g>
    </g>
    <g id="ytick_15">
     <g id="line2d_30">
      <g>
       <use style="fill:#ff1a85;stroke:#ff1a85;stroke-width:1.5;" x="661.546" xlink:href="#m12eac7aec4" y="88.996"/>
      </g>
     </g>
     <g id="text_28">
      <!-- 80 -->
      <g style="fill:#ff1a85;" transform="translate(669.046 95.07475)scale(0.16 -0.16)">
       <use xlink:href="#DejaVuSans-38"/>
       <use x="63.623047" xlink:href="#DejaVuSans-30"/>
      </g>
     </g>
    </g>
    <g id="ytick_16">
     <g id="line2d_31">
      <g>
       <use style="fill:#ff1a85;stroke:#ff1a85;stroke-width:1.5;" x="661.546" xlink:href="#m12eac7aec4" y="17.28"/>
      </g>
     </g>
     <g id="text_29">
      <!-- 100 -->
      <g style="fill:#ff1a85;" transform="translate(669.046 23.35875)scale(0.16 -0.16)">
       <use xlink:href="#DejaVuSans-31"/>
       <use x="63.623047" xlink:href="#DejaVuSans-30"/>
       <use x="127.246094" xlink:href="#DejaVuSans-30"/>
      </g>
     </g>
    </g>
    <g id="text_30">
     <!-- Selection Ratio, % -->
     <defs>
      <path d="M 72.703125 32.078125 
Q 68.453125 32.078125 66.03125 28.46875 
Q 63.625 24.859375 63.625 18.40625 
Q 63.625 12.0625 66.03125 8.421875 
Q 68.453125 4.78125 72.703125 4.78125 
Q 76.859375 4.78125 79.265625 8.421875 
Q 81.6875 12.0625 81.6875 18.40625 
Q 81.6875 24.8125 79.265625 28.4375 
Q 76.859375 32.078125 72.703125 32.078125 
z
M 72.703125 38.28125 
Q 80.421875 38.28125 84.953125 32.90625 
Q 89.5 27.546875 89.5 18.40625 
Q 89.5 9.28125 84.9375 3.921875 
Q 80.375 -1.421875 72.703125 -1.421875 
Q 64.890625 -1.421875 60.34375 3.921875 
Q 55.8125 9.28125 55.8125 18.40625 
Q 55.8125 27.59375 60.375 32.9375 
Q 64.9375 38.28125 72.703125 38.28125 
z
M 22.3125 68.015625 
Q 18.109375 68.015625 15.6875 64.375 
Q 13.28125 60.75 13.28125 54.390625 
Q 13.28125 47.953125 15.671875 44.328125 
Q 18.0625 40.71875 22.3125 40.71875 
Q 26.5625 40.71875 28.96875 44.328125 
Q 31.390625 47.953125 31.390625 54.390625 
Q 31.390625 60.6875 28.953125 64.34375 
Q 26.515625 68.015625 22.3125 68.015625 
z
M 66.40625 74.21875 
L 74.21875 74.21875 
L 28.609375 -1.421875 
L 20.796875 -1.421875 
z
M 22.3125 74.21875 
Q 30.03125 74.21875 34.609375 68.875 
Q 39.203125 63.53125 39.203125 54.390625 
Q 39.203125 45.171875 34.640625 39.84375 
Q 30.078125 34.515625 22.3125 34.515625 
Q 14.546875 34.515625 10.03125 39.859375 
Q 5.515625 45.21875 5.515625 54.390625 
Q 5.515625 63.484375 10.046875 68.84375 
Q 14.59375 74.21875 22.3125 74.21875 
z
" id="DejaVuSans-25"/>
     </defs>
     <g style="fill:#ff1a85;" transform="translate(717.263187 278.48125)rotate(-90)scale(0.18 -0.18)">
      <use xlink:href="#DejaVuSans-53"/>
      <use x="63.476562" xlink:href="#DejaVuSans-65"/>
      <use x="125" xlink:href="#DejaVuSans-6c"/>
      <use x="152.783203" xlink:href="#DejaVuSans-65"/>
      <use x="214.306641" xlink:href="#DejaVuSans-63"/>
      <use x="269.287109" xlink:href="#DejaVuSans-74"/>
      <use x="308.496094" xlink:href="#DejaVuSans-69"/>
      <use x="336.279297" xlink:href="#DejaVuSans-6f"/>
      <use x="397.460938" xlink:href="#DejaVuSans-6e"/>
      <use x="460.839844" xlink:href="#DejaVuSans-20"/>
      <use x="492.626953" xlink:href="#DejaVuSans-52"/>
      <use x="562.078125" xlink:href="#DejaVuSans-61"/>
      <use x="623.357422" xlink:href="#DejaVuSans-74"/>
      <use x="662.566406" xlink:href="#DejaVuSans-69"/>
      <use x="690.349609" xlink:href="#DejaVuSans-6f"/>
      <use x="751.53125" xlink:href="#DejaVuSans-2c"/>
      <use x="783.318359" xlink:href="#DejaVuSans-20"/>
      <use x="815.105469" xlink:href="#DejaVuSans-25"/>
     </g>
    </g>
   </g>
   <g id="line2d_32">
    <path clip-path="url(#p926fbdeffb)" d="M 115.353636 324.634337 
L 180.086032 273.408674 
L 217.952056 273.408674 
L 244.818428 273.408674 
L 265.657604 222.183011 
L 282.684452 273.408674 
L 297.080446 222.183011 
L 309.550823 273.408674 
L 320.550476 273.408674 
L 330.39 273.408674 
L 339.290932 273.408674 
L 347.416847 273.408674 
L 354.891964 273.408674 
L 361.812841 273.408674 
L 368.256024 273.408674 
L 374.283219 273.408674 
L 379.944898 273.408674 
L 385.282871 273.408674 
L 390.332161 273.408674 
L 395.122396 273.408674 
L 399.678865 273.408674 
L 404.023328 273.408674 
L 408.174638 273.408674 
L 412.149243 273.408674 
L 415.961572 273.408674 
L 419.62436 273.408674 
L 423.148895 273.408674 
L 426.545237 273.408674 
L 429.822384 273.408674 
L 432.98842 273.408674 
L 436.050632 273.408674 
L 439.015614 273.408674 
L 441.889352 273.408674 
L 444.677294 273.408674 
L 447.384414 273.408674 
L 450.015267 273.408674 
L 452.574033 273.408674 
L 455.064556 273.408674 
L 457.490384 273.408674 
L 459.854791 273.408674 
L 462.160812 273.408674 
L 464.411261 273.408674 
L 466.608753 273.408674 
L 468.755724 273.408674 
L 470.854444 273.408674 
L 472.907034 273.408674 
L 474.915479 273.408674 
L 476.881638 273.408674 
L 478.807255 273.408674 
L 480.693968 273.408674 
L 482.543318 273.408674 
L 484.356755 273.408674 
L 486.135649 273.408674 
L 487.881291 273.408674 
L 489.594901 273.408674 
L 491.277633 273.408674 
L 492.93058 273.408674 
L 494.55478 273.408674 
L 496.151213 273.408674 
L 497.720815 273.408674 
L 499.264472 273.408674 
L 500.783027 273.408674 
L 502.277285 273.408674 
L 503.74801 273.408674 
L 505.195932 273.408674 
L 506.621748 273.408674 
L 508.026122 273.408674 
L 509.409689 273.408674 
L 510.773058 273.408674 
L 512.116809 273.408674 
L 513.4415 273.408674 
L 514.747662 273.408674 
L 516.035808 273.408674 
L 517.306428 273.408674 
L 518.559992 273.408674 
L 519.796952 273.408674 
L 521.017742 273.408674 
L 522.222779 273.408674 
L 523.412466 273.408674 
L 524.587187 273.408674 
L 525.747315 273.408674 
L 526.893208 273.408674 
L 528.025211 273.408674 
L 529.143657 273.408674 
L 530.248866 273.408674 
L 531.341149 273.408674 
L 532.420804 273.408674 
L 533.488119 273.408674 
L 534.543375 273.408674 
L 535.586839 273.408674 
L 536.618774 273.408674 
L 537.63943 273.408674 
L 538.649052 273.408674 
L 539.647875 273.408674 
L 540.636129 273.408674 
L 541.614034 273.408674 
L 542.581805 273.408674 
L 543.539651 273.408674 
L 544.487772 273.408674 
L 545.426364 273.408674 
" style="fill:none;stroke:#ff1a85;stroke-linecap:square;stroke-width:3;"/>
   </g>
   <g id="patch_12">
    <path d="M 661.546 375.86 
L 661.546 17.28 
" style="fill:none;stroke:#000000;stroke-linecap:square;stroke-linejoin:miter;stroke-width:0.8;"/>
   </g>
  </g>
 </g>
 <defs>
  <clipPath id="p926fbdeffb">
   <rect height="358.58" width="473.08" x="93.85" y="17.28"/>
  </clipPath>
 </defs>
</svg>
