<?xml version="1.0" encoding="utf-8" standalone="no"?>
<!DOCTYPE svg PUBLIC "-//W3C//DTD SVG 1.1//EN"
  "http://www.w3.org/Graphics/SVG/1.1/DTD/svg11.dtd">
<!-- Created with matplotlib (http://matplotlib.org/) -->
<svg height="345.6pt" version="1.1" viewBox="0 0 460.8 345.6" width="460.8pt" xmlns="http://www.w3.org/2000/svg" xmlns:xlink="http://www.w3.org/1999/xlink">
 <defs>
  <style type="text/css">
*{stroke-linecap:butt;stroke-linejoin:round;}
  </style>
 </defs>
 <g id="figure_1">
  <g id="patch_1">
   <path d="M 0 345.6 
L 460.8 345.6 
L 460.8 0 
L 0 0 
z
" style="fill:#ffffff;"/>
  </g>
  <g id="axes_1">
   <g id="patch_2">
    <path d="M 62.58 295.98 
L 446.76 295.98 
L 446.76 14.04 
L 62.58 14.04 
z
" style="fill:#eeeeee;"/>
   </g>
   <g id="matplotlib.axis_1">
    <g id="xtick_1">
     <g id="line2d_1">
      <path clip-path="url(#pfc855916b4)" d="M 80.042727 295.98 
L 80.042727 14.04 
" style="fill:none;stroke:#b2b2b2;stroke-dasharray:1.85,0.8;stroke-dashoffset:0;stroke-width:0.5;"/>
     </g>
     <g id="line2d_2">
      <defs>
       <path d="M 0 0 
L 0 -3.5 
" id="me8eeca7823" style="stroke:#000000;stroke-width:0.8;"/>
      </defs>
      <g>
       <use style="stroke:#000000;stroke-width:0.8;" x="80.042727" xlink:href="#me8eeca7823" y="295.98"/>
      </g>
     </g>
     <g id="text_1">
      <!-- 0 -->
      <defs>
       <path d="M 31.78125 66.40625 
Q 24.171875 66.40625 20.328125 58.90625 
Q 16.5 51.421875 16.5 36.375 
Q 16.5 21.390625 20.328125 13.890625 
Q 24.171875 6.390625 31.78125 6.390625 
Q 39.453125 6.390625 43.28125 13.890625 
Q 47.125 21.390625 47.125 36.375 
Q 47.125 51.421875 43.28125 58.90625 
Q 39.453125 66.40625 31.78125 66.40625 
z
M 31.78125 74.21875 
Q 44.046875 74.21875 50.515625 64.515625 
Q 56.984375 54.828125 56.984375 36.375 
Q 56.984375 17.96875 50.515625 8.265625 
Q 44.046875 -1.421875 31.78125 -1.421875 
Q 19.53125 -1.421875 13.0625 8.265625 
Q 6.59375 17.96875 6.59375 36.375 
Q 6.59375 54.828125 13.0625 64.515625 
Q 19.53125 74.21875 31.78125 74.21875 
z
" id="DejaVuSans-30"/>
      </defs>
      <g transform="translate(75.588977 310.117812)scale(0.14 -0.14)">
       <use xlink:href="#DejaVuSans-30"/>
      </g>
     </g>
    </g>
    <g id="xtick_2">
     <g id="line2d_3">
      <path clip-path="url(#pfc855916b4)" d="M 133.54373 295.98 
L 133.54373 14.04 
" style="fill:none;stroke:#b2b2b2;stroke-dasharray:1.85,0.8;stroke-dashoffset:0;stroke-width:0.5;"/>
     </g>
     <g id="line2d_4">
      <g>
       <use style="stroke:#000000;stroke-width:0.8;" x="133.54373" xlink:href="#me8eeca7823" y="295.98"/>
      </g>
     </g>
     <g id="text_2">
      <!-- 500 -->
      <defs>
       <path d="M 10.796875 72.90625 
L 49.515625 72.90625 
L 49.515625 64.59375 
L 19.828125 64.59375 
L 19.828125 46.734375 
Q 21.96875 47.46875 24.109375 47.828125 
Q 26.265625 48.1875 28.421875 48.1875 
Q 40.625 48.1875 47.75 41.5 
Q 54.890625 34.8125 54.890625 23.390625 
Q 54.890625 11.625 47.5625 5.09375 
Q 40.234375 -1.421875 26.90625 -1.421875 
Q 22.3125 -1.421875 17.546875 -0.640625 
Q 12.796875 0.140625 7.71875 1.703125 
L 7.71875 11.625 
Q 12.109375 9.234375 16.796875 8.0625 
Q 21.484375 6.890625 26.703125 6.890625 
Q 35.15625 6.890625 40.078125 11.328125 
Q 45.015625 15.765625 45.015625 23.390625 
Q 45.015625 31 40.078125 35.4375 
Q 35.15625 39.890625 26.703125 39.890625 
Q 22.75 39.890625 18.8125 39.015625 
Q 14.890625 38.140625 10.796875 36.28125 
z
" id="DejaVuSans-35"/>
      </defs>
      <g transform="translate(120.18248 310.117812)scale(0.14 -0.14)">
       <use xlink:href="#DejaVuSans-35"/>
       <use x="63.623047" xlink:href="#DejaVuSans-30"/>
       <use x="127.246094" xlink:href="#DejaVuSans-30"/>
      </g>
     </g>
    </g>
    <g id="xtick_3">
     <g id="line2d_5">
      <path clip-path="url(#pfc855916b4)" d="M 187.044733 295.98 
L 187.044733 14.04 
" style="fill:none;stroke:#b2b2b2;stroke-dasharray:1.85,0.8;stroke-dashoffset:0;stroke-width:0.5;"/>
     </g>
     <g id="line2d_6">
      <g>
       <use style="stroke:#000000;stroke-width:0.8;" x="187.044733" xlink:href="#me8eeca7823" y="295.98"/>
      </g>
     </g>
     <g id="text_3">
      <!-- 1000 -->
      <defs>
       <path d="M 12.40625 8.296875 
L 28.515625 8.296875 
L 28.515625 63.921875 
L 10.984375 60.40625 
L 10.984375 69.390625 
L 28.421875 72.90625 
L 38.28125 72.90625 
L 38.28125 8.296875 
L 54.390625 8.296875 
L 54.390625 0 
L 12.40625 0 
z
" id="DejaVuSans-31"/>
      </defs>
      <g transform="translate(169.229733 310.117812)scale(0.14 -0.14)">
       <use xlink:href="#DejaVuSans-31"/>
       <use x="63.623047" xlink:href="#DejaVuSans-30"/>
       <use x="127.246094" xlink:href="#DejaVuSans-30"/>
       <use x="190.869141" xlink:href="#DejaVuSans-30"/>
      </g>
     </g>
    </g>
    <g id="xtick_4">
     <g id="line2d_7">
      <path clip-path="url(#pfc855916b4)" d="M 240.545735 295.98 
L 240.545735 14.04 
" style="fill:none;stroke:#b2b2b2;stroke-dasharray:1.85,0.8;stroke-dashoffset:0;stroke-width:0.5;"/>
     </g>
     <g id="line2d_8">
      <g>
       <use style="stroke:#000000;stroke-width:0.8;" x="240.545735" xlink:href="#me8eeca7823" y="295.98"/>
      </g>
     </g>
     <g id="text_4">
      <!-- 1500 -->
      <g transform="translate(222.730735 310.117812)scale(0.14 -0.14)">
       <use xlink:href="#DejaVuSans-31"/>
       <use x="63.623047" xlink:href="#DejaVuSans-35"/>
       <use x="127.246094" xlink:href="#DejaVuSans-30"/>
       <use x="190.869141" xlink:href="#DejaVuSans-30"/>
      </g>
     </g>
    </g>
    <g id="xtick_5">
     <g id="line2d_9">
      <path clip-path="url(#pfc855916b4)" d="M 294.046738 295.98 
L 294.046738 14.04 
" style="fill:none;stroke:#b2b2b2;stroke-dasharray:1.85,0.8;stroke-dashoffset:0;stroke-width:0.5;"/>
     </g>
     <g id="line2d_10">
      <g>
       <use style="stroke:#000000;stroke-width:0.8;" x="294.046738" xlink:href="#me8eeca7823" y="295.98"/>
      </g>
     </g>
     <g id="text_5">
      <!-- 2000 -->
      <defs>
       <path d="M 19.1875 8.296875 
L 53.609375 8.296875 
L 53.609375 0 
L 7.328125 0 
L 7.328125 8.296875 
Q 12.9375 14.109375 22.625 23.890625 
Q 32.328125 33.6875 34.8125 36.53125 
Q 39.546875 41.84375 41.421875 45.53125 
Q 43.3125 49.21875 43.3125 52.78125 
Q 43.3125 58.59375 39.234375 62.25 
Q 35.15625 65.921875 28.609375 65.921875 
Q 23.96875 65.921875 18.8125 64.3125 
Q 13.671875 62.703125 7.8125 59.421875 
L 7.8125 69.390625 
Q 13.765625 71.78125 18.9375 73 
Q 24.125 74.21875 28.421875 74.21875 
Q 39.75 74.21875 46.484375 68.546875 
Q 53.21875 62.890625 53.21875 53.421875 
Q 53.21875 48.921875 51.53125 44.890625 
Q 49.859375 40.875 45.40625 35.40625 
Q 44.1875 33.984375 37.640625 27.21875 
Q 31.109375 20.453125 19.1875 8.296875 
z
" id="DejaVuSans-32"/>
      </defs>
      <g transform="translate(276.231738 310.117812)scale(0.14 -0.14)">
       <use xlink:href="#DejaVuSans-32"/>
       <use x="63.623047" xlink:href="#DejaVuSans-30"/>
       <use x="127.246094" xlink:href="#DejaVuSans-30"/>
       <use x="190.869141" xlink:href="#DejaVuSans-30"/>
      </g>
     </g>
    </g>
    <g id="xtick_6">
     <g id="line2d_11">
      <path clip-path="url(#pfc855916b4)" d="M 347.547741 295.98 
L 347.547741 14.04 
" style="fill:none;stroke:#b2b2b2;stroke-dasharray:1.85,0.8;stroke-dashoffset:0;stroke-width:0.5;"/>
     </g>
     <g id="line2d_12">
      <g>
       <use style="stroke:#000000;stroke-width:0.8;" x="347.547741" xlink:href="#me8eeca7823" y="295.98"/>
      </g>
     </g>
     <g id="text_6">
      <!-- 2500 -->
      <g transform="translate(329.732741 310.117812)scale(0.14 -0.14)">
       <use xlink:href="#DejaVuSans-32"/>
       <use x="63.623047" xlink:href="#DejaVuSans-35"/>
       <use x="127.246094" xlink:href="#DejaVuSans-30"/>
       <use x="190.869141" xlink:href="#DejaVuSans-30"/>
      </g>
     </g>
    </g>
    <g id="xtick_7">
     <g id="line2d_13">
      <path clip-path="url(#pfc855916b4)" d="M 401.048743 295.98 
L 401.048743 14.04 
" style="fill:none;stroke:#b2b2b2;stroke-dasharray:1.85,0.8;stroke-dashoffset:0;stroke-width:0.5;"/>
     </g>
     <g id="line2d_14">
      <g>
       <use style="stroke:#000000;stroke-width:0.8;" x="401.048743" xlink:href="#me8eeca7823" y="295.98"/>
      </g>
     </g>
     <g id="text_7">
      <!-- 3000 -->
      <defs>
       <path d="M 40.578125 39.3125 
Q 47.65625 37.796875 51.625 33 
Q 55.609375 28.21875 55.609375 21.1875 
Q 55.609375 10.40625 48.1875 4.484375 
Q 40.765625 -1.421875 27.09375 -1.421875 
Q 22.515625 -1.421875 17.65625 -0.515625 
Q 12.796875 0.390625 7.625 2.203125 
L 7.625 11.71875 
Q 11.71875 9.328125 16.59375 8.109375 
Q 21.484375 6.890625 26.8125 6.890625 
Q 36.078125 6.890625 40.9375 10.546875 
Q 45.796875 14.203125 45.796875 21.1875 
Q 45.796875 27.640625 41.28125 31.265625 
Q 36.765625 34.90625 28.71875 34.90625 
L 20.21875 34.90625 
L 20.21875 43.015625 
L 29.109375 43.015625 
Q 36.375 43.015625 40.234375 45.921875 
Q 44.09375 48.828125 44.09375 54.296875 
Q 44.09375 59.90625 40.109375 62.90625 
Q 36.140625 65.921875 28.71875 65.921875 
Q 24.65625 65.921875 20.015625 65.03125 
Q 15.375 64.15625 9.8125 62.3125 
L 9.8125 71.09375 
Q 15.4375 72.65625 20.34375 73.4375 
Q 25.25 74.21875 29.59375 74.21875 
Q 40.828125 74.21875 47.359375 69.109375 
Q 53.90625 64.015625 53.90625 55.328125 
Q 53.90625 49.265625 50.4375 45.09375 
Q 46.96875 40.921875 40.578125 39.3125 
z
" id="DejaVuSans-33"/>
      </defs>
      <g transform="translate(383.233743 310.117812)scale(0.14 -0.14)">
       <use xlink:href="#DejaVuSans-33"/>
       <use x="63.623047" xlink:href="#DejaVuSans-30"/>
       <use x="127.246094" xlink:href="#DejaVuSans-30"/>
       <use x="190.869141" xlink:href="#DejaVuSans-30"/>
      </g>
     </g>
    </g>
    <g id="text_8">
     <!-- Iterations -->
     <defs>
      <path d="M 9.8125 72.90625 
L 19.671875 72.90625 
L 19.671875 0 
L 9.8125 0 
z
" id="DejaVuSans-49"/>
      <path d="M 18.3125 70.21875 
L 18.3125 54.6875 
L 36.8125 54.6875 
L 36.8125 47.703125 
L 18.3125 47.703125 
L 18.3125 18.015625 
Q 18.3125 11.328125 20.140625 9.421875 
Q 21.96875 7.515625 27.59375 7.515625 
L 36.8125 7.515625 
L 36.8125 0 
L 27.59375 0 
Q 17.1875 0 13.234375 3.875 
Q 9.28125 7.765625 9.28125 18.015625 
L 9.28125 47.703125 
L 2.6875 47.703125 
L 2.6875 54.6875 
L 9.28125 54.6875 
L 9.28125 70.21875 
z
" id="DejaVuSans-74"/>
      <path d="M 56.203125 29.59375 
L 56.203125 25.203125 
L 14.890625 25.203125 
Q 15.484375 15.921875 20.484375 11.0625 
Q 25.484375 6.203125 34.421875 6.203125 
Q 39.59375 6.203125 44.453125 7.46875 
Q 49.3125 8.734375 54.109375 11.28125 
L 54.109375 2.78125 
Q 49.265625 0.734375 44.1875 -0.34375 
Q 39.109375 -1.421875 33.890625 -1.421875 
Q 20.796875 -1.421875 13.15625 6.1875 
Q 5.515625 13.8125 5.515625 26.8125 
Q 5.515625 40.234375 12.765625 48.109375 
Q 20.015625 56 32.328125 56 
Q 43.359375 56 49.78125 48.890625 
Q 56.203125 41.796875 56.203125 29.59375 
z
M 47.21875 32.234375 
Q 47.125 39.59375 43.09375 43.984375 
Q 39.0625 48.390625 32.421875 48.390625 
Q 24.90625 48.390625 20.390625 44.140625 
Q 15.875 39.890625 15.1875 32.171875 
z
" id="DejaVuSans-65"/>
      <path d="M 41.109375 46.296875 
Q 39.59375 47.171875 37.8125 47.578125 
Q 36.03125 48 33.890625 48 
Q 26.265625 48 22.1875 43.046875 
Q 18.109375 38.09375 18.109375 28.8125 
L 18.109375 0 
L 9.078125 0 
L 9.078125 54.6875 
L 18.109375 54.6875 
L 18.109375 46.1875 
Q 20.953125 51.171875 25.484375 53.578125 
Q 30.03125 56 36.53125 56 
Q 37.453125 56 38.578125 55.875 
Q 39.703125 55.765625 41.0625 55.515625 
z
" id="DejaVuSans-72"/>
      <path d="M 34.28125 27.484375 
Q 23.390625 27.484375 19.1875 25 
Q 14.984375 22.515625 14.984375 16.5 
Q 14.984375 11.71875 18.140625 8.90625 
Q 21.296875 6.109375 26.703125 6.109375 
Q 34.1875 6.109375 38.703125 11.40625 
Q 43.21875 16.703125 43.21875 25.484375 
L 43.21875 27.484375 
z
M 52.203125 31.203125 
L 52.203125 0 
L 43.21875 0 
L 43.21875 8.296875 
Q 40.140625 3.328125 35.546875 0.953125 
Q 30.953125 -1.421875 24.3125 -1.421875 
Q 15.921875 -1.421875 10.953125 3.296875 
Q 6 8.015625 6 15.921875 
Q 6 25.140625 12.171875 29.828125 
Q 18.359375 34.515625 30.609375 34.515625 
L 43.21875 34.515625 
L 43.21875 35.40625 
Q 43.21875 41.609375 39.140625 45 
Q 35.0625 48.390625 27.6875 48.390625 
Q 23 48.390625 18.546875 47.265625 
Q 14.109375 46.140625 10.015625 43.890625 
L 10.015625 52.203125 
Q 14.9375 54.109375 19.578125 55.046875 
Q 24.21875 56 28.609375 56 
Q 40.484375 56 46.34375 49.84375 
Q 52.203125 43.703125 52.203125 31.203125 
z
" id="DejaVuSans-61"/>
      <path d="M 9.421875 54.6875 
L 18.40625 54.6875 
L 18.40625 0 
L 9.421875 0 
z
M 9.421875 75.984375 
L 18.40625 75.984375 
L 18.40625 64.59375 
L 9.421875 64.59375 
z
" id="DejaVuSans-69"/>
      <path d="M 30.609375 48.390625 
Q 23.390625 48.390625 19.1875 42.75 
Q 14.984375 37.109375 14.984375 27.296875 
Q 14.984375 17.484375 19.15625 11.84375 
Q 23.34375 6.203125 30.609375 6.203125 
Q 37.796875 6.203125 41.984375 11.859375 
Q 46.1875 17.53125 46.1875 27.296875 
Q 46.1875 37.015625 41.984375 42.703125 
Q 37.796875 48.390625 30.609375 48.390625 
z
M 30.609375 56 
Q 42.328125 56 49.015625 48.375 
Q 55.71875 40.765625 55.71875 27.296875 
Q 55.71875 13.875 49.015625 6.21875 
Q 42.328125 -1.421875 30.609375 -1.421875 
Q 18.84375 -1.421875 12.171875 6.21875 
Q 5.515625 13.875 5.515625 27.296875 
Q 5.515625 40.765625 12.171875 48.375 
Q 18.84375 56 30.609375 56 
z
" id="DejaVuSans-6f"/>
      <path d="M 54.890625 33.015625 
L 54.890625 0 
L 45.90625 0 
L 45.90625 32.71875 
Q 45.90625 40.484375 42.875 44.328125 
Q 39.84375 48.1875 33.796875 48.1875 
Q 26.515625 48.1875 22.3125 43.546875 
Q 18.109375 38.921875 18.109375 30.90625 
L 18.109375 0 
L 9.078125 0 
L 9.078125 54.6875 
L 18.109375 54.6875 
L 18.109375 46.1875 
Q 21.34375 51.125 25.703125 53.5625 
Q 30.078125 56 35.796875 56 
Q 45.21875 56 50.046875 50.171875 
Q 54.890625 44.34375 54.890625 33.015625 
z
" id="DejaVuSans-6e"/>
      <path d="M 44.28125 53.078125 
L 44.28125 44.578125 
Q 40.484375 46.53125 36.375 47.5 
Q 32.28125 48.484375 27.875 48.484375 
Q 21.1875 48.484375 17.84375 46.4375 
Q 14.5 44.390625 14.5 40.28125 
Q 14.5 37.15625 16.890625 35.375 
Q 19.28125 33.59375 26.515625 31.984375 
L 29.59375 31.296875 
Q 39.15625 29.25 43.1875 25.515625 
Q 47.21875 21.78125 47.21875 15.09375 
Q 47.21875 7.46875 41.1875 3.015625 
Q 35.15625 -1.421875 24.609375 -1.421875 
Q 20.21875 -1.421875 15.453125 -0.5625 
Q 10.6875 0.296875 5.421875 2 
L 5.421875 11.28125 
Q 10.40625 8.6875 15.234375 7.390625 
Q 20.0625 6.109375 24.8125 6.109375 
Q 31.15625 6.109375 34.5625 8.28125 
Q 37.984375 10.453125 37.984375 14.40625 
Q 37.984375 18.0625 35.515625 20.015625 
Q 33.0625 21.96875 24.703125 23.78125 
L 21.578125 24.515625 
Q 13.234375 26.265625 9.515625 29.90625 
Q 5.8125 33.546875 5.8125 39.890625 
Q 5.8125 47.609375 11.28125 51.796875 
Q 16.75 56 26.8125 56 
Q 31.78125 56 36.171875 55.265625 
Q 40.578125 54.546875 44.28125 53.078125 
z
" id="DejaVuSans-73"/>
     </defs>
     <g transform="translate(217.521281 328.882937)scale(0.156 -0.156)">
      <use xlink:href="#DejaVuSans-49"/>
      <use x="29.492188" xlink:href="#DejaVuSans-74"/>
      <use x="68.701172" xlink:href="#DejaVuSans-65"/>
      <use x="130.224609" xlink:href="#DejaVuSans-72"/>
      <use x="171.337891" xlink:href="#DejaVuSans-61"/>
      <use x="232.617188" xlink:href="#DejaVuSans-74"/>
      <use x="271.826172" xlink:href="#DejaVuSans-69"/>
      <use x="299.609375" xlink:href="#DejaVuSans-6f"/>
      <use x="360.791016" xlink:href="#DejaVuSans-6e"/>
      <use x="424.169922" xlink:href="#DejaVuSans-73"/>
     </g>
    </g>
   </g>
   <g id="matplotlib.axis_2">
    <g id="ytick_1">
     <g id="line2d_15">
      <path clip-path="url(#pfc855916b4)" d="M 62.58 291.588418 
L 446.76 291.588418 
" style="fill:none;stroke:#b2b2b2;stroke-dasharray:1.85,0.8;stroke-dashoffset:0;stroke-width:0.5;"/>
     </g>
     <g id="line2d_16">
      <defs>
       <path d="M 0 0 
L 3.5 0 
" id="mc81f8cbb67" style="stroke:#000000;stroke-width:0.8;"/>
      </defs>
      <g>
       <use style="stroke:#000000;stroke-width:0.8;" x="62.58" xlink:href="#mc81f8cbb67" y="291.588418"/>
      </g>
     </g>
     <g id="text_9">
      <!-- 120 -->
      <g transform="translate(32.3575 296.907324)scale(0.14 -0.14)">
       <use xlink:href="#DejaVuSans-31"/>
       <use x="63.623047" xlink:href="#DejaVuSans-32"/>
       <use x="127.246094" xlink:href="#DejaVuSans-30"/>
      </g>
     </g>
    </g>
    <g id="ytick_2">
     <g id="line2d_17">
      <path clip-path="url(#pfc855916b4)" d="M 62.58 249.534188 
L 446.76 249.534188 
" style="fill:none;stroke:#b2b2b2;stroke-dasharray:1.85,0.8;stroke-dashoffset:0;stroke-width:0.5;"/>
     </g>
     <g id="line2d_18">
      <g>
       <use style="stroke:#000000;stroke-width:0.8;" x="62.58" xlink:href="#mc81f8cbb67" y="249.534188"/>
      </g>
     </g>
     <g id="text_10">
      <!-- 130 -->
      <g transform="translate(32.3575 254.853094)scale(0.14 -0.14)">
       <use xlink:href="#DejaVuSans-31"/>
       <use x="63.623047" xlink:href="#DejaVuSans-33"/>
       <use x="127.246094" xlink:href="#DejaVuSans-30"/>
      </g>
     </g>
    </g>
    <g id="ytick_3">
     <g id="line2d_19">
      <path clip-path="url(#pfc855916b4)" d="M 62.58 207.479957 
L 446.76 207.479957 
" style="fill:none;stroke:#b2b2b2;stroke-dasharray:1.85,0.8;stroke-dashoffset:0;stroke-width:0.5;"/>
     </g>
     <g id="line2d_20">
      <g>
       <use style="stroke:#000000;stroke-width:0.8;" x="62.58" xlink:href="#mc81f8cbb67" y="207.479957"/>
      </g>
     </g>
     <g id="text_11">
      <!-- 140 -->
      <defs>
       <path d="M 37.796875 64.3125 
L 12.890625 25.390625 
L 37.796875 25.390625 
z
M 35.203125 72.90625 
L 47.609375 72.90625 
L 47.609375 25.390625 
L 58.015625 25.390625 
L 58.015625 17.1875 
L 47.609375 17.1875 
L 47.609375 0 
L 37.796875 0 
L 37.796875 17.1875 
L 4.890625 17.1875 
L 4.890625 26.703125 
z
" id="DejaVuSans-34"/>
      </defs>
      <g transform="translate(32.3575 212.798863)scale(0.14 -0.14)">
       <use xlink:href="#DejaVuSans-31"/>
       <use x="63.623047" xlink:href="#DejaVuSans-34"/>
       <use x="127.246094" xlink:href="#DejaVuSans-30"/>
      </g>
     </g>
    </g>
    <g id="ytick_4">
     <g id="line2d_21">
      <path clip-path="url(#pfc855916b4)" d="M 62.58 165.425726 
L 446.76 165.425726 
" style="fill:none;stroke:#b2b2b2;stroke-dasharray:1.85,0.8;stroke-dashoffset:0;stroke-width:0.5;"/>
     </g>
     <g id="line2d_22">
      <g>
       <use style="stroke:#000000;stroke-width:0.8;" x="62.58" xlink:href="#mc81f8cbb67" y="165.425726"/>
      </g>
     </g>
     <g id="text_12">
      <!-- 150 -->
      <g transform="translate(32.3575 170.744633)scale(0.14 -0.14)">
       <use xlink:href="#DejaVuSans-31"/>
       <use x="63.623047" xlink:href="#DejaVuSans-35"/>
       <use x="127.246094" xlink:href="#DejaVuSans-30"/>
      </g>
     </g>
    </g>
    <g id="ytick_5">
     <g id="line2d_23">
      <path clip-path="url(#pfc855916b4)" d="M 62.58 123.371496 
L 446.76 123.371496 
" style="fill:none;stroke:#b2b2b2;stroke-dasharray:1.85,0.8;stroke-dashoffset:0;stroke-width:0.5;"/>
     </g>
     <g id="line2d_24">
      <g>
       <use style="stroke:#000000;stroke-width:0.8;" x="62.58" xlink:href="#mc81f8cbb67" y="123.371496"/>
      </g>
     </g>
     <g id="text_13">
      <!-- 160 -->
      <defs>
       <path d="M 33.015625 40.375 
Q 26.375 40.375 22.484375 35.828125 
Q 18.609375 31.296875 18.609375 23.390625 
Q 18.609375 15.53125 22.484375 10.953125 
Q 26.375 6.390625 33.015625 6.390625 
Q 39.65625 6.390625 43.53125 10.953125 
Q 47.40625 15.53125 47.40625 23.390625 
Q 47.40625 31.296875 43.53125 35.828125 
Q 39.65625 40.375 33.015625 40.375 
z
M 52.59375 71.296875 
L 52.59375 62.3125 
Q 48.875 64.0625 45.09375 64.984375 
Q 41.3125 65.921875 37.59375 65.921875 
Q 27.828125 65.921875 22.671875 59.328125 
Q 17.53125 52.734375 16.796875 39.40625 
Q 19.671875 43.65625 24.015625 45.921875 
Q 28.375 48.1875 33.59375 48.1875 
Q 44.578125 48.1875 50.953125 41.515625 
Q 57.328125 34.859375 57.328125 23.390625 
Q 57.328125 12.15625 50.6875 5.359375 
Q 44.046875 -1.421875 33.015625 -1.421875 
Q 20.359375 -1.421875 13.671875 8.265625 
Q 6.984375 17.96875 6.984375 36.375 
Q 6.984375 53.65625 15.1875 63.9375 
Q 23.390625 74.21875 37.203125 74.21875 
Q 40.921875 74.21875 44.703125 73.484375 
Q 48.484375 72.75 52.59375 71.296875 
z
" id="DejaVuSans-36"/>
      </defs>
      <g transform="translate(32.3575 128.690402)scale(0.14 -0.14)">
       <use xlink:href="#DejaVuSans-31"/>
       <use x="63.623047" xlink:href="#DejaVuSans-36"/>
       <use x="127.246094" xlink:href="#DejaVuSans-30"/>
      </g>
     </g>
    </g>
    <g id="ytick_6">
     <g id="line2d_25">
      <path clip-path="url(#pfc855916b4)" d="M 62.58 81.317265 
L 446.76 81.317265 
" style="fill:none;stroke:#b2b2b2;stroke-dasharray:1.85,0.8;stroke-dashoffset:0;stroke-width:0.5;"/>
     </g>
     <g id="line2d_26">
      <g>
       <use style="stroke:#000000;stroke-width:0.8;" x="62.58" xlink:href="#mc81f8cbb67" y="81.317265"/>
      </g>
     </g>
     <g id="text_14">
      <!-- 170 -->
      <defs>
       <path d="M 8.203125 72.90625 
L 55.078125 72.90625 
L 55.078125 68.703125 
L 28.609375 0 
L 18.3125 0 
L 43.21875 64.59375 
L 8.203125 64.59375 
z
" id="DejaVuSans-37"/>
      </defs>
      <g transform="translate(32.3575 86.636172)scale(0.14 -0.14)">
       <use xlink:href="#DejaVuSans-31"/>
       <use x="63.623047" xlink:href="#DejaVuSans-37"/>
       <use x="127.246094" xlink:href="#DejaVuSans-30"/>
      </g>
     </g>
    </g>
    <g id="ytick_7">
     <g id="line2d_27">
      <path clip-path="url(#pfc855916b4)" d="M 62.58 39.263035 
L 446.76 39.263035 
" style="fill:none;stroke:#b2b2b2;stroke-dasharray:1.85,0.8;stroke-dashoffset:0;stroke-width:0.5;"/>
     </g>
     <g id="line2d_28">
      <g>
       <use style="stroke:#000000;stroke-width:0.8;" x="62.58" xlink:href="#mc81f8cbb67" y="39.263035"/>
      </g>
     </g>
     <g id="text_15">
      <!-- 180 -->
      <defs>
       <path d="M 31.78125 34.625 
Q 24.75 34.625 20.71875 30.859375 
Q 16.703125 27.09375 16.703125 20.515625 
Q 16.703125 13.921875 20.71875 10.15625 
Q 24.75 6.390625 31.78125 6.390625 
Q 38.8125 6.390625 42.859375 10.171875 
Q 46.921875 13.96875 46.921875 20.515625 
Q 46.921875 27.09375 42.890625 30.859375 
Q 38.875 34.625 31.78125 34.625 
z
M 21.921875 38.8125 
Q 15.578125 40.375 12.03125 44.71875 
Q 8.5 49.078125 8.5 55.328125 
Q 8.5 64.0625 14.71875 69.140625 
Q 20.953125 74.21875 31.78125 74.21875 
Q 42.671875 74.21875 48.875 69.140625 
Q 55.078125 64.0625 55.078125 55.328125 
Q 55.078125 49.078125 51.53125 44.71875 
Q 48 40.375 41.703125 38.8125 
Q 48.828125 37.15625 52.796875 32.3125 
Q 56.78125 27.484375 56.78125 20.515625 
Q 56.78125 9.90625 50.3125 4.234375 
Q 43.84375 -1.421875 31.78125 -1.421875 
Q 19.734375 -1.421875 13.25 4.234375 
Q 6.78125 9.90625 6.78125 20.515625 
Q 6.78125 27.484375 10.78125 32.3125 
Q 14.796875 37.15625 21.921875 38.8125 
z
M 18.3125 54.390625 
Q 18.3125 48.734375 21.84375 45.5625 
Q 25.390625 42.390625 31.78125 42.390625 
Q 38.140625 42.390625 41.71875 45.5625 
Q 45.3125 48.734375 45.3125 54.390625 
Q 45.3125 60.0625 41.71875 63.234375 
Q 38.140625 66.40625 31.78125 66.40625 
Q 25.390625 66.40625 21.84375 63.234375 
Q 18.3125 60.0625 18.3125 54.390625 
z
" id="DejaVuSans-38"/>
      </defs>
      <g transform="translate(32.3575 44.581941)scale(0.14 -0.14)">
       <use xlink:href="#DejaVuSans-31"/>
       <use x="63.623047" xlink:href="#DejaVuSans-38"/>
       <use x="127.246094" xlink:href="#DejaVuSans-30"/>
      </g>
     </g>
    </g>
    <g id="text_16">
     <!-- W -->
     <defs>
      <path d="M 3.328125 72.90625 
L 13.28125 72.90625 
L 28.609375 11.28125 
L 43.890625 72.90625 
L 54.984375 72.90625 
L 70.3125 11.28125 
L 85.59375 72.90625 
L 95.609375 72.90625 
L 77.296875 0 
L 64.890625 0 
L 49.515625 63.28125 
L 33.984375 0 
L 21.578125 0 
z
" id="DejaVuSans-57"/>
     </defs>
     <g transform="translate(25.113187 162.72225)rotate(-90)scale(0.156 -0.156)">
      <use xlink:href="#DejaVuSans-57"/>
     </g>
    </g>
   </g>
   <g id="line2d_29">
    <path clip-path="url(#pfc855916b4)" d="M 80.042727 253.953471 
L 80.149729 253.892924 
L 80.363733 254.598436 
L 80.470735 254.308304 
L 80.577737 254.707002 
L 80.791741 257.574049 
L 81.326751 268.367887 
L 81.433753 268.32898 
L 81.968763 262.996999 
L 82.182767 261.885122 
L 82.289769 261.660817 
L 82.396771 261.775281 
L 82.610775 264.14312 
L 83.038783 268.891058 
L 83.145785 268.694273 
L 83.359789 269.058879 
L 83.466791 269.099399 
L 83.680795 270.781672 
L 84.429809 279.499388 
L 84.750816 281.424188 
L 84.96482 283.164545 
L 85.071822 282.937943 
L 85.285826 280.981372 
L 85.606832 280.301061 
L 85.927838 280.818501 
L 86.03484 280.551884 
L 86.462848 276.897734 
L 86.56985 276.852135 
L 87.211862 278.680744 
L 87.425866 277.726622 
L 87.532868 277.817442 
L 88.067878 282.964564 
L 88.17488 282.804688 
L 88.388884 279.606197 
L 89.030896 255.097096 
L 89.351902 246.919483 
L 89.886912 243.689238 
L 90.100916 243.524543 
L 90.528924 237.69181 
L 91.063934 225.213799 
L 91.491942 210.893944 
L 91.812948 205.462935 
L 92.026952 204.146094 
L 92.133954 204.461073 
L 92.240956 203.964581 
L 92.45496 201.795786 
L 92.668964 201.030836 
L 93.096972 203.399316 
L 93.203974 203.295024 
L 93.417978 204.048038 
L 93.631982 202.655492 
L 94.273994 195.385728 
L 94.595 191.433086 
L 95.344014 181.696741 
L 95.558018 181.74691 
L 95.66502 181.716825 
L 95.879024 180.736831 
L 95.986026 180.652082 
L 96.093028 180.71303 
L 96.20003 180.910385 
L 96.628038 183.073737 
L 96.842042 183.106378 
L 97.163048 184.872745 
L 97.484054 187.253952 
L 97.80506 188.922787 
L 98.019064 188.201992 
L 98.126066 188.695261 
L 98.233068 188.461398 
L 98.447072 186.583029 
L 98.87508 181.88622 
L 99.089084 180.726466 
L 99.196086 181.367611 
L 99.303088 181.165199 
L 99.838098 176.646692 
L 100.266106 171.37712 
L 100.373108 170.889342 
L 100.587112 171.662866 
L 100.694114 171.389088 
L 100.801116 171.447907 
L 101.122122 170.367013 
L 101.764134 167.071069 
L 101.871136 167.151861 
L 101.978138 167.126437 
L 102.192142 166.087218 
L 102.299144 166.076676 
L 102.727152 168.000132 
L 102.834154 168.214675 
L 103.369164 163.461217 
L 103.476166 163.268185 
L 104.011176 159.838435 
L 104.760191 151.529 
L 105.295201 150.042603 
L 105.402203 149.902585 
L 105.616207 150.686975 
L 105.723209 150.835974 
L 105.830211 150.719536 
L 105.937213 150.845574 
L 106.472223 148.016595 
L 107.007233 149.347925 
L 107.114235 149.213106 
L 107.435241 145.142637 
L 107.649245 145.73997 
L 107.756247 145.999845 
L 108.184255 148.208384 
L 108.291257 148.440226 
L 109.040271 153.086633 
L 109.147273 153.014252 
L 109.254275 152.909288 
L 109.468279 153.166694 
L 109.575281 153.15014 
L 109.896287 152.266321 
L 110.324295 154.300237 
L 110.431297 154.383147 
L 111.073309 157.925791 
L 111.608319 160.382194 
L 112.571337 161.952313 
L 112.678339 161.880719 
L 112.892343 161.57174 
L 112.999345 161.495782 
L 113.106347 161.765365 
L 113.320351 161.38687 
L 113.427353 161.256176 
L 113.534355 160.889339 
L 113.855361 158.796216 
L 114.069365 158.563244 
L 114.283369 157.424719 
L 114.711377 156.153385 
L 115.032383 155.352715 
L 115.353389 156.015539 
L 115.460391 155.712906 
L 115.567393 155.748832 
L 115.888399 153.682783 
L 116.316407 150.152964 
L 116.637413 148.348586 
L 116.851417 147.428935 
L 116.958419 147.305744 
L 117.814435 141.980044 
L 118.135441 142.360658 
L 118.670451 144.689627 
L 119.312463 149.44836 
L 119.526467 150.07234 
L 119.633469 149.92524 
L 119.954475 149.105422 
L 120.168479 149.067417 
L 120.596487 147.11498 
L 120.703489 147.252807 
L 120.810491 146.988625 
L 121.024495 144.231366 
L 121.345501 139.36491 
L 121.666507 134.030659 
L 121.880511 132.153907 
L 122.201517 129.156697 
L 123.378539 120.656709 
L 123.592543 121.099402 
L 123.806547 121.18988 
L 124.876568 126.926032 
L 125.625582 129.163681 
L 126.802604 135.657345 
L 127.444616 138.313499 
L 128.942644 148.417431 
L 129.370652 149.492794 
L 129.477654 149.429694 
L 129.691658 149.639814 
L 129.79866 149.499185 
L 130.440672 146.596308 
L 130.547674 146.675574 
L 130.761678 147.369698 
L 131.296688 150.154995 
L 131.724696 152.567727 
L 132.47371 154.947231 
L 132.687714 154.134896 
L 132.794716 154.186164 
L 133.00872 154.022189 
L 133.115722 153.780004 
L 133.329726 153.918682 
L 133.650732 153.504448 
L 133.757734 153.613773 
L 134.07874 154.396511 
L 134.292744 154.479778 
L 134.399746 154.77621 
L 134.720752 153.973239 
L 135.041758 154.332226 
L 135.362764 155.251453 
L 136.325782 158.503394 
L 136.646788 159.646388 
L 137.502804 162.901164 
L 137.930812 164.079468 
L 138.786828 167.808667 
L 138.89383 167.923083 
L 139.535842 169.770645 
L 139.642844 169.858643 
L 140.070852 171.263388 
L 140.391858 171.114133 
L 140.605862 171.514608 
L 140.819866 171.181004 
L 141.03387 170.880225 
L 141.247874 171.183663 
L 141.461878 171.165622 
L 142.852904 174.796011 
L 142.959906 174.943829 
L 143.387914 176.388666 
L 143.494916 176.590703 
L 143.70892 176.098363 
L 143.922924 175.114257 
L 144.136928 174.672659 
L 144.24393 174.678685 
L 144.671939 175.458519 
L 144.885943 175.189933 
L 145.099947 175.598825 
L 145.206949 175.523804 
L 145.527955 176.419102 
L 145.741959 176.115563 
L 145.848961 176.311509 
L 146.062965 175.648721 
L 146.383971 175.41041 
L 146.704977 175.653852 
L 147.667995 170.873271 
L 147.774997 170.809336 
L 148.096003 171.058293 
L 148.310007 170.937352 
L 148.631013 170.699925 
L 149.166023 169.177187 
L 149.380027 169.091638 
L 149.487029 169.110747 
L 149.701033 169.675186 
L 150.878055 174.981966 
L 151.199061 175.634085 
L 151.627069 176.166764 
L 151.841073 175.796199 
L 151.948075 175.90065 
L 152.376083 176.604036 
L 153.232099 178.061635 
L 153.446103 178.1507 
L 153.553105 178.281587 
L 153.981113 179.499888 
L 154.302119 178.764981 
L 154.409121 178.67807 
L 154.516123 178.418561 
L 154.837129 177.088628 
L 155.051133 176.777431 
L 155.479141 175.896285 
L 155.586143 175.825805 
L 155.800147 175.002574 
L 156.442159 172.555394 
L 156.549161 172.499 
L 157.298175 172.925532 
L 157.512179 172.759827 
L 157.833185 173.218934 
L 158.047189 173.286734 
L 158.368195 173.893578 
L 158.796203 174.536612 
L 159.545217 177.745755 
L 159.866223 178.37718 
L 160.294231 179.673852 
L 161.043245 182.744389 
L 161.471253 183.55833 
L 161.578255 183.868659 
L 161.685257 183.784101 
L 162.220267 181.272038 
L 162.862279 175.625469 
L 163.397289 166.261858 
L 164.146303 156.396105 
L 164.467309 152.601972 
L 165.858336 139.804724 
L 166.928356 134.552851 
L 167.249362 134.891402 
L 167.356364 134.612217 
L 167.570368 134.779972 
L 167.784372 135.263754 
L 167.891374 135.314229 
L 168.105378 135.853175 
L 168.74739 137.250076 
L 169.603406 139.099995 
L 169.81741 139.753365 
L 170.031414 139.773847 
L 170.459422 140.655375 
L 170.88743 141.302037 
L 171.529442 143.326254 
L 172.064452 143.195232 
L 172.599462 142.545925 
L 173.134472 140.242565 
L 173.669482 136.570715 
L 174.418496 135.098946 
L 174.525498 135.107726 
L 175.381514 136.98288 
L 175.488516 137.107711 
L 175.595518 137.057437 
L 175.809522 137.140868 
L 175.916524 137.015301 
L 176.879542 134.132396 
L 176.986544 134.059904 
L 177.093546 134.183263 
L 178.056564 137.454222 
L 178.270568 137.422731 
L 178.591574 136.94585 
L 178.698576 137.029762 
L 178.805578 136.942356 
L 179.126584 135.992722 
L 179.44759 134.747659 
L 179.768596 133.947242 
L 179.875598 133.797659 
L 180.089602 134.178453 
L 180.196604 134.151144 
L 180.51761 133.655362 
L 180.624612 133.638506 
L 180.838616 133.852582 
L 181.266624 134.788238 
L 181.58763 135.187413 
L 181.694632 135.187865 
L 182.015638 133.976182 
L 183.299662 124.095747 
L 183.620668 122.697486 
L 184.048676 121.559337 
L 184.583686 120.809773 
L 184.690689 120.657883 
L 185.011695 120.976764 
L 185.118697 121.116872 
L 185.332701 120.779274 
L 185.439703 120.823329 
L 185.653707 121.103616 
L 185.974713 120.962376 
L 186.188717 120.493672 
L 186.616725 118.820716 
L 187.258737 117.608935 
L 187.579743 117.546956 
L 187.793747 117.842081 
L 188.007751 118.17675 
L 188.114753 118.222206 
L 188.649763 116.878601 
L 188.970769 115.82258 
L 189.291775 115.838336 
L 189.505779 116.025204 
L 189.826785 116.318153 
L 190.147791 116.034375 
L 190.789803 116.127881 
L 191.431815 117.128589 
L 191.859823 118.265839 
L 192.501835 119.316445 
L 192.608837 119.409004 
L 192.929843 120.050997 
L 193.143847 119.944199 
L 193.250849 120.028473 
L 193.571855 120.882949 
L 193.999863 121.216553 
L 194.213867 121.616458 
L 194.534873 122.367243 
L 195.069883 123.921158 
L 195.283887 124.350422 
L 195.390889 124.469927 
L 195.818897 123.513737 
L 196.032901 123.751078 
L 197.102921 125.79923 
L 197.423927 126.4244 
L 197.637931 126.67829 
L 197.958937 126.847005 
L 198.600949 127.559611 
L 198.814953 127.606185 
L 199.028957 127.204943 
L 200.419983 121.016702 
L 200.633987 120.448186 
L 201.168997 117.598861 
L 201.383001 117.389922 
L 201.704007 117.271521 
L 201.811009 117.076062 
L 202.025013 117.148016 
L 202.239017 117.504899 
L 202.560023 118.004473 
L 203.416039 120.605053 
L 203.630043 120.937943 
L 204.165053 122.175906 
L 204.379057 122.178287 
L 204.593061 121.619787 
L 205.02107 118.456686 
L 205.342076 115.804749 
L 205.877086 113.051411 
L 206.198092 111.817833 
L 206.519098 110.544187 
L 207.16111 109.831676 
L 207.375114 109.853932 
L 207.589118 110.127986 
L 207.803122 110.594519 
L 208.124128 111.371872 
L 208.873142 111.85889 
L 209.30115 112.462141 
L 209.515154 112.594583 
L 209.729158 112.711816 
L 209.943162 112.577479 
L 210.478172 111.113955 
L 211.227186 105.343648 
L 211.869198 100.638903 
L 212.190204 100.136472 
L 212.404208 99.806168 
L 212.725214 99.405281 
L 213.04622 99.251768 
L 213.153222 99.326583 
L 213.688232 99.098015 
L 213.795234 99.072704 
L 214.009238 99.288876 
L 214.758252 98.467404 
L 215.18626 98.378852 
L 215.507266 97.909967 
L 215.72127 98.001758 
L 215.935274 98.335853 
L 216.042276 98.30124 
L 216.25628 98.542376 
L 216.470284 98.805193 
L 217.433302 98.432944 
L 217.968312 98.976563 
L 218.503322 100.094475 
L 218.824328 100.116523 
L 219.252336 99.671493 
L 219.894348 98.175452 
L 220.108352 97.648864 
L 220.322356 97.584911 
L 220.53636 97.650962 
L 220.750364 97.851338 
L 221.07137 97.233545 
L 221.392376 96.708649 
L 221.60638 96.364176 
L 221.713382 96.309798 
L 222.034388 96.586296 
L 222.355394 97.176183 
L 222.997406 96.783514 
L 223.21141 96.410287 
L 223.425414 96.575258 
L 224.388432 97.843721 
L 224.816441 98.811835 
L 224.923443 98.89892 
L 227.063483 103.705761 
L 227.277487 103.490022 
L 227.491491 103.826448 
L 227.919499 104.581499 
L 228.026501 104.534238 
L 228.240505 104.19171 
L 228.347507 104.172578 
L 228.561511 104.268115 
L 228.989519 104.163386 
L 229.203523 103.978383 
L 229.310525 103.884307 
L 229.631531 104.259547 
L 229.845535 104.266248 
L 230.059539 104.354944 
L 230.166541 104.334756 
L 230.273543 104.454248 
L 230.487547 104.406553 
L 230.701551 104.433868 
L 232.199579 101.219542 
L 232.413583 100.986017 
L 232.734589 100.592135 
L 233.055595 100.473336 
L 233.162597 100.467249 
L 233.376601 100.235844 
L 233.590605 100.150445 
L 234.339619 99.298978 
L 234.553623 99.205145 
L 234.874629 98.910581 
L 234.981631 98.933892 
L 235.944649 97.736167 
L 236.372657 96.650925 
L 236.586661 95.547992 
L 237.014669 92.156308 
L 237.549679 90.067581 
L 237.763683 89.365434 
L 237.977687 88.289244 
L 239.261711 81.079454 
L 239.582717 80.099905 
L 239.903723 79.867659 
L 240.117727 80.008464 
L 240.438733 79.677665 
L 240.973743 79.255285 
L 242.150765 75.391276 
L 242.792777 75.461792 
L 243.006781 75.517588 
L 243.220785 75.125331 
L 243.969799 72.056242 
L 245.360826 60.496552 
L 245.681832 59.117044 
L 246.10984 56.876963 
L 246.858854 54.982164 
L 247.393864 54.495156 
L 247.607868 54.828671 
L 247.71487 54.736373 
L 247.928874 54.928863 
L 248.142878 55.063072 
L 248.24988 55.044695 
L 248.356882 55.16702 
L 248.463884 55.104321 
L 248.677888 55.209972 
L 249.212898 55.261242 
L 249.426902 55.24507 
L 249.85491 55.033817 
L 250.710926 53.303374 
L 251.45994 50.841024 
L 251.673944 50.726901 
L 251.887948 50.780694 
L 252.101952 50.757878 
L 252.422958 50.980583 
L 252.636962 51.043275 
L 253.278974 50.433207 
L 253.59998 49.181383 
L 254.562998 44.585681 
L 255.20501 40.481347 
L 256.27503 37.826235 
L 256.917042 34.699295 
L 257.452052 31.914002 
L 258.95008 27.406557 
L 259.164084 27.014748 
L 259.592092 27.126568 
L 260.341106 26.982317 
L 260.662112 26.911927 
L 261.09012 27.003657 
L 261.411126 27.39001 
L 262.16014 29.006407 
L 262.802152 29.638274 
L 262.909154 29.543785 
L 263.123158 29.152156 
L 263.979174 30.108659 
L 264.514184 31.110429 
L 264.835191 31.756719 
L 265.370201 33.337432 
L 266.761227 37.297458 
L 267.082233 37.803985 
L 267.831247 38.30239 
L 268.259255 39.065727 
L 268.473259 39.163948 
L 268.687263 39.169286 
L 269.008269 39.307223 
L 269.222273 39.604258 
L 269.757283 40.221618 
L 269.864285 40.260947 
L 272.325331 45.658553 
L 272.967343 45.502884 
L 273.288349 44.96172 
L 274.144365 45.25 
L 274.572373 46.024067 
L 275.214385 47.573228 
L 276.177403 48.285672 
L 276.284405 48.333013 
L 276.605411 48.00836 
L 277.782433 46.954894 
L 278.317443 45.510137 
L 279.494465 38.975395 
L 279.815471 38.084556 
L 280.029475 37.831809 
L 280.457483 35.626364 
L 280.885491 33.723067 
L 281.099495 33.421354 
L 281.420501 33.343293 
L 281.848509 33.811363 
L 282.490521 35.063269 
L 283.453539 37.647144 
L 284.844566 41.469871 
L 285.59358 42.754037 
L 286.021588 43.705542 
L 286.449596 44.582245 
L 286.877604 44.866562 
L 286.984606 44.900473 
L 287.519616 45.602921 
L 287.73362 45.707118 
L 288.054626 45.618693 
L 288.26863 45.86872 
L 288.589636 46.401445 
L 289.124646 46.753986 
L 289.445652 46.071007 
L 289.766658 45.418873 
L 289.980662 45.322732 
L 290.194666 45.054574 
L 290.836678 44.19952 
L 291.799696 45.392976 
L 292.869716 47.704262 
L 293.190722 48.166562 
L 293.61873 48.860856 
L 294.68875 50.717934 
L 295.22376 51.695706 
L 295.544766 52.044775 
L 296.29378 53.064694 
L 297.042794 54.380681 
L 297.149796 54.307678 
L 297.470802 53.842465 
L 298.005812 52.427516 
L 298.540822 50.999395 
L 298.861828 50.696225 
L 299.289836 50.414382 
L 300.03885 51.072645 
L 300.466858 50.959535 
L 301.215872 49.403607 
L 301.429876 49.203314 
L 301.750882 47.962855 
L 302.17889 46.49007 
L 302.392894 46.06866 
L 302.499896 46.084718 
L 302.820902 45.76328 
L 303.78392 45.600764 
L 304.425932 44.333032 
L 305.067945 44.118246 
L 305.709957 43.87082 
L 305.923961 44.123476 
L 307.849997 47.22842 
L 308.171003 47.225817 
L 308.599011 46.908604 
L 308.813015 46.777109 
L 309.241023 45.303308 
L 309.990037 43.232479 
L 310.311043 42.83334 
L 310.525047 42.553303 
L 311.274061 42.143763 
L 311.488065 41.894261 
L 311.809071 41.693106 
L 312.237079 41.361212 
L 312.665087 40.782565 
L 312.986093 40.656043 
L 313.093095 40.688301 
L 313.521103 41.573978 
L 314.163115 42.967117 
L 314.377119 42.991004 
L 315.126133 42.360778 
L 316.196153 43.103029 
L 316.624161 43.467523 
L 316.838165 43.751392 
L 318.229191 43.805985 
L 318.443195 43.356422 
L 318.764201 42.180789 
L 319.085207 41.738168 
L 319.941223 42.658285 
L 320.048225 42.615001 
L 320.262229 42.395708 
L 320.690237 42.263246 
L 321.011243 42.387138 
L 321.225247 42.315886 
L 321.439251 42.41225 
L 321.760257 42.942839 
L 322.295267 43.992172 
L 322.937279 45.394421 
L 323.793295 46.780284 
L 324.007299 46.987224 
L 324.970318 47.631966 
L 325.61233 48.809415 
L 326.361344 50.279027 
L 326.575348 50.480194 
L 327.21736 51.340045 
L 327.966374 51.862885 
L 328.180378 51.744324 
L 329.143396 52.248624 
L 329.571404 52.218342 
L 329.785408 51.909755 
L 329.999412 51.281504 
L 331.818446 43.010512 
L 332.139452 42.431372 
L 332.56746 42.682851 
L 332.995468 43.297462 
L 333.744482 44.679903 
L 335.563516 47.2953 
L 336.419532 49.028492 
L 337.703556 50.257862 
L 338.024562 50.536433 
L 338.559572 51.316572 
L 338.880578 51.679585 
L 339.629592 52.745011 
L 339.950598 52.875622 
L 340.164602 52.702839 
L 340.485608 52.891795 
L 340.913616 53.056986 
L 341.448626 52.202998 
L 341.876634 51.877984 
L 342.304642 51.935668 
L 342.946654 52.751514 
L 343.695668 54.106694 
L 344.872691 54.777727 
L 345.193697 54.805789 
L 345.728707 55.309537 
L 346.263717 55.979501 
L 346.584723 56.261598 
L 347.654743 57.585327 
L 347.975749 57.769595 
L 348.082751 57.734476 
L 348.403757 57.926474 
L 348.724763 57.934385 
L 349.366775 58.255059 
L 349.687781 58.399619 
L 349.901785 58.495993 
L 350.115789 58.346124 
L 351.613817 54.97265 
L 351.934823 54.906443 
L 353.004843 55.678056 
L 353.432851 55.497184 
L 353.646855 55.771795 
L 353.967861 56.164858 
L 354.395869 56.295906 
L 355.251885 56.923713 
L 355.786895 57.4349 
L 356.214903 58.033588 
L 356.856915 58.867148 
L 357.712931 60.136882 
L 358.140939 60.253943 
L 358.354943 60.479509 
L 358.996955 61.331119 
L 359.210959 61.382661 
L 359.424963 61.281874 
L 359.745969 60.568115 
L 360.494983 58.791194 
L 360.922991 58.601627 
L 361.350999 58.811534 
L 361.565003 58.934176 
L 361.993011 59.294579 
L 362.635023 60.17924 
L 363.919047 62.152739 
L 364.561059 63.272172 
L 364.882066 63.708765 
L 365.09607 63.734131 
L 365.203072 63.691315 
L 365.417076 63.71418 
L 365.952086 63.302344 
L 366.273092 63.493113 
L 367.022106 64.216671 
L 367.343112 64.053039 
L 367.557116 63.880295 
L 368.734138 64.5687 
L 370.44617 67.535174 
L 370.874178 67.974927 
L 371.302186 68.441053 
L 371.837196 68.56157 
L 372.372206 67.736088 
L 372.58621 67.828587 
L 373.442226 68.471545 
L 373.65623 68.406201 
L 373.870234 68.569347 
L 374.19124 68.786831 
L 374.512246 69.013647 
L 375.475264 70.020326 
L 375.689268 70.120438 
L 375.79627 70.109633 
L 376.86629 71.051607 
L 377.080294 71.022121 
L 377.615304 70.746532 
L 378.47132 70.128158 
L 379.54134 70.258869 
L 379.755344 70.130801 
L 380.07635 70.125842 
L 381.253372 69.793231 
L 381.574378 70.068417 
L 382.21639 70.75056 
L 382.7514 70.773089 
L 383.072406 71.14483 
L 383.607416 71.818582 
L 383.82142 72.010846 
L 384.891441 73.522388 
L 386.175465 75.537224 
L 387.459489 77.014675 
L 387.780495 76.763949 
L 388.101501 76.86493 
L 388.529509 77.103287 
L 389.064519 77.018931 
L 389.813533 76.637976 
L 390.027537 76.586394 
L 390.776551 75.04347 
L 391.525565 73.100817 
L 391.953573 72.872785 
L 392.167577 72.882383 
L 392.381581 72.950354 
L 392.595585 73.042601 
L 393.237597 73.511745 
L 393.558603 73.605496 
L 393.772607 73.640415 
L 393.986611 73.720009 
L 394.521621 73.678568 
L 395.056631 73.151661 
L 395.270635 73.168112 
L 395.591641 72.975509 
L 396.340655 73.328024 
L 396.768663 73.868481 
L 397.196671 74.20408 
L 398.480695 75.3829 
L 398.694699 75.405113 
L 398.908703 75.054118 
L 399.336711 74.429604 
L 399.550715 74.291432 
L 400.406731 74.171436 
L 400.727737 74.060912 
L 401.262747 74.245004 
L 402.546771 75.336497 
L 402.974779 75.822833 
L 403.295785 75.887848 
L 403.937797 75.627916 
L 404.365805 75.872022 
L 404.579809 75.796655 
L 405.542828 76.312953 
L 406.077838 76.106679 
L 406.291842 76.00761 
L 407.040856 74.956373 
L 407.575866 74.871212 
L 408.003874 75.029329 
L 408.966892 74.738138 
L 409.180896 74.980275 
L 412.60496 78.996316 
L 412.818964 79.034741 
L 413.032968 78.784586 
L 413.460976 78.152293 
L 413.781982 77.543784 
L 413.995986 77.497091 
L 414.530996 77.590963 
L 414.745 77.333831 
L 415.708018 74.631337 
L 415.81502 74.486158 
L 416.136026 74.686633 
L 417.099044 75.749866 
L 417.634054 76.497337 
L 418.062062 76.936767 
L 418.597072 77.421545 
L 418.918078 77.413203 
L 419.239084 77.477804 
L 420.416106 78.384167 
L 421.16512 79.401224 
L 421.593128 79.606095 
L 422.663148 79.275266 
L 422.877152 79.251386 
L 423.198158 78.962823 
L 423.519164 78.768862 
L 424.803189 79.174822 
L 425.231197 78.88023 
L 425.445201 78.925155 
L 425.980211 78.939081 
L 426.301217 79.085688 
L 426.943229 78.971383 
L 427.692243 79.787707 
L 429.083269 80.146308 
L 429.297273 80.106902 
L 429.297273 80.106902 
" style="fill:none;stroke:#348abd;stroke-linecap:square;stroke-width:2;"/>
   </g>
   <g id="patch_3">
    <path d="M 62.58 295.98 
L 62.58 14.04 
" style="fill:none;stroke:#bcbcbc;stroke-linecap:square;stroke-linejoin:miter;stroke-width:0.8;"/>
   </g>
   <g id="patch_4">
    <path d="M 446.76 295.98 
L 446.76 14.04 
" style="fill:none;stroke:#bcbcbc;stroke-linecap:square;stroke-linejoin:miter;stroke-width:0.8;"/>
   </g>
   <g id="patch_5">
    <path d="M 62.58 295.98 
L 446.76 295.98 
" style="fill:none;stroke:#bcbcbc;stroke-linecap:square;stroke-linejoin:miter;stroke-width:0.8;"/>
   </g>
   <g id="patch_6">
    <path d="M 62.58 14.04 
L 446.76 14.04 
" style="fill:none;stroke:#bcbcbc;stroke-linecap:square;stroke-linejoin:miter;stroke-width:0.8;"/>
   </g>
   <g id="legend_1">
    <g id="patch_7">
     <path d="M 360.659375 43.521563 
L 437.66 43.521563 
Q 440.26 43.521563 440.26 40.921562 
L 440.26 23.14 
Q 440.26 20.54 437.66 20.54 
L 360.659375 20.54 
Q 358.059375 20.54 358.059375 23.14 
L 358.059375 40.921562 
Q 358.059375 43.521563 360.659375 43.521563 
z
" style="fill:#eeeeee;opacity:0.8;stroke:#cccccc;stroke-linejoin:miter;stroke-width:0.5;"/>
    </g>
    <g id="line2d_30">
     <path d="M 363.259375 31.067969 
L 389.259375 31.067969 
" style="fill:none;stroke:#348abd;stroke-linecap:square;stroke-width:2;"/>
    </g>
    <g id="line2d_31"/>
    <g id="text_17">
     <!-- W (1) -->
     <defs>
      <path id="DejaVuSans-20"/>
      <path d="M 31 75.875 
Q 24.46875 64.65625 21.28125 53.65625 
Q 18.109375 42.671875 18.109375 31.390625 
Q 18.109375 20.125 21.3125 9.0625 
Q 24.515625 -2 31 -13.1875 
L 23.1875 -13.1875 
Q 15.875 -1.703125 12.234375 9.375 
Q 8.59375 20.453125 8.59375 31.390625 
Q 8.59375 42.28125 12.203125 53.3125 
Q 15.828125 64.359375 23.1875 75.875 
z
" id="DejaVuSans-28"/>
      <path d="M 8.015625 75.875 
L 15.828125 75.875 
Q 23.140625 64.359375 26.78125 53.3125 
Q 30.421875 42.28125 30.421875 31.390625 
Q 30.421875 20.453125 26.78125 9.375 
Q 23.140625 -1.703125 15.828125 -13.1875 
L 8.015625 -13.1875 
Q 14.5 -2 17.703125 9.0625 
Q 20.90625 20.125 20.90625 31.390625 
Q 20.90625 42.671875 17.703125 53.65625 
Q 14.5 64.65625 8.015625 75.875 
z
" id="DejaVuSans-29"/>
     </defs>
     <g transform="translate(399.659375 35.617969)scale(0.13 -0.13)">
      <use xlink:href="#DejaVuSans-57"/>
      <use x="98.876953" xlink:href="#DejaVuSans-20"/>
      <use x="130.664062" xlink:href="#DejaVuSans-28"/>
      <use x="169.677734" xlink:href="#DejaVuSans-31"/>
      <use x="233.300781" xlink:href="#DejaVuSans-29"/>
     </g>
    </g>
   </g>
  </g>
 </g>
 <defs>
  <clipPath id="pfc855916b4">
   <rect height="281.94" width="384.18" x="62.58" y="14.04"/>
  </clipPath>
 </defs>
</svg>
