<?xml version="1.0" encoding="utf-8" standalone="no"?>
<!DOCTYPE svg PUBLIC "-//W3C//DTD SVG 1.1//EN"
  "http://www.w3.org/Graphics/SVG/1.1/DTD/svg11.dtd">
<!-- Created with matplotlib (http://matplotlib.org/) -->
<svg height="345.6pt" version="1.1" viewBox="0 0 460.8 345.6" width="460.8pt" xmlns="http://www.w3.org/2000/svg" xmlns:xlink="http://www.w3.org/1999/xlink">
 <defs>
  <style type="text/css">
*{stroke-linecap:butt;stroke-linejoin:round;}
  </style>
 </defs>
 <g id="figure_1">
  <g id="patch_1">
   <path d="M 0 345.6 
L 460.8 345.6 
L 460.8 0 
L 0 0 
z
" style="fill:#ffffff;"/>
  </g>
  <g id="axes_1">
   <g id="patch_2">
    <path d="M 62.58 295.98 
L 446.76 295.98 
L 446.76 14.04 
L 62.58 14.04 
z
" style="fill:#eeeeee;"/>
   </g>
   <g id="matplotlib.axis_1">
    <g id="xtick_1">
     <g id="line2d_1">
      <path clip-path="url(#pfd6203d97a)" d="M 80.042727 295.98 
L 80.042727 14.04 
" style="fill:none;stroke:#b2b2b2;stroke-dasharray:1.85,0.8;stroke-dashoffset:0;stroke-width:0.5;"/>
     </g>
     <g id="line2d_2">
      <defs>
       <path d="M 0 0 
L 0 -3.5 
" id="m59b2ef353d" style="stroke:#000000;stroke-width:0.8;"/>
      </defs>
      <g>
       <use style="stroke:#000000;stroke-width:0.8;" x="80.042727" xlink:href="#m59b2ef353d" y="295.98"/>
      </g>
     </g>
     <g id="text_1">
      <!-- 0 -->
      <defs>
       <path d="M 31.78125 66.40625 
Q 24.171875 66.40625 20.328125 58.90625 
Q 16.5 51.421875 16.5 36.375 
Q 16.5 21.390625 20.328125 13.890625 
Q 24.171875 6.390625 31.78125 6.390625 
Q 39.453125 6.390625 43.28125 13.890625 
Q 47.125 21.390625 47.125 36.375 
Q 47.125 51.421875 43.28125 58.90625 
Q 39.453125 66.40625 31.78125 66.40625 
z
M 31.78125 74.21875 
Q 44.046875 74.21875 50.515625 64.515625 
Q 56.984375 54.828125 56.984375 36.375 
Q 56.984375 17.96875 50.515625 8.265625 
Q 44.046875 -1.421875 31.78125 -1.421875 
Q 19.53125 -1.421875 13.0625 8.265625 
Q 6.59375 17.96875 6.59375 36.375 
Q 6.59375 54.828125 13.0625 64.515625 
Q 19.53125 74.21875 31.78125 74.21875 
z
" id="DejaVuSans-30"/>
      </defs>
      <g transform="translate(75.588977 310.117812)scale(0.14 -0.14)">
       <use xlink:href="#DejaVuSans-30"/>
      </g>
     </g>
    </g>
    <g id="xtick_2">
     <g id="line2d_3">
      <path clip-path="url(#pfd6203d97a)" d="M 133.54373 295.98 
L 133.54373 14.04 
" style="fill:none;stroke:#b2b2b2;stroke-dasharray:1.85,0.8;stroke-dashoffset:0;stroke-width:0.5;"/>
     </g>
     <g id="line2d_4">
      <g>
       <use style="stroke:#000000;stroke-width:0.8;" x="133.54373" xlink:href="#m59b2ef353d" y="295.98"/>
      </g>
     </g>
     <g id="text_2">
      <!-- 500 -->
      <defs>
       <path d="M 10.796875 72.90625 
L 49.515625 72.90625 
L 49.515625 64.59375 
L 19.828125 64.59375 
L 19.828125 46.734375 
Q 21.96875 47.46875 24.109375 47.828125 
Q 26.265625 48.1875 28.421875 48.1875 
Q 40.625 48.1875 47.75 41.5 
Q 54.890625 34.8125 54.890625 23.390625 
Q 54.890625 11.625 47.5625 5.09375 
Q 40.234375 -1.421875 26.90625 -1.421875 
Q 22.3125 -1.421875 17.546875 -0.640625 
Q 12.796875 0.140625 7.71875 1.703125 
L 7.71875 11.625 
Q 12.109375 9.234375 16.796875 8.0625 
Q 21.484375 6.890625 26.703125 6.890625 
Q 35.15625 6.890625 40.078125 11.328125 
Q 45.015625 15.765625 45.015625 23.390625 
Q 45.015625 31 40.078125 35.4375 
Q 35.15625 39.890625 26.703125 39.890625 
Q 22.75 39.890625 18.8125 39.015625 
Q 14.890625 38.140625 10.796875 36.28125 
z
" id="DejaVuSans-35"/>
      </defs>
      <g transform="translate(120.18248 310.117812)scale(0.14 -0.14)">
       <use xlink:href="#DejaVuSans-35"/>
       <use x="63.623047" xlink:href="#DejaVuSans-30"/>
       <use x="127.246094" xlink:href="#DejaVuSans-30"/>
      </g>
     </g>
    </g>
    <g id="xtick_3">
     <g id="line2d_5">
      <path clip-path="url(#pfd6203d97a)" d="M 187.044733 295.98 
L 187.044733 14.04 
" style="fill:none;stroke:#b2b2b2;stroke-dasharray:1.85,0.8;stroke-dashoffset:0;stroke-width:0.5;"/>
     </g>
     <g id="line2d_6">
      <g>
       <use style="stroke:#000000;stroke-width:0.8;" x="187.044733" xlink:href="#m59b2ef353d" y="295.98"/>
      </g>
     </g>
     <g id="text_3">
      <!-- 1000 -->
      <defs>
       <path d="M 12.40625 8.296875 
L 28.515625 8.296875 
L 28.515625 63.921875 
L 10.984375 60.40625 
L 10.984375 69.390625 
L 28.421875 72.90625 
L 38.28125 72.90625 
L 38.28125 8.296875 
L 54.390625 8.296875 
L 54.390625 0 
L 12.40625 0 
z
" id="DejaVuSans-31"/>
      </defs>
      <g transform="translate(169.229733 310.117812)scale(0.14 -0.14)">
       <use xlink:href="#DejaVuSans-31"/>
       <use x="63.623047" xlink:href="#DejaVuSans-30"/>
       <use x="127.246094" xlink:href="#DejaVuSans-30"/>
       <use x="190.869141" xlink:href="#DejaVuSans-30"/>
      </g>
     </g>
    </g>
    <g id="xtick_4">
     <g id="line2d_7">
      <path clip-path="url(#pfd6203d97a)" d="M 240.545735 295.98 
L 240.545735 14.04 
" style="fill:none;stroke:#b2b2b2;stroke-dasharray:1.85,0.8;stroke-dashoffset:0;stroke-width:0.5;"/>
     </g>
     <g id="line2d_8">
      <g>
       <use style="stroke:#000000;stroke-width:0.8;" x="240.545735" xlink:href="#m59b2ef353d" y="295.98"/>
      </g>
     </g>
     <g id="text_4">
      <!-- 1500 -->
      <g transform="translate(222.730735 310.117812)scale(0.14 -0.14)">
       <use xlink:href="#DejaVuSans-31"/>
       <use x="63.623047" xlink:href="#DejaVuSans-35"/>
       <use x="127.246094" xlink:href="#DejaVuSans-30"/>
       <use x="190.869141" xlink:href="#DejaVuSans-30"/>
      </g>
     </g>
    </g>
    <g id="xtick_5">
     <g id="line2d_9">
      <path clip-path="url(#pfd6203d97a)" d="M 294.046738 295.98 
L 294.046738 14.04 
" style="fill:none;stroke:#b2b2b2;stroke-dasharray:1.85,0.8;stroke-dashoffset:0;stroke-width:0.5;"/>
     </g>
     <g id="line2d_10">
      <g>
       <use style="stroke:#000000;stroke-width:0.8;" x="294.046738" xlink:href="#m59b2ef353d" y="295.98"/>
      </g>
     </g>
     <g id="text_5">
      <!-- 2000 -->
      <defs>
       <path d="M 19.1875 8.296875 
L 53.609375 8.296875 
L 53.609375 0 
L 7.328125 0 
L 7.328125 8.296875 
Q 12.9375 14.109375 22.625 23.890625 
Q 32.328125 33.6875 34.8125 36.53125 
Q 39.546875 41.84375 41.421875 45.53125 
Q 43.3125 49.21875 43.3125 52.78125 
Q 43.3125 58.59375 39.234375 62.25 
Q 35.15625 65.921875 28.609375 65.921875 
Q 23.96875 65.921875 18.8125 64.3125 
Q 13.671875 62.703125 7.8125 59.421875 
L 7.8125 69.390625 
Q 13.765625 71.78125 18.9375 73 
Q 24.125 74.21875 28.421875 74.21875 
Q 39.75 74.21875 46.484375 68.546875 
Q 53.21875 62.890625 53.21875 53.421875 
Q 53.21875 48.921875 51.53125 44.890625 
Q 49.859375 40.875 45.40625 35.40625 
Q 44.1875 33.984375 37.640625 27.21875 
Q 31.109375 20.453125 19.1875 8.296875 
z
" id="DejaVuSans-32"/>
      </defs>
      <g transform="translate(276.231738 310.117812)scale(0.14 -0.14)">
       <use xlink:href="#DejaVuSans-32"/>
       <use x="63.623047" xlink:href="#DejaVuSans-30"/>
       <use x="127.246094" xlink:href="#DejaVuSans-30"/>
       <use x="190.869141" xlink:href="#DejaVuSans-30"/>
      </g>
     </g>
    </g>
    <g id="xtick_6">
     <g id="line2d_11">
      <path clip-path="url(#pfd6203d97a)" d="M 347.547741 295.98 
L 347.547741 14.04 
" style="fill:none;stroke:#b2b2b2;stroke-dasharray:1.85,0.8;stroke-dashoffset:0;stroke-width:0.5;"/>
     </g>
     <g id="line2d_12">
      <g>
       <use style="stroke:#000000;stroke-width:0.8;" x="347.547741" xlink:href="#m59b2ef353d" y="295.98"/>
      </g>
     </g>
     <g id="text_6">
      <!-- 2500 -->
      <g transform="translate(329.732741 310.117812)scale(0.14 -0.14)">
       <use xlink:href="#DejaVuSans-32"/>
       <use x="63.623047" xlink:href="#DejaVuSans-35"/>
       <use x="127.246094" xlink:href="#DejaVuSans-30"/>
       <use x="190.869141" xlink:href="#DejaVuSans-30"/>
      </g>
     </g>
    </g>
    <g id="xtick_7">
     <g id="line2d_13">
      <path clip-path="url(#pfd6203d97a)" d="M 401.048743 295.98 
L 401.048743 14.04 
" style="fill:none;stroke:#b2b2b2;stroke-dasharray:1.85,0.8;stroke-dashoffset:0;stroke-width:0.5;"/>
     </g>
     <g id="line2d_14">
      <g>
       <use style="stroke:#000000;stroke-width:0.8;" x="401.048743" xlink:href="#m59b2ef353d" y="295.98"/>
      </g>
     </g>
     <g id="text_7">
      <!-- 3000 -->
      <defs>
       <path d="M 40.578125 39.3125 
Q 47.65625 37.796875 51.625 33 
Q 55.609375 28.21875 55.609375 21.1875 
Q 55.609375 10.40625 48.1875 4.484375 
Q 40.765625 -1.421875 27.09375 -1.421875 
Q 22.515625 -1.421875 17.65625 -0.515625 
Q 12.796875 0.390625 7.625 2.203125 
L 7.625 11.71875 
Q 11.71875 9.328125 16.59375 8.109375 
Q 21.484375 6.890625 26.8125 6.890625 
Q 36.078125 6.890625 40.9375 10.546875 
Q 45.796875 14.203125 45.796875 21.1875 
Q 45.796875 27.640625 41.28125 31.265625 
Q 36.765625 34.90625 28.71875 34.90625 
L 20.21875 34.90625 
L 20.21875 43.015625 
L 29.109375 43.015625 
Q 36.375 43.015625 40.234375 45.921875 
Q 44.09375 48.828125 44.09375 54.296875 
Q 44.09375 59.90625 40.109375 62.90625 
Q 36.140625 65.921875 28.71875 65.921875 
Q 24.65625 65.921875 20.015625 65.03125 
Q 15.375 64.15625 9.8125 62.3125 
L 9.8125 71.09375 
Q 15.4375 72.65625 20.34375 73.4375 
Q 25.25 74.21875 29.59375 74.21875 
Q 40.828125 74.21875 47.359375 69.109375 
Q 53.90625 64.015625 53.90625 55.328125 
Q 53.90625 49.265625 50.4375 45.09375 
Q 46.96875 40.921875 40.578125 39.3125 
z
" id="DejaVuSans-33"/>
      </defs>
      <g transform="translate(383.233743 310.117812)scale(0.14 -0.14)">
       <use xlink:href="#DejaVuSans-33"/>
       <use x="63.623047" xlink:href="#DejaVuSans-30"/>
       <use x="127.246094" xlink:href="#DejaVuSans-30"/>
       <use x="190.869141" xlink:href="#DejaVuSans-30"/>
      </g>
     </g>
    </g>
    <g id="text_8">
     <!-- Iterations -->
     <defs>
      <path d="M 9.8125 72.90625 
L 19.671875 72.90625 
L 19.671875 0 
L 9.8125 0 
z
" id="DejaVuSans-49"/>
      <path d="M 18.3125 70.21875 
L 18.3125 54.6875 
L 36.8125 54.6875 
L 36.8125 47.703125 
L 18.3125 47.703125 
L 18.3125 18.015625 
Q 18.3125 11.328125 20.140625 9.421875 
Q 21.96875 7.515625 27.59375 7.515625 
L 36.8125 7.515625 
L 36.8125 0 
L 27.59375 0 
Q 17.1875 0 13.234375 3.875 
Q 9.28125 7.765625 9.28125 18.015625 
L 9.28125 47.703125 
L 2.6875 47.703125 
L 2.6875 54.6875 
L 9.28125 54.6875 
L 9.28125 70.21875 
z
" id="DejaVuSans-74"/>
      <path d="M 56.203125 29.59375 
L 56.203125 25.203125 
L 14.890625 25.203125 
Q 15.484375 15.921875 20.484375 11.0625 
Q 25.484375 6.203125 34.421875 6.203125 
Q 39.59375 6.203125 44.453125 7.46875 
Q 49.3125 8.734375 54.109375 11.28125 
L 54.109375 2.78125 
Q 49.265625 0.734375 44.1875 -0.34375 
Q 39.109375 -1.421875 33.890625 -1.421875 
Q 20.796875 -1.421875 13.15625 6.1875 
Q 5.515625 13.8125 5.515625 26.8125 
Q 5.515625 40.234375 12.765625 48.109375 
Q 20.015625 56 32.328125 56 
Q 43.359375 56 49.78125 48.890625 
Q 56.203125 41.796875 56.203125 29.59375 
z
M 47.21875 32.234375 
Q 47.125 39.59375 43.09375 43.984375 
Q 39.0625 48.390625 32.421875 48.390625 
Q 24.90625 48.390625 20.390625 44.140625 
Q 15.875 39.890625 15.1875 32.171875 
z
" id="DejaVuSans-65"/>
      <path d="M 41.109375 46.296875 
Q 39.59375 47.171875 37.8125 47.578125 
Q 36.03125 48 33.890625 48 
Q 26.265625 48 22.1875 43.046875 
Q 18.109375 38.09375 18.109375 28.8125 
L 18.109375 0 
L 9.078125 0 
L 9.078125 54.6875 
L 18.109375 54.6875 
L 18.109375 46.1875 
Q 20.953125 51.171875 25.484375 53.578125 
Q 30.03125 56 36.53125 56 
Q 37.453125 56 38.578125 55.875 
Q 39.703125 55.765625 41.0625 55.515625 
z
" id="DejaVuSans-72"/>
      <path d="M 34.28125 27.484375 
Q 23.390625 27.484375 19.1875 25 
Q 14.984375 22.515625 14.984375 16.5 
Q 14.984375 11.71875 18.140625 8.90625 
Q 21.296875 6.109375 26.703125 6.109375 
Q 34.1875 6.109375 38.703125 11.40625 
Q 43.21875 16.703125 43.21875 25.484375 
L 43.21875 27.484375 
z
M 52.203125 31.203125 
L 52.203125 0 
L 43.21875 0 
L 43.21875 8.296875 
Q 40.140625 3.328125 35.546875 0.953125 
Q 30.953125 -1.421875 24.3125 -1.421875 
Q 15.921875 -1.421875 10.953125 3.296875 
Q 6 8.015625 6 15.921875 
Q 6 25.140625 12.171875 29.828125 
Q 18.359375 34.515625 30.609375 34.515625 
L 43.21875 34.515625 
L 43.21875 35.40625 
Q 43.21875 41.609375 39.140625 45 
Q 35.0625 48.390625 27.6875 48.390625 
Q 23 48.390625 18.546875 47.265625 
Q 14.109375 46.140625 10.015625 43.890625 
L 10.015625 52.203125 
Q 14.9375 54.109375 19.578125 55.046875 
Q 24.21875 56 28.609375 56 
Q 40.484375 56 46.34375 49.84375 
Q 52.203125 43.703125 52.203125 31.203125 
z
" id="DejaVuSans-61"/>
      <path d="M 9.421875 54.6875 
L 18.40625 54.6875 
L 18.40625 0 
L 9.421875 0 
z
M 9.421875 75.984375 
L 18.40625 75.984375 
L 18.40625 64.59375 
L 9.421875 64.59375 
z
" id="DejaVuSans-69"/>
      <path d="M 30.609375 48.390625 
Q 23.390625 48.390625 19.1875 42.75 
Q 14.984375 37.109375 14.984375 27.296875 
Q 14.984375 17.484375 19.15625 11.84375 
Q 23.34375 6.203125 30.609375 6.203125 
Q 37.796875 6.203125 41.984375 11.859375 
Q 46.1875 17.53125 46.1875 27.296875 
Q 46.1875 37.015625 41.984375 42.703125 
Q 37.796875 48.390625 30.609375 48.390625 
z
M 30.609375 56 
Q 42.328125 56 49.015625 48.375 
Q 55.71875 40.765625 55.71875 27.296875 
Q 55.71875 13.875 49.015625 6.21875 
Q 42.328125 -1.421875 30.609375 -1.421875 
Q 18.84375 -1.421875 12.171875 6.21875 
Q 5.515625 13.875 5.515625 27.296875 
Q 5.515625 40.765625 12.171875 48.375 
Q 18.84375 56 30.609375 56 
z
" id="DejaVuSans-6f"/>
      <path d="M 54.890625 33.015625 
L 54.890625 0 
L 45.90625 0 
L 45.90625 32.71875 
Q 45.90625 40.484375 42.875 44.328125 
Q 39.84375 48.1875 33.796875 48.1875 
Q 26.515625 48.1875 22.3125 43.546875 
Q 18.109375 38.921875 18.109375 30.90625 
L 18.109375 0 
L 9.078125 0 
L 9.078125 54.6875 
L 18.109375 54.6875 
L 18.109375 46.1875 
Q 21.34375 51.125 25.703125 53.5625 
Q 30.078125 56 35.796875 56 
Q 45.21875 56 50.046875 50.171875 
Q 54.890625 44.34375 54.890625 33.015625 
z
" id="DejaVuSans-6e"/>
      <path d="M 44.28125 53.078125 
L 44.28125 44.578125 
Q 40.484375 46.53125 36.375 47.5 
Q 32.28125 48.484375 27.875 48.484375 
Q 21.1875 48.484375 17.84375 46.4375 
Q 14.5 44.390625 14.5 40.28125 
Q 14.5 37.15625 16.890625 35.375 
Q 19.28125 33.59375 26.515625 31.984375 
L 29.59375 31.296875 
Q 39.15625 29.25 43.1875 25.515625 
Q 47.21875 21.78125 47.21875 15.09375 
Q 47.21875 7.46875 41.1875 3.015625 
Q 35.15625 -1.421875 24.609375 -1.421875 
Q 20.21875 -1.421875 15.453125 -0.5625 
Q 10.6875 0.296875 5.421875 2 
L 5.421875 11.28125 
Q 10.40625 8.6875 15.234375 7.390625 
Q 20.0625 6.109375 24.8125 6.109375 
Q 31.15625 6.109375 34.5625 8.28125 
Q 37.984375 10.453125 37.984375 14.40625 
Q 37.984375 18.0625 35.515625 20.015625 
Q 33.0625 21.96875 24.703125 23.78125 
L 21.578125 24.515625 
Q 13.234375 26.265625 9.515625 29.90625 
Q 5.8125 33.546875 5.8125 39.890625 
Q 5.8125 47.609375 11.28125 51.796875 
Q 16.75 56 26.8125 56 
Q 31.78125 56 36.171875 55.265625 
Q 40.578125 54.546875 44.28125 53.078125 
z
" id="DejaVuSans-73"/>
     </defs>
     <g transform="translate(217.521281 328.882937)scale(0.156 -0.156)">
      <use xlink:href="#DejaVuSans-49"/>
      <use x="29.492188" xlink:href="#DejaVuSans-74"/>
      <use x="68.701172" xlink:href="#DejaVuSans-65"/>
      <use x="130.224609" xlink:href="#DejaVuSans-72"/>
      <use x="171.337891" xlink:href="#DejaVuSans-61"/>
      <use x="232.617188" xlink:href="#DejaVuSans-74"/>
      <use x="271.826172" xlink:href="#DejaVuSans-69"/>
      <use x="299.609375" xlink:href="#DejaVuSans-6f"/>
      <use x="360.791016" xlink:href="#DejaVuSans-6e"/>
      <use x="424.169922" xlink:href="#DejaVuSans-73"/>
     </g>
    </g>
   </g>
   <g id="matplotlib.axis_2">
    <g id="ytick_1">
     <g id="line2d_15">
      <path clip-path="url(#pfd6203d97a)" d="M 62.58 258.118983 
L 446.76 258.118983 
" style="fill:none;stroke:#b2b2b2;stroke-dasharray:1.85,0.8;stroke-dashoffset:0;stroke-width:0.5;"/>
     </g>
     <g id="line2d_16">
      <defs>
       <path d="M 0 0 
L 3.5 0 
" id="m9b56000bdc" style="stroke:#000000;stroke-width:0.8;"/>
      </defs>
      <g>
       <use style="stroke:#000000;stroke-width:0.8;" x="62.58" xlink:href="#m9b56000bdc" y="258.118983"/>
      </g>
     </g>
     <g id="text_9">
      <!-- 150 -->
      <g transform="translate(32.3575 263.437889)scale(0.14 -0.14)">
       <use xlink:href="#DejaVuSans-31"/>
       <use x="63.623047" xlink:href="#DejaVuSans-35"/>
       <use x="127.246094" xlink:href="#DejaVuSans-30"/>
      </g>
     </g>
    </g>
    <g id="ytick_2">
     <g id="line2d_17">
      <path clip-path="url(#pfd6203d97a)" d="M 62.58 195.500694 
L 446.76 195.500694 
" style="fill:none;stroke:#b2b2b2;stroke-dasharray:1.85,0.8;stroke-dashoffset:0;stroke-width:0.5;"/>
     </g>
     <g id="line2d_18">
      <g>
       <use style="stroke:#000000;stroke-width:0.8;" x="62.58" xlink:href="#m9b56000bdc" y="195.500694"/>
      </g>
     </g>
     <g id="text_10">
      <!-- 160 -->
      <defs>
       <path d="M 33.015625 40.375 
Q 26.375 40.375 22.484375 35.828125 
Q 18.609375 31.296875 18.609375 23.390625 
Q 18.609375 15.53125 22.484375 10.953125 
Q 26.375 6.390625 33.015625 6.390625 
Q 39.65625 6.390625 43.53125 10.953125 
Q 47.40625 15.53125 47.40625 23.390625 
Q 47.40625 31.296875 43.53125 35.828125 
Q 39.65625 40.375 33.015625 40.375 
z
M 52.59375 71.296875 
L 52.59375 62.3125 
Q 48.875 64.0625 45.09375 64.984375 
Q 41.3125 65.921875 37.59375 65.921875 
Q 27.828125 65.921875 22.671875 59.328125 
Q 17.53125 52.734375 16.796875 39.40625 
Q 19.671875 43.65625 24.015625 45.921875 
Q 28.375 48.1875 33.59375 48.1875 
Q 44.578125 48.1875 50.953125 41.515625 
Q 57.328125 34.859375 57.328125 23.390625 
Q 57.328125 12.15625 50.6875 5.359375 
Q 44.046875 -1.421875 33.015625 -1.421875 
Q 20.359375 -1.421875 13.671875 8.265625 
Q 6.984375 17.96875 6.984375 36.375 
Q 6.984375 53.65625 15.1875 63.9375 
Q 23.390625 74.21875 37.203125 74.21875 
Q 40.921875 74.21875 44.703125 73.484375 
Q 48.484375 72.75 52.59375 71.296875 
z
" id="DejaVuSans-36"/>
      </defs>
      <g transform="translate(32.3575 200.819601)scale(0.14 -0.14)">
       <use xlink:href="#DejaVuSans-31"/>
       <use x="63.623047" xlink:href="#DejaVuSans-36"/>
       <use x="127.246094" xlink:href="#DejaVuSans-30"/>
      </g>
     </g>
    </g>
    <g id="ytick_3">
     <g id="line2d_19">
      <path clip-path="url(#pfd6203d97a)" d="M 62.58 132.882406 
L 446.76 132.882406 
" style="fill:none;stroke:#b2b2b2;stroke-dasharray:1.85,0.8;stroke-dashoffset:0;stroke-width:0.5;"/>
     </g>
     <g id="line2d_20">
      <g>
       <use style="stroke:#000000;stroke-width:0.8;" x="62.58" xlink:href="#m9b56000bdc" y="132.882406"/>
      </g>
     </g>
     <g id="text_11">
      <!-- 170 -->
      <defs>
       <path d="M 8.203125 72.90625 
L 55.078125 72.90625 
L 55.078125 68.703125 
L 28.609375 0 
L 18.3125 0 
L 43.21875 64.59375 
L 8.203125 64.59375 
z
" id="DejaVuSans-37"/>
      </defs>
      <g transform="translate(32.3575 138.201312)scale(0.14 -0.14)">
       <use xlink:href="#DejaVuSans-31"/>
       <use x="63.623047" xlink:href="#DejaVuSans-37"/>
       <use x="127.246094" xlink:href="#DejaVuSans-30"/>
      </g>
     </g>
    </g>
    <g id="ytick_4">
     <g id="line2d_21">
      <path clip-path="url(#pfd6203d97a)" d="M 62.58 70.264117 
L 446.76 70.264117 
" style="fill:none;stroke:#b2b2b2;stroke-dasharray:1.85,0.8;stroke-dashoffset:0;stroke-width:0.5;"/>
     </g>
     <g id="line2d_22">
      <g>
       <use style="stroke:#000000;stroke-width:0.8;" x="62.58" xlink:href="#m9b56000bdc" y="70.264117"/>
      </g>
     </g>
     <g id="text_12">
      <!-- 180 -->
      <defs>
       <path d="M 31.78125 34.625 
Q 24.75 34.625 20.71875 30.859375 
Q 16.703125 27.09375 16.703125 20.515625 
Q 16.703125 13.921875 20.71875 10.15625 
Q 24.75 6.390625 31.78125 6.390625 
Q 38.8125 6.390625 42.859375 10.171875 
Q 46.921875 13.96875 46.921875 20.515625 
Q 46.921875 27.09375 42.890625 30.859375 
Q 38.875 34.625 31.78125 34.625 
z
M 21.921875 38.8125 
Q 15.578125 40.375 12.03125 44.71875 
Q 8.5 49.078125 8.5 55.328125 
Q 8.5 64.0625 14.71875 69.140625 
Q 20.953125 74.21875 31.78125 74.21875 
Q 42.671875 74.21875 48.875 69.140625 
Q 55.078125 64.0625 55.078125 55.328125 
Q 55.078125 49.078125 51.53125 44.71875 
Q 48 40.375 41.703125 38.8125 
Q 48.828125 37.15625 52.796875 32.3125 
Q 56.78125 27.484375 56.78125 20.515625 
Q 56.78125 9.90625 50.3125 4.234375 
Q 43.84375 -1.421875 31.78125 -1.421875 
Q 19.734375 -1.421875 13.25 4.234375 
Q 6.78125 9.90625 6.78125 20.515625 
Q 6.78125 27.484375 10.78125 32.3125 
Q 14.796875 37.15625 21.921875 38.8125 
z
M 18.3125 54.390625 
Q 18.3125 48.734375 21.84375 45.5625 
Q 25.390625 42.390625 31.78125 42.390625 
Q 38.140625 42.390625 41.71875 45.5625 
Q 45.3125 48.734375 45.3125 54.390625 
Q 45.3125 60.0625 41.71875 63.234375 
Q 38.140625 66.40625 31.78125 66.40625 
Q 25.390625 66.40625 21.84375 63.234375 
Q 18.3125 60.0625 18.3125 54.390625 
z
" id="DejaVuSans-38"/>
      </defs>
      <g transform="translate(32.3575 75.583024)scale(0.14 -0.14)">
       <use xlink:href="#DejaVuSans-31"/>
       <use x="63.623047" xlink:href="#DejaVuSans-38"/>
       <use x="127.246094" xlink:href="#DejaVuSans-30"/>
      </g>
     </g>
    </g>
    <g id="text_13">
     <!-- V -->
     <defs>
      <path d="M 28.609375 0 
L 0.78125 72.90625 
L 11.078125 72.90625 
L 34.1875 11.53125 
L 57.328125 72.90625 
L 67.578125 72.90625 
L 39.796875 0 
z
" id="DejaVuSans-56"/>
     </defs>
     <g transform="translate(25.113187 160.345687)rotate(-90)scale(0.156 -0.156)">
      <use xlink:href="#DejaVuSans-56"/>
     </g>
    </g>
   </g>
   <g id="line2d_23">
    <path clip-path="url(#pfd6203d97a)" d="M 80.042727 196.247956 
L 80.363733 200.150431 
L 80.470735 199.395185 
L 80.684739 203.302655 
L 81.219749 221.180957 
L 81.540755 230.513288 
L 81.861761 235.906378 
L 82.503773 240.74268 
L 82.931781 248.40317 
L 83.038783 249.595905 
L 83.145785 249.344104 
L 83.252787 249.661398 
L 83.359789 249.431614 
L 83.466791 249.680278 
L 83.680795 251.674377 
L 84.643814 266.730411 
L 84.857818 269.506262 
L 84.96482 270.812281 
L 85.071822 270.501095 
L 85.285826 269.222069 
L 85.392828 269.218558 
L 85.49983 269.685613 
L 85.713834 269.133319 
L 85.927838 269.822049 
L 86.03484 269.38641 
L 86.462848 262.055327 
L 86.56985 262.343273 
L 86.890856 265.288348 
L 87.10486 268.085606 
L 87.318864 270.39515 
L 87.63987 274.202659 
L 87.960876 281.830483 
L 88.17488 283.164545 
L 88.388884 279.769189 
L 88.70989 262.104685 
L 89.351902 231.522568 
L 89.458904 231.068909 
L 89.993914 226.490492 
L 90.100916 226.206099 
L 90.528924 215.212422 
L 91.063934 195.451536 
L 91.598944 170.818783 
L 91.91995 164.518371 
L 92.026952 164.133495 
L 92.133954 164.471739 
L 92.668964 156.548093 
L 92.882968 159.133778 
L 93.310976 166.256865 
L 93.52498 167.826108 
L 93.738984 168.679234 
L 93.845986 167.217592 
L 94.166992 169.590793 
L 94.380996 168.906009 
L 94.595 167.705174 
L 94.702002 167.01173 
L 94.809004 167.191353 
L 94.916006 166.758269 
L 95.13001 163.931272 
L 95.344014 164.566964 
L 95.772022 167.730132 
L 95.879024 168.028854 
L 96.20003 170.96768 
L 96.628038 176.714919 
L 96.73504 176.744695 
L 96.842042 176.580356 
L 97.056046 177.476724 
L 98.126066 192.427992 
L 98.233068 192.863006 
L 98.447072 192.323822 
L 98.768078 190.622737 
L 98.87508 190.570084 
L 98.982082 190.086378 
L 99.089084 190.570379 
L 99.303088 192.265515 
L 99.731096 188.828232 
L 99.838098 188.756089 
L 100.159104 184.640007 
L 100.266106 183.999712 
L 100.373108 184.103688 
L 100.801116 188.172075 
L 101.122122 190.155734 
L 101.336126 190.988054 
L 101.443128 190.874217 
L 101.657132 191.788014 
L 101.764134 192.026045 
L 101.978138 193.547489 
L 102.08514 193.308766 
L 102.299144 194.358403 
L 102.727152 198.456688 
L 102.834154 198.985484 
L 103.262162 194.347255 
L 103.369164 193.619433 
L 103.476166 193.687048 
L 104.011176 189.250242 
L 105.188199 168.557034 
L 105.402203 167.285655 
L 105.616207 167.899097 
L 105.830211 167.075847 
L 105.937213 167.145346 
L 106.472223 162.945718 
L 106.900231 165.060223 
L 107.007233 165.290188 
L 107.114235 164.969561 
L 107.435241 158.10398 
L 107.542243 158.453325 
L 107.756247 159.436693 
L 108.184255 162.629992 
L 108.291257 162.469843 
L 108.505261 163.028488 
L 109.040271 166.336797 
L 109.254275 165.438906 
L 109.361277 165.466958 
L 109.896287 163.945381 
L 110.324295 166.276359 
L 110.431297 166.247118 
L 111.394315 170.355935 
L 111.501317 170.287504 
L 111.822323 168.927554 
L 112.250331 167.652529 
L 112.357333 168.201711 
L 112.678339 167.185051 
L 112.785341 167.04546 
L 113.106347 167.739923 
L 113.213349 167.394201 
L 113.534355 167.49721 
L 113.855361 165.284115 
L 113.962363 165.438777 
L 114.069365 165.306712 
L 114.497373 163.12363 
L 114.604375 163.172545 
L 114.711377 163.445307 
L 114.925381 163.140768 
L 115.032383 163.138973 
L 115.674395 166.818723 
L 115.781397 166.950451 
L 115.995401 165.891908 
L 116.209405 165.010673 
L 116.316407 165.028743 
L 116.530411 164.047041 
L 116.637413 164.242354 
L 116.744415 163.841844 
L 116.958419 164.529797 
L 117.386427 163.503553 
L 117.600431 162.327546 
L 117.707433 162.117296 
L 117.814435 162.236096 
L 118.135441 164.185267 
L 118.777453 171.805969 
L 119.205461 177.352782 
L 119.526467 179.231674 
L 119.740471 178.857551 
L 119.847473 178.681762 
L 120.168479 179.586894 
L 120.596487 177.978276 
L 120.703489 178.410529 
L 120.810491 178.182081 
L 120.917493 176.998257 
L 121.559505 163.011389 
L 121.987513 158.89824 
L 122.415521 156.547217 
L 122.522523 156.013577 
L 122.843529 153.044806 
L 123.271537 149.97244 
L 123.378539 149.955839 
L 123.699545 151.34424 
L 123.806547 151.837113 
L 124.876568 161.347507 
L 125.625582 165.762038 
L 126.5886 174.848608 
L 127.016608 176.941835 
L 127.12361 177.079832 
L 127.230612 177.423172 
L 127.872624 182.853348 
L 128.72864 192.256453 
L 129.049646 194.553741 
L 129.26365 195.870648 
L 129.477654 195.563548 
L 129.691658 195.886389 
L 129.79866 195.642908 
L 130.440672 190.082511 
L 130.547674 189.922153 
L 130.654676 189.983437 
L 131.082684 191.574129 
L 132.259706 199.426743 
L 132.366708 199.793898 
L 132.47371 199.733894 
L 132.794716 198.06933 
L 133.00872 197.740414 
L 133.115722 197.44768 
L 133.329726 197.536875 
L 133.54373 197.201101 
L 133.650732 197.238238 
L 133.757734 197.563485 
L 134.07874 199.014556 
L 134.292744 199.360019 
L 134.399746 199.771192 
L 134.61375 199.030115 
L 134.720752 199.076321 
L 135.041758 199.757432 
L 135.255762 200.97073 
L 135.362764 201.220501 
L 136.646788 208.090304 
L 137.2888 212.281821 
L 137.609806 214.080843 
L 137.716808 214.173975 
L 138.037814 216.256367 
L 138.465822 220.15862 
L 139.321838 225.332332 
L 139.96385 229.797684 
L 140.070852 229.982252 
L 140.284856 229.834696 
L 140.391858 229.603189 
L 140.605862 230.12019 
L 140.819866 229.356787 
L 141.03387 228.373092 
L 141.140872 228.618179 
L 141.247874 228.513232 
L 141.461878 227.978602 
L 141.889886 228.806313 
L 142.210892 229.283913 
L 142.6389 231.027019 
L 142.959906 231.253256 
L 143.280912 233.058186 
L 143.494916 233.231512 
L 143.815922 230.337136 
L 144.24393 227.879343 
L 144.350932 227.90221 
L 144.457934 228.215926 
L 144.564936 228.15799 
L 144.671939 227.959875 
L 144.885943 226.801086 
L 145.099947 226.826514 
L 145.206949 226.476279 
L 145.420953 227.226389 
L 145.527955 227.152691 
L 145.955963 225.310214 
L 146.276969 224.217232 
L 146.490973 223.850512 
L 146.597975 223.791089 
L 146.704977 223.476867 
L 147.560993 214.553157 
L 147.774997 214.18586 
L 147.989001 214.341376 
L 148.096003 214.286534 
L 148.310007 214.356076 
L 148.631013 214.41879 
L 149.273025 212.251629 
L 149.380027 212.358193 
L 149.487029 212.444923 
L 149.701033 213.509521 
L 151.092059 223.894881 
L 151.306063 224.481342 
L 151.627069 225.335678 
L 151.841073 225.031589 
L 152.055077 225.641948 
L 152.376083 226.819883 
L 153.018095 229.786145 
L 153.125097 229.743543 
L 153.446103 230.318083 
L 153.660107 231.097804 
L 153.981113 232.536857 
L 154.302119 231.682478 
L 154.409121 231.558722 
L 154.516123 231.245284 
L 154.837129 229.265423 
L 155.051133 228.642548 
L 155.372139 227.346794 
L 155.586143 227.225471 
L 155.800147 225.902637 
L 156.335157 223.042031 
L 156.442159 222.661288 
L 156.549161 222.766389 
L 157.619181 225.999665 
L 157.940187 227.184806 
L 158.154191 228.163367 
L 158.796203 230.684018 
L 159.438215 235.408495 
L 160.829241 243.413119 
L 161.043245 244.634729 
L 161.471253 246.394518 
L 161.578255 247.037382 
L 161.685257 246.999599 
L 162.220267 243.086549 
L 162.755277 235.379062 
L 163.290287 219.087906 
L 163.932299 202.949006 
L 165.323326 174.862762 
L 165.644332 170.038323 
L 165.965338 165.319239 
L 166.821354 154.937661 
L 167.035358 154.400567 
L 167.249362 154.018921 
L 167.463366 152.987751 
L 167.570368 152.85764 
L 167.784372 153.141243 
L 167.891374 153.000684 
L 167.998376 153.1039 
L 169.2824 157.61756 
L 169.81741 160.116033 
L 169.924412 160.094565 
L 170.031414 160.284358 
L 170.566424 162.112432 
L 171.101434 163.789511 
L 171.315438 164.460466 
L 171.42244 164.558087 
L 171.529442 164.843785 
L 172.278456 162.05971 
L 172.599462 160.354425 
L 173.134472 154.362753 
L 173.669482 146.017094 
L 174.418496 140.920271 
L 174.525498 140.635427 
L 174.846504 141.339893 
L 175.274512 142.805007 
L 175.70252 143.85496 
L 175.809522 143.864721 
L 175.916524 143.753484 
L 176.558536 140.298713 
L 176.879542 138.727679 
L 176.986544 138.620614 
L 177.093546 138.707549 
L 177.949562 143.489037 
L 178.163566 143.94813 
L 178.270568 144.10577 
L 178.484572 143.899684 
L 178.805578 144.64443 
L 179.554592 142.903768 
L 179.875598 142.648724 
L 180.089602 143.456512 
L 180.196604 143.482045 
L 180.51761 143.089465 
L 180.624612 143.107731 
L 181.159622 144.467206 
L 181.694632 146.320295 
L 181.908636 145.717436 
L 182.229642 143.433304 
L 182.978656 135.995883 
L 183.299662 134.476722 
L 183.513666 133.609239 
L 183.834672 132.997506 
L 184.476684 132.567782 
L 184.690689 132.201371 
L 184.904693 132.536129 
L 185.118697 133.105678 
L 185.225699 133.045772 
L 185.332701 133.018583 
L 185.546705 133.662929 
L 185.867711 134.400316 
L 186.081715 134.458005 
L 186.188717 134.355751 
L 186.616725 132.891235 
L 186.937731 132.065305 
L 187.151735 131.208996 
L 187.258737 131.117153 
L 187.365739 131.189219 
L 187.472741 131.106439 
L 187.686745 131.507252 
L 188.114753 132.507528 
L 188.542761 131.48932 
L 189.077771 129.544114 
L 189.291775 129.707198 
L 189.398777 129.759896 
L 189.826785 130.639313 
L 190.147791 130.515103 
L 190.254793 130.596521 
L 190.575799 131.144472 
L 190.789803 131.351359 
L 191.324813 132.925704 
L 191.859823 134.728322 
L 191.966825 134.844838 
L 192.073827 134.770518 
L 192.501835 135.446149 
L 192.608837 135.448164 
L 192.929843 136.307501 
L 193.036845 136.076925 
L 193.250849 136.40459 
L 193.678857 137.976773 
L 194.213867 139.610696 
L 194.748877 142.35232 
L 195.176885 144.406516 
L 195.390889 144.680557 
L 195.818897 143.035984 
L 195.925899 143.152302 
L 197.102921 146.643783 
L 197.423927 147.466015 
L 197.637931 147.659728 
L 197.851935 147.626388 
L 198.279943 148.40246 
L 198.493947 148.881665 
L 198.707951 148.988909 
L 198.814953 148.942597 
L 199.028957 148.338442 
L 200.312981 140.451307 
L 200.847991 137.632969 
L 201.275999 135.238814 
L 201.597005 135.401756 
L 201.811009 135.061379 
L 201.918011 135.190201 
L 202.025013 135.15096 
L 202.239017 135.52786 
L 202.453021 135.558826 
L 203.095033 138.040531 
L 203.523041 139.918346 
L 204.272055 142.244991 
L 204.379057 142.269348 
L 204.593061 141.767763 
L 205.02107 138.061218 
L 205.342076 134.707243 
L 205.877086 131.647144 
L 206.09109 130.730342 
L 206.519098 127.917741 
L 207.054108 127.311987 
L 207.375114 127.5546 
L 207.69612 128.503373 
L 208.124128 130.304031 
L 208.980144 131.509289 
L 209.30115 132.426053 
L 209.515154 132.801922 
L 209.729158 133.079766 
L 209.943162 132.920553 
L 210.478172 131.52191 
L 211.120184 125.579292 
L 211.869198 118.289827 
L 212.083202 117.979211 
L 212.618212 116.875664 
L 213.04622 117.109527 
L 213.260224 117.327515 
L 213.367226 117.324612 
L 213.58123 117.644503 
L 213.795234 117.849985 
L 214.009238 118.365679 
L 214.758252 117.603288 
L 215.079258 117.867006 
L 215.18626 117.806447 
L 215.400264 117.349737 
L 215.614268 117.598198 
L 215.72127 117.797039 
L 215.935274 118.60461 
L 216.149278 118.966868 
L 216.577286 120.020818 
L 216.898292 120.152268 
L 217.112296 119.993961 
L 217.433302 120.201782 
L 217.968312 121.49553 
L 218.610324 123.812086 
L 219.038332 124.155171 
L 219.145334 124.152942 
L 219.787346 123.229213 
L 220.108352 122.415562 
L 220.215354 122.333991 
L 220.53636 122.638068 
L 220.750364 123.183876 
L 220.964368 123.133688 
L 221.285374 122.541924 
L 221.392376 122.561768 
L 221.60638 122.319125 
L 221.713382 122.355069 
L 222.14139 123.378552 
L 222.355394 124.065274 
L 222.569398 124.145564 
L 222.890404 124.076789 
L 222.997406 124.04616 
L 223.21141 123.705431 
L 223.425414 124.030209 
L 224.388432 126.091667 
L 224.816441 127.729271 
L 225.030445 128.313363 
L 226.421471 133.137049 
L 226.742477 134.087854 
L 227.063483 134.91576 
L 227.277487 134.654887 
L 227.491491 135.242112 
L 227.919499 136.432393 
L 228.026501 136.307453 
L 228.240505 135.655132 
L 228.347507 135.604546 
L 228.454509 135.766959 
L 228.989519 135.559682 
L 229.203523 135.175948 
L 229.310525 134.945484 
L 229.631531 135.434221 
L 229.845535 135.418369 
L 230.059539 135.555634 
L 230.166541 135.528255 
L 230.273543 135.693534 
L 230.594549 135.625286 
L 230.701551 135.670996 
L 232.199579 130.732362 
L 232.413583 130.240877 
L 232.841591 128.789768 
L 234.018613 126.003587 
L 234.232617 125.438103 
L 235.088633 124.910521 
L 235.516641 124.125297 
L 235.730645 124.064729 
L 236.051651 123.372145 
L 236.586661 120.480413 
L 237.014669 115.314147 
L 237.549679 112.186197 
L 237.763683 111.239541 
L 237.977687 109.626756 
L 239.261711 98.176827 
L 239.582717 96.617606 
L 239.903723 96.14241 
L 240.117727 96.307884 
L 240.973743 95.070211 
L 241.722757 90.859086 
L 242.043763 89.395721 
L 242.257767 89.060079 
L 242.471771 89.059948 
L 242.685775 88.942287 
L 243.006781 88.94343 
L 243.220785 88.232842 
L 244.076801 82.677831 
L 245.360826 68.402101 
L 245.788834 65.77338 
L 246.10984 64.028955 
L 246.858854 62.205514 
L 247.393864 62.008152 
L 247.607868 62.662762 
L 247.71487 62.581722 
L 249.85491 65.450804 
L 249.961912 65.364259 
L 250.068914 65.506532 
L 250.603924 65.008075 
L 251.245936 62.523419 
L 251.45994 61.966963 
L 251.566942 61.874552 
L 252.101952 62.498257 
L 252.52996 63.339919 
L 252.636962 63.480971 
L 252.850966 63.378914 
L 252.957968 63.159957 
L 253.06497 63.214186 
L 253.278974 62.944791 
L 253.492978 61.790595 
L 254.67 53.113644 
L 255.20501 48.387619 
L 256.27503 44.846169 
L 256.917042 40.340226 
L 257.559054 35.458165 
L 259.057082 28.209956 
L 259.271086 28.00672 
L 259.699094 27.844651 
L 260.0201 27.745409 
L 260.234104 27.50457 
L 260.448108 27.05094 
L 260.55511 27.086077 
L 260.876116 26.855455 
L 261.09012 27.066593 
L 261.411126 27.54582 
L 262.16014 30.096288 
L 262.802152 30.866244 
L 262.909154 30.72489 
L 263.123158 30.13381 
L 263.979174 31.642359 
L 264.514184 33.178462 
L 264.835191 34.174398 
L 265.691207 37.957304 
L 266.440221 41.247389 
L 266.975231 42.742181 
L 267.403239 43.322341 
L 267.724245 43.539692 
L 267.938249 44.019798 
L 268.259255 44.877515 
L 268.473259 45.152838 
L 268.580261 45.169345 
L 269.008269 45.745084 
L 269.329275 46.628404 
L 269.757283 47.587047 
L 269.864285 47.730703 
L 271.576317 54.898932 
L 272.218329 57.251248 
L 272.646337 57.609984 
L 272.967343 57.43227 
L 273.288349 56.917745 
L 274.144365 58.010358 
L 274.679375 59.808456 
L 275.214385 61.810504 
L 275.963399 62.947033 
L 276.070401 63.003349 
L 276.284405 63.334243 
L 276.498409 63.13791 
L 276.926417 62.789196 
L 277.247423 62.287194 
L 277.354425 62.35857 
L 277.568429 61.965676 
L 278.210441 60.077168 
L 279.494465 49.047181 
L 279.815471 47.889199 
L 280.029475 47.657817 
L 280.350481 45.799533 
L 280.778489 42.512871 
L 280.992493 41.790914 
L 281.313499 41.52671 
L 281.527503 41.712973 
L 282.276517 43.445305 
L 283.881547 50.32127 
L 284.844566 54.245046 
L 285.700582 56.691785 
L 286.556598 59.584114 
L 286.877604 60.019069 
L 286.984606 60.138605 
L 287.519616 61.526467 
L 287.73362 61.768593 
L 288.054626 61.737757 
L 288.26863 62.201538 
L 288.589636 63.149099 
L 289.017644 63.825368 
L 289.124646 63.877016 
L 289.445652 63.02307 
L 289.766658 62.235035 
L 289.980662 62.186211 
L 290.087664 62.163808 
L 290.515672 61.489567 
L 290.622674 61.460148 
L 290.836678 61.185502 
L 291.906698 63.743069 
L 293.08372 67.387506 
L 293.725732 69.04137 
L 294.046738 69.796325 
L 295.972774 74.882716 
L 296.29378 75.58145 
L 297.042794 77.571284 
L 297.149796 77.518294 
L 297.3638 77.293589 
L 298.219816 74.550871 
L 298.43382 73.779117 
L 298.754826 73.460971 
L 299.289836 73.338 
L 300.03885 74.611728 
L 300.359856 74.784364 
L 300.466858 74.66995 
L 301.215872 72.623808 
L 301.322874 72.584197 
L 301.429876 72.411783 
L 301.750882 70.746505 
L 302.071888 69.148801 
L 302.392894 68.383126 
L 302.499896 68.472443 
L 302.820902 68.255693 
L 303.355912 68.413566 
L 303.569916 68.393409 
L 303.78392 68.512512 
L 304.425932 66.913375 
L 304.746939 66.838181 
L 304.960943 66.713418 
L 305.816959 66.593315 
L 307.421989 70.919733 
L 308.064001 71.69596 
L 308.813015 70.736971 
L 309.134021 69.137381 
L 309.562029 67.13334 
L 310.632049 64.03938 
L 311.167059 63.526464 
L 311.595067 62.79133 
L 311.916073 62.616344 
L 312.023075 62.436023 
L 312.130077 62.474664 
L 312.879091 61.172913 
L 313.093095 61.187144 
L 313.521103 62.452597 
L 314.163115 64.497633 
L 314.270117 64.599986 
L 314.698125 64.069617 
L 315.126133 63.545288 
L 315.768145 64.340804 
L 316.089151 64.46908 
L 316.624161 65.162655 
L 316.838165 65.580957 
L 317.480177 65.417339 
L 317.694181 65.428847 
L 317.908185 65.433904 
L 318.229191 65.529885 
L 318.443195 64.908721 
L 318.871203 62.829904 
L 319.085207 62.452543 
L 320.048225 63.886934 
L 320.262229 63.659226 
L 320.690237 63.631205 
L 321.011243 63.782771 
L 321.225247 63.606951 
L 321.439251 63.717339 
L 321.653255 64.206527 
L 323.793295 70.185154 
L 324.007299 70.519943 
L 325.184322 71.985829 
L 325.505328 72.770486 
L 326.361344 75.506989 
L 326.575348 75.85879 
L 327.21736 77.305485 
L 327.645368 78.068022 
L 327.859372 78.283726 
L 328.180378 78.028478 
L 329.143396 78.698594 
L 329.571404 78.672953 
L 329.785408 78.257335 
L 329.999412 77.384326 
L 331.818446 65.744898 
L 332.139452 64.936754 
L 332.460458 65.147611 
L 332.781464 65.781947 
L 333.851484 68.568 
L 334.600498 69.848392 
L 335.24251 71.081502 
L 335.563516 71.993454 
L 336.419532 74.65689 
L 336.954542 75.491571 
L 337.061544 75.499942 
L 337.596554 76.378628 
L 337.91756 76.608138 
L 338.45257 77.612519 
L 338.773576 78.183477 
L 339.843596 80.382747 
L 340.378606 80.388164 
L 340.699612 80.89255 
L 340.913616 80.919666 
L 341.448626 79.613865 
L 341.769632 79.178154 
L 342.19764 79.040806 
L 342.411644 79.259298 
L 343.26766 81.142515 
L 343.695668 82.223294 
L 344.765689 83.102398 
L 344.979693 83.096393 
L 345.086695 83.020653 
L 347.012731 86.079984 
L 347.547741 87.135652 
L 347.868747 87.59277 
L 348.403757 87.941801 
L 348.724763 87.920031 
L 349.366775 88.374498 
L 349.580779 88.543857 
L 350.008787 88.717148 
L 350.222791 88.122112 
L 350.757801 86.422645 
L 351.613817 83.600695 
L 351.934823 83.511497 
L 352.683837 84.250076 
L 353.004843 84.467395 
L 353.325849 84.130173 
L 353.432851 84.111757 
L 353.646855 84.525246 
L 353.967861 85.149212 
L 354.395869 85.545113 
L 355.144883 86.622304 
L 355.786895 87.538896 
L 356.428907 88.973438 
L 356.749913 89.638746 
L 357.498927 91.403426 
L 357.712931 91.793066 
L 358.140939 91.863848 
L 358.354943 92.150363 
L 358.889953 93.147533 
L 359.103957 93.353972 
L 359.424963 93.033676 
L 359.745969 91.866837 
L 360.494983 89.006883 
L 360.815989 88.674997 
L 361.029993 88.802656 
L 361.243997 88.980518 
L 361.565003 89.223055 
L 363.491039 93.057025 
L 364.668061 96.072013 
L 364.989068 96.669116 
L 365.203072 96.663073 
L 365.417076 96.809737 
L 365.952086 96.497862 
L 366.273092 96.893235 
L 367.022106 98.170372 
L 367.23611 98.114876 
L 367.664118 97.890124 
L 368.092126 98.235264 
L 368.30613 98.304102 
L 368.520134 98.37941 
L 368.84114 99.050585 
L 370.018162 102.359584 
L 370.339168 102.825359 
L 370.98118 103.823602 
L 371.409188 104.384637 
L 371.623192 104.512691 
L 371.837196 104.567034 
L 372.372206 103.477192 
L 372.58621 103.647564 
L 373.228222 104.545839 
L 373.335224 104.593562 
L 373.763232 104.316426 
L 374.084238 104.693912 
L 374.298242 104.738489 
L 374.512246 104.950002 
L 375.368262 106.07334 
L 375.689268 106.240934 
L 375.79627 106.192931 
L 376.224278 106.818504 
L 376.545284 107.252108 
L 376.973292 107.281132 
L 377.93631 106.147032 
L 378.150314 105.937024 
L 378.685324 105.911416 
L 378.792326 105.931251 
L 379.00633 105.884752 
L 379.434338 106.130388 
L 379.755344 105.845285 
L 380.07635 105.88603 
L 380.61136 105.434248 
L 381.039368 105.117036 
L 381.467376 105.327919 
L 382.109388 106.47881 
L 382.430394 106.495657 
L 382.644398 106.515746 
L 382.858402 106.683694 
L 384.249428 109.713422 
L 385.426451 112.490679 
L 385.854459 113.534294 
L 386.389469 114.3382 
L 386.924479 115.340929 
L 387.245485 115.864901 
L 387.459489 116.235583 
L 387.780495 115.961204 
L 387.994499 116.069721 
L 388.743513 116.697465 
L 389.171521 116.551895 
L 389.813533 116.244802 
L 390.027537 116.228491 
L 390.776551 114.107956 
L 391.525565 111.449049 
L 391.953573 111.173451 
L 392.167577 111.192035 
L 392.381581 111.315176 
L 392.488583 111.336657 
L 393.451601 112.455636 
L 393.772607 112.556828 
L 393.986611 112.68206 
L 394.521621 112.628424 
L 394.949629 111.947361 
L 395.270635 112.047226 
L 395.484639 111.792891 
L 395.805645 111.794293 
L 396.126651 111.924147 
L 396.340655 112.271768 
L 396.768663 113.06949 
L 397.303673 113.794226 
L 397.731681 114.338381 
L 397.945685 114.633773 
L 398.480695 115.482988 
L 398.694699 115.542929 
L 398.908703 115.026762 
L 399.336711 114.117354 
L 399.550715 113.911675 
L 399.978723 113.804008 
L 400.192727 113.720113 
L 400.406731 113.763945 
L 400.727737 113.630559 
L 401.262747 113.824296 
L 402.332767 114.918883 
L 402.653773 115.554101 
L 402.974779 116.032506 
L 403.295785 116.118507 
L 403.509789 115.906632 
L 403.723793 115.648416 
L 403.830795 115.590811 
L 404.365805 115.99116 
L 404.579809 115.836692 
L 405.542828 116.518894 
L 406.398844 115.653704 
L 406.71985 114.924478 
L 406.933854 114.395856 
L 407.147858 114.310208 
L 407.25486 114.139507 
L 408.110876 114.388816 
L 408.431882 114.088726 
L 408.85989 113.621096 
L 409.073894 113.727503 
L 409.715906 115.049504 
L 410.571922 116.283456 
L 411.53494 117.936992 
L 412.497958 119.715474 
L 412.818964 119.873235 
L 412.925966 119.777739 
L 413.888984 117.46894 
L 414.423994 117.620302 
L 414.530996 117.591274 
L 414.745 117.154822 
L 415.708018 112.724109 
L 415.81502 112.4715 
L 416.136026 112.691891 
L 416.35003 112.894982 
L 416.457032 112.860568 
L 416.778038 113.399748 
L 417.634054 115.210972 
L 417.848058 115.510078 
L 418.276066 116.204308 
L 418.597072 116.597385 
L 418.918078 116.578142 
L 419.239084 116.68137 
L 419.56009 116.883288 
L 419.774094 117.022718 
L 420.523108 118.138446 
L 421.16512 119.438214 
L 421.593128 119.808924 
L 422.663148 119.574899 
L 422.77015 119.626796 
L 423.198158 119.097892 
L 423.412162 118.774763 
L 424.161176 118.920059 
L 424.482182 118.983097 
L 424.803189 119.142617 
L 425.231197 118.64471 
L 425.445201 118.7245 
L 425.873209 118.751679 
L 426.194215 118.974828 
L 426.408219 119.003797 
L 426.729225 118.782743 
L 426.943229 118.919631 
L 427.585241 120.027955 
L 427.799245 120.116524 
L 428.013249 120.060555 
L 428.441257 120.17989 
L 428.762263 120.360941 
L 429.297273 120.238425 
L 429.297273 120.238425 
" style="fill:none;stroke:#348abd;stroke-linecap:square;stroke-width:2;"/>
   </g>
   <g id="patch_3">
    <path d="M 62.58 295.98 
L 62.58 14.04 
" style="fill:none;stroke:#bcbcbc;stroke-linecap:square;stroke-linejoin:miter;stroke-width:0.8;"/>
   </g>
   <g id="patch_4">
    <path d="M 446.76 295.98 
L 446.76 14.04 
" style="fill:none;stroke:#bcbcbc;stroke-linecap:square;stroke-linejoin:miter;stroke-width:0.8;"/>
   </g>
   <g id="patch_5">
    <path d="M 62.58 295.98 
L 446.76 295.98 
" style="fill:none;stroke:#bcbcbc;stroke-linecap:square;stroke-linejoin:miter;stroke-width:0.8;"/>
   </g>
   <g id="patch_6">
    <path d="M 62.58 14.04 
L 446.76 14.04 
" style="fill:none;stroke:#bcbcbc;stroke-linecap:square;stroke-linejoin:miter;stroke-width:0.8;"/>
   </g>
   <g id="legend_1">
    <g id="patch_7">
     <path d="M 364.620313 43.521563 
L 437.66 43.521563 
Q 440.26 43.521563 440.26 40.921562 
L 440.26 23.14 
Q 440.26 20.54 437.66 20.54 
L 364.620313 20.54 
Q 362.020312 20.54 362.020312 23.14 
L 362.020312 40.921562 
Q 362.020312 43.521563 364.620313 43.521563 
z
" style="fill:#eeeeee;opacity:0.8;stroke:#cccccc;stroke-linejoin:miter;stroke-width:0.5;"/>
    </g>
    <g id="line2d_24">
     <path d="M 367.220312 31.067969 
L 393.220312 31.067969 
" style="fill:none;stroke:#348abd;stroke-linecap:square;stroke-width:2;"/>
    </g>
    <g id="line2d_25"/>
    <g id="text_14">
     <!-- V (1) -->
     <defs>
      <path id="DejaVuSans-20"/>
      <path d="M 31 75.875 
Q 24.46875 64.65625 21.28125 53.65625 
Q 18.109375 42.671875 18.109375 31.390625 
Q 18.109375 20.125 21.3125 9.0625 
Q 24.515625 -2 31 -13.1875 
L 23.1875 -13.1875 
Q 15.875 -1.703125 12.234375 9.375 
Q 8.59375 20.453125 8.59375 31.390625 
Q 8.59375 42.28125 12.203125 53.3125 
Q 15.828125 64.359375 23.1875 75.875 
z
" id="DejaVuSans-28"/>
      <path d="M 8.015625 75.875 
L 15.828125 75.875 
Q 23.140625 64.359375 26.78125 53.3125 
Q 30.421875 42.28125 30.421875 31.390625 
Q 30.421875 20.453125 26.78125 9.375 
Q 23.140625 -1.703125 15.828125 -13.1875 
L 8.015625 -13.1875 
Q 14.5 -2 17.703125 9.0625 
Q 20.90625 20.125 20.90625 31.390625 
Q 20.90625 42.671875 17.703125 53.65625 
Q 14.5 64.65625 8.015625 75.875 
z
" id="DejaVuSans-29"/>
     </defs>
     <g transform="translate(403.620312 35.617969)scale(0.13 -0.13)">
      <use xlink:href="#DejaVuSans-56"/>
      <use x="68.408203" xlink:href="#DejaVuSans-20"/>
      <use x="100.195312" xlink:href="#DejaVuSans-28"/>
      <use x="139.208984" xlink:href="#DejaVuSans-31"/>
      <use x="202.832031" xlink:href="#DejaVuSans-29"/>
     </g>
    </g>
   </g>
  </g>
 </g>
 <defs>
  <clipPath id="pfd6203d97a">
   <rect height="281.94" width="384.18" x="62.58" y="14.04"/>
  </clipPath>
 </defs>
</svg>
