<?xml version='1.0' encoding='ASCII' standalone='yes'?>
<svg xmlns:xlink="http://www.w3.org/1999/xlink" xmlns="http://www.w3.org/2000/svg" version="1.1" width="460.8px" viewBox="0 0 460.8px 345.6px" height="345.6px">
  <g>
    <g><defs>
  <style type="text/css">
*{stroke-linecap:butt;stroke-linejoin:round;}
  </style>
 </defs>
 <g id="figure_1">
  <g id="patch_1">
   <path d="M 0 345.6  L 460.8 345.6  L 460.8 0  L 0 0  z " style="fill:#ffffff;"/>
  </g>
  <g id="axes_1">
   <g id="patch_2">
    <path d="M 60.41 303.64  L 400.3 303.64  L 400.3 14.846591  L 60.41 14.846591  z " style="fill:#ffffff;"/>
   </g>
   <g id="matplotlib.axis_1">
    <g id="xtick_1">
     <g id="line2d_1">
      <defs>
       <path d="M 0 0  L 0 3.5  " id="m34ffcddcab" style="stroke:#000000;stroke-width:0.8;"/>
      </defs>
      <g>
       <use style="stroke:#000000;stroke-width:0.8;" x="60.41" xlink:href="#m34ffcddcab" y="303.64"/>
      </g>
     </g>
     <g id="text_1">
      <!-- 0 -->
      <defs>
       <path d="M 31.78125 66.40625  Q 24.171875 66.40625 20.328125 58.90625  Q 16.5 51.421875 16.5 36.375  Q 16.5 21.390625 20.328125 13.890625  Q 24.171875 6.390625 31.78125 6.390625  Q 39.453125 6.390625 43.28125 13.890625  Q 47.125 21.390625 47.125 36.375  Q 47.125 51.421875 43.28125 58.90625  Q 39.453125 66.40625 31.78125 66.40625  z M 31.78125 74.21875  Q 44.046875 74.21875 50.515625 64.515625  Q 56.984375 54.828125 56.984375 36.375  Q 56.984375 17.96875 50.515625 8.265625  Q 44.046875 -1.421875 31.78125 -1.421875  Q 19.53125 -1.421875 13.0625 8.265625  Q 6.59375 17.96875 6.59375 36.375  Q 6.59375 54.828125 13.0625 64.515625  Q 19.53125 74.21875 31.78125 74.21875  z " id="DejaVuSans-30"/>
      </defs>
      <g transform="translate(57.22875 318.238437)scale(0.1 -0.1)">
       <use xlink:href="#DejaVuSans-30"/>
      </g>
     </g>
    </g>
    <g id="xtick_2">
     <g id="line2d_2">
      <g>
       <use style="stroke:#000000;stroke-width:0.8;" x="102.53294" xlink:href="#m34ffcddcab" y="303.64"/>
      </g>
     </g>
     <g id="text_2">
      <!-- 100 -->
      <defs>
       <path d="M 12.40625 8.296875  L 28.515625 8.296875  L 28.515625 63.921875  L 10.984375 60.40625  L 10.984375 69.390625  L 28.421875 72.90625  L 38.28125 72.90625  L 38.28125 8.296875  L 54.390625 8.296875  L 54.390625 0  L 12.40625 0  z " id="DejaVuSans-31"/>
      </defs>
      <g transform="translate(92.98919 318.238437)scale(0.1 -0.1)">
       <use xlink:href="#DejaVuSans-31"/>
       <use x="63.623047" xlink:href="#DejaVuSans-30"/>
       <use x="127.246094" xlink:href="#DejaVuSans-30"/>
      </g>
     </g>
    </g>
    <g id="xtick_3">
     <g id="line2d_3">
      <g>
       <use style="stroke:#000000;stroke-width:0.8;" x="144.655879" xlink:href="#m34ffcddcab" y="303.64"/>
      </g>
     </g>
     <g id="text_3">
      <!-- 200 -->
      <defs>
       <path d="M 19.1875 8.296875  L 53.609375 8.296875  L 53.609375 0  L 7.328125 0  L 7.328125 8.296875  Q 12.9375 14.109375 22.625 23.890625  Q 32.328125 33.6875 34.8125 36.53125  Q 39.546875 41.84375 41.421875 45.53125  Q 43.3125 49.21875 43.3125 52.78125  Q 43.3125 58.59375 39.234375 62.25  Q 35.15625 65.921875 28.609375 65.921875  Q 23.96875 65.921875 18.8125 64.3125  Q 13.671875 62.703125 7.8125 59.421875  L 7.8125 69.390625  Q 13.765625 71.78125 18.9375 73  Q 24.125 74.21875 28.421875 74.21875  Q 39.75 74.21875 46.484375 68.546875  Q 53.21875 62.890625 53.21875 53.421875  Q 53.21875 48.921875 51.53125 44.890625  Q 49.859375 40.875 45.40625 35.40625  Q 44.1875 33.984375 37.640625 27.21875  Q 31.109375 20.453125 19.1875 8.296875  z " id="DejaVuSans-32"/>
      </defs>
      <g transform="translate(135.112129 318.238437)scale(0.1 -0.1)">
       <use xlink:href="#DejaVuSans-32"/>
       <use x="63.623047" xlink:href="#DejaVuSans-30"/>
       <use x="127.246094" xlink:href="#DejaVuSans-30"/>
      </g>
     </g>
    </g>
    <g id="xtick_4">
     <g id="line2d_4">
      <g>
       <use style="stroke:#000000;stroke-width:0.8;" x="186.778819" xlink:href="#m34ffcddcab" y="303.64"/>
      </g>
     </g>
     <g id="text_4">
      <!-- 300 -->
      <defs>
       <path d="M 40.578125 39.3125  Q 47.65625 37.796875 51.625 33  Q 55.609375 28.21875 55.609375 21.1875  Q 55.609375 10.40625 48.1875 4.484375  Q 40.765625 -1.421875 27.09375 -1.421875  Q 22.515625 -1.421875 17.65625 -0.515625  Q 12.796875 0.390625 7.625 2.203125  L 7.625 11.71875  Q 11.71875 9.328125 16.59375 8.109375  Q 21.484375 6.890625 26.8125 6.890625  Q 36.078125 6.890625 40.9375 10.546875  Q 45.796875 14.203125 45.796875 21.1875  Q 45.796875 27.640625 41.28125 31.265625  Q 36.765625 34.90625 28.71875 34.90625  L 20.21875 34.90625  L 20.21875 43.015625  L 29.109375 43.015625  Q 36.375 43.015625 40.234375 45.921875  Q 44.09375 48.828125 44.09375 54.296875  Q 44.09375 59.90625 40.109375 62.90625  Q 36.140625 65.921875 28.71875 65.921875  Q 24.65625 65.921875 20.015625 65.03125  Q 15.375 64.15625 9.8125 62.3125  L 9.8125 71.09375  Q 15.4375 72.65625 20.34375 73.4375  Q 25.25 74.21875 29.59375 74.21875  Q 40.828125 74.21875 47.359375 69.109375  Q 53.90625 64.015625 53.90625 55.328125  Q 53.90625 49.265625 50.4375 45.09375  Q 46.96875 40.921875 40.578125 39.3125  z " id="DejaVuSans-33"/>
      </defs>
      <g transform="translate(177.235069 318.238437)scale(0.1 -0.1)">
       <use xlink:href="#DejaVuSans-33"/>
       <use x="63.623047" xlink:href="#DejaVuSans-30"/>
       <use x="127.246094" xlink:href="#DejaVuSans-30"/>
      </g>
     </g>
    </g>
    <g id="xtick_5">
     <g id="line2d_5">
      <g>
       <use style="stroke:#000000;stroke-width:0.8;" x="228.901759" xlink:href="#m34ffcddcab" y="303.64"/>
      </g>
     </g>
     <g id="text_5">
      <!-- 400 -->
      <defs>
       <path d="M 37.796875 64.3125  L 12.890625 25.390625  L 37.796875 25.390625  z M 35.203125 72.90625  L 47.609375 72.90625  L 47.609375 25.390625  L 58.015625 25.390625  L 58.015625 17.1875  L 47.609375 17.1875  L 47.609375 0  L 37.796875 0  L 37.796875 17.1875  L 4.890625 17.1875  L 4.890625 26.703125  z " id="DejaVuSans-34"/>
      </defs>
      <g transform="translate(219.358009 318.238437)scale(0.1 -0.1)">
       <use xlink:href="#DejaVuSans-34"/>
       <use x="63.623047" xlink:href="#DejaVuSans-30"/>
       <use x="127.246094" xlink:href="#DejaVuSans-30"/>
      </g>
     </g>
    </g>
    <g id="xtick_6">
     <g id="line2d_6">
      <g>
       <use style="stroke:#000000;stroke-width:0.8;" x="271.024698" xlink:href="#m34ffcddcab" y="303.64"/>
      </g>
     </g>
     <g id="text_6">
      <!-- 500 -->
      <defs>
       <path d="M 10.796875 72.90625  L 49.515625 72.90625  L 49.515625 64.59375  L 19.828125 64.59375  L 19.828125 46.734375  Q 21.96875 47.46875 24.109375 47.828125  Q 26.265625 48.1875 28.421875 48.1875  Q 40.625 48.1875 47.75 41.5  Q 54.890625 34.8125 54.890625 23.390625  Q 54.890625 11.625 47.5625 5.09375  Q 40.234375 -1.421875 26.90625 -1.421875  Q 22.3125 -1.421875 17.546875 -0.640625  Q 12.796875 0.140625 7.71875 1.703125  L 7.71875 11.625  Q 12.109375 9.234375 16.796875 8.0625  Q 21.484375 6.890625 26.703125 6.890625  Q 35.15625 6.890625 40.078125 11.328125  Q 45.015625 15.765625 45.015625 23.390625  Q 45.015625 31 40.078125 35.4375  Q 35.15625 39.890625 26.703125 39.890625  Q 22.75 39.890625 18.8125 39.015625  Q 14.890625 38.140625 10.796875 36.28125  z " id="DejaVuSans-35"/>
      </defs>
      <g transform="translate(261.480948 318.238437)scale(0.1 -0.1)">
       <use xlink:href="#DejaVuSans-35"/>
       <use x="63.623047" xlink:href="#DejaVuSans-30"/>
       <use x="127.246094" xlink:href="#DejaVuSans-30"/>
      </g>
     </g>
    </g>
    <g id="xtick_7">
     <g id="line2d_7">
      <g>
       <use style="stroke:#000000;stroke-width:0.8;" x="313.147638" xlink:href="#m34ffcddcab" y="303.64"/>
      </g>
     </g>
     <g id="text_7">
      <!-- 600 -->
      <defs>
       <path d="M 33.015625 40.375  Q 26.375 40.375 22.484375 35.828125  Q 18.609375 31.296875 18.609375 23.390625  Q 18.609375 15.53125 22.484375 10.953125  Q 26.375 6.390625 33.015625 6.390625  Q 39.65625 6.390625 43.53125 10.953125  Q 47.40625 15.53125 47.40625 23.390625  Q 47.40625 31.296875 43.53125 35.828125  Q 39.65625 40.375 33.015625 40.375  z M 52.59375 71.296875  L 52.59375 62.3125  Q 48.875 64.0625 45.09375 64.984375  Q 41.3125 65.921875 37.59375 65.921875  Q 27.828125 65.921875 22.671875 59.328125  Q 17.53125 52.734375 16.796875 39.40625  Q 19.671875 43.65625 24.015625 45.921875  Q 28.375 48.1875 33.59375 48.1875  Q 44.578125 48.1875 50.953125 41.515625  Q 57.328125 34.859375 57.328125 23.390625  Q 57.328125 12.15625 50.6875 5.359375  Q 44.046875 -1.421875 33.015625 -1.421875  Q 20.359375 -1.421875 13.671875 8.265625  Q 6.984375 17.96875 6.984375 36.375  Q 6.984375 53.65625 15.1875 63.9375  Q 23.390625 74.21875 37.203125 74.21875  Q 40.921875 74.21875 44.703125 73.484375  Q 48.484375 72.75 52.59375 71.296875  z " id="DejaVuSans-36"/>
      </defs>
      <g transform="translate(303.603888 318.238437)scale(0.1 -0.1)">
       <use xlink:href="#DejaVuSans-36"/>
       <use x="63.623047" xlink:href="#DejaVuSans-30"/>
       <use x="127.246094" xlink:href="#DejaVuSans-30"/>
      </g>
     </g>
    </g>
    <g id="xtick_8">
     <g id="line2d_8">
      <g>
       <use style="stroke:#000000;stroke-width:0.8;" x="355.270578" xlink:href="#m34ffcddcab" y="303.64"/>
      </g>
     </g>
     <g id="text_8">
      <!-- 700 -->
      <defs>
       <path d="M 8.203125 72.90625  L 55.078125 72.90625  L 55.078125 68.703125  L 28.609375 0  L 18.3125 0  L 43.21875 64.59375  L 8.203125 64.59375  z " id="DejaVuSans-37"/>
      </defs>
      <g transform="translate(345.726828 318.238437)scale(0.1 -0.1)">
       <use xlink:href="#DejaVuSans-37"/>
       <use x="63.623047" xlink:href="#DejaVuSans-30"/>
       <use x="127.246094" xlink:href="#DejaVuSans-30"/>
      </g>
     </g>
    </g>
    <g id="xtick_9">
     <g id="line2d_9">
      <g>
       <use style="stroke:#000000;stroke-width:0.8;" x="397.393517" xlink:href="#m34ffcddcab" y="303.64"/>
      </g>
     </g>
     <g id="text_9">
      <!-- 800 -->
      <defs>
       <path d="M 31.78125 34.625  Q 24.75 34.625 20.71875 30.859375  Q 16.703125 27.09375 16.703125 20.515625  Q 16.703125 13.921875 20.71875 10.15625  Q 24.75 6.390625 31.78125 6.390625  Q 38.8125 6.390625 42.859375 10.171875  Q 46.921875 13.96875 46.921875 20.515625  Q 46.921875 27.09375 42.890625 30.859375  Q 38.875 34.625 31.78125 34.625  z M 21.921875 38.8125  Q 15.578125 40.375 12.03125 44.71875  Q 8.5 49.078125 8.5 55.328125  Q 8.5 64.0625 14.71875 69.140625  Q 20.953125 74.21875 31.78125 74.21875  Q 42.671875 74.21875 48.875 69.140625  Q 55.078125 64.0625 55.078125 55.328125  Q 55.078125 49.078125 51.53125 44.71875  Q 48 40.375 41.703125 38.8125  Q 48.828125 37.15625 52.796875 32.3125  Q 56.78125 27.484375 56.78125 20.515625  Q 56.78125 9.90625 50.3125 4.234375  Q 43.84375 -1.421875 31.78125 -1.421875  Q 19.734375 -1.421875 13.25 4.234375  Q 6.78125 9.90625 6.78125 20.515625  Q 6.78125 27.484375 10.78125 32.3125  Q 14.796875 37.15625 21.921875 38.8125  z M 18.3125 54.390625  Q 18.3125 48.734375 21.84375 45.5625  Q 25.390625 42.390625 31.78125 42.390625  Q 38.140625 42.390625 41.71875 45.5625  Q 45.3125 48.734375 45.3125 54.390625  Q 45.3125 60.0625 41.71875 63.234375  Q 38.140625 66.40625 31.78125 66.40625  Q 25.390625 66.40625 21.84375 63.234375  Q 18.3125 60.0625 18.3125 54.390625  z " id="DejaVuSans-38"/>
      </defs>
      <g transform="translate(387.849767 318.238437)scale(0.1 -0.1)">
       <use xlink:href="#DejaVuSans-38"/>
       <use x="63.623047" xlink:href="#DejaVuSans-30"/>
       <use x="127.246094" xlink:href="#DejaVuSans-30"/>
      </g>
     </g>
    </g>
    <g id="text_10">
     <!-- Distance (&#181;m) -->
     <defs>
      <path d="M 19.671875 64.796875  L 19.671875 8.109375  L 31.59375 8.109375  Q 46.6875 8.109375 53.6875 14.9375  Q 60.6875 21.78125 60.6875 36.53125  Q 60.6875 51.171875 53.6875 57.984375  Q 46.6875 64.796875 31.59375 64.796875  z M 9.8125 72.90625  L 30.078125 72.90625  Q 51.265625 72.90625 61.171875 64.09375  Q 71.09375 55.28125 71.09375 36.53125  Q 71.09375 17.671875 61.125 8.828125  Q 51.171875 0 30.078125 0  L 9.8125 0  z " id="DejaVuSans-44"/>
      <path d="M 9.421875 54.6875  L 18.40625 54.6875  L 18.40625 0  L 9.421875 0  z M 9.421875 75.984375  L 18.40625 75.984375  L 18.40625 64.59375  L 9.421875 64.59375  z " id="DejaVuSans-69"/>
      <path d="M 44.28125 53.078125  L 44.28125 44.578125  Q 40.484375 46.53125 36.375 47.5  Q 32.28125 48.484375 27.875 48.484375  Q 21.1875 48.484375 17.84375 46.4375  Q 14.5 44.390625 14.5 40.28125  Q 14.5 37.15625 16.890625 35.375  Q 19.28125 33.59375 26.515625 31.984375  L 29.59375 31.296875  Q 39.15625 29.25 43.1875 25.515625  Q 47.21875 21.78125 47.21875 15.09375  Q 47.21875 7.46875 41.1875 3.015625  Q 35.15625 -1.421875 24.609375 -1.421875  Q 20.21875 -1.421875 15.453125 -0.5625  Q 10.6875 0.296875 5.421875 2  L 5.421875 11.28125  Q 10.40625 8.6875 15.234375 7.390625  Q 20.0625 6.109375 24.8125 6.109375  Q 31.15625 6.109375 34.5625 8.28125  Q 37.984375 10.453125 37.984375 14.40625  Q 37.984375 18.0625 35.515625 20.015625  Q 33.0625 21.96875 24.703125 23.78125  L 21.578125 24.515625  Q 13.234375 26.265625 9.515625 29.90625  Q 5.8125 33.546875 5.8125 39.890625  Q 5.8125 47.609375 11.28125 51.796875  Q 16.75 56 26.8125 56  Q 31.78125 56 36.171875 55.265625  Q 40.578125 54.546875 44.28125 53.078125  z " id="DejaVuSans-73"/>
      <path d="M 18.3125 70.21875  L 18.3125 54.6875  L 36.8125 54.6875  L 36.8125 47.703125  L 18.3125 47.703125  L 18.3125 18.015625  Q 18.3125 11.328125 20.140625 9.421875  Q 21.96875 7.515625 27.59375 7.515625  L 36.8125 7.515625  L 36.8125 0  L 27.59375 0  Q 17.1875 0 13.234375 3.875  Q 9.28125 7.765625 9.28125 18.015625  L 9.28125 47.703125  L 2.6875 47.703125  L 2.6875 54.6875  L 9.28125 54.6875  L 9.28125 70.21875  z " id="DejaVuSans-74"/>
      <path d="M 34.28125 27.484375  Q 23.390625 27.484375 19.1875 25  Q 14.984375 22.515625 14.984375 16.5  Q 14.984375 11.71875 18.140625 8.90625  Q 21.296875 6.109375 26.703125 6.109375  Q 34.1875 6.109375 38.703125 11.40625  Q 43.21875 16.703125 43.21875 25.484375  L 43.21875 27.484375  z M 52.203125 31.203125  L 52.203125 0  L 43.21875 0  L 43.21875 8.296875  Q 40.140625 3.328125 35.546875 0.953125  Q 30.953125 -1.421875 24.3125 -1.421875  Q 15.921875 -1.421875 10.953125 3.296875  Q 6 8.015625 6 15.921875  Q 6 25.140625 12.171875 29.828125  Q 18.359375 34.515625 30.609375 34.515625  L 43.21875 34.515625  L 43.21875 35.40625  Q 43.21875 41.609375 39.140625 45  Q 35.0625 48.390625 27.6875 48.390625  Q 23 48.390625 18.546875 47.265625  Q 14.109375 46.140625 10.015625 43.890625  L 10.015625 52.203125  Q 14.9375 54.109375 19.578125 55.046875  Q 24.21875 56 28.609375 56  Q 40.484375 56 46.34375 49.84375  Q 52.203125 43.703125 52.203125 31.203125  z " id="DejaVuSans-61"/>
      <path d="M 54.890625 33.015625  L 54.890625 0  L 45.90625 0  L 45.90625 32.71875  Q 45.90625 40.484375 42.875 44.328125  Q 39.84375 48.1875 33.796875 48.1875  Q 26.515625 48.1875 22.3125 43.546875  Q 18.109375 38.921875 18.109375 30.90625  L 18.109375 0  L 9.078125 0  L 9.078125 54.6875  L 18.109375 54.6875  L 18.109375 46.1875  Q 21.34375 51.125 25.703125 53.5625  Q 30.078125 56 35.796875 56  Q 45.21875 56 50.046875 50.171875  Q 54.890625 44.34375 54.890625 33.015625  z " id="DejaVuSans-6e"/>
      <path d="M 48.78125 52.59375  L 48.78125 44.1875  Q 44.96875 46.296875 41.140625 47.34375  Q 37.3125 48.390625 33.40625 48.390625  Q 24.65625 48.390625 19.8125 42.84375  Q 14.984375 37.3125 14.984375 27.296875  Q 14.984375 17.28125 19.8125 11.734375  Q 24.65625 6.203125 33.40625 6.203125  Q 37.3125 6.203125 41.140625 7.25  Q 44.96875 8.296875 48.78125 10.40625  L 48.78125 2.09375  Q 45.015625 0.34375 40.984375 -0.53125  Q 36.96875 -1.421875 32.421875 -1.421875  Q 20.0625 -1.421875 12.78125 6.34375  Q 5.515625 14.109375 5.515625 27.296875  Q 5.515625 40.671875 12.859375 48.328125  Q 20.21875 56 33.015625 56  Q 37.15625 56 41.109375 55.140625  Q 45.0625 54.296875 48.78125 52.59375  z " id="DejaVuSans-63"/>
      <path d="M 56.203125 29.59375  L 56.203125 25.203125  L 14.890625 25.203125  Q 15.484375 15.921875 20.484375 11.0625  Q 25.484375 6.203125 34.421875 6.203125  Q 39.59375 6.203125 44.453125 7.46875  Q 49.3125 8.734375 54.109375 11.28125  L 54.109375 2.78125  Q 49.265625 0.734375 44.1875 -0.34375  Q 39.109375 -1.421875 33.890625 -1.421875  Q 20.796875 -1.421875 13.15625 6.1875  Q 5.515625 13.8125 5.515625 26.8125  Q 5.515625 40.234375 12.765625 48.109375  Q 20.015625 56 32.328125 56  Q 43.359375 56 49.78125 48.890625  Q 56.203125 41.796875 56.203125 29.59375  z M 47.21875 32.234375  Q 47.125 39.59375 43.09375 43.984375  Q 39.0625 48.390625 32.421875 48.390625  Q 24.90625 48.390625 20.390625 44.140625  Q 15.875 39.890625 15.1875 32.171875  z " id="DejaVuSans-65"/>
      <path id="DejaVuSans-20"/>
      <path d="M 31 75.875  Q 24.46875 64.65625 21.28125 53.65625  Q 18.109375 42.671875 18.109375 31.390625  Q 18.109375 20.125 21.3125 9.0625  Q 24.515625 -2 31 -13.1875  L 23.1875 -13.1875  Q 15.875 -1.703125 12.234375 9.375  Q 8.59375 20.453125 8.59375 31.390625  Q 8.59375 42.28125 12.203125 53.3125  Q 15.828125 64.359375 23.1875 75.875  z " id="DejaVuSans-28"/>
      <path d="M 8.5 -20.796875  L 8.5 54.6875  L 17.484375 54.6875  L 17.484375 20.703125  Q 17.484375 13.625 20.84375 10  Q 24.21875 6.390625 30.8125 6.390625  Q 38.03125 6.390625 41.671875 10.484375  Q 45.3125 14.59375 45.3125 22.796875  L 45.3125 54.6875  L 54.296875 54.6875  L 54.296875 12.59375  Q 54.296875 9.671875 55.140625 8.28125  Q 56 6.890625 57.8125 6.890625  Q 58.25 6.890625 59.03125 7.15625  Q 59.8125 7.421875 61.1875 8.015625  L 61.1875 0.78125  Q 59.1875 -0.34375 57.390625 -0.875  Q 55.609375 -1.421875 53.90625 -1.421875  Q 50.53125 -1.421875 48.53125 0.484375  Q 46.53125 2.390625 45.796875 6.296875  Q 43.359375 2.4375 39.8125 0.5  Q 36.28125 -1.421875 31.5 -1.421875  Q 26.515625 -1.421875 23.015625 0.484375  Q 19.53125 2.390625 17.484375 6.203125  L 17.484375 -20.796875  z " id="DejaVuSans-b5"/>
      <path d="M 52 44.1875  Q 55.375 50.25 60.0625 53.125  Q 64.75 56 71.09375 56  Q 79.640625 56 84.28125 50.015625  Q 88.921875 44.046875 88.921875 33.015625  L 88.921875 0  L 79.890625 0  L 79.890625 32.71875  Q 79.890625 40.578125 77.09375 44.375  Q 74.3125 48.1875 68.609375 48.1875  Q 61.625 48.1875 57.5625 43.546875  Q 53.515625 38.921875 53.515625 30.90625  L 53.515625 0  L 44.484375 0  L 44.484375 32.71875  Q 44.484375 40.625 41.703125 44.40625  Q 38.921875 48.1875 33.109375 48.1875  Q 26.21875 48.1875 22.15625 43.53125  Q 18.109375 38.875 18.109375 30.90625  L 18.109375 0  L 9.078125 0  L 9.078125 54.6875  L 18.109375 54.6875  L 18.109375 46.1875  Q 21.1875 51.21875 25.484375 53.609375  Q 29.78125 56 35.6875 56  Q 41.65625 56 45.828125 52.96875  Q 50 49.953125 52 44.1875  z " id="DejaVuSans-6d"/>
      <path d="M 8.015625 75.875  L 15.828125 75.875  Q 23.140625 64.359375 26.78125 53.3125  Q 30.421875 42.28125 30.421875 31.390625  Q 30.421875 20.453125 26.78125 9.375  Q 23.140625 -1.703125 15.828125 -13.1875  L 8.015625 -13.1875  Q 14.5 -2 17.703125 9.0625  Q 20.90625 20.125 20.90625 31.390625  Q 20.90625 42.671875 17.703125 53.65625  Q 14.5 64.65625 8.015625 75.875  z " id="DejaVuSans-29"/>
     </defs>
     <g transform="translate(194.950313 331.916562)scale(0.1 -0.1)">
      <use xlink:href="#DejaVuSans-44"/>
      <use x="77.001953" xlink:href="#DejaVuSans-69"/>
      <use x="104.785156" xlink:href="#DejaVuSans-73"/>
      <use x="156.884766" xlink:href="#DejaVuSans-74"/>
      <use x="196.09375" xlink:href="#DejaVuSans-61"/>
      <use x="257.373047" xlink:href="#DejaVuSans-6e"/>
      <use x="320.751953" xlink:href="#DejaVuSans-63"/>
      <use x="375.732422" xlink:href="#DejaVuSans-65"/>
      <use x="437.255859" xlink:href="#DejaVuSans-20"/>
      <use x="469.042969" xlink:href="#DejaVuSans-28"/>
      <use x="508.056641" xlink:href="#DejaVuSans-b5"/>
      <use x="571.679688" xlink:href="#DejaVuSans-6d"/>
      <use x="669.091797" xlink:href="#DejaVuSans-29"/>
     </g>
    </g>
   </g>
   <g id="matplotlib.axis_2">
    <g id="ytick_1">
     <g id="line2d_10">
      <defs>
       <path d="M 0 0  L -3.5 0  " id="m9033066d4e" style="stroke:#000000;stroke-width:0.8;"/>
      </defs>
      <g>
       <use style="stroke:#000000;stroke-width:0.8;" x="60.41" xlink:href="#m9033066d4e" y="290.598455"/>
      </g>
     </g>
     <g id="text_11">
      <!-- 0.000 -->
      <defs>
       <path d="M 10.6875 12.40625  L 21 12.40625  L 21 0  L 10.6875 0  z " id="DejaVuSans-2e"/>
      </defs>
      <g transform="translate(24.781875 294.397674)scale(0.1 -0.1)">
       <use xlink:href="#DejaVuSans-30"/>
       <use x="63.623047" xlink:href="#DejaVuSans-2e"/>
       <use x="95.410156" xlink:href="#DejaVuSans-30"/>
       <use x="159.033203" xlink:href="#DejaVuSans-30"/>
       <use x="222.65625" xlink:href="#DejaVuSans-30"/>
      </g>
     </g>
    </g>
    <g id="ytick_2">
     <g id="line2d_11">
      <g>
       <use style="stroke:#000000;stroke-width:0.8;" x="60.41" xlink:href="#m9033066d4e" y="245.055441"/>
      </g>
     </g>
     <g id="text_12">
      <!-- 0.005 -->
      <g transform="translate(24.781875 248.85466)scale(0.1 -0.1)">
       <use xlink:href="#DejaVuSans-30"/>
       <use x="63.623047" xlink:href="#DejaVuSans-2e"/>
       <use x="95.410156" xlink:href="#DejaVuSans-30"/>
       <use x="159.033203" xlink:href="#DejaVuSans-30"/>
       <use x="222.65625" xlink:href="#DejaVuSans-35"/>
      </g>
     </g>
    </g>
    <g id="ytick_3">
     <g id="line2d_12">
      <g>
       <use style="stroke:#000000;stroke-width:0.8;" x="60.41" xlink:href="#m9033066d4e" y="199.512428"/>
      </g>
     </g>
     <g id="text_13">
      <!-- 0.010 -->
      <g transform="translate(24.781875 203.311647)scale(0.1 -0.1)">
       <use xlink:href="#DejaVuSans-30"/>
       <use x="63.623047" xlink:href="#DejaVuSans-2e"/>
       <use x="95.410156" xlink:href="#DejaVuSans-30"/>
       <use x="159.033203" xlink:href="#DejaVuSans-31"/>
       <use x="222.65625" xlink:href="#DejaVuSans-30"/>
      </g>
     </g>
    </g>
    <g id="ytick_4">
     <g id="line2d_13">
      <g>
       <use style="stroke:#000000;stroke-width:0.8;" x="60.41" xlink:href="#m9033066d4e" y="153.969415"/>
      </g>
     </g>
     <g id="text_14">
      <!-- 0.015 -->
      <g transform="translate(24.781875 157.768633)scale(0.1 -0.1)">
       <use xlink:href="#DejaVuSans-30"/>
       <use x="63.623047" xlink:href="#DejaVuSans-2e"/>
       <use x="95.410156" xlink:href="#DejaVuSans-30"/>
       <use x="159.033203" xlink:href="#DejaVuSans-31"/>
       <use x="222.65625" xlink:href="#DejaVuSans-35"/>
      </g>
     </g>
    </g>
    <g id="ytick_5">
     <g id="line2d_14">
      <g>
       <use style="stroke:#000000;stroke-width:0.8;" x="60.41" xlink:href="#m9033066d4e" y="108.426401"/>
      </g>
     </g>
     <g id="text_15">
      <!-- 0.020 -->
      <g transform="translate(24.781875 112.22562)scale(0.1 -0.1)">
       <use xlink:href="#DejaVuSans-30"/>
       <use x="63.623047" xlink:href="#DejaVuSans-2e"/>
       <use x="95.410156" xlink:href="#DejaVuSans-30"/>
       <use x="159.033203" xlink:href="#DejaVuSans-32"/>
       <use x="222.65625" xlink:href="#DejaVuSans-30"/>
      </g>
     </g>
    </g>
    <g id="ytick_6">
     <g id="line2d_15">
      <g>
       <use style="stroke:#000000;stroke-width:0.8;" x="60.41" xlink:href="#m9033066d4e" y="62.883388"/>
      </g>
     </g>
     <g id="text_16">
      <!-- 0.025 -->
      <g transform="translate(24.781875 66.682606)scale(0.1 -0.1)">
       <use xlink:href="#DejaVuSans-30"/>
       <use x="63.623047" xlink:href="#DejaVuSans-2e"/>
       <use x="95.410156" xlink:href="#DejaVuSans-30"/>
       <use x="159.033203" xlink:href="#DejaVuSans-32"/>
       <use x="222.65625" xlink:href="#DejaVuSans-35"/>
      </g>
     </g>
    </g>
    <g id="ytick_7">
     <g id="line2d_16">
      <g>
       <use style="stroke:#000000;stroke-width:0.8;" x="60.41" xlink:href="#m9033066d4e" y="17.340374"/>
      </g>
     </g>
     <g id="text_17">
      <!-- 0.030 -->
      <g transform="translate(24.781875 21.139593)scale(0.1 -0.1)">
       <use xlink:href="#DejaVuSans-30"/>
       <use x="63.623047" xlink:href="#DejaVuSans-2e"/>
       <use x="95.410156" xlink:href="#DejaVuSans-30"/>
       <use x="159.033203" xlink:href="#DejaVuSans-33"/>
       <use x="222.65625" xlink:href="#DejaVuSans-30"/>
      </g>
     </g>
    </g>
    <g id="text_18">
     <!-- Mole Fraction (Ta) -->
     <defs>
      <path d="M 9.8125 72.90625  L 24.515625 72.90625  L 43.109375 23.296875  L 61.8125 72.90625  L 76.515625 72.90625  L 76.515625 0  L 66.890625 0  L 66.890625 64.015625  L 48.09375 14.015625  L 38.1875 14.015625  L 19.390625 64.015625  L 19.390625 0  L 9.8125 0  z " id="DejaVuSans-4d"/>
      <path d="M 30.609375 48.390625  Q 23.390625 48.390625 19.1875 42.75  Q 14.984375 37.109375 14.984375 27.296875  Q 14.984375 17.484375 19.15625 11.84375  Q 23.34375 6.203125 30.609375 6.203125  Q 37.796875 6.203125 41.984375 11.859375  Q 46.1875 17.53125 46.1875 27.296875  Q 46.1875 37.015625 41.984375 42.703125  Q 37.796875 48.390625 30.609375 48.390625  z M 30.609375 56  Q 42.328125 56 49.015625 48.375  Q 55.71875 40.765625 55.71875 27.296875  Q 55.71875 13.875 49.015625 6.21875  Q 42.328125 -1.421875 30.609375 -1.421875  Q 18.84375 -1.421875 12.171875 6.21875  Q 5.515625 13.875 5.515625 27.296875  Q 5.515625 40.765625 12.171875 48.375  Q 18.84375 56 30.609375 56  z " id="DejaVuSans-6f"/>
      <path d="M 9.421875 75.984375  L 18.40625 75.984375  L 18.40625 0  L 9.421875 0  z " id="DejaVuSans-6c"/>
      <path d="M 9.8125 72.90625  L 51.703125 72.90625  L 51.703125 64.59375  L 19.671875 64.59375  L 19.671875 43.109375  L 48.578125 43.109375  L 48.578125 34.8125  L 19.671875 34.8125  L 19.671875 0  L 9.8125 0  z " id="DejaVuSans-46"/>
      <path d="M 41.109375 46.296875  Q 39.59375 47.171875 37.8125 47.578125  Q 36.03125 48 33.890625 48  Q 26.265625 48 22.1875 43.046875  Q 18.109375 38.09375 18.109375 28.8125  L 18.109375 0  L 9.078125 0  L 9.078125 54.6875  L 18.109375 54.6875  L 18.109375 46.1875  Q 20.953125 51.171875 25.484375 53.578125  Q 30.03125 56 36.53125 56  Q 37.453125 56 38.578125 55.875  Q 39.703125 55.765625 41.0625 55.515625  z " id="DejaVuSans-72"/>
      <path d="M -0.296875 72.90625  L 61.375 72.90625  L 61.375 64.59375  L 35.5 64.59375  L 35.5 0  L 25.59375 0  L 25.59375 64.59375  L -0.296875 64.59375  z " id="DejaVuSans-54"/>
     </defs>
     <g transform="translate(18.702188 204.583921)rotate(-90)scale(0.1 -0.1)">
      <use xlink:href="#DejaVuSans-4d"/>
      <use x="86.279297" xlink:href="#DejaVuSans-6f"/>
      <use x="147.460938" xlink:href="#DejaVuSans-6c"/>
      <use x="175.244141" xlink:href="#DejaVuSans-65"/>
      <use x="236.767578" xlink:href="#DejaVuSans-20"/>
      <use x="268.554688" xlink:href="#DejaVuSans-46"/>
      <use x="325.964844" xlink:href="#DejaVuSans-72"/>
      <use x="367.078125" xlink:href="#DejaVuSans-61"/>
      <use x="428.357422" xlink:href="#DejaVuSans-63"/>
      <use x="483.337891" xlink:href="#DejaVuSans-74"/>
      <use x="522.546875" xlink:href="#DejaVuSans-69"/>
      <use x="550.330078" xlink:href="#DejaVuSans-6f"/>
      <use x="611.511719" xlink:href="#DejaVuSans-6e"/>
      <use x="674.890625" xlink:href="#DejaVuSans-20"/>
      <use x="706.677734" xlink:href="#DejaVuSans-28"/>
      <use x="745.691406" xlink:href="#DejaVuSans-54"/>
      <use x="806.525391" xlink:href="#DejaVuSans-61"/>
      <use x="867.804688" xlink:href="#DejaVuSans-29"/>
     </g>
    </g>
   </g>
   <g id="line2d_17">
    <defs>
     <path d="M -0 3  L 3 -3  L -3 -3  z " id="mf648ab5ae9" style="stroke:#e74c3c;stroke-linejoin:miter;"/>
    </defs>
    <g clip-path="url(#pe06e83c7d1)">
     <use style="fill:#e74c3c;stroke:#e74c3c;stroke-linejoin:miter;" x="60.41" xlink:href="#mf648ab5ae9" y="290.513027"/>
     <use style="fill:#e74c3c;stroke:#e74c3c;stroke-linejoin:miter;" x="67.24196" xlink:href="#mf648ab5ae9" y="290.460239"/>
     <use style="fill:#e74c3c;stroke:#e74c3c;stroke-linejoin:miter;" x="74.07392" xlink:href="#mf648ab5ae9" y="290.378539"/>
     <use style="fill:#e74c3c;stroke:#e74c3c;stroke-linejoin:miter;" x="80.905879" xlink:href="#mf648ab5ae9" y="290.254321"/>
     <use style="fill:#e74c3c;stroke:#e74c3c;stroke-linejoin:miter;" x="87.737839" xlink:href="#mf648ab5ae9" y="290.068791"/>
     <use style="fill:#e74c3c;stroke:#e74c3c;stroke-linejoin:miter;" x="94.569799" xlink:href="#mf648ab5ae9" y="289.796574"/>
     <use style="fill:#e74c3c;stroke:#e74c3c;stroke-linejoin:miter;" x="101.401759" xlink:href="#mf648ab5ae9" y="289.404214"/>
     <use style="fill:#e74c3c;stroke:#e74c3c;stroke-linejoin:miter;" x="108.233719" xlink:href="#mf648ab5ae9" y="288.848663"/>
     <use style="fill:#e74c3c;stroke:#e74c3c;stroke-linejoin:miter;" x="115.065678" xlink:href="#mf648ab5ae9" y="288.075924"/>
     <use style="fill:#e74c3c;stroke:#e74c3c;stroke-linejoin:miter;" x="121.897638" xlink:href="#mf648ab5ae9" y="287.020052"/>
     <use style="fill:#e74c3c;stroke:#e74c3c;stroke-linejoin:miter;" x="128.729598" xlink:href="#mf648ab5ae9" y="285.602758"/>
     <use style="fill:#e74c3c;stroke:#e74c3c;stroke-linejoin:miter;" x="135.561558" xlink:href="#mf648ab5ae9" y="283.733895"/>
     <use style="fill:#e74c3c;stroke:#e74c3c;stroke-linejoin:miter;" x="142.393518" xlink:href="#mf648ab5ae9" y="281.313059"/>
     <use style="fill:#e74c3c;stroke:#e74c3c;stroke-linejoin:miter;" x="149.225477" xlink:href="#mf648ab5ae9" y="278.23255"/>
     <use style="fill:#e74c3c;stroke:#e74c3c;stroke-linejoin:miter;" x="156.057437" xlink:href="#mf648ab5ae9" y="274.381764"/>
     <use style="fill:#e74c3c;stroke:#e74c3c;stroke-linejoin:miter;" x="162.889397" xlink:href="#mf648ab5ae9" y="269.653018"/>
     <use style="fill:#e74c3c;stroke:#e74c3c;stroke-linejoin:miter;" x="169.721357" xlink:href="#mf648ab5ae9" y="263.948588"/>
     <use style="fill:#e74c3c;stroke:#e74c3c;stroke-linejoin:miter;" x="176.553317" xlink:href="#mf648ab5ae9" y="257.188565"/>
     <use style="fill:#e74c3c;stroke:#e74c3c;stroke-linejoin:miter;" x="183.385276" xlink:href="#mf648ab5ae9" y="249.318943"/>
     <use style="fill:#e74c3c;stroke:#e74c3c;stroke-linejoin:miter;" x="190.217236" xlink:href="#mf648ab5ae9" y="240.31922"/>
     <use style="fill:#e74c3c;stroke:#e74c3c;stroke-linejoin:miter;" x="197.049196" xlink:href="#mf648ab5ae9" y="230.208683"/>
     <use style="fill:#e74c3c;stroke:#e74c3c;stroke-linejoin:miter;" x="203.881156" xlink:href="#mf648ab5ae9" y="219.050618"/>
     <use style="fill:#e74c3c;stroke:#e74c3c;stroke-linejoin:miter;" x="210.713116" xlink:href="#mf648ab5ae9" y="206.953739"/>
     <use style="fill:#e74c3c;stroke:#e74c3c;stroke-linejoin:miter;" x="217.545075" xlink:href="#mf648ab5ae9" y="194.070429"/>
     <use style="fill:#e74c3c;stroke:#e74c3c;stroke-linejoin:miter;" x="224.377035" xlink:href="#mf648ab5ae9" y="180.591628"/>
     <use style="fill:#e74c3c;stroke:#e74c3c;stroke-linejoin:miter;" x="231.208995" xlink:href="#mf648ab5ae9" y="166.738597"/>
     <use style="fill:#e74c3c;stroke:#e74c3c;stroke-linejoin:miter;" x="238.040955" xlink:href="#mf648ab5ae9" y="152.752131"/>
     <use style="fill:#e74c3c;stroke:#e74c3c;stroke-linejoin:miter;" x="244.872915" xlink:href="#mf648ab5ae9" y="138.880072"/>
     <use style="fill:#e74c3c;stroke:#e74c3c;stroke-linejoin:miter;" x="251.704874" xlink:href="#mf648ab5ae9" y="125.364216"/>
     <use style="fill:#e74c3c;stroke:#e74c3c;stroke-linejoin:miter;" x="258.536834" xlink:href="#mf648ab5ae9" y="112.427744"/>
     <use style="fill:#e74c3c;stroke:#e74c3c;stroke-linejoin:miter;" x="265.368794" xlink:href="#mf648ab5ae9" y="100.264263"/>
     <use style="fill:#e74c3c;stroke:#e74c3c;stroke-linejoin:miter;" x="272.200754" xlink:href="#mf648ab5ae9" y="89.029352"/>
     <use style="fill:#e74c3c;stroke:#e74c3c;stroke-linejoin:miter;" x="279.032714" xlink:href="#mf648ab5ae9" y="78.835202"/>
     <use style="fill:#e74c3c;stroke:#e74c3c;stroke-linejoin:miter;" x="285.864673" xlink:href="#mf648ab5ae9" y="69.748586"/>
     <use style="fill:#e74c3c;stroke:#e74c3c;stroke-linejoin:miter;" x="292.696633" xlink:href="#mf648ab5ae9" y="61.79207"/>
     <use style="fill:#e74c3c;stroke:#e74c3c;stroke-linejoin:miter;" x="299.528593" xlink:href="#mf648ab5ae9" y="54.948015"/>
     <use style="fill:#e74c3c;stroke:#e74c3c;stroke-linejoin:miter;" x="306.360553" xlink:href="#mf648ab5ae9" y="49.164743"/>
     <use style="fill:#e74c3c;stroke:#e74c3c;stroke-linejoin:miter;" x="313.192513" xlink:href="#mf648ab5ae9" y="44.364054"/>
     <use style="fill:#e74c3c;stroke:#e74c3c;stroke-linejoin:miter;" x="320.024472" xlink:href="#mf648ab5ae9" y="40.449313"/>
     <use style="fill:#e74c3c;stroke:#e74c3c;stroke-linejoin:miter;" x="326.856432" xlink:href="#mf648ab5ae9" y="37.31334"/>
     <use style="fill:#e74c3c;stroke:#e74c3c;stroke-linejoin:miter;" x="333.688392" xlink:href="#mf648ab5ae9" y="34.845533"/>
     <use style="fill:#e74c3c;stroke:#e74c3c;stroke-linejoin:miter;" x="340.520352" xlink:href="#mf648ab5ae9" y="32.937791"/>
     <use style="fill:#e74c3c;stroke:#e74c3c;stroke-linejoin:miter;" x="347.352312" xlink:href="#mf648ab5ae9" y="31.489026"/>
     <use style="fill:#e74c3c;stroke:#e74c3c;stroke-linejoin:miter;" x="354.184271" xlink:href="#mf648ab5ae9" y="30.408224"/>
     <use style="fill:#e74c3c;stroke:#e74c3c;stroke-linejoin:miter;" x="361.016231" xlink:href="#mf648ab5ae9" y="29.616155"/>
     <use style="fill:#e74c3c;stroke:#e74c3c;stroke-linejoin:miter;" x="367.848191" xlink:href="#mf648ab5ae9" y="29.045924"/>
     <use style="fill:#e74c3c;stroke:#e74c3c;stroke-linejoin:miter;" x="374.680151" xlink:href="#mf648ab5ae9" y="28.642643"/>
     <use style="fill:#e74c3c;stroke:#e74c3c;stroke-linejoin:miter;" x="381.512111" xlink:href="#mf648ab5ae9" y="28.362465"/>
     <use style="fill:#e74c3c;stroke:#e74c3c;stroke-linejoin:miter;" x="388.34407" xlink:href="#mf648ab5ae9" y="28.171247"/>
     <use style="fill:#e74c3c;stroke:#e74c3c;stroke-linejoin:miter;" x="395.17603" xlink:href="#mf648ab5ae9" y="28.043045"/>
    </g>
   </g>
   <g id="line2d_18">
    <path clip-path="url(#pe06e83c7d1)" d="M 59.082305 290.463114  L 78.201117 290.205552  L 90.946991 289.816936  L 100.506397 289.313411  L 108.472569 288.679376  L 114.845506 287.977916  L 121.218443 287.051035  L 125.998146 286.172855  L 130.777849 285.106384  L 135.557552 283.820031  L 140.337255 282.279396  L 145.116958 280.447721  L 149.896661 278.286549  L 153.08313 276.643314  L 157.464524 274.094822  L 161.44761 271.464822  L 165.430696 268.515213  L 169.413782 265.226686  L 173.396867 261.582192  L 177.379953 257.567503  L 181.363039 253.17174  L 185.346125 248.387838  L 189.329211 243.212946  L 193.511451 237.360436  L 197.494537 231.394543  L 201.875931 224.4044  L 206.257325 216.988131  L 211.037028 208.446735  L 216.21504 198.717427  L 222.090091 187.170955  L 229.060492 172.942699  L 240.412286 149.159767  L 250.469578 128.286207  L 256.842515 115.560713  L 262.020527 105.677861  L 266.80023 97.009158  L 271.181624 89.502753  L 275.16471 83.079225  L 278.550333 77.93731  L 282.533419 72.276759  L 286.516504 67.045628  L 290.49959 62.246737  L 293.686059 58.716489  L 296.872528 55.455808  L 300.058996 52.457737  L 303.245465 49.713399  L 306.431934 47.212301  L 309.618402 44.942646  L 312.406562 43.136828  L 315.593031 41.266581  L 318.7795 39.589354  L 321.965968 38.09109  L 326.745671 36.148649  L 331.525374 34.531259  L 336.305077 33.195143  L 341.08478 32.099717  L 345.864483 31.208114  L 352.23742 30.280077  L 358.610358 29.589377  L 366.576529 28.977005  L 376.135935 28.502494  L 387.288575 28.180084  L 401.627684 27.973565  L 401.627684 27.973565  " style="fill:none;stroke:#e74c3c;stroke-linecap:square;stroke-width:2;"/>
   </g>
   <g id="patch_3">
    <path d="M 60.41 303.64  L 60.41 14.846591  " style="fill:none;stroke:#000000;stroke-linecap:square;stroke-linejoin:miter;stroke-width:0.8;"/>
   </g>
   <g id="patch_4">
    <path d="M 400.3 303.64  L 400.3 14.846591  " style="fill:none;stroke:#000000;stroke-linecap:square;stroke-linejoin:miter;stroke-width:0.8;"/>
   </g>
   <g id="patch_5">
    <path d="M 60.41 303.64  L 400.3 303.64  " style="fill:none;stroke:#000000;stroke-linecap:square;stroke-linejoin:miter;stroke-width:0.8;"/>
   </g>
   <g id="patch_6">
    <path d="M 60.41 14.846591  L 400.3 14.846591  " style="fill:none;stroke:#000000;stroke-linecap:square;stroke-linejoin:miter;stroke-width:0.8;"/>
   </g>
  </g>
  <g id="axes_2">
   <g id="matplotlib.axis_3">
    <g id="ytick_8">
     <g id="line2d_19">
      <defs>
       <path d="M 0 0  L 3.5 0  " id="ma33c734c37" style="stroke:#000000;stroke-width:0.8;"/>
      </defs>
      <g>
       <use style="stroke:#000000;stroke-width:0.8;" x="400.3" xlink:href="#ma33c734c37" y="265.241952"/>
      </g>
     </g>
     <g id="text_19">
      <!-- 0.975 -->
      <defs>
       <path d="M 10.984375 1.515625  L 10.984375 10.5  Q 14.703125 8.734375 18.5 7.8125  Q 22.3125 6.890625 25.984375 6.890625  Q 35.75 6.890625 40.890625 13.453125  Q 46.046875 20.015625 46.78125 33.40625  Q 43.953125 29.203125 39.59375 26.953125  Q 35.25 24.703125 29.984375 24.703125  Q 19.046875 24.703125 12.671875 31.3125  Q 6.296875 37.9375 6.296875 49.421875  Q 6.296875 60.640625 12.9375 67.421875  Q 19.578125 74.21875 30.609375 74.21875  Q 43.265625 74.21875 49.921875 64.515625  Q 56.59375 54.828125 56.59375 36.375  Q 56.59375 19.140625 48.40625 8.859375  Q 40.234375 -1.421875 26.421875 -1.421875  Q 22.703125 -1.421875 18.890625 -0.6875  Q 15.09375 0.046875 10.984375 1.515625  z M 30.609375 32.421875  Q 37.25 32.421875 41.125 36.953125  Q 45.015625 41.5 45.015625 49.421875  Q 45.015625 57.28125 41.125 61.84375  Q 37.25 66.40625 30.609375 66.40625  Q 23.96875 66.40625 20.09375 61.84375  Q 16.21875 57.28125 16.21875 49.421875  Q 16.21875 41.5 20.09375 36.953125  Q 23.96875 32.421875 30.609375 32.421875  z " id="DejaVuSans-39"/>
      </defs>
      <g transform="translate(407.3 269.041171)scale(0.1 -0.1)">
       <use xlink:href="#DejaVuSans-30"/>
       <use x="63.623047" xlink:href="#DejaVuSans-2e"/>
       <use x="95.410156" xlink:href="#DejaVuSans-39"/>
       <use x="159.033203" xlink:href="#DejaVuSans-37"/>
       <use x="222.65625" xlink:href="#DejaVuSans-35"/>
      </g>
     </g>
    </g>
    <g id="ytick_9">
     <g id="line2d_20">
      <g>
       <use style="stroke:#000000;stroke-width:0.8;" x="400.3" xlink:href="#ma33c734c37" y="215.144086"/>
      </g>
     </g>
     <g id="text_20">
      <!-- 0.980 -->
      <g transform="translate(407.3 218.943304)scale(0.1 -0.1)">
       <use xlink:href="#DejaVuSans-30"/>
       <use x="63.623047" xlink:href="#DejaVuSans-2e"/>
       <use x="95.410156" xlink:href="#DejaVuSans-39"/>
       <use x="159.033203" xlink:href="#DejaVuSans-38"/>
       <use x="222.65625" xlink:href="#DejaVuSans-30"/>
      </g>
     </g>
    </g>
    <g id="ytick_10">
     <g id="line2d_21">
      <g>
       <use style="stroke:#000000;stroke-width:0.8;" x="400.3" xlink:href="#ma33c734c37" y="165.046219"/>
      </g>
     </g>
     <g id="text_21">
      <!-- 0.985 -->
      <g transform="translate(407.3 168.845438)scale(0.1 -0.1)">
       <use xlink:href="#DejaVuSans-30"/>
       <use x="63.623047" xlink:href="#DejaVuSans-2e"/>
       <use x="95.410156" xlink:href="#DejaVuSans-39"/>
       <use x="159.033203" xlink:href="#DejaVuSans-38"/>
       <use x="222.65625" xlink:href="#DejaVuSans-35"/>
      </g>
     </g>
    </g>
    <g id="ytick_11">
     <g id="line2d_22">
      <g>
       <use style="stroke:#000000;stroke-width:0.8;" x="400.3" xlink:href="#ma33c734c37" y="114.948353"/>
      </g>
     </g>
     <g id="text_22">
      <!-- 0.990 -->
      <g transform="translate(407.3 118.747571)scale(0.1 -0.1)">
       <use xlink:href="#DejaVuSans-30"/>
       <use x="63.623047" xlink:href="#DejaVuSans-2e"/>
       <use x="95.410156" xlink:href="#DejaVuSans-39"/>
       <use x="159.033203" xlink:href="#DejaVuSans-39"/>
       <use x="222.65625" xlink:href="#DejaVuSans-30"/>
      </g>
     </g>
    </g>
    <g id="ytick_12">
     <g id="line2d_23">
      <g>
       <use style="stroke:#000000;stroke-width:0.8;" x="400.3" xlink:href="#ma33c734c37" y="64.850486"/>
      </g>
     </g>
     <g id="text_23">
      <!-- 0.995 -->
      <g transform="translate(407.3 68.649705)scale(0.1 -0.1)">
       <use xlink:href="#DejaVuSans-30"/>
       <use x="63.623047" xlink:href="#DejaVuSans-2e"/>
       <use x="95.410156" xlink:href="#DejaVuSans-39"/>
       <use x="159.033203" xlink:href="#DejaVuSans-39"/>
       <use x="222.65625" xlink:href="#DejaVuSans-35"/>
      </g>
     </g>
    </g>
    <g id="ytick_13">
     <g id="line2d_24">
      <g>
       <use style="stroke:#000000;stroke-width:0.8;" x="400.3" xlink:href="#ma33c734c37" y="14.75262"/>
      </g>
     </g>
     <g id="text_24">
      <!-- 1.000 -->
      <g transform="translate(407.3 18.551838)scale(0.1 -0.1)">
       <use xlink:href="#DejaVuSans-31"/>
       <use x="63.623047" xlink:href="#DejaVuSans-2e"/>
       <use x="95.410156" xlink:href="#DejaVuSans-30"/>
       <use x="159.033203" xlink:href="#DejaVuSans-30"/>
       <use x="222.65625" xlink:href="#DejaVuSans-30"/>
      </g>
     </g>
    </g>
    <g id="text_25">
     <!-- Mole Fraction (Ni) -->
     <defs>
      <path d="M 9.8125 72.90625  L 23.09375 72.90625  L 55.421875 11.921875  L 55.421875 72.90625  L 64.984375 72.90625  L 64.984375 0  L 51.703125 0  L 19.390625 60.984375  L 19.390625 0  L 9.8125 0  z " id="DejaVuSans-4e"/>
     </defs>
     <g transform="translate(447.526563 203.608139)rotate(-90)scale(0.1 -0.1)">
      <use xlink:href="#DejaVuSans-4d"/>
      <use x="86.279297" xlink:href="#DejaVuSans-6f"/>
      <use x="147.460938" xlink:href="#DejaVuSans-6c"/>
      <use x="175.244141" xlink:href="#DejaVuSans-65"/>
      <use x="236.767578" xlink:href="#DejaVuSans-20"/>
      <use x="268.554688" xlink:href="#DejaVuSans-46"/>
      <use x="325.964844" xlink:href="#DejaVuSans-72"/>
      <use x="367.078125" xlink:href="#DejaVuSans-61"/>
      <use x="428.357422" xlink:href="#DejaVuSans-63"/>
      <use x="483.337891" xlink:href="#DejaVuSans-74"/>
      <use x="522.546875" xlink:href="#DejaVuSans-69"/>
      <use x="550.330078" xlink:href="#DejaVuSans-6f"/>
      <use x="611.511719" xlink:href="#DejaVuSans-6e"/>
      <use x="674.890625" xlink:href="#DejaVuSans-20"/>
      <use x="706.677734" xlink:href="#DejaVuSans-28"/>
      <use x="745.691406" xlink:href="#DejaVuSans-4e"/>
      <use x="820.496094" xlink:href="#DejaVuSans-69"/>
      <use x="848.279297" xlink:href="#DejaVuSans-29"/>
     </g>
    </g>
   </g>
   <g id="line2d_25">
    <defs>
     <path d="M 0 -3  L -0.673542 -0.927051  L -2.85317 -0.927051  L -1.089814 0.354102  L -1.763356 2.427051  L -0 1.145898  L 1.763356 2.427051  L 1.089814 0.354102  L 2.85317 -0.927051  L 0.673542 -0.927051  z " id="m851676bee9" style="stroke:#808000;stroke-linejoin:bevel;"/>
    </defs>
    <g clip-path="url(#pe06e83c7d1)">
     <use style="fill:#808000;stroke:#808000;stroke-linejoin:bevel;" x="60.41" xlink:href="#m851676bee9" y="14.846591"/>
     <use style="fill:#808000;stroke:#808000;stroke-linejoin:bevel;" x="67.24196" xlink:href="#m851676bee9" y="14.904659"/>
     <use style="fill:#808000;stroke:#808000;stroke-linejoin:bevel;" x="74.07392" xlink:href="#m851676bee9" y="14.99453"/>
     <use style="fill:#808000;stroke:#808000;stroke-linejoin:bevel;" x="80.905879" xlink:href="#m851676bee9" y="15.131171"/>
     <use style="fill:#808000;stroke:#808000;stroke-linejoin:bevel;" x="87.737839" xlink:href="#m851676bee9" y="15.335257"/>
     <use style="fill:#808000;stroke:#808000;stroke-linejoin:bevel;" x="94.569799" xlink:href="#m851676bee9" y="15.634698"/>
     <use style="fill:#808000;stroke:#808000;stroke-linejoin:bevel;" x="101.401759" xlink:href="#m851676bee9" y="16.066299"/>
     <use style="fill:#808000;stroke:#808000;stroke-linejoin:bevel;" x="108.233719" xlink:href="#m851676bee9" y="16.677412"/>
     <use style="fill:#808000;stroke:#808000;stroke-linejoin:bevel;" x="115.065678" xlink:href="#m851676bee9" y="17.527434"/>
     <use style="fill:#808000;stroke:#808000;stroke-linejoin:bevel;" x="121.897638" xlink:href="#m851676bee9" y="18.688907"/>
     <use style="fill:#808000;stroke:#808000;stroke-linejoin:bevel;" x="128.729598" xlink:href="#m851676bee9" y="20.247946"/>
     <use style="fill:#808000;stroke:#808000;stroke-linejoin:bevel;" x="135.561558" xlink:href="#m851676bee9" y="22.303719"/>
     <use style="fill:#808000;stroke:#808000;stroke-linejoin:bevel;" x="142.393518" xlink:href="#m851676bee9" y="24.966667"/>
     <use style="fill:#808000;stroke:#808000;stroke-linejoin:bevel;" x="149.225477" xlink:href="#m851676bee9" y="28.355264"/>
     <use style="fill:#808000;stroke:#808000;stroke-linejoin:bevel;" x="156.057437" xlink:href="#m851676bee9" y="32.591176"/>
     <use style="fill:#808000;stroke:#808000;stroke-linejoin:bevel;" x="162.889397" xlink:href="#m851676bee9" y="37.792854"/>
     <use style="fill:#808000;stroke:#808000;stroke-linejoin:bevel;" x="169.721357" xlink:href="#m851676bee9" y="44.067796"/>
     <use style="fill:#808000;stroke:#808000;stroke-linejoin:bevel;" x="176.553317" xlink:href="#m851676bee9" y="51.503903"/>
     <use style="fill:#808000;stroke:#808000;stroke-linejoin:bevel;" x="183.385276" xlink:href="#m851676bee9" y="60.160582"/>
     <use style="fill:#808000;stroke:#808000;stroke-linejoin:bevel;" x="190.217236" xlink:href="#m851676bee9" y="70.060387"/>
     <use style="fill:#808000;stroke:#808000;stroke-linejoin:bevel;" x="197.049196" xlink:href="#m851676bee9" y="81.1821"/>
     <use style="fill:#808000;stroke:#808000;stroke-linejoin:bevel;" x="203.881156" xlink:href="#m851676bee9" y="93.456107"/>
     <use style="fill:#808000;stroke:#808000;stroke-linejoin:bevel;" x="210.713116" xlink:href="#m851676bee9" y="106.762821"/>
     <use style="fill:#808000;stroke:#808000;stroke-linejoin:bevel;" x="217.545075" xlink:href="#m851676bee9" y="120.934618"/>
     <use style="fill:#808000;stroke:#808000;stroke-linejoin:bevel;" x="224.377035" xlink:href="#m851676bee9" y="135.761462"/>
     <use style="fill:#808000;stroke:#808000;stroke-linejoin:bevel;" x="231.208995" xlink:href="#m851676bee9" y="150.999963"/>
     <use style="fill:#808000;stroke:#808000;stroke-linejoin:bevel;" x="238.040955" xlink:href="#m851676bee9" y="166.385246"/>
     <use style="fill:#808000;stroke:#808000;stroke-linejoin:bevel;" x="244.872915" xlink:href="#m851676bee9" y="181.644679"/>
     <use style="fill:#808000;stroke:#808000;stroke-linejoin:bevel;" x="251.704874" xlink:href="#m851676bee9" y="196.512283"/>
     <use style="fill:#808000;stroke:#808000;stroke-linejoin:bevel;" x="258.536834" xlink:href="#m851676bee9" y="210.74256"/>
     <use style="fill:#808000;stroke:#808000;stroke-linejoin:bevel;" x="265.368794" xlink:href="#m851676bee9" y="224.122537"/>
     <use style="fill:#808000;stroke:#808000;stroke-linejoin:bevel;" x="272.200754" xlink:href="#m851676bee9" y="236.481074"/>
     <use style="fill:#808000;stroke:#808000;stroke-linejoin:bevel;" x="279.032714" xlink:href="#m851676bee9" y="247.694763"/>
     <use style="fill:#808000;stroke:#808000;stroke-linejoin:bevel;" x="285.864673" xlink:href="#m851676bee9" y="257.69015"/>
     <use style="fill:#808000;stroke:#808000;stroke-linejoin:bevel;" x="292.696633" xlink:href="#m851676bee9" y="266.442415"/>
     <use style="fill:#808000;stroke:#808000;stroke-linejoin:bevel;" x="299.528593" xlink:href="#m851676bee9" y="273.970958"/>
     <use style="fill:#808000;stroke:#808000;stroke-linejoin:bevel;" x="306.360553" xlink:href="#m851676bee9" y="280.332627"/>
     <use style="fill:#808000;stroke:#808000;stroke-linejoin:bevel;" x="313.192513" xlink:href="#m851676bee9" y="285.613443"/>
     <use style="fill:#808000;stroke:#808000;stroke-linejoin:bevel;" x="320.024472" xlink:href="#m851676bee9" y="289.919706"/>
     <use style="fill:#808000;stroke:#808000;stroke-linejoin:bevel;" x="326.856432" xlink:href="#m851676bee9" y="293.369314"/>
     <use style="fill:#808000;stroke:#808000;stroke-linejoin:bevel;" x="333.688392" xlink:href="#m851676bee9" y="296.083932"/>
     <use style="fill:#808000;stroke:#808000;stroke-linejoin:bevel;" x="340.520352" xlink:href="#m851676bee9" y="298.182471"/>
     <use style="fill:#808000;stroke:#808000;stroke-linejoin:bevel;" x="347.352312" xlink:href="#m851676bee9" y="299.776131"/>
     <use style="fill:#808000;stroke:#808000;stroke-linejoin:bevel;" x="354.184271" xlink:href="#m851676bee9" y="300.965025"/>
     <use style="fill:#808000;stroke:#808000;stroke-linejoin:bevel;" x="361.016231" xlink:href="#m851676bee9" y="301.836311"/>
     <use style="fill:#808000;stroke:#808000;stroke-linejoin:bevel;" x="367.848191" xlink:href="#m851676bee9" y="302.463572"/>
     <use style="fill:#808000;stroke:#808000;stroke-linejoin:bevel;" x="374.680151" xlink:href="#m851676bee9" y="302.907186"/>
     <use style="fill:#808000;stroke:#808000;stroke-linejoin:bevel;" x="381.512111" xlink:href="#m851676bee9" y="303.215385"/>
     <use style="fill:#808000;stroke:#808000;stroke-linejoin:bevel;" x="388.34407" xlink:href="#m851676bee9" y="303.425727"/>
     <use style="fill:#808000;stroke:#808000;stroke-linejoin:bevel;" x="395.17603" xlink:href="#m851676bee9" y="303.566751"/>
    </g>
   </g>
   <g id="line2d_26">
    <path clip-path="url(#pe06e83c7d1)" d="M 59.082305 14.901496  L 76.607882 15.14853  L 89.353757 15.542647  L 98.913163 16.055286  L 106.879334 16.702894  L 113.252272 17.421389  L 119.625209 18.373323  L 124.404912 19.277438  L 129.184615 20.377829  L 133.964318 21.708148  L 138.744021 23.305251  L 143.523724 25.208774  L 146.710193 26.66859  L 149.896661 28.295866  L 153.08313 30.103444  L 157.464524 32.906816  L 160.650993 35.193832  L 163.837462 37.703014  L 167.02393 40.445571  L 170.210399 43.431796  L 173.396867 46.670861  L 176.583336 50.170616  L 180.566422 54.921408  L 184.549508 60.097962  L 188.532594 65.704372  L 192.714834 72.052738  L 196.697919 78.532012  L 200.681005 85.422145  L 205.0624 93.455196  L 209.842103 102.725669  L 214.621806 112.476236  L 220.198126 124.376693  L 226.67064 138.752634  L 235.433429 158.821387  L 250.469578 193.298059  L 256.842515 207.296256  L 262.020527 218.167513  L 266.80023 227.703191  L 271.181624 235.960327  L 275.16471 243.026286  L 278.550333 248.682455  L 282.533419 254.909129  L 286.516504 260.663437  L 289.702973 264.924444  L 292.889442 268.882809  L 296.07591 272.543102  L 299.262379 275.912396  L 302.448848 278.99996  L 305.635316 281.816924  L 308.821785 284.375938  L 312.406562 286.963407  L 315.593031 289.020701  L 318.7795 290.865671  L 321.965968 292.51378  L 325.152437 293.980445  L 329.93214 295.873279  L 334.711843 297.441009  L 339.491546 298.729528  L 344.271249 299.780799  L 349.050952 300.632482  L 355.423889 301.514434  L 361.796826 302.167146  L 369.762998 302.74242  L 379.322404 303.185133  L 392.068278 303.513073  L 401.627684 303.64318  L 401.627684 303.64318  " style="fill:none;stroke:#808000;stroke-linecap:square;stroke-width:2;"/>
   </g>
   <g id="patch_7">
    <path d="M 60.41 303.64  L 60.41 14.846591  " style="fill:none;stroke:#000000;stroke-linecap:square;stroke-linejoin:miter;stroke-width:0.8;"/>
   </g>
   <g id="patch_8">
    <path d="M 400.3 303.64  L 400.3 14.846591  " style="fill:none;stroke:#000000;stroke-linecap:square;stroke-linejoin:miter;stroke-width:0.8;"/>
   </g>
   <g id="patch_9">
    <path d="M 60.41 303.64  L 400.3 303.64  " style="fill:none;stroke:#000000;stroke-linecap:square;stroke-linejoin:miter;stroke-width:0.8;"/>
   </g>
   <g id="patch_10">
    <path d="M 60.41 14.846591  L 400.3 14.846591  " style="fill:none;stroke:#000000;stroke-linecap:square;stroke-linejoin:miter;stroke-width:0.8;"/>
   </g>
  </g>
 </g>
 <defs>
  <clipPath id="pe06e83c7d1">
   <rect height="288.793409" width="339.89" x="60.41" y="14.846591"/>
  </clipPath>
 </defs>
</g>
    <g transform="translate(10, 300) scale(1) ">
      <g transform="translate(0, 0) scale(3.0) "><defs id="defs831"/>
  <sodipodi:namedview xmlns:sodipodi="http://sodipodi.sourceforge.net/DTD/sodipodi-0.dtd" xmlns:inkscape="http://www.inkscape.org/namespaces/inkscape" id="base" pagecolor="#ffffff" bordercolor="#666666" borderopacity="1.0" inkscape:pageopacity="0.0" inkscape:pageshadow="2" inkscape:zoom="1.979899" inkscape:cx="-12.763683" inkscape:cy="-16.680883" inkscape:document-units="mm" inkscape:current-layer="layer1" showgrid="false" inkscape:window-width="1920" inkscape:window-height="1001" inkscape:window-x="-9" inkscape:window-y="-9" inkscape:window-maximized="1" units="pt"/>
  <metadata xmlns:rdf="http://www.w3.org/1999/02/22-rdf-syntax-ns#" xmlns:cc="http://creativecommons.org/ns#" xmlns:dc="http://purl.org/dc/elements/1.1/" id="metadata834">
    <rdf:RDF>
      <cc:Work rdf:about="">
        <dc:format>image/svg+xml</dc:format>
        <dc:type rdf:resource="http://purl.org/dc/dcmitype/StillImage"/>
        <dc:title/>
      </cc:Work>
    </rdf:RDF>
  </metadata>
  <g xmlns:inkscape="http://www.inkscape.org/namespaces/inkscape" xmlns:sodipodi="http://sodipodi.sourceforge.net/DTD/sodipodi-0.dtd" inkscape:label="Layer 1" inkscape:groupmode="layer" id="layer1" transform="translate(0,-288.81557)">
    <g id="g4761" transform="matrix(0.07377843,0,0,0.07377843,-0.76923022,275.45946)">
      <path inkscape:connector-curvature="0" id="path1959-6-7-1-6-5-4-0-3-2-6-0-3-9-6" style="font-style:normal;font-variant:normal;font-weight:bold;font-stretch:normal;font-size:120.99466705px;line-height:1.25;font-family:Aharoni;-inkscape-font-specification:'Aharoni, Bold';font-variant-ligatures:normal;font-variant-caps:normal;font-variant-numeric:normal;font-feature-settings:normal;text-align:start;letter-spacing:0px;word-spacing:0px;writing-mode:lr-tb;text-anchor:start;fill:#000000;fill-opacity:1;stroke:none;stroke-width:2.37649584" d="M 52.937412,287.55677 H 40.587702 V 265.43005 H 22.776041 v 22.12672 h -12.34982 v -53.17432 h 12.34982 v 20.5296 h 17.811661 v -20.5296 h 12.34971 z"/>
      <path inkscape:connector-curvature="0" id="path1961-2-9-7-9-3-1-6-5-1-5-8-7-8-2" style="font-style:normal;font-variant:normal;font-weight:bold;font-stretch:normal;font-size:120.99466705px;line-height:1.25;font-family:Aharoni;-inkscape-font-specification:'Aharoni, Bold';font-variant-ligatures:normal;font-variant-caps:normal;font-variant-numeric:normal;font-feature-settings:normal;text-align:start;letter-spacing:0px;word-spacing:0px;writing-mode:lr-tb;text-anchor:start;fill:#000000;fill-opacity:1;stroke:none;stroke-width:2.37649584" d="m 69.681125,237.49895 q 0,3.0385 -1.87856,5.1421 -1.84375,2.0647 -4.55721,2.0647 -2.67866,0 -4.55722,-2.1036 -1.84375,-2.1036 -1.84375,-5.1032 0,-2.9996 1.84375,-5.0642 1.87856,-2.1036 4.55722,-2.1036 2.67865,0 4.55721,2.1036 1.87856,2.0646 1.87856,5.0642 z m -0.73057,50.05782 h -11.41048 v -36.15072 h 11.41048 z"/>
      <path inkscape:connector-curvature="0" id="path1963-3-1-2-8-3-6-3-3-3-4-7-6-0-8" style="font-style:normal;font-variant:normal;font-weight:bold;font-stretch:normal;font-size:120.99466705px;line-height:1.25;font-family:Aharoni;-inkscape-font-specification:'Aharoni, Bold';font-variant-ligatures:normal;font-variant-caps:normal;font-variant-numeric:normal;font-feature-settings:normal;text-align:start;letter-spacing:0px;word-spacing:0px;writing-mode:lr-tb;text-anchor:start;fill:#000000;fill-opacity:1;stroke:none;stroke-width:2.37649584" d="m 93.369625,261.92405 h -6.50536 v 25.63272 h -11.4104 v -25.63272 h -3.75712 v -10.518 h 3.75712 v -10.8686 h 11.4104 v 10.8686 h 6.50536 z"/>
      <path id="path1967-3-3-6-2-9-6-2-5-3-0-9-8-2-1" style="font-style:normal;font-variant:normal;font-weight:bold;font-stretch:normal;font-size:120.99466705px;line-height:1.25;font-family:Aharoni;-inkscape-font-specification:'Aharoni, Bold';font-variant-ligatures:normal;font-variant-caps:normal;font-variant-numeric:normal;font-feature-settings:normal;text-align:start;letter-spacing:0px;word-spacing:0px;writing-mode:lr-tb;text-anchor:start;fill:#000000;fill-opacity:1;stroke:none;stroke-width:2.37649584" d="m 160.61447,287.55677 h -12.34971 v -53.17432 h 12.34971 z" inkscape:connector-curvature="0"/>
      <path inkscape:connector-curvature="0" id="path1969-8-0-8-5-3-5-6-6-3-9-8-6-2-0" style="font-style:normal;font-variant:normal;font-weight:bold;font-stretch:normal;font-size:120.99466705px;line-height:1.25;font-family:Aharoni;-inkscape-font-specification:'Aharoni, Bold';font-variant-ligatures:normal;font-variant-caps:normal;font-variant-numeric:normal;font-feature-settings:normal;text-align:start;letter-spacing:0px;word-spacing:0px;writing-mode:lr-tb;text-anchor:start;fill:#000000;fill-opacity:1;stroke:none;stroke-width:2.37649584" d="m 201.6896,284.86883 q -6.05314,2.68794 -11.20172,2.68794 -8.97528,0 -16.07201,-6.42764 -9.04489,-8.21959 -9.04489,-21.42558 0,-13.2448 9.04489,-21.4644 7.09673,-6.4277 16.17636,-6.4277 4.93989,0 11.09737,2.6879 v 16.5561 q -1.73941,-2.3763 -3.54836,-3.5839 -3.30489,-2.2204 -7.09679,-2.2204 -4.8007,0 -8.34907,3.2333 -4.48766,4.0903 -4.48766,11.2191 0,7.0899 4.48766,11.1803 3.54837,3.23328 8.34907,3.23328 3.7919,0 7.09679,-2.22049 1.77415,-1.16869 3.54836,-3.58389 z"/>
      <path inkscape:transform-center-y="-13.656107" inkscape:transform-center-x="-3.9758045" sodipodi:nodetypes="csssssc" inkscape:connector-curvature="0" id="rect815-3-0-9-3-5-6-0-4-03-7-3-7-5-3-2-76-3-8-8-5-3-7-8-0-1-3-7-9-2-8-1" d="m 104.61223,181.4353 c 0,0 17.68257,27.27493 22.63096,34.41579 7.92879,11.44185 16.42741,30.36094 17.92806,45.50275 1.21005,12.20999 -1.38345,26.51285 -17.32077,30.11208 -11.70405,2.64313 -26.75007,-5.41371 -30.334975,-20.50903 -3.30533,-13.91816 -2.13088,-34.61412 0.0984,-48.67354 1.22049,-7.69719 5.657305,-36.06774 6.998335,-40.84805 z" style="font-style:normal;font-weight:normal;font-size:242.08590698px;line-height:1.25;font-family:sans-serif;letter-spacing:0px;word-spacing:0px;opacity:1;fill:#00456b;fill-opacity:1;stroke:none;stroke-width:0.6720385;stroke-miterlimit:4;stroke-dasharray:none;stroke-dashoffset:0;stroke-opacity:1;paint-order:markers fill stroke"/>
      <path sodipodi:nodetypes="ccscscsccscccscc" d="m 107.52748,246.32531 6.45576,30.78617 6.82019,-1.47997 c 5.75791,-1.24946 9.70999,-3.40081 11.85576,-6.45394 2.16431,-3.05721 2.68673,-7.25521 1.56721,-12.59398 -1.11209,-5.30332 -3.26743,-8.89247 -6.46601,-10.76744 -3.18372,-1.89669 -7.65528,-2.22015 -13.4127,-0.97081 z m -8.759905,-5.09591 12.713095,-2.78742 c 8.8634,-1.94336 15.73718,-1.59097 20.62135,1.05715 4.88003,2.62843 8.10326,7.71587 9.6697,15.26232 1.57464,7.58584 0.64804,13.61405 -2.77981,18.08462 -3.42783,4.4705 -9.55303,7.67294 -18.37559,9.60735 l -12.71311,2.78742 z" style="font-style:normal;font-weight:normal;font-size:242.08590698px;line-height:1.25;font-family:sans-serif;letter-spacing:0px;word-spacing:0px;fill:#ffffff;fill-opacity:1;stroke:none;stroke-width:1.60286868" id="path1193-3-5-3-2-7-4-5-6-0-0-6-9-2-4-7-0-0" inkscape:connector-curvature="0"/>
    </g>
  </g>
</g>
    </g>
  </g>
</svg>
